<?xml version="1.0" encoding="UTF-8"?> <svg xmlns="http://www.w3.org/2000/svg" width="872" height="463" viewBox="0 0 872 463" fill="none"><g clip-path="url(#clip0)"><path d="M756.3 377.8C753.7 377.8 751.1 377.7 748.4 377.5L746.9 377.4L747.1 374.4L748.6 374.5C755.4 375 762 374.8 768.3 374L769.8 373.8L770.2 376.8L768.7 377C764.7 377.5 760.5 377.8 756.3 377.8ZM729.9 374.9L728.4 374.6C726.2 374.1 723.9 373.5 721.6 372.9C717.2 371.7 713 370.5 709 369.2L707.6 368.7L708.5 365.8L709.9 366.3C713.8 367.6 718 368.8 722.3 370C724.6 370.6 726.8 371.2 729 371.6L730.5 371.9L729.9 374.9ZM787 372.8L786 370L787.4 369.5C793.6 367.2 799.4 364.1 804.7 360.4L805.9 359.5L807.6 362L806.4 362.9C800.9 366.8 794.8 370 788.4 372.4L787 372.8ZM691.6 362.6L690.2 362C683.5 358.9 677.5 355.5 672.6 351.9L671.4 351L673.2 348.6L674.4 349.5C679.2 353 684.9 356.3 691.5 359.3L692.9 359.9L691.6 362.6ZM820.4 350.2L818.1 348.3L819.1 347.2C823.3 342.3 827 336.8 830 330.9L830.7 329.6L833.4 331L832.7 332.3C829.5 338.4 825.7 344.1 821.4 349.1L820.4 350.2ZM659.2 338.5L658.4 337.2C654.6 331.1 652.6 324.5 652.5 317.5V316H655.5V317.5C655.5 323.9 657.4 330 660.9 335.6L661.7 336.9L659.2 338.5ZM839.7 314.8L836.8 314L837.2 312.6C839 306.1 840.1 299.5 840.4 293.2L840.5 291.7L843.5 291.8L843.4 293.3C843.1 299.8 842 306.6 840.1 313.3L839.7 314.8ZM659.1 300.2L656.3 299L656.9 297.6C659.3 292 662.8 286.1 667.2 280.1L668.1 278.9L670.5 280.7L669.6 281.9C665.3 287.7 662 293.4 659.6 298.8L659.1 300.2ZM838.8 275.4L838.3 274C837.1 270.5 835.5 267.7 833.6 265.8C831.3 263.5 828.9 261.3 826.6 259.1L825.5 258.1L827.5 255.9L828.6 256.9C831 259 833.3 261.3 835.7 263.6C838 265.9 839.8 269 841.1 273L841.6 274.4L838.8 275.4ZM681.5 267.9L679.3 265.8L680.3 264.7C684.7 260.2 689.6 255.5 694.9 250.8L696 249.8L698 252.1L696.9 253.1C691.7 257.7 686.8 262.3 682.5 266.8L681.5 267.9ZM646.8 251.3C645.7 251.3 644.6 251.2 643.7 250.9L642.3 250.5L643.1 247.6L644.5 248C645.2 248.2 646 248.3 646.8 248.3C651.1 248.3 657.1 245.7 662.4 243.1L663.8 242.4L665.1 245.1L663.7 245.8C657.8 248.7 651.7 251.3 646.8 251.3ZM812.6 247.4L811.4 246.5C805.9 242.4 800.3 238.8 794.8 235.7L793.5 235L795 232.4L796.3 233.1C801.9 236.3 807.6 240 813.2 244.1L814.4 245L812.6 247.4ZM680.2 237.5L678.9 234.8L680.2 234.1C687.1 230.7 692.9 228.2 698.7 226L700.1 225.5L701.2 228.3L699.8 228.8C694.2 230.9 688.4 233.4 681.6 236.8L680.2 237.5ZM778.3 227.8L776.9 227.3C770.6 225 764.2 223.3 757.9 222.2L756.4 221.9L756.9 218.9L758.4 219.2C764.9 220.3 771.5 222.1 777.9 224.5L779.3 225L778.3 227.8ZM717.3 223.6L716.7 220.7L718.2 220.4C725 218.9 731.7 218.1 738.3 217.9H739.8L739.9 220.9H738.4C732 221.1 725.4 221.9 718.9 223.3L717.3 223.6Z" fill="black"></path><path d="M198.7 439.1L198.6 436.1H200.1C206.9 436 213.5 435.4 219.8 434.5L221.3 434.3L221.8 437.3L220.3 437.5C213.8 438.5 207.1 439 200.2 439.2L198.7 439.1ZM181.5 438.4L180 438.3C173.5 437.7 166.8 436.7 160.1 435.4L158.6 435.1L159.2 432.2L160.7 432.5C167.3 433.8 173.9 434.8 180.3 435.4L181.8 435.5L181.5 438.4ZM238.6 433.3L237.7 430.4L239.1 429.9C245.5 427.9 251.6 425.3 257.3 422.3L258.6 421.6L260 424.3L258.7 425C252.8 428.1 246.6 430.7 240 432.8L238.6 433.3ZM142 431L140.6 430.6C134.3 428.8 127.9 426.8 121.5 424.4L120.1 423.9L121.1 421.1L122.5 421.6C128.9 423.9 135.2 425.9 141.4 427.7L142.8 428.1L142 431ZM104.1 417.6L102.7 417C96.7 414.4 90.6 411.5 84.5 408.5L83.2 407.8L84.5 405.1L85.8 405.8C91.8 408.8 97.9 411.7 103.8 414.2L105.2 414.8L104.1 417.6ZM274.4 414.8L272.5 412.5L273.7 411.6C278.8 407.5 283.5 402.9 287.9 397.9L288.9 396.8L291.2 398.8L290.2 399.9C285.8 405.1 280.9 409.8 275.6 414L274.4 414.8ZM301.2 384.7L298.6 383.1L299.4 381.8C302.7 376.3 305.7 370.4 308.3 364.2L308.9 362.8L311.7 364L311.1 365.4C308.4 371.8 305.3 377.8 302 383.4L301.2 384.7ZM318.2 348.4L315.5 347.1L316.2 345.7C319.2 339.4 322.6 333.5 326.2 328.2L327 327L329.5 328.7L328.7 329.9C325.2 335.2 321.9 340.9 319 347.1L318.2 348.4ZM339.8 315.5L337.6 313.4L338.6 312.3C343.3 307.3 348.4 302.8 353.8 299L355 298.1L356.7 300.5L355.5 301.4C350.3 305.2 345.3 309.5 340.7 314.4L339.8 315.5ZM371.3 292.3L370.1 289.6L371.5 289C377.5 286.3 383.9 284.1 390.6 282.3L392.1 281.9L392.8 284.8L391.3 285.2C384.8 286.9 378.5 289 372.7 291.7L371.3 292.3ZM511.3 289.4L509.8 289.2C503.5 288.4 496.6 287.4 489.9 286.5L488.4 286.3L488.8 283.3L490.3 283.5C496.9 284.5 503.8 285.5 510.1 286.2L511.6 286.4L511.3 289.4ZM471.7 283.9L470.2 283.7C462.9 282.8 456.4 282.1 450.4 281.6L448.9 281.5L449.1 278.5L450.6 278.6C456.7 279.1 463.2 279.8 470.6 280.7L472.1 280.9L471.7 283.9ZM409.2 281.9L408.9 278.9L410.4 278.7C416.5 278 423.1 277.7 429.9 277.7H432V280.7H429.9C423.2 280.7 416.7 281 410.7 281.7L409.2 281.9Z" fill="black"></path><path d="M625.8 446.9C706.7 446.9 772.2 381.3 772.2 300.3C772.2 219.4 706.6 153.7 625.8 153.7C545 153.7 479.4 219.3 479.4 300.3C479.3 381.3 544.9 446.9 625.8 446.9Z" fill="#4ADC8F"></path><path d="M606.4 309L603.1 318.1L560.2 436.6L557.3 458.1L594.9 462.4L606.3 456.5V447L645.3 360.9L682.6 422.4L691 438L696.9 444.9L717.8 440.6L717.2 416L710.3 393L685.1 305L655.4 152.1C655.4 152.1 619 160.7 601.8 157.5C599.8 157.2 606.4 309 606.4 309Z" fill="white"></path><path d="M649.2 171.2L685 346.1L695.6 341.9L649.2 171.2Z" fill="black"></path><path d="M633.5 174.9L637.2 161.9L623.1 164.1L633.5 174.9Z" fill="black"></path><path d="M634.2 177.8L620 163L639.3 160L634.2 177.8ZM626.2 165.1L632.8 172L635.2 163.8L626.2 165.1Z" fill="black"></path><path d="M633.5 174.9C641.1 206.3 643.6 244.2 645.5 285L657 296.3L661.4 280.6C654 242 646.2 205.7 633.5 174.9Z" fill="black"></path><path d="M657.7 299.1L644 285.6V285C642 240.5 639.2 204.9 632.1 175.2L634.9 174.3C647 203.6 654.8 237.9 662.9 280.3L663 280.6L657.7 299.1ZM646.9 284.3L656.2 293.4L659.8 280.5C653.4 246.9 647.2 218.5 638.8 193.6C643.2 219.2 645.3 249 646.9 284.3Z" fill="black"></path><path d="M748.1 47.8L695.4 38.5C692.7 38 691 35.5 691.4 32.8L694.5 15.1C695 12.4 697.5 10.7 700.2 11.1L752.9 20.4C755.6 20.9 757.3 23.4 756.9 26.1L753.8 43.8C753.3 46.5 750.7 48.3 748.1 47.8Z" fill="white"></path><path d="M748.9 49.4C748.5 49.4 748.2 49.4 747.8 49.3L695.1 40C691.6 39.4 689.3 36.1 689.9 32.6L693 14.9C693.6 11.4 696.9 9.1 700.4 9.7L753.1 19C756.6 19.6 758.9 22.9 758.3 26.4L755.2 44.1C754.7 47.2 752 49.4 748.9 49.4ZM748.3 46.3C750.1 46.6 751.9 45.4 752.2 43.5L755.3 25.8C755.6 24 754.4 22.2 752.6 21.9L700 12.6C698.2 12.3 696.4 13.5 696.1 15.4L693 33.1C692.7 34.9 693.9 36.7 695.7 37L748.3 46.3Z" fill="black"></path><path d="M650.5 315C639.8 315 631.3 313.7 630.6 313.6L631.1 310.6C631.4 310.7 663.9 315.7 681.6 306.1L683 308.7C673.8 313.7 661.1 315 650.5 315Z" fill="black"></path><path d="M473.6 221.9L456.1 219.9L447.3 204.8H475.5L479.1 209.9L476.7 211.7L473.9 207.8H452.5L457.9 217.1L473.9 218.9L473.6 221.9Z" fill="black"></path><path d="M788.5 168.6L787.4 165.8L808 157.8L807.3 149.4H793.4L782.8 160L780.7 157.9L792.2 146.4H810L811.2 159.8L788.5 168.6Z" fill="black"></path><path d="M712.5 57.4L709.5 40.5L713.8 29.1L728.4 31.5L724.4 57.4" fill="white"></path><path d="M711 57.7L708 40.4L712.8 27.5L730.1 30.3L725.8 57.6L722.8 57.2L726.6 32.8L714.8 30.8L711.1 40.7L714 57.2L711 57.7Z" fill="black"></path><path d="M869.9 81.5L840.6 145.6H766.7V140.4H844" fill="black"></path><path d="M841.6 147.1H765.2V138.9H842L868.5 80.9L871.2 82.1L841.6 147.1ZM768.3 144.1H839.7L840.7 141.9H768.2V144.1H768.3Z" fill="black"></path><path d="M612.3 143L614.9 161.1L613.4 161.5C613.4 161.5 631.8 169 645 157.7L642.3 159.2L638.5 144.6" fill="white"></path><path d="M627 165.4C619.3 165.4 613.3 163 612.8 162.8L608.5 161L613.2 159.9L610.8 143.2L613.8 142.8L616.4 160.8C621.1 162.1 631.6 164.2 640.7 158.9L637 144.9L639.9 144.1L643.2 156.8L657 149.2L645.9 158.7C640 163.9 633 165.4 627 165.4Z" fill="black"></path><path d="M785.7 155H809.3L808.6 147.9H792.8L785.7 155Z" fill="black"></path><path d="M507.6 169.1H429.1V146.7H507.6V169.1ZM432.1 166.1H504.6V149.7H432.1V166.1Z" fill="black"></path><path d="M493.9 149.7H423V127.3H493.9V149.7ZM426 146.7H490.9V130.3H426V146.7Z" fill="black"></path><path d="M646.1 153.8L689.4 336.9L710.8 326.9L681.2 212.4L740.1 210.7L789.3 169L779.9 156.4L731.4 184.6L684.7 180L733.5 126.7L726.9 57.5H710.2L707.6 119.3L646.1 153.8Z" fill="white"></path><path d="M688.4 339L644.4 153L706 118.3L708.7 55.9H728.2L735 127.2L734.5 127.7L687.7 178.8L731 183L780.2 154.4L791.3 169.2L740.6 212.2H740.1L683.1 213.9L712.6 327.8L688.4 339ZM647.9 154.5L690.5 334.7L709 326L679.2 210.8L739.5 209.1L787.2 168.6L779.4 158.2L731.7 186L681.5 181.1L731.9 126.1L725.5 58.9H711.6L709 120.1L647.9 154.5Z" fill="black"></path><path d="M536.8 43.67L470.21 82.14L472.71 86.47L539.3 48L536.8 43.67Z" fill="black"></path><path d="M501.3 84.3L491.9 64.9L501.3 52L514.9 63.7L512.7 81.2" fill="white"></path><path d="M499.9 85L490.1 64.8L501 49.8L516.4 63.2L514.1 81.5L511.1 81.1L513.3 64.4L501.5 54.2L493.6 65.1L502.6 83.7L499.9 85Z" fill="black"></path><path d="M609 160.4C609 160.4 635.6 193.6 635.6 268C635.6 342.4 633.5 350.4 633.5 350.4C633.5 350.4 607.4 360.2 590.4 353.3L590 352.9L594.5 341L603.1 283.9L605.3 206.2L603.4 171.5L607.6 161L609 160.4Z" fill="black"></path><path d="M579.5 196.9L522.6 164.5L498.4 85.1L515.5 80.5L545 147.8L610.7 155.8C610.7 155.8 650.4 219.5 626 342.4C626 342.4 601.1 352.3 578.5 340.1C578.5 340.1 596.2 301.8 587.5 229.4L547 249.2L471.7 223.6L479.2 208.9L540.3 220.8L579.5 196.9Z" fill="white"></path><path d="M603.9 347.7C595.9 347.7 586.7 346.2 577.8 341.4L576.6 340.7L577.2 339.4C577.4 339 594.3 301.3 586.3 231.6L547 250.8L469.5 224.5L478.3 207.3L539.9 219.3L576.5 196.9L521.3 165.5L496.5 84.1L516.3 78.7L546 146.4L611.5 154.4L611.9 155C612.3 155.7 622 171.5 628.9 202.7C635.2 231.4 640.1 278.9 627.5 342.7L627.3 343.5L626.5 343.8C625.9 344 616.4 347.7 603.9 347.7ZM580.4 339.4C599.6 349 620.4 342.7 624.6 341.3C636.9 278.5 632.1 231.7 625.9 203.4C619.9 176.1 611.5 160.4 609.7 157.3L543.9 149.3L514.5 82.4L500.2 86.3L523.8 163.6L582.4 197L540.5 222.6L480 210.7L473.8 222.8L546.8 247.6L588.6 227.1L588.9 229.2C593.5 266.7 590.8 295 587.7 312.1C585.1 327 581.7 336.2 580.4 339.4Z" fill="black"></path><path d="M563.7 60.2C579.9 60.2 593 47.1 593 30.8C593 14.6 579.9 1.40002 563.7 1.40002C547.5 1.40002 534.4 14.5 534.4 30.8C534.4 47.1 547.5 60.2 563.7 60.2Z" fill="white"></path><path d="M563.7 61.7C546.7 61.7 532.9 47.9 532.9 30.8C532.9 13.7 546.7 0 563.7 0C580.7 0 594.5 13.8 594.5 30.9C594.5 48 580.7 61.7 563.7 61.7ZM563.7 3C548.4 3 535.9 15.5 535.9 30.9C535.9 46.3 548.4 58.8 563.7 58.8C579 58.8 591.5 46.3 591.5 30.9C591.5 15.5 579.1 3 563.7 3Z" fill="black"></path><path d="M494.5 148.2H431.7V156H494.5V148.2Z" fill="black"></path><path d="M699 18.3L694.1 17.4L692 29.9L696.9 30.8L699 18.3Z" fill="black"></path><path d="M697.2 31.4L691.3 30.4L693.7 16.9L699.6 17.9L697.2 31.4ZM692.5 29.5L696.4 30.2L698.4 18.7L694.5 18L692.5 29.5Z" fill="black"></path><path d="M494.3 188.4H415.8V166H494.3V188.4ZM418.8 185.4H491.3V169H418.8V185.4Z" fill="black"></path><path d="M715.6 416.4L708.8 393.4L691.6 335.6L694.4 334.8L718.5 415.5L715.6 416.4Z" fill="black"></path><path d="M608.4 446.2L605.7 445L645.3 357.6L690.4 431.9L687.8 433.5L645.6 364L608.4 446.2Z" fill="black"></path><path d="M591.36 344.69L560.45 431.55L563.28 432.56L594.19 345.7L591.36 344.69Z" fill="black"></path><path d="M454.7 214.5H504.8L479.1 209L477.8 204.1L458.4 202.7L449.8 204.5L454.7 214.5Z" fill="black"></path><path d="M504.8 186.9H429.3V206.3H504.8V186.9Z" fill="white"></path><path d="M506.3 207.8H427.8V185.4H506.3V207.8ZM430.8 204.8H503.3V188.4H430.8V204.8Z" fill="black"></path><path d="M494.5 186.9H429.3V192.3H494.5V186.9Z" fill="black"></path><path d="M639.5 91.2C646.4 101.1 651.1 115.2 642.7 136.4C634.3 157.6 613.3 145.8 607.8 138.8C602.3 131.8 590 106 603.2 90.9C616.4 75.7 632.5 81.4 639.5 91.2Z" fill="white"></path><path d="M628.345 151C618.429 151 608.514 144.282 604.479 139.07C600.789 134.322 595.832 124.593 593.41 114.169C590.297 100.617 592.373 89.2669 599.29 81.391C607.938 71.4303 616.815 69.6929 622.811 70.0404C630.881 70.5037 638.952 75.0208 643.794 81.9701C654.632 97.4902 655.9 115.095 647.599 135.943C643.333 146.83 636.3 150.073 631.227 150.768C630.305 150.884 629.267 151 628.345 151ZM621.542 73.3992C614.509 73.3992 607.707 76.8739 601.942 83.5916C587.53 100.154 601.02 128.878 607.246 136.87C611.166 141.966 621.888 148.568 630.881 147.294C636.992 146.367 641.488 142.198 644.486 134.669C652.211 114.979 651.058 98.4168 641.027 83.9391C636.761 77.8005 629.728 73.8625 622.695 73.3992C622.234 73.3992 621.888 73.3992 621.542 73.3992Z" fill="black"></path><path d="M606.431 96.585C606.431 96.585 640.596 111.688 651.831 91.1342C654.353 85.1157 628.214 48.4364 600.47 76.3717C593.362 77.3937 578.114 92.724 597.374 121C595.655 116.344 590.954 96.4715 606.431 96.585Z" fill="black"></path><path d="M598.634 123.5L597.5 125C597.5 125 597.5 127.5 591.5 121.5C585.5 115.5 580.986 98.6442 587 85C589.776 78.7561 592 76 599.5 75C612 58 631.02 64.2761 638.538 69.3637C646.982 75.0295 655.772 86.9393 653.69 92.0269L653.575 92.1425C648.601 101.393 638.654 105.324 624.659 103.705C615.521 102.549 607.656 99.3115 605.806 98.6177C602.567 98.6177 600.254 99.6584 598.75 101.74C594.933 107.059 597.478 117.812 598.634 121.165V123.5ZM622.114 67.3981C615.984 67.3981 608.928 69.9419 601.642 77.4577L601.179 77.9202L600.601 78.0359C598.403 78.3828 593.892 81.0422 591.348 86.8236C587.646 95.0332 590.075 104.399 593.545 111.799C593.314 107.637 593.777 103.127 596.205 99.774C598.403 96.7677 601.757 95.1489 606.268 95.1489C606.384 95.1489 606.384 95.1489 606.5 95.1489H606.847L607.193 95.2645C607.54 95.3801 640.273 109.718 650.683 90.6394C651.261 88.6737 646.519 78.614 636.572 72.1388C632.524 69.4794 627.666 67.3981 622.114 67.3981Z" fill="black"></path><path d="M80.8 402.3C80.1 402.3 79.6 401.9 79.4 401.2L75 386.7L54 398.5C53.3 398.9 52.5 398.7 52 398.1L9.50001 337.5C9.10001 337 9.10001 336.3 9.50001 335.7C9.90001 335.2 10.6 335 11.2 335.2L106.9 366.6C107.5 366.8 107.9 367.3 107.9 367.9C108 368.5 107.6 369.1 107.1 369.4L89.2 379L82.1 401.3C82.1 401.9 81.5 402.3 80.8 402.3ZM75.9 382.9C76.1 382.9 76.3 382.9 76.5 383C76.9 383.2 77.2 383.5 77.4 384L80.9 395.7L86.7 377.4C86.8 377 87.1 376.7 87.4 376.5L102.7 368.3L14.6 339.4L53.7 395.1L75.2 383.1C75.4 383 75.7 382.9 75.9 382.9Z" fill="black"></path><path d="M75.9 385.9C75.6 385.9 75.3 385.8 75 385.6L9.9 337.9C9.3 337.4 9.1 336.6 9.5 335.9C9.9 335.2 10.8 335 11.5 335.4L88.9 376.6C89.6 377 89.9 377.9 89.5 378.6C89.1 379.3 88.2 379.6 87.5 379.2L28.6 347.8L76.9 383.2C77.6 383.7 77.7 384.6 77.2 385.3C76.8 385.7 76.4 385.9 75.9 385.9Z" fill="black"></path><path d="M80.8 402.3C80.5 402.3 80.1 402.2 79.8 401.9L66.4 390.3C65.8 389.8 65.7 388.8 66.2 388.2C66.7 387.6 67.7 387.5 68.3 388L81.7 399.6C82.3 400.1 82.4 401.1 81.9 401.7C81.7 402.1 81.3 402.3 80.8 402.3Z" fill="black"></path><path d="M67.8 389.1L75.4 384.8L75.5 384.4L79.9 399.5L67.8 389.1Z" fill="black"></path><path d="M440.3 109.4L439.1 108.5C434.1 104.6 428.5 100.9 422.6 97.7L421.3 97L422.7 94.4L424 95.1C430.1 98.4 435.8 102.2 440.9 106.2L442.1 107.1L440.3 109.4ZM276.3 99.4C273.6 99.4 270.9 99.3 268.2 99L266.7 98.9L267 95.9L268.5 96C274.8 96.6 281.4 96.5 288.1 95.6L289.6 95.4L290 98.4L288.5 98.6C284.4 99.2 280.3 99.4 276.3 99.4ZM249.9 95L248.5 94.5C242.2 92.1 236.2 88.9 230.6 84.9L229.4 84L231.2 81.6L232.4 82.5C237.8 86.4 243.6 89.5 249.6 91.8L251 92.3L249.9 95ZM306.8 94.4L305.9 91.6L307.3 91.1C309.8 90.3 312.3 89.4 314.7 88.4C318.5 86.9 322.3 85.5 326.1 84.4L327.5 84L328.4 86.9L327 87.3C323.3 88.4 319.5 89.7 315.8 91.2C313.3 92.2 310.7 93.2 308.2 94L306.8 94.4ZM406.1 90L404.7 89.5C398.5 87.2 392.1 85.4 385.7 84.2L384.2 83.9L384.8 81L386.3 81.3C392.9 82.6 399.4 84.4 405.8 86.7L407.2 87.2L406.1 90ZM344.9 83.2L344.5 80.2L346 80C352.7 79.1 359.6 78.7 366.2 78.9H367.7L367.6 81.9H366.1C359.6 81.7 352.9 82.1 346.4 82.9L344.9 83.2ZM216.6 72.2L215.6 71.1C209.8 64.2 206.4 58 204.6 54L204 52.6L206.7 51.4L207.3 52.8C209 56.6 212.3 62.6 217.9 69.2L218.9 70.3L216.6 72.2Z" fill="black"></path><path d="M220 48.3H201V76.03H220V48.3Z" fill="white"></path><path d="M192.4 80.3C192.3 80.3 192.3 80.3 192.2 80.3C191.8 80.3 191.4 80 191.2 79.7L162.8 43.4C162.6 43.1 162.4 42.7 162.5 42.3C162.5 41.9 162.8 41.5 163.1 41.3L209.4 5C209.7 4.8 210.1 4.6 210.5 4.7C210.9 4.7 211.3 5 211.5 5.3L231.3 30.6C231.8 31.3 231.7 32.2 231 32.7C230.3 33.2 229.4 33.1 228.9 32.4L210 8.3L166 42.7L192.6 76.7L226.8 50C227.5 49.5 228.4 49.6 228.9 50.3C229.4 51 229.3 51.9 228.6 52.4L193.3 80C193 80.2 192.7 80.3 192.4 80.3Z" fill="black"></path><path d="M227.7 51.2L230.1 31.5L219.1 40.1L227.7 51.2Z" fill="black"></path><path d="M227.7 52.7C227.2 52.7 226.8 52.5 226.5 52.1L217.9 41.1C217.7 40.8 217.5 40.4 217.6 40C217.6 39.6 217.9 39.2 218.2 39L229.2 30.4C229.7 30 230.3 30 230.9 30.3C231.4 30.6 231.7 31.2 231.7 31.8L229.3 51.5C229.2 52.1 228.8 52.6 228.2 52.8C228 52.7 227.8 52.7 227.7 52.7ZM221.2 40.4L226.7 47.4L228.2 34.9L221.2 40.4Z" fill="black"></path><path d="M619.549 118.874C621.48 118.775 622.942 116.683 622.815 114.201C622.688 111.719 621.02 109.787 619.089 109.886C617.159 109.985 615.697 112.077 615.824 114.559C615.951 117.041 617.619 118.973 619.549 118.874Z" fill="black"></path><path d="M637.5 118C639.433 118 641 115.985 641 113.5C641 111.015 639.433 109 637.5 109C635.567 109 634 111.015 634 113.5C634 115.985 635.567 118 637.5 118Z" fill="black"></path><path d="M618 129C618 129 631 133.5 638 128C638 128 638.315 135.691 631 135.5C623.685 135.322 618 129 618 129Z" fill="black"></path></g><defs><clipPath id="clip0"><rect width="871.3" height="462.4" fill="white"></rect></clipPath></defs></svg> 