<?xml version="1.0" encoding="UTF-8"?> <svg xmlns="http://www.w3.org/2000/svg" width="130" height="152" viewBox="0 0 130 152" fill="none"><path d="M102.6 64.5999C103.4 63.8999 104.3 63.2999 105.3 62.7999C106.3 62.2999 107.3 61.9999 108.5 61.8999C108.8 61.8999 109.1 61.8999 109.4 61.8999C109.7 61.8999 110.1 61.9999 110.4 62.0999C111.1 62.3999 111.7 62.8999 112 63.4999C112.6 64.6999 112.8 65.7999 112.9 66.8999C113.1 71.2999 111.9 75.1999 110.8 79.1999C110.2 81.1999 109.7 83.0999 108.9 85.0999L108.3 86.5999C108.1 87.0999 107.8 87.5999 107.6 87.9999C107.1 88.8999 106.6 89.8999 106.1 90.7999C105 92.5999 103.7 94.3999 101.5 95.4999C100.4 96.0999 99 96.1999 97.9 95.6999C96.8 95.1999 95.8999 94.4999 95.1999 93.6999C94.9999 93.3999 94.9999 92.9999 95.2999 92.7999C95.4999 92.5999 95.8999 92.5999 96.0999 92.7999C96.7999 93.4999 97.6 93.9999 98.4 94.1999C99.2 94.3999 99.9999 94.2999 100.7 93.7999C101.4 93.3999 102.1 92.6999 102.6 91.9999C103.2 91.2999 103.7 90.3999 104.1 89.5999C104.5 88.7999 105 87.8999 105.4 86.9999C105.6 86.4999 105.8 86.0999 106 85.5999L106.5 84.1999C107.2 82.2999 107.9 80.4999 108.5 78.4999C109.1 76.5999 109.6 74.5999 110 72.6999C110.4 70.7999 110.8 68.7999 110.8 66.8999C110.8 65.9999 110.7 64.9999 110.4 64.3999C110 63.7999 109.7 63.5999 108.7 63.5999C106.9 63.6999 105 64.3999 103.6 65.4999C103.3 65.6999 102.9 65.6999 102.6 65.3999C102.3 65.2999 102.3 64.7999 102.6 64.5999Z" fill="black"></path><path d="M24.2 52.2999C24.1 58.7999 24.0999 65.2999 24.2999 71.6999C24.4999 78.1999 24.8 84.5999 25.6 90.9999C26 94.1999 26.4999 97.3999 27.4999 100.3C27.5999 100.7 27.7999 101 27.8999 101.3L28.4999 102.3C28.8999 103 29.3 103.7 29.7 104.3C30.5 105.6 31.4999 106.9 32.4999 108.2L35.4 112.1C36.4 113.4 37.4 114.8 38.2 116.4C38.6 117.2 38.9999 118 39.2999 118.8C39.4999 119.2 39.5999 119.6 39.7999 120.1L40 120.7L40.0999 121L40.2 121.2C40.5 122.2 41.3999 123.3 42.2999 124.4C44.2999 126.4 46.7999 128.2 49.5999 129.3C52.3999 130.5 55.4 131.2 58.4 131.1C61.4 131 64.3999 130.2 67.0999 128.7C67.7999 128.3 68.3999 128 69.0999 127.5L71.0999 126.1L75.0999 123.4C80.3999 119.7 85.6 115.8 89.4 110.8C91.3 108.3 92.7999 105.5 93.7999 102.4C94.7999 99.3999 95.1 96.1999 95.2 92.9999C95.2 92.5999 95.5 92.3999 95.9 92.3999C96.3 92.3999 96.4999 92.6999 96.4999 93.0999C96.3999 96.2999 96.0999 99.6999 95.0999 102.9C94.0999 106.1 92.6 109.1 90.7 111.8C88.8 114.5 86.5 116.9 84 119.1C81.5 121.3 78.9999 123.3 76.2999 125.3L72.4 128.2L70.4 129.6C69.8 130.1 68.9999 130.5 68.2999 131C65.3999 132.8 62 133.8 58.5 134.1C55 134.4 51.5 134 48.2 132.9C46.5 132.3 44.9 131.6 43.4 130.8L42.2999 130.1C41.8999 129.9 41.6 129.6 41.2 129.3C40.5 128.8 39.7999 128.2 39.0999 127.5C37.7999 126.2 36.6 124.7 35.9 122.6L35.7999 122.2L35.7 121.9L35.5999 121.4C35.4999 121 35.3999 120.7 35.2999 120.4C35.1999 120.1 35 119.7 34.9 119.4C34.8 119.1 34.5999 118.7 34.4999 118.4C33.1999 115.7 31.5 113 29.9 110.1C29.1 108.7 28.2999 107.2 27.4999 105.7C27.0999 105 26.7999 104.2 26.3999 103.5L25.8999 102.4C25.6999 102 25.4999 101.5 25.3999 101.1C24.3999 97.7999 24.0999 94.4999 23.7999 91.1999C22.7999 78.1999 22.9 65.1999 23.1 52.1999C23.1 51.7999 23.3999 51.4999 23.7999 51.4999C23.8999 51.4999 24.2 51.8999 24.2 52.2999Z" fill="black"></path><path d="M49.1 68.7999L45.8 77.0999C44.8 79.7999 43.7 82.5999 43.2 85.3999C43.1 86.0999 43 86.7999 43.1 87.3999C43.1 87.6999 43.2 87.9999 43.3 88.0999V88.2L43.4 88.2999L43.8 88.7C44.7 89.8 45.7 90.9 46.8 91.7C47.8 92.6 49 93.1999 50.1 93.3999C51.2 93.4999 52.2 93.1999 53.2 92.3999L53.3 92.2999C53.9 91.7999 54.7 91.8999 55.1 92.3999C55.6 92.9999 55.5 93.8 55 94.2L54.9 94.2999C54.5 94.5999 54.2 94.7999 53.8 94.9999C53.4 95.1999 53 95.3999 52.5 95.4999C51.6 95.7999 50.6 95.8 49.7 95.7C47.9 95.3 46.5 94.2999 45.3 93.2999C44.1 92.1999 43.1 91.0999 42.2 89.8999L41.8 89.4999L41.7 89.3999L41.6 89.2C41.5 89.1 41.4 88.8999 41.4 88.7999C41.2 88.2999 41.1 87.7999 41.1 87.2999C41.1 86.3999 41.2 85.5999 41.3 84.7999C42 81.6999 43.1 79 44.2 76.2L47.7 67.9999C47.9 67.5999 48.3 67.3999 48.7 67.5999C49.1 67.9999 49.3 68.4999 49.1 68.7999Z" fill="black"></path><path d="M63.7 70.7C65.1 69.8 66.5 69.2999 68 68.8999C69.5 68.4999 71.1 68.2999 72.6 68.2999C74.2 68.2999 75.8 68.6 77.3 69.2C78.8 69.8 80.2 70.7999 81.2 72.0999C81.5 72.4999 81.4 72.9999 81.1 73.2999C80.8 73.4999 80.5 73.4999 80.2 73.3999H80.1C78.9 72.6999 77.7 72.1999 76.5 71.8999C75.2 71.5999 73.9 71.4999 72.6 71.4999C71.2 71.4999 69.9 71.5999 68.5 71.7999C67.1 71.9999 65.7 72.1999 64.3 72.3999C63.9 72.4999 63.5001 72.2 63.4001 71.7C63.3001 71.1 63.4 70.8 63.7 70.7Z" fill="black"></path><path d="M29.2999 66.6999C30.4999 66.0999 31.6999 65.5999 32.9999 65.2999C34.2999 64.9999 35.6 64.6999 36.9 64.5999C38.3 64.4999 39.5999 64.5999 40.9999 64.8999C42.3999 65.1999 43.8 65.8999 44.9 66.9999C45.4 67.4999 45.4 68.2999 44.9 68.6999C44.5 69.0999 43.9 69.1999 43.4 68.8999H43.2999C42.3999 68.3999 41.3999 68.0999 40.2999 67.8999C39.1999 67.6999 38.1 67.5999 36.9 67.5999C35.7 67.5999 34.4999 67.6999 33.2999 67.6999L29.5999 67.9999C29.1999 67.9999 28.7999 67.6999 28.7999 67.2999C28.7999 67.0999 28.9999 66.7999 29.2999 66.6999Z" fill="black"></path><path d="M38.2 71.8999C39.9 71.8999 41.4 70.4999 41.4 68.6999C41.4 66.9999 40 65.4999 38.2 65.4999C36.5 65.4999 35 66.8999 35 68.6999C35.1 70.4999 36.5 71.8999 38.2 71.8999Z" fill="black"></path><path d="M72.4 75.3999C74.2 75.3999 75.5999 73.9999 75.5999 72.1999C75.5999 70.3999 74.2 68.9999 72.4 68.9999C70.6 68.9999 69.2 70.3999 69.2 72.1999C69.2 73.8999 70.6 75.3999 72.4 75.3999Z" fill="black"></path><path d="M56.1 37.6999C44.2 42.7999 42.3 26.8999 36.4 27.4999C30.5 28.1999 24.6 31.5999 24.2 48.8999C24.3 56.8999 24 58.9999 24 58.9999L23 59.0999C23 59.0999 20.4 19.8999 37.1 9.59993C53.8 -0.700069 78 -3.10007 92 9.79993C106 22.6999 106.7 37.7999 106.8 63.1999C102.4 65.9999 99.4 69.6999 97.9 74.5999C98 61.6999 93.2 53.6999 93.2 53.6999C93.2 53.6999 95.2 39.0999 93.7 37.3999C89.6 33.0999 78 28.1999 56.1 37.6999Z" fill="black"></path><path d="M69.0999 98.3C69.9999 98.6 70.5999 99.1 71.2999 99.6C71.8999 100.2 72.4 100.9 72.7 101.7C73 102.5 73.1999 103.3 73.2999 104.1C73.2999 104.5 73.4 104.9 73.4 105.3V106.5C73.4 107.2 72.7999 107.7 72.0999 107.7C71.3999 107.7 70.9 107.1 70.9 106.4C70.9 106.3 70.9 106.3 70.9 106.2V106.1L71.0999 105.1C71.0999 104.8 71.2 104.4 71.2 104.1C71.2 103.5 71.0999 102.8 70.9999 102.2C70.7999 101.6 70.6 101 70.2 100.5C69.8 100 69.2999 99.6 68.7999 99.3H68.7C68.4 99.1 68.2 98.7 68.4 98.4C68.5 98.3 68.7999 98.2 69.0999 98.3Z" fill="black"></path><path d="M23.4 63.8999L23.5 61.2999C23.5 61.2999 28.2 57.8999 32.2 57.6999C36.2 57.3999 45.0999 62.0999 45.0999 62.0999L43.9 64.0999C43.8 64.0999 31.2 59.6999 23.4 63.8999Z" fill="black"></path><path d="M63.2 66.2999L62.2 63.7C62.2 63.7 67.9999 61.5 76.7999 62C85.5999 62.5 87.9999 69 87.9999 69C87.9999 69 75.2 63.0999 63.2 66.2999Z" fill="black"></path><path d="M94 109.2C94.1 111 94.5 113 95.1 114.9C95.7 116.8 96.4 118.6 97.4 120.2C99.3 123.5 102.2 126.3 105.7 127.9C106.1 128.1 106.6 128.3 107 128.5L108.4 129L111.3 130L117.2 131.9C121.1 133.1 125.1 134.3 129 135.4C129.7 135.6 130.1 136.4 129.9 137.1C129.7 137.8 128.9 138.2 128.2 138C124.2 136.9 120.3 135.7 116.3 134.5L110.4 132.6L107.4 131.6L105.9 131.1C105.4 130.9 104.9 130.7 104.4 130.4C100.4 128.6 97 125.4 94.8 121.6C93.7 119.7 92.8 117.7 92.2 115.7C91.6 113.6 91.1 111.6 90.9 109.3C90.8 108.5 91.4 107.7 92.3 107.7C93.3 107.7 94 108.3 94 109.2Z" fill="black"></path><path d="M105.4 130C104.6 132 103.2 133.5 101.9 134.9C100.5 136.3 99 137.5 97.5 138.6C94.4 140.8 91.1 142.7 87.7 144.3C80.9 147.5 73.6 149.9 66.1 150.8C62.3 151.3 58.5 151.3 54.6 150.6C52.7 150.3 50.8 149.7 49 149C47.2 148.3 45.4 147.6 43.7 146.7C40.3 144.9 37.1 142.7 34.4 139.9C33 138.5 31.8 137 30.7 135.4C30.2 134.6 29.6 133.7 29.2 132.9C28.7 132 28.3 131.2 28 130.1L29.9 131.1L2.39998 138.9C1.79998 139.1 1.19998 138.7 0.999983 138.1C0.799983 137.5 1.19999 136.9 1.69999 136.7L28.9 128.1C29.6 127.9 30.4 128.2 30.7 129L30.8 129.2C31 129.9 31.4 130.7 31.8 131.5C32.2 132.3 32.6 133 33.1 133.8C34.1 135.3 35.2 136.6 36.4 137.9C38.9 140.5 41.8 142.6 44.9 144.2C46.5 145 48.1 145.8 49.8 146.4C51.5 147 53.2 147.6 54.9 147.9C58.4 148.5 62 148.5 65.6 148.1C72.8 147.3 79.9 145.1 86.5 142C89.8 140.5 93 138.7 96 136.6C97.5 135.6 98.9 134.4 100.2 133.2C101.5 132 102.6 130.6 103.2 129.2C103.4 128.6 104.1 128.4 104.7 128.6C105.4 128.8 105.6 129.4 105.4 130Z" fill="black"></path><path d="M55.2 109.6C44.7 109.6 37.3 102 37.2 101.9C36.8 101.5 36.8 100.9 37.2 100.5C37.6 100.1 38.2 100.1 38.6 100.5C39.1 101 51.5 113.7 67.2 103.8C67.7 103.5 68.3 103.6 68.6 104.1C68.9 104.6 68.8 105.2 68.3 105.5C63.6 108.5 59.2 109.6 55.2 109.6Z" fill="black"></path></svg> 