<?xml version="1.0" encoding="UTF-8"?> <svg xmlns="http://www.w3.org/2000/svg" width="547" height="365" viewBox="0 0 547 365" fill="none"><g clip-path="url(#clip0)"><path fill-rule="evenodd" clip-rule="evenodd" d="M266 68.6999C336 65.5999 414.9 19.0999 465 53.6999C515.3 88.4999 470.9 147.9 448.2 194.9C429.4 233.8 403.2 271.7 351.1 290.1C298 308.9 237.9 302.6 181.6 289.2C111.3 272.5 24.2 258.1 4.49996 207.6C-15.6 156.3 35.6 102.2 96 70.0999C143.6 44.6999 206.5 71.3999 266 68.6999Z" fill="#4ADC8F"></path><path d="M172 357.2L157 365L165.4 350L172 357.2Z" fill="black"></path><path d="M289.5 234.7L287.9 236.2L167 348.8L173.6 356L294.5 243.4L296 242H296.1C296.2 241.9 296.2 241.8 296.3 241.7C297.7 239.3 296.9 236.2 294.5 234.8C292.9 233.7 291 233.8 289.5 234.7Z" fill="black"></path><path d="M482.9 279.5C476.8 267.2 463.1 259.7 445.7 263.2C426.4 267 415 281.3 420.6 295.1C425.7 307.8 440.1 313.1 457.8 311.4C479 309.4 490.9 295.5 482.9 279.5ZM456.9 307.4C442.2 308.8 430.2 304.4 425.9 293.8C421.2 282.3 430.7 270.4 446.8 267.2C461.3 264.3 472.6 270.6 477.8 280.8C484.4 294.1 474.5 305.7 456.9 307.4Z" fill="black"></path><path d="M533.5 236.1C527.6 224.2 514.5 217.6 497.5 220.3C478.1 223.4 467.1 237.3 473.2 251.2C478.5 263.4 492.1 268.6 509.2 267C529.7 265.1 541.2 251.6 533.5 236.1ZM508.3 263.7C493.7 265.1 482.1 260.6 477.6 250.2C472.4 238.3 481.8 226.4 498.4 223.8C512.9 221.5 524.1 227.1 529.1 237.3C535.7 250.5 525.9 262 508.3 263.7Z" fill="black"></path><path d="M460.4 264.6C460.4 264.6 464.3 256.2 474.2 250L479.8 257.4C479.8 257.4 467.2 259.1 467.2 269.1" fill="black"></path><path d="M423.8 297.2L418.6 307L432 314.1L462.9 292.3C462.9 292.3 451.7 309.5 453.8 320.2C454.2 322.4 461.3 322.1 463.5 312.5C465.7 302.9 467.4 290.7 480.5 279.5L529.8 226.5L526.9 218.3L520.3 216.1L514 223.3L518.1 225.6L477.6 273.6L430.7 302.7L423.8 297.2Z" fill="black"></path><path d="M499.6 256L546.1 245C546.1 245 551.1 252.2 538 254.9C524.9 257.6 514.7 255.4 499.9 263.2C485.1 271 482.4 274.7 482.4 274.7L497.7 256.5L499.6 256Z" fill="black"></path><path d="M369.9 98.8001L387.7 108.1L384.5 111L395.6 114.5L388.9 119.8L402.4 122.7L396.3 127.6L408.1 132.9L392.1 144L312.4 174.7L284.3 185.6L277.5 145.5L279.6 104.7L355.5 92.4001L369.9 98.8001Z" fill="white"></path><path d="M160.5 234.2L286.4 187.7V174.5L252.3 144.1L152.3 86.3003L62.6999 112.7L28.2999 125.6C28.2999 125.6 95.6999 199.5 160.5 234.2Z" fill="black"></path><path d="M160.4 235.8L159.8 235.5C95.5 201.1 27.9 127.4 27.2 126.6L25.7 125L62.2999 111.3L152.5 84.7002L253.3 143L287.9 173.8V188.7L160.4 235.8ZM30.9 126.2C41.2 137.2 102.3 201.1 160.6 232.5L284.9 186.6V175.1L251.4 145.2L152.1 87.8002L63.2 114L30.9 126.2Z" fill="black"></path><path d="M35.7999 117.9C31.5999 118 29.2 117.8 29.2 117.8L169.3 225.3C187.7 215.8 239.7 196.3 285.5 187.6" fill="white"></path><path d="M169.1 227.1L24.2 115.9L29.2999 116.3C29.2999 116.3 31.7 116.5 35.7 116.4L35.7999 119.4C35.0999 119.4 34.3999 119.4 33.7999 119.4L169.5 223.5C189.8 213.2 241.8 194.4 285.3 186.1L285.9 189C242.1 197.3 189.6 216.5 170.1 226.6L169.1 227.1Z" fill="black"></path><path d="M39.1 113.6C34.5 113.8 31.9 113.6 31.9 113.6L169.5 218C193.1 203.1 214.4 197.2 286.4 180.2" fill="white"></path><path d="M169.4 219.8L168.6 219.2L26.9 111.7L32 112.1C32 112.1 34.6 112.3 39 112.1L39.1 115.1C38.1 115.1 37.2 115.2 36.4 115.2L169.5 216.2C192.6 201.8 214 195.7 286 178.8L286.7 181.7C214.2 198.8 193.3 204.7 170.3 219.3L169.4 219.8Z" fill="black"></path><path d="M166.4 82.3C166.4 82.3 127 73.9 78.8 94.7C52.5 106.1 28.2 104.3 28.2 104.3L165.9 207.4C189.5 192.5 231.9 183.3 282.8 176.5L166.4 82.3Z" fill="white"></path><path d="M165.8 209.2L165 208.6L23.2 102.4L28.2999 102.8C28.4999 102.8 52.5999 104.4 78.1999 93.3001C126.3 72.5001 166.3 80.7001 166.7 80.8001L167.1 80.9001L167.4 81.1001L286.5 177.5L283 178C224.4 185.8 187.5 195.6 166.7 208.7L165.8 209.2ZM32.9 105.9L166 205.6C186.9 192.8 222.9 183.2 279.2 175.5L165.7 83.7001C161.7 83.0001 124.2 76.7001 79.3 96.1001C59.7 104.6 41.3 105.9 32.9 105.9Z" fill="black"></path><path d="M166.4 72.4001C166.4 72.4001 127 64.0001 78.8 84.8001C52.5 96.2001 28.2 94.4001 28.2 94.4001L163.5 194.9C212.8 175.2 251.5 171.6 286.3 173.7L166.4 72.4001Z" fill="white"></path><path d="M163.3 196.6L23.2 92.5002L28.2999 92.9002C28.4999 92.9002 52.5999 94.5002 78.1999 83.4002C126.3 62.6002 166.3 70.8002 166.7 70.9002L167.1 71.0002L167.4 71.2002L290.8 175.4L286.3 175.1C244.6 172.6 207 179.1 164.1 196.2L163.3 196.6ZM32.9 96.0002L163.7 193.2C205.1 176.8 241.8 170.1 281.9 172L165.7 73.8002C161.7 73.1002 124.1 66.9002 79.4 86.2002C59.7 94.7002 41.3 96.0002 32.9 96.0002Z" fill="black"></path><path d="M160.2 60.3C160.2 60.3 120.8 51.9 72.6 72.7C46.3 84.1 22 82.3 22 82.3L157.3 182.8C157.3 182.8 183.3 186 212.8 171.8C242.3 157.6 286.4 170.5 286.4 170.5L160.2 60.3Z" fill="white"></path><path d="M164.3 184.6C160 184.6 157.4 184.3 157.1 184.3H156.7L156.4 184.1L17 80.4001L22.1 80.8001C22.3 80.8001 46.4 82.4001 72 71.3001C120.1 50.5001 160.1 58.7001 160.5 58.8001L160.9 58.9001L292.5 173.8L286 171.9C285.6 171.8 242.1 159.3 213.5 173.1C192.9 183.1 174.2 184.6 164.3 184.6ZM157.9 181.3C161.2 181.6 185.4 183.3 212.2 170.4C227.8 162.9 247.2 162.9 260.9 164.3C269 165.1 276.1 166.5 280.8 167.5L159.5 61.7001C155.4 60.9001 117.9 54.8001 73.2 74.1001C53.5 82.6001 35.1 83.9001 26.7 83.9001L157.9 181.3Z" fill="black"></path><path d="M160.2 60.3C160.2 60.3 169.1 31.9 214.5 23.3C232.8 19.8 250.4 2 250.4 2L375.3 97.9C375.3 97.9 368.6 117.5 332.5 127.6C296.4 137.7 286.5 154.3 286.5 170.4L160.2 60.3Z" fill="white"></path><path d="M288 173.7L158.5 60.8001L158.8 59.9001C159.2 58.7001 168.5 30.5001 214.3 21.9001C231.9 18.5001 249.2 1.2001 249.4 1.0001L250.3 0.100098L377.1 97.5001L376.8 98.5001C376.5 99.3001 369.4 119 333 129.2C303.2 137.5 288.1 151.5 288.1 170.6V173.7H288ZM162 59.9001L285.2 167.3C286.8 148.3 302.5 134.5 332.2 126.2C362.4 117.7 371.6 102.4 373.6 98.4001L250.5 4.0001C246.5 7.8001 231.1 21.7001 214.8 24.8001C191.8 29.1001 178.6 38.7001 171.6 46.0001C165.5 52.1001 162.8 57.7001 162 59.9001Z" fill="black"></path><path d="M287.8 172L285.1 170.8C285.6 169.8 296.5 146.3 323.9 138.8C344.1 133.3 375 118.9 385.4 108.5L373.7 102.3L375.1 99.6001L390.1 107.6L388.9 109C381.2 118.1 351.4 134.3 324.7 141.7C298.6 148.8 287.9 171.8 287.8 172Z" fill="black"></path><path d="M287.8 174.1L284.9 173.3C285.1 172.5 291.4 152.7 349.3 138.9C373.5 133.2 388.3 119.9 392.9 115.2L385.1 112.5L386.1 109.7L398.2 113.8L396.8 115.5C396.1 116.3 380.5 134.6 350.1 141.8C293.9 155.2 287.9 173.9 287.8 174.1Z" fill="black"></path><path d="M288.3 178.5L286.3 176.3C287.1 175.6 305.1 159 339.2 149C370.3 139.7 388.1 132.1 399.2 123.4L390.9 121.2L391.7 118.3L405.5 121.9L403.4 123.8C392.2 133.6 373.8 141.7 340 151.8C306.7 161.7 288.5 178.3 288.3 178.5Z" fill="black"></path><path d="M287 184.3L285.8 181.5C286.7 181.1 372.6 144.3 403 133.2L396.6 128.8L398.3 126.3L409.5 134.1L406.7 135.1C379.4 144.7 287.9 183.9 287 184.3Z" fill="black"></path><path d="M286.4 187.6L421.6 139.2L400.9 125.8L398.4 127.6L407 133.4L388.6 140.9L364.4 150.7L343.7 159.8L323.3 168.3L305 176.1L289.8 182.9L286.4 183.8V187.6V187.6Z" fill="black"></path><path d="M284.9 189.7V182.6L289.3 181.4L304.4 174.6L322.7 166.8L343.1 158.3L363.8 149.2L403.8 132.9L395.7 127.5L400.8 123.8L424.9 139.4L284.9 189.7ZM287.9 185V185.5L418.2 138.8L404.9 130.2L410.1 133.7L389.1 142.3L364.9 152.1L344.2 161.2L323.8 169.7L305.5 177.5L290.1 184.4L287.9 185Z" fill="black"></path><path d="M282 142C282 142 290 121.5 313.5 116.5C335 111.9 349 100 349 100" fill="white"></path><path d="M282 143.5C281.8 143.5 281.6 143.5 281.5 143.4C280.7 143.1 280.3 142.2 280.6 141.5C280.9 140.6 289.2 120.2 313.2 115.1C334 110.6 347.9 99 348 98.9C348.6 98.4 349.6 98.4 350.1 99.1C350.6 99.7 350.6 100.7 349.9 101.2C349.3 101.7 335.4 113.4 313.7 118C291.3 122.8 283.4 142.4 283.3 142.6C283.2 143.1 282.6 143.5 282 143.5Z" fill="black"></path><path d="M269 132C269 132 277 111.5 300.5 106.5C322 101.9 336 90 336 90" fill="white"></path><path d="M269 133.5C268.8 133.5 268.6 133.5 268.5 133.4C267.7 133.1 267.3 132.2 267.6 131.5C267.9 130.6 276.2 110.2 300.2 105.1C321 100.6 334.9 89 335 88.9C335.6 88.4 336.6 88.4 337.1 89.1C337.6 89.7 337.6 90.7 336.9 91.2C336.3 91.7 322.4 103.4 300.7 108C278.3 112.8 270.4 132.4 270.3 132.6C270.2 133.1 269.6 133.5 269 133.5Z" fill="black"></path><path d="M255 122C255 122 263 101.5 286.5 96.5C308 91.9 322 80 322 80" fill="white"></path><path d="M255 123.5C254.8 123.5 254.6 123.5 254.5 123.4C253.7 123.1 253.3 122.2 253.6 121.5C253.9 120.6 262.2 100.2 286.2 95.1C307 90.6 320.9 79 321 78.9C321.6 78.4 322.6 78.4 323.1 79.1C323.6 79.7 323.6 80.7 322.9 81.2C322.3 81.7 308.4 93.4 286.7 98C264.3 102.8 256.4 122.4 256.3 122.6C256.2 123.1 255.6 123.5 255 123.5Z" fill="black"></path><path d="M243 110C243 110 251 89.5 274.5 84.5C296 79.9 310 68 310 68" fill="white"></path><path d="M243 111.5C242.8 111.5 242.6 111.5 242.5 111.4C241.7 111.1 241.3 110.2 241.6 109.5C241.9 108.6 250.2 88.2 274.2 83.1C295 78.6 308.9 67 309 66.9C309.6 66.4 310.6 66.4 311.1 67.1C311.6 67.7 311.6 68.7 310.9 69.2C310.3 69.7 296.4 81.4 274.7 86C252.3 90.8 244.4 110.4 244.3 110.6C244.2 111.1 243.6 111.5 243 111.5Z" fill="black"></path><path d="M225 102.7L218.1 78.5H232.3L234.9 58.6L253.5 61L257.8 30" fill="white"></path><path d="M222.1 103.5L214.1 75.5001H229.7L232.3 55.2001L250.9 57.6001L254.8 29.6001L260.8 30.4001L256.1 64.4001L237.5 62.0001L234.9 81.5001H222.1L227.9 101.9L222.1 103.5Z" fill="#41DC8B"></path><path d="M53.6 92.4001C71.2 92.5001 93.1 79.9001 121.2 75.2001C149.3 70.5001 159.2 73.1001 159.2 73.1001" fill="white"></path><path d="M53.8 93.9002C53.7 93.9002 53.7 93.9002 53.6 93.9002C52.8 93.9002 52.1 93.2002 52.1 92.4002C52.1 91.6002 52.8 90.9002 53.6 90.9002C53.7 90.9002 53.7 90.9002 53.8 90.9002C62.8 90.9002 73.1 87.5002 85 83.5002C95.6 80.0002 107.6 76.0002 120.9 73.7002C149 69.0002 159.1 71.5002 159.5 71.6002C160.3 71.8002 160.8 72.6002 160.6 73.4002C160.4 74.2002 159.6 74.7002 158.8 74.5002C158.7 74.5002 148.7 72.1002 121.4 76.6002C108.3 78.8002 96.4 82.8002 86 86.3002C73.8 90.4002 63.3 93.9002 53.8 93.9002Z" fill="black"></path><path d="M66.1 104.2C83.7 104.3 105.6 91.7002 133.7 87.0002C161.8 82.3002 171.7 84.9002 171.7 84.9002" fill="white"></path><path d="M66.3 105.7C66.2 105.7 66.2 105.7 66.1 105.7C65.3 105.7 64.6 105 64.6 104.2C64.6 103.4 65.3 102.7 66.1 102.7C66.2 102.7 66.2 102.7 66.3 102.7C75.3 102.7 85.6 99.3 97.5 95.3C108.1 91.8 120.1 87.8 133.4 85.5C161.5 80.8 171.6 83.3 172 83.4C172.8 83.6 173.3 84.4 173.1 85.2C172.9 86 172.1 86.5 171.3 86.3C171.2 86.3 161.2 83.9 133.9 88.4C120.8 90.6 108.9 94.6 98.5 98.1C86.3 102.2 75.8 105.7 66.3 105.7Z" fill="black"></path><path d="M81.8 114.9C99.4 115 121.3 102.4 149.4 97.7001C177.5 93.0001 187.4 95.6001 187.4 95.6001" fill="white"></path><path d="M82 116.4C81.9 116.4 81.9 116.4 81.8 116.4C81 116.4 80.3 115.7 80.3 114.9C80.3 114.1 81 113.4 81.8 113.4C81.9 113.4 81.9 113.4 82 113.4C91 113.4 101.3 110 113.2 106C123.8 102.5 135.8 98.5002 149.1 96.2002C177.2 91.5002 187.3 94.0002 187.7 94.1002C188.5 94.3002 189 95.1002 188.8 95.9002C188.6 96.7002 187.8 97.2002 187 97.0002C186.9 97.0002 176.9 94.6002 149.6 99.1002C136.5 101.3 124.6 105.3 114.2 108.8C102 112.9 91.5 116.4 82 116.4Z" fill="black"></path></g><defs><clipPath id="clip0"><rect width="547" height="365" fill="white"></rect></clipPath></defs></svg> 