<?xml version="1.0" encoding="UTF-8"?> <svg xmlns="http://www.w3.org/2000/svg" width="1920" height="371" viewBox="0 0 1920 371" fill="none"><rect width="1920" height="371" fill="white"></rect><path d="M60.6895 360.738V324.207H73.2958C75.6873 324.207 77.7252 324.434 79.4095 324.889C81.1105 325.344 82.5 325.992 83.5779 326.834C84.6726 327.677 85.4726 328.695 85.9779 329.891C86.4831 331.087 86.7358 332.434 86.7358 333.933C86.7358 334.792 86.6095 335.618 86.3568 336.409C86.1042 337.184 85.7084 337.917 85.1695 338.607C84.6473 339.281 83.9737 339.895 83.1484 340.451C82.34 341.007 81.3716 341.479 80.2431 341.866C85.2621 342.994 87.7716 345.706 87.7716 350.001C87.7716 351.55 87.4768 352.982 86.8873 354.295C86.2979 355.609 85.4389 356.746 84.3105 357.706C83.1821 358.649 81.7926 359.39 80.1421 359.929C78.4916 360.468 76.6052 360.738 74.4831 360.738H60.6895ZM67.4852 344.721V355.432H74.3821C75.6452 355.432 76.6979 355.281 77.54 354.978C78.3989 354.674 79.081 354.27 79.5863 353.765C80.1084 353.26 80.4789 352.67 80.6979 351.997C80.9337 351.323 81.0516 350.607 81.0516 349.849C81.0516 349.058 80.9252 348.35 80.6726 347.727C80.42 347.087 80.0242 346.548 79.4852 346.11C78.9463 345.655 78.2558 345.31 77.4137 345.074C76.5716 344.839 75.5526 344.721 74.3568 344.721H67.4852ZM67.4852 340.022H72.9168C75.2242 340.022 76.9758 339.601 78.1716 338.759C79.3673 337.917 79.9652 336.578 79.9652 334.742C79.9652 332.839 79.4263 331.483 78.3484 330.674C77.2705 329.866 75.5863 329.462 73.2958 329.462H67.4852V340.022Z" fill="black"></path><path d="M99.4617 334.818V351.289C99.4617 352.872 99.8238 354.102 100.548 354.978C101.289 355.837 102.392 356.266 103.857 356.266C104.935 356.266 105.946 356.03 106.889 355.559C107.832 355.07 108.725 354.405 109.567 353.563V334.818H115.807V360.738H111.992C111.184 360.738 110.653 360.359 110.401 359.601L109.971 357.529C109.432 358.068 108.876 358.565 108.304 359.02C107.731 359.458 107.116 359.837 106.46 360.157C105.82 360.46 105.121 360.695 104.363 360.864C103.622 361.049 102.822 361.142 101.963 361.142C100.548 361.142 99.2933 360.906 98.1985 360.434C97.1206 359.946 96.2112 359.264 95.4701 358.388C94.7291 357.512 94.1648 356.477 93.7775 355.281C93.407 354.068 93.2217 352.738 93.2217 351.289V334.818H99.4617Z" fill="black"></path><path d="M132.17 367.862C131.985 368.3 131.741 368.628 131.438 368.847C131.151 369.083 130.705 369.201 130.099 369.201H125.45L130.301 358.818L119.817 334.818H125.274C125.779 334.818 126.166 334.935 126.436 335.171C126.705 335.407 126.907 335.677 127.042 335.98L132.575 349.42C132.76 349.858 132.92 350.312 133.055 350.784C133.189 351.255 133.307 351.727 133.408 352.199C133.543 351.71 133.686 351.239 133.838 350.784C134.006 350.329 134.183 349.866 134.368 349.394L139.572 335.98C139.707 335.643 139.926 335.365 140.229 335.146C140.549 334.927 140.903 334.818 141.29 334.818H146.292L132.17 367.862Z" fill="black"></path><path d="M160.293 334.413C161.927 334.413 163.426 334.674 164.79 335.197C166.171 335.719 167.359 336.485 168.352 337.495C169.346 338.489 170.121 339.719 170.677 341.184C171.232 342.632 171.51 344.291 171.51 346.161C171.51 346.632 171.485 347.028 171.434 347.348C171.401 347.651 171.325 347.895 171.207 348.081C171.106 348.249 170.963 348.375 170.778 348.46C170.592 348.527 170.357 348.561 170.07 348.561H154.053C154.239 351.222 154.954 353.175 156.201 354.422C157.447 355.668 159.098 356.291 161.152 356.291C162.163 356.291 163.03 356.173 163.754 355.938C164.496 355.702 165.135 355.441 165.674 355.154C166.23 354.868 166.71 354.607 167.114 354.371C167.536 354.135 167.94 354.018 168.327 354.018C168.58 354.018 168.799 354.068 168.984 354.169C169.169 354.27 169.329 354.413 169.464 354.599L171.283 356.872C170.592 357.681 169.818 358.363 168.959 358.919C168.1 359.458 167.199 359.895 166.256 360.232C165.329 360.552 164.378 360.78 163.401 360.914C162.441 361.049 161.506 361.117 160.597 361.117C158.794 361.117 157.119 360.822 155.569 360.232C154.02 359.626 152.672 358.742 151.527 357.58C150.382 356.401 149.481 354.952 148.824 353.234C148.167 351.5 147.839 349.495 147.839 347.222C147.839 345.453 148.125 343.794 148.698 342.245C149.27 340.679 150.087 339.323 151.148 338.178C152.226 337.015 153.531 336.098 155.064 335.424C156.613 334.75 158.357 334.413 160.293 334.413ZM160.42 338.885C158.601 338.885 157.178 339.399 156.15 340.426C155.123 341.453 154.466 342.91 154.18 344.797H165.902C165.902 343.988 165.792 343.23 165.573 342.523C165.354 341.799 165.018 341.167 164.563 340.628C164.108 340.089 163.535 339.668 162.845 339.365C162.154 339.045 161.346 338.885 160.42 338.885Z" fill="black"></path><path d="M177.077 360.738V334.818H180.74C181.38 334.818 181.827 334.935 182.079 335.171C182.332 335.407 182.5 335.811 182.585 336.384L182.964 339.517C183.89 337.917 184.976 336.653 186.222 335.727C187.469 334.801 188.867 334.338 190.416 334.338C191.696 334.338 192.757 334.632 193.599 335.222L192.791 339.895C192.74 340.199 192.631 340.418 192.462 340.552C192.294 340.67 192.067 340.729 191.78 340.729C191.528 340.729 191.182 340.67 190.745 340.552C190.307 340.434 189.726 340.375 189.001 340.375C187.705 340.375 186.593 340.738 185.667 341.462C184.74 342.169 183.957 343.213 183.317 344.594V360.738H177.077Z" fill="black"></path><path d="M884.316 360.737V324.207H896.923C899.314 324.207 901.352 324.434 903.036 324.889C904.737 325.344 906.127 325.992 907.205 326.834C908.3 327.676 909.1 328.695 909.605 329.891C910.11 331.087 910.363 332.434 910.363 333.933C910.363 334.792 910.236 335.617 909.984 336.409C909.731 337.184 909.335 337.916 908.796 338.607C908.274 339.28 907.601 339.895 906.775 340.451C905.967 341.007 904.999 341.478 903.87 341.866C908.889 342.994 911.399 345.706 911.399 350C911.399 351.55 911.104 352.982 910.514 354.295C909.925 355.609 909.066 356.746 907.937 357.706C906.809 358.649 905.42 359.39 903.769 359.929C902.119 360.468 900.232 360.737 898.11 360.737H884.316ZM891.112 344.721V355.432H898.009C899.272 355.432 900.325 355.281 901.167 354.977C902.026 354.674 902.708 354.27 903.213 353.765C903.735 353.259 904.106 352.67 904.325 351.996C904.561 351.323 904.679 350.607 904.679 349.849C904.679 349.057 904.552 348.35 904.3 347.727C904.047 347.087 903.651 346.548 903.112 346.11C902.573 345.655 901.883 345.31 901.041 345.074C900.199 344.838 899.18 344.721 897.984 344.721H891.112ZM891.112 340.022H896.544C898.851 340.022 900.603 339.6 901.799 338.758C902.994 337.916 903.592 336.577 903.592 334.742C903.592 332.838 903.053 331.483 901.975 330.674C900.897 329.866 899.213 329.462 896.923 329.462H891.112V340.022Z" fill="black"></path><path d="M917.379 360.737V334.817H921.042C921.682 334.817 922.129 334.935 922.381 335.171C922.634 335.407 922.802 335.811 922.887 336.384L923.265 339.516C924.192 337.916 925.278 336.653 926.524 335.727C927.771 334.8 929.169 334.337 930.718 334.337C931.998 334.337 933.059 334.632 933.901 335.222L933.093 339.895C933.042 340.198 932.933 340.417 932.764 340.552C932.596 340.67 932.369 340.729 932.082 340.729C931.83 340.729 931.484 340.67 931.047 340.552C930.609 340.434 930.028 340.375 929.303 340.375C928.007 340.375 926.895 340.737 925.969 341.462C925.042 342.169 924.259 343.213 923.619 344.594V360.737H917.379Z" fill="black"></path><path d="M949.575 334.413C951.512 334.413 953.263 334.725 954.829 335.348C956.413 335.971 957.76 336.855 958.872 338.001C959.983 339.146 960.842 340.544 961.448 342.194C962.055 343.845 962.358 345.689 962.358 347.727C962.358 349.782 962.055 351.634 961.448 353.285C960.842 354.935 959.983 356.342 958.872 357.504C957.76 358.666 956.413 359.558 954.829 360.182C953.263 360.805 951.512 361.116 949.575 361.116C947.638 361.116 945.878 360.805 944.295 360.182C942.712 359.558 941.356 358.666 940.227 357.504C939.116 356.342 938.248 354.935 937.625 353.285C937.019 351.634 936.716 349.782 936.716 347.727C936.716 345.689 937.019 343.845 937.625 342.194C938.248 340.544 939.116 339.146 940.227 338.001C941.356 336.855 942.712 335.971 944.295 335.348C945.878 334.725 947.638 334.413 949.575 334.413ZM949.575 356.316C951.73 356.316 953.322 355.592 954.349 354.144C955.394 352.695 955.916 350.573 955.916 347.777C955.916 344.982 955.394 342.851 954.349 341.386C953.322 339.92 951.73 339.188 949.575 339.188C947.385 339.188 945.768 339.929 944.724 341.411C943.68 342.876 943.158 344.998 943.158 347.777C943.158 350.556 943.68 352.678 944.724 354.144C945.768 355.592 947.385 356.316 949.575 356.316Z" fill="black"></path><path d="M974.048 323.196V344.695H975.21C975.631 344.695 975.959 344.636 976.195 344.518C976.431 344.4 976.683 344.182 976.953 343.862L983.395 335.904C983.681 335.567 983.984 335.306 984.304 335.12C984.624 334.918 985.045 334.817 985.568 334.817H991.277L983.218 344.443C982.932 344.796 982.637 345.125 982.334 345.428C982.031 345.714 981.702 345.967 981.349 346.186C981.702 346.438 982.014 346.733 982.283 347.07C982.553 347.407 982.822 347.769 983.092 348.156L991.732 360.737H986.098C985.61 360.737 985.197 360.653 984.86 360.485C984.523 360.316 984.22 360.03 983.951 359.626L977.357 349.798C977.104 349.411 976.852 349.158 976.599 349.041C976.347 348.923 975.968 348.864 975.462 348.864H974.048V360.737H967.808V323.196H974.048Z" fill="black"></path><path d="M1005.3 334.413C1006.93 334.413 1008.43 334.674 1009.79 335.196C1011.18 335.718 1012.36 336.485 1013.36 337.495C1014.35 338.489 1015.12 339.718 1015.68 341.184C1016.24 342.632 1016.51 344.291 1016.51 346.16C1016.51 346.632 1016.49 347.028 1016.44 347.348C1016.4 347.651 1016.33 347.895 1016.21 348.081C1016.11 348.249 1015.97 348.375 1015.78 348.459C1015.6 348.527 1015.36 348.561 1015.07 348.561H999.057C999.243 351.222 999.958 353.175 1001.2 354.422C1002.45 355.668 1004.1 356.291 1006.16 356.291C1007.17 356.291 1008.03 356.173 1008.76 355.937C1009.5 355.702 1010.14 355.441 1010.68 355.154C1011.23 354.868 1011.71 354.607 1012.12 354.371C1012.54 354.135 1012.94 354.017 1013.33 354.017C1013.58 354.017 1013.8 354.068 1013.99 354.169C1014.17 354.27 1014.33 354.413 1014.47 354.598L1016.29 356.872C1015.6 357.68 1014.82 358.363 1013.96 358.918C1013.1 359.457 1012.2 359.895 1011.26 360.232C1010.33 360.552 1009.38 360.779 1008.4 360.914C1007.44 361.049 1006.51 361.116 1005.6 361.116C1003.8 361.116 1002.12 360.822 1000.57 360.232C999.024 359.626 997.676 358.742 996.531 357.579C995.386 356.401 994.485 354.952 993.828 353.234C993.171 351.499 992.843 349.495 992.843 347.222C992.843 345.453 993.129 343.794 993.702 342.245C994.274 340.678 995.091 339.323 996.152 338.177C997.23 337.015 998.535 336.097 1000.07 335.424C1001.62 334.75 1003.36 334.413 1005.3 334.413ZM1005.42 338.885C1003.6 338.885 1002.18 339.398 1001.15 340.426C1000.13 341.453 999.47 342.91 999.184 344.796H1010.91C1010.91 343.988 1010.8 343.23 1010.58 342.523C1010.36 341.798 1010.02 341.167 1009.57 340.628C1009.11 340.089 1008.54 339.668 1007.85 339.365C1007.16 339.045 1006.35 338.885 1005.42 338.885Z" fill="black"></path><path d="M1022.08 360.737V334.817H1025.74C1026.38 334.817 1026.83 334.935 1027.08 335.171C1027.34 335.407 1027.5 335.811 1027.59 336.384L1027.97 339.516C1028.89 337.916 1029.98 336.653 1031.23 335.727C1032.47 334.8 1033.87 334.337 1035.42 334.337C1036.7 334.337 1037.76 334.632 1038.6 335.222L1037.79 339.895C1037.74 340.198 1037.63 340.417 1037.47 340.552C1037.3 340.67 1037.07 340.729 1036.78 340.729C1036.53 340.729 1036.19 340.67 1035.75 340.552C1035.31 340.434 1034.73 340.375 1034.01 340.375C1032.71 340.375 1031.6 340.737 1030.67 341.462C1029.74 342.169 1028.96 343.213 1028.32 344.594V360.737H1022.08Z" fill="black"></path><path d="M1731.62 345.579C1731.91 346.118 1732.17 346.683 1732.4 347.272C1732.66 347.845 1732.9 348.426 1733.14 349.015C1733.37 348.409 1733.62 347.811 1733.87 347.222C1734.12 346.632 1734.39 346.068 1734.68 345.529L1745.49 325.293C1745.62 325.04 1745.76 324.838 1745.89 324.687C1746.05 324.535 1746.21 324.426 1746.37 324.358C1746.56 324.291 1746.76 324.249 1746.98 324.232C1747.2 324.215 1747.46 324.207 1747.76 324.207H1752.89V360.737H1746.9V337.142C1746.9 336.704 1746.91 336.224 1746.93 335.702C1746.96 335.179 1747.01 334.649 1747.06 334.11L1736.02 354.826C1735.76 355.297 1735.44 355.668 1735.03 355.937C1734.63 356.19 1734.16 356.316 1733.62 356.316H1732.68C1732.14 356.316 1731.67 356.19 1731.27 355.937C1730.86 355.668 1730.53 355.297 1730.28 354.826L1719.09 334.034C1719.16 334.59 1719.2 335.137 1719.22 335.676C1719.25 336.198 1719.27 336.687 1719.27 337.142V360.737H1713.28V324.207H1718.41C1718.71 324.207 1718.97 324.215 1719.19 324.232C1719.41 324.249 1719.6 324.291 1719.77 324.358C1719.96 324.426 1720.13 324.535 1720.28 324.687C1720.43 324.838 1720.57 325.04 1720.71 325.293L1731.62 345.579Z" fill="black"></path><path d="M1780.72 360.737H1777.91C1777.32 360.737 1776.86 360.653 1776.52 360.485C1776.19 360.299 1775.93 359.937 1775.76 359.398L1775.21 357.554C1774.55 358.144 1773.9 358.666 1773.26 359.121C1772.64 359.558 1771.99 359.929 1771.32 360.232C1770.64 360.535 1769.93 360.763 1769.17 360.914C1768.41 361.066 1767.57 361.142 1766.64 361.142C1765.55 361.142 1764.54 360.998 1763.61 360.712C1762.69 360.409 1761.89 359.963 1761.21 359.373C1760.56 358.784 1760.04 358.051 1759.67 357.175C1759.3 356.299 1759.12 355.281 1759.12 354.118C1759.12 353.142 1759.37 352.182 1759.87 351.238C1760.4 350.278 1761.26 349.419 1762.45 348.662C1763.65 347.887 1765.24 347.247 1767.23 346.742C1769.21 346.236 1771.68 345.95 1774.63 345.883V344.367C1774.63 342.632 1774.26 341.352 1773.52 340.527C1772.79 339.685 1771.73 339.264 1770.33 339.264C1769.32 339.264 1768.48 339.382 1767.81 339.617C1767.13 339.853 1766.54 340.123 1766.04 340.426C1765.55 340.712 1765.1 340.973 1764.67 341.209C1764.25 341.445 1763.79 341.563 1763.28 341.563C1762.86 341.563 1762.5 341.453 1762.2 341.234C1761.9 341.015 1761.65 340.746 1761.47 340.426L1760.33 338.43C1763.31 335.702 1766.91 334.337 1771.12 334.337C1772.63 334.337 1773.98 334.59 1775.16 335.095C1776.35 335.584 1777.36 336.274 1778.19 337.167C1779.02 338.043 1779.64 339.095 1780.06 340.325C1780.5 341.554 1780.72 342.902 1780.72 344.367V360.737ZM1768.59 356.847C1769.23 356.847 1769.82 356.788 1770.36 356.67C1770.9 356.552 1771.4 356.375 1771.87 356.139C1772.36 355.904 1772.83 355.617 1773.26 355.281C1773.72 354.927 1774.17 354.514 1774.63 354.043V349.672C1772.81 349.756 1771.28 349.916 1770.06 350.152C1768.84 350.371 1767.87 350.657 1767.12 351.011C1766.38 351.365 1765.85 351.777 1765.53 352.249C1765.23 352.72 1765.08 353.234 1765.08 353.79C1765.08 354.885 1765.4 355.668 1766.04 356.139C1766.7 356.611 1767.55 356.847 1768.59 356.847Z" fill="black"></path><path d="M1787.36 360.737V334.817H1791.02C1791.66 334.817 1792.11 334.935 1792.36 335.171C1792.61 335.407 1792.78 335.811 1792.86 336.384L1793.24 339.516C1794.17 337.916 1795.26 336.653 1796.5 335.727C1797.75 334.8 1799.15 334.337 1800.7 334.337C1801.98 334.337 1803.04 334.632 1803.88 335.222L1803.07 339.895C1803.02 340.198 1802.91 340.417 1802.74 340.552C1802.57 340.67 1802.35 340.729 1802.06 340.729C1801.81 340.729 1801.46 340.67 1801.02 340.552C1800.59 340.434 1800.01 340.375 1799.28 340.375C1797.98 340.375 1796.87 340.737 1795.95 341.462C1795.02 342.169 1794.24 343.213 1793.6 344.594V360.737H1787.36Z" fill="black"></path><path d="M1814.8 323.196V344.695H1815.97C1816.39 344.695 1816.71 344.636 1816.95 344.518C1817.19 344.4 1817.44 344.182 1817.71 343.862L1824.15 335.904C1824.44 335.567 1824.74 335.306 1825.06 335.12C1825.38 334.918 1825.8 334.817 1826.32 334.817H1832.03L1823.97 344.443C1823.69 344.796 1823.39 345.125 1823.09 345.428C1822.79 345.714 1822.46 345.967 1822.1 346.186C1822.46 346.438 1822.77 346.733 1823.04 347.07C1823.31 347.407 1823.58 347.769 1823.85 348.156L1832.49 360.737H1826.85C1826.37 360.737 1825.95 360.653 1825.62 360.485C1825.28 360.316 1824.98 360.03 1824.71 359.626L1818.11 349.798C1817.86 349.411 1817.61 349.158 1817.35 349.041C1817.1 348.923 1816.72 348.864 1816.22 348.864H1814.8V360.737H1808.56V323.196H1814.8Z" fill="black"></path><path d="M1846.05 334.413C1847.69 334.413 1849.19 334.674 1850.55 335.196C1851.93 335.718 1853.12 336.485 1854.11 337.495C1855.11 338.489 1855.88 339.718 1856.44 341.184C1856.99 342.632 1857.27 344.291 1857.27 346.16C1857.27 346.632 1857.24 347.028 1857.19 347.348C1857.16 347.651 1857.08 347.895 1856.97 348.081C1856.87 348.249 1856.72 348.375 1856.54 348.459C1856.35 348.527 1856.12 348.561 1855.83 348.561H1839.81C1840 351.222 1840.71 353.175 1841.96 354.422C1843.21 355.668 1844.86 356.291 1846.91 356.291C1847.92 356.291 1848.79 356.173 1849.51 355.937C1850.26 355.702 1850.9 355.441 1851.43 355.154C1851.99 354.868 1852.47 354.607 1852.87 354.371C1853.3 354.135 1853.7 354.017 1854.09 354.017C1854.34 354.017 1854.56 354.068 1854.74 354.169C1854.93 354.27 1855.09 354.413 1855.22 354.598L1857.04 356.872C1856.35 357.68 1855.58 358.363 1854.72 358.918C1853.86 359.457 1852.96 359.895 1852.02 360.232C1851.09 360.552 1850.14 360.779 1849.16 360.914C1848.2 361.049 1847.27 361.116 1846.36 361.116C1844.55 361.116 1842.88 360.822 1841.33 360.232C1839.78 359.626 1838.43 358.742 1837.29 357.579C1836.14 356.401 1835.24 354.952 1834.58 353.234C1833.93 351.499 1833.6 349.495 1833.6 347.222C1833.6 345.453 1833.88 343.794 1834.46 342.245C1835.03 340.678 1835.85 339.323 1836.91 338.177C1837.99 337.015 1839.29 336.097 1840.82 335.424C1842.37 334.75 1844.12 334.413 1846.05 334.413ZM1846.18 338.885C1844.36 338.885 1842.94 339.398 1841.91 340.426C1840.88 341.453 1840.23 342.91 1839.94 344.796H1851.66C1851.66 343.988 1851.55 343.23 1851.33 342.523C1851.11 341.798 1850.78 341.167 1850.32 340.628C1849.87 340.089 1849.3 339.668 1848.6 339.365C1847.91 339.045 1847.11 338.885 1846.18 338.885Z" fill="black"></path><path d="M1871.35 361.142C1869.11 361.142 1867.38 360.51 1866.17 359.247C1864.96 357.967 1864.35 356.207 1864.35 353.967V339.491H1861.73C1861.39 339.491 1861.09 339.382 1860.84 339.163C1860.61 338.944 1860.49 338.615 1860.49 338.177V335.702L1864.66 335.019L1865.97 327.946C1866.04 327.609 1866.19 327.348 1866.42 327.163C1866.68 326.977 1866.99 326.885 1867.36 326.885H1870.59V335.045H1877.41V339.491H1870.59V353.537C1870.59 354.346 1870.79 354.977 1871.2 355.432C1871.6 355.887 1872.14 356.114 1872.82 356.114C1873.2 356.114 1873.52 356.072 1873.78 355.988C1874.05 355.887 1874.27 355.786 1874.46 355.685C1874.66 355.584 1874.84 355.491 1874.99 355.407C1875.14 355.306 1875.29 355.255 1875.44 355.255C1875.63 355.255 1875.78 355.306 1875.9 355.407C1876.02 355.491 1876.14 355.626 1876.28 355.811L1878.15 358.843C1877.24 359.601 1876.19 360.173 1875.01 360.561C1873.83 360.948 1872.61 361.142 1871.35 361.142Z" fill="black"></path><g clip-path="url(#clip0)"><path d="M228.089 198.741C225.355 182.324 213.844 168.853 198.05 163.588L162.991 151.902V146.69H154.842V154.335L148.758 178.665L132.301 158.915H120.333L103.875 178.665L97.796 154.335V146.69H89.6466V151.902L54.5879 163.588C38.7984 168.853 27.2874 182.324 24.5492 198.741L15.5645 252.633H237.069L228.089 198.741ZM106.487 244.483H61.5515L65.178 208.218L57.0694 207.408L53.3614 244.487H25.1889L32.5886 200.085C34.8256 186.651 44.2463 175.633 57.1672 171.322L90.8364 160.096L99.866 196.21L109.054 185.184L113.916 192.478L106.487 244.483ZM137.92 244.483H114.718L122.424 190.546L114.494 178.652L124.151 167.064H128.483L138.14 178.652L130.21 190.546L137.92 244.483ZM199.276 244.483L195.569 207.404L187.46 208.214L191.086 244.479H146.151L138.722 192.474L143.583 185.18L152.772 196.206L161.801 160.092L195.471 171.318C208.392 175.625 217.808 186.647 220.049 200.081L227.449 244.483H199.276Z" fill="black"></path><path d="M99.1572 197.053L123.789 167.369H128.841L152.841 196.422L150.947 244.422H100.42L99.1572 197.053Z" fill="white"></path><path d="M75.1487 109.79C77.2268 116.941 81.0651 123.497 86.4763 128.908L102.368 144.8C106.214 148.646 111.328 150.765 116.772 150.765H135.87C141.31 150.765 146.427 148.646 150.274 144.8L166.165 128.908C171.576 123.497 175.415 116.937 177.493 109.79C187.643 108.641 195.589 100.1 195.589 89.6444C195.589 82.9579 192.305 77.0618 187.313 73.3456H187.439V48.8974C187.439 38.6984 179.901 30.223 170.106 28.7521C163.973 11.6872 147.564 0.000976562 129.253 0.000976562H126.319C92.6169 0.000976562 65.1982 27.4197 65.1982 61.1215V73.3456H65.3245C60.333 77.0618 57.0488 82.9579 57.0488 89.6444C57.0488 100.1 64.9945 108.641 75.1487 109.79ZM171.141 97.2112C171.141 107.011 167.327 116.22 160.4 123.147L144.508 139.038C142.235 141.312 139.085 142.616 135.866 142.616H116.768C113.549 142.616 110.403 141.312 108.125 139.038L92.2339 123.147C85.3069 116.22 81.493 107.011 81.493 97.2152V77.4203H97.5025C115.435 77.4203 132.39 71.0516 145.788 59.3857L147.035 61.4638C152.234 70.1307 161.231 75.8923 171.141 77.1473V97.2112ZM187.439 89.6444C187.439 95.019 183.927 99.546 179.098 101.176C179.212 99.8679 179.29 98.5477 179.29 97.2152V78.1701C184.021 79.857 187.439 84.3392 187.439 89.6444ZM73.3476 61.1215C73.3476 31.914 97.1113 8.15038 126.319 8.15038H129.253C144.908 8.15038 158.847 18.6631 163.15 33.7191L163.993 36.6733H167.066C173.805 36.6733 179.29 42.1578 179.29 48.8974V69.6825C177.974 69.4135 176.609 69.2709 175.215 69.2709C166.585 69.2709 158.464 64.6747 154.023 57.2709L147.499 46.3996L143.807 50.0913C131.441 62.458 114.999 69.2709 97.5066 69.2709H77.4223C76.0288 69.2709 74.6638 69.4135 73.3476 69.6825V61.1215V61.1215ZM73.3476 78.1701V97.2152C73.3476 98.5477 73.4251 99.8679 73.5392 101.18C68.7106 99.546 65.1982 95.019 65.1982 89.6444C65.1982 84.3392 68.6169 79.857 73.3476 78.1701Z" fill="black"></path></g><g clip-path="url(#clip1)"><path d="M1061.77 198.741C1059.04 182.324 1047.53 168.853 1031.73 163.588L996.676 151.902V146.69H988.526V154.335L982.443 178.665L965.985 158.915H954.018L937.56 178.665L931.481 154.335V146.69H923.331V151.902L888.272 163.588C872.483 168.853 860.972 182.324 858.234 198.741L849.249 252.633H1070.75L1061.77 198.741ZM940.172 244.483H895.236L898.863 208.218L890.754 207.408L887.046 244.487H858.873L866.273 200.085C868.51 186.651 877.931 175.633 890.852 171.322L924.521 160.096L933.551 196.21L942.739 185.184L947.6 192.478L940.172 244.483ZM971.604 244.483H948.403L956.108 190.546L948.179 178.652L957.836 167.064H962.167L971.824 178.652L963.895 190.546L971.604 244.483ZM1032.96 244.483L1029.25 207.404L1021.14 208.214L1024.77 244.479H979.835L972.407 192.474L977.268 185.18L986.456 196.206L995.486 160.092L1029.16 171.318C1042.08 175.625 1051.49 186.647 1053.73 200.081L1061.13 244.483H1032.96Z" fill="black"></path><path d="M908.833 109.79C910.911 116.941 914.75 123.497 920.161 128.908L936.052 144.8C939.899 148.646 945.013 150.765 950.456 150.765H969.554C974.994 150.765 980.112 148.646 983.959 144.8L999.85 128.908C1005.26 123.497 1009.1 116.937 1011.18 109.79C1021.33 108.641 1029.27 100.1 1029.27 89.6444C1029.27 82.9579 1025.99 77.0618 1021 73.3456H1021.12V48.8974C1021.12 38.6984 1013.59 30.223 1003.79 28.7521C997.658 11.6872 981.249 0.000976562 962.937 0.000976562H960.003C926.301 0.000976562 898.883 27.4197 898.883 61.1215V73.3456H899.009C894.018 77.0618 890.733 82.9579 890.733 89.6444C890.733 100.1 898.679 108.641 908.833 109.79ZM1004.83 97.2112C1004.83 107.011 1001.01 116.22 994.084 123.147L978.193 139.038C975.919 141.312 972.769 142.616 969.55 142.616H950.452C947.233 142.616 944.088 141.312 941.81 139.038L925.918 123.147C918.991 116.22 915.178 107.011 915.178 97.2152V77.4203H931.187C949.12 77.4203 966.075 71.0516 979.472 59.3857L980.719 61.4638C985.918 70.1307 994.915 75.8923 1004.83 77.1473V97.2112ZM1021.12 89.6444C1021.12 95.019 1017.61 99.546 1012.78 101.176C1012.9 99.8679 1012.97 98.5477 1012.97 97.2152V78.1701C1017.71 79.857 1021.12 84.3392 1021.12 89.6444ZM907.032 61.1215C907.032 31.914 930.796 8.15038 960.003 8.15038H962.937C978.592 8.15038 992.532 18.6631 996.835 33.7191L997.678 36.6733H1000.75C1007.49 36.6733 1012.97 42.1578 1012.97 48.8974V69.6825C1011.66 69.4135 1010.29 69.2709 1008.9 69.2709C1000.27 69.2709 992.149 64.6747 987.707 57.2709L981.184 46.3996L977.492 50.0913C965.125 62.458 948.684 69.2709 931.191 69.2709H911.107C909.713 69.2709 908.348 69.4135 907.032 69.6825V61.1215V61.1215ZM907.032 78.1701V97.2152C907.032 98.5477 907.11 99.8679 907.224 101.18C902.395 99.546 898.883 95.019 898.883 89.6444C898.883 84.3392 902.301 79.857 907.032 78.1701Z" fill="black"></path></g><path d="M1916.05 86.842V78.2328L1894.04 19.5275C1892.31 14.9288 1887.86 11.842 1882.95 11.842H1832.23L1830.68 9.24858C1828.72 5.98016 1825.13 3.94727 1821.32 3.94727C1817.5 3.94727 1813.91 5.98016 1811.95 9.24858L1810.4 11.842H1781.84V3.94727H1750.26V11.842H1704.42C1699.51 11.842 1695.05 14.9288 1693.33 19.5275L1671.32 78.2328V86.842C1671.32 91.9815 1674.63 96.3236 1679.21 97.9578V154.678C1674.63 156.308 1671.32 160.65 1671.32 165.789V173.684C1671.32 178.824 1674.63 183.166 1679.21 184.8V232.895H1774.35C1776.18 241.891 1784.15 248.684 1793.68 248.684C1803.22 248.684 1811.19 241.891 1813.02 232.895H1908.16V184.8C1912.74 183.166 1916.05 178.824 1916.05 173.684V165.789C1916.05 160.65 1912.74 156.308 1908.16 154.674V97.9578C1912.74 96.3236 1916.05 91.9815 1916.05 86.842V86.842ZM1884.47 153.947V98.6841H1900.26V153.947H1884.47ZM1793.68 185.526C1756.68 185.526 1726.58 155.424 1726.58 118.421C1726.58 104.51 1730.95 90.9433 1738.97 79.642L1743.47 87.142C1737.6 96.5367 1734.47 107.285 1734.47 118.421C1734.47 151.07 1761.04 177.631 1793.68 177.631C1826.33 177.631 1852.89 151.07 1852.89 118.421C1852.89 103.433 1847.27 89.2696 1837.1 78.2841V67.2907C1852.05 79.9775 1860.79 98.5775 1860.79 118.421C1860.79 155.424 1830.69 185.526 1793.68 185.526ZM1679.21 82.8946H1710.79V86.842C1710.79 89.017 1709.02 90.7894 1706.84 90.7894H1683.16C1680.98 90.7894 1679.21 89.017 1679.21 86.842V82.8946ZM1724.05 90.7894H1722.63C1720.46 90.7894 1718.68 89.017 1718.68 86.842V82.8946H1727.74C1726.35 85.4565 1725.12 88.0894 1724.05 90.7894ZM1702.89 98.6841V153.947H1687.1V98.6841H1702.89ZM1710.79 97.9578C1712.27 97.4328 1713.6 96.6354 1714.74 95.6052C1716.54 97.2354 1718.84 98.2894 1721.39 98.5617C1719.62 104.992 1718.68 111.667 1718.68 118.421C1718.68 131.27 1721.94 143.364 1727.66 153.947H1710.79V97.9578ZM1787.5 59.2104H1781.84V52.5117C1784.64 52.0025 1787.38 51.6749 1790.07 51.521C1791.17 55.9262 1795.13 59.2104 1799.87 59.2104H1805.53V114.474H1837.1V91.1565C1842.22 99.2644 1845 108.643 1845 118.421C1845 146.716 1821.98 169.737 1793.68 169.737C1765.39 169.737 1742.37 146.716 1742.37 118.421C1742.37 110.159 1744.36 102.142 1748.12 94.8946L1756.69 109.172C1758.65 112.441 1762.24 114.474 1766.05 114.474C1769.87 114.474 1773.45 112.441 1775.42 109.172L1796.19 74.5499C1797.13 72.9749 1797.63 71.1749 1797.63 69.3394C1797.63 63.7538 1793.09 59.2104 1787.5 59.2104V59.2104ZM1868.68 86.842C1868.68 89.017 1866.91 90.7894 1864.74 90.7894H1863.4C1862.33 88.0894 1861.11 85.4486 1859.74 82.8946H1868.68V86.842ZM1868.68 118.421C1868.68 111.616 1867.74 104.953 1865.98 98.5578C1868.53 98.2854 1870.82 97.2315 1872.63 95.6052C1873.77 96.6315 1875.1 97.4328 1876.58 97.9578V153.947H1859.71C1865.43 143.364 1868.68 131.27 1868.68 118.421V118.421ZM1904.21 90.7894H1880.53C1878.35 90.7894 1876.58 89.017 1876.58 86.842V82.8946H1908.16V86.842C1908.16 89.017 1906.39 90.7894 1904.21 90.7894ZM1886.64 22.2986L1906.41 74.9999H1875.71L1861.9 19.7367H1882.95C1884.58 19.7367 1886.07 20.767 1886.64 22.2986V22.2986ZM1853.76 19.7367L1867.57 74.9999H1854.82C1850.62 69.0867 1845.53 63.7617 1839.68 59.2104H1842.77C1848.35 59.2104 1852.89 54.667 1852.89 49.0815C1852.89 47.2499 1852.4 45.446 1851.45 43.871L1836.97 19.7367H1853.76ZM1818.72 13.3104C1819.81 11.4986 1822.82 11.4986 1823.91 13.3104L1844.68 47.9288C1844.89 48.2762 1845 48.6749 1845 49.0815C1845 50.3131 1844 51.3157 1842.77 51.3157H1829.21V106.579H1813.42V51.3157H1799.87C1798.63 51.3157 1797.63 50.3131 1797.63 49.0815C1797.63 48.6749 1797.74 48.2802 1797.95 47.9328L1818.72 13.3104ZM1805.66 19.7367L1791.41 43.4881C1788.26 43.5907 1785.06 43.8907 1781.85 44.4157V19.7367H1805.66ZM1758.16 11.842H1773.95V67.1052H1787.5C1788.73 67.1052 1789.74 68.1078 1789.74 69.3394C1789.74 69.7459 1789.63 70.1407 1789.42 70.4881L1768.65 105.11C1767.56 106.922 1764.54 106.922 1763.46 105.11L1742.69 70.492C1742.48 70.1446 1742.37 69.7459 1742.37 69.3394C1742.37 68.1078 1743.37 67.1052 1744.6 67.1052H1758.16V11.842ZM1750.26 57.3038C1749.43 57.9038 1748.58 58.5394 1747.72 59.2104H1744.6C1739.02 59.2104 1734.47 63.7538 1734.47 69.3394C1734.47 70.2631 1734.6 71.1788 1734.85 72.0631C1734.09 73.0341 1733.3 73.9933 1732.59 74.9959H1719.79L1733.61 19.7328H1750.26V57.3038ZM1700.72 22.2986C1701.3 20.767 1702.78 19.7367 1704.42 19.7367H1725.47L1711.65 74.9999H1680.96L1700.72 22.2986ZM1679.21 165.789C1679.21 163.614 1680.98 161.842 1683.16 161.842H1732.65C1736.91 167.822 1742.02 173.131 1747.82 177.631H1683.16C1680.98 177.631 1679.21 175.859 1679.21 173.684V165.789ZM1687.1 185.526H1760.39C1764.7 187.67 1769.23 189.406 1773.95 190.697V225H1687.1V185.526ZM1793.68 240.789C1787.15 240.789 1781.84 235.476 1781.84 228.947V192.391C1785.71 193.01 1789.65 193.421 1793.68 193.421C1797.72 193.421 1801.66 193.01 1805.53 192.391V228.947C1805.53 235.476 1800.21 240.789 1793.68 240.789ZM1813.42 225V190.697C1818.14 189.406 1822.67 187.67 1826.98 185.526H1900.26V225H1813.42ZM1908.16 173.684C1908.16 175.859 1906.39 177.631 1904.21 177.631H1839.55C1845.34 173.131 1850.46 167.822 1854.72 161.842H1904.21C1906.39 161.842 1908.16 163.614 1908.16 165.789V173.684Z" fill="black"></path><path d="M472.319 78.6938C473.074 78.6938 473.66 78.4513 474.078 77.9662C474.495 77.4812 474.704 76.8008 474.704 75.925H478.726C478.726 76.9624 478.585 77.9056 478.302 78.7544C478.032 79.5898 477.635 80.3107 477.109 80.917C476.597 81.5098 475.964 81.9679 475.209 82.2913C474.455 82.6147 473.593 82.7763 472.623 82.7763C471.908 82.7763 471.221 82.682 470.561 82.4934C469.914 82.3048 469.295 82.1027 468.702 81.8871C468.122 81.658 467.577 81.4492 467.065 81.2605C466.553 81.0719 466.081 80.9776 465.65 80.9776C464.895 80.9776 464.309 81.2201 463.892 81.7052C463.474 82.1902 463.265 82.8707 463.265 83.7464H459.243C459.243 82.709 459.378 81.7725 459.647 80.9372C459.93 80.0883 460.328 79.3675 460.84 78.7747C461.365 78.1683 462.005 77.7035 462.76 77.3801C463.514 77.0568 464.377 76.8951 465.347 76.8951C466.061 76.8951 466.741 76.9894 467.388 77.178C468.048 77.3667 468.668 77.5755 469.247 77.8045C469.84 78.0201 470.393 78.2222 470.905 78.4109C471.417 78.5995 471.888 78.6938 472.319 78.6938Z" fill="black"></path><path d="M486.551 88.0513H492.472V71.0138C492.472 70.3536 492.493 69.6597 492.533 68.9321L488.329 72.4488C488.154 72.597 487.972 72.698 487.784 72.7519C487.608 72.8058 487.433 72.8328 487.258 72.8328C486.989 72.8328 486.739 72.7789 486.51 72.6711C486.295 72.5498 486.133 72.4151 486.025 72.2669L484.449 70.1043L493.362 62.5254H497.464V88.0513H502.719V91.7902H486.551V88.0513Z" fill="black"></path><path d="M527.399 77.178C527.399 79.7245 527.123 81.941 526.571 83.8273C526.032 85.7001 525.277 87.2496 524.307 88.4757C523.351 89.7018 522.212 90.618 520.892 91.2243C519.585 91.8172 518.17 92.1136 516.647 92.1136C515.125 92.1136 513.71 91.8172 512.403 91.2243C511.11 90.618 509.985 89.7018 509.028 88.4757C508.071 87.2496 507.324 85.7001 506.785 83.8273C506.246 81.941 505.976 79.7245 505.976 77.178C505.976 74.618 506.246 72.4016 506.785 70.5288C507.324 68.6559 508.071 67.1064 509.028 65.8803C509.985 64.6542 511.11 63.7448 512.403 63.1519C513.71 62.5456 515.125 62.2424 516.647 62.2424C518.17 62.2424 519.585 62.5456 520.892 63.1519C522.212 63.7448 523.351 64.6542 524.307 65.8803C525.277 67.1064 526.032 68.6559 526.571 70.5288C527.123 72.4016 527.399 74.618 527.399 77.178ZM522.246 77.178C522.246 75.0627 522.091 73.3111 521.781 71.9233C521.471 70.5355 521.053 69.4307 520.528 68.6088C520.016 67.7869 519.423 67.2142 518.749 66.8909C518.076 66.554 517.375 66.3856 516.647 66.3856C515.933 66.3856 515.239 66.554 514.566 66.8909C513.905 67.2142 513.319 67.7869 512.807 68.6088C512.295 69.4307 511.884 70.5355 511.575 71.9233C511.278 73.3111 511.13 75.0627 511.13 77.178C511.13 79.2934 511.278 81.045 511.575 82.4328C511.884 83.8205 512.295 84.9254 512.807 85.7473C513.319 86.5692 513.905 87.1485 514.566 87.4854C515.239 87.8088 515.933 87.9704 516.647 87.9704C517.375 87.9704 518.076 87.8088 518.749 87.4854C519.423 87.1485 520.016 86.5692 520.528 85.7473C521.053 84.9254 521.471 83.8205 521.781 82.4328C522.091 81.045 522.246 79.2934 522.246 77.178Z" fill="black"></path><path d="M543.551 69.6395C543.551 70.7443 543.362 71.7414 542.985 72.6307C542.621 73.5199 542.129 74.2812 541.509 74.9144C540.89 75.5342 540.169 76.0125 539.347 76.3494C538.525 76.6862 537.669 76.8547 536.78 76.8547C535.81 76.8547 534.914 76.6862 534.092 76.3494C533.27 76.0125 532.556 75.5342 531.95 74.9144C531.357 74.2812 530.892 73.5199 530.555 72.6307C530.219 71.7414 530.05 70.7443 530.05 69.6395C530.05 68.5077 530.219 67.4837 530.555 66.5675C530.892 65.6513 531.357 64.8765 531.95 64.2433C532.556 63.61 533.27 63.125 534.092 62.7881C534.914 62.4378 535.81 62.2627 536.78 62.2627C537.75 62.2627 538.646 62.4378 539.468 62.7881C540.304 63.125 541.024 63.61 541.631 64.2433C542.237 64.8765 542.709 65.6513 543.045 66.5675C543.382 67.4837 543.551 68.5077 543.551 69.6395ZM539.691 69.6395C539.691 68.858 539.616 68.2045 539.468 67.6791C539.32 67.1536 539.111 66.7292 538.842 66.4058C538.586 66.0824 538.276 65.8534 537.912 65.7187C537.562 65.5704 537.184 65.4963 536.78 65.4963C536.376 65.4963 535.999 65.5704 535.648 65.7187C535.298 65.8534 534.995 66.0824 534.739 66.4058C534.483 66.7292 534.281 67.1536 534.133 67.6791C533.998 68.2045 533.931 68.858 533.931 69.6395C533.931 70.394 533.998 71.0273 534.133 71.5393C534.281 72.0378 534.483 72.442 534.739 72.7519C534.995 73.0618 535.298 73.2841 535.648 73.4189C535.999 73.5536 536.376 73.621 536.78 73.621C537.184 73.621 537.562 73.5536 537.912 73.4189C538.276 73.2841 538.586 73.0618 538.842 72.7519C539.111 72.442 539.32 72.0378 539.468 71.5393C539.616 71.0273 539.691 70.394 539.691 69.6395ZM553.272 63.354C553.434 63.1519 553.636 62.97 553.878 62.8083C554.121 62.6467 554.458 62.5658 554.889 62.5658H558.507L536.8 91.0424C536.639 91.258 536.43 91.4399 536.174 91.5881C535.931 91.7229 535.635 91.7902 535.285 91.7902H531.566L553.272 63.354ZM560.043 84.9187C560.043 86.0235 559.854 87.0205 559.477 87.9098C559.113 88.7991 558.621 89.5603 558.001 90.1936C557.381 90.8134 556.661 91.2984 555.839 91.6488C555.017 91.9856 554.161 92.154 553.272 92.154C552.302 92.154 551.406 91.9856 550.584 91.6488C549.762 91.2984 549.048 90.8134 548.442 90.1936C547.849 89.5603 547.384 88.7991 547.047 87.9098C546.71 87.0205 546.542 86.0235 546.542 84.9187C546.542 83.7869 546.71 82.7629 547.047 81.8467C547.384 80.9304 547.849 80.1557 548.442 79.5224C549.048 78.8892 549.762 78.4041 550.584 78.0673C551.406 77.717 552.302 77.5418 553.272 77.5418C554.242 77.5418 555.138 77.717 555.96 78.0673C556.795 78.4041 557.516 78.8892 558.123 79.5224C558.729 80.1557 559.2 80.9304 559.537 81.8467C559.874 82.7629 560.043 83.7869 560.043 84.9187ZM556.203 84.9187C556.203 84.1372 556.122 83.4837 555.96 82.9582C555.812 82.4328 555.603 82.0083 555.333 81.685C555.077 81.3616 554.768 81.1325 554.404 80.9978C554.053 80.8496 553.676 80.7755 553.272 80.7755C552.868 80.7755 552.491 80.8496 552.14 80.9978C551.79 81.1325 551.487 81.3616 551.231 81.685C550.988 82.0083 550.793 82.4328 550.645 82.9582C550.496 83.4837 550.422 84.1372 550.422 84.9187C550.422 85.6732 550.496 86.3064 550.645 86.8184C550.793 87.3304 550.988 87.7414 551.231 88.0513C551.487 88.3612 551.79 88.5835 552.14 88.7182C552.491 88.853 552.868 88.9203 553.272 88.9203C553.676 88.9203 554.053 88.853 554.404 88.7182C554.768 88.5835 555.077 88.3612 555.333 88.0513C555.603 87.7414 555.812 87.3304 555.96 86.8184C556.122 86.3064 556.203 85.6732 556.203 84.9187Z" fill="black"></path><path d="M573.446 91.7902V74.8134L571.647 74.5304C571.256 74.4631 570.94 74.3283 570.697 74.1262C570.468 73.9241 570.354 73.6412 570.354 73.2774V71.2361H573.446V69.7001C573.446 68.5144 573.621 67.45 573.971 66.5069C574.335 65.5637 574.847 64.762 575.507 64.1018C576.181 63.4416 576.996 62.9363 577.953 62.586C578.909 62.2357 579.987 62.0605 581.187 62.0605C582.143 62.0605 583.032 62.1885 583.854 62.4445L583.753 64.9507C583.726 65.3414 583.544 65.5839 583.208 65.6782C582.871 65.7725 582.48 65.8197 582.035 65.8197C581.443 65.8197 580.91 65.8871 580.439 66.0218C579.981 66.1431 579.59 66.3654 579.267 66.6888C578.943 66.9987 578.694 67.4163 578.519 67.9418C578.357 68.4538 578.276 69.0938 578.276 69.8618V71.2361H583.672V74.7932H578.438V91.7902H573.446Z" fill="black"></path><path d="M595.701 70.7309C597.008 70.7309 598.207 70.9397 599.299 71.3574C600.403 71.7751 601.353 72.3881 602.148 73.1965C602.943 73.9915 603.563 74.9751 604.008 76.1473C604.452 77.306 604.675 78.6332 604.675 80.1288C604.675 80.506 604.654 80.8227 604.614 81.0787C604.587 81.3212 604.526 81.5165 604.432 81.6648C604.351 81.7995 604.237 81.9005 604.089 81.9679C603.94 82.0218 603.752 82.0488 603.523 82.0488H590.709C590.857 84.1776 591.43 85.7405 592.427 86.7376C593.424 87.7347 594.745 88.2332 596.388 88.2332C597.197 88.2332 597.891 88.1389 598.47 87.9502C599.063 87.7616 599.575 87.5528 600.006 87.3237C600.451 87.0947 600.835 86.8858 601.158 86.6972C601.495 86.5085 601.818 86.4142 602.128 86.4142C602.33 86.4142 602.505 86.4547 602.654 86.5355C602.802 86.6163 602.93 86.7309 603.038 86.8791L604.493 88.698C603.94 89.3448 603.321 89.8904 602.633 90.3351C601.946 90.7662 601.225 91.1165 600.471 91.386C599.73 91.642 598.969 91.8239 598.187 91.9317C597.419 92.0395 596.671 92.0934 595.944 92.0934C594.502 92.0934 593.161 91.8576 591.922 91.386C590.682 90.901 589.604 90.1936 588.688 89.2639C587.772 88.3208 587.051 87.162 586.526 85.7877C586 84.3999 585.737 82.7965 585.737 80.9776C585.737 79.5629 585.966 78.2357 586.425 76.9961C586.883 75.7431 587.536 74.6584 588.385 73.7422C589.247 72.8125 590.291 72.0782 591.518 71.5393C592.757 71.0003 594.152 70.7309 595.701 70.7309ZM595.802 74.3081C594.347 74.3081 593.209 74.7191 592.387 75.541C591.565 76.3629 591.039 77.5283 590.81 79.0374H600.188C600.188 78.3907 600.1 77.7843 599.925 77.2184C599.75 76.6391 599.481 76.1338 599.117 75.7027C598.753 75.2715 598.295 74.9347 597.742 74.6921C597.19 74.4361 596.543 74.3081 595.802 74.3081Z" fill="black"></path><path d="M617.697 70.7309C619.004 70.7309 620.204 70.9397 621.295 71.3574C622.4 71.7751 623.35 72.3881 624.145 73.1965C624.94 73.9915 625.559 74.9751 626.004 76.1473C626.449 77.306 626.671 78.6332 626.671 80.1288C626.671 80.506 626.651 80.8227 626.61 81.0787C626.583 81.3212 626.523 81.5165 626.428 81.6648C626.348 81.7995 626.233 81.9005 626.085 81.9679C625.937 82.0218 625.748 82.0488 625.519 82.0488H612.705C612.854 84.1776 613.426 85.7405 614.423 86.7376C615.42 87.7347 616.741 88.2332 618.385 88.2332C619.193 88.2332 619.887 88.1389 620.466 87.9502C621.059 87.7616 621.571 87.5528 622.002 87.3237C622.447 87.0947 622.831 86.8858 623.154 86.6972C623.491 86.5085 623.815 86.4142 624.124 86.4142C624.327 86.4142 624.502 86.4547 624.65 86.5355C624.798 86.6163 624.926 86.7309 625.034 86.8791L626.489 88.698C625.937 89.3448 625.317 89.8904 624.63 90.3351C623.943 90.7662 623.222 91.1165 622.467 91.386C621.726 91.642 620.965 91.8239 620.183 91.9317C619.415 92.0395 618.668 92.0934 617.94 92.0934C616.498 92.0934 615.158 91.8576 613.918 91.386C612.679 90.901 611.601 90.1936 610.684 89.2639C609.768 88.3208 609.047 87.162 608.522 85.7877C607.996 84.3999 607.734 82.7965 607.734 80.9776C607.734 79.5629 607.963 78.2357 608.421 76.9961C608.879 75.7431 609.532 74.6584 610.381 73.7422C611.244 72.8125 612.288 72.0782 613.514 71.5393C614.753 71.0003 616.148 70.7309 617.697 70.7309ZM617.799 74.3081C616.343 74.3081 615.205 74.7191 614.383 75.541C613.561 76.3629 613.036 77.5283 612.807 79.0374H622.184C622.184 78.3907 622.097 77.7843 621.921 77.2184C621.746 76.6391 621.477 76.1338 621.113 75.7027C620.749 75.2715 620.291 74.9347 619.739 74.6921C619.186 74.4361 618.54 74.3081 617.799 74.3081Z" fill="black"></path><path d="M1287.4 91.7897V61.7568H1292.39V73.6002C1293.21 72.7244 1294.14 72.0305 1295.18 71.5185C1296.22 70.993 1297.43 70.7303 1298.82 70.7303C1299.95 70.7303 1300.98 70.9661 1301.91 71.4377C1302.85 71.8958 1303.66 72.5695 1304.33 73.4587C1305.02 74.348 1305.55 75.4461 1305.91 76.753C1306.29 78.06 1306.48 79.5623 1306.48 81.26C1306.48 82.8095 1306.27 84.2444 1305.85 85.5648C1305.43 86.8853 1304.83 88.0305 1304.05 89.0006C1303.28 89.9707 1302.35 90.732 1301.24 91.2844C1300.15 91.8234 1298.92 92.0928 1297.56 92.0928C1296.93 92.0928 1296.35 92.0255 1295.82 91.8907C1295.3 91.7695 1294.82 91.5943 1294.39 91.3653C1293.96 91.1362 1293.55 90.86 1293.18 90.5366C1292.81 90.1998 1292.46 89.8293 1292.13 89.425L1291.9 90.8196C1291.82 91.1699 1291.68 91.4191 1291.48 91.5674C1291.29 91.7156 1291.03 91.7897 1290.69 91.7897H1287.4ZM1297.1 74.6107C1296.06 74.6107 1295.17 74.833 1294.43 75.2777C1293.7 75.7088 1293.02 76.3219 1292.39 77.1168V86.4137C1292.95 87.1143 1293.57 87.6061 1294.23 87.889C1294.9 88.1585 1295.63 88.2933 1296.41 88.2933C1297.16 88.2933 1297.85 88.1518 1298.45 87.8688C1299.06 87.5859 1299.57 87.1547 1299.99 86.5754C1300.42 85.996 1300.75 85.2684 1300.98 84.3926C1301.21 83.5034 1301.32 82.4592 1301.32 81.26C1301.32 80.0474 1301.22 79.0234 1301.02 78.188C1300.83 77.3391 1300.55 76.652 1300.19 76.1265C1299.83 75.601 1299.38 75.217 1298.86 74.9745C1298.34 74.732 1297.76 74.6107 1297.1 74.6107Z" fill="black"></path><path d="M1319.36 70.7303C1320.67 70.7303 1321.87 70.9392 1322.96 71.3568C1324.06 71.7745 1325.01 72.3876 1325.81 73.196C1326.6 73.9909 1327.22 74.9745 1327.67 76.1467C1328.11 77.3055 1328.34 78.6326 1328.34 80.1282C1328.34 80.5055 1328.32 80.8221 1328.27 81.0781C1328.25 81.3206 1328.19 81.516 1328.09 81.6642C1328.01 81.7989 1327.9 81.9 1327.75 81.9674C1327.6 82.0213 1327.41 82.0482 1327.18 82.0482H1314.37C1314.52 84.177 1315.09 85.74 1316.09 86.737C1317.08 87.7341 1318.41 88.2326 1320.05 88.2326C1320.86 88.2326 1321.55 88.1383 1322.13 87.9497C1322.72 87.761 1323.24 87.5522 1323.67 87.3232C1324.11 87.0941 1324.5 86.8853 1324.82 86.6966C1325.16 86.508 1325.48 86.4137 1325.79 86.4137C1325.99 86.4137 1326.17 86.4541 1326.31 86.5349C1326.46 86.6158 1326.59 86.7303 1326.7 86.8785L1328.15 88.6975C1327.6 89.3442 1326.98 89.8899 1326.29 90.3345C1325.61 90.7657 1324.89 91.116 1324.13 91.3855C1323.39 91.6415 1322.63 91.8234 1321.85 91.9311C1321.08 92.0389 1320.33 92.0928 1319.6 92.0928C1318.16 92.0928 1316.82 91.857 1315.58 91.3855C1314.34 90.9004 1313.27 90.193 1312.35 89.2634C1311.43 88.3202 1310.71 87.1615 1310.19 85.7872C1309.66 84.3994 1309.4 82.796 1309.4 80.977C1309.4 79.5623 1309.63 78.2352 1310.09 76.9956C1310.54 75.7425 1311.2 74.6579 1312.05 73.7417C1312.91 72.812 1313.95 72.0777 1315.18 71.5387C1316.42 70.9998 1317.81 70.7303 1319.36 70.7303ZM1319.46 74.3076C1318.01 74.3076 1316.87 74.7185 1316.05 75.5404C1315.23 76.3623 1314.7 77.5278 1314.47 79.0368H1323.85C1323.85 78.3901 1323.76 77.7838 1323.59 77.2179C1323.41 76.6385 1323.14 76.1333 1322.78 75.7021C1322.41 75.2709 1321.96 74.9341 1321.4 74.6916C1320.85 74.4356 1320.2 74.3076 1319.46 74.3076Z" fill="black"></path><path d="M1345.1 75.0958C1344.96 75.3114 1344.82 75.4663 1344.67 75.5606C1344.52 75.6415 1344.34 75.6819 1344.11 75.6819C1343.86 75.6819 1343.6 75.6145 1343.32 75.4798C1343.05 75.345 1342.73 75.1968 1342.37 75.0352C1342.01 74.86 1341.59 74.705 1341.12 74.5703C1340.66 74.4356 1340.11 74.3682 1339.48 74.3682C1338.5 74.3682 1337.72 74.577 1337.15 74.9947C1336.59 75.4124 1336.31 75.9581 1336.31 76.6318C1336.31 77.0764 1336.45 77.4537 1336.73 77.7636C1337.03 78.06 1337.41 78.3227 1337.88 78.5518C1338.37 78.7808 1338.91 78.9897 1339.52 79.1783C1340.13 79.3535 1340.75 79.5488 1341.38 79.7644C1342.01 79.98 1342.63 80.2293 1343.24 80.5122C1343.84 80.7817 1344.38 81.132 1344.85 81.5632C1345.34 81.9808 1345.72 82.4861 1346.01 83.0789C1346.3 83.6718 1346.45 84.3859 1346.45 85.2213C1346.45 86.2183 1346.27 87.1413 1345.91 87.9901C1345.54 88.8255 1345.01 89.553 1344.31 90.1728C1343.61 90.7792 1342.74 91.2575 1341.7 91.6078C1340.68 91.9446 1339.5 92.113 1338.17 92.113C1337.45 92.113 1336.75 92.0457 1336.06 91.9109C1335.39 91.7897 1334.74 91.6145 1334.1 91.3855C1333.48 91.1564 1332.9 90.8869 1332.36 90.577C1331.84 90.2672 1331.37 89.9303 1330.97 89.5665L1332.12 87.6667C1332.27 87.4377 1332.45 87.2625 1332.65 87.1413C1332.85 87.02 1333.11 86.9594 1333.42 86.9594C1333.73 86.9594 1334.02 87.0469 1334.28 87.2221C1334.57 87.3973 1334.89 87.5859 1335.25 87.788C1335.62 87.9901 1336.04 88.1787 1336.53 88.3539C1337.03 88.529 1337.65 88.6166 1338.41 88.6166C1339 88.6166 1339.51 88.5493 1339.92 88.4145C1340.35 88.2663 1340.7 88.0777 1340.97 87.8486C1341.26 87.6196 1341.46 87.3568 1341.58 87.0604C1341.72 86.7505 1341.78 86.4339 1341.78 86.1105C1341.78 85.6255 1341.63 85.228 1341.34 84.9181C1341.06 84.6082 1340.67 84.3387 1340.19 84.1097C1339.71 83.8806 1339.17 83.6785 1338.55 83.5034C1337.94 83.3147 1337.32 83.1126 1336.67 82.897C1336.04 82.6815 1335.41 82.4322 1334.79 82.1493C1334.18 81.8528 1333.64 81.4823 1333.15 81.0377C1332.68 80.593 1332.3 80.0474 1332 79.4006C1331.72 78.7539 1331.58 77.9724 1331.58 77.0562C1331.58 76.2074 1331.74 75.3989 1332.08 74.6309C1332.42 73.8629 1332.91 73.196 1333.56 72.6301C1334.22 72.0507 1335.03 71.5926 1336 71.2558C1336.99 70.9055 1338.12 70.7303 1339.4 70.7303C1340.83 70.7303 1342.13 70.9661 1343.3 71.4377C1344.47 71.9093 1345.45 72.529 1346.23 73.297L1345.1 75.0958Z" fill="black"></path><path d="M1357.65 92.113C1355.86 92.113 1354.48 91.6078 1353.51 90.5973C1352.54 89.5733 1352.05 88.1653 1352.05 86.3733V74.7926H1349.95C1349.68 74.7926 1349.44 74.705 1349.24 74.5299C1349.05 74.3547 1348.96 74.092 1348.96 73.7417V71.761L1352.29 71.2154L1353.34 65.5564C1353.4 65.2869 1353.52 65.0781 1353.71 64.9299C1353.91 64.7817 1354.16 64.7076 1354.46 64.7076H1357.04V71.2356H1362.5V74.7926H1357.04V86.0297C1357.04 86.6764 1357.2 87.1817 1357.53 87.5455C1357.85 87.9093 1358.28 88.0911 1358.82 88.0911C1359.13 88.0911 1359.39 88.0575 1359.59 87.9901C1359.8 87.9093 1359.99 87.8284 1360.13 87.7476C1360.3 87.6667 1360.44 87.5926 1360.56 87.5253C1360.68 87.4444 1360.8 87.404 1360.92 87.404C1361.07 87.404 1361.19 87.4444 1361.29 87.5253C1361.38 87.5926 1361.48 87.7004 1361.59 87.8486L1363.09 90.2739C1362.36 90.8802 1361.52 91.3383 1360.58 91.6482C1359.64 91.9581 1358.66 92.113 1357.65 92.113Z" fill="black"></path><path d="M1375.09 98.5602V71.0537H1378.15C1378.47 71.0537 1378.75 71.1278 1378.97 71.276C1379.2 71.4242 1379.35 71.6533 1379.42 71.9632L1379.82 73.8832C1380.66 72.9265 1381.61 72.1518 1382.69 71.5589C1383.78 70.9661 1385.06 70.6697 1386.51 70.6697C1387.64 70.6697 1388.68 70.9055 1389.6 71.377C1390.55 71.8486 1391.36 72.5358 1392.03 73.4385C1392.72 74.3278 1393.24 75.4326 1393.61 76.753C1393.98 78.06 1394.17 79.5623 1394.17 81.26C1394.17 82.8095 1393.96 84.2444 1393.55 85.5648C1393.13 86.8853 1392.53 88.0305 1391.75 89.0006C1390.98 89.9707 1390.04 90.732 1388.94 91.2844C1387.85 91.8234 1386.62 92.0928 1385.26 92.0928C1384.09 92.0928 1383.09 91.9177 1382.27 91.5674C1381.46 91.2036 1380.73 90.705 1380.09 90.0718V98.5602H1375.09ZM1384.79 74.6107C1383.76 74.6107 1382.87 74.833 1382.13 75.2777C1381.4 75.7088 1380.72 76.3219 1380.09 77.1168V86.4137C1380.65 87.1143 1381.26 87.6061 1381.92 87.889C1382.6 88.1585 1383.32 88.2933 1384.09 88.2933C1384.84 88.2933 1385.52 88.1518 1386.13 87.8688C1386.75 87.5859 1387.27 87.1547 1387.68 86.5754C1388.12 85.996 1388.45 85.2684 1388.68 84.3926C1388.9 83.5034 1389.02 82.4592 1389.02 81.26C1389.02 80.0474 1388.92 79.0234 1388.72 78.188C1388.53 77.3391 1388.25 76.652 1387.89 76.1265C1387.52 75.601 1387.08 75.217 1386.55 74.9745C1386.04 74.732 1385.46 74.6107 1384.79 74.6107Z" fill="black"></path><path d="M1398.35 91.7897V71.0537H1401.28C1401.8 71.0537 1402.15 71.148 1402.35 71.3366C1402.56 71.5253 1402.69 71.8486 1402.76 72.3067L1403.06 74.8128C1403.8 73.5328 1404.67 72.5223 1405.67 71.7813C1406.67 71.0402 1407.78 70.6697 1409.02 70.6697C1410.05 70.6697 1410.9 70.9055 1411.57 71.377L1410.92 75.116C1410.88 75.3585 1410.8 75.5337 1410.66 75.6415C1410.53 75.7358 1410.34 75.7829 1410.12 75.7829C1409.91 75.7829 1409.64 75.7358 1409.29 75.6415C1408.94 75.5472 1408.47 75.5 1407.89 75.5C1406.86 75.5 1405.97 75.7897 1405.22 76.369C1404.48 76.9349 1403.86 77.7703 1403.35 78.8751V91.7897H1398.35Z" fill="black"></path><path d="M1420.57 71.0537V91.7897H1415.58V71.0537H1420.57ZM1421.32 65.0107C1421.32 65.4419 1421.23 65.8461 1421.06 66.2234C1420.88 66.6006 1420.65 66.9307 1420.35 67.2137C1420.07 67.4966 1419.73 67.7257 1419.34 67.9008C1418.95 68.0625 1418.53 68.1434 1418.09 68.1434C1417.66 68.1434 1417.24 68.0625 1416.85 67.9008C1416.48 67.7257 1416.15 67.4966 1415.86 67.2137C1415.58 66.9307 1415.35 66.6006 1415.18 66.2234C1415.01 65.8461 1414.93 65.4419 1414.93 65.0107C1414.93 64.5661 1415.01 64.1484 1415.18 63.7577C1415.35 63.3669 1415.58 63.0301 1415.86 62.7472C1416.15 62.4642 1416.48 62.2419 1416.85 62.0802C1417.24 61.905 1417.66 61.8175 1418.09 61.8175C1418.53 61.8175 1418.95 61.905 1419.34 62.0802C1419.73 62.2419 1420.07 62.4642 1420.35 62.7472C1420.65 63.0301 1420.88 63.3669 1421.06 63.7577C1421.23 64.1484 1421.32 64.5661 1421.32 65.0107Z" fill="black"></path><path d="M1441.21 75.4394C1441.06 75.628 1440.91 75.7762 1440.76 75.884C1440.63 75.9918 1440.43 76.0457 1440.16 76.0457C1439.9 76.0457 1439.65 75.9716 1439.41 75.8234C1439.17 75.6617 1438.88 75.4865 1438.54 75.2979C1438.2 75.0958 1437.8 74.9206 1437.33 74.7724C1436.87 74.6107 1436.3 74.5299 1435.61 74.5299C1434.73 74.5299 1433.97 74.6916 1433.3 75.0149C1432.64 75.3248 1432.09 75.7762 1431.65 76.369C1431.22 76.9619 1430.89 77.6827 1430.68 78.5316C1430.46 79.3669 1430.35 80.3168 1430.35 81.3813C1430.35 82.4861 1430.47 83.4697 1430.7 84.332C1430.94 85.1943 1431.28 85.9219 1431.73 86.5147C1432.17 87.0941 1432.71 87.5387 1433.35 87.8486C1433.98 88.145 1434.69 88.2933 1435.49 88.2933C1436.28 88.2933 1436.92 88.1989 1437.41 88.0103C1437.91 87.8082 1438.32 87.5926 1438.66 87.3636C1439 87.121 1439.29 86.9055 1439.53 86.7168C1439.79 86.5147 1440.07 86.4137 1440.38 86.4137C1440.78 86.4137 1441.09 86.5686 1441.29 86.8785L1442.72 88.6975C1442.17 89.3442 1441.57 89.8899 1440.92 90.3345C1440.28 90.7657 1439.6 91.116 1438.9 91.3855C1438.22 91.6415 1437.5 91.8234 1436.76 91.9311C1436.02 92.0389 1435.29 92.0928 1434.56 92.0928C1433.28 92.0928 1432.07 91.857 1430.94 91.3855C1429.81 90.9004 1428.82 90.1998 1427.97 89.2836C1427.13 88.3674 1426.47 87.249 1425.97 85.9286C1425.48 84.5947 1425.24 83.0789 1425.24 81.3813C1425.24 79.8587 1425.46 78.4507 1425.89 77.1573C1426.33 75.8503 1426.98 74.7253 1427.83 73.7821C1428.68 72.8255 1429.73 72.0777 1430.98 71.5387C1432.23 70.9998 1433.68 70.7303 1435.31 70.7303C1436.86 70.7303 1438.21 70.9796 1439.37 71.4781C1440.54 71.9766 1441.59 72.6907 1442.52 73.6204L1441.21 75.4394Z" fill="black"></path><path d="M1454.87 70.7303C1456.18 70.7303 1457.38 70.9392 1458.47 71.3568C1459.57 71.7745 1460.52 72.3876 1461.32 73.196C1462.11 73.9909 1462.73 74.9745 1463.18 76.1467C1463.62 77.3055 1463.85 78.6326 1463.85 80.1282C1463.85 80.5055 1463.83 80.8221 1463.78 81.0781C1463.76 81.3206 1463.7 81.516 1463.6 81.6642C1463.52 81.7989 1463.41 81.9 1463.26 81.9674C1463.11 82.0213 1462.92 82.0482 1462.69 82.0482H1449.88C1450.03 84.177 1450.6 85.74 1451.6 86.737C1452.59 87.7341 1453.92 88.2326 1455.56 88.2326C1456.37 88.2326 1457.06 88.1383 1457.64 87.9497C1458.23 87.761 1458.75 87.5522 1459.18 87.3232C1459.62 87.0941 1460.01 86.8853 1460.33 86.6966C1460.67 86.508 1460.99 86.4137 1461.3 86.4137C1461.5 86.4137 1461.68 86.4541 1461.82 86.5349C1461.97 86.6158 1462.1 86.7303 1462.21 86.8785L1463.66 88.6975C1463.11 89.3442 1462.49 89.8899 1461.8 90.3345C1461.12 90.7657 1460.4 91.116 1459.64 91.3855C1458.9 91.6415 1458.14 91.8234 1457.36 91.9311C1456.59 92.0389 1455.84 92.0928 1455.11 92.0928C1453.67 92.0928 1452.33 91.857 1451.09 91.3855C1449.85 90.9004 1448.78 90.193 1447.86 89.2634C1446.94 88.3202 1446.22 87.1615 1445.7 85.7872C1445.17 84.3994 1444.91 82.796 1444.91 80.977C1444.91 79.5623 1445.14 78.2352 1445.6 76.9956C1446.05 75.7425 1446.71 74.6579 1447.56 73.7417C1448.42 72.812 1449.46 72.0777 1450.69 71.5387C1451.93 70.9998 1453.32 70.7303 1454.87 70.7303ZM1454.97 74.3076C1453.52 74.3076 1452.38 74.7185 1451.56 75.5404C1450.74 76.3623 1450.21 77.5278 1449.98 79.0368H1459.36C1459.36 78.3901 1459.27 77.7838 1459.1 77.2179C1458.92 76.6385 1458.65 76.1333 1458.29 75.7021C1457.92 75.2709 1457.47 74.9341 1456.91 74.6916C1456.36 74.4356 1455.71 74.3076 1454.97 74.3076Z" fill="black"></path><path fill-rule="evenodd" clip-rule="evenodd" d="M723.827 119.731L747.943 143.847C749.423 145.327 749.423 147.726 747.943 149.206L723.827 173.322C722.347 174.802 719.948 174.802 718.468 173.322C716.988 171.842 716.988 169.443 718.468 167.963L736.115 150.316H341.053V142.737H736.115L718.468 125.09C716.988 123.61 716.988 121.211 718.468 119.731C719.948 118.251 722.347 118.251 723.827 119.731Z" fill="black"></path><path fill-rule="evenodd" clip-rule="evenodd" d="M1557.51 119.731L1581.63 143.847C1583.11 145.327 1583.11 147.726 1581.63 149.206L1557.51 173.322C1556.03 174.802 1553.63 174.802 1552.15 173.322C1550.67 171.842 1550.67 169.443 1552.15 167.963L1569.8 150.316H1174.74V142.737H1569.8L1552.15 125.09C1550.67 123.61 1550.67 121.211 1552.15 119.731C1553.63 118.251 1556.03 118.251 1557.51 119.731Z" fill="black"></path><path fill-rule="evenodd" clip-rule="evenodd" d="M1196.17 173.322L1172.06 149.206C1170.58 147.726 1170.58 145.326 1172.06 143.847L1196.17 119.731C1197.65 118.251 1200.05 118.251 1201.53 119.731C1203.01 121.21 1203.01 123.61 1201.53 125.09L1183.89 142.737L1578.95 142.737L1578.95 150.316L1183.89 150.316L1201.53 167.963C1203.01 169.443 1203.01 171.842 1201.53 173.322C1200.05 174.802 1197.65 174.802 1196.17 173.322Z" fill="black"></path><defs><clipPath id="clip0"><rect width="252.632" height="252.632" fill="white"></rect></clipPath><clipPath id="clip1"><rect x="833.685" width="252.632" height="252.632" fill="white"></rect></clipPath></defs></svg> 