<?xml version="1.0" encoding="UTF-8"?> <svg xmlns="http://www.w3.org/2000/svg" width="24" height="24" viewBox="0 0 24 24" fill="none"><path d="M9.89062 12.7031H14.1094V14.1094H9.89062V12.7031Z" fill="black"></path><path d="M19.4709 14.1094H15.5156V14.8125C15.5156 15.201 15.201 15.5156 14.8125 15.5156H9.1875C8.79895 15.5156 8.48438 15.201 8.48438 14.8125V14.1094H4.52911C3.62 14.1094 2.81598 13.5298 2.52814 12.6674L0 5.08173V20.4375C0 21.6006 0.946289 22.5469 2.10938 22.5469H21.8906C23.0537 22.5469 24 21.6006 24 20.4375V5.08228L21.4717 12.6674C21.184 13.5298 20.38 14.1094 19.4709 14.1094V14.1094Z" fill="black"></path><path d="M14.8124 1.45312H9.18744C8.02435 1.45312 7.07806 2.39941 7.07806 3.5625V4.26562H1.20972L3.86163 12.2225C3.95776 12.5101 4.2262 12.7031 4.52905 12.7031H8.48431V12C8.48431 11.6115 8.79889 11.2969 9.18744 11.2969H14.8124C15.201 11.2969 15.5156 11.6115 15.5156 12V12.7031H19.4708C19.7737 12.7031 20.0421 12.5101 20.1382 12.2225L22.7903 4.26562H16.9218V3.5625C16.9218 2.39941 15.9755 1.45312 14.8124 1.45312V1.45312ZM8.48431 4.26562V3.5625C8.48431 3.1745 8.79944 2.85938 9.18744 2.85938H14.8124C15.2004 2.85938 15.5156 3.1745 15.5156 3.5625V4.26562H8.48431Z" fill="black"></path></svg> 