<?xml version="1.0" encoding="UTF-8"?> <svg xmlns="http://www.w3.org/2000/svg" width="583" height="554" viewBox="0 0 583 554" fill="none"><path fill-rule="evenodd" clip-rule="evenodd" d="M263.21 123.445C263.635 123.232 264.135 123.232 264.559 123.445L320.754 151.738C321.261 151.993 321.58 152.512 321.579 153.079C321.579 153.646 321.259 154.164 320.752 154.418L269.374 180.18C268.951 180.393 268.452 180.393 268.029 180.18L211.835 152.003C211.328 151.749 211.008 151.231 211.007 150.664C211.007 150.097 211.326 149.578 211.832 149.323L263.21 123.445ZM263.885 126.465L215.848 150.659L268.702 177.162L316.738 153.075L263.885 126.465Z" fill="black"></path><path fill-rule="evenodd" clip-rule="evenodd" d="M212.507 149.162C213.336 149.162 214.007 149.834 214.007 150.662V435.54C214.007 436.369 213.336 437.04 212.507 437.04C211.679 437.04 211.007 436.369 211.007 435.54V150.662C211.007 149.834 211.679 149.162 212.507 149.162Z" fill="black"></path><path fill-rule="evenodd" clip-rule="evenodd" d="M211.166 434.868C211.538 434.127 212.439 433.828 213.18 434.199L268.699 462.038L282.131 455.248C282.87 454.875 283.773 455.171 284.146 455.91C284.52 456.65 284.224 457.552 283.484 457.926L268.704 465.397L211.835 436.881C211.094 436.51 210.795 435.609 211.166 434.868Z" fill="black"></path><path fill-rule="evenodd" clip-rule="evenodd" d="M320.867 151.801C321.31 152.074 321.58 152.557 321.58 153.077V323.291C321.58 324.12 320.908 324.791 320.08 324.791C319.251 324.791 318.58 324.12 318.58 323.291V155.508L270.202 179.765V463.718C270.202 464.546 269.53 465.218 268.702 465.218C267.873 465.218 267.202 464.546 267.202 463.718V178.84C267.202 178.272 267.522 177.753 268.029 177.499L319.407 151.737C319.872 151.503 320.425 151.528 320.867 151.801Z" fill="black"></path><path fill-rule="evenodd" clip-rule="evenodd" d="M198.644 166.114C199.07 165.9 199.571 165.9 199.996 166.115L213.184 172.786C213.923 173.16 214.22 174.062 213.846 174.801C213.472 175.54 212.569 175.837 211.83 175.463L199.317 169.134L140.502 198.734L191.293 224.201L211.838 213.955C212.579 213.585 213.48 213.887 213.85 214.628C214.219 215.369 213.918 216.27 213.177 216.64L191.96 227.221C191.538 227.431 191.041 227.431 190.619 227.219L136.488 200.077C135.981 199.823 135.661 199.304 135.661 198.737C135.66 198.17 135.98 197.651 136.486 197.396L198.644 166.114Z" fill="black"></path><path fill-rule="evenodd" clip-rule="evenodd" d="M137.161 197.236C137.989 197.236 138.661 197.908 138.661 198.736V294.194C138.661 295.022 137.989 295.694 137.161 295.694C136.332 295.694 135.661 295.022 135.661 294.194V198.736C135.661 197.908 136.332 197.236 137.161 197.236Z" fill="black"></path><path fill-rule="evenodd" clip-rule="evenodd" d="M149.927 380.927C150.299 380.187 151.2 379.889 151.941 380.261L191.29 400.048L211.832 389.692C212.572 389.319 213.474 389.617 213.847 390.356C214.22 391.096 213.922 391.998 213.182 392.371L191.966 403.067C191.542 403.281 191.042 403.281 190.617 403.068L150.593 382.941C149.853 382.569 149.554 381.667 149.927 380.927Z" fill="black"></path><path fill-rule="evenodd" clip-rule="evenodd" d="M191.291 224.378C192.119 224.378 192.791 225.05 192.791 225.878V401.728C192.791 402.556 192.119 403.228 191.291 403.228C190.462 403.228 189.791 402.556 189.791 401.728V225.878C189.791 225.05 190.462 224.378 191.291 224.378Z" fill="black"></path><path d="M282.922 341.808V508.226L324.208 528.928L369.852 506.041V339.623" fill="white"></path><path fill-rule="evenodd" clip-rule="evenodd" d="M369.852 338.123C370.68 338.123 371.352 338.794 371.352 339.623V506.041C371.352 506.609 371.032 507.128 370.524 507.382L324.88 530.269C324.457 530.481 323.959 530.481 323.536 530.269L282.25 509.567C281.743 509.313 281.422 508.794 281.422 508.226V341.808C281.422 340.979 282.094 340.308 282.922 340.308C283.751 340.308 284.422 340.979 284.422 341.808V507.3L324.208 527.25L368.352 505.115V339.623C368.352 338.794 369.023 338.123 369.852 338.123Z" fill="black"></path><path d="M369.852 339.623L324.208 362.624L282.922 341.808L328.566 318.921L369.852 339.623Z" fill="white"></path><path fill-rule="evenodd" clip-rule="evenodd" d="M327.894 317.58C328.317 317.368 328.815 317.368 329.238 317.58L370.524 338.282C371.031 338.536 371.351 339.054 371.352 339.621C371.352 340.188 371.033 340.707 370.527 340.962L324.883 363.964C324.458 364.178 323.957 364.178 323.533 363.964L282.247 343.147C281.741 342.892 281.422 342.373 281.422 341.806C281.423 341.239 281.743 340.721 282.25 340.467L327.894 317.58ZM328.566 320.599L286.261 341.811L324.208 360.945L366.512 339.626L328.566 320.599Z" fill="black"></path><path fill-rule="evenodd" clip-rule="evenodd" d="M324.208 361.124C325.036 361.124 325.708 361.796 325.708 362.624V528.928C325.708 529.756 325.036 530.428 324.208 530.428C323.38 530.428 322.708 529.756 322.708 528.928V362.624C322.708 361.796 323.38 361.124 324.208 361.124Z" fill="black"></path><path fill-rule="evenodd" clip-rule="evenodd" d="M430.076 185.204C430.5 184.992 431 184.992 431.423 185.206L480.278 209.818C480.784 210.073 481.104 210.591 481.103 211.158C481.103 211.725 480.783 212.243 480.277 212.497L426.261 239.64C425.837 239.853 425.338 239.853 424.914 239.64L375.945 215.028C375.438 214.773 375.118 214.254 375.118 213.687C375.118 213.119 375.439 212.601 375.946 212.346L430.076 185.204ZM379.962 213.689L425.588 236.621L476.266 211.155L430.747 188.224L379.962 213.689Z" fill="black"></path><path fill-rule="evenodd" clip-rule="evenodd" d="M480.391 209.88C480.834 210.154 481.103 210.637 481.103 211.157V408.283C481.103 408.849 480.784 409.367 480.279 409.622L426.263 436.88C425.798 437.114 425.245 437.091 424.801 436.818C424.358 436.545 424.088 436.061 424.088 435.54V238.299C424.088 237.732 424.407 237.214 424.914 236.959L478.93 209.817C479.395 209.583 479.948 209.607 480.391 209.88ZM427.088 239.224V433.103L478.103 407.36V213.59L427.088 239.224Z" fill="black"></path><path fill-rule="evenodd" clip-rule="evenodd" d="M376.618 212.187C377.447 212.187 378.118 212.859 378.118 213.687V410.004L426.261 434.2C427.002 434.572 427.3 435.474 426.928 436.214C426.556 436.954 425.654 437.253 424.914 436.881L375.945 412.269C375.438 412.014 375.118 411.495 375.118 410.928V213.687C375.118 212.859 375.79 212.187 376.618 212.187Z" fill="black"></path><path fill-rule="evenodd" clip-rule="evenodd" d="M318.74 273.738C319.112 272.998 320.014 272.7 320.754 273.072L349.554 287.57L375.946 274.336C376.686 273.965 377.588 274.264 377.959 275.005C378.33 275.745 378.031 276.647 377.291 277.018L350.225 290.589C349.802 290.802 349.302 290.801 348.879 290.588L319.405 275.752C318.665 275.38 318.367 274.478 318.74 273.738Z" fill="black"></path><path fill-rule="evenodd" clip-rule="evenodd" d="M343.491 227.183C343.915 226.97 344.415 226.971 344.839 227.185L344.163 228.524C344.839 227.185 344.839 227.185 344.839 227.185L345.575 227.556C346.055 227.798 346.758 228.153 347.653 228.604C349.443 229.506 351.998 230.792 355.058 232.33C361.178 235.406 369.319 239.488 377.401 243.512C378.143 243.881 378.445 244.782 378.076 245.523C377.706 246.265 376.806 246.567 376.064 246.198C367.977 242.171 359.833 238.087 353.711 235.01C350.649 233.472 348.094 232.185 346.303 231.283C345.408 230.832 344.704 230.477 344.224 230.234L344.161 230.203L320.752 241.94C320.011 242.312 319.11 242.012 318.739 241.272C318.367 240.531 318.667 239.63 319.407 239.259L343.491 227.183Z" fill="black"></path><path fill-rule="evenodd" clip-rule="evenodd" d="M349.553 287.748C350.381 287.748 351.053 288.42 351.053 289.248V328.812C351.053 329.64 350.381 330.312 349.553 330.312C348.725 330.312 348.053 329.64 348.053 328.812V289.248C348.053 288.42 348.725 287.748 349.553 287.748Z" fill="black"></path><path fill-rule="evenodd" clip-rule="evenodd" d="M375.507 113.647C375.878 112.906 376.779 112.607 377.52 112.978L391.052 119.764C391.56 120.018 391.88 120.537 391.88 121.105C391.88 121.672 391.56 122.191 391.052 122.446L336.922 149.588C336.499 149.8 336.002 149.8 335.579 149.589L286.609 125.092C286.101 124.838 285.781 124.319 285.78 123.751C285.78 123.183 286.1 122.664 286.608 122.409L299.911 115.739C300.652 115.367 301.553 115.667 301.924 116.407C302.296 117.148 301.996 118.049 301.256 118.42L290.63 123.748L336.249 146.569L387.034 121.105L376.175 115.66C375.435 115.289 375.135 114.387 375.507 113.647Z" fill="black"></path><path fill-rule="evenodd" clip-rule="evenodd" d="M390.38 119.605C391.208 119.605 391.88 120.276 391.88 121.105V206.787C391.88 207.615 391.208 208.287 390.38 208.287C389.551 208.287 388.88 207.615 388.88 206.787V121.105C388.88 120.276 389.551 119.605 390.38 119.605Z" fill="black"></path><path fill-rule="evenodd" clip-rule="evenodd" d="M287.28 122.25C288.109 122.25 288.78 122.922 288.78 123.75V136.631C288.78 137.46 288.109 138.131 287.28 138.131C286.452 138.131 285.78 137.46 285.78 136.631V123.75C285.78 122.922 286.452 122.25 287.28 122.25Z" fill="black"></path><path fill-rule="evenodd" clip-rule="evenodd" d="M336.25 146.747C337.078 146.747 337.75 147.419 337.75 148.247V232.434C337.75 233.262 337.078 233.934 336.25 233.934C335.421 233.934 334.75 233.262 334.75 232.434V148.247C334.75 147.419 335.421 146.747 336.25 146.747Z" fill="black"></path><path fill-rule="evenodd" clip-rule="evenodd" d="M365.297 44.4176C365.665 43.6753 366.565 43.3718 367.307 43.7397L377.284 48.6851C377.793 48.9375 378.116 49.4557 378.118 50.0239C378.12 50.5921 377.801 51.1126 377.294 51.3684L337.613 71.38C337.189 71.594 336.688 71.5943 336.264 71.3807L300.368 53.3243C299.863 53.07 299.543 52.5527 299.542 51.9868C299.541 51.4208 299.859 50.9025 300.364 50.6465L310.341 45.5861C311.08 45.2114 311.983 45.5065 312.357 46.2454C312.732 46.9842 312.437 47.8869 311.698 48.2616L304.369 51.9788L336.937 68.3612L373.264 50.0407L365.975 46.4277C365.232 46.0598 364.929 45.1598 365.297 44.4176Z" fill="black"></path><path fill-rule="evenodd" clip-rule="evenodd" d="M301.042 50.4843C301.871 50.4843 302.542 51.1558 302.542 51.9843V123.405C302.542 124.233 301.871 124.905 301.042 124.905C300.214 124.905 299.542 124.233 299.542 123.405V51.9843C299.542 51.1558 300.214 50.4843 301.042 50.4843Z" fill="black"></path><path fill-rule="evenodd" clip-rule="evenodd" d="M336.938 68.5406C337.766 68.5406 338.438 69.2122 338.438 70.0406V141.346C338.438 142.175 337.766 142.846 336.938 142.846C336.11 142.846 335.438 142.175 335.438 141.346V70.0406C335.438 69.2122 336.11 68.5406 336.938 68.5406Z" fill="black"></path><path fill-rule="evenodd" clip-rule="evenodd" d="M376.618 48.5291C377.447 48.5291 378.118 49.2006 378.118 50.0291V121.45C378.118 122.278 377.447 122.95 376.618 122.95C375.79 122.95 375.118 122.278 375.118 121.45V50.0291C375.118 49.2006 375.79 48.5291 376.618 48.5291Z" fill="black"></path><path fill-rule="evenodd" clip-rule="evenodd" d="M339.591 0.384221C340.016 0.171226 340.517 0.172104 340.941 0.386589L367.088 13.6127C367.594 13.8682 367.912 14.3864 367.911 14.9526C367.911 15.5188 367.592 16.0364 367.086 16.291L338.071 30.8972C337.647 31.1108 337.146 31.1108 336.722 30.8971L310.46 17.671C309.953 17.4159 309.634 16.897 309.634 16.33C309.635 15.7629 309.955 15.2446 310.462 14.9904L339.591 0.384221ZM314.475 16.3342L337.397 27.8779L363.082 14.948L340.261 3.40458L314.475 16.3342Z" fill="black"></path><path fill-rule="evenodd" clip-rule="evenodd" d="M311.134 14.8313C311.963 14.8313 312.634 15.5029 312.634 16.3313V51.7542C312.634 52.5826 311.963 53.2542 311.134 53.2542C310.306 53.2542 309.634 52.5826 309.634 51.7542V16.3313C309.634 15.5029 310.306 14.8313 311.134 14.8313Z" fill="black"></path><path fill-rule="evenodd" clip-rule="evenodd" d="M337.396 28.0574C338.225 28.0574 338.896 28.7289 338.896 29.5574V64.8652C338.896 65.6937 338.225 66.3652 337.396 66.3652C336.568 66.3652 335.896 65.6937 335.896 64.8652V29.5574C335.896 28.7289 336.568 28.0574 337.396 28.0574Z" fill="black"></path><path fill-rule="evenodd" clip-rule="evenodd" d="M366.411 13.4512C367.24 13.4512 367.911 14.1227 367.911 14.9512V50.374C367.911 51.2025 367.24 51.874 366.411 51.874C365.583 51.874 364.911 51.2025 364.911 50.374V14.9512C364.911 14.1227 365.583 13.4512 366.411 13.4512Z" fill="black"></path><path fill-rule="evenodd" clip-rule="evenodd" d="M111.029 280.547C111.452 280.335 111.95 280.335 112.373 280.547L151.595 300.214C152.102 300.468 152.422 300.986 152.423 301.553C152.423 302.12 152.104 302.639 151.598 302.894L108.248 324.746C107.823 324.96 107.322 324.96 106.897 324.746L67.6756 304.964C67.1694 304.709 66.8504 304.19 66.8511 303.623C66.8517 303.056 67.172 302.538 67.6787 302.284L111.029 280.547ZM71.6898 303.629L107.573 321.726L147.583 301.558L111.701 283.566L71.6898 303.629Z" fill="black"></path><path fill-rule="evenodd" clip-rule="evenodd" d="M150.923 300.055C151.751 300.055 152.423 300.726 152.423 301.555V417.139C152.423 417.706 152.102 418.225 151.595 418.48L108.245 440.217C107.822 440.429 107.323 440.429 106.9 440.217L67.6787 420.55C67.1714 420.296 66.8511 419.777 66.8511 419.209V303.625C66.8511 302.796 67.5226 302.125 68.3511 302.125C69.1795 302.125 69.8511 302.796 69.8511 303.625V418.283L107.573 437.198L149.423 416.213V301.555C149.423 300.726 150.094 300.055 150.923 300.055Z" fill="black"></path><path fill-rule="evenodd" clip-rule="evenodd" d="M107.572 321.906C108.401 321.906 109.072 322.578 109.072 323.406V438.876C109.072 439.704 108.401 440.376 107.572 440.376C106.744 440.376 106.072 439.704 106.072 438.876V323.406C106.072 322.578 106.744 321.906 107.572 321.906Z" fill="black"></path><path d="M72.1354 237.379L64.4517 245.89L64.2223 249.34L61.3552 244.395L67.8921 235.769L67.0894 224.038L64.7957 231.744L62.7314 231.054L63.9929 222.198L64.9104 220.588C64.9104 220.588 59.7497 215.528 65.7132 212.537C68.4656 211.157 66.4013 204.602 71.906 204.602C77.4108 204.602 74.7731 211.042 74.7731 212.307C74.7731 213.572 83.0303 226.683 83.0303 226.683L81.0807 228.409L77.1814 224.153L76.3787 252.1L77.1814 255.666L73.5116 251.755L73.6263 229.559L72.1354 237.379Z" fill="black"></path><path d="M120.876 229.444L124.775 239.909L127.871 238.529L120.876 219.093L118.009 218.173C118.009 218.173 120.876 216.218 120.073 211.502C119.155 206.787 112.045 209.087 112.962 213.457C113.88 217.828 113.651 218.633 113.651 218.633L111.013 220.013L107.572 230.249L105.623 243.82H108.49L110.325 236.229L113.995 246.695L107.916 257.161L115.141 258.771L115.371 257.161L112.16 255.206L115.256 251.41L118.697 263.486L124.66 259.346L120.417 258.771L118.697 246.695L120.073 244.51L120.876 229.444Z" fill="black"></path><path d="M111.357 482.464L111.586 471.193L108.605 465.213L105.967 473.033L94.4985 470.733L91.8608 475.794V466.363L101.838 467.168L103.1 454.172L100.233 446.236L110.439 441.406L111.242 441.636C110.783 440.026 110.21 436.69 111.472 434.85C112.045 434.045 112.848 433.7 113.88 433.7C114.339 433.7 114.797 433.7 115.256 433.7C117.32 433.7 118.353 433.815 118.811 434.505C119.155 435.08 118.926 435.885 118.467 436.92C118.582 437.61 118.697 440.371 117.435 441.981C116.976 442.556 116.403 442.786 115.715 443.016L119.614 452.102L126.724 449.801L127.642 453.022L117.55 457.622L115.944 455.322L114.797 461.302L116.862 469.583L115.715 481.314H118.926L118.697 483.959L112.618 486.029L111.357 482.464Z" fill="black"></path><path d="M115.256 434.275C118.467 434.275 119.041 434.62 117.779 436.805C117.779 436.805 118.582 442.441 114.797 442.441L119.155 452.792L126.266 450.492L126.839 452.677L117.55 456.817L115.371 453.827L113.995 461.302L116.174 469.698L115.027 482.004H118.238L118.123 483.614L112.963 485.454L111.816 482.464L112.045 471.193L108.49 463.948L105.508 472.573L94.1546 470.273L92.4344 473.608V467.168L102.412 467.973L103.673 454.287L100.921 446.696L110.44 442.211L112.045 442.556C112.045 442.556 109.407 434.505 113.88 434.505C114.453 434.275 114.912 434.275 115.256 434.275ZM115.256 433.125C114.797 433.125 114.339 433.125 113.88 433.125C112.274 433.125 111.472 433.93 111.013 434.505C109.866 436.23 110.096 438.991 110.44 440.831H110.21L109.866 440.946L100.347 445.431L99.43 445.891L99.7741 446.926L102.412 454.287L101.265 466.593L92.4344 465.903L91.1729 465.788V467.053V473.493V478.209L93.3518 473.953L94.6133 471.423L105.164 473.493L106.196 473.723L106.54 472.803L108.605 466.708L110.898 471.308L110.669 482.349V482.579L110.784 482.809L111.93 485.799L112.274 486.835L113.307 486.489L118.467 484.649L119.155 484.419V483.614L119.27 482.004L119.385 480.739H118.123H116.174L117.206 469.698V469.468V469.238L115.142 461.072L115.944 456.472L116.518 457.277L117.091 458.082L117.894 457.737L127.183 453.597L128.101 453.252L127.871 452.332L127.298 450.147L126.954 448.996L125.807 449.342L119.729 451.297L116.288 443.246C116.862 443.016 117.321 442.671 117.665 442.211C119.041 440.601 119.041 437.956 118.926 436.92C119.385 436 119.729 434.965 119.27 434.16C118.697 433.24 117.321 433.125 115.256 433.125Z" fill="white"></path><path d="M67.3186 517.082L75.4611 504.546L77.8694 496.495L75.8051 497.185L72.9381 495.23L73.0527 487.065L72.25 485.224L74.773 475.909L77.8694 475.219L78.0988 474.184C77.7547 473.723 77.1813 472.343 77.1813 470.503C77.1813 468.778 79.5897 467.513 81.7686 467.513C83.4889 467.513 84.521 468.318 84.7504 469.583C84.9798 471.308 85.2091 474.299 84.0623 475.564C83.8329 475.794 83.4889 476.024 83.1448 476.139L83.0301 476.369L86.5853 478.554L87.8468 485.454L93.1222 491.32L93.4663 495.575L90.7139 495.92L89.6817 492.585L86.4706 490.4L85.8972 493.16L85.3238 503.971L87.3881 510.641L89.9111 509.491L91.746 511.332L84.8651 516.852L80.2778 506.961L73.9702 514.322L78.5575 518.232L67.3186 517.082Z" fill="black"></path><path d="M81.8834 468.203C83.0302 468.203 84.1771 468.663 84.2917 469.698C84.6358 472.458 84.6358 475.679 82.8009 475.679L82.5715 476.714L86.2414 479.014L87.5029 485.799L92.7783 491.665L93.0076 495.23L91.2874 495.46L90.3699 492.355L86.356 489.595L85.6679 493.16L85.0945 504.086L87.3882 511.447L90.1406 510.181L91.2874 511.332L85.5533 515.932L80.9659 505.926L73.6262 514.437L77.2961 517.542L68.4655 516.622L76.1493 504.776L78.9017 495.575L76.0346 496.495L73.6262 494.885L73.7409 486.95L72.9382 485.224L75.3465 476.484L78.4429 475.794L78.9017 474.184C78.9017 474.184 77.8695 472.918 77.8695 470.618C77.8695 469.238 80.0485 468.203 81.8834 468.203ZM81.8834 467.053C79.3604 467.053 76.7227 468.433 76.7227 470.618C76.7227 472.458 77.2961 473.724 77.6401 474.414L77.5255 474.874L75.0024 475.449L74.3144 475.564L74.085 476.254L71.6766 484.994L71.562 485.339L71.6766 485.684L72.3647 487.18L72.2501 494.885V495.46L72.8235 495.805L75.2318 497.415L75.6905 497.76L76.264 497.53L76.9521 497.3L74.8878 504.201L67.204 515.817L66.1719 517.427L68.0068 517.657L76.8374 518.577L80.5072 519.037L77.6401 516.622L74.8878 514.207L80.2779 507.996L84.1771 516.392L84.7505 517.772L85.8973 516.852L91.6314 512.252L92.6636 511.447L91.7461 510.526L90.5993 509.376L90.0259 508.801L89.3378 509.146L87.7322 509.836L85.8973 503.971L86.4707 493.275L86.8148 491.435L89.1084 492.93L89.9112 495.69L90.1406 496.61L91.058 496.495L92.7783 496.265L93.9251 496.15L93.8104 495L93.5811 491.435V491.09L93.3517 490.745L88.3056 485.109L87.1588 478.669L87.0441 478.209L86.5854 477.979L83.9477 476.254C84.0624 476.139 84.2917 476.024 84.4064 475.909C85.6679 474.529 85.5533 471.653 85.2092 469.468C85.2092 468.088 83.833 467.053 81.8834 467.053Z" fill="white"></path><path d="M120.761 442.211L128.903 429.675L131.312 421.624L129.247 422.314L126.38 420.359L126.495 412.194L125.692 410.353L128.215 401.038L131.312 400.348L131.541 399.313C131.197 398.852 130.623 397.472 130.623 395.632C130.623 393.907 133.032 392.642 135.211 392.642C136.931 392.642 137.963 393.447 138.193 394.712C138.422 396.437 138.651 399.428 137.504 400.693C137.275 400.923 136.931 401.153 136.587 401.268L136.472 401.498L140.027 403.683L141.289 410.583L146.564 416.449L146.908 420.704L144.156 421.049L143.124 417.714L139.913 415.529L139.339 418.289L138.766 429.1L140.83 435.77L143.353 434.62L145.188 436.461L138.307 441.981L133.72 432.09L127.412 439.451L132 443.361L120.761 442.211Z" fill="black"></path><path d="M135.326 393.332C136.472 393.332 137.619 393.792 137.734 394.827C138.078 397.472 138.078 400.808 136.243 400.808L136.014 401.843L139.684 404.143L140.945 410.928L146.22 416.794L146.45 420.359L144.73 420.589L143.812 417.484L139.798 414.724L139.11 418.289L138.537 429.215L140.83 436.575L143.583 435.31L144.73 436.46L138.995 441.061L134.408 431.055L127.068 439.566L130.738 442.671L121.908 441.751L129.591 429.905L132.344 420.704L129.477 421.624L127.068 420.014L127.183 412.078L126.38 410.353L128.789 401.613L131.885 400.923L132.344 399.312C132.344 399.312 131.312 398.047 131.312 395.747C131.312 394.367 133.491 393.332 135.326 393.332ZM135.326 392.182C132.803 392.182 130.165 393.562 130.165 395.747C130.165 397.587 130.738 398.852 131.082 399.542L130.968 400.003L128.445 400.578L127.756 400.693L127.527 401.383L125.119 410.123L125.004 410.468L125.119 410.813L125.807 412.309L125.692 420.014V420.589L126.266 420.934L128.674 422.544L129.133 422.889L129.706 422.659L130.394 422.429L128.33 429.33L120.646 440.946L119.614 442.556L121.449 442.786L130.28 443.706L133.949 444.166L131.082 441.751L128.33 439.336L133.72 433.125L137.619 441.521L138.193 442.901L139.339 441.981L145.074 437.381L146.106 436.575L145.188 435.655L144.041 434.505L143.468 433.93L142.78 434.275L141.174 434.965L139.339 429.1L139.913 418.404L140.257 416.564L142.551 418.059L143.353 420.819L143.583 421.739L144.5 421.624L146.22 421.394L147.367 421.279L147.253 420.129L147.023 416.564V416.219L146.794 415.874L141.748 410.238L140.601 403.798L140.486 403.338L140.028 403.108L137.39 401.383C137.505 401.268 137.734 401.153 137.849 401.038C139.11 399.658 138.995 396.782 138.651 394.597C138.651 393.102 137.275 392.182 135.326 392.182Z" fill="white"></path><path d="M148.974 462.453L147.483 457.392L152.3 449.571L147.483 434.39V433.355V433.93L145.763 436.92L143.24 434.735L144.387 432.665L144.157 425.88L145.533 422.774C145.419 422.199 145.304 420.244 146.68 418.404C146.91 418.059 147.024 417.829 147.024 417.829C147.024 417.829 146.91 417.829 146.795 417.714C146.221 417.369 145.304 416.794 145.419 415.069C145.533 413.344 146.566 412.424 148.286 412.424C148.4 412.424 148.63 412.424 148.745 412.424C148.63 411.273 148.515 409.203 149.662 407.708C150.35 406.788 151.497 406.328 152.988 406.328C156.199 406.328 157.346 407.478 157.69 408.398C158.149 409.433 157.804 410.583 157.116 411.388C157.231 412.309 157.346 414.839 155.855 415.759L155.625 417.139C156.428 417.714 158.263 419.784 158.722 424.154C158.951 427.03 160.786 429.675 162.277 431.86C163.539 433.7 164.456 435.08 164.112 436C163.768 436.92 163.424 437.841 162.621 437.841C161.818 437.841 161.36 436.69 161.016 435.54C160.557 434.045 159.066 432.32 158.034 431.285L159.295 445.661L156.887 450.032L156.084 454.977L160.098 457.852L152.185 459.577L153.217 462.568H148.974V462.453ZM152.3 459.232V458.082L151.956 458.312L152.3 459.232Z" fill="black"></path><path d="M153.101 406.788C158.147 406.788 158.033 409.778 156.771 411.043C156.771 411.043 157.23 414.609 155.624 415.184L155.395 417.254C155.395 417.254 158.033 418.864 158.492 424.039C158.95 429.215 164.455 433.93 163.882 435.655C163.652 436.46 163.308 437.035 162.964 437.035C162.62 437.035 162.276 436.46 161.932 435.195C161.129 432.55 157.689 429.675 157.689 429.675L159.065 445.316L156.771 449.571L155.968 454.977L159.18 457.277L153.101 458.542V456.702L151.496 457.852L152.757 461.532H149.546L148.285 457.162L153.101 449.341L148.285 433.93V429.215L149.088 424.154L147.482 427.72L147.138 433.355L145.876 435.655L144.271 434.275L145.303 432.435L145.074 425.535L146.45 422.314C146.45 422.314 145.991 420.244 147.482 418.174C148.973 416.104 146.22 417.484 146.335 414.494C146.45 412.768 147.597 412.423 148.629 412.423C149.202 412.423 149.776 412.538 149.776 412.538C149.776 412.538 148.055 406.788 153.101 406.788ZM153.101 405.638C151.037 405.638 149.89 406.558 149.317 407.248C148.285 408.628 148.17 410.468 148.285 411.733C146.335 411.848 145.188 412.999 145.074 414.954C144.959 416.794 145.876 417.599 146.45 417.944C145.074 419.784 145.074 421.739 145.188 422.544L143.927 425.42L143.812 425.65V425.88L144.041 432.435L143.124 433.93L142.665 434.735L143.353 435.31L144.959 436.69L145.991 437.611L146.679 436.345L147.367 435.195L151.725 449.226L147.138 456.587L146.909 457.047L147.023 457.507L148.285 461.877L148.514 462.683H149.317H152.528H154.134L153.56 461.187L152.987 459.577L159.065 458.312L161.588 457.737L159.524 456.242L156.886 454.287L157.574 449.802L159.753 445.661L159.868 445.316V444.971L158.836 432.435C159.638 433.355 160.326 434.39 160.556 435.31C160.785 436.23 161.359 437.956 162.735 437.956C163.996 437.956 164.57 436.46 164.684 435.77C165.143 434.505 164.111 433.125 162.849 431.055C161.473 428.985 159.638 426.34 159.409 423.579C159.065 419.439 157.345 417.254 156.427 416.334L156.542 415.414C157.918 414.379 157.918 411.963 157.803 410.928C158.377 410.008 158.721 408.858 158.262 407.593C157.918 406.903 156.542 405.638 153.101 405.638Z" fill="white"></path><path d="M131.771 484.764L130.281 479.704L135.097 471.883L130.281 456.702V455.667V456.242L128.56 459.232L126.037 457.047L127.184 454.977L126.955 448.191L128.331 445.086C128.216 444.511 128.102 442.556 129.478 440.716C129.707 440.371 129.822 440.141 129.822 440.141C129.822 440.141 129.707 440.141 129.593 440.026C129.019 439.681 128.102 439.106 128.216 437.38C128.331 435.655 129.363 434.735 131.083 434.735C131.198 434.735 131.427 434.735 131.542 434.735C131.427 433.585 131.313 431.515 132.46 430.02C133.148 429.1 134.295 428.64 135.785 428.64C138.996 428.64 140.143 429.79 140.487 430.71C140.946 431.745 140.602 432.895 139.914 433.7C140.029 434.62 140.143 437.15 138.652 438.071L138.423 439.451C139.226 440.026 141.061 442.096 141.52 446.466C141.749 449.341 143.584 451.987 145.075 454.172C146.336 456.012 147.254 457.392 146.91 458.312C146.566 459.232 146.221 460.152 145.419 460.152C144.616 460.152 144.157 459.002 143.813 457.852C143.354 456.357 141.864 454.632 140.831 453.597L142.093 467.973L139.685 472.343L138.882 477.289L142.896 480.164L134.983 481.889L136.015 484.879H131.771V484.764ZM135.097 481.544V480.394L134.753 480.624L135.097 481.544Z" fill="black"></path><path d="M135.784 429.1C140.83 429.1 140.716 432.09 139.454 433.355C139.454 433.355 139.913 436.92 138.307 437.496L138.078 439.566C138.078 439.566 140.716 441.176 141.174 446.351C141.633 451.527 147.138 456.242 146.564 457.967C146.335 458.772 145.991 459.347 145.647 459.347C145.303 459.347 144.959 458.772 144.615 457.507C143.812 454.862 140.372 451.987 140.372 451.987L141.748 467.628L139.454 471.883L138.651 477.289L141.862 479.589L135.784 480.854V479.014L134.179 480.164L135.44 483.844H132.229L130.968 479.474L135.784 471.653L130.968 456.242V451.527L131.77 446.466L130.165 450.032L129.821 455.667L128.559 457.967L126.954 456.587L127.986 454.747L127.756 447.846L129.133 444.626C129.133 444.626 128.674 442.556 130.165 440.486C131.656 438.416 128.903 439.796 129.018 436.805C129.133 435.08 130.28 434.735 131.312 434.735C131.885 434.735 132.458 434.85 132.458 434.85C132.458 434.85 130.853 429.1 135.784 429.1ZM135.784 427.95C133.72 427.95 132.573 428.87 132 429.56C130.968 430.94 130.853 432.78 130.968 434.045C129.018 434.16 127.871 435.31 127.756 437.266C127.642 439.106 128.559 439.911 129.133 440.256C127.756 442.096 127.756 444.051 127.871 444.856L126.61 447.731L126.495 447.961V448.191L126.724 454.747L125.807 456.242L125.348 457.047L126.036 457.622L127.642 459.002L128.674 459.922L129.362 458.657L130.05 457.507L134.408 471.538L129.821 478.899L129.591 479.359L129.706 479.819L130.968 484.189L131.197 484.994H132H135.211H136.816L136.243 483.499L135.67 481.889L141.748 480.624L144.271 480.049L142.207 478.554L139.569 476.599L140.257 472.113L142.436 467.973L142.551 467.628V467.283L141.518 454.747C142.321 455.667 143.009 456.702 143.239 457.622C143.468 458.542 144.041 460.267 145.418 460.267C146.679 460.267 147.253 458.772 147.367 458.082C147.826 456.817 146.794 455.437 145.532 453.367C144.156 451.297 142.321 448.651 142.092 445.891C141.748 441.751 140.028 439.566 139.11 438.646L139.225 437.726C140.601 436.69 140.601 434.275 140.486 433.24C141.06 432.32 141.404 431.17 140.945 429.905C140.601 429.33 139.339 427.95 135.784 427.95Z" fill="white"></path><path d="M6.42213 511.216L4.93125 506.156L9.74793 498.335L4.93125 483.154V482.119V482.694L3.21101 485.684L0.687988 483.499L1.83482 481.429L1.60545 474.644L2.98164 471.538C2.86696 470.963 2.75228 469.008 4.12847 467.168C4.35784 466.823 4.47252 466.593 4.47252 466.593C4.47252 466.593 4.35784 466.593 4.24315 466.478C3.66974 466.133 2.75228 465.558 2.86696 463.833C2.98164 462.107 4.01379 461.187 5.73403 461.187C5.84871 461.187 6.07808 461.187 6.19276 461.187C6.07808 460.037 5.96339 457.967 7.11022 456.472C7.79832 455.552 8.94515 455.092 10.436 455.092C13.6471 455.092 14.794 456.242 15.138 457.162C15.5967 458.197 15.2527 459.347 14.5646 460.037C14.6793 460.957 14.794 463.488 13.3031 464.408L13.0737 465.788C13.8765 466.363 15.7114 468.433 16.1702 472.803C16.3995 475.679 18.2344 478.324 19.7253 480.509C20.9868 482.349 21.9043 483.729 21.5602 484.649C21.2162 485.569 20.8722 486.489 20.0694 486.489C19.2666 486.489 18.8079 485.339 18.4638 484.189C18.0051 482.694 16.5142 480.969 15.4821 479.934L16.7436 494.31L14.3352 498.68L13.5325 503.626L17.5464 506.501L9.63324 508.226L10.6654 511.216H6.42213ZM9.63324 507.996V506.846L9.2892 507.076L9.63324 507.996Z" fill="black"></path><path d="M10.4361 455.552C15.4822 455.552 15.3675 458.542 14.106 459.807C14.106 459.807 14.5647 463.373 12.9591 463.948L12.7298 466.018C12.7298 466.018 15.3675 467.628 15.8262 472.803C16.2849 477.979 21.7897 482.694 21.2163 484.419C20.9869 485.224 20.6429 485.799 20.2988 485.799C19.9548 485.799 19.6107 485.224 19.2667 483.959C18.4639 481.314 15.0234 478.439 15.0234 478.439L16.3996 494.08L14.106 498.335L13.3032 503.741L16.5143 506.041L10.4361 507.306V505.466L8.83057 506.616L10.0921 510.296H6.76628L5.50477 505.926L10.3214 498.105L5.50477 483.039V478.324L6.30755 473.263L4.70199 476.829L4.35794 482.464L3.09643 484.764L1.49088 483.384L2.52302 481.544L2.29365 474.644L3.66985 471.423C3.66985 471.423 3.21112 469.353 4.70199 467.283C6.19287 465.213 3.44048 466.593 3.55516 463.603C3.66985 461.878 4.81667 461.532 5.84882 461.532C6.42223 461.532 6.99565 461.647 6.99565 461.647C6.99565 461.647 5.39009 455.552 10.4361 455.552ZM10.4361 454.402C8.37184 454.402 7.22501 455.322 6.6516 456.012C5.61945 457.392 5.50477 459.232 5.61945 460.497C3.66985 460.612 2.52302 461.763 2.40834 463.718C2.29365 465.558 3.21112 466.363 3.78453 466.708C2.40834 468.548 2.40834 470.503 2.52302 471.308L1.26151 474.183L1.14683 474.414V474.644L1.37619 481.199L0.458731 482.694L0 483.614L0.688096 484.189L2.29365 485.569L3.3258 486.49L4.0139 485.224L4.70199 484.074L9.05994 498.105L4.47263 505.466L4.24326 506.041L4.35794 506.501L5.61945 510.871L5.84882 511.677H6.6516H9.86272H11.4683L10.8949 510.181L10.3214 508.571L16.3996 507.306L18.9227 506.731L16.8584 505.236L14.2207 503.281L14.9088 498.796L17.0877 494.655L17.2024 494.31V493.965L16.1703 481.429C16.973 482.349 17.6611 483.384 17.8905 484.304C18.1199 485.224 18.6933 486.95 20.0695 486.95C21.331 486.95 21.9044 485.454 22.0191 484.764C22.4778 483.499 21.4457 482.119 20.1842 480.049C18.808 477.979 16.973 475.334 16.7437 472.573C16.3996 468.433 14.6794 466.248 13.7619 465.328L13.8766 464.408C15.2528 463.373 15.2528 460.957 15.1381 459.922C15.7115 459.002 16.0556 457.852 15.5969 456.587C15.2528 455.782 13.9913 454.402 10.4361 454.402Z" fill="white"></path><path d="M178.218 421.509L178.447 410.238L175.466 404.258L172.828 412.078L161.36 409.778L158.722 414.839V405.408L168.699 406.213L169.961 393.217L167.094 385.281L177.301 380.451L178.218 380.681C177.759 379.071 177.186 375.736 178.447 373.895C179.021 373.09 179.824 372.745 180.856 372.745C181.314 372.745 181.773 372.745 182.232 372.745C184.296 372.745 185.328 372.86 185.787 373.55C186.131 374.125 185.902 374.93 185.443 375.966C185.558 376.656 185.672 379.416 184.411 381.026C183.952 381.601 183.379 381.831 182.691 382.061L186.59 391.147L193.7 388.847L194.618 392.067L184.526 396.667L182.92 394.367L181.773 400.348L183.837 408.628L182.691 420.359H185.902L185.787 423.004L179.709 425.075L178.218 421.509Z" fill="black"></path><path d="M182.116 373.435C185.327 373.435 185.901 373.78 184.639 375.966C184.639 375.966 185.442 381.601 181.657 381.601L186.015 391.952L193.126 389.652L193.699 391.837L184.41 395.977L182.231 392.987L180.855 400.463L183.034 408.858L181.887 421.164H185.098L184.983 422.774L179.822 424.615L178.676 421.624L178.905 410.353L175.35 403.108L172.368 411.733L161.014 409.433L159.294 412.769V406.328L169.272 407.133L170.533 393.447L167.781 385.856L177.299 381.371L178.905 381.716C178.905 381.716 176.267 373.665 180.74 373.665C181.313 373.435 181.772 373.435 182.116 373.435ZM182.116 372.285C181.657 372.285 181.199 372.285 180.74 372.285C179.134 372.285 178.332 373.09 177.873 373.665C176.726 375.391 176.955 378.151 177.299 379.991H177.07L176.726 380.106L167.207 384.591L166.29 385.051L166.634 386.086L169.272 393.447L168.125 405.753L159.294 405.063L158.033 404.948V406.213V412.654V417.369L160.212 413.114L161.473 410.583L172.024 412.654L173.056 412.884L173.4 411.964L175.465 405.868L177.758 410.468L177.529 421.509V421.739L177.643 421.969L178.79 424.96L179.134 425.995L180.167 425.65L185.327 423.809L186.015 423.579V422.774L186.13 421.164L186.245 419.899H184.983H183.034L184.066 408.858V408.628V408.398L182.001 400.233L182.804 395.632L183.378 396.437L183.951 397.242L184.754 396.897L194.043 392.757L194.961 392.412L194.731 391.492L194.158 389.307L193.814 388.157L192.667 388.502L186.589 390.457L183.148 382.406C183.722 382.176 184.18 381.831 184.524 381.371C185.901 379.761 185.901 377.116 185.786 376.081C186.245 375.16 186.589 374.125 186.13 373.32C185.557 372.285 184.18 372.285 182.116 372.285Z" fill="white"></path><path d="M159.409 476.139L167.552 463.603L169.96 455.552L167.896 456.242L165.029 454.287L165.143 446.121L164.341 444.281L166.864 434.965L169.96 434.275L170.189 433.24C169.845 432.78 169.272 431.4 169.272 429.56C169.272 427.835 171.68 426.57 173.859 426.57C175.579 426.57 176.612 427.375 176.841 428.64C177.07 430.365 177.3 433.355 176.153 434.62C175.923 434.85 175.579 435.08 175.235 435.195L175.121 435.425L178.676 437.61L179.937 444.511L185.213 450.377L185.557 454.632L182.804 454.977L181.772 451.642L178.561 449.456L177.988 452.217L177.414 463.028L179.479 469.698L182.002 468.548L183.837 470.388L176.956 475.909L172.368 466.018L166.061 473.378L170.648 477.289L159.409 476.139Z" fill="black"></path><path d="M173.859 427.26C175.006 427.26 176.153 427.72 176.267 428.755C176.611 431.515 176.611 434.735 174.777 434.735L174.547 435.77L178.217 438.071L179.479 444.856L184.754 450.722L184.983 454.287L183.263 454.517L182.346 451.412L178.332 448.651L177.644 452.217L177.07 463.143L179.364 470.503L182.116 469.238L183.263 470.388L177.529 474.989L172.942 464.983L165.602 473.493L169.272 476.599L160.441 475.679L168.125 463.833L170.877 454.632L168.01 455.552L165.602 453.942L165.717 446.006L164.914 444.281L167.322 435.54L170.419 434.85L170.877 433.24C170.877 433.24 169.845 431.975 169.845 429.675C169.96 428.295 172.139 427.26 173.859 427.26ZM173.859 426.11C171.336 426.11 168.698 427.49 168.698 429.675C168.698 431.515 169.272 432.78 169.616 433.47L169.501 433.93L166.978 434.505L166.29 434.62L166.061 435.31L163.652 444.051L163.538 444.396L163.652 444.741L164.34 446.236L164.226 453.942V454.517L164.799 454.862L167.208 456.472L167.666 456.817L168.24 456.587L168.928 456.357L166.863 463.258L159.409 474.989L158.377 476.599L160.212 476.829L169.042 477.749L172.712 478.209L169.845 475.794L167.093 473.378L172.483 467.168L176.382 475.564L176.956 476.944L178.102 476.024L183.837 471.423L184.869 470.618L183.951 469.698L182.804 468.548L182.231 467.973L181.543 468.318L179.937 469.008L178.102 463.143L178.676 452.447L179.02 450.607L181.314 452.102L182.116 454.862L182.346 455.782L183.263 455.667L184.983 455.437L186.13 455.322L186.015 454.172L185.786 450.607V450.262L185.557 449.917L180.511 444.281L179.364 437.841L179.249 437.381L178.79 437.151L176.153 435.425C176.267 435.31 176.497 435.195 176.612 435.08C177.873 433.7 177.758 430.825 177.414 428.64C177.185 427.03 175.809 426.11 173.859 426.11Z" fill="white"></path><path d="M464.236 495.115L464.007 492.47H467.218L466.071 480.739L468.136 472.458L466.989 466.478L465.383 468.778L455.291 464.178L456.209 460.957L463.319 463.258L467.218 454.172C466.53 454.057 465.957 453.712 465.498 453.137C464.122 451.642 464.351 448.881 464.466 448.076C463.892 447.041 463.663 446.236 464.122 445.661C464.581 444.971 465.613 444.856 467.677 444.856C468.136 444.856 468.48 444.856 469.053 444.856C470.085 444.856 470.888 445.316 471.462 446.006C472.723 447.731 472.15 451.182 471.691 452.792L472.608 452.562L482.815 457.392L479.948 465.328L481.21 478.324L491.187 477.519V486.95L488.549 481.889L477.081 484.189L474.443 476.369L471.462 482.349L471.691 493.62L470.315 497.3L464.236 495.115Z" fill="black"></path><path d="M467.676 445.431C468.135 445.431 468.479 445.431 469.052 445.431C473.525 445.431 470.887 453.482 470.887 453.482L472.493 453.137L482.012 457.622L479.259 465.213L480.521 478.899L490.498 478.094V484.534L488.778 481.199L477.424 483.499L474.443 474.874L470.887 482.119L471.117 493.39L469.97 496.38L464.809 494.54L464.695 492.93H467.906L466.759 480.624L468.938 472.228L467.562 464.753L465.383 467.743L456.093 463.603L456.667 461.417L463.777 463.718L468.135 453.367C464.35 453.367 465.153 447.731 465.153 447.731C463.892 445.776 464.35 445.431 467.676 445.431ZM467.676 444.281C465.612 444.281 464.236 444.396 463.662 445.431C463.089 446.351 463.433 447.271 464.006 448.191C463.892 449.226 463.892 451.872 465.268 453.482C465.612 453.942 466.071 454.287 466.644 454.517L463.204 462.568L457.125 460.612L455.979 460.267L455.635 461.417L455.061 463.603L454.832 464.523L455.749 464.868L465.039 469.008L465.841 469.353L466.415 468.548L466.988 467.743L467.791 472.343L465.727 480.509V480.739V480.969L466.759 492.01H464.809H463.548L463.662 493.275L463.777 494.885V495.69L464.465 495.92L469.626 497.76L470.658 498.105L471.002 497.07L472.149 494.08L472.264 493.85V493.62L472.034 482.579L474.328 477.979L476.392 484.074L476.736 484.994L477.768 484.764L488.319 482.694L489.581 485.224L491.76 489.48V484.764V478.324V477.059L490.498 477.174L481.668 477.864L480.521 465.558L483.158 458.197L483.502 457.162L482.585 456.702L473.066 452.217L472.722 452.102H472.493C472.837 450.262 473.181 447.386 471.919 445.776C471.461 445.086 470.543 444.396 469.052 444.396C468.479 444.281 468.02 444.281 467.676 444.281Z" fill="white"></path><path d="M508.619 525.593L502.311 518.232L497.724 528.123L490.843 522.602L492.678 520.762L495.201 521.912L497.265 515.242L496.692 504.316L496.118 501.671L492.907 503.856L491.875 507.191L489.123 506.846L489.467 502.591L494.742 496.725L496.004 489.825L499.559 487.64L499.444 487.41C499.1 487.295 498.756 487.18 498.527 486.835C497.38 485.569 497.609 482.464 497.838 480.854C498.068 479.589 499.1 478.784 500.82 478.784C501.852 478.784 502.884 479.014 503.802 479.589C504.834 480.164 505.408 480.969 505.408 481.774C505.408 483.614 504.719 484.994 504.49 485.454L504.719 486.49L507.816 487.18L510.339 496.495L509.536 498.335L509.651 506.501L506.784 508.456L504.719 507.766L507.128 515.817L515.27 528.353L503.687 529.618L508.619 525.593Z" fill="black"></path><path d="M501.049 479.359C502.884 479.359 505.063 480.394 505.063 481.774C505.063 484.074 504.031 485.339 504.031 485.339L504.489 486.95L507.586 487.64L509.994 496.38L509.191 498.105L509.306 506.041L506.898 507.651L504.031 506.731L506.783 515.932L514.467 527.778L505.636 528.698L509.306 525.593L501.966 517.082L497.379 527.088L491.645 522.487L492.792 521.337L495.544 522.602L497.838 515.242L497.264 504.316L496.576 500.751L492.562 503.511L491.645 506.616L489.925 506.386L490.154 502.821L495.429 496.955L496.691 490.17L500.361 487.87L500.131 486.835C498.411 486.835 498.297 483.499 498.641 480.854C498.755 479.819 499.787 479.359 501.049 479.359ZM501.049 478.209C499.099 478.209 497.723 479.129 497.494 480.739C497.15 482.924 497.035 485.799 498.297 487.18C498.411 487.295 498.526 487.41 498.755 487.525L496.118 489.25L495.659 489.48L495.544 489.94L494.397 496.38L489.351 502.016L489.122 502.361V502.706L488.892 506.271L488.778 507.421L489.925 507.536L491.645 507.766L492.562 507.881L492.792 506.961L493.595 504.201L495.888 502.706L496.232 504.546L496.806 515.242L494.971 521.107L493.365 520.417L492.677 520.072L492.104 520.647L490.957 521.797L490.039 522.717L491.071 523.523L496.806 528.123L497.952 529.043L498.526 527.663L502.425 519.267L507.815 525.478L505.063 527.893L502.196 530.308L505.866 529.848L514.696 528.928L516.531 528.698L515.499 527.088L507.815 515.472L505.751 508.571L506.439 508.801L507.012 509.031L507.471 508.686L509.88 507.076L510.453 506.731V506.156L510.338 498.45L511.026 496.955L511.141 496.61L511.026 496.265L508.618 487.525L508.389 486.835L507.701 486.72L505.178 486.144L505.063 485.684C505.407 484.994 505.98 483.729 505.98 481.889C506.21 479.589 503.572 478.209 501.049 478.209Z" fill="white"></path><path d="M455.176 450.722L448.869 443.361L444.281 453.252L437.4 447.731L439.235 445.891L441.758 447.041L443.823 440.371L443.249 429.445L442.676 426.8L439.465 428.985L438.433 432.32L435.68 431.975L436.024 427.72L441.3 421.854L442.561 414.954L446.116 412.769L446.002 412.539C445.658 412.424 445.314 412.309 445.084 411.963C443.937 410.698 444.167 407.593 444.396 405.983C444.625 404.718 445.658 403.913 447.378 403.913C449.557 403.913 451.965 405.178 451.965 406.903C451.965 408.743 451.277 410.123 451.048 410.583L451.277 411.618L454.373 412.309L456.896 421.624L456.094 423.464L456.208 431.63L453.341 433.585L451.277 432.895L453.685 440.946L461.828 453.482L450.245 454.747L455.176 450.722Z" fill="black"></path><path d="M447.607 404.488C449.442 404.488 451.621 405.523 451.621 406.903C451.621 409.203 450.588 410.468 450.588 410.468L451.047 412.078L454.144 412.769L456.552 421.509L455.749 423.234L455.864 431.17L453.456 432.78L450.588 431.86L453.341 441.061L461.025 452.907L452.194 453.827L455.864 450.722L448.524 442.211L443.937 452.217L438.203 447.616L439.35 446.466L442.102 447.731L444.396 440.371L443.822 429.445L443.134 425.88L439.12 428.64L438.203 431.745L436.483 431.515L436.712 427.95L441.987 422.084L443.249 415.299L446.919 412.999L446.689 411.963C444.969 411.963 444.854 408.628 445.198 405.983C445.313 404.948 446.345 404.488 447.607 404.488ZM447.607 403.338C445.657 403.338 444.281 404.258 444.052 405.868C443.708 408.053 443.593 410.928 444.854 412.308C444.969 412.423 445.084 412.538 445.313 412.653L442.675 414.379L442.217 414.609L442.102 415.069L440.955 421.509L435.909 427.145L435.68 427.49V427.835L435.45 431.4L435.336 432.55L436.483 432.665L438.203 432.895L439.12 433.01L439.35 432.09L440.152 429.33L442.446 427.835L442.79 429.675L443.363 440.371L441.529 446.236L439.923 445.546L439.235 445.201L438.661 445.776L437.515 446.926L436.597 447.846L437.629 448.651L443.363 453.252L444.51 454.172L445.084 452.792L448.983 444.396L454.373 450.607L451.621 453.022L448.754 455.437L452.423 454.977L461.254 454.057L463.089 453.827L462.057 452.217L454.373 440.601L452.309 433.7L452.997 433.93L453.57 434.16L454.029 433.815L456.437 432.205L457.011 431.86V431.285L456.896 423.579L457.584 422.084L457.699 421.739L457.584 421.394L455.176 412.653L454.946 411.963L454.258 411.848L451.735 411.273L451.85 410.583C452.194 409.893 452.767 408.628 452.767 406.788C452.767 404.718 450.015 403.338 447.607 403.338Z" fill="white"></path><path d="M429.488 473.608L430.52 470.618L422.607 468.893L426.62 466.018L425.818 461.072L423.409 456.702L424.671 442.326C423.639 443.361 422.148 444.971 421.689 446.581C421.345 447.731 420.886 448.881 420.084 448.881C419.281 448.881 418.937 447.961 418.593 447.041C418.249 446.006 419.166 444.741 420.428 442.901C421.918 440.716 423.753 438.071 423.983 435.195C424.327 430.825 426.276 428.755 427.079 428.18L426.85 426.8C425.474 425.88 425.588 423.349 425.588 422.429C425.015 421.739 424.671 420.589 425.015 419.439C425.359 418.519 426.506 417.369 429.717 417.369C431.208 417.369 432.24 417.829 433.043 418.749C434.19 420.129 434.075 422.314 433.96 423.464C434.075 423.464 434.19 423.464 434.419 423.464C436.139 423.464 437.171 424.384 437.286 426.11C437.401 427.95 436.483 428.41 435.91 428.755C435.795 428.755 435.68 428.87 435.68 428.87C435.68 428.87 435.795 429.1 436.025 429.33C437.401 431.17 437.286 433.125 437.171 433.7L438.548 436.805L438.318 443.591L439.465 445.661L436.942 447.846L435.222 444.856V444.281V445.316L430.405 460.497L435.222 468.318L433.731 473.378H429.488V473.608ZM430.634 470.388L430.978 469.468L430.634 469.238V470.388Z" fill="black"></path><path d="M429.831 417.829C434.877 417.829 433.271 424.039 433.271 424.039C433.271 424.039 433.73 423.924 434.418 423.924C435.336 423.924 436.597 424.269 436.712 425.995C436.827 428.87 434.074 427.605 435.565 429.675C437.056 431.745 436.597 433.815 436.597 433.815L437.973 437.036L437.744 443.936L438.776 445.776L437.171 447.156L435.909 444.856L435.565 439.221L433.959 435.655L434.762 440.716V445.431L429.946 460.842L434.762 468.663L433.501 473.033H430.29L431.551 469.353L429.946 468.203V470.043L423.867 468.778L427.078 466.478L426.276 461.072L423.982 456.817L425.358 441.176C425.358 441.176 421.918 444.051 421.115 446.696C420.771 448.076 420.312 448.536 420.083 448.536C419.739 448.536 419.509 447.961 419.165 447.156C418.592 445.431 424.097 440.716 424.555 435.54C425.014 430.365 427.652 428.755 427.652 428.755L427.423 426.685C425.817 426.11 426.276 422.544 426.276 422.544C425.014 420.934 424.785 417.829 429.831 417.829ZM429.831 416.679C426.276 416.679 425.014 418.059 424.555 419.094C424.097 420.244 424.441 421.509 425.014 422.429C424.9 423.579 424.9 425.88 426.276 426.915L426.39 427.835C425.473 428.755 423.753 430.825 423.409 435.08C423.179 437.726 421.344 440.371 419.968 442.556C418.592 444.511 417.675 446.006 418.133 447.271C418.363 447.961 418.821 449.456 420.083 449.456C421.459 449.456 422.032 447.731 422.262 446.811C422.491 445.891 423.294 444.856 423.982 443.936L422.95 456.472V456.817L423.065 457.162L425.244 461.302L425.932 465.788L423.294 467.743L421.23 469.238L423.753 469.813L429.831 471.078L429.257 472.688L428.684 474.184H430.29H433.501H434.304L434.533 473.378L435.794 469.008L435.909 468.548L435.68 468.088L431.092 460.727L435.45 446.696L436.138 447.846L436.827 449.111L437.859 448.191L439.464 446.811L440.152 446.236L439.694 445.431L438.776 443.936L439.006 437.381V437.151L438.891 436.92L437.629 434.045C437.744 433.24 437.744 431.285 436.368 429.445C436.941 429.1 437.859 428.295 437.744 426.455C437.629 424.499 436.482 423.349 434.533 423.234C434.648 421.969 434.533 420.129 433.501 418.749C433.042 417.599 431.895 416.679 429.831 416.679Z" fill="white"></path><path d="M572.153 522.372L573.185 519.382L565.272 517.657L569.286 514.782L568.483 509.836L566.075 505.466L567.336 491.09C566.304 492.125 564.813 493.735 564.355 495.345C564.01 496.495 563.552 497.645 562.749 497.645C561.946 497.645 561.602 496.725 561.258 495.805C560.914 494.77 561.831 493.505 563.093 491.665C564.584 489.48 566.419 486.834 566.648 483.959C566.992 479.589 568.942 477.519 569.745 476.944L569.515 475.564C568.139 474.643 568.254 472.113 568.254 471.193C567.68 470.503 567.336 469.353 567.68 468.318C568.024 467.398 569.171 466.248 572.382 466.248C573.873 466.248 575.02 466.708 575.708 467.628C576.855 469.008 576.74 471.193 576.626 472.343C576.74 472.343 576.855 472.343 577.084 472.343C578.805 472.343 579.837 473.263 579.951 474.989C580.066 476.829 579.149 477.289 578.575 477.634C578.461 477.634 578.346 477.749 578.346 477.749C578.346 477.749 578.461 477.979 578.69 478.209C580.066 480.049 579.951 482.004 579.837 482.579L581.213 485.684L580.984 492.47L582.13 494.54L579.607 496.725L577.887 493.735V493.16V494.195L573.07 509.376L577.887 517.197L576.396 522.257H572.153V522.372ZM573.3 519.152L573.644 518.232L573.3 518.002V519.152Z" fill="black"></path><path d="M572.496 466.708C577.542 466.708 575.937 472.918 575.937 472.918C575.937 472.918 576.395 472.803 577.083 472.803C578.001 472.803 579.262 473.148 579.377 474.874C579.492 477.749 576.739 476.484 578.23 478.554C579.721 480.624 579.262 482.694 579.262 482.694L580.639 485.914L580.409 492.815L581.441 494.655L579.836 496.035L578.574 493.735L578.23 488.1L576.625 484.534L577.428 489.595V494.31L572.611 509.721L577.428 517.542L576.166 521.912H572.955L574.216 518.232L572.611 517.082V518.922L566.533 517.657L569.744 515.357L568.941 509.951L566.647 505.696L568.024 490.055C568.024 490.055 564.583 492.93 563.78 495.575C563.436 496.955 562.978 497.415 562.748 497.415C562.404 497.415 562.175 496.84 561.831 496.035C561.257 494.31 566.762 489.595 567.221 484.419C567.679 479.244 570.317 477.634 570.317 477.634L570.088 475.564C568.482 474.989 568.941 471.423 568.941 471.423C567.565 469.698 567.45 466.708 572.496 466.708ZM572.496 465.558C568.941 465.558 567.679 466.938 567.221 467.973C566.762 469.123 567.106 470.388 567.679 471.308C567.565 472.458 567.565 474.759 568.941 475.794L569.056 476.714C568.138 477.634 566.418 479.704 566.074 483.959C565.845 486.604 564.01 489.25 562.633 491.435C561.257 493.39 560.34 494.885 560.799 496.15C561.028 496.84 561.487 498.335 562.748 498.335C564.124 498.335 564.698 496.61 564.927 495.69C565.156 494.77 565.959 493.735 566.647 492.815L565.615 505.351V505.696L565.73 506.041L567.909 510.181L568.597 514.667L565.959 516.622L563.895 518.117L566.418 518.692L572.496 519.957L571.923 521.567L571.349 523.062H572.955H576.166H576.969L577.198 522.257L578.46 517.887L578.574 517.427L578.345 516.967L573.758 509.606L578.116 495.575L578.804 496.725L579.492 497.99L580.524 497.07L582.13 495.69L582.818 495.115L582.359 494.31L581.441 492.815L581.671 486.259V486.029L581.556 485.799L580.295 482.924C580.409 482.119 580.409 480.164 579.033 478.324C579.606 477.979 580.524 477.174 580.409 475.334C580.295 473.378 579.148 472.228 577.198 472.113C577.313 470.848 577.198 469.008 576.166 467.628C575.707 466.363 574.56 465.558 572.496 465.558Z" fill="white"></path><path d="M446.805 495.92L447.837 492.93L439.924 491.205L443.938 488.33L443.135 483.384L440.727 479.014L441.988 464.638C440.956 465.673 439.465 467.283 439.006 468.893C438.662 470.043 438.204 471.193 437.401 471.193C436.598 471.193 436.254 470.273 435.91 469.353C435.566 468.318 436.483 467.053 437.745 465.213C439.236 463.028 441.071 460.382 441.3 457.507C441.759 453.137 443.594 451.067 444.397 450.492L444.167 449.111C442.791 448.191 442.906 445.661 442.906 444.741C442.332 444.051 441.988 442.901 442.332 441.751C442.676 440.831 443.823 439.681 447.034 439.681C448.525 439.681 449.672 440.141 450.36 441.061C451.507 442.441 451.392 444.626 451.278 445.776C451.392 445.776 451.507 445.776 451.736 445.776C453.457 445.776 454.489 446.696 454.603 448.421C454.718 450.262 453.801 450.722 453.227 451.067C453.113 451.067 452.998 451.182 452.998 451.182C452.998 451.182 453.112 451.412 453.342 451.642C454.718 453.482 454.603 455.437 454.489 456.012L455.865 459.117L455.636 465.903L456.782 467.973L454.259 470.158L452.539 467.168V466.593V467.628L447.722 482.809L452.539 490.63L451.048 495.69H446.805V495.92ZM447.837 492.7L448.181 491.78L447.837 491.55V492.7Z" fill="black"></path><path d="M447.033 440.256C452.079 440.256 450.474 446.466 450.474 446.466C450.474 446.466 450.932 446.351 451.621 446.351C452.538 446.351 453.8 446.696 453.914 448.421C454.029 451.297 451.277 450.032 452.767 452.102C454.258 454.172 453.8 456.242 453.8 456.242L455.176 459.462L454.946 466.363L455.979 468.203L454.373 469.583L453.111 467.283L452.767 461.647L451.162 458.082L451.965 463.143V467.858L447.148 483.269L451.965 491.09L450.703 495.46H447.492L448.754 491.78L447.148 490.63V492.47L441.07 491.205L444.281 488.905L443.478 483.499L441.184 479.244L442.561 463.603C442.561 463.603 439.12 466.478 438.317 469.123C437.973 470.503 437.515 470.963 437.285 470.963C436.941 470.963 436.712 470.388 436.368 469.583C435.794 467.858 441.299 463.143 441.758 457.967C442.217 452.792 444.854 451.182 444.854 451.182L444.625 449.111C443.019 448.536 443.478 444.971 443.478 444.971C442.217 443.246 442.102 440.256 447.033 440.256ZM447.033 439.106C443.478 439.106 442.217 440.486 441.758 441.521C441.299 442.671 441.643 443.936 442.217 444.856C442.102 446.006 442.102 448.306 443.478 449.342L443.593 450.262C442.675 451.182 440.955 453.252 440.611 457.507C440.382 460.152 438.547 462.798 437.171 464.983C435.794 466.938 434.877 468.433 435.336 469.698C435.565 470.388 436.024 471.883 437.285 471.883C438.661 471.883 439.235 470.158 439.464 469.238C439.694 468.318 440.496 467.283 441.184 466.363L440.152 478.899V479.244L440.267 479.589L442.446 483.729L443.134 488.215L440.496 490.17L438.432 491.665L440.955 492.24L447.033 493.505L446.46 495.115L445.886 496.61H447.492H450.703H451.506L451.735 495.805L452.997 491.435L453.111 490.975L452.882 490.515L448.295 483.154L452.653 469.123L453.341 470.273L454.029 471.538L455.061 470.618L456.667 469.238L457.355 468.663L456.896 467.858L455.979 466.363L456.208 459.807V459.577L456.093 459.347L454.832 456.472C454.946 455.667 454.946 453.712 453.57 451.872C454.144 451.527 455.061 450.722 454.946 448.881C454.832 446.926 453.685 445.776 451.735 445.661C451.85 444.396 451.735 442.556 450.703 441.176C450.244 439.911 449.098 439.106 447.033 439.106Z" fill="white"></path><path d="M397.262 434.275L397.147 431.63H400.358L399.211 419.899L401.276 411.618L400.129 405.638L398.523 407.938L388.431 403.338L389.349 400.117L396.459 402.418L400.358 393.332C399.67 393.217 399.097 392.872 398.638 392.297C397.262 390.802 397.491 388.042 397.606 387.236C397.032 386.201 396.803 385.396 397.262 384.821C397.72 384.131 398.753 384.016 400.817 384.016C401.276 384.016 401.734 384.016 402.193 384.016C403.225 384.016 404.028 384.476 404.601 385.166C405.863 386.891 405.29 390.342 404.831 391.952L405.748 391.722L415.955 396.552L413.088 404.488L414.349 417.484L424.327 416.679V426.11L421.689 421.049L410.221 423.349L407.583 415.529L404.601 421.509L404.831 432.78L403.455 436.46L397.262 434.275Z" fill="black"></path><path d="M400.701 384.476C401.16 384.476 401.504 384.476 402.078 384.476C406.55 384.476 403.913 392.527 403.913 392.527L405.518 392.182L415.037 396.667L412.284 404.258L413.546 417.944L423.523 417.139V423.579L421.803 420.244L410.449 422.544L407.468 413.919L403.913 421.164L404.142 432.435L402.995 435.425L397.834 433.585L397.72 431.975H400.931L399.784 419.669L401.963 411.273L400.587 403.798L398.408 406.788L389.118 402.648L389.692 400.463L396.802 402.763L401.16 392.412C397.376 392.412 398.178 386.776 398.178 386.776C397.032 384.821 397.49 384.476 400.701 384.476ZM400.701 383.326C398.637 383.326 397.261 383.441 396.687 384.476C396.114 385.396 396.458 386.316 397.032 387.236C396.917 388.272 396.917 390.917 398.293 392.527C398.637 392.987 399.096 393.332 399.669 393.562L396.229 401.613L390.151 399.657L389.004 399.312L388.66 400.463L388.086 402.648L387.857 403.568L388.774 403.913L398.064 408.053L398.866 408.398L399.44 407.593L400.013 406.788L400.816 411.388L398.752 419.554V419.784V420.014L399.784 431.055H397.834H396.573L396.687 432.32L396.802 433.93V434.735L397.49 434.965L402.651 436.805L403.683 437.151L404.027 436.115L405.174 433.125L405.289 432.895V432.665L405.059 421.624L407.353 417.024L409.417 423.119L409.761 424.039L410.793 423.809L421.344 421.739L422.606 424.269L424.785 428.525V423.809V417.369V416.104L423.523 416.219L414.693 416.909L413.546 404.603L416.184 397.242L416.528 396.207L415.61 395.747L406.091 391.262L405.747 391.147H405.518C405.862 389.307 406.206 386.431 404.945 384.821C404.486 384.131 403.568 383.441 402.078 383.441C401.619 383.326 401.16 383.326 400.701 383.326Z" fill="white"></path><path d="M416.643 484.534L410.335 477.174L405.748 487.065L398.867 481.544L400.702 479.704L403.225 480.854L405.289 474.184L404.716 463.258L404.142 460.612L400.931 462.798L399.899 466.133L397.147 465.788L397.491 461.532L402.766 455.667L404.028 448.766L407.583 446.581L407.468 446.351C407.124 446.236 406.78 446.121 406.551 445.776C405.404 444.511 405.633 441.406 405.863 439.796C406.092 438.531 407.124 437.726 408.844 437.726C411.023 437.726 413.432 438.991 413.432 440.716C413.432 442.556 412.744 443.936 412.514 444.396L412.744 445.431L415.84 446.121L418.363 455.437L417.56 457.277L417.675 465.443L414.808 467.398L412.744 466.708L415.152 474.759L423.294 487.295L411.711 488.56L416.643 484.534Z" fill="black"></path><path d="M409.073 438.301C410.908 438.301 413.087 439.336 413.087 440.716C413.087 443.016 412.055 444.281 412.055 444.281L412.514 445.891L415.61 446.581L418.019 455.322L417.216 457.047L417.33 464.983L414.922 466.593L412.055 465.673L414.807 474.874L422.491 486.72L413.661 487.64L417.33 484.534L409.991 476.024L405.403 486.03L399.669 481.429L400.816 480.279L403.569 481.544L405.862 474.184L405.289 463.258L404.601 459.692L400.587 462.453L399.669 465.558L397.949 465.328L398.178 461.763L403.454 455.897L404.715 449.111L408.385 446.811L408.156 445.776C406.436 445.776 406.321 442.441 406.665 439.796C406.78 438.761 407.812 438.301 409.073 438.301ZM409.073 437.151C407.124 437.151 405.748 438.071 405.518 439.681C405.174 441.866 405.059 444.741 406.321 446.121C406.436 446.236 406.55 446.351 406.78 446.466L404.142 448.191L403.683 448.536L403.569 448.996L402.422 455.437L397.376 461.072L397.146 461.418V461.763L396.917 465.328L396.802 466.478L397.949 466.593L399.669 466.823L400.587 466.938L400.816 466.018L401.619 463.258L403.913 461.763L404.257 463.603L404.83 474.299L402.995 480.164L401.39 479.474L400.701 479.129L400.128 479.704L398.981 480.854L398.064 481.774L399.096 482.579L404.83 487.18L405.977 488.1L406.55 486.72L410.449 478.324L415.84 484.534L413.087 486.95L410.22 489.365L413.89 488.905L422.721 487.985L424.556 487.755L423.523 486.145L415.84 474.529L413.775 467.628L414.463 467.858L415.037 468.088L415.496 467.743L417.904 466.133L418.477 465.788V465.213L418.363 457.507L419.051 456.012L419.165 455.667L419.051 455.322L416.642 446.581L416.413 445.891L415.725 445.776L413.202 445.201L413.087 444.741C413.431 444.051 414.005 442.786 414.005 440.946C414.119 438.646 411.482 437.151 409.073 437.151Z" fill="white"></path><path d="M388.202 454.402L389.234 451.412L381.321 449.686L385.335 446.811L384.532 441.866L382.123 437.495L383.385 423.119C382.353 424.154 380.862 425.765 380.403 427.375C380.059 428.525 379.6 429.675 378.798 429.675C377.995 429.675 377.651 428.755 377.307 427.835C376.963 426.8 377.88 425.535 379.142 423.694C380.633 421.509 382.468 418.864 382.697 415.989C383.041 411.618 384.991 409.548 385.793 408.973L385.564 407.593C384.188 406.673 384.302 404.143 384.302 403.223C383.729 402.533 383.385 401.383 383.729 400.232C384.073 399.312 385.22 398.162 388.431 398.162C389.922 398.162 391.069 398.622 391.757 399.542C392.904 400.922 392.789 403.108 392.674 404.258C392.789 404.258 392.904 404.258 393.133 404.258C394.853 404.258 395.885 405.178 396 406.903C396.115 408.743 395.197 409.203 394.624 409.548C394.509 409.548 394.395 409.663 394.395 409.663C394.395 409.663 394.509 409.893 394.739 410.123C396.115 411.963 396 413.919 395.885 414.494L397.262 417.599L397.032 424.384L398.179 426.455L395.656 428.64L393.936 425.65V425.074V426.11L389.119 441.291L393.936 449.111L392.445 454.172H388.202V454.402ZM389.348 451.297L389.693 450.377L389.348 450.147V451.297Z" fill="black"></path><path d="M388.545 398.737C393.591 398.737 391.986 404.948 391.986 404.948C391.986 404.948 392.444 404.833 393.132 404.833C394.05 404.833 395.311 405.178 395.426 406.903C395.541 409.778 392.788 408.513 394.279 410.583C395.77 412.653 395.311 414.724 395.311 414.724L396.688 417.944L396.458 424.844L397.49 426.685L395.885 428.065L394.623 425.765L394.279 420.129L392.674 416.564L393.476 421.624V426.34L388.66 441.751L393.476 449.571L392.215 453.942H389.004L390.265 450.262L388.66 449.111V450.952L382.582 449.687L385.793 447.386L384.99 441.981L382.696 437.726L384.072 422.084C384.072 422.084 380.632 424.959 379.829 427.605C379.485 428.985 379.026 429.445 378.797 429.445C378.453 429.445 378.224 428.87 377.879 428.065C377.306 426.34 382.811 421.624 383.27 416.449C383.728 411.273 386.366 409.663 386.366 409.663L386.137 407.593C384.531 407.018 384.99 403.453 384.99 403.453C383.614 401.728 383.499 398.737 388.545 398.737ZM388.545 397.587C384.99 397.587 383.728 398.967 383.27 400.002C382.811 401.153 383.155 402.418 383.728 403.338C383.614 404.488 383.614 406.788 384.99 407.823L385.105 408.743C384.187 409.663 382.467 411.733 382.123 415.989C381.893 418.634 380.058 421.279 378.682 423.464C377.306 425.42 376.389 426.915 376.847 428.18C377.077 428.87 377.535 430.365 378.797 430.365C380.173 430.365 380.747 428.64 380.976 427.72C381.205 426.8 382.008 425.765 382.696 424.844L381.664 437.38V437.726L381.779 438.071L383.958 442.211L384.646 446.696L382.008 448.651L379.944 450.147L382.467 450.722L388.545 451.987L387.972 453.597L387.398 455.092H389.004H392.215H393.018L393.247 454.287L394.509 449.917L394.623 449.456L394.394 448.996L389.807 441.636L394.165 427.605L394.853 428.755L395.541 430.02L396.573 429.1L398.178 427.72L398.866 427.145L398.408 426.34L397.49 424.844L397.72 418.289V418.059L397.605 417.829L396.343 414.954C396.458 414.149 396.458 412.193 395.082 410.353C395.655 410.008 396.573 409.203 396.458 407.363C396.343 405.408 395.197 404.258 393.247 404.143C393.362 402.878 393.247 401.038 392.215 399.657C391.756 398.507 390.609 397.587 388.545 397.587Z" fill="white"></path><path d="M95.9894 254.286L99.8887 264.751L102.985 263.371L95.9894 243.82L93.1224 242.9C93.1224 242.9 95.9894 240.945 95.1867 236.229C94.2692 231.514 87.1589 233.814 88.0763 238.184C88.9938 242.555 88.7644 243.36 88.7644 243.36L86.1267 244.74L82.6862 254.976L80.8513 268.662H83.7184L85.5533 261.071L89.2232 271.537L83.145 282.003L90.37 283.613L90.5994 282.003L87.3882 280.048L90.4847 276.252L93.9252 288.328L99.8887 284.188L95.6454 283.613L93.9252 271.537L95.3013 269.352L95.9894 254.286Z" fill="black"></path><path d="M120.646 282.118L120.99 286.488L126.954 289.479L127.298 287.638V289.594L130.624 291.319L130.853 282.233L134.752 286.488L136.702 284.763C136.702 284.763 128.445 271.767 128.445 270.387C128.445 269.007 130.968 262.681 125.578 262.681C120.188 262.681 122.137 269.237 119.385 270.617C113.307 273.607 118.582 278.668 118.582 278.668L117.665 280.278L117.091 284.418L119.614 285.683L120.646 282.118Z" fill="black"></path><path d="M551.051 237.379L558.734 245.89L558.964 249.34L561.831 244.395L555.294 235.769L556.097 224.038L558.39 231.744L560.455 231.054L559.193 222.198L558.276 220.588C558.276 220.588 563.436 215.528 557.473 212.537C554.72 211.157 556.785 204.602 551.28 204.602C545.89 204.602 548.413 211.042 548.413 212.307C548.413 213.572 540.156 226.683 540.156 226.683L542.105 228.409L546.005 224.153L546.807 252.1L546.005 255.666L549.674 251.755L549.56 229.559L551.051 237.379Z" fill="black"></path><path d="M502.31 229.444L498.411 239.909L495.315 238.529L502.31 219.093L505.177 218.173C505.177 218.173 502.31 216.218 503.113 211.502C504.031 206.787 511.141 209.087 510.223 213.457C509.306 217.828 509.535 218.633 509.535 218.633L512.173 220.013L515.614 230.249L517.448 243.935H514.581L512.746 236.344L509.077 246.81L515.155 257.276L507.93 258.886L507.7 257.276L510.912 255.321L507.815 251.525L504.375 263.601L498.411 259.461L502.654 258.886L504.375 246.81L502.998 244.625L502.31 229.444Z" fill="black"></path><path d="M527.311 254.286L523.412 264.752L520.315 263.371L527.311 243.935L530.178 243.015C530.178 243.015 527.311 241.06 528.114 236.344C529.031 231.629 536.142 233.929 535.224 238.299C534.307 242.67 534.536 243.475 534.536 243.475L537.174 244.855L540.614 255.091L542.449 268.777H539.582L537.862 261.071L534.192 271.537L540.27 282.003L533.045 283.613L532.816 282.003L536.027 280.048L532.931 276.252L529.49 288.328L523.527 284.188L527.77 283.613L529.49 271.537L528.114 269.352L527.311 254.286Z" fill="black"></path><path d="M38.0747 397.357C44.3823 407.363 50.6898 416.449 64.2224 406.328C77.755 396.207 80.9661 361.589 71.7915 355.494C62.6168 349.398 63.7637 343.533 59.9791 339.968C56.3093 336.402 46.9053 334.447 38.0747 342.498C29.2442 350.548 36.9279 357.449 32.2259 367.57C27.6386 377.806 28.9001 382.636 38.0747 397.357Z" fill="#FF5956"></path><path fill-rule="evenodd" clip-rule="evenodd" d="M55.9744 410.698V433.815H52.9744V410.698H55.9744Z" fill="black"></path><path d="M274.321 466.018L281.317 480.624L292.212 475.679L283.266 453.597L274.321 466.018Z" fill="white"></path><path fill-rule="evenodd" clip-rule="evenodd" d="M266.5 499L266.5 520L263.5 520L263.5 499L266.5 499Z" fill="black"></path><path fill-rule="evenodd" clip-rule="evenodd" d="M295.5 513L295.5 539L292.5 539L292.5 513L295.5 513Z" fill="black"></path><path d="M266.408 488.56C267.555 480.509 272.83 473.148 280.629 468.893C284.987 466.478 289.918 465.213 294.735 465.213C295.767 465.213 296.799 465.328 297.716 465.443C297.946 461.532 296.914 457.737 294.849 453.022C289.574 441.521 298.175 433.7 288.312 424.614C278.45 415.529 267.669 417.714 263.541 421.739C259.298 425.765 260.674 432.435 250.238 439.336C239.802 446.236 243.471 485.454 258.839 496.955C262.853 499.946 266.179 501.441 269.275 501.901C267.096 497.875 265.72 493.505 266.408 488.56Z" fill="#FF5956"></path><path d="M309.989 516.737C309.874 516.852 309.759 516.967 309.644 517.083C309.759 516.967 309.874 516.852 309.989 516.737Z" fill="white"></path><path d="M318.359 487.065C312.969 461.417 265.835 461.878 270.537 496.61C277.647 523.292 321.341 526.053 318.359 487.065Z" fill="#FF5956"></path><path fill-rule="evenodd" clip-rule="evenodd" d="M351.961 468.318C357.122 469.123 362.397 471.078 366.182 476.024C369.737 480.624 370.196 487.87 371.801 494.31C373.407 500.866 377.192 507.306 375.586 513.862C373.98 520.417 368.476 523.062 364.118 526.398C360.333 529.388 356.319 532.263 351.961 532.033C347.718 531.803 343.933 528.583 340.378 525.133C336.823 521.682 332.924 518.002 331.548 512.252C330.286 506.501 332.809 500.751 333.383 494.77C334.071 486.72 331.089 476.944 335.103 471.078C339.232 465.443 346.227 467.398 351.961 468.318Z" fill="#FF5956"></path><path fill-rule="evenodd" clip-rule="evenodd" d="M533.504 320.416C539.009 319.266 544.399 325.361 547.725 331.572C550.706 337.092 548.527 344.798 550.133 351.238C551.739 357.794 557.931 362.394 557.014 369.295C556.097 376.081 550.248 378.841 546.004 382.521C542.105 385.971 538.091 389.767 533.504 389.767C528.917 389.767 525.132 385.511 521.004 382.636C515.958 379.071 508.962 378.036 506.783 370.79C504.489 363.544 507.242 354.919 510.223 348.248C512.861 342.498 518.251 341.233 522.036 336.747C526.164 331.687 527.885 321.566 533.504 320.416Z" fill="#FF5956"></path><path fill-rule="evenodd" clip-rule="evenodd" d="M535.119 380.221V414.839H532.119V380.221H535.119Z" fill="black"></path><path fill-rule="evenodd" clip-rule="evenodd" d="M355.067 519.267V554H352.067V519.267H355.067Z" fill="black"></path><path d="M190.373 443.361L188.882 438.301L193.699 430.48L188.882 415.299V414.264V414.839L187.162 417.829L184.639 415.644L185.786 413.574L185.557 406.788L186.933 403.683C186.818 403.108 186.703 401.153 188.08 399.312C188.309 398.967 188.424 398.737 188.424 398.737C188.424 398.737 188.309 398.737 188.194 398.622C187.621 398.277 186.703 397.702 186.818 395.977C186.933 394.252 187.965 393.332 189.685 393.332C189.8 393.332 190.029 393.332 190.144 393.332C190.029 392.182 189.915 390.112 191.061 388.617C191.75 387.696 192.896 387.236 194.387 387.236C197.598 387.236 198.745 388.387 199.089 389.307C199.548 390.342 199.204 391.492 198.516 392.297C198.63 393.217 198.745 395.747 197.254 396.667L197.025 398.047C197.828 398.622 199.663 400.693 200.121 405.063C200.351 407.938 202.186 410.583 203.677 412.769C204.938 414.609 205.855 415.989 205.511 416.909C205.167 417.829 204.823 418.749 204.021 418.749C203.218 418.749 202.759 417.599 202.415 416.449C201.956 414.954 200.465 413.229 199.433 412.193L200.695 426.57L198.286 430.94L197.484 435.885L201.498 438.761L193.584 440.486L194.617 443.476H190.373V443.361ZM193.584 440.141V438.991L193.24 439.221L193.584 440.141Z" fill="black"></path><path d="M194.387 387.581C199.433 387.581 199.319 390.572 198.057 391.837C198.057 391.837 198.516 395.402 196.91 395.977L196.681 398.047C196.681 398.047 199.319 399.657 199.777 404.833C200.236 410.008 205.741 414.724 205.168 416.449C204.938 417.254 204.594 417.829 204.25 417.829C203.906 417.829 203.562 417.254 203.218 415.989C202.415 413.344 198.975 410.468 198.975 410.468L200.351 426.11L198.057 430.365L197.254 435.77L200.466 438.071L194.387 439.336V437.496L192.782 438.646L194.043 442.326H190.832L189.571 437.956L194.387 430.135L189.571 414.724V410.008L190.373 404.948L188.768 408.513L188.424 414.149L187.162 416.449L185.557 415.069L186.589 413.229L186.36 406.328L187.736 403.108C187.736 403.108 187.277 401.038 188.768 398.967C190.259 396.897 187.506 398.277 187.621 395.287C187.736 393.562 188.883 393.217 189.915 393.217C190.488 393.217 191.062 393.332 191.062 393.332C191.062 393.332 189.341 387.581 194.387 387.581ZM194.387 386.431C192.323 386.431 191.176 387.351 190.603 388.042C189.571 389.422 189.456 391.262 189.571 392.527C187.621 392.642 186.474 393.792 186.36 395.747C186.245 397.587 187.162 398.392 187.736 398.737C186.36 400.578 186.36 402.533 186.474 403.338L185.213 406.213L185.098 406.443V406.673L185.327 413.229L184.41 414.724L183.951 415.529L184.639 416.104L186.245 417.484L187.277 418.404L187.965 417.139L188.653 415.989L193.011 430.02L188.424 437.381L188.194 437.841L188.309 438.301L189.571 442.671L189.8 443.476H190.603H193.814H195.419L194.846 441.981L194.273 440.371L200.351 439.106L202.874 438.531L200.81 437.036L198.172 435.08L198.86 430.595L201.039 426.455L201.154 426.11V425.765L200.121 413.229C200.924 414.149 201.612 415.184 201.842 416.104C202.071 417.024 202.644 418.749 204.021 418.749C205.282 418.749 205.856 417.254 205.97 416.564C206.429 415.299 205.397 413.919 204.135 411.848C202.759 409.778 200.924 407.133 200.695 404.373C200.351 400.233 198.631 398.047 197.713 397.127L197.828 396.207C199.204 395.172 199.204 392.757 199.089 391.722C199.663 390.802 200.007 389.652 199.548 388.387C199.204 387.812 197.942 386.431 194.387 386.431Z" fill="white"></path></svg> 