<?xml version="1.0" encoding="UTF-8"?> <svg xmlns="http://www.w3.org/2000/svg" width="479" height="443" viewBox="0 0 479 443" fill="none"><g clip-path="url(#clip0)"><path d="M356.33 29.7L359.83 77.6L387.03 75.7L380.63 93.7L402.63 74.6L470.13 69.8L468.63 27.6L356.33 29.7Z" fill="#4ADC8F"></path><path d="M102.73 192.8V171.1L209.93 60.8L219.33 83.3L140.03 217.9C140.03 217.9 143.03 238 138.03 266.9C133.03 295.8 133.43 302.4 133.43 302.4C104.73 315.1 87.43 294.9 59.13 316.6C23.83 344 0.03001 327.6 0.03001 304.2C0.03001 280.8 -1.36999 269.7 16.53 233.7C34.43 197.7 58.43 183.6 58.43 183.6" fill="#4ADC8F"></path><path d="M33.23 330.7C28.03 330.7 24.13 329.4 21.43 328.1C12.43 323.7 7.13 314.3 7.13 302.8C7.13 278.1 12.73 258.3 29.43 224.3C47.03 188.6 79.73 180.2 80.03 180.1L80.43 180L110.83 187.3L101.23 205.7L72.53 186C62.03 190.8 43.73 202 32.13 225.5C15.63 259 10.13 278.4 10.13 302.6C10.13 312.9 14.83 321.3 22.73 325.2C33.73 330.5 49.13 326.3 65.23 313.7C86.73 296.9 91.33 292.2 92.33 291L88.63 267C83.03 267.5 60.93 270.1 48.63 281.7L46.53 279.5C52.83 273.5 62.03 269.1 73.83 266.3C82.63 264.2 89.43 263.9 89.73 263.9L91.03 263.8L95.23 291.3V291.5C95.13 292.2 94.93 294.2 66.93 316C52.73 327.5 41.43 330.7 33.23 330.7ZM75.73 184.8L100.03 201.5L106.23 189.5L80.33 183.3C79.63 183.4 78.03 183.9 75.73 184.8Z" fill="black"></path><path d="M146.13 218.5L143.53 216.9L223.13 85.1L214.63 67L115.13 166.9L120.33 194.7L106.93 189.5V170.9L107.33 170.5L215.53 61.8L226.53 85.2L146.13 218.5ZM110.03 187.4L116.43 189.9L112.63 169.5L110.03 172.2V187.4V187.4Z" fill="black"></path><path d="M67.28 245.21L55.53 274L58.31 275.13L70.06 246.33L67.28 245.21Z" fill="black"></path><path d="M90.73 271.1L103.33 258.1H120.93L116.33 280.8L93.03 286L90.73 271.1Z" fill="white"></path><path d="M91.73 287.9L89.13 270.6L102.73 256.6H122.73L117.63 282L91.73 287.9ZM92.33 271.6L94.23 284.2L115.03 279.5L119.03 259.6H103.93L92.33 271.6Z" fill="black"></path><path d="M70.23 314.2C69.23 314.2 68.63 314.2 68.63 314.2L68.73 311.2C69.13 311.2 109.63 311.9 136.93 300.1C137.03 297.3 137.53 288.5 141.43 265.8C146.23 237.8 141.43 185.7 141.43 185.1L144.43 184.8C144.43 185.3 149.33 237.9 144.43 266.3C139.63 294.3 139.93 300.9 139.93 301L140.03 302L139.13 302.4C114.23 313.6 78.33 314.2 70.23 314.2Z" fill="black"></path><path d="M139.85 300.77L136.92 301.42L158.6 399.66L161.53 399.01L139.85 300.77Z" fill="black"></path><path d="M115.73 399.7L109.03 373L106.03 399.5L103.03 399.2L107.93 356.2L118.63 399L115.73 399.7Z" fill="black"></path><path d="M59.69 320.37L56.69 320.43L58.15 399.31L61.15 399.25L59.69 320.37Z" fill="black"></path><path d="M341.63 324.3L373.43 319.3L395.33 366.3L372.03 441.1H318.83L341.63 324.3Z" fill="black"></path><path d="M81 156H78V183H81V156Z" fill="black"></path><path d="M97.334 165C87.165 165 77.9801 159.724 70.9821 149.832C66.7177 143.787 64.3121 137.742 63.4374 135.105H63V125.213L72.1849 104L111.549 106.748L111.986 107.517C112.205 107.957 118 118.398 118 134.775C117.891 148.184 117.891 165 97.334 165ZM66.171 133.126C66.7177 134.775 69.0139 141.369 73.6064 147.854C80.0577 156.977 88.0398 161.703 97.334 161.703C113.517 161.703 114.72 151.041 114.72 134.775C114.72 121.695 110.783 112.463 109.471 109.825L74.1531 107.297L66.171 125.762V133.126V133.126Z" fill="black"></path><path d="M77.4871 118.812C77.4871 118.812 77.0485 139 67.1787 139C57.3089 139 53.69 120.897 60.4892 113.107C67.2884 105.317 57.5282 85.5683 96.3494 86.0072C136.706 91.1638 114.115 116.618 97.5557 115.301C82.3124 113.985 77.4871 118.812 77.4871 118.812Z" fill="black"></path><path d="M66.7507 140C62.6007 140 58.9968 137.277 56.9218 132.701C54.1916 126.71 53.9732 117.232 58.8876 111.568C60.4165 109.825 60.9626 107.21 61.6178 104.16C63.5836 95.0094 66.0954 83.6801 95.8004 84.0069H96.0188C117.97 86.8392 120.482 95.3363 119.936 100.129C119.062 108.844 107.158 117.123 96.8925 116.361C85.3163 115.489 80.1834 118.104 78.6545 119.084C78.4361 123.224 76.9071 140 66.7507 140ZM94.3806 87.3839C68.6072 87.3839 66.5322 96.6435 64.6757 104.923C63.9112 108.191 63.256 111.35 61.181 113.746C57.2494 118.213 57.3586 126.165 59.7613 131.394C60.6349 133.464 62.8191 136.841 66.6414 136.841C74.6137 136.841 75.269 118.649 75.269 118.431V117.777L75.7058 117.341C75.9243 117.123 81.2755 112.112 96.8925 113.42C105.302 114.073 115.786 106.992 116.441 100.129C117.096 93.9201 109.452 89.3448 95.4727 87.6018C95.2543 87.3839 94.8175 87.3839 94.3806 87.3839Z" fill="black"></path><path d="M108.091 161L105 161.998L108.909 176L109.5 172L109.905 167.5L108.091 161Z" fill="black"></path><path d="M253.63 77.6L238.43 88.8C238.43 88.8 262.33 204.4 330.63 235.7L342.13 217.4L347.73 191V179L341.83 178.2C338.73 183.5 285.23 147.9 253.63 77.6Z" fill="white"></path><path d="M331.23 237.5L330.03 237C294.33 220.7 270.93 181.3 257.53 151.1C243.13 118.5 237.03 89.4 236.93 89.1L236.73 88.2L254.13 75.4L254.93 77.1C285.33 144.7 333.83 177.4 340.43 177.4C340.53 177.4 340.63 177.4 340.63 177.4L341.03 176.7L349.23 177.8V191.3L343.53 218L331.23 237.5ZM240.13 89.4C241.33 94.6 247.53 120.9 260.33 149.9C273.33 179.2 295.93 217.4 330.13 233.7L340.83 216.8L346.33 190.8V180.3L342.43 179.8C342.03 180.1 341.33 180.3 340.43 180.2C329.73 179.6 282.13 143.2 253.03 79.9L240.13 89.4Z" fill="black"></path><path d="M363.83 367.9L344.93 382.1L347.93 398.6L367.43 393.7L375.93 375.4L363.83 367.9Z" fill="white"></path><path d="M346.83 400.4L343.33 381.4L363.83 366L377.93 374.8L368.63 394.9L346.83 400.4ZM346.63 382.7L349.23 396.7L366.53 392.4L374.13 376L363.93 369.7L346.63 382.7Z" fill="white"></path><path d="M339.37 323.49L317.39 440.75L320.34 441.3L342.32 324.04L339.37 323.49Z" fill="black"></path><path d="M390.23 382.8L403.83 441H367.63L384.63 380.1L390.23 382.8Z" fill="black"></path><path d="M393.9 365.82L370.28 441.83L373.15 442.72L396.77 366.71L393.9 365.82Z" fill="white"></path><path d="M374.43 318.6L329.23 325.9L327.23 206.7L340.03 179.7L338.63 171.4L363.73 162.3L366.23 168.4C366.23 168.4 405.93 185.1 416.83 237.4C427.83 289.7 408.03 337.9 398.53 360.1C389.03 382.3 370.93 377 363.83 367.8C356.73 358.6 376.13 317.6 382.63 294.5C389.13 271.4 385.33 252 372.13 222.9" fill="white"></path><path d="M379.53 377.3C372.43 377.3 366.03 373.2 362.63 368.8C357.33 361.9 364.33 342 372.13 320.5L327.73 327.7L325.63 206.4L338.33 179.5L336.83 170.4L364.53 160.4L367.43 167.3C372.43 169.7 408.13 188.1 418.33 237.1C429.63 291.2 408.13 341.7 400.03 360.7C394.73 373 387.33 376.4 381.93 377.1C381.13 377.3 380.33 377.3 379.53 377.3ZM373.43 222.3C387.63 253.4 390.33 272.4 384.03 294.9C382.03 301.9 379.03 310.3 375.73 319.3C369.03 338 360.53 361.2 365.03 367C368.33 371.2 374.63 375.1 381.53 374.3C388.03 373.5 393.53 368.4 397.23 359.7C405.23 340.9 426.53 291 415.43 237.9C404.73 187 366.13 170.2 365.73 170L365.13 169.8L362.93 164.4L340.33 172.6L341.63 180.1L328.83 207.2L330.83 324.3L373.43 317.4C376.53 308.9 379.43 300.9 381.23 294.3C387.33 272.6 384.63 254.1 370.73 223.8L373.43 222.3Z" fill="black"></path><path d="M342.29 171L343.131 156.071C340.818 157.115 336.823 158.681 331.356 160.143C327.255 161.187 323.891 160.456 321.368 158.055C311.484 148.659 318.213 115.357 318.529 114L321.578 114.626C319.685 123.813 316.321 148.973 323.575 155.863C325.363 157.533 327.676 157.951 330.62 157.22C339.346 155.027 344.077 152.313 344.077 152.313L346.601 150.852L345.76 166.615L361.53 160.978L358.902 144.588L362.056 144.066L365 163.066L342.29 171Z" fill="black"></path><path d="M315.09 115.965C315.09 115.965 312.295 90.4132 337.862 88.5511C363.325 86.689 364.67 89.1718 369.742 101.793C369.742 101.793 384.026 106.655 375.021 122.276C366.016 137.896 364.256 147 364.256 147L357.528 146.483C357.528 146.483 357.735 136.655 357.735 133.552C357.735 133.552 362.704 130.138 359.702 123.414C355.665 115.862 346.867 121.862 345.625 126.724L340.967 127.241C340.967 127.345 334.757 108.827 315.09 115.965Z" fill="black"></path><path d="M365.775 149L356.107 148.163V146.698C356.107 146.594 356.318 136.758 356.318 133.62V132.783L357.053 132.364C357.473 132.05 360.836 129.434 358.524 124.098C357.368 122.11 355.897 121.169 353.901 121.378C350.853 121.797 347.806 124.831 347.175 127.133L346.965 128.179L339.82 129.016L339.399 127.865C339.294 127.551 336.772 120.436 330.152 117.298C325.949 115.31 320.905 115.31 315.231 117.298L313.339 117.925L313.129 115.937C313.024 115.414 311.868 103.591 319.119 95.0117C323.322 89.9895 329.627 87.06 337.613 86.5368C363.673 84.6535 366.09 87.3738 371.239 100.348C372.92 101.08 377.334 103.487 379.225 108.3C380.802 112.589 379.961 117.507 376.808 123.157C367.982 138.537 366.09 147.535 366.09 147.64L365.775 149ZM359.26 145.233L363.253 145.547C364.094 142.408 366.721 133.933 373.971 121.483C376.703 116.774 377.439 112.694 376.178 109.346C374.497 104.742 369.453 102.963 369.453 102.963L368.822 102.754L368.507 102.126C363.673 90.0942 362.833 87.897 337.718 89.6757C330.573 90.1988 325.108 92.7099 321.43 97.1043C316.702 102.754 316.071 110.287 316.071 113.74C321.746 112.066 326.895 112.38 331.413 114.473C337.613 117.402 340.765 123.157 341.816 125.668L344.443 125.354C345.809 121.901 349.697 118.762 353.48 118.239C356.738 117.821 359.575 119.39 361.256 122.634V122.738C363.778 128.388 361.467 132.573 359.47 134.352C359.47 137.177 359.365 142.618 359.26 145.233Z" fill="black"></path><path d="M223.13 85L216.03 70L222.23 32.3L231.43 29.2V67L223.13 85ZM219.13 69.5L223.03 77.9L228.33 66.4V33.4L224.83 34.6L219.13 69.5Z" fill="black"></path><path d="M243.03 85.2L234.23 67.3V35.1H244.13L255.63 79L252.73 79.7L241.83 38.1H237.23V66.6L245.73 83.8L243.03 85.2Z" fill="black"></path><path d="M116.03 77.4L106.43 58.7L36.53 54.1V0L160.53 4L156.03 61.9L125.73 59.9L116.03 77.4ZM39.53 51.3L108.33 55.8L116.13 71L124.03 56.8L153.23 58.7L157.33 6.9L39.53 3.1V51.3Z" fill="black"></path><path d="M384.03 93L391.63 71.8L365.23 73.7L361.53 22.8L476.93 20.6L478.53 65.7L410.03 70.5L384.03 93ZM396.03 68.5L390.73 83.2L408.83 67.5L475.43 62.8L474.03 23.6L364.83 25.7L368.03 70.5L396.03 68.5Z" fill="black"></path><path d="M209.03 43.3L175.93 20L181.73 11L209.03 43.3ZM180.03 19.3L191.73 27.5L182.13 16L180.03 19.3Z" fill="black"></path><path d="M261.43 51.8L260.53 48.9L297.73 33.2V44.2L261.43 51.8ZM294.73 37.8L275.83 45.8L294.73 41.9V37.8Z" fill="black"></path><path d="M204.96 54.13L184.61 64.63L185.99 67.3L206.34 56.8L204.96 54.13Z" fill="black"></path><path d="M283.21 0.0399933L252.68 28.74L254.74 30.93L285.27 2.22999L283.21 0.0399933Z" fill="black"></path><path d="M52.67 18L52.53 21L131.14 24.7L131.28 21.7L52.67 18Z" fill="black"></path><path d="M52.63 34.11L52.45 37.1L90.28 39.36L90.46 36.37L52.63 34.11Z" fill="black"></path><path d="M454.26 35.09L380.29 37.11L380.37 40.11L454.34 38.09L454.26 35.09Z" fill="black"></path><path d="M417.27 51.08L381.85 53.53L382.06 56.52L417.48 54.07L417.27 51.08Z" fill="black"></path><path d="M150.73 205.9L144.53 185L145.53 215.3L150.73 205.9Z" fill="black"></path><path d="M91.7339 135.29C93.123 135.081 94.0175 133.377 93.7318 131.485C93.4461 129.593 92.0884 128.229 90.6993 128.439C89.3102 128.648 88.4157 130.352 88.7014 132.244C88.987 134.136 90.3447 135.5 91.7339 135.29Z" fill="black"></path><path d="M108.849 133.723C110.239 133.513 111.133 131.809 110.847 129.917C110.562 128.025 109.204 126.662 107.815 126.871C106.426 127.081 105.531 128.785 105.817 130.677C106.103 132.569 107.46 133.933 108.849 133.723Z" fill="black"></path><path d="M91 145.73C91 145.73 101.934 148.065 106.848 145C106.848 145 108.304 151.141 102.207 150.998C96.1002 150.854 92.8715 147.49 91 145.73Z" fill="black"></path><path d="M328.257 131.525C328.549 129.722 327.713 128.087 326.39 127.872C325.067 127.657 323.756 128.945 323.464 130.747C323.171 132.55 324.007 134.185 325.331 134.4C326.654 134.615 327.964 133.328 328.257 131.525Z" fill="black"></path><path d="M319 145.379C319 145.379 325.239 146.222 329 144C329 144 326.153 150.289 319 148.761V145.379Z" fill="black"></path></g><defs><clipPath id="clip0"><rect width="478.53" height="442.72" fill="white"></rect></clipPath></defs></svg> 