<?xml version="1.0" encoding="UTF-8"?> <svg xmlns="http://www.w3.org/2000/svg" width="1080" height="281" viewBox="0 0 1080 281" fill="none"><g clip-path="url(#clip0)"><path d="M521.71 149.7C510.61 116.27 514.69 86.88 528.76 61.39C541.93 37.5 563.81 17.12 589.95 0H0V281H527.78C540.49 251.32 541.42 209.04 521.71 149.7Z" fill="black"></path><path d="M911.62 101.8C915.58 84.7701 915.6 71.1201 912.56 60.4201C909.53 49.7601 903.44 41.9501 895 36.5701C878.02 25.7501 851.31 24.6901 820.57 30.9801C759.17 43.5501 683.22 85.1401 641.21 132.63C624.61 151.39 620.9 170.05 625.68 187.97C630.49 206.02 643.97 223.53 662.17 239.73C679.33 254.99 700.56 268.97 722.33 281H905.77C905.18 279.15 904.61 277.28 904.08 275.35C892.54 233.31 895.6 170.65 911.62 101.8Z" fill="black"></path><path d="M622.78 188.75C617.71 169.76 621.76 150.08 638.96 130.65C681.44 82.64 757.99 40.73 819.97 28.05C850.91 21.72 878.61 22.59 896.61 34.05C905.66 39.82 912.21 48.23 915.44 59.61C918.66 70.95 918.57 85.14 914.53 102.49C898.55 171.14 895.61 233.23 906.95 274.56C907.56 276.78 908.21 278.92 908.9 281.01H1031.31C1044.78 261.86 1057.01 237.96 1067.79 212.35C1072.09 202.13 1076.16 191.64 1079.98 181.1V0H595.5C567.86 17.48 544.88 38.36 531.38 62.83C517.72 87.6 513.72 116.13 524.55 148.75C544.15 207.76 543.63 250.53 531.03 281H716.17C695.89 269.48 676.27 256.3 660.16 241.97C641.78 225.61 627.81 207.62 622.78 188.75Z" fill="black"></path><path d="M1080 189.76C1077 197.77 1073.86 205.71 1070.58 213.5C1060.07 238.45 1048.16 261.91 1034.99 280.99H1080V189.76Z" fill="black"></path><path d="M906.96 274.55C895.62 233.22 898.56 171.13 914.54 102.48C918.58 85.1398 918.67 70.9398 915.45 59.5998C912.22 48.2298 905.67 39.8098 896.62 34.0398C878.62 22.5698 850.92 21.7098 819.98 28.0398C758 40.7198 681.45 82.6298 638.97 130.64C621.77 150.08 617.73 169.75 622.79 188.74C627.82 207.61 641.79 225.6 660.18 241.96C676.29 256.29 695.91 269.47 716.19 280.99H722.33C700.56 268.96 679.33 254.98 662.17 239.72C643.97 223.52 630.49 206.01 625.68 187.96C620.9 170.03 624.61 151.38 641.21 132.62C683.23 85.1298 759.18 43.5398 820.57 30.9698C851.31 24.6798 878.02 25.7498 895 36.5598C903.44 41.9298 909.53 49.7398 912.56 60.4098C915.6 71.1098 915.58 84.7598 911.62 101.79C895.6 170.64 892.54 233.3 904.07 275.34C904.6 277.27 905.17 279.15 905.76 280.99H908.91C908.23 278.91 907.57 276.77 906.96 274.55Z" fill="white"></path><path d="M1080 189.76V181.09C1076.18 191.63 1072.11 202.12 1067.81 212.34C1057.03 237.94 1044.8 261.85 1031.33 281H1035C1048.17 261.92 1060.08 238.45 1070.59 213.51C1073.86 205.71 1077 197.77 1080 189.76Z" fill="white"></path><path d="M524.56 148.75C513.72 116.13 517.72 87.6 531.39 62.83C544.88 38.36 567.86 17.48 595.5 0H589.95C563.81 17.12 541.93 37.5 528.75 61.38C514.69 86.87 510.6 116.26 521.7 149.69C541.41 209.03 540.48 251.31 527.77 280.99H531.03C543.63 250.53 544.16 207.76 524.56 148.75Z" fill="white"></path></g><defs><clipPath id="clip0"><rect width="1080" height="281" fill="white"></rect></clipPath></defs></svg> 