<?xml version="1.0" encoding="UTF-8"?> <svg xmlns="http://www.w3.org/2000/svg" width="618" height="1159" viewBox="0 0 618 1159" fill="none"><path d="M1012.94 926.723C905.907 865.593 447.247 744.853 320.744 903.653C201.369 1053.51 114.568 1024.18 39.9395 957.228" stroke="black" stroke-width="3" stroke-dasharray="25 25"></path><path d="M151.348 142.836C150.563 142.938 149.944 142.561 149.617 141.803L142.566 126.14L120.737 142.466C120.011 143.017 119.084 142.909 118.436 142.307L61.9256 80.3535C61.404 79.8495 61.3018 79.0624 61.6628 78.3295C62.0384 77.709 62.7943 77.3822 63.4964 77.5198L175.407 98.8933C176.109 99.0309 176.631 99.5348 176.718 100.209C176.918 100.87 176.557 101.603 176.04 102.013L157.367 115.414L152.66 141.523C152.747 142.197 152.133 142.735 151.348 142.836ZM143.02 121.736C143.245 121.706 143.469 121.677 143.708 121.761C144.186 121.927 144.566 122.221 144.863 122.754L150.497 135.401L154.33 113.979C154.383 113.514 154.676 113.133 154.983 112.865L170.945 101.416L67.9226 81.7474L119.904 138.686L142.265 122.062C142.474 121.921 142.796 121.765 143.02 121.736Z" fill="black"></path><path d="M143.46 125.11C143.124 125.153 142.772 125.085 142.407 124.903L62.4341 80.7458C61.6882 80.2709 61.3472 79.4005 61.6936 78.5551C62.04 77.7098 63.0201 77.3538 63.8636 77.7017L156.682 112.759C157.525 113.107 157.993 114.076 157.647 114.921C157.3 115.766 156.335 116.235 155.491 115.887L84.8513 89.1551L144.187 121.928C145.045 122.388 145.289 123.386 144.83 124.246C144.44 124.754 144.021 125.037 143.46 125.11Z" fill="black"></path><path d="M151.35 142.835C151.013 142.879 150.55 142.825 150.17 142.531L133.448 131.439C132.702 130.964 132.444 129.854 132.917 129.106C133.391 128.359 134.497 128.101 135.243 128.576L151.965 139.668C152.711 140.143 152.969 141.253 152.496 142.001C152.33 142.479 151.91 142.763 151.35 142.835Z" fill="black"></path><path d="M134.841 129.886L142.737 123.945L142.791 123.48L149.93 139.819L134.841 129.886Z" fill="black"></path><path d="M173 147.436C281.02 202.315 404.175 247.56 499.641 86.0236C608.985 -98.9977 845.683 70.526 921 130.632" stroke="black" stroke-width="3" stroke-dasharray="25 25"></path><path d="M14 958.211L18.7586 950L60 958.211L42.5517 976L14 958.211Z" fill="white"></path><path d="M489.224 1082.03L400.904 1158.03L392.741 1148.55L481.523 1072.15L454.417 978.686L458.733 977.388L489.224 1082.03ZM401.501 1151.48L484.041 1080.45L483.007 1076.91L399.195 1149.03L401.386 1151.58L401.501 1151.48Z" fill="black"></path><path d="M401.156 1154.58L396.665 1148.97L483.109 1073.75L486.477 1082.73L401.156 1154.58Z" fill="black"></path><path d="M549.594 589.713L508.203 520.208C506.109 516.624 507.292 512.21 510.777 510.002L534.096 496.076C537.68 493.982 542.094 495.166 544.302 498.651L585.694 568.156C587.787 571.741 586.605 576.155 583.12 578.362L559.801 592.289C556.217 594.382 551.589 593.183 549.594 589.713Z" fill="white"></path><path d="M548.779 591.628C548.388 591.174 548.095 590.834 547.816 590.284L506.76 521.519C504.013 516.969 505.48 511.158 510.007 508.439L532.964 494.764C537.491 492.045 543.307 493.552 546.054 498.101L587.11 566.866C589.857 571.415 588.39 577.227 583.863 579.946L560.906 593.621C556.927 596.065 551.81 595.141 548.779 591.628ZM551.683 587.937C553.105 590.268 556.216 591.143 558.648 589.638L581.606 575.963C583.925 574.555 584.779 571.447 583.356 569.115L542.398 500.464C540.976 498.133 537.865 497.258 535.432 498.763L512.475 512.438C510.155 513.846 509.302 516.954 510.724 519.286L551.683 587.937Z" fill="black"></path><path d="M534.698 505.337L530.898 498.963L515.331 508.255L519.131 514.629L534.698 505.337Z" fill="black"></path><path d="M517.562 515.471L513.088 507.895L531.337 496.805L535.811 504.381L517.562 515.471ZM515.301 508.312L518.213 513.359L533.716 503.862L530.804 498.815L515.301 508.312Z" fill="black"></path><path d="M33.8537 996.466C33.7406 996.466 33.7406 996.466 33.6275 996.466C33.175 996.466 32.7225 996.125 32.4963 995.785L0.36946 954.613C0.143215 954.273 -0.0830338 953.819 0.0300887 953.366C0.0300887 952.912 0.369463 952.458 0.708831 952.231L53.0846 911.059C53.4239 910.833 53.8764 910.606 54.3289 910.719C54.7814 910.719 55.2339 911.059 55.4601 911.4L77.8584 940.095C78.424 940.889 78.3109 941.91 77.519 942.477C76.7272 943.044 75.7091 942.931 75.1434 942.137L53.7633 914.802L3.98938 953.819L34.08 992.382L72.7679 962.099C73.5597 961.532 74.5778 961.645 75.1434 962.439C75.7091 963.233 75.5959 964.254 74.8041 964.821L34.8718 996.125C34.5325 996.352 34.1931 996.466 33.8537 996.466Z" fill="black"></path><path d="M73.792 963.461L76.507 941.117L64.0635 950.871L73.792 963.461Z" fill="black"></path><path d="M73.7904 965.162C73.2248 965.162 72.7723 964.935 72.4329 964.481L62.7044 952.005C62.4782 951.665 62.2519 951.211 62.3651 950.757C62.3651 950.304 62.7044 949.85 63.0438 949.623L75.4872 939.869C76.0528 939.415 76.7316 939.415 77.4103 939.755C77.9759 940.096 78.3153 940.776 78.3153 941.457L75.6004 963.801C75.4872 964.481 75.0347 965.048 74.356 965.275C74.1298 965.162 73.9035 965.162 73.7904 965.162ZM66.4374 951.211L72.6592 959.15L74.356 944.973L66.4374 951.211Z" fill="black"></path></svg> 