<?xml version="1.0" encoding="UTF-8"?> <svg xmlns="http://www.w3.org/2000/svg" width="476" height="475" viewBox="0 0 476 475" fill="none"><g clip-path="url(#clip0)"><path d="M338.94 226C338.94 226 307.54 216.4 296.94 244.8C283.74 280.3 266.34 288.4 242.04 288.4C217.74 288.4 206.24 316.1 206.24 316.1H314.34L338.94 226Z" fill="#FF5956"></path><path d="M61.84 129.4C61.84 129.4 44.44 134.8 36.74 142.2C22.74 155.7 14.24 177.5 14.24 197.8C14.64 236.3 55.24 255.2 53.84 268.7C52.34 282.3 53.34 298.3 53.34 298.3L71.84 301.4L50.84 257.5L46.44 200.7L47.34 182.2" fill="#FF5956"></path><path d="M318.74 310.8H214.64L215.54 308.7C215.64 308.4 218.44 301.8 224.24 295C231.94 285.9 241.14 281.2 250.84 281.2C273.24 281.2 283.54 265.1 292.74 239.1C302.94 210.6 340.74 219.7 341.14 219.8L342.64 220.2L318.74 310.8ZM219.24 307.8H316.44L338.84 222.4C335.84 221.8 328.84 220.7 321.14 221.6C307.94 223.1 299.34 229.3 295.44 240.1C285.74 267.3 274.84 284.1 250.64 284.1C233.04 284.2 222.44 301.7 219.24 307.8Z" fill="black"></path><path d="M76.4662 87.7161C76.4662 87.7161 74.1637 75.071 87.6154 71.0968C101.067 67.1226 104.339 77.2387 111.247 66.8817C118.033 56.4043 111.247 46.0473 102.037 46.0473C92.8264 46.0473 94.523 47.8538 89.9179 47.8538C85.3128 47.8538 86.2823 44 78.5264 44C70.7705 44 70.8916 53.6344 67.4984 53.6344C64.2264 53.6344 55.1374 49.9011 55.1374 63.871C55.1374 66.2796 44.473 73.1441 51.2595 83.9828C57.9247 94.8215 57.0764 92.8946 60.1061 100L65.3171 99.2774L65.923 93.8581C63.4993 93.7376 56.2281 84.1032 64.4688 80.7312C71.0128 78.0817 73.4366 87.8366 73.4366 87.8366L76.4662 87.7161Z" fill="black"></path><path d="M58.7221 101L57.63 98.502C55.6885 93.9819 55.6885 93.9819 51.9269 88.0343L49.5001 84.2278C43.9184 75.3065 49.0147 68.6452 51.9269 65.0766C52.4123 64.4819 53.019 63.6492 53.2617 63.2923C53.2617 58.4153 54.4751 54.9657 56.7806 53.0625C59.6928 50.5645 63.4544 51.0403 66.0026 51.3972C66.6093 51.5161 67.216 51.5161 67.58 51.5161C67.944 51.3972 68.5507 50.0887 69.0361 49.1371C70.4922 46.2823 72.7977 42 78.6221 42C83.5971 42 85.6599 43.5464 87.116 44.7359C88.0868 45.4496 88.5721 45.9254 90.0282 45.9254C91.6057 45.9254 92.2124 45.6875 93.0618 45.3306C94.5179 44.7359 96.338 44.0222 102.162 44.0222C107.259 44.0222 111.87 46.7581 114.297 51.1593C116.966 56.0363 116.481 61.9839 112.962 67.3367C108.351 74.1169 104.468 73.1653 100.342 72.2137C97.1874 71.5 93.6685 70.6673 88.3295 72.2137C76.5593 75.6633 78.3794 86.25 78.5008 86.6069L78.8648 88.629L71.9483 88.8669L71.3416 87.5585C70.9776 86.3689 69.7642 82.8004 67.7014 81.7298C66.852 81.254 66.0026 81.254 64.9105 81.7298C62.4837 82.6815 62.241 84.1089 62.241 85.1794C62.3623 88.0343 65.0318 90.8891 65.8812 91.246L67.7014 91.3649L66.7306 99.9294L58.7221 101ZM62.4837 54.7278C61.1489 54.7278 59.9355 54.9657 58.9648 55.7984C57.5087 57.1069 56.7806 59.6048 56.7806 63.5302C56.7806 64.7198 55.9312 65.9093 54.7178 67.3367C52.0483 70.7863 48.2867 75.5444 52.5336 82.4436L54.9605 86.25C58.8434 92.3165 58.8434 92.4355 60.9062 97.1936L63.3331 96.8367L63.5757 94.2198C61.3916 92.7923 59.0861 89.4617 58.4794 86.4879C57.8727 82.9194 59.5715 79.9456 63.3331 78.5181C65.3959 77.6855 67.4587 77.8044 69.1575 78.6371C72.0697 80.0645 73.5258 83.3952 74.2538 85.4173C74.1325 80.1835 76.438 71.9758 86.8733 69.002C93.1831 67.0988 97.5514 68.1694 100.828 68.8831C104.711 69.8347 106.409 70.1915 109.564 65.5524C112.355 61.2702 112.84 56.75 110.778 52.9435C108.958 49.7319 105.56 47.7097 101.798 47.7097C96.702 47.7097 95.2459 48.3044 94.0325 48.7802C92.9404 49.1371 91.9697 49.6129 89.6642 49.6129C86.9947 49.6129 85.6599 48.5423 84.5679 47.7097C83.3544 46.7581 82.141 45.8064 78.3794 45.8064C75.1032 45.8064 73.7684 47.8286 72.0697 51.0403C70.9776 53.1815 69.8855 55.3226 67.3373 55.3226C66.7306 55.3226 66.0026 55.2036 65.2745 55.0847C64.4251 54.8468 63.4544 54.7278 62.4837 54.7278Z" fill="black"></path><path d="M317.64 310.8H127.34L194.14 40.9H384.44L317.64 310.8ZM131.14 307.8H315.24L380.54 43.9H196.54L131.14 307.8Z" fill="black"></path><path d="M122.04 474.2H112.74L181.44 308.7C181.74 307.9 182.64 307.6 183.44 307.9C184.24 308.2 184.54 309.1 184.24 309.9L117.24 471.2H120.14L198.74 308.6C199.14 307.9 200.04 307.5 200.74 307.9C201.44 308.3 201.84 309.2 201.44 309.9L122.04 474.2Z" fill="black"></path><path d="M342.04 474.2H330.84L265.84 309.8C265.54 309 265.94 308.2 266.64 307.9C267.44 307.6 268.24 308 268.54 308.7L332.74 471.2H337.74L283.04 309.8C282.74 309 283.24 308.2 283.94 307.9C284.74 307.6 285.54 308.1 285.84 308.8L342.04 474.2Z" fill="black"></path><path d="M280.34 44C280.24 44 280.04 44 279.84 43.9C279.04 43.7 278.64 42.8 278.84 42L291.24 3.1H288.84L272.64 43C272.34 43.8 271.44 44.1 270.64 43.8C269.84 43.5 269.54 42.6 269.84 41.8L286.84 0H295.34L281.84 42.8C281.64 43.5 281.04 44 280.34 44Z" fill="black"></path><path d="M326.24 309.3L295.24 452.2H324.94L375.04 315.9" fill="white"></path><path d="M325.94 453.7H293.34L324.74 309C324.94 308.2 325.74 307.7 326.54 307.9C327.34 308.1 327.84 308.9 327.64 309.7L297.04 450.7H323.84L373.64 315.4C373.94 314.6 374.74 314.2 375.54 314.5C376.34 314.8 376.74 315.6 376.44 316.4L325.94 453.7Z" fill="black"></path><path d="M87.44 454.6L85.74 472.7H133.64L106.34 454.5L87.44 454.6Z" fill="white"></path><path d="M138.64 474.2H84.04L86.04 453.1L106.74 453L138.64 474.2ZM87.34 471.2H128.64L105.84 456L88.84 456.1L87.34 471.2Z" fill="black"></path><path d="M298.14 44C298.04 44 297.94 44 297.74 44C296.94 43.8 296.44 43 296.64 42.2L307.24 0.199997H316.94L310.84 42.8C310.74 43.6 309.94 44.2 309.14 44.1C308.34 44 307.74 43.2 307.84 42.4L313.44 3.1H309.54L299.54 42.8C299.44 43.5 298.84 44 298.14 44Z" fill="black"></path><path d="M329.54 309.3L395.54 42.4H382.54L316.44 309.3H329.54Z" fill="black"></path><path d="M330.74 310.8H314.54L381.34 40.9H397.44L330.74 310.8ZM318.34 307.8H328.34L393.54 43.9H383.64L318.34 307.8Z" fill="black"></path><path d="M358.44 174.8L343.74 158L347.74 143.5L359.24 140.5L371.64 170.6" fill="white"></path><path d="M358.44 176.3C358.04 176.3 357.64 176.1 357.34 175.8L342.14 158.4L346.64 142.3L360.24 138.8L373.04 170.1C373.34 170.9 373.04 171.7 372.24 172.1C371.44 172.4 370.64 172.1 370.24 171.3L358.34 142.4L348.94 144.8L345.34 157.7L359.54 173.9C360.04 174.5 360.04 175.5 359.44 176C359.14 176.2 358.84 176.3 358.44 176.3Z" fill="black"></path><path d="M402.263 118C401.408 118 400.552 118 399.697 118C395.053 117.755 392.975 115.427 391.997 113.589C386.497 102.563 405.441 74.0158 407.641 70.8304C408.252 69.9727 409.352 69.7277 410.207 70.3403C411.063 70.9529 411.307 72.0555 410.696 72.9132C410.696 73.0357 405.563 80.5093 401.163 89.3307C393.708 104.155 394.319 109.914 395.419 111.997C395.908 112.977 396.886 114.202 400.063 114.447C412.53 114.937 417.052 111.752 417.052 111.752C417.907 111.139 419.007 111.384 419.618 112.119C420.229 112.977 420.107 114.079 419.251 114.692C418.518 114.937 414.118 118 402.263 118Z" fill="black"></path><path d="M437.94 107.4C437.94 107.4 426.84 117.7 426.84 128.9C426.84 140 450.34 134.9 450.34 169.5C450.34 204.1 417.74 252.1 396.54 238.7C375.24 225.3 362.84 208.8 353.44 176.6L377.84 168.9L400.64 202.6L415.44 183.1" fill="white"></path><path d="M404.44 242.4C401.34 242.4 398.44 241.6 395.74 239.9C373.44 225.9 361.14 208.2 351.94 176.9L351.54 175.5L378.44 167L400.74 199.9L414.24 182.1C414.74 181.4 415.64 181.3 416.34 181.8C417.04 182.3 417.14 183.2 416.64 183.9L400.54 205L377.14 170.5L355.14 177.4C364.14 207.4 375.64 223.7 397.24 237.3C401.94 240.3 407.54 240 413.74 236.6C431.74 226.6 448.74 194 448.74 169.4C448.74 148.2 439.64 142.5 432.94 138.4C428.94 136 425.24 133.6 425.24 128.8C425.24 117.1 436.34 106.7 436.84 106.2C437.44 105.6 438.44 105.7 438.94 106.3C439.54 106.9 439.44 107.9 438.84 108.4C438.74 108.5 428.24 118.4 428.24 128.8C428.24 131.8 430.44 133.3 434.54 135.8C441.44 140 451.74 146.4 451.74 169.3C451.74 194.8 433.94 228.8 415.14 239.2C411.54 241.3 407.84 242.4 404.44 242.4Z" fill="black"></path><path d="M371.64 130.3C371.04 130.3 370.54 130 370.24 129.4C369.94 128.6 370.24 127.8 371.04 127.4C371.54 127.2 383.94 121.7 398.44 124.7C402.44 125.5 405.24 125.1 406.94 123.5C409.44 121.2 408.74 116.8 408.74 116.7C408.64 115.9 409.14 115.1 409.94 115C410.74 114.9 411.54 115.4 411.64 116.2C411.64 116.4 412.54 122.2 408.94 125.6C406.54 127.9 402.74 128.6 397.74 127.5C384.24 124.7 372.34 129.9 372.24 130C372.04 130.3 371.84 130.3 371.64 130.3Z" fill="black"></path><path d="M412.84 146.4C408.74 146.4 404.74 145.4 401.24 142.8C388.34 132.9 391.64 125.3 391.84 125C392.24 124.2 393.04 123.9 393.84 124.3C394.54 124.7 394.94 125.5 394.54 126.3C394.54 126.3 392.24 132.1 403.04 140.4C414.14 148.9 433.64 136.6 433.84 136.5C434.54 136.1 435.44 136.3 435.94 137C436.34 137.7 436.14 138.6 435.44 139.1C434.84 139.4 423.74 146.4 412.84 146.4Z" fill="black"></path><path d="M431.601 89.5309C428.185 90.6687 425.021 98.2544 425.021 98.2544L423.882 97.243C423.882 97.243 428.185 83.0831 419.96 77.5202C411.608 71.9574 403.383 82.3245 403.004 66.7739C402.624 51.2233 432.487 56.9125 443.876 65.3832C455.264 73.8538 464.881 82.1981 451.468 98.128C438.055 114.058 431.981 120 431.981 120L427.552 115.954C427.552 115.954 441.598 103.185 440.712 95.473C439.573 87.8873 435.018 88.5195 431.601 89.5309Z" fill="black"></path><path d="M432.324 122L425.088 115.352L426.585 113.973C431.7 109.332 439.561 100.051 438.937 95.1591C438.688 93.0269 437.939 91.5217 437.066 90.8946C435.943 90.1421 434.071 90.5183 432.449 91.02C430.702 91.6472 428.207 95.9116 427.084 98.5455L426.086 100.929L422.218 97.4167L422.592 96.2879C422.592 96.1625 426.335 83.4946 419.473 78.8538C416.853 77.0979 414.233 77.2233 411.613 77.4742C409.117 77.5996 406.622 77.8504 404.75 76.0945C403.004 74.464 402.13 71.5792 402.006 66.6876C401.881 62.2977 403.877 59.0367 407.62 57.0299C417.477 51.8875 436.941 57.4062 445.3 63.6774C452.786 69.3215 459.025 74.464 459.898 81.9895C460.522 87.1319 458.276 92.776 453.161 98.9218C440.06 114.6 434.071 120.495 433.822 120.746L432.324 122ZM430.702 115.352L432.324 116.858C434.695 114.349 440.434 108.078 450.166 96.5387C454.658 91.2709 456.53 86.6302 456.03 82.4911C455.282 76.5962 449.667 71.83 442.93 66.813C434.695 60.6672 416.978 56.5282 409.242 60.4164C406.747 61.6706 405.624 63.8028 405.624 66.6876C405.749 71.0775 406.497 72.708 407.121 73.3351C407.87 73.9623 409.117 73.9623 411.238 73.8368C414.108 73.586 417.726 73.3351 421.469 75.8436C426.834 79.481 427.583 85.8776 427.334 90.8946C428.581 89.3895 429.954 88.0098 431.451 87.5081C432.948 87.1319 436.317 86.1285 439.187 87.8844C441.058 89.1387 442.306 91.3963 442.805 94.7828C443.554 101.807 434.445 111.59 430.702 115.352Z" fill="black"></path><path d="M392.44 254.7C391.94 254.7 391.54 254.7 391.04 254.7C370.74 254.5 354.74 251.1 343.44 244.3C342.74 243.9 342.54 243 342.94 242.2C343.34 241.5 344.24 241.3 345.04 241.7C368.74 255.8 409.44 251 416.64 250.1L418.84 233.9C418.94 233.1 419.74 232.5 420.54 232.6C421.34 232.7 421.94 233.5 421.84 234.3L419.34 252.8L418.24 253C418.04 253 406.84 254.7 392.44 254.7Z" fill="black"></path><path d="M421.44 455.8L366.64 295.7C366.34 294.9 366.74 294.1 367.54 293.8C368.34 293.5 369.14 293.9 369.44 294.7L423.44 452.5L445.54 449.6L416.44 251.7C416.34 250.9 416.84 250.1 417.74 250C418.54 249.9 419.34 250.4 419.44 251.3L448.94 452.2L421.44 455.8Z" fill="black"></path><path d="M327.64 474.2H268.24L303.14 450.9C303.84 450.4 304.74 450.6 305.24 451.3C305.74 452 305.54 452.9 304.84 453.4L278.04 471.2H324.14L321.84 452.4C321.74 451.6 322.34 450.8 323.14 450.7C323.94 450.6 324.74 451.2 324.84 452L327.64 474.2Z" fill="black"></path><path d="M475.34 474.2H420.94V454.1C420.94 453.3 421.64 452.6 422.44 452.6C423.24 452.6 423.94 453.3 423.94 454.1V471.2H465.74L439.44 453.1C438.74 452.6 438.54 451.7 439.04 451C439.54 450.3 440.44 450.1 441.14 450.6L475.34 474.2Z" fill="black"></path><path d="M78.24 293.9L56.44 290.3L56.14 290C55.34 289.3 37.64 272 39.24 257.8C39.84 252.9 36.44 247 32.34 239.5C25.74 227.8 16.74 211.8 16.54 188.3C16.54 167.3 25.54 145 39.54 131.7C47.44 124.2 64.54 118.8 65.24 118.6C66.04 118.4 66.84 118.8 67.14 119.6C67.34 120.4 66.94 121.2 66.14 121.5C65.94 121.6 49.04 126.9 41.64 133.9C28.24 146.8 19.54 168.1 19.54 188.4C19.74 211.2 28.54 226.8 34.94 238.2C39.44 246.1 42.94 252.4 42.24 258.3C40.94 270.1 55.54 285.3 57.84 287.7L73.04 290.2L53.14 248.6L48.74 191.4V191.3L49.64 172.8C49.64 172 50.44 171.4 51.24 171.4C52.04 171.4 52.74 172.1 52.64 173L51.74 191.4L56.14 247.8L78.24 293.9Z" fill="black"></path><path d="M38.24 268.9L85.34 445.7L114.54 445.4L95.94 365.6" fill="black"></path><path d="M84.14 447.1L36.74 269.2C36.54 268.4 37.04 267.6 37.84 267.4C38.64 267.2 39.44 267.7 39.64 268.5L86.44 444.1L112.64 443.8L94.44 365.8C94.24 365 94.74 364.2 95.54 364C96.34 363.8 97.14 364.3 97.34 365.1L116.34 446.7L84.14 447.1Z" fill="black"></path><path d="M88.2399 443.8L87.4399 454.6L106.34 454.5V444L88.2399 443.8Z" fill="black"></path><path d="M85.84 456.1L86.84 442.3L107.84 442.5V456L85.84 456.1ZM89.64 445.3L89.04 453.1L104.84 453V445.5L89.64 445.3Z" fill="black"></path><path d="M30.14 251.5L69.64 336.1L18.04 419.5L35.34 444.9C35.34 444.9 80.24 387.1 91.74 371.2C103.34 355.4 113.84 338.9 105.54 312.4C97.34 285.9 81.34 240 81.34 240" fill="white"></path><path d="M35.24 447.4L16.24 419.5L67.84 336L28.84 252.1C28.54 251.3 28.84 250.5 29.54 250.1C30.34 249.7 31.14 250.1 31.54 250.8L71.34 336.2L19.84 419.4L35.44 442.3C42.84 432.8 80.24 384.4 90.54 370.3C102.64 353.8 111.94 338 104.14 312.8C96.04 286.6 80.04 240.9 79.94 240.4C79.64 239.6 80.04 238.8 80.84 238.5C81.64 238.2 82.44 238.6 82.74 239.4C82.94 239.9 98.84 285.6 107.04 311.9C115.24 338.4 105.54 354.8 92.94 372C81.54 387.7 36.94 445.1 36.54 445.7L35.24 447.4Z" fill="black"></path><path d="M224.34 116.2L162.84 129L164.84 136L224.34 116.2Z" fill="black"></path><path d="M163.84 137.9L160.94 127.9L224.04 114.8L224.84 117.7L163.84 137.9ZM164.74 130.2L165.84 134.1L199.24 123L164.74 130.2Z" fill="black"></path><path d="M87.74 175L124.94 211.5C124.94 211.5 190.24 148.1 190.24 137.8L192.34 119.8L180.84 122.7L179.04 134.9L124.84 182.9L112.34 171.4" fill="white"></path><path d="M124.94 213.6L86.6399 176.1C86.0399 175.5 86.0399 174.6 86.6399 174C87.2399 173.4 88.1399 173.4 88.7399 174L124.94 209.4C150.04 185 188.74 144.8 188.74 137.8V137.6L190.54 121.7L182.14 123.8L180.44 135.6L124.84 184.9L111.34 172.4C110.74 171.8 110.74 170.9 111.24 170.3C111.84 169.7 112.74 169.7 113.34 170.2L124.84 180.8L177.64 134.1L179.54 121.4L194.04 117.8L191.74 137.9C191.34 148.8 132.74 206 126.04 212.6L124.94 213.6Z" fill="black"></path><path d="M96.7399 269.8H24.9399L25.0399 268.1C25.1399 267.5 30.8399 202.9 30.8399 154.2C30.8399 125.9 49.1399 115.9 66.2399 115.9C81.8399 115.9 119.74 169 123.94 175L125.34 177L94.0399 181.5L96.7399 269.8ZM28.1399 266.8H93.6399L91.1399 182L89.0399 182.3L70.8399 161.5C70.3399 160.9 70.3399 159.9 70.9399 159.4C71.5399 158.9 72.5399 158.9 73.0399 159.5L90.2399 179.1L92.0399 178.8C92.2399 178.7 92.4399 178.7 92.5399 178.7C92.6399 178.7 92.6399 178.7 92.7399 178.7L120.04 174.8C107.64 157.5 77.6399 118.9 66.1399 118.9C42.2399 118.9 33.7399 137.2 33.7399 154.2C33.8399 198.7 29.0399 256.4 28.1399 266.8Z" fill="black"></path><path d="M48.8487 123.881C47.9917 123.881 47.1346 123.284 47.0121 122.33C46.8897 121.376 47.712 121.739 48.6467 120.75C48.8916 120.75 57.9093 118.157 58.1542 97.1682C58.1542 95.2602 57.6644 93.2329 57.1747 91.4441C56.6849 89.536 56.1952 87.7473 56.1952 85.8392C56.1952 77.0145 56.9298 68.1899 62.0723 63.1813C65.2557 60.2 69.6636 58.8882 75.7856 59.0074C85.4584 59.1267 92.8048 60.2 97.3351 64.8508C101.008 68.6669 102.478 74.5102 101.865 83.9312C101.743 85.4815 101.743 87.151 101.62 88.582C100.763 104.8 100.151 117.68 86.193 117.68C76.7651 117.68 71.5002 112.075 69.2962 108.855C68.684 108.02 68.9289 106.947 69.786 106.351C70.6431 105.754 71.7451 105.993 72.3573 106.828C74.1939 109.57 78.4793 114.102 86.3154 114.102C96.3555 114.102 97.2126 105.754 98.0697 88.3435C98.1921 86.7932 98.1921 85.243 98.3146 83.6927C98.8043 75.5835 97.5799 70.3364 94.7638 67.3551C91.7028 64.1353 86.193 62.8235 75.908 62.585C70.7655 62.4658 67.2148 63.539 64.766 65.8048C61.3376 69.0246 59.9908 74.868 59.9908 85.8392C59.9908 87.2703 60.3581 88.8205 60.8479 90.6093C61.3376 92.6366 61.9498 94.9024 61.9498 97.2875C61.705 121.734 49.7058 123.881 49.2161 124C48.9712 123.881 48.9712 123.881 48.8487 123.881Z" fill="black"></path><path d="M76.0502 130C75.9145 130 75.9145 130 75.7788 130C74.6933 129.872 73.8791 128.851 74.0148 127.829L75.9145 114.674C76.0502 113.652 77.1357 112.886 78.2212 113.014C79.3067 113.142 80.1209 114.163 79.9852 115.185L78.0855 128.34C77.9498 129.361 77 130 76.0502 130Z" fill="black"></path><path d="M40.44 474.2H21.04C20.54 474.2 20.04 473.9 19.74 473.5L0.24 442.7C-0.16 442.1 -0.06 441.2 0.54 440.7L20.34 424.6L22.24 426.9L3.54 442.2L21.84 471.2H37.44L30.44 462.1C30.24 461.9 30.14 461.6 30.14 461.3L29.04 447.4C29.04 447.2 29.04 447 29.14 446.8L31.34 441L34.14 442.1L32.04 447.6L33.04 460.8L41.54 472C41.84 472.5 41.94 473.1 41.64 473.6C41.54 473.9 41.04 474.2 40.44 474.2Z" fill="black"></path><path d="M187.34 179.1L224.34 116.2L245.24 135.1L286.24 90L316.44 103.1L355.94 57.1" fill="white"></path><path d="M187.34 180.6C187.04 180.6 186.84 180.5 186.54 180.4C185.84 180 185.54 179.1 186.04 178.3L224.04 113.8L245.24 132.9L286.04 88.2L316.14 101.3L354.84 56.1C355.34 55.5 356.34 55.4 356.94 55.9C357.54 56.4 357.64 57.4 357.14 58L316.94 104.9L286.74 91.8L245.44 137.2L224.84 118.5L188.74 179.8C188.34 180.4 187.84 180.6 187.34 180.6Z" fill="black"></path><path d="M172.24 288.2H155.64L164.54 251.9H181.14L172.24 288.2ZM159.44 285.2H169.94L177.44 254.9H166.94L159.44 285.2Z" fill="black"></path><path d="M194.04 288.2H177.44L189.54 239.4H206.24L194.04 288.2ZM181.24 285.2H191.74L202.44 242.4H191.84L181.24 285.2Z" fill="black"></path><path d="M217.64 288.2H201.04L217.74 221H234.54L217.64 288.2ZM204.84 285.2H215.34L230.74 224H220.04L204.84 285.2Z" fill="black"></path><path d="M16.34 429.8L30.64 447.3L32.34 440.6L22.54 426.1L16.34 429.8Z" fill="black"></path><path d="M30.64 448.8C30.24 448.8 29.74 448.6 29.44 448.3L15.14 430.8C14.84 430.5 14.74 430 14.84 429.6C14.94 429.2 15.14 428.8 15.54 428.6L21.74 424.9C22.44 424.5 23.34 424.7 23.74 425.3L33.54 439.8C33.74 440.2 33.84 440.6 33.74 441L32.04 447.7C31.94 448.2 31.44 448.7 30.94 448.8C30.84 448.7 30.74 448.8 30.64 448.8ZM18.64 430.2L29.94 444L30.74 440.8L22.14 428.1L18.64 430.2Z" fill="black"></path><path d="M178.14 320.6L194.44 320.5L198.84 309.3H183.14L178.14 320.6Z" fill="black"></path><path d="M175.84 322.1L182.24 307.8H201.04L195.44 322L175.84 322.1ZM184.14 310.8L180.44 319L193.44 318.9L196.64 310.7H184.14V310.8Z" fill="black"></path><path d="M271.94 320.1L286.94 319.7L283.74 309.3H267.94L271.94 320.1Z" fill="black"></path><path d="M270.94 321.6L265.84 307.8H284.84L289.04 321.2L270.94 321.6ZM270.14 310.8L273.04 318.6L284.94 318.3L282.64 310.8H270.14Z" fill="black"></path><path d="M92.64 180.2L95.24 268.3H26.54C26.54 268.3 32.34 203.6 32.34 154.2C32.34 126 50.94 117.4 66.24 117.4C81.54 117.4 122.74 175.9 122.74 175.9L89.64 180.7L71.94 160.5" fill="white"></path><path d="M96.7399 269.8H24.9399L25.0399 268.1C25.1399 267.5 30.8399 202.9 30.8399 154.2C30.8399 125.9 49.1399 115.9 66.2399 115.9C81.8399 115.9 119.74 169 123.94 175L125.34 177L94.0399 181.5L96.7399 269.8ZM28.1399 266.8H93.6399L91.1399 182L89.0399 182.3L70.8399 161.5C70.3399 160.9 70.3399 159.9 70.9399 159.4C71.5399 158.9 72.5399 158.9 73.0399 159.5L90.2399 179.1L92.0399 178.8C92.2399 178.7 92.4399 178.7 92.5399 178.7C92.6399 178.7 92.6399 178.7 92.7399 178.7L120.04 174.8C107.64 157.5 77.6399 118.9 66.1399 118.9C42.2399 118.9 33.7399 137.2 33.7399 154.2C33.8399 198.7 29.0399 256.4 28.1399 266.8Z" fill="black"></path><path d="M88.74 182.9L91.34 272.2H21.74C21.74 272.2 27.64 206.6 27.64 156.5C27.64 128 46.54 119.1 62.04 119.1C77.54 119.1 119.34 178.4 119.34 178.4L85.74 183.3L67.84 162.8" fill="#FF5956"></path><path d="M96.7399 269.8H24.9399L25.0399 268.1C25.1399 267.5 30.8399 202.9 30.8399 154.2C30.8399 125.9 49.1399 115.9 66.2399 115.9C81.8399 115.9 119.74 169 123.94 175L125.34 177L94.0399 181.5L96.7399 269.8ZM28.1399 266.8H93.6399L91.1399 182L89.0399 182.3L70.8399 161.5C70.3399 160.9 70.3399 159.9 70.9399 159.4C71.5399 158.9 72.5399 158.9 73.0399 159.5L90.2399 179.1L92.0399 178.8C92.2399 178.7 92.4399 178.7 92.5399 178.7C92.6399 178.7 92.6399 178.7 92.7399 178.7L120.04 174.8C107.64 157.5 77.6399 118.9 66.1399 118.9C42.2399 118.9 33.7399 137.2 33.7399 154.2C33.8399 198.7 29.0399 256.4 28.1399 266.8Z" fill="black"></path><path d="M93.24 183.7L123.74 181.8L118.04 176.6L93.94 180.6L93.24 183.7Z" fill="black"></path><path d="M93.24 185.2C92.84 185.2 92.34 185 92.14 184.7C91.84 184.3 91.74 183.8 91.84 183.4L92.64 180.3C92.74 179.7 93.24 179.3 93.84 179.2L117.94 175.2C118.44 175.1 118.84 175.3 119.24 175.6L124.94 180.8C125.34 181.2 125.54 181.8 125.34 182.4C125.14 183 124.64 183.4 124.04 183.4L93.24 185.2C93.34 185.2 93.34 185.2 93.24 185.2ZM95.24 181.9L95.14 182.1L120.14 180.5L117.54 178.1L95.24 181.9Z" fill="black"></path><path d="M38.24 268.9L41.04 279.1H94.84L91.44 268.9H38.24Z" fill="black"></path><path d="M96.94 280.6H39.84L36.24 267.4H92.44L96.94 280.6ZM42.14 277.6H92.74L90.34 270.4H40.14L42.14 277.6Z" fill="black"></path><path d="M410.44 90.3341C411.348 88.8518 411.201 87.1099 410.113 86.4435C409.025 85.7771 407.407 86.4386 406.499 87.921C405.591 89.4034 405.738 91.1452 406.826 91.8116C407.914 92.478 409.532 91.8165 410.44 90.3341Z" fill="black"></path><path d="M395.743 100.084C397.604 104.071 407 102.693 407 102.693C407 102.693 396.165 108.822 394.001 104.393C394.001 104.393 393.896 96.0966 395.743 100.084Z" fill="black"></path><path d="M95.0367 88.3709C95.0838 86.8619 94.226 85.6107 93.1207 85.5762C92.0154 85.5417 91.0812 86.737 91.0341 88.246C90.987 89.755 91.8448 91.0062 92.9501 91.0407C94.0554 91.0752 94.9896 89.8799 95.0367 88.3709Z" fill="black"></path><path d="M97 102.74C97 102.74 93.9049 103.871 88 100C88 100 88 105.693 96.2756 107L97 102.74Z" fill="black"></path></g><defs><clipPath id="clip0"><rect width="475.34" height="474.2" fill="white"></rect></clipPath></defs></svg> 