<?xml version="1.0" encoding="UTF-8"?> <svg xmlns="http://www.w3.org/2000/svg" width="742" height="478" viewBox="0 0 742 478" fill="none"><circle cx="671.301" cy="76" r="70" fill="black"></circle><circle cx="669.301" cy="70" r="68.5" fill="white" stroke="black" stroke-width="3"></circle><path d="M575 101L578 74.5L611.5 82L605 105L591 121L575 101Z" fill="white"></path><path d="M498.301 302.5L541.301 248H581.301V260L578.301 271L528.801 293L512.801 319H492.801L498.301 302.5Z" fill="white"></path><path d="M291.801 313L357.301 45H549.301L483.301 313H291.801Z" fill="white"></path><path d="M501.241 229C501.241 229 469.841 219.4 459.241 247.8C446.041 283.3 428.641 291.4 404.341 291.4C380.041 291.4 368.541 319.1 368.541 319.1H476.641L501.241 229Z" fill="#41DC8B"></path><path d="M224.141 132.4C224.141 132.4 206.741 137.8 199.041 145.2C185.041 158.7 176.541 180.5 176.541 200.8C176.941 239.3 217.541 258.2 216.141 271.7C214.641 285.3 215.641 301.3 215.641 301.3L234.141 304.4L213.141 260.5L208.741 203.7L209.641 185.2" fill="#41DC8B"></path><path d="M481.041 313.8H376.941L377.841 311.7C377.941 311.4 380.741 304.8 386.541 298C394.241 288.9 403.441 284.2 413.141 284.2C435.541 284.2 445.841 268.1 455.041 242.1C465.241 213.6 503.041 222.7 503.441 222.8L504.941 223.2L481.041 313.8ZM381.541 310.8H478.741L501.141 225.4C498.141 224.8 491.141 223.7 483.441 224.6C470.241 226.1 461.641 232.3 457.741 243.1C448.041 270.3 437.141 287.1 412.941 287.1C395.341 287.2 384.741 304.7 381.541 310.8Z" fill="black"></path><path d="M238.767 90.7161C238.767 90.7161 236.464 78.071 249.916 74.0968C263.368 70.1226 266.64 80.2387 273.548 69.8817C280.334 59.4043 273.548 49.0473 264.337 49.0473C255.127 49.0473 256.824 50.8538 252.219 50.8538C247.614 50.8538 248.583 47 240.827 47C233.071 47 233.192 56.6344 229.799 56.6344C226.527 56.6344 217.438 52.9011 217.438 66.871C217.438 69.2796 206.774 76.1441 213.56 86.9828C220.225 97.8215 219.377 95.8946 222.407 103L227.618 102.277L228.224 96.8581C225.8 96.7376 218.529 87.1032 226.77 83.7312C233.314 81.0817 235.737 90.8366 235.737 90.8366L238.767 90.7161Z" fill="black"></path><path d="M221.023 104L219.931 101.502C217.989 96.9819 217.989 96.9819 214.228 91.0343L211.801 87.2278C206.219 78.3065 211.316 71.6452 214.228 68.0766C214.713 67.4819 215.32 66.6492 215.562 66.2923C215.562 61.4153 216.776 57.9657 219.081 56.0625C221.994 53.5645 225.755 54.0403 228.303 54.3972C228.91 54.5161 229.517 54.5161 229.881 54.5161C230.245 54.3972 230.852 53.0887 231.337 52.1371C232.793 49.2823 235.098 45 240.923 45C245.898 45 247.961 46.5464 249.417 47.7359C250.388 48.4496 250.873 48.9254 252.329 48.9254C253.906 48.9254 254.513 48.6875 255.363 48.3306C256.819 47.7359 258.639 47.0222 264.463 47.0222C269.56 47.0222 274.171 49.7581 276.597 54.1593C279.267 59.0363 278.782 64.9839 275.263 70.3367C270.652 77.1169 266.769 76.1653 262.643 75.2137C259.488 74.5 255.969 73.6673 250.63 75.2137C238.86 78.6633 240.68 89.25 240.802 89.6069L241.166 91.629L234.249 91.8669L233.642 90.5585C233.278 89.3689 232.065 85.8004 230.002 84.7298C229.153 84.254 228.303 84.254 227.211 84.7298C224.784 85.6815 224.542 87.1089 224.542 88.1794C224.663 91.0343 227.333 93.8891 228.182 94.246L230.002 94.3649L229.031 102.929L221.023 104ZM224.784 57.7278C223.45 57.7278 222.236 57.9657 221.266 58.7984C219.809 60.1069 219.081 62.6048 219.081 66.5302C219.081 67.7198 218.232 68.9093 217.019 70.3367C214.349 73.7863 210.587 78.5444 214.834 85.4436L217.261 89.25C221.144 95.3165 221.144 95.4355 223.207 100.194L225.634 99.8367L225.877 97.2198C223.692 95.7923 221.387 92.4617 220.78 89.4879C220.173 85.9194 221.872 82.9456 225.634 81.5181C227.697 80.6855 229.759 80.8044 231.458 81.6371C234.37 83.0645 235.827 86.3952 236.555 88.4173C236.433 83.1835 238.739 74.9758 249.174 72.002C255.484 70.0988 259.852 71.1694 263.128 71.8831C267.011 72.8347 268.71 73.1915 271.865 68.5524C274.656 64.2702 275.141 59.75 273.078 55.9435C271.258 52.7319 267.861 50.7097 264.099 50.7097C259.003 50.7097 257.547 51.3044 256.333 51.7802C255.241 52.1371 254.27 52.6129 251.965 52.6129C249.295 52.6129 247.961 51.5423 246.869 50.7097C245.655 49.7581 244.442 48.8064 240.68 48.8064C237.404 48.8064 236.069 50.8286 234.37 54.0403C233.278 56.1814 232.186 58.3226 229.638 58.3226C229.031 58.3226 228.303 58.2036 227.575 58.0847C226.726 57.8468 225.755 57.7278 224.784 57.7278Z" fill="black"></path><path d="M479.941 313.8H289.641L356.441 43.9H546.741L479.941 313.8ZM293.441 310.8H477.541L542.841 46.9H358.841L293.441 310.8Z" fill="black"></path><path d="M284.341 477.2H275.041L343.741 311.7C344.041 310.9 344.941 310.6 345.741 310.9C346.541 311.2 346.841 312.1 346.541 312.9L279.541 474.2H282.441L361.041 311.6C361.441 310.9 362.341 310.5 363.041 310.9C363.741 311.3 364.141 312.2 363.741 312.9L284.341 477.2Z" fill="black"></path><path d="M504.34 477.2H493.14L428.14 312.8C427.84 312 428.24 311.2 428.94 310.9C429.74 310.6 430.54 311 430.84 311.7L495.04 474.2H500.04L445.34 312.8C445.04 312 445.54 311.2 446.24 310.9C447.04 310.6 447.84 311.1 448.14 311.8L504.34 477.2Z" fill="black"></path><path d="M442.641 47C442.541 47 442.341 47 442.141 46.9C441.341 46.7 440.941 45.8 441.141 45L453.541 6.1H451.141L434.941 46C434.641 46.8 433.741 47.1 432.941 46.8C432.141 46.5 431.841 45.6 432.141 44.8L449.141 3H457.641L444.141 45.8C443.941 46.5 443.341 47 442.641 47Z" fill="black"></path><path d="M488.541 312.3L457.541 455.2H487.241L537.341 318.9" fill="white"></path><path d="M488.241 456.7H455.641L487.041 312C487.241 311.2 488.041 310.7 488.841 310.9C489.641 311.1 490.141 311.9 489.941 312.7L459.341 453.7H486.141L535.941 318.4C536.241 317.6 537.041 317.2 537.841 317.5C538.641 317.8 539.041 318.6 538.741 319.4L488.241 456.7Z" fill="black"></path><path d="M249.741 457.6L248.041 475.7H295.941L268.641 457.5L249.741 457.6Z" fill="white"></path><path d="M300.94 477.2H246.34L248.34 456.1L269.04 456L300.94 477.2ZM249.64 474.2H290.94L268.14 459L251.14 459.1L249.64 474.2Z" fill="black"></path><path d="M460.441 47C460.341 47 460.241 47 460.041 47C459.241 46.7999 458.741 46 458.941 45.2L469.541 3.19995H479.241L473.141 45.7999C473.041 46.5999 472.241 47.1999 471.441 47.0999C470.641 47 470.041 46.2 470.141 45.4L475.741 6.09995H471.841L461.841 45.7999C461.741 46.5 461.141 47 460.441 47Z" fill="black"></path><path d="M491.84 312.3L557.84 45.4H544.84L478.74 312.3H491.84Z" fill="black"></path><path d="M493.04 313.8H476.84L543.64 43.9H559.74L493.04 313.8ZM480.64 310.8H490.64L555.84 46.9H545.94L480.64 310.8Z" fill="black"></path><path d="M520.741 177.8L506.041 161L510.041 146.5L521.541 143.5L533.941 173.6" fill="white"></path><path d="M520.741 179.3C520.341 179.3 519.941 179.1 519.641 178.8L504.441 161.4L508.941 145.3L522.541 141.8L535.341 173.1C535.641 173.9 535.341 174.7 534.541 175.1C533.741 175.4 532.941 175.1 532.541 174.3L520.641 145.4L511.241 147.8L507.641 160.7L521.841 176.9C522.341 177.5 522.341 178.5 521.741 179C521.441 179.2 521.141 179.3 520.741 179.3Z" fill="black"></path><path d="M564.564 121C563.709 121 562.853 121 561.998 121C557.353 120.755 555.276 118.427 554.298 116.589C548.798 105.563 567.742 77.0158 569.942 73.8304C570.553 72.9727 571.653 72.7277 572.508 73.3403C573.364 73.9529 573.608 75.0555 572.997 75.9132C572.997 76.0357 567.864 83.5093 563.464 92.3307C556.009 107.155 556.62 112.914 557.72 114.997C558.209 115.977 559.187 117.202 562.364 117.447C574.83 117.937 579.352 114.752 579.352 114.752C580.208 114.139 581.308 114.384 581.919 115.119C582.53 115.977 582.408 117.079 581.552 117.692C580.819 117.937 576.419 121 564.564 121Z" fill="black"></path><path d="M600.24 110.4C600.24 110.4 589.14 120.7 589.14 131.9C589.14 143 612.64 137.9 612.64 172.5C612.64 207.1 580.04 255.1 558.84 241.7C537.54 228.3 525.14 211.8 515.74 179.6L540.14 171.9L562.94 205.6L577.74 186.1" fill="white"></path><path d="M566.74 245.4C563.64 245.4 560.74 244.6 558.04 242.9C535.74 228.9 523.44 211.2 514.24 179.9L513.84 178.5L540.74 170L563.04 202.9L576.54 185.1C577.04 184.4 577.94 184.3 578.64 184.8C579.34 185.3 579.44 186.2 578.94 186.9L562.84 208L539.44 173.5L517.44 180.4C526.44 210.4 537.94 226.7 559.54 240.3C564.24 243.3 569.84 243 576.04 239.6C594.04 229.6 611.04 197 611.04 172.4C611.04 151.2 601.94 145.5 595.24 141.4C591.24 139 587.54 136.6 587.54 131.8C587.54 120.1 598.64 109.7 599.14 109.2C599.74 108.6 600.74 108.7 601.24 109.3C601.84 109.9 601.74 110.9 601.14 111.4C601.04 111.5 590.54 121.4 590.54 131.8C590.54 134.8 592.74 136.3 596.84 138.8C603.74 143 614.04 149.4 614.04 172.3C614.04 197.8 596.24 231.8 577.44 242.2C573.84 244.3 570.14 245.4 566.74 245.4Z" fill="black"></path><path d="M533.94 133.3C533.34 133.3 532.84 133 532.54 132.4C532.24 131.6 532.54 130.8 533.34 130.4C533.84 130.2 546.24 124.7 560.74 127.7C564.74 128.5 567.54 128.1 569.24 126.5C571.74 124.2 571.04 119.8 571.04 119.7C570.94 118.9 571.44 118.1 572.24 118C573.04 117.9 573.84 118.4 573.94 119.2C573.94 119.4 574.84 125.2 571.24 128.6C568.84 130.9 565.04 131.6 560.04 130.5C546.54 127.7 534.64 132.9 534.54 133C534.34 133.3 534.14 133.3 533.94 133.3Z" fill="black"></path><path d="M575.141 149.4C571.041 149.4 567.041 148.4 563.541 145.8C550.641 135.9 553.941 128.3 554.141 128C554.541 127.2 555.341 126.9 556.141 127.3C556.841 127.7 557.241 128.5 556.841 129.3C556.841 129.3 554.541 135.1 565.341 143.4C576.441 151.9 595.941 139.6 596.141 139.5C596.841 139.1 597.741 139.3 598.241 140C598.641 140.7 598.441 141.6 597.741 142.1C597.141 142.4 586.041 149.4 575.141 149.4Z" fill="black"></path><path d="M593.902 92.5309C590.486 93.6687 587.322 101.254 587.322 101.254L586.183 100.243C586.183 100.243 590.486 86.0831 582.261 80.5202C573.909 74.9574 565.684 85.3245 565.304 69.7739C564.925 54.2233 594.788 59.9125 606.176 68.3832C617.565 76.8538 627.182 85.1981 613.769 101.128C600.356 117.058 594.282 123 594.282 123L589.853 118.954C589.853 118.954 603.899 106.185 603.013 98.473C601.874 90.8873 597.319 91.5195 593.902 92.5309Z" fill="black"></path><path d="M594.625 125L587.389 118.352L588.886 116.973C594.001 112.332 601.862 103.051 601.238 98.1591C600.988 96.0269 600.24 94.5217 599.366 93.8946C598.243 93.1421 596.372 93.5183 594.75 94.02C593.003 94.6472 590.508 98.9116 589.385 101.546L588.387 103.929L584.519 100.417L584.893 99.2879C584.893 99.1625 588.636 86.4946 581.774 81.8538C579.154 80.0979 576.534 80.2233 573.913 80.4742C571.418 80.5996 568.923 80.8504 567.051 79.0945C565.304 77.464 564.431 74.5792 564.306 69.6876C564.182 65.2977 566.178 62.0367 569.921 60.0299C579.778 54.8875 599.242 60.4062 607.601 66.6774C615.087 72.3215 621.326 77.464 622.199 84.9895C622.823 90.1319 620.577 95.776 615.462 101.922C602.361 117.6 596.372 123.495 596.122 123.746L594.625 125ZM593.003 118.352L594.625 119.858C596.996 117.349 602.735 111.078 612.467 99.5387C616.959 94.2709 618.83 89.6302 618.331 85.4911C617.583 79.5962 611.968 74.83 605.23 69.813C596.996 63.6672 579.279 59.5282 571.543 63.4164C569.047 64.6706 567.925 66.8028 567.925 69.6876C568.049 74.0775 568.798 75.708 569.422 76.3351C570.17 76.9623 571.418 76.9623 573.539 76.8368C576.409 76.586 580.027 76.3351 583.77 78.8436C589.135 82.481 589.884 88.8776 589.634 93.8946C590.882 92.3895 592.255 91.0098 593.752 90.5081C595.249 90.1319 598.618 89.1285 601.487 90.8844C603.359 92.1387 604.607 94.3963 605.106 97.7828C605.854 104.807 596.746 114.59 593.003 118.352Z" fill="black"></path><path d="M554.741 257.7C554.241 257.7 553.841 257.7 553.341 257.7C533.041 257.5 517.041 254.1 505.741 247.3C505.041 246.9 504.841 246 505.241 245.2C505.641 244.5 506.541 244.3 507.341 244.7C531.041 258.8 571.741 254 578.941 253.1L581.141 236.9C581.241 236.1 582.041 235.5 582.841 235.6C583.641 235.7 584.241 236.5 584.141 237.3L581.641 255.8L580.541 256C580.341 256 569.141 257.7 554.741 257.7Z" fill="black"></path><path d="M583.741 458.8L528.941 298.7C528.641 297.9 529.041 297.1 529.841 296.8C530.641 296.5 531.441 296.9 531.741 297.7L585.741 455.5L607.841 452.6L578.741 254.7C578.641 253.9 579.141 253.1 580.041 253C580.841 252.9 581.641 253.4 581.741 254.3L611.241 455.2L583.741 458.8Z" fill="black"></path><path d="M489.941 477.2H430.541L465.441 453.9C466.141 453.4 467.041 453.6 467.541 454.3C468.041 455 467.841 455.9 467.141 456.4L440.341 474.2H486.441L484.141 455.4C484.041 454.6 484.641 453.8 485.441 453.7C486.241 453.6 487.041 454.2 487.141 455L489.941 477.2Z" fill="black"></path><path d="M637.64 477.2H583.24V457.1C583.24 456.3 583.94 455.6 584.74 455.6C585.54 455.6 586.24 456.3 586.24 457.1V474.2H628.04L601.74 456.1C601.04 455.6 600.84 454.7 601.34 454C601.84 453.3 602.74 453.1 603.44 453.6L637.64 477.2Z" fill="black"></path><path d="M240.54 296.9L218.74 293.3L218.44 293C217.64 292.3 199.94 275 201.54 260.8C202.14 255.9 198.74 250 194.64 242.5C188.04 230.8 179.04 214.8 178.84 191.3C178.84 170.3 187.84 148 201.84 134.7C209.74 127.2 226.84 121.8 227.54 121.6C228.34 121.4 229.14 121.8 229.44 122.6C229.64 123.4 229.24 124.2 228.44 124.5C228.24 124.6 211.34 129.9 203.94 136.9C190.54 149.8 181.84 171.1 181.84 191.4C182.04 214.2 190.84 229.8 197.24 241.2C201.74 249.1 205.24 255.4 204.54 261.3C203.24 273.1 217.84 288.3 220.14 290.7L235.34 293.2L215.44 251.6L211.04 194.4V194.3L211.94 175.8C211.94 175 212.74 174.4 213.54 174.4C214.34 174.4 215.04 175.1 214.94 176L214.04 194.4L218.44 250.8L240.54 296.9Z" fill="black"></path><path d="M200.541 271.9L247.641 448.7L276.841 448.4L258.241 368.6" fill="black"></path><path d="M246.44 450.1L199.04 272.2C198.84 271.4 199.34 270.6 200.14 270.4C200.94 270.2 201.74 270.7 201.94 271.5L248.74 447.1L274.94 446.8L256.74 368.8C256.54 368 257.04 367.2 257.84 367C258.64 366.8 259.44 367.3 259.64 368.1L278.64 449.7L246.44 450.1Z" fill="black"></path><path d="M250.54 446.8L249.74 457.6L268.64 457.5V447L250.54 446.8Z" fill="black"></path><path d="M248.141 459.1L249.141 445.3L270.141 445.5V459L248.141 459.1ZM251.941 448.3L251.341 456.1L267.141 456V448.5L251.941 448.3Z" fill="black"></path><path d="M192.44 254.5L231.94 339.1L180.34 422.5L197.64 447.9C197.64 447.9 242.54 390.1 254.04 374.2C265.64 358.4 276.14 341.9 267.84 315.4C259.64 288.9 243.64 243 243.64 243" fill="white"></path><path d="M197.541 450.4L178.541 422.5L230.141 339L191.141 255.1C190.841 254.3 191.141 253.5 191.841 253.1C192.641 252.7 193.441 253.1 193.841 253.8L233.641 339.2L182.141 422.4L197.741 445.3C205.141 435.8 242.541 387.4 252.841 373.3C264.941 356.8 274.241 341 266.441 315.8C258.341 289.6 242.341 243.9 242.241 243.4C241.941 242.6 242.341 241.8 243.141 241.5C243.941 241.2 244.741 241.6 245.041 242.4C245.241 242.9 261.141 288.6 269.341 314.9C277.541 341.4 267.841 357.8 255.241 375C243.841 390.7 199.241 448.1 198.841 448.7L197.541 450.4Z" fill="black"></path><path d="M386.641 119.2L325.141 132L327.141 139L386.641 119.2Z" fill="black"></path><path d="M326.14 140.9L323.24 130.9L386.34 117.8L387.14 120.7L326.14 140.9ZM327.04 133.2L328.14 137.1L361.54 126L327.04 133.2Z" fill="black"></path><path d="M250.041 178L287.241 214.5C287.241 214.5 352.541 151.1 352.541 140.8L354.641 122.8L343.141 125.7L341.341 137.9L287.141 185.9L274.641 174.4" fill="white"></path><path d="M287.24 216.6L248.94 179.1C248.34 178.5 248.34 177.6 248.94 177C249.54 176.4 250.44 176.4 251.04 177L287.24 212.4C312.34 188 351.04 147.8 351.04 140.8V140.6L352.84 124.7L344.44 126.8L342.74 138.6L287.14 187.9L273.64 175.4C273.04 174.8 273.04 173.9 273.54 173.3C274.14 172.7 275.04 172.7 275.64 173.2L287.14 183.8L339.94 137.1L341.84 124.4L356.34 120.8L354.04 140.9C353.64 151.8 295.04 209 288.34 215.6L287.24 216.6Z" fill="black"></path><path d="M259.04 272.8H187.24L187.34 271.1C187.44 270.5 193.14 205.9 193.14 157.2C193.14 128.9 211.44 118.9 228.54 118.9C244.14 118.9 282.04 172 286.24 178L287.64 180L256.34 184.5L259.04 272.8ZM190.44 269.8H255.94L253.44 185L251.34 185.3L233.14 164.5C232.64 163.9 232.64 162.9 233.24 162.4C233.84 161.9 234.84 161.9 235.34 162.5L252.54 182.1L254.34 181.8C254.54 181.7 254.74 181.7 254.84 181.7C254.94 181.7 254.94 181.7 255.04 181.7L282.34 177.8C269.94 160.5 239.94 121.9 228.44 121.9C204.54 121.9 196.04 140.2 196.04 157.2C196.14 201.7 191.34 259.4 190.44 269.8Z" fill="black"></path><path d="M211.15 126.881C210.292 126.881 209.435 126.284 209.313 125.33C209.19 124.376 210.013 124.739 210.948 123.75C211.192 123.75 220.21 121.157 220.455 100.168C220.455 98.2602 219.965 96.2329 219.475 94.4441C218.986 92.536 218.496 90.7473 218.496 88.8392C218.496 80.0145 219.231 71.1899 224.373 66.1813C227.557 63.2 231.964 61.8882 238.086 62.0074C247.759 62.1267 255.106 63.2 259.636 67.8508C263.309 71.6669 264.778 77.5102 264.166 86.9312C264.044 88.4815 264.044 90.151 263.921 91.582C263.064 107.8 262.452 120.68 248.494 120.68C239.066 120.68 233.801 115.075 231.597 111.855C230.985 111.02 231.23 109.947 232.087 109.351C232.944 108.754 234.046 108.993 234.658 109.828C236.495 112.57 240.78 117.102 248.616 117.102C258.656 117.102 259.513 108.754 260.37 91.3435C260.493 89.7932 260.493 88.243 260.615 86.6927C261.105 78.5835 259.881 73.3364 257.065 70.3551C254.004 67.1353 248.494 65.8235 238.209 65.585C233.066 65.4658 229.516 66.539 227.067 68.8048C223.638 72.0246 222.292 77.868 222.292 88.8392C222.292 90.2703 222.659 91.8205 223.149 93.6093C223.638 95.6366 224.251 97.9024 224.251 100.287C224.006 124.734 212.007 126.881 211.517 127C211.272 126.881 211.272 126.881 211.15 126.881Z" fill="black"></path><path d="M238.351 133C238.215 133 238.215 133 238.08 133C236.994 132.872 236.18 131.851 236.316 130.829L238.215 117.674C238.351 116.652 239.436 115.886 240.522 116.014C241.608 116.142 242.422 117.163 242.286 118.185L240.386 131.34C240.251 132.361 239.301 133 238.351 133Z" fill="black"></path><path d="M202.741 477.2H183.341C182.841 477.2 182.341 476.9 182.041 476.5L162.541 445.7C162.141 445.1 162.241 444.2 162.841 443.7L182.641 427.6L184.541 429.9L165.841 445.2L184.141 474.2H199.741L192.741 465.1C192.541 464.9 192.441 464.6 192.441 464.3L191.341 450.4C191.341 450.2 191.341 450 191.441 449.8L193.641 444L196.441 445.1L194.341 450.6L195.341 463.8L203.841 475C204.141 475.5 204.241 476.1 203.941 476.6C203.841 476.9 203.341 477.2 202.741 477.2Z" fill="black"></path><path d="M349.641 182.1L386.641 119.2L407.541 138.1L448.541 93L478.741 106.1L518.241 60.1" fill="white"></path><path d="M349.64 183.6C349.34 183.6 349.14 183.5 348.84 183.4C348.14 183 347.84 182.1 348.34 181.3L386.34 116.8L407.54 135.9L448.34 91.2L478.44 104.3L517.14 59.1C517.64 58.5 518.64 58.4 519.24 58.9C519.84 59.4 519.94 60.4 519.44 61L479.24 107.9L449.04 94.8L407.74 140.2L387.14 121.5L351.04 182.8C350.64 183.4 350.14 183.6 349.64 183.6Z" fill="black"></path><path d="M334.541 291.2H317.941L326.841 254.9H343.441L334.541 291.2ZM321.741 288.2H332.241L339.741 257.9H329.241L321.741 288.2Z" fill="black"></path><path d="M356.34 291.2H339.74L351.84 242.4H368.54L356.34 291.2ZM343.54 288.2H354.04L364.74 245.4H354.14L343.54 288.2Z" fill="black"></path><path d="M379.94 291.2H363.34L380.04 224H396.84L379.94 291.2ZM367.14 288.2H377.64L393.04 227H382.34L367.14 288.2Z" fill="black"></path><path d="M178.641 432.8L192.941 450.3L194.641 443.6L184.841 429.1L178.641 432.8Z" fill="black"></path><path d="M192.941 451.8C192.541 451.8 192.041 451.6 191.741 451.3L177.441 433.8C177.141 433.5 177.041 433 177.141 432.6C177.241 432.2 177.441 431.8 177.841 431.6L184.041 427.9C184.741 427.5 185.641 427.7 186.041 428.3L195.841 442.8C196.041 443.2 196.141 443.6 196.041 444L194.341 450.7C194.241 451.2 193.741 451.7 193.241 451.8C193.141 451.7 193.041 451.8 192.941 451.8ZM180.941 433.2L192.241 447L193.041 443.8L184.441 431.1L180.941 433.2Z" fill="black"></path><path d="M340.441 323.6L356.741 323.5L361.141 312.3H345.441L340.441 323.6Z" fill="black"></path><path d="M338.141 325.1L344.541 310.8H363.341L357.741 325L338.141 325.1ZM346.441 313.8L342.741 322L355.741 321.9L358.941 313.7H346.441V313.8Z" fill="black"></path><path d="M434.24 323.1L449.24 322.7L446.04 312.3H430.24L434.24 323.1Z" fill="black"></path><path d="M433.241 324.6L428.141 310.8H447.141L451.341 324.2L433.241 324.6ZM432.441 313.8L435.341 321.6L447.241 321.3L444.941 313.8H432.441Z" fill="black"></path><path d="M254.94 183.2L257.54 271.3H188.84C188.84 271.3 194.64 206.6 194.64 157.2C194.64 129 213.24 120.4 228.54 120.4C243.84 120.4 285.04 178.9 285.04 178.9L251.94 183.7L234.24 163.5" fill="white"></path><path d="M259.04 272.8H187.24L187.34 271.1C187.44 270.5 193.14 205.9 193.14 157.2C193.14 128.9 211.44 118.9 228.54 118.9C244.14 118.9 282.04 172 286.24 178L287.64 180L256.34 184.5L259.04 272.8ZM190.44 269.8H255.94L253.44 185L251.34 185.3L233.14 164.5C232.64 163.9 232.64 162.9 233.24 162.4C233.84 161.9 234.84 161.9 235.34 162.5L252.54 182.1L254.34 181.8C254.54 181.7 254.74 181.7 254.84 181.7C254.94 181.7 254.94 181.7 255.04 181.7L282.34 177.8C269.94 160.5 239.94 121.9 228.44 121.9C204.54 121.9 196.04 140.2 196.04 157.2C196.14 201.7 191.34 259.4 190.44 269.8Z" fill="black"></path><path d="M251.041 185.9L253.641 275.2H184.041C184.041 275.2 189.941 209.6 189.941 159.5C189.941 131 208.841 122.1 224.341 122.1C239.841 122.1 281.641 181.4 281.641 181.4L248.041 186.3L230.141 165.8" fill="#41DC8B"></path><path d="M259.04 272.8H187.24L187.34 271.1C187.44 270.5 193.14 205.9 193.14 157.2C193.14 128.9 211.44 118.9 228.54 118.9C244.14 118.9 282.04 172 286.24 178L287.64 180L256.34 184.5L259.04 272.8ZM190.44 269.8H255.94L253.44 185L251.34 185.3L233.14 164.5C232.64 163.9 232.64 162.9 233.24 162.4C233.84 161.9 234.84 161.9 235.34 162.5L252.54 182.1L254.34 181.8C254.54 181.7 254.74 181.7 254.84 181.7C254.94 181.7 254.94 181.7 255.04 181.7L282.34 177.8C269.94 160.5 239.94 121.9 228.44 121.9C204.54 121.9 196.04 140.2 196.04 157.2C196.14 201.7 191.34 259.4 190.44 269.8Z" fill="black"></path><path d="M255.541 186.7L286.041 184.8L280.341 179.6L256.241 183.6L255.541 186.7Z" fill="black"></path><path d="M255.541 188.2C255.141 188.2 254.641 188 254.441 187.7C254.141 187.3 254.041 186.8 254.141 186.4L254.941 183.3C255.041 182.7 255.541 182.3 256.141 182.2L280.241 178.2C280.741 178.1 281.141 178.3 281.541 178.6L287.241 183.8C287.641 184.2 287.841 184.8 287.641 185.4C287.441 186 286.941 186.4 286.341 186.4L255.541 188.2C255.641 188.2 255.641 188.2 255.541 188.2ZM257.541 184.9L257.441 185.1L282.441 183.5L279.841 181.1L257.541 184.9Z" fill="black"></path><path d="M200.541 271.9L203.341 282.1H257.141L253.741 271.9H200.541Z" fill="black"></path><path d="M259.241 283.6H202.141L198.541 270.4H254.741L259.241 283.6ZM204.441 280.6H255.041L252.641 273.4H202.441L204.441 280.6Z" fill="black"></path><path d="M572.741 93.3341C573.648 91.8518 573.502 90.1099 572.414 89.4435C571.326 88.7771 569.707 89.4386 568.8 90.921C567.892 92.4034 568.038 94.1452 569.127 94.8116C570.215 95.478 571.833 94.8165 572.741 93.3341Z" fill="black"></path><path d="M558.044 103.084C559.905 107.071 569.301 105.693 569.301 105.693C569.301 105.693 558.466 111.822 556.302 107.393C556.302 107.393 556.196 99.0966 558.044 103.084Z" fill="black"></path><path d="M257.338 91.3709C257.385 89.8619 256.527 88.6107 255.422 88.5762C254.317 88.5417 253.382 89.737 253.335 91.246C253.288 92.755 254.146 94.0062 255.251 94.0407C256.357 94.0752 257.291 92.8799 257.338 91.3709Z" fill="black"></path><path d="M259.301 105.74C259.301 105.74 256.206 106.871 250.301 103C250.301 103 250.301 108.693 258.576 110L259.301 105.74Z" fill="black"></path><path d="M109.544 335C110.23 336.858 117.846 358.972 102.225 385.048C92.7368 400.887 78.3306 401.935 76.9199 402C76.0936 400.864 67.9604 389.03 74.5678 371.813C85.4468 343.466 107.65 335.624 109.544 335Z" fill="#41DC8B" stroke="black" stroke-width="3"></path><path d="M76 404L77 402.102C76.979 402.075 76.9519 402.04 76.9212 402C76.3027 403.324 76 404 76 404Z" fill="white" stroke="black" stroke-width="15" stroke-miterlimit="10" stroke-linecap="round" stroke-linejoin="round"></path><path d="M17.4562 335C16.7705 336.858 9.15381 358.972 24.775 385.048C34.2633 400.887 48.6694 401.935 50.0802 402C50.9065 400.864 59.0397 389.03 52.432 371.813C41.5533 343.466 19.3502 335.624 17.4562 335Z" fill="#41DC8B" stroke="black" stroke-width="3"></path><path d="M63.5 321C61.1646 323.26 34.1683 350.533 38.4618 400.082C41.0695 430.178 61.4746 441.907 63.5 443C65.5254 441.907 85.9305 430.178 88.5382 400.082C92.8317 350.533 65.8354 323.26 63.5 321Z" fill="#41DC8B" stroke="black" stroke-width="3"></path><path d="M63 344V421" stroke="black" stroke-width="3" stroke-linecap="round"></path><path d="M121.326 396.641C126.452 379.205 124.717 363 124.717 363C124.717 363 114.846 367.352 90.0379 383.218C70.7545 395.55 64.7882 417.172 63 423H85.6632C102.137 423 116.724 412.295 121.326 396.641Z" fill="#41DC8B" stroke="black" stroke-width="3"></path><path d="M5.6144 396.641C0.571114 379.205 2.27819 363 2.27819 363C2.27819 363 11.9905 367.352 36.3982 383.218C55.3706 395.55 61.2407 417.172 63 423H40.7023C24.494 423 10.1426 412.295 5.6144 396.641Z" fill="#41DC8B" stroke="black" stroke-width="3"></path><path d="M56 420C47.3918 416.221 26.1404 402.331 10 377" stroke="black" stroke-width="3" stroke-linecap="round"></path><path d="M79.6268 476H47.3729C38.8179 476 31.4792 469.864 29.915 461.404L23 424H104L97.085 461.404C95.5205 469.864 88.1818 476 79.6268 476Z" fill="white" stroke="black" stroke-width="3"></path><path d="M105.793 433H21.2063C17.7788 433 15 430.09 15 426.5C15 422.91 17.7788 420 21.2063 420H105.794C109.221 420 112 422.91 112 426.5C112 430.09 109.221 433 105.793 433Z" fill="white" stroke="black" stroke-width="3"></path><path d="M118 374C113.707 381.681 101.098 400.034 85 412" stroke="black" stroke-width="3" stroke-linecap="round"></path><path d="M103 348L92 375" stroke="black" stroke-width="3" stroke-linecap="round"></path><path d="M705.4 33.5L668.984 69.916V108.807" stroke="black" stroke-width="3" stroke-linecap="round" stroke-linejoin="round"></path></svg> 