<?xml version="1.0" encoding="UTF-8"?> <svg xmlns="http://www.w3.org/2000/svg" width="54" height="54" viewBox="0 0 54 54" fill="none"><g clip-path="url(#clip0)"><path d="M19.5 8.5H23.5L26 3.5L29 4L31.5 2.5L35.5 1L39.5 4.5L44 6.5L43.5 21.5L45.5 25.5L50 23.5L53 26.5L48.5 33.5L41.5 40.5L42 53H32L32.5 48.5L35 43V32V25L31 23L29.5 20.5L27 17L23 18.5L21.5 17L19 16L18 12.5L19.5 8.5Z" fill="#4ADC8F"></path><path d="M51.9362 22.6389C49.8969 21.2411 47.2155 21.6668 45.68 23.4189V7.91016C45.68 4.57218 42.2993 2.25956 39.184 3.49956C38.635 1.48553 36.7906 0 34.6048 0C32.9262 0 31.4495 0.876551 30.6053 2.19512C27.4616 0.416707 23.5296 2.69662 23.5296 6.32812V6.60023C20.4443 5.5061 17.201 7.80859 17.201 11.0742V14.9888C16.0437 15.5948 15.1663 16.6639 14.816 17.9488C11.6991 16.7081 8.32008 19.0239 8.32008 22.3594V34.704C6.78351 32.9508 4.10186 32.527 2.06378 33.924C-0.0952697 35.404 -0.650035 38.3659 0.827477 40.5267C5.6494 47.5785 5.29893 47.1101 5.54098 47.31L11.4844 52.2143V52.418C11.4844 53.2917 12.1927 54 13.0665 54C13.9403 54 14.6486 53.2917 14.6486 52.418V51.4688C14.6486 50.9966 14.4377 50.5491 14.0735 50.2486L7.72766 45.0122L3.43952 38.7409C2.94561 38.0186 3.13102 37.0286 3.85264 36.5338C4.57773 36.0369 5.56671 36.2221 6.06284 36.9479L8.59578 40.6543C8.98717 41.2272 9.70679 41.4781 10.3692 41.2732C11.0322 41.0684 11.4843 40.4555 11.4843 39.7617V22.3594C11.4843 21.487 12.1939 20.7773 13.0664 20.7773C13.8901 20.7773 14.6485 21.4194 14.6485 22.4121V31.8516C14.6485 32.7253 15.3569 33.4336 16.2307 33.4336C17.1045 33.4336 17.8128 32.7253 17.8128 31.8516C17.8128 30.2532 17.8128 20.3753 17.8128 19.1953C17.8128 18.323 18.5225 17.6133 19.3949 17.6133C20.2674 17.6133 20.9771 18.323 20.9771 19.1953V31.8516C20.9771 32.7253 21.6854 33.4336 22.5592 33.4336C23.433 33.4336 24.1413 32.7253 24.1413 31.8516C24.1413 30.8067 24.1413 21.8985 24.1413 20.7773C24.1413 19.905 24.851 19.1953 25.7235 19.1953C26.5959 19.1953 27.3056 19.905 27.3056 20.7773V31.8516C27.3056 32.7253 28.0139 33.4336 28.8878 33.4336C29.7616 33.4336 30.4699 32.7253 30.4699 31.8516C30.4699 30.8015 30.4699 27.6833 30.4699 26.5781C30.4699 25.7058 31.1796 24.9961 32.052 24.9961C32.9245 24.9961 33.6342 25.7058 33.6342 26.5781V41.6152C33.6342 44.0782 32.6749 46.3937 30.9332 48.1352C30.6364 48.4319 30.4698 48.8342 30.4698 49.2539V52.418C30.4698 53.2917 31.1781 54 32.0519 54C32.9257 54 33.6341 53.2917 33.6341 52.418V49.884C35.6796 47.6088 36.7983 44.6981 36.7983 41.6152V26.5781C36.7983 24.2935 35.1755 22.3811 33.0219 21.932C33.0219 20.3283 33.0219 5.09899 33.0219 4.74609C33.0219 3.87376 33.7316 3.16406 34.6041 3.16406C35.4765 3.16406 36.1862 3.87376 36.1862 4.74609V19.1953C36.1862 20.069 36.8945 20.7773 37.7683 20.7773C38.6421 20.7773 39.3505 20.069 39.3505 19.1953V7.96289C39.3505 6.96326 40.1164 6.32812 40.9326 6.32812C41.8049 6.32812 42.5147 7.03782 42.5147 7.91016V28.4766C42.5147 29.1703 42.9668 29.7832 43.6298 29.988C44.2927 30.1929 45.0118 29.9419 45.4032 29.3691L47.9361 25.6628C48.4322 24.937 49.4211 24.7517 50.1462 25.2487C50.868 25.7434 51.0534 26.7335 50.5595 27.4557L46.2575 33.7474L40.5216 38.7839C40.1796 39.0843 39.9834 39.5175 39.9834 39.9727V52.418C39.9834 53.2917 40.6917 54 41.5655 54C42.4393 54 43.1477 53.2917 43.1477 52.418V40.6889C48.9732 35.5737 48.5976 35.931 48.7572 35.6977L53.1717 29.2416C54.65 27.0808 54.0953 24.1189 51.9362 22.6389ZM20.3654 14.5492V11.0742C20.3654 10.2019 21.0751 9.49219 21.9475 9.49219C22.8199 9.49219 23.5296 10.2019 23.5296 11.0742V16.5708C23.4842 16.5947 23.4392 16.6191 23.3946 16.6443C22.7177 15.5869 21.6341 14.8138 20.3654 14.5492ZM26.6939 16.1312C26.6939 12.852 26.6939 9.58911 26.6939 6.32812C26.6939 5.45579 27.4036 4.74609 28.276 4.74609C29.1485 4.74609 29.8582 5.45579 29.8582 6.32812V18.4504C29.1959 17.2784 28.0508 16.4141 26.6939 16.1312Z" fill="black"></path><path d="M7.52812 9.76697C8.14585 10.3848 9.1478 10.3849 9.76564 9.76697C10.3836 9.14913 10.3836 8.14749 9.76564 7.52966L7.55058 5.31482C6.93275 4.69698 5.9309 4.69698 5.31307 5.31482C4.69512 5.93265 4.69512 6.93429 5.31307 7.55212L7.52812 9.76697Z" fill="black"></path><path d="M13.7393 5.23372C13.9655 6.07768 14.833 6.57856 15.6772 6.35232C16.5212 6.1262 17.022 5.25872 16.7959 4.41476L15.9859 1.39202C15.7597 0.547957 14.8925 0.0472972 14.048 0.273422C13.2039 0.499547 12.7032 1.36703 12.9293 2.21099L13.7393 5.23372Z" fill="black"></path><path d="M1.3898 15.9859L4.41285 16.7959C5.25723 17.0221 6.1246 16.5209 6.35073 15.6773C6.57685 14.8333 6.07598 13.9658 5.23202 13.7397L2.20897 12.9297C1.36533 12.7035 0.497319 13.2043 0.271088 14.0483C0.0449634 14.8923 0.545835 15.7597 1.3898 15.9859Z" fill="black"></path></g><defs><clipPath id="clip0"><rect width="54" height="54" fill="white"></rect></clipPath></defs></svg> 