<?xml version="1.0" encoding="UTF-8"?> <svg xmlns="http://www.w3.org/2000/svg" width="54" height="54" viewBox="0 0 54 54" fill="none"><g clip-path="url(#clip0)"><path d="M1.5 25L26.5 3.5L36 10V6H47.5V21L52 26.5L45.5 28V50L44.5 51.5H32.5V36.5H21V50L12.5 51.5L7.5 50V28H3.5L1.5 25Z" fill="#4ADC8F"></path><path d="M53.0931 24.1402L48.5312 19.9835V6.20055C48.5312 5.32358 47.8203 4.61251 46.9432 4.61251H35.9623C35.0853 4.61251 34.3743 5.32347 34.3743 6.20055V7.08375L28.865 2.06375C27.8015 1.0946 26.1979 1.09471 25.1349 2.06365L0.906804 24.1403C0.0550386 24.9165 -0.226457 26.1125 0.189722 27.1871C0.606007 28.2618 1.61956 28.9561 2.77202 28.9561H6.64156V51.0751C6.64156 51.952 7.35253 52.6631 8.2296 52.6631H21.5095C22.3865 52.6631 23.0975 51.9521 23.0975 51.0751V37.6451H30.9023V51.0752C30.9023 51.9522 31.6133 52.6632 32.4904 52.6632H45.7697C46.6467 52.6632 47.3578 51.9523 47.3577 51.0752V28.9562H51.2281C52.3804 28.9562 53.3941 28.2618 53.8104 27.1872C54.2264 26.1125 53.945 24.9165 53.0931 24.1402ZM45.7697 25.7801C44.8928 25.7801 44.1817 26.491 44.1817 27.3681V49.4871H34.0785V36.0571C34.0785 35.1801 33.3675 34.469 32.4905 34.469H21.5095C20.6325 34.469 19.9214 35.18 19.9214 36.0571V49.4871H9.81754V27.3681C9.81754 26.4912 9.10658 25.7801 8.2295 25.7801H3.8227L27.0001 4.66103L34.8929 11.853C35.3579 12.2766 36.029 12.3858 36.6041 12.1319C37.1793 11.8777 37.5504 11.308 37.5504 10.6792V7.78859H45.3553V20.6849C45.3553 21.1318 45.5435 21.5577 45.8738 21.8588L50.1773 25.7801H45.7697Z" fill="black"></path></g><defs><clipPath id="clip0"><rect width="54" height="54" fill="white"></rect></clipPath></defs></svg> 