<?xml version="1.0" encoding="UTF-8"?> <svg xmlns="http://www.w3.org/2000/svg" width="54" height="54" viewBox="0 0 54 54" fill="none"><g clip-path="url(#clip0)"><path d="M2 31.5L6.5 27.5L21.5 35H30.5L39.5 31.5L46.5 26.5L51.5 31.5L46.5 36L36.5 40L37.5 52.5H16.5V40L2 31.5Z" fill="#4ADC8F"></path><path d="M26.8946 10.6564C29.8037 10.6564 32.1702 8.28949 32.1702 5.38085C32.1702 2.47181 29.8037 0.105347 26.8946 0.105347C23.986 0.105347 21.6191 2.47181 21.6191 5.38085C21.6191 8.28949 23.986 10.6564 26.8946 10.6564ZM26.8946 3.26859C28.0593 3.26859 29.0069 4.21616 29.0069 5.38085C29.0069 6.54513 28.0593 7.49271 26.8946 7.49271C25.7304 7.49271 24.7828 6.54513 24.7828 5.38085C24.7828 4.21616 25.7304 3.26859 26.8946 3.26859Z" fill="black"></path><path d="M10.6173 17.3953C11.9682 17.3953 13.3195 16.8811 14.3479 15.8528C15.344 14.8566 15.8928 13.5317 15.8928 12.1227C15.8928 10.7133 15.344 9.38831 14.3479 8.39212C13.3513 7.39594 12.0267 6.84717 10.6173 6.84717C9.20831 6.84717 7.88335 7.39594 6.88716 8.39212C5.89057 9.38831 5.3418 10.7133 5.3418 12.1227C5.3418 13.5317 5.89057 14.8566 6.88716 15.8528C7.91549 16.8811 9.2664 17.3953 10.6173 17.3953ZM9.12426 10.6292C9.52306 10.23 10.0533 10.0104 10.6173 10.0104C11.1817 10.0104 11.712 10.23 12.1108 10.6292C12.51 11.028 12.7296 11.5587 12.7296 12.1227C12.7296 12.6867 12.51 13.2169 12.1108 13.6157C11.2872 14.4393 9.94741 14.4393 9.12426 13.6157C8.72504 13.2169 8.50545 12.6867 8.50545 12.1227C8.50545 11.5587 8.72504 11.028 9.12426 10.6292Z" fill="black"></path><path d="M43.17 17.3953C44.521 17.3953 45.8719 16.8811 46.9002 15.8528C48.9573 13.7958 48.9573 10.4492 46.9002 8.39212C45.904 7.39594 44.579 6.84717 43.17 6.84717C41.7606 6.84717 40.4361 7.39594 39.4395 8.39212C38.4433 9.38831 37.8945 10.7133 37.8945 12.1227C37.8945 13.5317 38.4433 14.8566 39.4395 15.8528C40.4682 16.8815 41.8187 17.3953 43.17 17.3953ZM41.6766 10.6292C42.0754 10.23 42.606 10.0104 43.17 10.0104C43.7341 10.0104 44.2643 10.23 44.6635 10.6292C45.4867 11.4528 45.4867 12.7926 44.6635 13.6157C43.8395 14.4393 42.4997 14.4393 41.6766 13.6157C41.2778 13.2169 41.0578 12.6867 41.0578 12.1227C41.0578 11.5587 41.2778 11.028 41.6766 10.6292Z" fill="black"></path><path d="M48.0774 25.5736L47.0132 24.5597L45.9227 25.5456C45.8605 25.6021 41.2668 29.6964 34.7607 31.903C35.5414 30.5616 35.9909 29.0043 35.9909 27.3431C35.9909 22.3268 31.9097 18.2456 26.8933 18.2456C21.8774 18.2456 17.7962 22.3268 17.7962 27.3431C17.7962 29.0038 18.2457 30.5607 19.026 31.9022C12.5174 29.6935 7.91965 25.5946 7.85826 25.539L6.76608 24.5474L-0.105469 31.1297L0.985064 32.2717C1.21619 32.514 6.54031 38.0144 15.3309 41.003V54.0959H38.4562V41.003C47.2447 38.0152 52.5705 32.5144 52.8016 32.2721L53.8946 31.128L48.0774 25.5736ZM26.8933 21.4093C30.1654 21.4093 32.8272 24.0711 32.8272 27.3431C32.8272 30.6151 30.1654 33.277 26.8933 33.277C23.6213 33.277 20.9595 30.6151 20.9595 27.3431C20.9599 24.0711 23.6218 21.4093 26.8933 21.4093ZM36.4136 38.3378L35.2925 38.679V50.9323H18.4946V38.679L17.3735 38.3378C10.9531 36.3825 6.43072 32.9255 4.4264 31.1692L6.87155 28.8267C7.92171 29.6507 9.65494 30.906 11.8986 32.1638C18.2037 35.6982 23.5332 36.4402 26.8933 36.4402C32.9817 36.4402 38.4059 34.117 41.8844 32.1679C44.128 30.9109 45.8605 29.656 46.9098 28.8329L49.3587 31.1709C47.3527 32.9284 42.8299 36.3838 36.4136 38.3378Z" fill="black"></path></g><defs><clipPath id="clip0"><rect width="54" height="54" fill="white"></rect></clipPath></defs></svg> 