<?xml version="1.0" encoding="UTF-8"?> <svg xmlns="http://www.w3.org/2000/svg" width="127" height="161" viewBox="0 0 127 161" fill="none"><path d="M52.3001 71.7001C53.2001 70.8001 54.3001 70.0001 55.5001 69.4001C56.7001 68.8001 58.0001 68.4001 59.4001 68.2001C60.8001 68.0001 62.2001 68.2001 63.6001 68.6001C65.0001 69.0001 66.1001 69.9001 67.2001 70.8001C67.6001 71.2001 67.6001 71.8001 67.3001 72.2001C67.0001 72.5001 66.6001 72.6001 66.2001 72.4001L66.0001 72.3001C65.5001 72.1001 65.0001 71.7001 64.5001 71.5001L63.8001 71.2001L63.0001 71.0001C62.0001 70.7001 60.9001 70.5001 59.7001 70.6001C58.6001 70.6001 57.4001 70.8001 56.3001 71.1001C55.2001 71.4001 54.0001 71.8001 52.8001 72.2001C52.6001 72.3001 52.4001 72.2001 52.4001 72.0001C52.2001 72.0001 52.2001 71.8001 52.3001 71.7001Z" fill="black"></path><path d="M60.4001 74.0001C61.7001 74.0001 62.7001 73.0001 62.7001 71.7001C62.7001 70.4001 61.7001 69.4001 60.4001 69.4001C59.1001 69.4001 58.1001 70.4001 58.1001 71.7001C58.2001 73.0001 59.2001 74.0001 60.4001 74.0001Z" fill="black"></path><path d="M86 69.1001C86.7 67.9001 87.7 67.1001 88.9 66.5001C90.1 66.0001 91.3 65.6001 92.6 65.5001C93.9 65.4001 95.2 65.5001 96.4 65.8001C97 65.9001 97.6 66.2001 98.2 66.3001C98.8 66.5001 99.3 66.8001 99.9 67.1001L99.5 68.1001C98.9 68.0001 98.4 67.9001 97.8 67.8001C97.2 67.8001 96.7 67.6001 96.1 67.6001C95 67.5001 93.9 67.6001 92.9 67.7001C91.8 67.9001 90.8 68.2001 89.8 68.6001C88.8 69.0001 87.8 69.4001 86.7 69.8001L86 69.1001Z" fill="black"></path><path d="M92.1 71.1001C93.4 71.1001 94.4 70.1001 94.4 68.8001C94.4 67.5001 93.4 66.5001 92.1 66.5001C90.8 66.5001 89.8 67.5001 89.8 68.8001C89.9 70.1001 90.9 71.1001 92.1 71.1001Z" fill="black"></path><path d="M104.7 31.7001L107.8 45.5001L108.9 55.1001C109.3 58.3001 109.4 61.5001 109.5 64.7001C109.7 71.1001 109.6 77.6001 109.7 84.0001C109.7 87.2001 109.8 90.4001 109.6 93.7001C109.4 96.9001 109 100.2 107.9 103.4C106.8 106.6 105 109.4 103 112C101 114.6 99.0001 117 97.0001 119.5C96.0001 120.8 95.0001 122 93.9001 123.2C92.8001 124.4 91.6001 125.7 90.3001 126.7C88.9001 127.8 87.3001 128.7 85.7001 129.3C84.0001 129.9 82.3001 130.3 80.6001 130.5C78.9001 130.7 77.3001 130.8 75.5001 130.8C73.8001 130.8 72.0001 130.6 70.2001 130.1C68.4001 129.6 66.8001 128.7 65.4001 127.8C63.9001 126.8 62.7001 125.8 61.4001 124.7C58.9001 122.5 56.7001 120.3 54.3001 118.2L52.5001 116.6L51.6001 115.8L50.6001 114.9C49.4001 113.6 48.4001 112.2 47.5001 110.7C44.1001 104.8 42.7001 98.3001 41.5001 91.9001L42.6001 92.9001C41.8001 92.8001 41.2001 92.6001 40.6001 92.4001C40.0001 92.2001 39.4001 91.9001 38.8001 91.6001C37.6001 91.0001 36.5001 90.2001 35.6001 89.3001C33.7001 87.5001 32.5001 85.0001 31.8001 82.6001C31.1001 80.2001 30.6001 77.8001 30.3001 75.4001C30.0001 73.0001 29.8001 70.5001 30.4001 67.9001C30.5001 67.3001 30.8001 66.6001 31.1001 66.0001C31.4001 65.4001 31.9001 64.8001 32.5001 64.4001C33.8001 63.5001 35.4001 63.8001 36.6001 64.1001C37.2001 64.3001 37.8001 64.4001 38.4001 64.6001C38.7001 64.7001 39.0001 64.8001 39.3001 65.0001L39.5001 65.1001C39.5001 65.1001 39.3001 65.1001 39.4001 65.2001C39.4001 65.2001 39.5001 64.9001 39.6001 64.7001C39.6001 64.4001 39.7001 64.2001 39.7001 63.9001C39.7001 63.3001 39.7001 62.7001 39.7001 62.1001C39.5001 59.7001 39.2001 57.4001 38.8001 55.0001C38.4001 52.6001 38.0001 50.3001 37.6001 47.9001C38.9001 52.5001 40.0001 57.2001 40.7001 62.0001C40.8001 62.6001 40.8001 63.2001 40.8001 63.8001C40.8001 64.1001 40.8001 64.4001 40.8001 64.8001C40.7001 65.1001 40.7001 65.5001 40.4001 65.9001C40.2001 66.1001 39.8001 66.3001 39.5001 66.2001C39.3001 66.2001 39.2001 66.1001 39.1001 66.1001L38.9001 66.0001C38.7001 65.9001 38.4001 65.8001 38.1001 65.7001C37.6001 65.5001 37.0001 65.4001 36.4001 65.3001C35.2001 65.0001 34.2001 65.0001 33.5001 65.5001C32.8001 66.0001 32.4001 67.0001 32.2001 68.1001C31.8001 70.3001 32.0001 72.7001 32.4001 75.0001C32.8001 77.3001 33.4001 79.6001 34.1001 81.9001C34.7001 84.1001 35.8001 86.1001 37.4001 87.5001C38.2001 88.2001 39.1001 88.8001 40.1001 89.3001C40.6001 89.5001 41.1001 89.7001 41.6001 89.9001C42.1001 90.1001 42.7001 90.2001 43.1001 90.2001L44.0001 90.3001L44.2001 91.2001C44.8001 94.3001 45.5001 97.4001 46.6001 100.4C47.1001 101.9 47.7001 103.3 48.3001 104.7C48.9001 106.1 49.6001 107.5 50.5001 108.7C51.3001 110 52.3001 111.1 53.3001 112.1L54.1001 112.8L55.0001 113.6L56.9001 115.1C59.4001 117.2 61.8001 119.3 64.2001 121.4C66.6001 123.4 68.9001 125.3 71.6001 126.1C74.2001 127 77.3001 126.9 80.3001 126.6C83.4001 126.4 86.1001 125.6 88.4001 123.9C89.6001 123.1 90.7001 122 91.8001 120.9C92.9001 119.8 94.0001 118.6 95.1001 117.4C97.2001 115 99.5001 112.7 101.5 110.3C103.6 107.9 105.4 105.4 106.5 102.5C107.6 99.6001 108.2 96.5001 108.5 93.3001C108.8 90.1001 108.9 86.9001 108.8 83.7001C108.7 77.3001 108.1 70.9001 107.7 64.5001C107.5 61.3001 107.3 58.1001 107.3 54.9001C107.3 51.7001 107.3 48.5001 107.1 45.3001L104.7 31.7001Z" fill="black"></path><path d="M41.9001 38.0001C41.9001 38.0001 40.0001 42.4001 41.9001 47.4001C43.8001 52.4001 45.7 54.8001 42.6 59.4001C39.5 64.1001 38.9001 65.7001 38.9001 65.7001L35.8 64.8001C35.8 64.8001 27.8001 45.9001 28.7001 38.0001C29.6001 30.1001 26.3 28.4001 26.3 26.6001C26.3 24.8001 27.9001 16.4001 37.4001 13.8001C40.1001 13.1001 39.0001 6.60012 45.2001 4.40012C51.3001 2.10012 51.5001 4.70012 57.4001 2.90012C63.2001 1.10012 69 -0.999882 72.2 2.30012C75.5 5.70012 78.7 2.60012 78.7 2.60012C78.7 2.60012 83.4001 0.000118256 85.4001 2.80012C86.5001 4.30012 91.1 0.000118136 94 0.500118C96.9 1.00012 112 6.50012 108.4 16.9001C108.4 16.9001 114.5 18.5001 111.7 24.1001C108.9 29.7001 109.6 29.8001 109.6 38.5001C109.6 47.2001 109.3 56.5001 109.3 56.5001L106.9 62.3001L101.1 35.5001C101.1 35.5001 101.2 30.6001 96.6001 30.0001C92.0001 29.4001 92.2001 25.4001 86.8001 26.5001C81.4001 27.6001 80.6 29.7001 74 30.1001C67.4 30.5001 64.3 27.6001 59.6 29.7001C54.9 31.6001 45.7001 31.3001 41.9001 38.0001Z" fill="black"></path><path d="M39.1001 66.3001L35.3001 65.2001V65.0001C35.0001 64.2001 27.2001 45.9001 28.1001 37.9001C28.7001 32.5001 27.3001 30.1001 26.5001 28.5001C26.1001 27.7001 25.7001 27.1001 25.7001 26.5001C25.7001 23.9001 27.8001 15.8001 37.2001 13.2001C38.0001 13.0001 38.5001 11.9001 39.0001 10.5001C39.9001 8.3001 41.0001 5.2001 44.9001 3.8001C48.2001 2.6001 49.9001 2.7001 51.5001 2.9001C52.9001 3.0001 54.4001 3.2001 57.1001 2.3001L58.4001 2.0001C64.0001 0.3001 69.3001 -1.3999 72.6001 2.0001C75.5001 5.0001 78.3001 2.4001 78.4001 2.2001L78.5001 2.1001C78.7001 2.0001 83.6001 -0.6999 85.8001 2.5001C86.1001 2.9001 87.6001 2.2001 88.8001 1.6001C90.5001 0.7001 92.5001 -0.1999 94.1001 0.1001C96.6001 0.6001 105 3.7001 108.2 9.2001C109.6 11.6001 109.9 14.1001 109.1 16.7001C110 17.0001 111.8 17.9001 112.6 19.7001C113.2 21.1001 113.1 22.7001 112.2 24.4001C110 28.8001 110 29.6001 110.1 34.3001C110.1 35.5001 110.2 36.9001 110.2 38.6001C110.2 47.2001 109.9 56.6001 109.9 56.7001V56.9001L106.9 64.1001L100.8 35.6001V35.5001C100.8 35.3001 100.8 31.0001 96.7001 30.5001C94.6001 30.2001 93.4001 29.3001 92.3001 28.4001C91.0001 27.3001 89.9001 26.4001 87.1001 27.0001C84.9001 27.4001 83.5001 28.1001 82.1001 28.7001C80.1001 29.6001 78.1001 30.4001 74.2001 30.6001C71.3001 30.8001 69.1001 30.3001 67.2001 29.9001C64.6001 29.4001 62.5001 29.0001 60.0001 30.1001C58.6001 30.7001 56.8001 31.1001 54.8001 31.6001C50.2001 32.6001 45.0001 33.8001 42.4001 38.3001C42.3001 38.6001 40.6001 42.7001 42.4001 47.3001C42.7001 48.0001 43.0001 48.7001 43.2001 49.3001C44.8001 53.1001 45.8001 55.5001 43.0001 59.8001C40.0001 64.4001 39.3001 66.0001 39.3001 66.0001L39.1001 66.3001ZM36.1001 64.4001L38.6001 65.1001C39.0001 64.4001 39.9001 62.6001 42.2001 59.1001C44.7001 55.3001 43.8001 53.3001 42.3001 49.6001C42.0001 49.0001 41.8001 48.3001 41.5001 47.6001C39.5001 42.5001 41.4001 38.0001 41.5001 37.8001C44.3001 32.9001 50.0001 31.6001 54.5001 30.5001C56.4001 30.1001 58.1001 29.7001 59.5001 29.1001C62.4001 27.8001 64.7001 28.3001 67.3001 28.8001C69.2001 29.2001 71.4001 29.6001 74.1001 29.5001C77.9001 29.3001 79.7001 28.5001 81.6001 27.7001C83.0001 27.1001 84.5001 26.4001 86.8001 26.0001C90.1001 25.3001 91.5001 26.5001 92.9001 27.6001C93.9001 28.4001 94.9001 29.2001 96.8001 29.5001C101.5 30.1001 101.8 34.9001 101.8 35.5001L107.2 60.7001L108.9 56.5001C108.9 55.5001 109.2 46.7001 109.2 38.6001C109.2 36.9001 109.2 35.5001 109.1 34.3001C109 29.6001 109 28.5001 111.3 24.0001C112 22.5001 112.2 21.2001 111.7 20.1001C110.8 18.2001 108.3 17.5001 108.3 17.5001L107.8 17.4001L108 16.9001C108.9 14.4001 108.6 12.0001 107.3 9.8001C104 4.0001 95.4001 1.3001 93.9001 1.0001C92.6001 0.8001 90.8001 1.7001 89.3001 2.4001C87.4001 3.3001 85.8001 4.1001 85.0001 3.0001C83.4001 0.7001 79.5001 2.7001 79.0001 2.9001C78.5001 3.3001 75.1001 6.0001 71.8001 2.6001C69.1001 -0.1999 64.1001 1.3001 58.7001 3.0001L57.4001 3.4001C54.5001 4.3001 52.9001 4.1001 51.4001 4.0001C49.8001 3.9001 48.3001 3.7001 45.2001 4.9001C41.8001 6.2001 40.7001 8.9001 39.9001 11.0001C39.3001 12.6001 38.8001 14.0001 37.4001 14.3001C27.1001 17.1001 26.6001 26.5001 26.6001 26.6001C26.6001 27.0001 26.9001 27.5001 27.2001 28.1001C28.2001 29.8001 29.6001 32.4001 29.0001 38.1001C28.3001 45.3001 35.2001 62.3001 36.1001 64.4001Z" fill="black"></path><path d="M108.9 85.7001C109.4 85.4001 109.9 84.8001 110.3 84.2001C110.7 83.6001 111.1 82.9001 111.4 82.3001C112 80.9001 112.4 79.5001 112.7 78.0001C113.2 75.0001 113.4 71.9001 113.4 68.8001C113.4 67.3001 113.4 65.7001 113.3 64.2001C113.3 63.4001 113.2 62.7001 113.2 61.9001C113.1 61.1001 113.1 60.3001 113 59.7001C113 59.4001 112.9 59.1001 112.8 58.9001V58.8001C112.9 58.9001 113.1 59.0001 113.2 58.9001C113.4 58.8001 113.1 58.9001 112.9 59.1001C112.7 59.3001 112.4 59.6001 112.2 59.8001C111.3 60.9001 110.5 62.3001 109.6 63.5001C109.4 63.8001 109 63.9001 108.7 63.7001C108.4 63.5001 108.4 63.2001 108.4 63.0001C108.9 61.4001 109.5 60.0001 110.4 58.5001C110.6 58.1001 110.9 57.8001 111.2 57.4001C111.4 57.2001 111.5 57.0001 111.8 56.9001C112 56.7001 112.4 56.5001 112.9 56.4001C113.4 56.3001 114.1 56.5001 114.4 56.9001C114.6 57.1001 114.7 57.2001 114.8 57.4001C114.9 57.5001 115 57.7001 115 57.8001C115.2 58.3001 115.3 58.8001 115.4 59.2001C115.6 60.1001 115.6 60.9001 115.6 61.7001C115.6 62.5001 115.7 63.3001 115.7 64.1001C115.7 65.7001 115.7 67.3001 115.7 68.9001C115.6 72.1001 115.2 75.2001 114.4 78.4001C114 80.0001 113.4 81.5001 112.6 82.9001C112.2 83.6001 111.7 84.3001 111.2 84.9001C110.6 85.5001 110.1 86.1001 109.2 86.5001C109 86.6001 108.7 86.5001 108.6 86.3001C108.5 86.1001 108.6 85.9001 108.9 85.7001Z" fill="black"></path><path d="M80.8001 68.9001C80.7001 70.2001 80.8001 71.5001 81.0001 72.8001C81.2001 74.1001 81.6001 75.4001 82.2001 76.6001C82.7001 77.8001 83.4001 78.9001 84.2001 80.0001C85.1001 81.2001 85.8001 82.6001 85.8001 84.3001C85.9001 85.9001 85.1001 87.7001 83.8001 88.7001C82.5001 89.8001 80.9001 90.4001 79.2001 90.2001C78.8001 90.2001 78.3001 90.0001 77.9001 89.9001C77.6001 89.8001 77.3001 89.7001 77.0001 89.6001C76.4001 89.4001 75.8001 89.3001 75.3001 89.2001C74.1001 89.1001 73.0001 89.4001 71.8001 89.9001C71.5001 90.0001 71.2001 89.9001 71.1001 89.7001C71.0001 89.4001 71.0001 89.2001 71.2001 89.0001C72.2001 87.9001 73.8001 87.2001 75.4001 87.2001C76.2001 87.2001 77.0001 87.3001 77.7001 87.5001C78.1001 87.6001 78.4001 87.7001 78.8001 87.9001C79.0001 88.0001 79.3001 88.0001 79.5001 88.1001C80.5001 88.2001 81.7001 87.8001 82.5001 87.2001C83.4001 86.5001 83.9001 85.5001 83.9001 84.4001C83.9001 83.3001 83.5001 82.1001 82.8001 81.1001C82.0001 79.9001 81.3001 78.6001 80.8001 77.3001C79.8001 74.6001 79.4001 71.7001 79.9001 68.9001C79.9001 68.6001 80.2001 68.4001 80.5001 68.5001C80.6001 68.4001 80.8001 68.6001 80.8001 68.9001Z" fill="black"></path><path d="M62.9 100.6L69.7 101.8C72 102.2 74.3 102.4 76.6 102.4C78.9 102.4 81.2 102.2 83.4 101.8C85.6 101.3 87.8 100.6 89.8 99.6C90.1 99.4 90.6 99.6 90.7 99.9C90.9 100.2 90.7 100.6 90.4 100.8C88.3 102 86 103 83.6 103.5C81.2 104 78.8 104.3 76.4 104.3C74 104.3 71.6 104 69.2 103.6C66.8 103.2 64.5 102.6 62.3 101.5C62 101.4 61.9 101.1 62.1 100.8C62.4 100.7 62.6 100.5 62.9 100.6Z" fill="black"></path><path d="M63.7001 99.2001C63.8001 99.7001 63.8001 100.1 63.7001 100.6C63.6001 101.1 63.5001 101.5 63.2001 101.9C63.0001 102.3 62.7001 102.7 62.3001 103C61.9001 103.3 61.5001 103.5 61.0001 103.6C60.8001 103.6 60.6001 103.5 60.6001 103.4C60.6001 103.3 60.6001 103.2 60.7001 103.1C61.0001 102.8 61.2001 102.6 61.5001 102.3C61.7001 102 61.9001 101.7 62.0001 101.4C62.1001 101.1 62.3001 100.7 62.4001 100.4C62.5001 100 62.6001 99.7001 62.8001 99.3001V99.2001C62.9001 99.0001 63.2001 98.8001 63.4001 98.9001C63.5001 98.9001 63.6001 99.1001 63.7001 99.2001Z" fill="black"></path><path d="M2.40006 154.2C2.30006 154.2 2.30006 154.2 2.20006 154.2C1.40006 154.1 0.800064 153.4 0.900064 152.6C1.00006 151.6 2.70006 147.4 19.8001 136.8L20.0001 136.7C29.5001 132.2 36.4001 125.4 40.5001 116.6C43.5001 110 43.8001 104.7 43.8001 104.6C43.8001 103.8 44.5001 103.1 45.4001 103.2C46.2001 103.2 46.9001 103.9 46.8001 104.7C46.8001 104.9 45.8001 127.8 21.4001 139.3C5.80006 149 4.00006 152.7 3.90006 153C3.70006 153.7 3.10006 154.2 2.40006 154.2Z" fill="black"></path><path d="M78.9 160.1C75.9 160.1 72.7 159.8 69.5 159.1C61.2 157.3 53.3 153.2 46.6 147.3C33.2 135.5 26 136.7 25.9 136.8C25.1 137 24.3 136.4 24.1 135.6C23.9 134.8 24.4 134 25.2 133.8C25.5 133.7 33.8 132.1 48.5 145C61.5 156.4 77.9 159.1 87.4 155.8C90.3 154.8 92.1 152.8 92.9 149.6C94.4 143.5 91.6 135.5 90.6 134.2C90 133.8 89.8 133.1 90 132.4C90.3 131.6 91.1 131.3 91.9 131.5H92C93.2 132 121.3 144.2 125.9 146.4C126.6 146.8 127 147.6 126.6 148.4C126.2 149.1 125.3 149.5 124.6 149.1C121.1 147.4 102.8 139.4 94.7 135.9C95.7 138.8 96.4 142.6 96.4 145.7C96.4 152.3 93.6 156.7 88.5 158.5C85.7 159.6 82.4 160.1 78.9 160.1Z" fill="black"></path><path d="M60 86.9001C47.5 86.9001 45.4 73.7001 45 70.4001L35.5 65.3001C34.9 65.0001 34.7 64.2001 35 63.6001C35.3 63.0001 36.1 62.8001 36.7 63.1001L47.4 68.9001V69.6001C47.4 70.2001 48.2 84.4001 59.9 84.4001H60C63.7 84.4001 66.5 83.2001 68.5 80.8001C71.5 77.2001 71.5 71.8001 71.4 70.0001C69.8 68.7001 62.8 63.8001 52.6 67.5001C52.1 67.7001 51.2 68.1001 50.5 68.4001L49.4 66.1001C50.2 65.8001 51.1 65.3001 51.7 65.1001C64.5 60.4001 73 68.0001 73.4 68.4001L73.7 68.7001L73.8 69.1001C74.1 70.7001 74.4 77.6001 70.5 82.3001C68.1 85.2001 64.6 86.7001 60.1 86.8001C60.1 86.9001 60 86.9001 60 86.9001Z" fill="black"></path><path d="M93.7001 82.7001C91.6001 82.7001 89.5001 82.2001 87.8001 81.2001C84.5001 79.4001 82.3001 76.1001 81.6001 71.9001C81.1001 69.3001 81.8001 67.1001 83.4001 65.2001C86.5001 61.6001 93.2001 60.3001 98.3001 60.5001C104.9 60.8001 107.8 62.1001 107.9 62.2001L108.6 62.5001V66.4001C108.6 67.0001 108.6 77.8001 99.8001 81.4001C97.8001 82.3001 95.7001 82.7001 93.7001 82.7001ZM97.2001 63.0001C92.9001 63.0001 87.7001 64.2001 85.3001 66.9001C84.2001 68.2001 83.8001 69.7001 84.1001 71.5001C84.7001 74.9001 86.5001 77.6001 89.1001 79.0001C91.9001 80.5001 95.4001 80.6001 99.0001 79.1001C106.3 76.1001 106.3 66.5001 106.3 66.4001V64.2001C105.1 63.8001 102.6 63.2001 98.3001 63.0001C97.9001 63.0001 97.5001 63.0001 97.2001 63.0001Z" fill="black"></path><path d="M75.6 69.0001C75.2 69.0001 74.8 68.7001 74.6 68.3001C74.4 67.8001 74.7 67.2001 75.3 67.0001C79.9 65.5001 83.3 67.0001 83.5 67.0001C84 67.2001 84.2 67.8001 84 68.3001C83.8 68.8001 83.2 69.0001 82.7 68.8001C82.6 68.8001 79.8 67.6001 75.9 68.8001C75.8 69.0001 75.7 69.0001 75.6 69.0001Z" fill="black"></path></svg> 