<?xml version="1.0" encoding="UTF-8"?> <svg xmlns="http://www.w3.org/2000/svg" width="43" height="54" viewBox="0 0 43 54" fill="none"><path d="M28.6444 8.72656C20.9006 8.72656 14.6221 15.043 14.6221 22.8336C14.6221 30.6242 20.9006 36.9407 28.6444 36.9407C36.3882 36.9407 42.6666 30.6242 42.6666 22.8336C42.6646 15.043 36.3882 8.72656 28.6444 8.72656ZM28.6444 29.9193C24.7555 29.9193 21.6013 26.746 21.6013 22.8336C21.6013 18.9212 24.7555 15.748 28.6444 15.748C32.5332 15.748 35.6874 18.9192 35.6874 22.8336C35.6874 26.748 32.5332 29.9193 28.6444 29.9193Z" fill="black"></path><path d="M10.9499 29.8389C10.6984 29.9032 10.4349 29.9413 10.1634 29.9413C8.3926 29.9413 6.95724 28.4973 6.95724 26.7158V18.5416H10.1134C10.7004 15.9729 11.8043 13.6009 13.3076 11.5423H6.95724V0L0 8.18828V26.7138C0 32.3615 4.55165 36.9406 10.1653 36.9406C11.8063 36.9406 13.3555 36.547 14.727 35.8521C13.1219 34.1148 11.8303 32.0803 10.9499 29.8389Z" fill="black"></path><path d="M16.1265 46.2918L14.7251 54L38.7091 46.8642L40.1065 39.1639L16.1265 46.2918Z" fill="black"></path></svg> 