<?xml version="1.0" encoding="UTF-8"?> <svg xmlns="http://www.w3.org/2000/svg" width="54" height="54" viewBox="0 0 54 54" fill="none"><g clip-path="url(#clip0)"><path d="M23.5 9.5V4L28.5 1.5L31.5 5.5L28.5 9L32 10.5L35 17.5L22 19.5L19 16.5L23.5 9.5Z" fill="#4ADC8F"></path><path d="M5.5 43V37.5L10.5 35L13.5 39L10.5 42.5L14 44L17 51L4 53L1 50L5.5 43Z" fill="#4ADC8F"></path><path d="M41.5 43V37.5L46.5 35L49.5 39L46.5 42.5L50 44L53 51L40 53L37 50L41.5 43Z" fill="#4ADC8F"></path><path d="M5.90288 31.746H5.90636C6.77848 31.746 7.48639 31.04 7.48839 30.1674C7.49957 24.9723 9.52921 20.0878 13.2034 16.4136C13.8213 15.7959 13.8213 14.7941 13.2034 14.1763C12.5857 13.5586 11.584 13.5586 10.9661 14.1763C6.696 18.4462 4.3372 24.123 4.32422 30.1606C4.32232 31.0343 5.02918 31.7441 5.90288 31.746Z" fill="black"></path><path d="M46.5123 30.1674C46.5142 31.0399 47.222 31.746 48.0943 31.746H48.0978C48.9715 31.7441 49.6783 31.0343 49.6765 30.1606C49.6635 24.123 47.3047 18.4463 43.0347 14.1763C42.4169 13.5586 41.4152 13.5586 40.7974 14.1763C40.1795 14.794 40.1795 15.7958 40.7974 16.4136C44.4715 20.0878 46.5011 24.9723 46.5123 30.1674Z" fill="black"></path><path d="M30.904 49.3299C28.3136 49.8562 25.6869 49.8562 23.0966 49.3299C22.2402 49.1553 21.4051 49.7089 21.2312 50.5651C21.0573 51.4214 21.6102 52.2565 22.4665 52.4306C23.9707 52.7362 25.4856 52.8891 27.0003 52.8891C28.5151 52.8891 30.0299 52.7363 31.5341 52.4306C32.3904 52.2566 32.9434 51.4215 32.7695 50.5651C32.5955 49.7089 31.76 49.1557 30.904 49.3299Z" fill="black"></path><path d="M36.1174 16.7645L35.1377 12.8349C34.6945 11.0573 33.4646 9.64796 31.8736 8.9389C32.4585 8.03355 32.7997 6.95661 32.7997 5.80078C32.7997 2.60223 30.1975 0 26.9989 0C23.8004 0 21.1981 2.60223 21.1981 5.80078C21.1981 6.95661 21.5392 8.03355 22.1241 8.939C20.5331 9.64796 19.3033 11.0573 18.8601 12.8349L17.8803 16.7645C17.6825 17.5575 17.8577 18.3816 18.3609 19.0256C18.8641 19.6696 19.6214 20.039 20.4386 20.039H33.5591C34.3763 20.039 35.1336 19.6696 35.6368 19.0256C36.14 18.3816 36.3152 17.5575 36.1174 16.7645ZM26.9989 3.16406C28.4528 3.16406 29.6356 4.34689 29.6356 5.80078C29.6356 7.25467 28.4528 8.4375 26.9989 8.4375C25.545 8.4375 24.3622 7.25467 24.3622 5.80078C24.3622 4.34689 25.545 3.16406 26.9989 3.16406ZM21.1136 16.875L21.9301 13.6004C22.2236 12.4235 23.2756 11.6016 24.4885 11.6016H29.5093C30.7222 11.6016 31.7743 12.4235 32.0677 13.6004L32.8842 16.875H21.1136Z" fill="black"></path><path d="M17.3369 46.7959C16.8938 45.0183 15.6638 43.6089 14.0729 42.8999C14.6578 41.9945 14.9989 40.9176 14.9989 39.7617C14.9989 36.5632 12.3967 33.9609 9.19812 33.9609C5.99957 33.9609 3.39734 36.5632 3.39734 39.7617C3.39734 40.9176 3.73843 41.9945 4.32336 42.8999C2.73236 43.6089 1.50249 45.0184 1.05931 46.796L0.0795038 50.7255C-0.11825 51.5185 0.0569335 52.3427 0.560125 52.9867C1.06321 53.6306 1.82058 54 2.63786 54H15.7583C16.5756 54 17.3329 53.6306 17.8361 52.9867C18.3393 52.3427 18.5145 51.5184 18.3167 50.7255L17.3369 46.7959ZM9.19812 37.125C10.652 37.125 11.8348 38.3078 11.8348 39.7617C11.8348 41.2156 10.652 42.3984 9.19812 42.3984C7.74423 42.3984 6.5614 41.2156 6.5614 39.7617C6.5614 38.3078 7.74423 37.125 9.19812 37.125ZM3.31286 50.8359L4.1294 47.5613C4.42271 46.3844 5.47486 45.5625 6.68775 45.5625H11.7085C12.9214 45.5625 13.9735 46.3844 14.2669 47.5613L15.0834 50.8359H3.31286Z" fill="black"></path><path d="M53.9203 50.7254L52.9405 46.7958C52.4973 45.0183 51.2673 43.6089 49.6764 42.8998C50.2613 41.9944 50.6024 40.9174 50.6024 39.7616C50.6024 36.563 48.0002 33.9608 44.8016 33.9608C41.6031 33.9608 39.0009 36.563 39.0009 39.7616C39.0009 40.9174 39.3419 41.9944 39.9269 42.8998C38.3359 43.6088 37.106 45.0182 36.6628 46.7957L35.683 50.7253C35.4853 51.5183 35.6604 52.3424 36.1636 52.9864C36.6668 53.6304 37.4242 53.9998 38.2415 53.9998H51.3619C52.1792 53.9998 52.9366 53.6304 53.4398 52.9864C53.9428 52.3425 54.118 51.5184 53.9203 50.7254ZM44.8016 37.125C46.2555 37.125 47.4384 38.3078 47.4384 39.7617C47.4384 41.2156 46.2555 42.3984 44.8016 42.3984C43.3478 42.3984 42.1649 41.2156 42.1649 39.7617C42.1649 38.3078 43.3478 37.125 44.8016 37.125ZM38.9164 50.8359L39.7328 47.5613C40.0263 46.3844 41.0784 45.5625 42.2913 45.5625H47.312C48.5249 45.5625 49.577 46.3844 49.8704 47.5613L50.6869 50.8359H38.9164Z" fill="black"></path><path d="M31.1548 27.1916L24.5579 33.7884L22.8452 32.0757C22.2275 31.458 21.2257 31.458 20.6079 32.0757C19.9901 32.6934 19.9901 33.6952 20.6079 34.313L23.4393 37.1444C23.7482 37.4533 24.1531 37.6079 24.5579 37.6079C24.9627 37.6079 25.3677 37.4533 25.6765 37.1444L33.392 29.429C34.0098 28.8112 34.0098 27.8095 33.392 27.1917C32.7743 26.5738 31.7725 26.5738 31.1548 27.1916Z" fill="black"></path></g><defs><clipPath id="clip0"><rect width="54" height="54" fill="white"></rect></clipPath></defs></svg> 