<?xml version="1.0" encoding="UTF-8"?> <svg xmlns="http://www.w3.org/2000/svg" width="54" height="70" viewBox="0 0 54 70" fill="none"><path d="M21.5 51.5V38L24.5 42.5L31.5 48L39 49L47 45L52 40V66.5L51 68.5L35 67L25.5 60.5L21.5 51.5Z" fill="#4ADC8F"></path><path fill-rule="evenodd" clip-rule="evenodd" d="M6.91775 5.42719C7.26889 5.84895 7.29172 6.45875 6.97311 6.90625C5.68833 8.71083 5.20147 11.0662 5.84278 13.3704C6.95848 17.379 11.0698 19.7121 15.0257 18.5815C15.4699 18.4546 15.8923 18.2898 16.2909 18.0918C16.7798 17.8489 17.3692 17.9744 17.7203 18.3962C18.0714 18.8179 18.0943 19.4277 17.7757 19.8752C16.5248 21.6322 14.6994 22.9905 12.4828 23.624C7.26521 25.1151 1.84264 22.0379 0.371115 16.7509C-0.936033 12.0544 1.3136 7.19651 5.4883 5.12282C5.97726 4.87994 6.56661 5.00543 6.91775 5.42719ZM3.21544 10.5716C2.37188 12.2151 2.12033 14.175 2.65555 16.098C3.77124 20.1066 7.88258 22.4397 11.8385 21.3091C11.9258 21.2842 12.0123 21.2578 12.0979 21.2299C8.17298 20.8598 4.69239 18.0977 3.55835 14.0233C3.23681 12.868 3.1307 11.7027 3.21544 10.5716Z" fill="black"></path><path d="M1 12L3 8.5H4.5L5 14L8 18.5L14.5 20L12 22.5L6 22L2 17.5L1 12Z" fill="black"></path><path d="M37 16C27.6261 16 20 23.7238 20 33.2175C20 33.5306 20.0089 33.8418 20.0252 34.151C20.0097 34.2408 20 34.3326 20 34.4268V49.0695C20 54.6389 22.1555 59.8891 26.0693 63.8531C29.9831 67.8169 35.167 70 40.6661 70H51.184C52.7368 70 54 68.7206 54 67.148V67.0818V34.4268V33.2175C54 23.7238 46.3739 16 37 16V16ZM38.6339 50.3551C43.6777 49.8657 48.0854 47.1355 50.8711 43.1607V65.7581C44.2806 63.3893 39.4966 57.3787 38.6339 50.3551ZM23.2168 31.64C23.4614 30.1455 24.2229 28.776 25.3649 27.7812C26.5263 26.7694 28.011 26.2123 29.5455 26.2123C31.9157 26.2123 34.099 27.5659 35.2041 29.6504L33.2408 33.0776C32.2099 34.8771 32.1319 37.0678 33.0323 38.9376L35.5199 44.1045C35.7821 44.649 36.3279 44.9946 36.9261 44.9946C37.5242 44.9946 38.0701 44.6491 38.3322 44.1045L40.8199 38.9376C41.7202 37.0677 41.6423 34.877 40.6115 33.0776L38.7247 29.7843C39.8063 27.624 42.0316 26.2122 44.4523 26.2122C47.5968 26.2122 50.2571 28.4882 50.7782 31.624C50.7799 31.6339 50.7827 31.6431 50.7845 31.653C50.841 32.1669 50.8709 32.6887 50.8709 33.2175C50.8709 40.9639 44.6483 47.266 36.9998 47.266C29.3513 47.266 23.1287 40.9638 23.1287 33.2175C23.1289 32.6841 23.1593 32.158 23.2168 31.64ZM35.9472 34.668L36.9262 32.9591L37.9052 34.668C38.412 35.5525 38.4503 36.6295 38.0077 37.5487L36.9262 39.795L35.8447 37.5487C35.402 36.6294 35.4405 35.5526 35.9472 34.668ZM37 19.1689C40.8605 19.1689 44.3571 20.775 46.8743 23.3615C46.0891 23.1527 45.2756 23.0433 44.4525 23.0433C42.4828 23.0433 40.5916 23.6464 38.9834 24.7876C38.23 25.3222 37.5638 25.9557 36.999 26.67C36.4342 25.9557 35.768 25.3222 35.0146 24.7876C33.4063 23.6464 31.5151 23.0433 29.5456 23.0433C28.7232 23.0433 27.9107 23.1525 27.1264 23.3607C29.6434 20.7747 33.1398 19.1689 37 19.1689ZM28.2817 61.6124C24.9588 58.247 23.1289 53.7925 23.1289 49.0695V43.1607C25.9366 47.1667 30.392 49.9082 35.4857 50.3658C36.2089 57.2377 40.1411 63.3186 45.8517 66.8311H40.6661C36.0028 66.8311 31.6046 64.9777 28.2817 61.6124Z" fill="black"></path><path d="M42.4786 32.731C42.6119 33.3813 43.1324 33.8886 43.7828 33.9885C44.4279 34.0876 45.086 33.7501 45.3916 33.1672C45.6988 32.5814 45.6097 31.8509 45.1715 31.3577C44.7352 30.8665 44.0153 30.7048 43.4141 30.9585C42.7383 31.2438 42.3272 31.9991 42.4786 32.731Z" fill="black"></path><path d="M27.879 32.7309C28.0122 33.381 28.5326 33.8884 29.1828 33.9884C29.827 34.0876 30.4863 33.7506 30.792 33.1682C31.0993 32.5826 31.0097 31.8504 30.5719 31.3576C30.136 30.867 29.4154 30.7049 28.8145 30.9584C28.1387 31.2437 27.7276 31.999 27.879 32.7309Z" fill="black"></path></svg> 