<?xml version="1.0" encoding="UTF-8"?> <svg xmlns="http://www.w3.org/2000/svg" width="138" height="158" viewBox="0 0 138 158" fill="none"><path d="M57 108.1C59 109.2 61.4 110.2 63.7 110.9C66 111.6 68.5 112.1 70.9 112.3C73.3 112.5 75.8 112.5 78.2 112.1C80.6 111.8 83 111 85.3 110.1C85.6 110 85.8 110.1 86 110.4C86.1 110.6 86 110.9 85.7 111C83.4 112 81 113 78.5 113.4C76 113.9 73.4 114.1 70.8 113.9C68.2 113.8 65.7 113.4 63.2 112.8C60.7 112.1 58.3 111.3 55.9 110.1C55.4 109.8 55.1 109.2 55.4 108.6C55.7 108.1 56.3 107.8 56.9 108.1C56.9 108.1 56.9 108.1 57 108.1Z" fill="black"></path><path d="M73.8 71.9999C74 74.5999 74.3 77.2999 74.7 79.8999C74.9 81.1999 75.1 82.4999 75.4 83.7999C75.7 85.0999 76.1 86.2999 76.6 87.3999L77 88.3999C77.2 88.7999 77.3 89.0999 77.4 89.4999C77.6 90.2999 77.6 91.0999 77.6 91.8999C77.6 92.2999 77.5 92.6999 77.4 93.0999C77.3 93.4999 77.1 93.9 77 94.2C76.6 94.9 76.1 95.5999 75.5 96.0999C74.3 97.1999 72.6 97.7 71.1 97.7C69.6 97.7 68.2 97.0999 67 96.3999C66.8 96.2999 66.7 95.9999 66.9 95.7999C67 95.5999 67.2 95.5999 67.4 95.5999C68.7 95.8999 69.9 95.9999 71.1 95.7999C72.2 95.5999 73.3 95.0999 74 94.3999C74.8 93.6999 75.2 92.6999 75.3 91.5999C75.3 91.0999 75.3 90.4999 75.2 89.9999C75.1 89.6999 75.1 89.5 74.9 89.2L74.7 88.7999L74.5 88.2999C73.3 85.5999 73 82.7999 72.6 80.0999C72.3 77.3999 72.3 74.6999 72.4 71.8999C72.4 71.4999 72.8 71.2 73.2 71.2C73.5 71.3 73.8 71.5999 73.8 71.9999Z" fill="black"></path><path d="M29.3 70.2001C28.7 68.2001 27.6 66.2001 26.1 64.7001C24.7 63.3001 22.2001 62.1001 21.2001 63.8001C21.0001 64.2001 20.8001 64.7001 20.7001 65.2001L20.6 66.0001C20.6 66.2001 20.5 66.5001 20.5 66.8001C20.3 67.8001 20.3001 68.9001 20.2001 70.0001C20.1001 72.2001 20.3001 74.4001 20.7001 76.6001C21.4001 81.0001 22.7 85.3001 24.5 89.2001C25 90.2001 25.5 91.1001 26 92.1001C26.3 92.6001 26.5 93.1001 26.8 93.5001C27.1 93.9001 27.4 94.4001 27.8 94.8001C28.5 95.6001 29.3 96.3001 30.1 96.6001C30.5 96.7001 31 96.8001 31.3 96.7001C31.5 96.7001 31.7 96.6001 31.9 96.5001C32.1 96.4001 32.3 96.3001 32.3 96.2001C32.6 95.8001 33.2 95.8001 33.5 96.1001C33.9 96.4001 33.9 97.0001 33.6 97.3001C33.6 97.3001 33.6 97.3001 33.5 97.4001C32.4 98.5001 30.7 98.7001 29.4 98.2001C28.1 97.7001 27.1 96.9001 26.3 96.0001C24.6 94.2001 23.2001 92.4001 22.2001 90.2001C21.2001 88.1001 20.4 85.9001 19.8 83.6001C19.2 81.4001 18.7 79.1001 18.4 76.8001C18.1 74.5001 17.8 72.2001 17.8 69.8001C17.8 68.6001 17.9001 67.4001 18.2001 66.2001C18.4001 65.0001 19.1 63.8001 19.9 62.8001C20.4 62.3001 21.0001 61.9001 21.7001 61.7001C22.4001 61.5001 23.1001 61.7001 23.7001 61.8001C24.9001 62.2001 25.9 62.9001 26.8 63.7001C27.7 64.5001 28.4 65.5001 29 66.6001C29.6 67.6001 30.1 68.7001 30.4 69.8001C30.5 70.1001 30.3 70.5001 30 70.6001C29.8 70.8001 29.4 70.6001 29.3 70.2001Z" fill="black"></path><path d="M108 65.4C108.6 64.7 109.2 64 110 63.5C110.4 63.2 110.8 62.9999 111.4 62.7999C111.9 62.5999 112.7 62.6 113.3 63C113.9 63.3 114.3 63.8999 114.6 64.2999C114.9 64.7999 115 65.2 115.1 65.7C115.3 66.6 115.4 67.5 115.5 68.4C115.6 71.9 115.2 75.2 114.7 78.6C114.2 81.9 113.4 85.3 112.1 88.5C111.4 90.1 110.7 91.6 109.6 93.1C108.6 94.5 107.2 95.9 105.4 96.5C105 96.6 104.6 96.4 104.5 96C104.5 95.9 104.4 95.7 104.5 95.6L105.1 92.4C105.2 92 105.5 91.8 105.9 91.9C106.2 92 106.5 92.3 106.4 92.6L106 95.9L105 95.1C106.3 94.6 107.4 93.4 108.3 92.1C109.2 90.8 109.9 89.2999 110.4 87.7999C111.5 84.7999 112.2 81.5999 112.7 78.2999C112.9 76.6999 113.1 75 113.2 73.4C113.3 71.8 113.4 70.1 113.4 68.5C113.4 67.7 113.3 66.9 113.1 66.2C113 65.5 112.6 64.9 112.4 64.7C112.2 64.6 111.7 64.6 111 65C110.4 65.4 109.8 65.9 109.3 66.4C109 66.7 108.5 66.7 108.1 66.4C107.8 66.2 107.8 65.7 108 65.4Z" fill="black"></path><path d="M29.5001 55.1C29.2001 62.8 29.9001 70.1 29.9001 70.1C29.9001 70.1 29.8001 65.6 26.0001 63.4C26.0001 63.4 20.5001 23.1 31.7001 19.3C33.9001 7.09997 47.5001 1.09998 65.1001 1.09998C111.6 1.09998 113.2 41.5 110.8 64.1L109.1 62.4L108.6 66.2C108.6 66.2 106.8 42.3 100.7 34.2C100.7 34.2 69.4001 37.8 39.1001 32.7C39.2001 32.7 30.5001 39.1 29.5001 55.1Z" fill="black"></path><path d="M30.0001 71C29.5001 71 29.1001 70.6 29.0001 70.1C29.0001 70.1 29.0001 69.8 28.9001 69.3C28.7001 68.1 28.0001 65.5 25.6001 64.2C25.3001 64 25.1001 63.8 25.1001 63.5C25.1001 63.4 23.7001 53.2 23.7001 42.7C23.7001 28.8 26.1001 20.6 30.9001 18.5C33.3001 6.9 46.0001 0 65.1001 0C80.7001 0 92.6001 4.49999 100.6 13.4C112.9 27 113.5 48.5 111.8 64.1C111.8 64.5 111.5 64.8 111.1 64.9C110.7 65 110.3 64.9 110.1 64.7L109.8 64.4L109.6 66.3C109.5 66.8 109.1 67.2 108.6 67.2C108.1 67.2 107.7 66.8 107.6 66.3C107.6 66.1 105.9 43.5 100.2 35.3C95.8001 35.7 67.0001 38.3 39.4001 33.8C37.7001 35.2 31.2001 41.6 30.4001 55.2C30.1001 61.3 30.6001 67.2 30.7001 69.3C30.8001 69.8 30.8001 70.1 30.8001 70.1C31.0001 70.5 30.6001 71 30.0001 71ZM27.0001 62.7C27.6001 63.1 28.2001 63.6 28.6001 64C28.5001 61.4 28.4001 58.2 28.6001 55C29.5001 39.4 37.7001 32.6 38.7001 31.9C38.9001 31.7 39.2001 31.6 39.5001 31.7C69.2001 36.7 100.5 33.2 100.8 33.2C101.1 33.2 101.5 33.3 101.7 33.6C106.3 39.7 108.5 53.9 109.3 61.4C109.5 61.4 109.8 61.5 109.9 61.7L110.1 61.9C111.4 46.9 110.4 27.3 99.2001 14.8C91.6001 6.4 80.2001 2.10001 65.2001 2.10001C46.8001 2.10001 34.7001 8.6 32.7001 19.5C32.6001 19.9 32.4001 20.2 32.0001 20.3C23.6001 23 25.5001 51.4 27.0001 62.7Z" fill="black"></path><path d="M49.9 66.6C60.8 66.6 63.6 70.3 64.6 67.9C65.2 66.4 63.5 62.3 51.5 62.9C39.5 63.5 37.4 69.5 37.4 69.5C37.4 69.5 42.5 66.6 49.9 66.6Z" fill="black"></path><path d="M75.8 68.5C75.8 68.5 75.5 66.5 77 65.8C82.2 63.3 92.3 60.1 103.1 67.4C103.1 67.4 92.3 66.8 88.4 66.4C84.6 66.1 77 70.1 75.8 68.5Z" fill="black"></path><path d="M44.2 73.9C45.3 72.9 46.6 72 48 71.4C49.4 70.8 50.8 70.2 52.4 70C54 69.8 55.6 69.8 57.2 70.2C58.8 70.6 60.2 71.6 61.4 72.7C61.8 73.1 61.8 73.8 61.4 74.2C61.1 74.6 60.5 74.6 60.1 74.4L60 74.3C58.9 73.6 57.8 73.1 56.6 72.8C55.4 72.5 54.1 72.4 52.8 72.5C51.5 72.6 50.1 72.9 48.8 73.2C47.5 73.6 46.1 74 44.8 74.5C44.6 74.6 44.4 74.5 44.4 74.3C44 74.1 44.1 74 44.2 73.9Z" fill="black"></path><path d="M53.2 76.7C54.9 76.7 56.3 75.3 56.3 73.6C56.3 71.9 54.9 70.5 53.2 70.5C51.5 70.5 50.1 71.9 50.1 73.6C50.1 75.3 51.5 76.7 53.2 76.7Z" fill="black"></path><path d="M80 72.5001C80.8 71.1001 82.1 70.3001 83.4 69.7001C84.8 69.2001 86.3 68.9 87.8 68.8C89.3 68.8 90.8 69.0001 92.1 69.5001C92.8 69.7001 93.4 70.1001 94.1 70.4001C94.7 70.7001 95.3 71.1001 95.9 71.5001L95.4 72.5001L93.5 71.9001L92.6 71.7001C92.3 71.6001 92 71.5001 91.7 71.5001C90.5 71.2001 89.2 71.2 88 71.3C86.8 71.4 85.6 71.7001 84.4 72.1001C83.2 72.5001 82.1 72.9001 80.9 73.4001L80 72.5001Z" fill="black"></path><path d="M87.5 75.8C89.1 75.8 90.5 74.5 90.5 72.8C90.5 71.1 89.2 69.8 87.5 69.8C85.9 69.8 84.5 71.1 84.5 72.8C84.5 74.5 85.9 75.8 87.5 75.8Z" fill="black"></path><path d="M34 96.4999C34.1 98.0999 34.2001 99.5999 34.4001 101.1C34.6001 102.6 34.8001 104.1 35.2001 105.6C35.9001 108.6 36.9001 111.5 38.2001 114.2C39.6001 116.9 41.4 119.4 43.6 121.4C44.7 122.4 45.9001 123.3 47.2001 124.1C48.5001 124.9 49.9001 125.7 51.2001 126.6C52.5001 127.5 53.8 128.4 55.1 129.3C56.4 130.2 57.7001 131.1 58.9001 131.8C61.4001 133.3 64.2 133.7 67.2 133.6C70.2 133.6 73.1 133.1 76 132.2C78.9 131.3 81.7001 130.1 84.3001 128.7C89.6001 125.8 94.4 121.7 97.7 116.6C98.5 115.3 99.2 114 99.8 112.6C100.4 111.2 100.8 109.7 101.3 108.3C102.2 105.3 102.8 102.3 103.4 99.2999C105.7 87.0999 107.1 74.6 108 62.2C108 61.6 108.6 61.2 109.2 61.2C109.8 61.2 110.2 61.7999 110.2 62.3999C109.7 68.6999 109 74.8999 108.2 81.0999C107.4 87.2999 106.6 93.5 105.4 99.7C104.8 102.8 104.1 105.9 103.2 108.9C102.8 110.4 102.3 111.9 101.6 113.4C101 114.9 100.2 116.3 99.4001 117.7C97.7001 120.5 95.6001 122.9 93.3001 125.1C91.0001 127.3 88.4 129.3 85.6 130.9C82.8 132.5 79.9001 134 76.8001 134.9C73.7001 135.9 70.4 136.6 67.2 136.5C65.6 136.5 63.9001 136.4 62.2001 136C60.5001 135.6 58.9 134.8 57.5 133.9C54.7 132 52.5 129.9 50 128.2C48.7 127.3 47.5 126.5 46.1 125.6C44.7 124.8 43.4001 123.7 42.2001 122.6C39.8001 120.4 37.9 117.7 36.5 114.8C35 112 34.0001 108.9 33.2001 105.8C32.8001 104.3 32.5 102.7 32.3 101.1C32.1 99.5999 31.9 97.8999 31.8 96.3999V96.2999C31.8 95.6999 32.2 95.1999 32.8 95.0999C33.4 95.3999 33.9 95.8999 34 96.4999Z" fill="black"></path><path d="M39.4 117.1C39.8 121.9 40 126.6 39.6 131.4C39.5 132.6 39.2 134 38.6 135.3C38 136.5 37 137.6 35.9 138.3C33.7 139.8 31.3 140.4 29 141C26.7 141.5 24.4 142 22.1 142.6C19.8 143.2 17.6 143.8 15.3 144.4C13 145 10.8 145.7 8.50002 146.3L5.10002 147.3L3.40002 147.8L2.60002 148.1L2.20002 148.2L2.10002 148.3C2.10002 148.3 2.10002 148.3 2.20002 148.2C2.30002 148.1 2.30002 147.9 2.30002 147.8C2.30002 148.2 2.00002 148.5 1.60002 148.5C1.20002 148.5 0.900024 148.2 0.900024 147.8C0.900024 147.7 1.00002 147.5 1.10002 147.3C1.20002 147.2 1.20002 147.2 1.20002 147.2C1.30002 147.1 1.30002 147.1 1.30002 147.1C1.40002 147 1.40002 147 1.50002 147L1.70002 146.9L2.10002 146.7L2.90002 146.4L4.60002 145.8L8.00002 144.7C10.2 144 12.5 143.3 14.7 142.6C16.9 141.9 19.2 141.2 21.5 140.6C23.8 139.9 26.1 139.4 28.3 138.8C30.5 138.2 32.7 137.5 34.4 136.3C36.1 135.1 37 133.3 37 131.2C37.2 126.6 36.8 121.9 36.3 117.3C36.2 116.5 36.8 115.7 37.6 115.6C38.4 115.5 39.3 116.2 39.4 117.1Z" fill="black"></path><path d="M97.9001 120.7C98.1001 123.1 98.3001 125.5 98.4001 127.9C98.5001 129.1 98.5001 130.3 98.6001 131.5L98.7001 133.3V134.2V134.7C98.7001 134.8 98.7001 134.8 98.7001 134.9C98.8001 135.5 99.4001 136.2 100.3 136.8C101.1 137.4 102.2 137.9 103.2 138.4C105.3 139.3 107.5 140 109.8 140.7C112.1 141.4 114.4 141.9 116.7 142.6C119.1 143.3 121.3 144.1 123.6 145C128.1 146.7 132.5 148.5 136.9 150.4C137.4 150.6 137.6 151.2 137.4 151.6C137.2 152.1 136.6 152.3 136.2 152.1C131.8 150.3 127.3 148.6 122.9 147C120.7 146.2 118.4 145.4 116.2 144.8C113.9 144.2 111.6 143.7 109.2 143C106.9 142.4 104.5 141.7 102.2 140.7C101 140.2 99.9001 139.7 98.8001 138.9C98.3001 138.5 97.7001 138.1 97.2001 137.5C96.7001 136.9 96.3001 136.2 96.1001 135.3C96.1001 135.1 96.0001 134.8 96.0001 134.6V134.2V133.3L95.9001 131.5C95.8001 130.3 95.7001 129.1 95.6001 128C95.4001 125.6 95.2001 123.3 94.9001 120.9C94.8001 120.1 95.4001 119.3 96.2001 119.2C97.0001 119.1 97.8001 119.9 97.9001 120.7Z" fill="black"></path><path d="M31.4 139C33.4 141.1 35.8 143.1 38.3 144.9C40.8 146.7 43.4 148.2 46.2 149.6C51.7 152.3 57.7 154.1 63.8 154.9C66.8 155.3 69.9 155.5 73 155.4C76.1 155.3 79.2 155.1 82.2 154.5C85.2 154 88.2 153.1 91 151.9C93.8 150.6 96.3 149 98.4 146.8C98.8 146.4 99.4 146.4 99.7 146.8C100.1 147.2 100.1 147.7 99.7 148.1C97.5 150.5 94.7 152.3 91.8 153.7C88.9 155.1 85.7 156 82.6 156.6C79.5 157.2 76.3 157.5 73.1 157.6C69.9 157.7 66.7 157.6 63.5 157.2C57.1 156.4 50.9 154.7 45.1 151.9C42.2 150.5 39.4 148.9 36.7 147.1C34 145.2 31.6 143.3 29.2 140.8C28.6 140.2 28.7 139.3 29.3 138.7C29.8 138.3 30.8 138.3 31.4 139Z" fill="black"></path><path d="M36.7001 119.9L35.8 112.7L38.5 116.4L38.4001 120L36.7001 119.9Z" fill="black"></path><path d="M97.9 123V118.9L95.9 121L97.4 123.4L97.9 123Z" fill="black"></path></svg> 