<?xml version="1.0" encoding="UTF-8"?> <svg xmlns="http://www.w3.org/2000/svg" width="1920" height="371" viewBox="0 0 1920 371" fill="none"><g clip-path="url(#clip0)"><rect width="1920" height="371" fill="white"></rect><path d="M60.6895 360.738V324.207H73.2958C75.6873 324.207 77.7252 324.434 79.4095 324.889C81.1105 325.344 82.5 325.992 83.5779 326.834C84.6726 327.677 85.4726 328.695 85.9779 329.891C86.4831 331.087 86.7358 332.434 86.7358 333.933C86.7358 334.792 86.6095 335.618 86.3568 336.409C86.1042 337.184 85.7084 337.917 85.1695 338.607C84.6473 339.281 83.9737 339.895 83.1484 340.451C82.34 341.007 81.3716 341.479 80.2431 341.866C85.2621 342.994 87.7716 345.706 87.7716 350.001C87.7716 351.55 87.4768 352.982 86.8873 354.295C86.2979 355.609 85.4389 356.746 84.3105 357.706C83.1821 358.649 81.7926 359.39 80.1421 359.929C78.4916 360.468 76.6052 360.738 74.4831 360.738H60.6895ZM67.4852 344.721V355.432H74.3821C75.6452 355.432 76.6979 355.281 77.54 354.978C78.3989 354.674 79.081 354.27 79.5863 353.765C80.1084 353.26 80.4789 352.67 80.6979 351.997C80.9337 351.323 81.0516 350.607 81.0516 349.849C81.0516 349.058 80.9252 348.35 80.6726 347.727C80.42 347.087 80.0242 346.548 79.4852 346.11C78.9463 345.655 78.2558 345.31 77.4137 345.074C76.5716 344.839 75.5526 344.721 74.3568 344.721H67.4852ZM67.4852 340.022H72.9168C75.2242 340.022 76.9758 339.601 78.1716 338.759C79.3673 337.917 79.9652 336.578 79.9652 334.742C79.9652 332.839 79.4263 331.483 78.3484 330.674C77.2705 329.866 75.5863 329.462 73.2958 329.462H67.4852V340.022Z" fill="black"></path><path d="M99.4617 334.818V351.289C99.4617 352.872 99.8238 354.102 100.548 354.978C101.289 355.837 102.392 356.266 103.857 356.266C104.935 356.266 105.946 356.03 106.889 355.559C107.832 355.07 108.725 354.405 109.567 353.563V334.818H115.807V360.738H111.992C111.184 360.738 110.653 360.359 110.401 359.601L109.971 357.529C109.432 358.068 108.876 358.565 108.304 359.02C107.731 359.458 107.116 359.837 106.46 360.157C105.82 360.46 105.121 360.695 104.363 360.864C103.622 361.049 102.822 361.142 101.963 361.142C100.548 361.142 99.2933 360.906 98.1985 360.434C97.1206 359.946 96.2112 359.264 95.4701 358.388C94.7291 357.512 94.1648 356.477 93.7775 355.281C93.407 354.068 93.2217 352.738 93.2217 351.289V334.818H99.4617Z" fill="black"></path><path d="M132.17 367.862C131.985 368.3 131.741 368.628 131.438 368.847C131.151 369.083 130.705 369.201 130.099 369.201H125.45L130.301 358.818L119.817 334.818H125.274C125.779 334.818 126.166 334.935 126.436 335.171C126.705 335.407 126.907 335.677 127.042 335.98L132.575 349.42C132.76 349.858 132.92 350.312 133.055 350.784C133.189 351.255 133.307 351.727 133.408 352.199C133.543 351.71 133.686 351.239 133.838 350.784C134.006 350.329 134.183 349.866 134.368 349.394L139.572 335.98C139.707 335.643 139.926 335.365 140.229 335.146C140.549 334.927 140.903 334.818 141.29 334.818H146.292L132.17 367.862Z" fill="black"></path><path d="M160.293 334.413C161.927 334.413 163.426 334.674 164.79 335.197C166.171 335.719 167.359 336.485 168.352 337.495C169.346 338.489 170.121 339.719 170.677 341.184C171.232 342.632 171.51 344.291 171.51 346.161C171.51 346.632 171.485 347.028 171.434 347.348C171.401 347.651 171.325 347.895 171.207 348.081C171.106 348.249 170.963 348.375 170.778 348.46C170.592 348.527 170.357 348.561 170.07 348.561H154.053C154.239 351.222 154.954 353.175 156.201 354.422C157.447 355.668 159.098 356.291 161.152 356.291C162.163 356.291 163.03 356.173 163.754 355.938C164.496 355.702 165.135 355.441 165.674 355.154C166.23 354.868 166.71 354.607 167.114 354.371C167.536 354.135 167.94 354.018 168.327 354.018C168.58 354.018 168.799 354.068 168.984 354.169C169.169 354.27 169.329 354.413 169.464 354.599L171.283 356.872C170.592 357.681 169.818 358.363 168.959 358.919C168.1 359.458 167.199 359.895 166.256 360.232C165.329 360.552 164.378 360.78 163.401 360.914C162.441 361.049 161.506 361.117 160.597 361.117C158.794 361.117 157.119 360.822 155.569 360.232C154.02 359.626 152.672 358.742 151.527 357.58C150.382 356.401 149.481 354.952 148.824 353.234C148.167 351.5 147.839 349.495 147.839 347.222C147.839 345.453 148.125 343.794 148.698 342.245C149.27 340.679 150.087 339.323 151.148 338.178C152.226 337.015 153.531 336.098 155.064 335.424C156.613 334.75 158.357 334.413 160.293 334.413ZM160.42 338.885C158.601 338.885 157.178 339.399 156.15 340.426C155.123 341.453 154.466 342.91 154.18 344.797H165.902C165.902 343.988 165.792 343.23 165.573 342.523C165.354 341.799 165.018 341.167 164.563 340.628C164.108 340.089 163.535 339.668 162.845 339.365C162.154 339.045 161.346 338.885 160.42 338.885Z" fill="black"></path><path d="M177.077 360.738V334.818H180.74C181.38 334.818 181.827 334.935 182.079 335.171C182.332 335.407 182.5 335.811 182.585 336.384L182.964 339.517C183.89 337.917 184.976 336.653 186.222 335.727C187.469 334.801 188.867 334.338 190.416 334.338C191.696 334.338 192.757 334.632 193.599 335.222L192.791 339.895C192.74 340.199 192.631 340.418 192.462 340.552C192.294 340.67 192.067 340.729 191.78 340.729C191.528 340.729 191.182 340.67 190.745 340.552C190.307 340.434 189.726 340.375 189.001 340.375C187.705 340.375 186.593 340.738 185.667 341.462C184.74 342.169 183.957 343.213 183.317 344.594V360.738H177.077Z" fill="black"></path><path d="M903.917 324.207V329.613H887.723V339.744H900.481V344.973H887.723V355.306H903.917V360.738H880.877V324.207H903.917Z" fill="black"></path><path d="M925.328 339.87C925.16 340.14 924.983 340.333 924.798 340.451C924.612 340.552 924.377 340.603 924.09 340.603C923.787 340.603 923.459 340.519 923.105 340.35C922.768 340.182 922.372 339.997 921.918 339.794C921.463 339.575 920.941 339.382 920.351 339.213C919.779 339.045 919.097 338.961 918.305 338.961C917.076 338.961 916.107 339.222 915.4 339.744C914.692 340.266 914.339 340.948 914.339 341.79C914.339 342.346 914.516 342.818 914.869 343.205C915.24 343.575 915.72 343.904 916.309 344.19C916.916 344.477 917.598 344.738 918.356 344.973C919.114 345.192 919.888 345.437 920.68 345.706C921.471 345.975 922.246 346.287 923.004 346.641C923.762 346.978 924.436 347.415 925.025 347.954C925.631 348.477 926.111 349.108 926.465 349.849C926.836 350.59 927.021 351.483 927.021 352.527C927.021 353.773 926.794 354.927 926.339 355.988C925.884 357.032 925.219 357.942 924.343 358.717C923.467 359.474 922.381 360.072 921.084 360.51C919.804 360.931 918.33 361.142 916.663 361.142C915.77 361.142 914.895 361.058 914.036 360.889C913.194 360.738 912.377 360.519 911.585 360.232C910.81 359.946 910.086 359.609 909.412 359.222C908.756 358.834 908.175 358.413 907.669 357.959L909.109 355.584C909.295 355.298 909.514 355.079 909.766 354.927C910.019 354.775 910.339 354.7 910.726 354.7C911.114 354.7 911.476 354.809 911.812 355.028C912.166 355.247 912.57 355.483 913.025 355.735C913.48 355.988 914.01 356.224 914.617 356.443C915.24 356.662 916.023 356.771 916.966 356.771C917.707 356.771 918.339 356.687 918.861 356.519C919.4 356.333 919.838 356.098 920.175 355.811C920.528 355.525 920.781 355.197 920.932 354.826C921.101 354.439 921.185 354.043 921.185 353.639C921.185 353.032 921 352.535 920.629 352.148C920.276 351.761 919.796 351.424 919.189 351.138C918.6 350.851 917.918 350.599 917.143 350.38C916.385 350.144 915.602 349.891 914.794 349.622C914.002 349.352 913.219 349.041 912.444 348.687C911.686 348.317 911.004 347.853 910.398 347.298C909.808 346.742 909.328 346.06 908.958 345.251C908.604 344.443 908.427 343.466 908.427 342.321C908.427 341.26 908.638 340.249 909.059 339.289C909.48 338.329 910.095 337.495 910.903 336.788C911.728 336.064 912.747 335.491 913.96 335.07C915.189 334.632 916.604 334.413 918.204 334.413C919.989 334.413 921.615 334.708 923.08 335.298C924.545 335.887 925.766 336.662 926.743 337.622L925.328 339.87Z" fill="black"></path><path d="M950.719 340.3C950.534 340.535 950.348 340.721 950.163 340.855C949.995 340.99 949.742 341.058 949.405 341.058C949.085 341.058 948.774 340.965 948.471 340.78C948.167 340.578 947.805 340.359 947.384 340.123C946.963 339.87 946.458 339.651 945.868 339.466C945.296 339.264 944.58 339.163 943.721 339.163C942.626 339.163 941.666 339.365 940.841 339.769C940.016 340.157 939.325 340.721 938.769 341.462C938.23 342.203 937.826 343.104 937.557 344.165C937.287 345.209 937.153 346.397 937.153 347.727C937.153 349.108 937.296 350.338 937.582 351.415C937.885 352.493 938.315 353.403 938.871 354.144C939.426 354.868 940.1 355.424 940.892 355.811C941.683 356.182 942.576 356.367 943.569 356.367C944.563 356.367 945.363 356.249 945.969 356.013C946.593 355.761 947.115 355.491 947.536 355.205C947.957 354.902 948.319 354.632 948.622 354.397C948.942 354.144 949.296 354.018 949.683 354.018C950.188 354.018 950.567 354.211 950.82 354.599L952.614 356.872C951.923 357.681 951.174 358.363 950.365 358.919C949.557 359.458 948.715 359.895 947.839 360.232C946.98 360.552 946.087 360.78 945.161 360.914C944.235 361.049 943.317 361.117 942.407 361.117C940.807 361.117 939.3 360.822 937.885 360.232C936.471 359.626 935.233 358.75 934.172 357.605C933.127 356.46 932.294 355.062 931.671 353.411C931.064 351.744 930.761 349.849 930.761 347.727C930.761 345.824 931.031 344.064 931.569 342.447C932.125 340.813 932.934 339.407 933.995 338.228C935.056 337.032 936.369 336.098 937.936 335.424C939.502 334.75 941.304 334.413 943.342 334.413C945.279 334.413 946.972 334.725 948.42 335.348C949.885 335.971 951.199 336.864 952.361 338.026L950.719 340.3Z" fill="black"></path><path d="M957.088 360.738V334.818H960.752C961.392 334.818 961.838 334.935 962.091 335.171C962.343 335.407 962.512 335.811 962.596 336.384L962.975 339.517C963.901 337.917 964.987 336.653 966.234 335.727C967.48 334.801 968.878 334.338 970.427 334.338C971.707 334.338 972.768 334.632 973.611 335.222L972.802 339.895C972.752 340.199 972.642 340.418 972.474 340.552C972.305 340.67 972.078 340.729 971.792 340.729C971.539 340.729 971.194 340.67 970.756 340.552C970.318 340.434 969.737 340.375 969.013 340.375C967.716 340.375 966.604 340.738 965.678 341.462C964.752 342.169 963.968 343.213 963.328 344.594V360.738H957.088Z" fill="black"></path><path d="M989.284 334.413C991.221 334.413 992.972 334.725 994.539 335.348C996.122 335.971 997.469 336.855 998.581 338.001C999.692 339.146 1000.55 340.544 1001.16 342.194C1001.76 343.845 1002.07 345.689 1002.07 347.727C1002.07 349.782 1001.76 351.634 1001.16 353.285C1000.55 354.935 999.692 356.342 998.581 357.504C997.469 358.666 996.122 359.559 994.539 360.182C992.972 360.805 991.221 361.117 989.284 361.117C987.347 361.117 985.587 360.805 984.004 360.182C982.421 359.559 981.065 358.666 979.937 357.504C978.825 356.342 977.958 354.935 977.334 353.285C976.728 351.634 976.425 349.782 976.425 347.727C976.425 345.689 976.728 343.845 977.334 342.194C977.958 340.544 978.825 339.146 979.937 338.001C981.065 336.855 982.421 335.971 984.004 335.348C985.587 334.725 987.347 334.413 989.284 334.413ZM989.284 356.317C991.44 356.317 993.031 355.592 994.059 354.144C995.103 352.695 995.625 350.573 995.625 347.778C995.625 344.982 995.103 342.851 994.059 341.386C993.031 339.921 991.44 339.188 989.284 339.188C987.094 339.188 985.478 339.929 984.433 341.411C983.389 342.877 982.867 344.999 982.867 347.778C982.867 350.557 983.389 352.679 984.433 354.144C985.478 355.592 987.094 356.317 989.284 356.317Z" fill="black"></path><path d="M1004.28 334.818H1009.23C1009.71 334.818 1010.1 334.927 1010.42 335.146C1010.74 335.365 1010.94 335.643 1011.03 335.98L1014.74 349.824C1014.94 350.582 1015.1 351.323 1015.22 352.047C1015.36 352.771 1015.48 353.495 1015.6 354.22C1015.79 353.495 1015.98 352.771 1016.18 352.047C1016.4 351.323 1016.63 350.582 1016.86 349.824L1021.16 335.929C1021.26 335.592 1021.46 335.314 1021.77 335.095C1022.07 334.877 1022.42 334.767 1022.83 334.767H1025.58C1026.03 334.767 1026.41 334.877 1026.72 335.095C1027.02 335.314 1027.22 335.592 1027.32 335.929L1031.57 350.077C1031.79 350.801 1031.98 351.508 1032.15 352.199C1032.33 352.872 1032.51 353.554 1032.68 354.245C1032.8 353.521 1032.92 352.797 1033.06 352.072C1033.21 351.348 1033.39 350.599 1033.61 349.824L1037.45 335.98C1037.54 335.643 1037.74 335.365 1038.06 335.146C1038.38 334.927 1038.75 334.818 1039.17 334.818H1043.9L1035.69 360.738H1030.66C1030.12 360.738 1029.73 360.367 1029.5 359.626L1024.82 344.645C1024.67 344.157 1024.53 343.668 1024.39 343.18C1024.27 342.674 1024.17 342.178 1024.09 341.689C1023.99 342.194 1023.88 342.7 1023.76 343.205C1023.64 343.693 1023.51 344.19 1023.36 344.695L1018.63 359.626C1018.4 360.367 1017.94 360.738 1017.27 360.738H1012.49L1004.28 334.818Z" fill="black"></path><path d="M1751.76 330.851C1751.57 331.222 1751.35 331.483 1751.1 331.634C1750.86 331.786 1750.58 331.862 1750.24 331.862C1749.9 331.862 1749.52 331.735 1749.1 331.483C1748.68 331.213 1748.19 330.918 1747.61 330.598C1747.04 330.278 1746.37 329.992 1745.59 329.739C1744.83 329.47 1743.93 329.335 1742.89 329.335C1741.95 329.335 1741.12 329.453 1740.41 329.689C1739.72 329.908 1739.13 330.219 1738.64 330.624C1738.17 331.028 1737.82 331.516 1737.58 332.089C1737.35 332.645 1737.23 333.259 1737.23 333.933C1737.23 334.792 1737.47 335.508 1737.94 336.08C1738.43 336.653 1739.07 337.142 1739.86 337.546C1740.65 337.95 1741.55 338.312 1742.56 338.632C1743.57 338.952 1744.6 339.297 1745.64 339.668C1746.7 340.022 1747.74 340.443 1748.75 340.931C1749.76 341.403 1750.66 342.009 1751.45 342.75C1752.24 343.474 1752.88 344.367 1753.35 345.428C1753.84 346.489 1754.08 347.777 1754.08 349.293C1754.08 350.944 1753.79 352.493 1753.22 353.942C1752.67 355.373 1751.84 356.628 1750.75 357.706C1749.67 358.767 1748.35 359.609 1746.78 360.232C1745.21 360.838 1743.42 361.142 1741.4 361.142C1740.24 361.142 1739.09 361.024 1737.96 360.788C1736.83 360.569 1735.75 360.249 1734.7 359.828C1733.68 359.407 1732.71 358.902 1731.8 358.312C1730.91 357.723 1730.11 357.066 1729.4 356.342L1731.37 353.083C1731.55 352.847 1731.77 352.653 1732.03 352.502C1732.3 352.333 1732.59 352.249 1732.91 352.249C1733.33 352.249 1733.79 352.426 1734.27 352.779C1734.76 353.116 1735.34 353.495 1735.99 353.916C1736.67 354.337 1737.45 354.725 1738.34 355.078C1739.25 355.415 1740.34 355.584 1741.6 355.584C1743.54 355.584 1745.04 355.129 1746.1 354.219C1747.16 353.293 1747.69 351.971 1747.69 350.253C1747.69 349.293 1747.44 348.51 1746.96 347.904C1746.48 347.297 1745.85 346.792 1745.06 346.388C1744.27 345.967 1743.37 345.613 1742.36 345.327C1741.35 345.041 1740.32 344.729 1739.28 344.392C1738.23 344.055 1737.2 343.651 1736.19 343.179C1735.18 342.708 1734.28 342.093 1733.49 341.335C1732.7 340.577 1732.06 339.634 1731.57 338.506C1731.1 337.36 1730.86 335.954 1730.86 334.287C1730.86 332.956 1731.12 331.659 1731.65 330.396C1732.19 329.133 1732.96 328.013 1733.97 327.036C1735 326.059 1736.25 325.276 1737.74 324.687C1739.22 324.097 1740.91 323.803 1742.81 323.803C1744.97 323.803 1746.96 324.139 1748.78 324.813C1750.59 325.487 1752.14 326.43 1753.42 327.643L1751.76 330.851Z" fill="black"></path><path d="M1770.13 334.413C1771.76 334.413 1773.26 334.674 1774.63 335.196C1776.01 335.718 1777.19 336.485 1778.19 337.495C1779.18 338.489 1779.96 339.718 1780.51 341.184C1781.07 342.632 1781.35 344.291 1781.35 346.16C1781.35 346.632 1781.32 347.028 1781.27 347.348C1781.24 347.651 1781.16 347.895 1781.04 348.081C1780.94 348.249 1780.8 348.375 1780.61 348.459C1780.43 348.527 1780.19 348.561 1779.91 348.561H1763.89C1764.07 351.222 1764.79 353.175 1766.04 354.422C1767.28 355.668 1768.93 356.291 1770.99 356.291C1772 356.291 1772.87 356.173 1773.59 355.937C1774.33 355.702 1774.97 355.441 1775.51 355.154C1776.07 354.868 1776.55 354.607 1776.95 354.371C1777.37 354.135 1777.78 354.017 1778.16 354.017C1778.42 354.017 1778.63 354.068 1778.82 354.169C1779.01 354.27 1779.17 354.413 1779.3 354.598L1781.12 356.872C1780.43 357.68 1779.65 358.363 1778.79 358.918C1777.94 359.457 1777.03 359.895 1776.09 360.232C1775.17 360.552 1774.21 360.779 1773.24 360.914C1772.28 361.049 1771.34 361.116 1770.43 361.116C1768.63 361.116 1766.95 360.822 1765.41 360.232C1763.86 359.626 1762.51 358.742 1761.36 357.579C1760.22 356.401 1759.32 354.952 1758.66 353.234C1758 351.499 1757.67 349.495 1757.67 347.222C1757.67 345.453 1757.96 343.794 1758.53 342.245C1759.11 340.678 1759.92 339.323 1760.98 338.177C1762.06 337.015 1763.37 336.097 1764.9 335.424C1766.45 334.75 1768.19 334.413 1770.13 334.413ZM1770.26 338.885C1768.44 338.885 1767.01 339.398 1765.99 340.426C1764.96 341.453 1764.3 342.91 1764.02 344.796H1775.74C1775.74 343.988 1775.63 343.23 1775.41 342.523C1775.19 341.798 1774.85 341.167 1774.4 340.628C1773.94 340.089 1773.37 339.668 1772.68 339.365C1771.99 339.045 1771.18 338.885 1770.26 338.885Z" fill="black"></path><path d="M1793.56 323.196V360.737H1787.32V323.196H1793.56Z" fill="black"></path><path d="M1807.78 323.196V360.737H1801.54V323.196H1807.78Z" fill="black"></path><path d="M1826.07 334.413C1827.7 334.413 1829.2 334.674 1830.57 335.196C1831.95 335.718 1833.13 336.485 1834.13 337.495C1835.12 338.489 1835.9 339.718 1836.45 341.184C1837.01 342.632 1837.29 344.291 1837.29 346.16C1837.29 346.632 1837.26 347.028 1837.21 347.348C1837.18 347.651 1837.1 347.895 1836.98 348.081C1836.88 348.249 1836.74 348.375 1836.55 348.459C1836.37 348.527 1836.13 348.561 1835.85 348.561H1819.83C1820.01 351.222 1820.73 353.175 1821.98 354.422C1823.22 355.668 1824.87 356.291 1826.93 356.291C1827.94 356.291 1828.81 356.173 1829.53 355.937C1830.27 355.702 1830.91 355.441 1831.45 355.154C1832.01 354.868 1832.49 354.607 1832.89 354.371C1833.31 354.135 1833.72 354.017 1834.1 354.017C1834.36 354.017 1834.57 354.068 1834.76 354.169C1834.95 354.27 1835.11 354.413 1835.24 354.598L1837.06 356.872C1836.37 357.68 1835.59 358.363 1834.73 358.918C1833.88 359.457 1832.97 359.895 1832.03 360.232C1831.11 360.552 1830.15 360.779 1829.18 360.914C1828.22 361.049 1827.28 361.116 1826.37 361.116C1824.57 361.116 1822.89 360.822 1821.35 360.232C1819.8 359.626 1818.45 358.742 1817.3 357.579C1816.16 356.401 1815.26 354.952 1814.6 353.234C1813.94 351.499 1813.61 349.495 1813.61 347.222C1813.61 345.453 1813.9 343.794 1814.47 342.245C1815.05 340.678 1815.86 339.323 1816.92 338.177C1818 337.015 1819.31 336.097 1820.84 335.424C1822.39 334.75 1824.13 334.413 1826.07 334.413ZM1826.2 338.885C1824.38 338.885 1822.95 339.398 1821.93 340.426C1820.9 341.453 1820.24 342.91 1819.96 344.796H1831.68C1831.68 343.988 1831.57 343.23 1831.35 342.523C1831.13 341.798 1830.79 341.167 1830.34 340.628C1829.88 340.089 1829.31 339.668 1828.62 339.365C1827.93 339.045 1827.12 338.885 1826.2 338.885Z" fill="black"></path><path d="M1842.85 360.737V334.817H1846.52C1847.16 334.817 1847.6 334.935 1847.86 335.171C1848.11 335.407 1848.28 335.811 1848.36 336.384L1848.74 339.516C1849.67 337.916 1850.75 336.653 1852 335.727C1853.24 334.8 1854.64 334.337 1856.19 334.337C1857.47 334.337 1858.53 334.632 1859.38 335.222L1858.57 339.895C1858.52 340.198 1858.41 340.417 1858.24 340.552C1858.07 340.67 1857.84 340.729 1857.56 340.729C1857.3 340.729 1856.96 340.67 1856.52 340.552C1856.08 340.434 1855.5 340.375 1854.78 340.375C1853.48 340.375 1852.37 340.737 1851.44 341.462C1850.52 342.169 1849.73 343.213 1849.09 344.594V360.737H1842.85Z" fill="black"></path><g clip-path="url(#clip1)"><path d="M228.089 198.741C225.355 182.324 213.844 168.853 198.05 163.588L162.991 151.902V146.69H154.842V154.335L148.758 178.665L132.301 158.915H120.333L103.875 178.665L97.796 154.335V146.69H89.6466V151.902L54.5879 163.588C38.7984 168.853 27.2874 182.324 24.5492 198.741L15.5645 252.633H237.069L228.089 198.741ZM106.487 244.483H61.5515L65.178 208.218L57.0694 207.408L53.3614 244.487H25.1889L32.5886 200.085C34.8256 186.651 44.2463 175.633 57.1672 171.322L90.8364 160.096L99.866 196.21L109.054 185.184L113.916 192.478L106.487 244.483ZM137.92 244.483H114.718L122.424 190.546L114.494 178.652L124.151 167.064H128.483L138.14 178.652L130.21 190.546L137.92 244.483ZM199.276 244.483L195.569 207.404L187.46 208.214L191.086 244.479H146.151L138.722 192.474L143.583 185.18L152.772 196.206L161.801 160.092L195.471 171.318C208.392 175.625 217.808 186.647 220.049 200.081L227.449 244.483H199.276Z" fill="black"></path><path d="M99.1572 197.053L123.789 167.369H128.841L152.841 196.422L150.947 244.422H100.42L99.1572 197.053Z" fill="white"></path><path d="M75.1487 109.79C77.2268 116.941 81.0651 123.497 86.4763 128.908L102.368 144.8C106.214 148.646 111.328 150.765 116.772 150.765H135.87C141.31 150.765 146.427 148.646 150.274 144.8L166.165 128.908C171.576 123.497 175.415 116.937 177.493 109.79C187.643 108.641 195.589 100.1 195.589 89.6444C195.589 82.9579 192.305 77.0618 187.313 73.3456H187.439V48.8974C187.439 38.6984 179.901 30.223 170.106 28.7521C163.973 11.6872 147.564 0.000976562 129.253 0.000976562H126.319C92.6169 0.000976562 65.1982 27.4197 65.1982 61.1215V73.3456H65.3245C60.333 77.0618 57.0488 82.9579 57.0488 89.6444C57.0488 100.1 64.9945 108.641 75.1487 109.79ZM171.141 97.2112C171.141 107.011 167.327 116.22 160.4 123.147L144.508 139.038C142.235 141.312 139.085 142.616 135.866 142.616H116.768C113.549 142.616 110.403 141.312 108.125 139.038L92.2339 123.147C85.3069 116.22 81.493 107.011 81.493 97.2152V77.4203H97.5025C115.435 77.4203 132.39 71.0516 145.788 59.3857L147.035 61.4638C152.234 70.1307 161.231 75.8923 171.141 77.1473V97.2112ZM187.439 89.6444C187.439 95.019 183.927 99.546 179.098 101.176C179.212 99.8679 179.29 98.5477 179.29 97.2152V78.1701C184.021 79.857 187.439 84.3392 187.439 89.6444ZM73.3476 61.1215C73.3476 31.914 97.1113 8.15038 126.319 8.15038H129.253C144.908 8.15038 158.847 18.6631 163.15 33.7191L163.993 36.6733H167.066C173.805 36.6733 179.29 42.1578 179.29 48.8974V69.6825C177.974 69.4135 176.609 69.2709 175.215 69.2709C166.585 69.2709 158.464 64.6747 154.023 57.2709L147.499 46.3996L143.807 50.0913C131.441 62.458 114.999 69.2709 97.5066 69.2709H77.4223C76.0288 69.2709 74.6638 69.4135 73.3476 69.6825V61.1215V61.1215ZM73.3476 78.1701V97.2152C73.3476 98.5477 73.4251 99.8679 73.5392 101.18C68.7106 99.546 65.1982 95.019 65.1982 89.6444C65.1982 84.3392 68.6169 79.857 73.3476 78.1701Z" fill="black"></path></g><path fill-rule="evenodd" clip-rule="evenodd" d="M1912.42 83.369H1674.95V147.79L1912.42 147.79V83.369ZM1674.95 75.79C1670.76 75.79 1667.37 79.1833 1667.37 83.369V147.79C1667.37 151.976 1670.76 155.369 1674.95 155.369H1912.42C1916.61 155.369 1920 151.976 1920 147.79V83.369C1920 79.1832 1916.61 75.79 1912.42 75.79H1674.95Z" fill="black"></path><path d="M1703.02 130.948V110.212H1706.08C1706.72 110.212 1707.15 110.515 1707.35 111.122L1707.69 112.759C1708.11 112.327 1708.55 111.937 1709.01 111.586C1709.48 111.236 1709.97 110.933 1710.48 110.677C1711.01 110.421 1711.57 110.226 1712.16 110.091C1712.75 109.956 1713.4 109.889 1714.1 109.889C1715.23 109.889 1716.23 110.084 1717.11 110.475C1717.99 110.852 1718.71 111.391 1719.29 112.092C1719.89 112.779 1720.33 113.607 1720.63 114.578C1720.94 115.534 1721.09 116.592 1721.09 117.751V130.948H1716.1V117.751C1716.1 116.484 1715.8 115.507 1715.21 114.82C1714.63 114.119 1713.76 113.769 1712.58 113.769C1711.72 113.769 1710.91 113.965 1710.16 114.355C1709.4 114.746 1708.69 115.278 1708.02 115.952V130.948H1703.02Z" fill="black"></path><path d="M1742.65 130.948H1740.41C1739.94 130.948 1739.57 130.881 1739.3 130.746C1739.03 130.598 1738.82 130.308 1738.69 129.877L1738.24 128.402C1737.72 128.873 1737.2 129.291 1736.69 129.655C1736.19 130.005 1735.67 130.301 1735.13 130.544C1734.59 130.786 1734.02 130.968 1733.41 131.09C1732.81 131.211 1732.13 131.271 1731.39 131.271C1730.52 131.271 1729.71 131.157 1728.97 130.928C1728.23 130.685 1727.59 130.328 1727.05 129.857C1726.52 129.385 1726.11 128.799 1725.82 128.098C1725.52 127.398 1725.37 126.583 1725.37 125.653C1725.37 124.871 1725.57 124.103 1725.98 123.349C1726.39 122.581 1727.08 121.894 1728.04 121.287C1729 120.668 1730.27 120.156 1731.86 119.751C1733.45 119.347 1735.42 119.118 1737.78 119.064V117.852C1737.78 116.464 1737.48 115.44 1736.89 114.78C1736.31 114.106 1735.46 113.769 1734.34 113.769C1733.54 113.769 1732.86 113.863 1732.32 114.052C1731.78 114.241 1731.31 114.456 1730.91 114.699C1730.52 114.928 1730.15 115.137 1729.82 115.325C1729.48 115.514 1729.11 115.608 1728.71 115.608C1728.37 115.608 1728.08 115.521 1727.84 115.346C1727.59 115.17 1727.4 114.955 1727.25 114.699L1726.34 113.102C1728.73 110.919 1731.6 109.828 1734.97 109.828C1736.18 109.828 1737.26 110.03 1738.2 110.434C1739.16 110.825 1739.97 111.378 1740.63 112.092C1741.29 112.792 1741.79 113.634 1742.13 114.618C1742.48 115.602 1742.65 116.679 1742.65 117.852V130.948ZM1732.95 127.836C1733.46 127.836 1733.93 127.789 1734.36 127.694C1734.8 127.6 1735.2 127.458 1735.58 127.27C1735.97 127.081 1736.34 126.852 1736.69 126.583C1737.05 126.3 1737.42 125.97 1737.78 125.592V122.096C1736.32 122.163 1735.11 122.291 1734.12 122.48C1733.15 122.655 1732.37 122.884 1731.78 123.167C1731.18 123.45 1730.76 123.78 1730.5 124.157C1730.26 124.535 1730.14 124.946 1730.14 125.39C1730.14 126.266 1730.4 126.893 1730.91 127.27C1731.43 127.647 1732.11 127.836 1732.95 127.836Z" fill="black"></path><path d="M1747.96 130.948V110.212H1751.02C1751.66 110.212 1752.09 110.515 1752.29 111.122L1752.61 112.658C1752.98 112.253 1753.35 111.883 1753.74 111.546C1754.15 111.209 1754.57 110.919 1755.02 110.677C1755.48 110.434 1755.96 110.246 1756.47 110.111C1757 109.963 1757.57 109.889 1758.19 109.889C1759.5 109.889 1760.57 110.246 1761.4 110.96C1762.25 111.661 1762.89 112.597 1763.3 113.769C1763.63 113.082 1764.03 112.496 1764.52 112.011C1765 111.512 1765.53 111.108 1766.11 110.798C1766.69 110.488 1767.3 110.259 1767.95 110.111C1768.61 109.963 1769.27 109.889 1769.93 109.889C1771.08 109.889 1772.09 110.064 1772.98 110.414C1773.87 110.765 1774.62 111.277 1775.23 111.95C1775.83 112.624 1776.29 113.446 1776.6 114.416C1776.93 115.386 1777.09 116.498 1777.09 117.751V130.948H1772.09V117.751C1772.09 116.43 1771.81 115.44 1771.23 114.78C1770.65 114.106 1769.8 113.769 1768.68 113.769C1768.17 113.769 1767.69 113.857 1767.24 114.032C1766.81 114.207 1766.43 114.463 1766.09 114.8C1765.77 115.123 1765.51 115.534 1765.32 116.033C1765.14 116.531 1765.04 117.104 1765.04 117.751V130.948H1760.03V117.751C1760.03 116.363 1759.75 115.352 1759.18 114.719C1758.63 114.086 1757.81 113.769 1756.71 113.769C1756 113.769 1755.33 113.951 1754.69 114.315C1754.07 114.665 1753.49 115.15 1752.96 115.77V130.948H1747.96Z" fill="black"></path><path d="M1790.96 109.889C1792.27 109.889 1793.47 110.098 1794.56 110.515C1795.67 110.933 1796.62 111.546 1797.41 112.354C1798.21 113.149 1798.83 114.133 1799.27 115.305C1799.71 116.464 1799.94 117.791 1799.94 119.287C1799.94 119.664 1799.92 119.981 1799.88 120.237C1799.85 120.479 1799.79 120.674 1799.69 120.823C1799.61 120.957 1799.5 121.058 1799.35 121.126C1799.2 121.18 1799.01 121.207 1798.78 121.207H1785.97C1786.12 123.335 1786.69 124.898 1787.69 125.895C1788.69 126.893 1790.01 127.391 1791.65 127.391C1792.46 127.391 1793.15 127.297 1793.73 127.108C1794.32 126.919 1794.84 126.711 1795.27 126.482C1795.71 126.253 1796.1 126.044 1796.42 125.855C1796.76 125.666 1797.08 125.572 1797.39 125.572C1797.59 125.572 1797.77 125.613 1797.92 125.693C1798.06 125.774 1798.19 125.889 1798.3 126.037L1799.75 127.856C1799.2 128.503 1798.58 129.048 1797.9 129.493C1797.21 129.924 1796.49 130.274 1795.73 130.544C1794.99 130.8 1794.23 130.982 1793.45 131.09C1792.68 131.197 1791.93 131.251 1791.21 131.251C1789.76 131.251 1788.42 131.015 1787.18 130.544C1785.94 130.059 1784.87 129.351 1783.95 128.422C1783.03 127.479 1782.31 126.32 1781.79 124.946C1781.26 123.558 1781 121.954 1781 120.135C1781 118.721 1781.23 117.394 1781.69 116.154C1782.14 114.901 1782.8 113.816 1783.65 112.9C1784.51 111.97 1785.55 111.236 1786.78 110.697C1788.02 110.158 1789.41 109.889 1790.96 109.889ZM1791.06 113.466C1789.61 113.466 1788.47 113.877 1787.65 114.699C1786.83 115.521 1786.3 116.686 1786.07 118.195H1795.45C1795.45 117.549 1795.36 116.942 1795.19 116.376C1795.01 115.797 1794.74 115.292 1794.38 114.861C1794.02 114.429 1793.56 114.093 1793 113.85C1792.45 113.594 1791.81 113.466 1791.06 113.466Z" fill="black"></path><path d="M1803.2 128.199C1803.2 127.782 1803.27 127.384 1803.42 127.007C1803.58 126.63 1803.8 126.306 1804.07 126.037C1804.35 125.767 1804.68 125.552 1805.06 125.39C1805.43 125.229 1805.84 125.148 1806.27 125.148C1806.69 125.148 1807.09 125.229 1807.46 125.39C1807.84 125.552 1808.16 125.767 1808.43 126.037C1808.7 126.306 1808.92 126.63 1809.08 127.007C1809.24 127.384 1809.32 127.782 1809.32 128.199C1809.32 128.631 1809.24 129.035 1809.08 129.412C1808.92 129.776 1808.7 130.093 1808.43 130.362C1808.16 130.631 1807.84 130.84 1807.46 130.989C1807.09 131.15 1806.69 131.231 1806.27 131.231C1805.84 131.231 1805.43 131.15 1805.06 130.989C1804.68 130.84 1804.35 130.631 1804.07 130.362C1803.8 130.093 1803.58 129.776 1803.42 129.412C1803.27 129.035 1803.2 128.631 1803.2 128.199Z" fill="black"></path><path d="M1828.45 114.598C1828.3 114.786 1828.15 114.935 1828 115.042C1827.87 115.15 1827.66 115.204 1827.39 115.204C1827.14 115.204 1826.89 115.13 1826.65 114.982C1826.4 114.82 1826.11 114.645 1825.78 114.456C1825.44 114.254 1825.04 114.079 1824.56 113.931C1824.11 113.769 1823.53 113.688 1822.85 113.688C1821.97 113.688 1821.2 113.85 1820.54 114.173C1819.88 114.483 1819.33 114.935 1818.89 115.527C1818.45 116.12 1818.13 116.841 1817.92 117.69C1817.7 118.525 1817.59 119.475 1817.59 120.54C1817.59 121.645 1817.71 122.628 1817.94 123.49C1818.18 124.353 1818.52 125.08 1818.97 125.673C1819.41 126.253 1819.95 126.697 1820.58 127.007C1821.22 127.303 1821.93 127.452 1822.73 127.452C1823.52 127.452 1824.16 127.357 1824.65 127.169C1825.14 126.967 1825.56 126.751 1825.9 126.522C1826.24 126.279 1826.53 126.064 1826.77 125.875C1827.02 125.673 1827.31 125.572 1827.62 125.572C1828.02 125.572 1828.32 125.727 1828.53 126.037L1829.96 127.856C1829.41 128.503 1828.81 129.048 1828.16 129.493C1827.52 129.924 1826.84 130.274 1826.14 130.544C1825.45 130.8 1824.74 130.982 1824 131.09C1823.26 131.197 1822.52 131.251 1821.8 131.251C1820.52 131.251 1819.31 131.015 1818.18 130.544C1817.05 130.059 1816.06 129.358 1815.21 128.442C1814.37 127.526 1813.71 126.407 1813.21 125.087C1812.72 123.753 1812.48 122.237 1812.48 120.54C1812.48 119.017 1812.69 117.609 1813.13 116.316C1813.57 115.009 1814.22 113.884 1815.07 112.941C1815.91 111.984 1816.97 111.236 1818.22 110.697C1819.47 110.158 1820.91 109.889 1822.54 109.889C1824.09 109.889 1825.45 110.138 1826.61 110.637C1827.78 111.135 1828.83 111.849 1829.76 112.779L1828.45 114.598Z" fill="black"></path><path d="M1842.39 109.889C1843.94 109.889 1845.34 110.138 1846.6 110.637C1847.86 111.135 1848.94 111.842 1849.83 112.759C1850.72 113.675 1851.41 114.793 1851.89 116.114C1852.38 117.434 1852.62 118.909 1852.62 120.54C1852.62 122.183 1852.38 123.666 1851.89 124.986C1851.41 126.306 1850.72 127.431 1849.83 128.361C1848.94 129.291 1847.86 130.005 1846.6 130.503C1845.34 131.002 1843.94 131.251 1842.39 131.251C1840.84 131.251 1839.44 131.002 1838.17 130.503C1836.9 130.005 1835.82 129.291 1834.92 128.361C1834.03 127.431 1833.33 126.306 1832.83 124.986C1832.35 123.666 1832.11 122.183 1832.11 120.54C1832.11 118.909 1832.35 117.434 1832.83 116.114C1833.33 114.793 1834.03 113.675 1834.92 112.759C1835.82 111.842 1836.9 111.135 1838.17 110.637C1839.44 110.138 1840.84 109.889 1842.39 109.889ZM1842.39 127.411C1844.12 127.411 1845.39 126.832 1846.21 125.673C1847.05 124.514 1847.47 122.817 1847.47 120.58C1847.47 118.343 1847.05 116.639 1846.21 115.467C1845.39 114.295 1844.12 113.709 1842.39 113.709C1840.64 113.709 1839.35 114.301 1838.51 115.487C1837.68 116.659 1837.26 118.357 1837.26 120.58C1837.26 122.803 1837.68 124.501 1838.51 125.673C1839.35 126.832 1840.64 127.411 1842.39 127.411Z" fill="black"></path><path d="M1856.92 130.948V110.212H1859.97C1860.62 110.212 1861.04 110.515 1861.24 111.122L1861.57 112.658C1861.93 112.253 1862.31 111.883 1862.7 111.546C1863.1 111.209 1863.53 110.919 1863.97 110.677C1864.43 110.434 1864.92 110.246 1865.43 110.111C1865.95 109.963 1866.53 109.889 1867.15 109.889C1868.45 109.889 1869.52 110.246 1870.36 110.96C1871.21 111.661 1871.84 112.597 1872.26 113.769C1872.58 113.082 1872.99 112.496 1873.47 112.011C1873.96 111.512 1874.49 111.108 1875.07 110.798C1875.65 110.488 1876.26 110.259 1876.91 110.111C1877.57 109.963 1878.23 109.889 1878.89 109.889C1880.03 109.889 1881.05 110.064 1881.94 110.414C1882.83 110.765 1883.58 111.277 1884.18 111.95C1884.79 112.624 1885.25 113.446 1885.56 114.416C1885.88 115.386 1886.04 116.498 1886.04 117.751V130.948H1881.05V117.751C1881.05 116.43 1880.76 115.44 1880.18 114.78C1879.6 114.106 1878.75 113.769 1877.63 113.769C1877.12 113.769 1876.64 113.857 1876.2 114.032C1875.77 114.207 1875.38 114.463 1875.05 114.8C1874.72 115.123 1874.47 115.534 1874.28 116.033C1874.09 116.531 1874 117.104 1874 117.751V130.948H1868.98V117.751C1868.98 116.363 1868.7 115.352 1868.14 114.719C1867.58 114.086 1866.76 113.769 1865.67 113.769C1864.96 113.769 1864.28 113.951 1863.65 114.315C1863.03 114.665 1862.45 115.15 1861.91 115.77V130.948H1856.92Z" fill="black"></path><path d="M1885.9 177.474C1885.9 203.635 1864.69 224.842 1838.53 224.842C1812.37 224.842 1791.16 203.635 1791.16 177.474C1791.16 151.313 1812.37 130.105 1838.53 130.105C1864.69 130.105 1885.9 151.313 1885.9 177.474Z" fill="white"></path><path fill-rule="evenodd" clip-rule="evenodd" d="M1838.53 217.263C1860.5 217.263 1878.32 199.449 1878.32 177.474C1878.32 155.499 1860.5 137.684 1838.53 137.684C1816.55 137.684 1798.74 155.499 1798.74 177.474C1798.74 199.449 1816.55 217.263 1838.53 217.263ZM1838.53 224.842C1864.69 224.842 1885.9 203.635 1885.9 177.474C1885.9 151.313 1864.69 130.105 1838.53 130.105C1812.37 130.105 1791.16 151.313 1791.16 177.474C1791.16 203.635 1812.37 224.842 1838.53 224.842Z" fill="black"></path><path fill-rule="evenodd" clip-rule="evenodd" d="M1865.53 209.532C1867.01 208.052 1869.41 208.052 1870.89 209.532L1918.26 256.9C1919.74 258.38 1919.74 260.779 1918.26 262.259C1916.78 263.739 1914.38 263.739 1912.9 262.259L1865.53 214.891C1864.05 213.411 1864.05 211.012 1865.53 209.532Z" fill="black"></path><g clip-path="url(#clip2)"><path d="M948.003 138.312C940.29 138.312 933.811 143.711 932.147 150.932C924.926 152.596 919.527 159.076 919.527 166.789C919.527 175.763 926.827 183.061 935.799 183.061C943.512 183.061 949.994 177.662 951.658 170.441C958.879 168.777 964.275 162.297 964.275 154.585C964.275 145.61 956.978 138.312 948.003 138.312ZM948.003 162.721H943.935V166.789C943.935 171.276 940.287 174.925 935.799 174.925C931.314 174.925 927.663 171.276 927.663 166.789C927.663 162.301 931.314 158.653 935.799 158.653H939.867V154.585C939.867 150.097 943.518 146.449 948.003 146.449C952.491 146.449 956.139 150.097 956.139 154.585C956.139 159.072 952.491 162.721 948.003 162.721Z" fill="black"></path><path d="M998.503 69.1576L968.342 38.9971L938.184 69.1576L968.342 99.318L998.503 69.1576ZM968.342 87.8132L961.89 81.3616L980.546 62.7059L987 69.1576L968.342 87.8132ZM974.796 56.9535L968.342 63.4051L961.89 56.9535L968.342 50.5019L974.796 56.9535ZM956.138 62.7059L962.592 69.1576L956.138 75.6092L949.686 69.1576L956.138 62.7059Z" fill="black"></path><path d="M880.037 127.301L904.445 102.895L910.198 108.647L885.792 133.053L880.037 127.301Z" fill="black"></path><path d="M891.049 48.8165C891.049 57.7908 898.349 65.0886 907.321 65.0886C916.295 65.0886 923.593 57.7908 923.593 48.8165C923.593 45.843 922.735 43.0919 921.336 40.6924C922.792 38.2155 923.593 35.4207 923.593 32.5445C923.593 23.5702 916.295 16.2725 907.321 16.2725C898.349 16.2725 891.049 23.5702 891.049 32.5445C891.049 35.4207 891.851 38.2155 893.307 40.6924C891.909 43.0919 891.049 45.843 891.049 48.8165ZM907.321 56.9526C902.836 56.9526 899.185 53.3037 899.185 48.8165C899.185 44.3294 902.836 40.6805 907.321 40.6805C911.808 40.6805 915.457 44.3294 915.457 48.8165C915.457 53.3037 911.808 56.9526 907.321 56.9526ZM907.321 24.4085C911.808 24.4085 915.457 28.0574 915.457 32.5445C915.457 33.3172 915.328 34.0005 915.149 34.6401C912.817 33.345 910.173 32.5445 907.321 32.5445C904.47 32.5445 901.827 33.345 899.495 34.6401C899.316 34.0005 899.185 33.3172 899.185 32.5445C899.185 28.0574 902.836 24.4085 907.321 24.4085Z" fill="black"></path><path d="M1075.75 122.04C1061.03 122.04 1046.6 117.293 1034.69 108.698C1036.49 105.299 1037.5 101.517 1037.5 97.6322C1037.5 91.2978 1035.04 85.3428 1030.56 80.8676L985.109 35.4203C980.695 31.0067 974.585 28.4761 968.344 28.4761C962.105 28.4761 955.995 31.0067 951.581 35.4203L939.868 47.1317V20.34C939.868 9.12521 930.745 0 919.528 0H854.44C843.225 0 834.1 9.12521 834.1 20.34V142.38C834.1 153.595 843.225 162.72 854.44 162.72H889.369L919.037 192.388C923.451 196.802 929.561 199.332 935.8 199.332C942.041 199.332 948.151 196.802 952.565 192.388L972.66 172.293C975.135 206.569 996.167 237.307 1027.66 251.843L1029.36 252.632L1031.07 251.847C1064.63 236.356 1086.32 202.465 1086.32 165.499V122.04H1075.75ZM931.732 20.34V55.2677L874.78 112.22V8.13602H919.528C926.258 8.13602 931.732 13.6123 931.732 20.34ZM842.236 142.38V20.34C842.236 15.0445 845.65 10.5693 850.372 8.88487V153.832C845.65 152.151 842.236 147.676 842.236 142.38ZM858.508 154.584V8.13602H866.644V130.176C866.644 136.417 869.174 142.527 873.588 146.941L881.233 154.584H858.508ZM946.812 186.636C943.912 189.536 939.902 191.196 935.8 191.196C931.7 191.196 927.69 189.536 924.79 186.636L879.34 141.189C876.44 138.288 874.78 134.276 874.78 130.176C874.78 126.019 876.401 122.106 879.34 119.164L957.334 41.1727C960.234 38.2766 964.244 36.6121 968.344 36.6121C972.446 36.6121 976.456 38.2766 979.356 41.1727L1024.81 86.62C1027.75 89.5618 1029.36 93.4748 1029.36 97.6322C1029.36 101.138 1028.14 104.541 1025.97 107.286C1020.14 111.805 1013.65 115.364 1006.77 117.847L1026.98 97.6322L1009.02 79.6758L972.412 116.288V161.036L946.812 186.636ZM1009.02 104.084L1002.57 97.6322L1009.02 91.1806L1015.48 97.6322L1009.02 104.084ZM996.82 103.385L1003.27 109.836L996.82 116.288L990.368 109.836L996.82 103.385ZM984.616 115.589L990.597 121.568C988.07 121.85 985.532 122.04 982.977 122.04H980.548V119.657L984.616 115.589ZM1078.18 165.499C1078.18 198.669 1059.09 229.139 1029.36 243.646C999.645 229.139 980.548 198.669 980.548 165.499V130.176H982.977C999.629 130.176 1015.97 124.793 1029.36 114.961C1042.76 124.793 1059.11 130.176 1075.75 130.176H1078.18V165.499Z" fill="black"></path><path d="M1045.63 163.47V146.449C1045.63 137.475 1038.34 130.177 1029.36 130.177C1020.39 130.177 1013.09 137.475 1013.09 146.449V163.47C1008.37 165.154 1004.95 169.629 1004.95 174.925V199.333C1004.95 206.061 1010.43 211.537 1017.16 211.537H1041.57C1048.29 211.537 1053.77 206.061 1053.77 199.333V174.925C1053.77 169.629 1050.36 165.154 1045.63 163.47V163.47ZM1029.36 138.313C1033.85 138.313 1037.5 141.962 1037.5 146.449V162.721H1021.23V146.449C1021.23 141.962 1024.88 138.313 1029.36 138.313ZM1045.63 199.333C1045.63 201.577 1043.81 203.401 1041.57 203.401H1017.16C1014.91 203.401 1013.09 201.577 1013.09 199.333V174.925C1013.09 172.68 1014.91 170.857 1017.16 170.857H1041.57C1043.81 170.857 1045.63 172.68 1045.63 174.925V199.333Z" fill="black"></path></g><path fill-rule="evenodd" clip-rule="evenodd" d="M723.827 119.731L747.943 143.847C749.423 145.327 749.423 147.726 747.943 149.206L723.827 173.322C722.347 174.802 719.948 174.802 718.468 173.322C716.988 171.842 716.988 169.443 718.468 167.963L736.115 150.316H341.053V142.737H736.115L718.468 125.09C716.988 123.61 716.988 121.211 718.468 119.731C719.948 118.251 722.347 118.251 723.827 119.731Z" fill="black"></path><path fill-rule="evenodd" clip-rule="evenodd" d="M1196.17 173.322L1172.06 149.206C1170.58 147.726 1170.58 145.326 1172.06 143.847L1196.17 119.731C1197.65 118.251 1200.05 118.251 1201.53 119.731C1203.01 121.21 1203.01 123.61 1201.53 125.09L1183.89 142.737L1578.95 142.737L1578.95 150.316L1183.89 150.316L1201.53 167.963C1203.01 169.443 1203.01 171.842 1201.53 173.322C1200.05 174.802 1197.65 174.802 1196.17 173.322Z" fill="black"></path></g><defs><clipPath id="clip0"><rect width="1920" height="371" fill="white"></rect></clipPath><clipPath id="clip1"><rect width="252.632" height="252.632" fill="white"></rect></clipPath><clipPath id="clip2"><rect x="833.684" width="252.632" height="252.632" fill="white"></rect></clipPath></defs></svg> 