<?xml version="1.0" encoding="UTF-8"?> <svg xmlns="http://www.w3.org/2000/svg" width="551" height="470" viewBox="0 0 551 470" fill="none"><g clip-path="url(#clip0)"><path d="M371.235 77C367.608 77 362.663 75.4666 358.267 69.3328C348.816 56.189 346.618 43.5929 351.563 30.8872C353.761 25.1916 358.597 20.5912 364.202 18.8387C368.488 17.5244 375.191 17.0862 383.104 22.6723C397.501 32.7492 392.885 56.8462 389.588 63.9657C387.39 68.7851 380.466 76.1237 372.444 76.8905C372.114 77 371.675 77 371.235 77ZM369.696 21.358C368.158 21.358 366.729 21.577 365.191 22.0151C360.465 23.4391 356.399 27.3822 354.64 32.0921C350.135 43.7024 352.223 55.2032 360.905 67.4708C364.202 72.0711 367.938 74.1522 372.114 73.7141C378.488 73.1664 384.643 66.8136 386.621 62.6514C387.94 59.694 389.918 52.4649 389.808 44.6882C389.698 38.4449 388.049 30.1205 381.236 25.3011C377.389 22.6723 373.433 21.358 369.696 21.358Z" fill="black"></path><path d="M378.178 36.8558C369.16 42.1234 357.581 52.9877 345 39.4896C339.878 33.1246 354.797 2.50706 381.407 18.6389C391.427 15.3467 401.67 26.8694 392.318 52L387.642 50.9026C387.085 44.9766 387.085 31.5883 378.178 36.8558Z" fill="black"></path><path d="M392.698 54L385.505 52.2337L385.394 51.0193C385.394 50.4674 385.284 49.805 385.284 49.0322C385.062 45.3892 384.509 38.5447 382.075 37.3303C381.3 36.8888 380.083 37.2199 378.534 38.1031C377.317 38.7655 376.099 39.6486 374.772 40.4214C366.473 45.8308 355.186 53.1168 343.456 40.4214L343.346 40.311C340.248 36.3368 342.682 26.9532 348.768 20.2191C352.751 15.6929 363.927 6.41972 381.079 16.5761C385.173 15.4721 389.267 16.5761 392.255 19.6671C398.23 25.7389 398.562 38.1031 393.251 52.5649L392.698 54ZM388.603 49.5842L390.595 50.0258C397.013 31.4794 391.702 23.8621 389.821 21.9854C387.607 19.6671 384.509 18.8944 381.3 19.9983L380.526 20.2191L379.862 19.7775C365.034 10.7251 355.518 17.5696 351.092 22.427C345.67 28.6091 344.12 36.116 345.78 38.2135C355.628 48.8114 364.37 43.1813 372.78 37.6615C374.108 36.7784 375.435 36.0056 376.653 35.2328C379.308 33.6873 381.521 33.3561 383.513 34.3497C387.497 36.4472 388.05 43.5125 388.493 48.701C388.603 49.1426 388.603 49.3634 388.603 49.5842Z" fill="black"></path><path d="M363.5 71L360.02 83.51L362.93 84.25L366 73L363.5 71Z" fill="black"></path><path d="M386.12 64.32L384 67.5L386.5 79.71L389.43 79.05L386.12 64.32Z" fill="black"></path><path d="M408.9 192.7C391.4 204.5 362.9 199.5 362.9 199.5L361.9 86.2C361.9 86.2 373.7 99.1 388.6 84.6L408.9 192.7Z" fill="black"></path><path d="M377.1 202C368.9 202 363 201 362.7 200.9L361.5 200.7L360.5 82.2L363.1 85.1C363.1 85.1 367.4 89.7 373.8 89.9C378.4 90 383.1 87.8 387.6 83.4L389.6 81.4L410.6 193.2L409.8 193.8C400.5 200.1 388.1 201.7 379.4 201.9C378.6 202 377.8 202 377.1 202ZM364.4 198.2C369.9 199 392.5 201.3 407.3 192L387.6 87.5C383.1 91.3 378.4 93.1 373.6 93C369.2 92.9 365.6 91 363.4 89.5L364.4 198.2Z" fill="black"></path><path d="M387.4 75.9C387.4 75.9 408.6 77.7 427.5 70.1C446.4 62.5 497.7 17.9 497.7 17.9L502 44L433.8 119.3L457.9 235.4C457.9 235.4 452.8 243.1 446.1 251.4C439.5 259.7 417.7 259.8 412.7 228.9C407.7 198 387.4 75.9 387.4 75.9Z" fill="white"></path><path d="M435.3 257.6C433.8 257.6 432.2 257.4 430.6 257C416.6 253.3 412.4 236.3 411.2 229.1C406.3 198.6 386.1 77.3 385.9 76.1L385.6 74.2L387.5 74.4C387.7 74.4 408.6 76.1 426.9 68.7C445.4 61.3 496.2 17.2 496.7 16.8L498.7 15L503.6 44.5L435.4 119.8L459.5 235.8L459.2 236.3C459.1 236.4 454 244.2 447.3 252.4C444.6 255.7 440.1 257.6 435.3 257.6ZM389.2 77.5C391.8 93 409.6 200.2 414.2 228.7C416.5 242.6 422.7 251.9 431.4 254.2C436.6 255.6 442.2 254.1 445 250.5C450.6 243.6 455.1 237 456.4 235.1L432.3 118.9L500.5 43.6L496.8 20.9C487 29.4 445.2 64.8 428.2 71.6C412.1 77.9 394.9 77.7 389.2 77.5Z" fill="black"></path><path d="M384.6 81.5C384.6 81.5 405.8 83.3 424.7 75.7C443.7 68.1 495 23.5 495 23.5L499.3 49.6L431 124.8L455.1 240.9C455.1 240.9 450 248.6 443.3 256.9C436.7 265.2 414.9 265.3 409.9 234.4C404.9 203.5 384.6 81.5 384.6 81.5Z" fill="#FF5956"></path><path d="M345.6 142.4C345.7 183.1 333.2 227.7 333.2 227.7L315.4 223.4C329.4 160.6 329.6 108.4 329.6 108.4L361 81.2C361 81.2 371.7 126.9 364 191C356.3 255.1 357.5 259.4 344.6 267.1C331.7 274.8 320.9 273.1 320.9 273.1L322.8 249.4" fill="white"></path><path d="M323.7 274.7C321.9 274.7 320.8 274.5 320.6 274.5L319.2 274.3L321.2 249.2C321.3 248.4 322 247.8 322.8 247.8C323.6 247.9 324.2 248.6 324.2 249.4L322.4 271.6C325.6 271.7 334.1 271.4 343.7 265.7C354.4 259.3 354.8 255.8 359.9 211.9C360.6 205.7 361.4 198.6 362.4 190.7C369 135.9 362 94.2 359.9 83.9L330.9 109C330.8 115.3 329.7 164.4 317 222.2L331.9 225.8C334 217.9 344 178.3 343.9 142.3C343.9 141.5 344.6 140.8 345.4 140.8C346.2 140.8 346.9 141.5 346.9 142.3C347 182.7 334.6 227.6 334.4 228L334 229.4L313.4 224.4L313.7 223C327.5 161.1 327.9 108.8 327.9 108.3V107.6L361.7 78.3L362.3 80.7C362.4 81.2 373 127.4 365.3 191C364.3 199 363.5 206 362.8 212.2C357.7 256.4 357.1 261.1 345.2 268.2C336.1 273.8 328 274.7 323.7 274.7Z" fill="black"></path><path d="M360.4 75.8L326.1 104.3C326.1 104.3 325.9 159 310.6 224.7L324 227.8L318.6 251.9L316.5 276.7C316.5 276.7 328.3 278.6 342.4 270.5C356.5 262.4 355.2 257.9 363.6 190.8C372.1 123.7 360.4 75.8 360.4 75.8Z" fill="#FF5956"></path><path d="M99.9001 442.2L81.6001 432.8L82.0001 431.6C82.2001 431.1 99.8001 376.4 108.9 352.9C117.9 329.8 111.5 254.5 111.4 253.8L111.3 252.4L166.5 245.8L216.8 313.3V313.8L211.6 415L180.7 420.1L180.1 330.1L157 311.1C147.2 377.5 101.2 440.4 100.7 441.1L99.9001 442.2ZM85.3001 431.3L99.0001 438.3C105 429.8 145.8 370.6 154.3 308.9L140.5 297.6C139.9 297.1 139.8 296.1 140.3 295.5C140.8 294.9 141.8 294.8 142.4 295.3L183 328.7L183.6 416.5L208.7 412.4L213.8 314.1L165.1 248.8L114.5 254.8C115.4 265.7 120.3 331.6 111.7 353.8C103.5 375.4 88.0001 423.1 85.3001 431.3Z" fill="black"></path><path d="M231.7 187.7L197.7 186.2C197.7 186.2 184.5 168.3 175.1 150.6C170.6 142.3 159.6 137.7 149.2 135.1H113.5C108.5 137.5 100.5 142 96.2 148.4C92.3 154.3 86.3 168.6 85.5 179.4C82 221.4 68.7 285.9 68.7 285.9L92.1 288.5L99.4 259.6L100 282.5L172.3 259.9L169 200.5C171.2 203.2 173.6 206 176.3 209.1C189.8 224.7 231.7 207.6 231.7 207.6V187.7Z" fill="#FF5956"></path><path d="M366.7 154.4C366.7 154.4 370.9 173.1 370.6 196.6C370.2 227.1 364.1 264.7 351.2 270.8" fill="black"></path><path d="M351.2 272.3C350.6 272.3 350.1 272 349.8 271.4C349.4 270.7 349.8 269.8 350.5 269.4C362.1 263.9 368.6 228.6 369 196.5C369.3 173.4 365.2 154.8 365.1 154.6C364.9 153.8 365.4 153 366.2 152.8C367 152.6 367.8 153.1 368 153.9C368 154.1 372.2 173 371.9 196.4C371.7 212.9 369.8 229.8 366.9 243C363.2 259.2 358.1 268.9 351.7 272C351.6 272.2 351.4 272.3 351.2 272.3Z" fill="black"></path><path d="M435.3 257.6C433.8 257.6 432.2 257.4 430.6 257C416.6 253.3 412.4 236.3 411.2 229.1C406.3 198.6 386.1 77.3 385.9 76.1L385.6 74.2L387.5 74.4C387.7 74.4 408.6 76.1 426.9 68.7C445.4 61.3 496.2 17.2 496.7 16.8L498.7 15L503.6 44.5L435.4 119.8L459.5 235.8L459.2 236.3C459.1 236.4 454 244.2 447.3 252.4C444.6 255.7 440.1 257.6 435.3 257.6ZM389.2 77.5C391.8 93 409.6 200.2 414.2 228.7C416.5 242.6 422.7 251.9 431.4 254.2C436.6 255.6 442.2 254.1 445 250.5C450.6 243.6 455.1 237 456.4 235.1L432.3 118.9L500.5 43.6L496.8 20.9C487 29.4 445.2 64.8 428.2 71.6C412.1 77.9 394.9 77.7 389.2 77.5Z" fill="black"></path><path d="M500.9 39C500.4 39 499.9 38.7 499.6 38.3C499.2 37.6 499.4 36.7 500.1 36.2L511.3 29.3L509.4 20.7L520.3 9.9L519.8 5.9L499.5 23.5C498.9 24 497.9 24 497.4 23.3C496.9 22.7 496.9 21.7 497.6 21.2L522 0L523.5 11L512.8 21.6L514.7 30.6L501.7 38.7C501.4 38.9 501.2 39 500.9 39Z" fill="black"></path><path d="M317.7 224L311.8 241.7L314.6 249.4H327.6L329.2 226.7" fill="white"></path><path d="M329 250.9H313.6L310.3 241.7L316.4 223.5C316.7 222.7 317.5 222.3 318.3 222.6C319.1 222.9 319.5 223.7 319.2 224.5L313.5 241.7L315.8 247.9H326.4L327.9 226.6C328 225.8 328.7 225.1 329.5 225.2C330.3 225.3 330.9 226 330.9 226.8L329 250.9Z" fill="black"></path><path d="M360.7 384.1H336.2L351 259.8C351.1 259 351.8 258.4 352.7 258.5C353.5 258.6 354.1 259.3 354 260.2L339.5 381.1H358.4L396.2 239.5C396.4 238.7 397.2 238.2 398 238.4C398.8 238.6 399.3 239.4 399.1 240.2L360.7 384.1Z" fill="black"></path><path d="M339.8 383.1L315.3 397.5H360.5L358.8 383.1" fill="black"></path><path d="M362.2 399H309.8L339.1 381.8C339.8 381.4 340.7 381.6 341.2 382.3C341.6 383 341.4 383.9 340.7 384.4L320.8 396H358.8L357.3 383.3C357.2 382.5 357.8 381.7 358.6 381.6C359.4 381.5 360.2 382.1 360.3 382.9L362.2 399Z" fill="black"></path><path d="M103.4 278.4L101.1 196.8C101.1 196 101.7 195.3 102.6 195.3C103.4 195.3 104.1 195.9 104.1 196.8L106.2 274.4L173.7 253.2L169.2 171.5C169.2 170.7 169.8 170 170.6 169.9C171.4 169.9 172.1 170.5 172.2 171.3L176.9 255.4L103.4 278.4Z" fill="black"></path><path d="M232.9 200.3C232.2 200.3 231.5 199.7 231.4 199C231.3 198.2 231.9 197.4 232.7 197.3L258.9 194.2L259 186.4L248.1 182.6L233.5 189.1C232.7 189.4 231.9 189.1 231.5 188.3C231.2 187.5 231.5 186.7 232.3 186.3L247.9 179.4L262 184.4L261.9 197L233.1 200.5C233 200.3 233 200.3 232.9 200.3Z" fill="black"></path><path d="M98.2 283.7L72.5 280.9L72.8 279.3C72.9 278.7 85.7 216.1 89.1 175.9C90 165 96 150.7 99.9 145C104.4 138.3 112.7 133.7 117.3 131.6L117.6 131.5H153C166.6 134.8 175.5 140.2 179.3 147.4C187.4 162.6 198.5 178.1 200.8 181.2L234.6 182.6L234.8 204.4L233.9 204.8C232.2 205.5 191.9 221.6 178.2 205.8C175.1 202.3 173 199.8 171.2 197.5C170.7 196.9 170.8 195.9 171.4 195.4C172 194.9 173 195 173.5 195.6C175.3 197.9 177.4 200.3 180.5 203.9C186.9 211.2 200.6 210.4 211 208.4C220.5 206.6 229 203.5 231.8 202.5L231.6 185.6L199.2 184.2L198.8 183.6C198.7 183.4 185.8 165.9 176.7 148.8C173.4 142.5 165 137.6 152.5 134.5H118.3C114.7 136.2 106.5 140.6 102.4 146.7C98.8 152.1 93 165.7 92.1 176.1C89 212.9 78.1 268.1 76.1 278.3L96 280.5L102.8 253.7C103 252.9 103.8 252.4 104.6 252.6C105.4 252.8 105.9 253.6 105.7 254.4L98.2 283.7Z" fill="black"></path><path d="M185.4 418L183 431.8H227.2L202.5 415.1" fill="black"></path><path d="M232.1 433.3H181.2L183.9 417.7C184 416.9 184.8 416.3 185.6 416.5C186.4 416.6 187 417.4 186.8 418.2L184.7 430.2H222.2L201.6 416.2C200.9 415.7 200.7 414.8 201.2 414.1C201.7 413.4 202.6 413.2 203.3 413.7L232.1 433.3Z" fill="black"></path><path d="M84.5 435L73.2 450.6L96.3 466.1H116.2L95.1 438" fill="black"></path><path d="M119.2 467.6H95.8L71 451L83.2 434.1C83.7 433.4 84.6 433.3 85.3 433.8C86 434.3 86.1 435.2 85.6 435.9L75.2 450.2L96.6 464.6H113L93.7 438.9C93.2 438.2 93.3 437.3 94 436.8C94.7 436.3 95.6 436.4 96.1 437.1L119.2 467.6Z" fill="black"></path><path d="M118.089 133.5C119.917 127 118.713 133.608 118.5 133.5C117.648 133.175 116.001 135.367 116.32 134.5C117.598 131.357 119.514 124.695 116.32 121.118C113.02 117.434 106.312 106.271 107.057 95.3255C107.483 89.365 109.932 84.3798 114.404 80.4784C124.837 71.5918 135.378 73.976 139.53 75.3848C145.599 77.4439 150.07 81.7789 151.135 86.3306C151.348 87.4143 151.667 88.7148 152.093 90.232C155.287 103.562 158.055 117 153.903 121.877C153.051 122.852 151.561 123.936 149.006 123.719C148.154 123.611 147.515 122.852 147.622 121.985C147.728 121.118 148.473 120.468 149.325 120.577C150.603 120.685 151.135 120.251 151.561 119.818C155.074 115.7 151.029 99.1186 149.112 91.099C148.793 89.5818 148.367 88.1729 148.154 87.0892C147.409 83.7296 143.576 80.2616 138.678 78.5277C135.165 77.3356 125.796 75.2765 116.639 83.0794C112.807 86.3306 110.677 90.5571 110.358 95.5423C109.719 105.296 115.894 115.7 118.769 118.951C124.092 124.695 120.213 133.458 120 134C119.574 134.542 118.728 133.5 118.089 133.5Z" fill="black"></path><path d="M142.5 133.5C141.779 133.5 141.706 134.261 141.5 133.5L139.013 119.862C138.91 118.992 139.425 118.123 140.249 118.014C141.073 117.905 141.897 118.449 142 119.319L144.5 134C144.603 134.87 143.824 133.391 143 133.5C142.5 132.5 142 132 142.5 133.5Z" fill="black"></path><path d="M139.349 100.103C139.349 100.103 136.234 92.1441 131.722 94.6178C127.318 97.0915 130.863 104.405 130.863 104.405C130.863 104.405 130.326 111.073 126.244 115.268C122.162 119.462 115.609 120 115.609 120C115.609 120 101 110.751 101 93.2196C101 75.6887 108.734 71.3866 122.162 68.1601C135.59 64.9335 153.744 68.6978 154.818 76.2265C155.892 83.7551 152.132 84.7231 145.687 86.1212C139.242 87.5194 143.109 97.6293 143.109 97.6293L139.349 100.103Z" fill="black"></path><path d="M81.3 280.3L75 289.8L78.1 307.6L89.4 310L92.9 281.9" fill="white"></path><path d="M90.6999 311.8L76.7999 308.8L73.3999 289.4L79.9999 279.4C80.4999 278.7 81.3999 278.5 82.0999 279C82.7999 279.5 82.9999 280.4 82.4999 281.1L76.4999 290.1L79.2999 306.3L87.9999 308.2L91.2999 281.7C91.3999 280.9 92.1999 280.3 92.9999 280.4C93.7999 280.5 94.3999 281.3 94.2999 282.1L90.6999 311.8Z" fill="black"></path><path d="M156.5 469.9H0V466.9H153.5V432.6H271.4V435.6H156.5V469.9Z" fill="black"></path><path d="M272.9 435.6H269.9V398.3H389.3V401.3H272.9V435.6Z" fill="black"></path><path d="M389.3 401.3H386.3V364H550.7V367H389.3V401.3Z" fill="black"></path><path d="M448.1 348.7H418.5L418.8 275L393.6 252.2C393 251.6 392.9 250.7 393.5 250.1C394.1 249.5 395 249.4 395.6 250L421.8 273.6L421.5 345.7H445.5L456.8 247.8L453.4 243.7C452.9 243.1 453 242.1 453.6 241.6C454.2 241.1 455.2 241.2 455.7 241.8L459.9 246.9L448.1 348.7Z" fill="black"></path><path d="M439.5 347.2L464.7 363.2H419.5L421.9 347.2" fill="black"></path><path d="M469.9 364.7H417.8L420.5 347C420.6 346.2 421.4 345.6 422.2 345.7C423 345.8 423.6 346.6 423.5 347.4L421.4 361.7H459.7L438.9 348.5C438.2 348.1 438 347.1 438.4 346.4C438.8 345.7 439.8 345.5 440.5 345.9L469.9 364.7Z" fill="black"></path><path d="M139.067 100.479C140.684 103.615 131.094 115.951 139.498 120.238C147.902 124.524 153.505 126.092 156.522 119.82C159.539 113.651 158.03 100.165 151.135 104.765C145.532 108.215 142.946 98.0741 142.946 98.0741C142.946 98.0741 137.451 97.3423 139.067 100.479Z" fill="black"></path><path d="M333.2 229.2C333.1 229.2 333 229.2 332.8 229.2L315 224.9C314.2 224.7 313.7 223.9 313.9 223.1C314.1 222.3 314.9 221.8 315.7 222L333.5 226.3C334.3 226.5 334.8 227.3 334.6 228.1C334.5 228.7 333.9 229.2 333.2 229.2Z" fill="black"></path><path d="M115 286.2L176.8 262L171.9 255.4L114.4 273.4L115 286.2Z" fill="black"></path><path d="M113.6 288.3L112.8 272.3L172.4 253.6L179.1 262.6L113.6 288.3ZM116 274.4L116.4 284L174.4 261.3L171.3 257.1L116 274.4Z" fill="black"></path><path d="M323.7 274.7C321.9 274.7 320.8 274.5 320.6 274.5L319.2 274.3L321.2 249.2C321.3 248.4 322 247.8 322.8 247.8C323.6 247.9 324.2 248.6 324.2 249.4L322.4 271.6C325.6 271.7 334.1 271.4 343.7 265.7C354.4 259.3 354.8 255.8 359.9 211.9C360.6 205.7 361.4 198.6 362.4 190.7C369 135.9 362 94.2 359.9 83.9L330.9 109C330.8 115.3 329.7 164.4 317 222.2L331.9 225.8C334 217.9 344 178.3 343.9 142.3C343.9 141.5 344.6 140.8 345.4 140.8C346.2 140.8 346.9 141.5 346.9 142.3C347 182.7 334.6 227.6 334.4 228L334 229.4L313.4 224.4L313.7 223C327.5 161.1 327.9 108.8 327.9 108.3V107.6L361.7 78.3L362.3 80.7C362.4 81.2 373 127.4 365.3 191C364.3 199 363.5 206 362.8 212.2C357.7 256.4 357.1 261.1 345.2 268.2C336.1 273.8 328 274.7 323.7 274.7Z" fill="black"></path><path d="M104.8 277.9C104 277.9 103.3 277.3 103.3 276.4L101.1 198C101.1 197.2 101.7 196.5 102.6 196.5C103.4 196.5 104.1 197.1 104.1 198L106.3 276.4C106.3 277.1 105.7 277.8 104.8 277.9Z" fill="black"></path><path d="M371.612 54.3793C372.706 54.1094 373.296 52.6819 372.928 51.1908C372.56 49.6997 371.375 48.7098 370.28 48.9797C369.186 49.2496 368.596 50.6771 368.964 52.1682C369.332 53.6593 370.517 54.6492 371.612 54.3793Z" fill="black"></path><path d="M359.663 57.5567C360.757 57.2868 361.347 55.8592 360.979 54.3682C360.611 52.8771 359.426 51.8871 358.331 52.157C357.236 52.427 356.647 53.8545 357.015 55.3456C357.382 56.8367 358.568 57.8266 359.663 57.5567Z" fill="black"></path><path d="M363.133 65.0276C363.133 65.0276 371.873 65.3384 375 62C375 62 372.705 67.5039 367.271 66.9625C361.848 66.4212 363.133 65.0276 363.133 65.0276Z" fill="black"></path></g><defs><clipPath id="clip0"><rect width="550.7" height="469.9" fill="white"></rect></clipPath></defs></svg> 