<?xml version="1.0" encoding="UTF-8"?> <svg xmlns="http://www.w3.org/2000/svg" width="126" height="144" viewBox="0 0 126 144" fill="none"><path d="M70 60.3L71.2 79.3C71.2 79.9 70.8 80.4 70.2 80.5C69.6 80.5 69.1 80.1 69 79.5C69 79.5 69 79.5 69 79.4V60.4C69 60.1 69.2 59.9 69.5 59.9C69.8 59.9 70 60.1 70 60.3Z" fill="black"></path><path d="M60.0001 84.7C60.8001 84.7 61.6001 84.8 62.3001 85C63.1001 85.2 63.8001 85.5 64.5001 85.9C64.7001 86 64.9001 86.1 65.0001 86.3L65.3001 86.5L65.5001 86.6C65.7001 86.7 65.9001 86.8 66.2001 86.9C66.7001 87.1 67.2001 87.1 67.8001 87.1C68.3001 87.1 68.9001 87 69.4001 86.8C69.6001 86.7 69.9001 86.6 70.1001 86.5C70.2001 86.4 70.3001 86.4 70.4001 86.3L70.8001 86C71.5001 85.4 72.3001 85 73.1001 84.8C73.9001 84.6 74.7001 84.6 75.6001 84.8C76.0001 84.9 76.2001 85.3 76.1001 85.6C76.0001 85.9 75.9001 86 75.6001 86.1H75.5001C74.3001 86.4 73.2001 87 72.6001 87.8L72.5001 88L72.3001 88.3C72.1001 88.5 71.9001 88.6 71.8001 88.8C71.4001 89.1 71.0001 89.3 70.6001 89.5C69.8001 89.8 68.9001 90 68.0001 90C67.1001 90 66.2001 89.8 65.4001 89.4C65.0001 89.2 64.6001 89 64.2001 88.7L63.9001 88.5L63.7001 88.3C63.6001 88.2 63.5001 88.1 63.4001 88C62.5001 87.3 61.2001 86.7 60.0001 86.3H59.9001C59.5001 86.2 59.3001 85.8 59.5001 85.4C59.4001 84.9 59.7001 84.7 60.0001 84.7Z" fill="black"></path><path d="M23.9 51.5C24 48.4 24.2 45.1999 24.8 42.0999C25.3 38.9999 26 36 26.8 32.9C28.5 26.9 30.8 20.8999 34.3 15.5999C37.7 10.2999 42.6001 5.69995 48.4001 2.99995C54.3001 0.299949 60.9 -0.400051 67.1 0.299949C73.4 0.899949 79.7 2.89995 85 6.49995C90.3 9.99995 94.5 15.0999 97.5 20.6999C100.5 26.2999 102.3 32.4 103.4 38.5C104.5 44.7 105 50.8999 104.9 57.0999C105 69.5999 103.1 81.9999 99.5 93.8999C97.6 99.7999 95.4 105.7 92.1 111.1C90.5 113.8 88.6 116.4 86.5 118.7C84.3 121 81.7 123.1 78.8 124.6C75.8 126.1 72.5 126.9 69.2 127.1C65.9 127.3 62.5001 126.8 59.4001 125.8C57.8001 125.3 56.3 124.7 54.8 123.9C53.3 123.1 51.9 122.3 50.6 121.3C47.9 119.4 45.6 117.1 43.5 114.7C39.4 109.8 36.2 104.3 33.6 98.5999C32.3 95.6999 31.2 92.7999 30.2 89.8999C29.1 86.8999 28.5 83.8999 27.7 80.8999C27.6 80.4999 27.8 80.0999 28.2 79.9999C28.6 79.8999 29 80.0999 29.1 80.4999L30.3 84.9999C30.7 86.4999 31.1 87.8999 31.7 89.3999C32.7 92.2999 34 95.0999 35.3 97.7999C36.7 100.5 38.3 103.2 40 105.7C41.7 108.2 43.7 110.5 45.8 112.7C47.9 114.8 50.2 116.7 52.7 118.3C55.2 119.8 57.9 121.1 60.6 121.8C63.4 122.6 66.2 122.9 69.1 122.9C72 122.8 74.8 122.3 77.5 121.3C83 119.3 87.7 115.1 91 110C94.3 104.9 96.7001 99.0999 98.4001 93.1999C100.1 87.2999 101.2 81.1999 102 75.0999C102.8 68.9999 103.1 62.8999 103.2 56.6999C103.2 50.5999 102.7 44.4 101.6 38.4C100.5 32.4 98.7 26.4999 95.8 21.0999C93 15.7999 89.0001 10.9999 83.9001 7.69995C78.9001 4.29995 73 2.49995 67 1.89995C61 1.29995 54.8001 1.99995 49.4001 4.49995C44.0001 6.99995 39.5 11.2999 36.2 16.3999C32.9 21.4999 30.6 27.1999 29 33.0999C28.2 35.9999 27.6 38.9999 27.1 42.0999C26.6 45.0999 26.3 48.1 26.3 51.2C26.3 51.8 25.8 52.2999 25.1 52.2999C24.4 52.5999 23.9 52.1 23.9 51.5Z" fill="black"></path><path d="M103.9 47C103.9 47 92.8 22 86 18C79.2 14 77.3 19.5 66 18.8C54.7 18.1 58.3 14.1 44.7 17C34 19.4 25.4 46.7 25.4 46.7L27.6 34.5L33.8 19.1L40.1 10.2L50.2 3.29998L61.1 1.09998L69.3 1.59998L80.2 4.79998L87.1 9.19998L92.7 14.9L96.7 21.1L99.7 27.8L102 35.8L103.9 47Z" fill="black"></path><path d="M35.5 56.8999C35.5 56.8999 40.4 48.7999 50.2 48.7999C60 48.6999 59.2 53.2999 57.9 53.9999C56.7 54.7999 45.4 49.2999 35.5 56.8999Z" fill="black"></path><path d="M74.3 53.2999C73.6 52.7999 72.3001 47.4999 81.4001 48.5999C90.6001 49.6999 94.3 56.3999 94.3 56.3999C81.8 48.9999 75 53.7999 74.3 53.2999Z" fill="black"></path><path d="M41.2001 61.5999C42.4001 60.4999 43.6001 59.5999 45.0001 58.6999C45.7001 58.2999 46.4001 57.8999 47.2001 57.5999C48.0001 57.2999 48.7 56.9999 49.6 56.7999C51.3 56.3999 53.3001 56.4999 54.9001 57.1999C55.7001 57.4999 56.5001 57.9999 57.2001 58.4999C57.9001 58.9999 58.5 59.5999 59.1 60.2999C59.5 60.7999 59.4001 61.4999 58.9001 61.8999C58.5001 62.1999 58 62.1999 57.6 61.8999L57.5001 61.7999C56.4001 61.0999 55.2001 60.2999 54.0001 59.9999C52.8001 59.5999 51.6001 59.3999 50.3001 59.5999C49.0001 59.7999 47.6001 60.2999 46.3001 60.7999C45.0001 61.3999 43.6001 61.9999 42.2001 62.5999C41.8001 62.7999 41.4001 62.5999 41.2001 62.2999C40.9001 62.0999 41.0001 61.7999 41.2001 61.5999Z" fill="black"></path><path d="M54.7 61.4999C54.8 59.7999 53.5 58.2999 51.8 58.1999C50.1 58.0999 48.6 59.3999 48.5 61.0999C48.4 62.7999 49.7001 64.2999 51.4001 64.3999C53.1001 64.4999 54.6 63.1999 54.7 61.4999Z" fill="black"></path><path d="M87.1 61.4999C87.2 59.6999 85.8 58.0999 84 57.9999C82.2 57.8999 80.6 59.2999 80.5 61.0999C80.4 62.8999 81.8 64.4999 83.6 64.5999C85.5 64.6999 87 63.2999 87.1 61.4999Z" fill="black"></path><path d="M75.6001 61.9999C76.0001 61.2999 76.5001 60.6999 77.0001 59.9999C77.2001 59.6999 77.5001 59.3999 77.9001 59.0999C78.2001 58.8999 78.6001 58.6999 79.0001 58.4999C80.5001 57.7999 82.1001 57.2999 83.8001 57.3999C85.5001 57.3999 87.1001 57.9 88.5001 58.8C89.9001 59.7 91.0001 60.9 91.7001 62.3C91.8001 62.6 91.7001 62.8999 91.5001 63.0999C91.2001 63.1999 90.9001 63.0999 90.7001 62.8999V62.8C90.0001 61.7 88.9001 60.5999 87.8001 60.0999C86.6001 59.4999 85.2001 59.2999 83.9001 59.4999C82.6001 59.6999 81.4001 60.1999 80.2001 60.8999C79.2001 61.6999 77.7001 62 76.5001 62.8C76.2001 63 75.9001 62.8999 75.7001 62.6999C75.4001 62.3999 75.4001 62.1999 75.6001 61.9999Z" fill="black"></path><path d="M103.4 51.9999C103.8 51.5999 104 51.2999 104.5 50.9999C104.9 50.6999 105.4 50.3999 106 50.1999C106.3 50.0999 106.7 50.0999 107.1 50.1999C107.5 50.2999 107.8 50.3999 108.1 50.5999C108.7 50.9999 108.9 51.4999 109.1 51.9999C109.5 52.8999 109.7 53.7999 109.8 54.5999C109.9 55.3999 110 56.2999 110 57.0999C110.1 60.2999 109.9 63.4999 109.6 66.6999C109.2 69.8999 108.7 72.9999 107.8 76.0999C107.3 77.5999 106.8 79.1999 105.9 80.5999C105.6 80.8999 105.4 81.2999 105 81.5999C104.7 81.8999 104.4 82.0999 104 82.2999C103.7 82.4999 103.3 82.7999 103 82.9999C102.8 83.0999 102.6 83.1999 102.5 83.2999C102.4 83.3999 102.3 83.3999 102.2 83.3999C102.1 83.3999 102.1 83.3999 102 83.4999C102 83.4999 101.9 83.4999 101.8 83.4999C101.8 83.4999 101.7 83.4999 101.6 83.4999C101.5 83.3999 101.4 83.4999 101.3 83.0999C101.3 82.8999 101.5 82.5999 101.7 82.5999C101.9 82.5999 102.2 82.7999 102.2 82.9999C102.1 82.5999 102 82.6999 101.9 82.5999H101.8H101.9C102 82.5999 102 82.4999 102.1 82.4999C102.3 82.3999 102.4 82.2999 102.6 82.1999C102.9 81.9999 103.2 81.7999 103.5 81.4999C103.8 81.2999 104.1 80.9999 104.4 80.7999C104.6 80.5999 104.9 80.2999 105 79.9999C105.8 78.6999 106.2 77.1999 106.6 75.6999C107.3 72.6999 107.7 69.5999 108 66.3999C108.2 63.2999 108.3 60.0999 108.1 56.9999C108 55.4999 107.8 53.8999 107.2 52.7999C107.1 52.4999 106.9 52.2999 106.8 52.2999C106.7 52.2999 106.7 52.2999 106.6 52.2999C106.3 52.3999 105.7 52.8999 105.4 53.2999C105 53.7999 104.3 53.8999 103.7 53.4999C103 53.3999 102.9 52.5999 103.4 51.9999C103.3 52.0999 103.3 52.0999 103.4 51.9999Z" fill="black"></path><path d="M24.7 52.5999C24.2 52.3999 23.5 52.2999 23 52.3999C22.4 52.4999 22 52.6999 21.6 52.9999C20.9 53.6999 20.5 55.0999 20.5 56.4999C20.5 57.8999 20.6 59.3999 20.8 60.8999C21 62.3999 21.2 63.8999 21.4 65.3999C21.9 68.3999 22.5 71.2999 23.5 74.1999C24 75.5999 24.5 76.9999 25.3 78.2999C26 79.4999 27.1 80.6999 28.2 80.3999C28.5 80.2999 28.8 80.4999 28.9 80.7999C29 81.0999 28.8 81.3999 28.5 81.4999C27.6 81.6999 26.5 81.3999 25.9 80.7999C25.2 80.2999 24.7 79.5999 24.3 78.8999C23.4 77.4999 22.8 76.0999 22.3 74.5999C21.2 71.6999 20.5 68.6999 19.9 65.6999C19.6 64.1999 19.3 62.6999 19.1 61.0999C18.9 59.5999 18.7 58.0999 18.6 56.3999V55.1999C18.7 54.7999 18.7 54.2999 18.8 53.8999C19.1 52.9999 19.4 52.0999 20.1 51.3999C20.8 50.6999 21.8 50.1999 22.8 49.9999C23.8 49.8999 24.6 49.8999 25.6 50.1999C26.2 50.3999 26.6 51.0999 26.4 51.6999C26.2 52.2999 25.5 52.6999 24.9 52.4999C24.8 52.5999 24.8 52.5999 24.7 52.5999Z" fill="black"></path><path d="M1.80002 118.3C4.20002 117.8 6.60002 117.4 8.90002 116.8C11.2 116.2 13.6 115.6 15.8 114.8C18.1 114.1 20.3 113.2 22.5 112.2C24.7 111.2 26.8 110.1 28.6 108.8C29.3 108.3 30.3 108.5 30.8 109.2C31 109.5 31.1 109.9 31.1 110.3V110.4C31 111.3 31 112.4 31 113.4C31 114.4 31.1 115.5 31.3 116.5C31.6 118.5 32.1001 120.5 32.9001 122.5C33.6001 124.4 34.7 126.2 35.8 127.9C37 129.5 38.4 131.1 40 132.4C43.1 135.1 46.8 137.3 50.7 138.8C54.6 140.3 58.8 141 63 141.1C71.4 141.3 79.9 138.8 87.2 134.6C90.8 132.5 93.9 129.7 95.5 126C97.1 122.3 97.5 118.1 97.6 113.8V113.7C97.6 112.9 98.3 112.3 99.1 112.3C99.3 112.3 99.5 112.4 99.7 112.4C103.9 114.4 108.1 116.4 112.4 118.3C114.5 119.3 116.6 120.2 118.8 121.1C120.9 122 123.1 122.8 125.3 123.6C125.7 123.8 126 124.3 125.8 124.7C125.6 125.1 125.2 125.3 124.7 125.2C122.5 124.5 120.3 123.8 118 122.9C115.8 122.1 113.6 121.2 111.4 120.3C107.1 118.5 102.7 116.8 98.4001 114.9L100.5 113.6C100.5 115.8 100.4 118.1 100.1 120.3C99.8 122.5 99.2 124.8 98.2 127C97.3 129.1 95.9 131.1 94.2 132.8C92.6 134.5 90.7 135.8 88.7 137C80.9 141.5 72.0001 144.1 62.9001 143.9C58.4001 143.8 53.9 143 49.6 141.4C45.4 139.8 41.4001 137.5 37.9001 134.5C36.1001 133 34.6 131.3 33.2 129.4C31.9 127.5 30.7001 125.5 29.9001 123.3C29.1001 121.2 28.5 118.9 28.1 116.7C27.9 115.6 27.8 114.4 27.8 113.3C27.8 112.1 27.8 111 27.9 109.8L30.3 111.3C28.1 112.7 25.8 113.8 23.5 114.7C21.2 115.6 18.8 116.4 16.5 117.1C14.1 117.8 11.7 118.4 9.30002 118.9C6.90002 119.4 4.40004 119.8 2.10004 120.2C1.60004 120.3 1.00002 119.9 0.900024 119.4C1.00002 118.9 1.30002 118.4 1.80002 118.3Z" fill="black"></path><path d="M51.9 96.4C54 97.7 56.5 98.8 58.9 99.6C61.3 100.4 63.9 100.8 66.4 100.9C68.9 101 71.5 100.6 73.9 99.8C76.3 99.1 78.4 97.7 80.5 96.2L80.6 96.1C81.1 95.8 81.7 95.9 82 96.3C82.3 96.8 82.2 97.4 81.8 97.7C79.5 99.2 77.2 100.7 74.5 101.4C71.9 102.2 69.1 102.6 66.4 102.4C63.7 102.2 61 101.7 58.5 100.8C56 99.9 53.6 98.8 51.3 97.3C51 97.1 51 96.8 51.1 96.5C51.2 96.3 51.6 96.3 51.9 96.4Z" fill="black"></path></svg> 