<?xml version="1.0" encoding="UTF-8"?> <svg xmlns="http://www.w3.org/2000/svg" width="54" height="54" viewBox="0 0 54 54" fill="none"><g clip-path="url(#clip0)"><path d="M12 46L15 38.5V38L19 38.5L19.5 52H8L12 46Z" fill="#4ADC8F"></path><path d="M34.5 52.5L33.5 39.5H33L40 39L42 46L46.5 51.5L34.5 52.5Z" fill="#4ADC8F"></path><path d="M7.5 16.5L26.5 1.5H27L46.5 16.5L40 17L39.5 27.5L38.5 32H31L33 27.5L30 23H24L21.5 27.5L24 33H17.5L15 30V16.5H7.5Z" fill="#4ADC8F"></path><path d="M45.9701 49.2107C43.2163 46.5827 41.5394 42.9816 41.2764 39.2013C44.9943 37.4131 47.5667 33.6087 47.5667 29.2147V24.9959C47.5667 22.3789 45.4376 20.2498 42.8206 20.2498C42.2659 20.2498 41.7336 20.3463 41.2384 20.522V18.1404H47.0393C47.7207 18.1404 48.3256 17.704 48.5406 17.0574C48.7555 16.4108 48.5322 15.6991 47.9863 15.2911L27.9472 0.314544C27.3857 -0.105011 26.6148 -0.105011 26.0531 0.314544L6.01407 15.2911C5.46827 15.6991 5.24499 16.4108 5.45994 17.0574C5.67488 17.704 6.27975 18.1404 6.96118 18.1404H12.762V20.5219C12.2668 20.3463 11.7345 20.2498 11.1799 20.2498C8.56294 20.2498 6.43384 22.3789 6.43384 24.9959V29.2147C6.43384 33.6088 9.00643 37.4133 12.7244 39.2014C12.4614 42.9817 10.7842 46.5827 8.03032 49.2107L5.86884 51.2734C5.40098 51.7197 5.25195 52.4059 5.49242 53.0062C5.73289 53.6063 6.31434 53.9999 6.96097 53.9999H34.3828C34.4304 53.9999 34.4772 53.9969 34.5238 53.9929C34.5235 53.9952 34.5234 53.9976 34.5232 53.9999H47.039C47.6856 53.9999 48.2672 53.6064 48.5076 53.0062C48.748 52.406 48.599 51.7198 48.1312 51.2734L45.9701 49.2107ZM11.7207 14.9764L27.0002 3.55686L42.2798 14.9763H39.6564C38.7827 14.9763 38.0744 15.6846 38.0744 16.5583L38.0745 29.2146C38.0745 30.0869 37.3648 30.7966 36.4924 30.7966H32.7724C33.4568 29.7301 33.8557 28.4637 33.8557 27.1052C33.8557 23.3251 30.7803 20.2497 27.0002 20.2497C23.2201 20.2497 20.1448 23.3251 20.1448 27.1052C20.1448 28.4637 20.5437 29.7301 21.228 30.7966H17.5081C16.6357 30.7966 15.926 30.0869 15.926 29.2146V16.5583C15.926 15.6846 15.2177 14.9763 14.344 14.9763H11.7207V14.9764ZM30.6916 27.1053C30.6916 29.1407 29.0357 30.7967 27.0002 30.7967C24.9648 30.7967 23.3088 29.1407 23.3088 27.1053C23.3088 25.0699 24.9648 23.4139 27.0002 23.4139C29.0357 23.4139 30.6916 25.0699 30.6916 27.1053ZM18.0354 50.8358H10.8755C13.6357 47.9155 15.3747 44.1408 15.8153 40.1596C16.3673 40.2446 16.9326 40.2889 17.5081 40.2889H18.0354V50.8358ZM34.3831 37.1248C33.5094 37.1248 32.801 37.8332 32.801 38.7069V50.8358H21.1995V38.7069C21.1995 37.8332 20.4911 37.1248 19.6174 37.1248H17.5081C13.1464 37.1248 9.5979 33.5763 9.5979 29.2147V24.9959C9.5979 24.1236 10.3076 23.4139 11.1799 23.4139C12.0523 23.4139 12.762 24.1236 12.762 24.9959V29.2147C12.762 31.8317 14.8911 33.9608 17.5081 33.9608H36.4924C39.1094 33.9608 41.2385 31.8317 41.2385 29.2147V24.9959C41.2385 24.1236 41.9482 23.4139 42.8206 23.4139C43.6929 23.4139 44.4026 24.1236 44.4026 24.9959V29.2147C44.4026 33.5763 40.8541 37.1248 36.4924 37.1248H34.3831ZM35.9651 50.8358V40.2889H36.4924C37.0679 40.2889 37.6332 40.2447 38.1853 40.1596C38.6257 44.1408 40.3647 47.9156 43.1248 50.8358H35.9651Z" fill="black"></path></g><defs><clipPath id="clip0"><rect width="54" height="54" fill="white"></rect></clipPath></defs></svg> 