<?xml version="1.0" encoding="UTF-8"?> <svg xmlns="http://www.w3.org/2000/svg" width="485" height="415" viewBox="0 0 485 415" fill="none"><g clip-path="url(#clip0)"><path d="M91.2 327.6L83.7 407.6C89.9 409.5 96.3 410.9 102.9 412.1L95.8 348.1L91.2 327.6Z" fill="#FF5956"></path><path d="M409.8 320.7L409.4 339.9C417.4 335.1 425.1 330.2 432.2 324.9L417.4 274.3L409.8 320.7Z" fill="#FF5956"></path><path d="M380.5 320L386.5 208.9L376.2 206.7C376.3 206.7 391 330.2 418 328.9C444.9 327.7 453.2 204 453.3 203.9L455.3 202.9L444.5 214.5C446.7 234 462.1 256.2 466.7 288.6C485.3 258 490.9 224 477.2 192.4C462.9 159.2 449 104.6 401.5 90.4998C355.9 76.9998 325.9 79.0998 279 90.4998C244.8 98.7998 234.1 166 203 178.5C167.4 192.8 56.8999 215.7 30.4999 237C-1.80012 263.3 0.699885 279.7 3.99988 313.5C7.09988 345.5 13.4999 362.4 43.4999 386.7L70.9999 269.5L134.6 215.3V217C134.7 238.5 130.9 333 131 334.1L145.2 415C177.4 414.6 222.2 383.4 253.5 379.1C301.9 372.5 331.4 380.8 370.5 360.9L380.5 320Z" fill="#FF5956"></path><path d="M147.1 333.9V333.8C147 332.9 134.8 238.4 134.7 216.9V215.2L50.0998 221.8L43.7998 386.7C50.8998 392.4 58.9998 397.4 68.2998 401.6C73.2998 403.9 78.4998 405.7 83.7998 407.4L91.2998 327.4L95.8998 347.9L103 411.9C116.6 414.2 130.9 415 145.6 414.8L147.4 333.9H147.1Z" fill="black"></path><path d="M465.6 290.8C466 290.1 466.5 289.3 467 288.6C462.3 256.4 458 224.7 455.8 205.1L455.6 202.9L453.6 203.9C453.5 203.9 443.6 208.8 416.7 210C389.7 211.1 376.5 206.7 376.4 206.7L374.4 206L368.2 320.4V320.5L370.9 360.8C371.2 360.7 371.5 360.5 371.8 360.4C384.7 353.8 397.6 347 409.6 339.9L410 320.7L417.6 274.2L432.3 324.9C445.9 314.7 457.5 303.6 465.6 290.8Z" fill="black"></path><path d="M342.9 164L281.7 170.1L223.7 164.5L179.2 176.6L169.9 41.4L215.4 28.7L278.9 41.5L333.6 28.7999L342.9 164Z" fill="white"></path><path d="M177.7 178.5L168.1 40.2L215.1 27.1L215.5 27.2L278.8 40L334.9 27L344.5 165.3L281.7 171.6H281.6L223.8 166L177.7 178.5ZM171.3 42.5L180.4 174.7L223.4 163L281.6 168.6L341.2 162.6L332.1 30.7L278.8 43L278.5 42.9L215.3 30.2L171.3 42.5Z" fill="black"></path><path d="M250 114.2C248.4 114.2 246.7 114 245.1 113.7C239 112.4 233.9 108.8 230.7 103.5C227.4 98.1 226.5 91.8 228.2 85.5C228.2 85.4 228.3 85.3 228.3 85.1C232 75.1 240.5 70.4 249.5 73.4C251.6 74.1 252.7 76.4 252.1 78.4C251.4 80.5 249.2 81.6 247.1 81C240.3 78.8 237.1 84.8 236 87.7C235 91.7 235.6 95.8 237.6 99.3C239.7 102.7 243 105 246.9 105.8C255.3 107.6 263.9 102.2 266.2 93.6C267.4 89 266.7 83.8 264.2 79.7C262.2 76.4 259.2 74.2 255.8 73.5C253.6 73 252.3 70.9 252.7 68.7C253.2 66.5 255.3 65.2 257.5 65.6C263 66.8 267.8 70.3 271 75.5C274.6 81.4 275.7 88.9 273.9 95.6C270.9 106.7 260.8 114.2 250 114.2Z" fill="#FF5956"></path><path d="M153 63.8999L167.1 49.0999L179.2 50.9999L177.2 68.9999L159.4 75.1999" fill="white"></path><path d="M160.1 76.6L159.1 73.8L176 67.9L177.7 52.2L167.7 50.7L154.1 64.9L152 62.9L166.6 47.5L181 49.7L178.7 70.1L160.1 76.6Z" fill="black"></path><path d="M109.8 76.8999L151.1 60.5999L161.1 77.2999L143.1 88.5999" fill="white"></path><path d="M143.9 89.8L142.3 87.3L159 76.8L150.4 62.4L110.3 78.3L109.2 75.5L151.7 58.7L163.1 77.8L143.9 89.8Z" fill="black"></path><path d="M109.4 61.1L106.9 70.2C106.9 70.2 108 67.7 112.6 67.4C129.1 66.5 116 19.2 116 19.2C115.3 16 106.7 1.09996 87.9 7.29996C69.1 13.5 71.1 35.5 73.9 40.7C76.8 45.9 78.9 63.8 78.9 63.8L106.9 70.2" fill="white"></path><path d="M102 82.7L105.1 71.3L77.5 65L77.4 64C76.8 59.1 74.8999 45.5 72.5999 41.4C70.4999 37.6 69.3999 27.9 72.6999 19.6C75.3999 12.9 80.5 8.19997 87.5 5.79997C95 3.29997 101.7 3.69997 107.5 6.99997C113.8 10.6 117.1 16.6 117.6 18.8C118 20.2 127.3 54.2 119.4 65.2C117.8 67.5 115.6 68.7 112.8 68.8C109.3 69 108.4 70.7 108.3 70.8L102 82.7ZM80.3 62.6L105.9 68.5L108 60.8L110.9 61.6L109.5 66.6C110.3 66.3 111.3 66.1 112.5 66C114.3 65.9 115.7 65.1 116.8 63.6C122.7 55.4 117.2 29.1 114.6 19.7C114.3 18.2 111.5 12.9 106 9.79997C101 6.89997 95 6.59997 88.4 8.79997C82.2 10.9 77.8 14.9 75.5 20.8C72.4 28.7 73.7999 37.4 75.1999 40C77.8999 44.6 79.8 58.6 80.3 62.6Z" fill="black"></path><path d="M67.8999 77.0998C67.8999 77.0998 68.5999 63.9998 83.4999 63.1998C98.2999 62.3998 110.4 72.2998 110.4 72.2998L109.8 76.8998C94.4999 73.9998 80.2999 73.4998 67.8999 77.0998Z" fill="white"></path><path d="M66.2998 79.0999L66.3998 76.9999C66.3998 76.8999 67.3998 62.5999 83.3998 61.6999C98.6998 60.7999 110.8 70.6999 111.3 71.1999L111.9 71.6999L111 78.6999L109.4 78.3999C92.9998 75.2999 79.5998 75.2999 68.1998 78.5999L66.2998 79.0999ZM87.3998 72.9999C93.8998 72.9999 100.9 73.6999 108.5 75.0999L108.8 72.9999C106.2 70.9999 95.7998 63.9999 83.5998 64.6999C73.6998 65.2999 70.6998 71.5999 69.7998 74.9999C75.1998 73.6999 80.9998 72.9999 87.3998 72.9999Z" fill="black"></path><path d="M128.6 80.9C112.8 76.6 90.7999 72.6 74.5 75.6C58.2 78.6 34.2 98.7 34.2 116.2C34.2 133.8 50 182.5 50 182.5L42.4 265.4C42.4 265.4 46.2999 273.9 74.6999 278.8C103.1 283.6 147.8 267.5 147 265.2L139.7 143.4" fill="white"></path><path d="M86.3 281.1C82.2 281.1 78.2 280.8 74.5 280.2C62.6 278.1 53.4 275.2 47.2 271.5C42.4 268.6 41.1999 266.2 41.0999 266L40.9 265.6V265.2L48.5 182.7C47.1 178.2 32.7 133.4 32.7 116.3C32.7 107.9 38 98.1998 47.2 89.3998C55.5 81.4998 65.8999 75.6998 74.1999 74.0998C92.2999 70.7998 116.3 75.9998 129 79.3998L128.2 82.2998C115.8 78.8998 92.3 73.7998 74.8 76.9998C67 78.3998 57.1999 83.9998 49.2999 91.4998C40.6999 99.5998 35.7 108.6 35.7 116.2C35.7 133.4 51.3 181.5 51.4 182L51.5 182.3V182.6L44 265C45 266.4 51.1 273.1 75 277.3C100.9 281.6 141 268.2 145.5 264.8L138.3 143.4L141.3 143.2L148.6 265C148.7 265.4 148.6 265.9 148.1 266.5C145.2 269.9 112.7 281.1 86.3 281.1Z" fill="black"></path><path d="M95.9 -8.84645e-05C74.1 -0.500088 66.5 9.89991 67.4 27.5999C68.3 45.2999 73.7 45.5999 74.4 51.6999C75.3 60.6999 106.1 56.9999 105.3 49.7999C105.1 45.2999 107.1 32.0999 111.4 31.6999C114.4 31.4999 115.8 38.7999 115.8 38.7999L119.8 37.8999C119.8 37.8999 122.6 29.0999 122.1 18.9999C121.5 8.89991 110.5 0.299912 95.9 -8.84645e-05Z" fill="black"></path><path d="M280.594 53.6742L277.594 53.739L278.424 92.1313L281.424 92.0665L280.594 53.6742Z" fill="black"></path><path d="M111.4 118.9C124.8 136.9 135.9 157 141.9 177.7L139.8 143.3C129.6 138 120.1 129.6 111.4 118.9Z" fill="black"></path><path d="M405.5 79.6998L400.7 80.8998C383.7 83.5998 390 43.9998 390.4 43.2998H430.8L430.5 53.7998" fill="white"></path><path d="M399.1 82.5C395.9 82.5 393.3 81.1 391.3 78.3C384.5 68.5 388.3 43.8 389.1 42.5L389.5 41.7H432.3L431.9 53.7L428.9 53.5999L429.2 44.7H391.6C390.8 49.7 388.3 70.5 394.4 77.4C395.9 79.1 397.9 79.8 400.3 79.4L405 78.1999L405.8 81.0999L400.9 82.4C400.3 82.5 399.7 82.5 399.1 82.5Z" fill="black"></path><path d="M430.4 53.7L430.7 94.0999H405.4V76.1999" fill="white"></path><path d="M432.2 95.6999H403.9V76.1999H406.9V92.6999H429.2L428.9 53.7H431.9L432.2 95.6999Z" fill="black"></path><path d="M441.9 44.1999V55.2999C441.9 55.2999 418.6 55.6999 409.4 53.9999C400.3 52.1999 399.6 48.5999 395.3 46.7999C390.9 44.9999 387.4 43.0999 380.2 47.4999C379.3 48.0999 373.9 46.6999 373.9 46.6999V45.3999L378.7 44.1999C378.7 44.1999 385.6 13.8999 409.8 13.8999C434.1 13.8999 437.5 30.1999 437.5 44.1999H441.9Z" fill="black"></path><path d="M435.8 56.7998C428.2 56.7998 415.5 56.5998 409.1 55.3998C402.9 54.1998 400.2 52.0998 398.1 50.3998C397 49.4998 396 48.6998 394.7 48.1998L393.9 47.8998C389.9 46.2998 387.1 45.0998 381 48.8998C380.6 49.0998 379.5 49.8998 373.5 48.1998L372.4 47.8998V44.1998L377.4 42.8998C378.8 37.7998 387 12.2998 409.8 12.2998C435.1 12.2998 438.8 29.1998 439 42.5998L443.4 42.6998V56.6998H441.9C441.6 56.7998 439.3 56.7998 435.8 56.7998ZM388.2 43.2998C390.8 43.2998 393 44.1998 395.1 45.0998L395.9 45.3998C397.7 46.0998 398.9 47.0998 400.1 48.0998C402.1 49.6998 404.3 51.3998 409.7 52.4998C417.4 53.9998 435.2 53.8998 440.4 53.7998V45.5998L436 45.4998V43.9998C436 30.5998 433 15.1998 409.8 15.1998C387 15.1998 380.2 43.9998 380.1 44.2998L379.9 45.1998L377.5 45.7998C378.5 45.9998 379.2 46.0998 379.6 45.9998C383 43.9998 385.8 43.2998 388.2 43.2998ZM379.5 46.1998C379.4 46.1998 379.4 46.2998 379.5 46.1998C379.4 46.2998 379.4 46.1998 379.5 46.1998Z" fill="black"></path><path d="M381.8 98.0998L309.2 101.3L266.8 97.2998V102L278.9 104.6L285.6 116.3L310.1 111.8L360.9 123.7" fill="white"></path><path d="M360.7 125.2L310.2 113.3L285 117.9L278 105.9L265.3 103.2V95.5999L309.3 99.7999L381.7 96.5999L381.9 99.5999L309.2 102.8H309.1L268.3 98.8999V100.7L280 103.2L286.5 114.6L310.3 110.3L361.4 122.3L360.7 125.2Z" fill="black"></path><path d="M390.6 152L358.9 201.3L289.3 186.4L293.5 174.2L344 172.4L349.6 156.1" fill="white"></path><path d="M359.6 203L287.4 187.5L292.4 172.7L342.9 170.9L348.2 155.6L351 156.6L345.1 173.8L294.6 175.6L291.3 185.3L358.2 199.6L389.4 151.2L391.9 152.9L359.6 203Z" fill="black"></path><path d="M278.5 106L283.9 120.7L311 118L340.5 128.9L340 120L310.1 111L286.5 115.7L284.9 115.4L278.5 106Z" fill="black"></path><path d="M294.5 187.4L264 183.8L262.2 169.9L278 168.9L297.2 173.9" fill="white"></path><path d="M294.3 188.9L262.6 185.1L260.5 168.5L278.1 167.3L297.5 172.4L296.8 175.3L277.8 170.4L263.9 171.3L265.3 182.4L294.6 185.9L294.3 188.9Z" fill="black"></path><path d="M349.8 155.4L346.7 165L371.6 182.9L376.5 173.9L349.8 155.4Z" fill="black"></path><path d="M375.1 188.1L390.6 153.2L375.2 177.5L375.1 188.1Z" fill="black"></path><path d="M223.37 134.241L220.375 134.427L222.243 164.47L225.237 164.283L223.37 134.241Z" fill="black"></path><path d="M216.716 28.6403L213.721 28.8264L215.695 60.566L218.689 60.3799L216.716 28.6403Z" fill="black"></path><path d="M209.7 112.2L240.2 92.0999L242.5 96.0999L233.3 104.3L233.2 121.4L210.7 128" fill="white"></path><path d="M211.1 129.5L210.3 126.6L231.7 120.3L231.8 103.7L240.6 95.8L239.8 94.2L210.6 113.5L208.9 111L240.8 90L244.5 96.5L234.8 105L234.7 122.6L211.1 129.5Z" fill="black"></path><path d="M416.6 222C446.2 220.7 456.6 215.4 456.6 215.4C456.6 215.4 455 200.3 455 196.7C455 171.6 461 148.3 461 128.9C461 109.4 459 86.3999 435.6 86.3999C412.2 86.3999 381.8 91.9999 371.4 108C361 124 346.5 154 346.5 154L376.6 174.1L390.6 152.2L375.3 176.1L373 218.5C373 218.3 387 223.3 416.6 222Z" fill="white"></path><path d="M374.3 224.2L371.3 218.3L371.6 217.9L373.9 175.6L374.6 174.5L344.6 154.5L345.2 153.3C345.3 153 359.9 123 370.2 107.1C375.2 99.4998 384.6 93.5998 398.2 89.6998C409.1 86.5998 422.4 84.7998 435.6 84.7998C462.5 84.7998 462.5 114.5 462.5 128.8C462.5 138 461.2 148 459.8 158.6C458.2 170.8 456.5 183.4 456.5 196.6C456.5 200 458 215 458 215.1L458.1 216.1L457.2 216.6C456.8 216.8 446.2 222.1 416.6 223.4C400.3 224.1 385.4 223 374.4 220.3L374.3 224.2ZM374.6 217.3C385.4 220 400.2 221.2 416.5 220.5C440.5 219.4 451.8 215.7 454.9 214.4C454.5 210.8 453.4 199.7 453.4 196.7C453.4 183.2 455.1 170.5 456.7 158.3C458.1 147.8 459.4 137.9 459.4 128.9C459.4 119.6 458.9 108.9 455.6 100.9C451.9 92.0998 445.3 87.8998 435.5 87.8998C412.7 87.8998 382.6 93.3998 372.6 108.8C363.5 122.7 351.1 147.8 348.3 153.5L376.1 172L389.3 151.4L391.8 153L376.8 176.5L374.6 217.3Z" fill="black"></path><path d="M108.8 106.8C108.8 92.0999 113.5 80.8999 128.6 80.8999C143.8 80.8999 176.3 126.7 176.3 126.7L209.3 110.9L212.7 131.5L169.4 158.1C169.5 158.3 108.8 133.3 108.8 106.8Z" fill="white"></path><path d="M169.6 159.9L168.9 159.6C166.4 158.6 107.3 133.9 107.3 106.8C107.3 88.5999 114.5 79.3999 128.6 79.3999C143.2 79.3999 171.7 117.8 176.7 124.8L210.4 108.7L214.3 132.3L169.6 159.9ZM128.6 82.3999C116.3 82.3999 110.3 90.3999 110.3 106.8C110.3 130.5 162.6 153.7 169.3 156.6L211.1 130.9L208.2 113.2L175.8 128.6L175.1 127.6C166.2 115 140.4 82.3999 128.6 82.3999Z" fill="black"></path><path d="M235.5 102.5V123.9L215.3 130.5L215.7 134.1L178.2 162.8L177.2 153.6L212.8 131.6L212.2 127.8L233.3 121.6L233.4 104.5L235.5 102.5Z" fill="black"></path></g><defs><clipPath id="clip0"><rect width="485" height="415" fill="white"></rect></clipPath></defs></svg> 