<?xml version="1.0" encoding="UTF-8"?> <svg xmlns="http://www.w3.org/2000/svg" width="792" height="450" viewBox="0 0 792 450" fill="none"><g clip-path="url(#clip0)"><path d="M436.87 236.8H412.77L370.67 194.7L317.07 248.2V348.3H279.77" fill="white"></path><path d="M318.57 349.8H279.87V346.8H315.57V247.6L370.67 192.6L413.37 235.3H436.87V238.3H412.07L370.67 196.8L318.57 248.8V349.8Z" fill="black"></path><path d="M485.97 278L494.47 238.7L550.67 250.8L542.47 288.8" fill="#4ADC8F"></path><path d="M543.97 289.2L541.07 288.6L548.87 252.1L495.67 240.6L487.47 278.4L484.57 277.7L493.27 237L552.47 249.8L543.97 289.2Z" fill="black"></path><path d="M578.77 278.5C575.47 266.9 570.17 253.8 561.87 237C544.87 202.4 513.57 194.8 513.57 194.8L486.17 201.4L493.87 216.2L521.27 197.4" fill="white"></path><path d="M577.27 278.9C574.07 267.5 568.67 254.4 560.47 237.6C549.17 214.7 531.37 203.8 521.17 199.1L493.27 218.2L483.97 200.2L513.57 193.1L513.97 193.2C514.27 193.3 546.07 201.4 563.27 236.2C571.57 253.2 577.07 266.4 580.27 278L577.27 278.9ZM488.27 202.3L494.27 213.9L517.77 197.8C515.57 196.9 514.07 196.5 513.37 196.3L488.27 202.3Z" fill="black"></path><path d="M545.37 291.3C531.07 277.7 504.17 276.5 504.17 276.5L500.37 301.7C500.37 301.7 500.57 303.7 527.37 324.6C560.87 350.9 583.37 335.2 583.37 312.7C583.37 301.2 582.17 290.7 578.67 278.5" fill="white"></path><path d="M559.37 339.8C551.37 339.8 540.37 336.7 526.37 325.7C499.07 304.4 498.87 302.5 498.77 301.8V301.6L502.87 274.8L504.17 274.9C504.47 274.9 511.07 275.2 519.67 277.3C531.17 280 540.17 284.4 546.27 290.2L544.17 292.4C532.17 281.1 510.87 278.6 505.37 278.1L501.87 301.4C502.87 302.5 507.37 307.2 528.27 323.4C543.87 335.7 558.97 339.8 569.57 334.6C577.27 330.9 581.87 322.7 581.87 312.7C581.87 300.5 580.47 290.1 577.27 278.9L580.17 278.1C583.47 289.6 584.87 300.2 584.87 312.7C584.87 323.9 579.67 333.1 570.87 337.3C568.27 338.6 564.37 339.8 559.37 339.8Z" fill="black"></path><path d="M449.37 230.6L371.07 100.9L381.87 78L383.37 79.5L487.57 184.2V202.3L474.47 207.4L479.47 180.3L382.77 83.1L374.57 100.7L451.97 229L449.37 230.6ZM482.07 182.9L478.37 202.6L484.57 200.2V185.4L482.07 182.9Z" fill="black"></path><path d="M503.37 281.8L491.07 269.1H473.97L478.47 291.1L501.17 296.2L503.37 281.8Z" fill="white"></path><path d="M502.37 298.1L477.17 292.4L472.17 267.6H491.77L505.07 281.2L502.37 298.1ZM479.77 289.9L499.97 294.5L501.87 282.3L490.57 270.6H475.97L479.77 289.9Z" fill="black"></path><path d="M523.07 323.8C519.57 323.8 511.17 323.7 500.97 322.7C488.47 321.5 470.57 318.7 456.37 312.3L455.47 311.9L455.57 310.9C455.57 310.8 455.87 304.2 451.27 277.2C446.57 249.6 451.17 198.4 451.27 197.9L454.27 198.2C454.27 198.7 449.57 249.5 454.27 276.7C458.07 298.7 458.57 307.3 458.67 310.1C485.27 321.6 524.67 320.9 525.07 320.9L525.17 323.9C524.77 323.7 524.17 323.8 523.07 323.8Z" fill="black"></path><path d="M455.49 310.58L425.04 448.56L427.97 449.21L458.42 311.23L455.49 310.58Z" fill="black"></path><path d="M468.57 449.2L465.67 448.4L486.67 364.3L496.17 448.7L493.17 449L485.57 381.2L468.57 449.2Z" fill="black"></path><path d="M533.44 329.74L531.27 448.72L534.27 448.78L536.44 329.8L533.44 329.74Z" fill="black"></path><path d="M259.17 333.6L228.17 328.7L206.77 374.4L229.37 447.2H281.17L259.17 333.6Z" fill="black"></path><path d="M514.97 168H511.97V194.7H514.97V168Z" fill="black"></path><path d="M497.487 176C478 176 478 160.33 478 147.816C478 132.566 483.507 122.786 483.719 122.365L484.143 121.629L521.316 119L530 138.876V148.236H529.576C528.729 150.76 526.505 156.334 522.481 161.908C515.703 171.162 507.124 176 497.487 176ZM486.049 124.679C484.884 127.098 481.177 135.721 481.177 147.816C481.177 162.959 482.342 172.845 497.487 172.845C506.171 172.845 513.69 168.533 519.833 160.015C524.175 154.02 526.293 147.921 526.823 146.343V139.507L519.303 122.365L486.049 124.679Z" fill="black"></path><path d="M516.513 131.96C516.513 131.96 516.942 151 526.271 151C535.707 151 539.138 133.875 532.705 126.535C526.271 119.196 535.492 100.582 498.606 101.007C460.112 105.9 481.665 129.939 497.427 128.663C511.903 127.493 516.513 131.96 516.513 131.96Z" fill="black"></path><path d="M525.887 153C516.318 153 514.951 137.068 514.741 133.244C513.374 132.289 508.432 129.846 497.706 130.695C488.032 131.439 476.886 123.473 476.044 115.295C475.624 110.727 477.832 102.655 498.547 100H498.757C499.178 100 499.599 100 499.914 100C526.728 100 529.042 111.046 530.829 119.118C531.46 121.986 531.986 124.429 533.353 126.128C537.98 131.545 537.769 140.467 535.14 146.202C533.143 150.451 529.778 153 525.887 153ZM502.017 127.297C513.269 127.297 517.264 131.12 517.475 131.226L517.895 131.651V132.289C517.895 132.501 518.421 149.707 525.887 149.707C529.462 149.707 531.46 146.521 532.301 144.609C534.72 139.192 534.194 131.651 530.934 127.934C529.042 125.703 528.305 122.729 527.675 119.543C525.992 111.79 524.099 102.974 499.914 102.974C499.599 102.974 499.178 102.974 498.757 102.974C485.718 104.673 478.463 109.028 479.094 114.764C479.725 121.242 489.504 128.04 497.39 127.403C499.073 127.403 500.65 127.297 502.017 127.297Z" fill="black"></path><path d="M488.24 172.68L484.7 184.46L487.57 185.32L491.11 173.54L488.24 172.68Z" fill="black"></path><path d="M344.87 93.4L359.67 104.3C359.67 104.3 336.37 216.8 269.87 247.2L258.67 229.4L253.17 203.7V192.1L258.87 191.3C261.97 196.5 314.07 161.8 344.87 93.4Z" fill="white"></path><path d="M269.27 249.1L257.27 230L251.77 203.7V190.8L259.77 189.7L260.17 190.3C265.67 191 313.77 159 343.57 92.7L344.37 91L361.37 103.5L361.17 104.4C361.07 104.7 355.17 133.1 341.17 164.8C328.17 194.2 305.37 232.5 270.57 248.4L269.27 249.1ZM260.07 228.9L270.47 245.3C303.67 229.5 325.67 192.3 338.27 163.8C350.77 135.6 356.77 110.1 357.97 104.9L345.47 95.7C317.17 157.3 270.77 192.8 260.37 193.3C259.47 193.3 258.87 193.2 258.47 192.9L254.67 193.4V203.5L260.07 228.9Z" fill="black"></path><path d="M237.47 376L255.87 389.8L252.87 405.9L233.87 401.2L225.67 383.4L237.47 376Z" fill="white"></path><path d="M254.17 407.7L232.87 402.4L223.77 382.7L237.57 374.1L257.57 389.1L254.17 407.7ZM234.97 399.8L251.77 404L254.27 390.4L237.47 377.8L227.67 383.9L234.97 399.8Z" fill="white"></path><path d="M261.37 332.83L258.42 333.38L279.8 447.5L282.75 446.95L261.37 332.83Z" fill="black"></path><path d="M211.87 390.5L198.57 447.1H233.77L217.17 387.8L211.87 390.5Z" fill="black"></path><path d="M208.32 374.02L205.45 374.91L228.44 448.82L231.3 447.93L208.32 374.02Z" fill="white"></path><path d="M227.17 328L271.17 335.1L273.17 219.1L260.77 192.8L262.17 184.7L237.67 175.8L235.17 181.8C235.17 181.8 196.57 198 185.87 248.9C175.17 299.8 194.37 346.7 203.67 368.3C212.87 390 230.47 384.8 237.47 375.8C244.37 366.9 225.57 326.9 219.27 304.4C212.97 281.9 216.67 263 229.57 234.7" fill="white"></path><path d="M222.17 385.2C221.47 385.2 220.67 385.2 219.97 385.1C214.77 384.4 207.47 381.1 202.37 369.1C194.47 350.6 173.47 301.4 184.47 248.8C194.47 201.1 229.07 183.2 234.07 180.9L236.87 174.2L263.87 184L262.37 192.8L274.77 219L272.77 337.1L229.57 330.1C237.17 351 243.97 370.4 238.77 377.1C235.37 381.2 229.17 385.2 222.17 385.2ZM238.47 177.8L236.37 183L235.77 183.2C235.37 183.4 197.77 199.8 187.37 249.2C176.57 300.9 197.27 349.5 205.07 367.8C208.67 376.3 213.97 381.2 220.27 382C226.87 382.8 233.07 379.1 236.27 375C240.57 369.4 232.37 346.8 225.87 328.7C222.67 320 219.67 311.8 217.77 305C211.57 283.1 214.37 264.6 228.07 234.3L230.77 235.5C217.27 265 214.67 283 220.57 304.1C222.37 310.5 225.17 318.3 228.17 326.6L269.57 333.3L271.47 219.4L258.97 193L260.17 185.7L238.47 177.8Z" fill="black"></path><path d="M257.07 184.6L235.97 177L238.77 156.8L241.77 157.2L239.37 175L253.87 180.3L253.07 165.6L255.47 167C255.47 167 259.87 169.6 267.97 171.6C271.37 172.4 273.87 171.5 275.67 169C278.67 164.8 279.57 155.9 278.27 144C277.17 134.1 274.97 125.6 274.27 124.6C274.37 124.7 274.77 125.1 275.37 125.1V122.1C276.47 122.1 276.97 123.1 277.07 123.4C279.07 127.5 286.37 160.5 277.67 171.4C275.17 174.5 271.57 175.6 267.27 174.6C262.27 173.3 258.57 171.9 256.37 170.9L257.07 184.6Z" fill="black"></path><path d="M374.47 100.8L366.37 83.2V46.3L375.37 49.3L381.37 86L374.47 100.8ZM369.47 82.5L374.57 93.6L378.37 85.5L372.77 51.5L369.47 50.4V82.5Z" fill="black"></path><path d="M355.07 100.8L352.47 99.5L360.77 82.7V55H356.27L345.77 95.5L342.87 94.8L353.97 52H363.77V83.4L355.07 100.8Z" fill="black"></path><path d="M387.97 60.2L414.77 28.5L420.47 37.4L387.97 60.2ZM414.47 33.6L405.27 44.5L416.37 36.7L414.47 33.6Z" fill="black"></path><path d="M337.17 68.3L301.77 61V50.2L338.07 65.5L337.17 68.3ZM304.77 58.6L322.77 62.3L304.77 54.7V58.6Z" fill="black"></path><path d="M392.18 70.59L390.81 73.26L410.63 83.48L412 80.81L392.18 70.59Z" fill="black"></path><path d="M316.07 17.94L314.02 20.13L343.75 48.08L345.81 45.89L316.07 17.94Z" fill="black"></path><path d="M444.97 218.3L450.97 198L449.97 227.5L444.97 218.3Z" fill="black"></path><path d="M268.67 111.5C275.37 113.6 280.07 116.7 276.87 121.9C273.57 127 264.37 123 260.77 126.2C257.17 129.4 254.07 131.6 254.67 140.7C255.27 149.8 259.37 155.6 263.07 155.7C266.77 155.8 276.67 151.1 280.57 151C284.37 150.9 282.77 155 279.97 156.1C277.17 157.1 270.37 158.3 270.37 161C270.37 163.7 279.57 163.5 279.57 163.5C279.57 163.5 280.37 175.7 271.27 174.7C262.17 173.7 251.27 172.1 251.07 158.1C250.87 144.2 251.07 136.8 251.07 136.8C251.07 136.8 240.47 133.9 240.47 142.8C240.47 146.2 244.07 150.2 244.07 150.2L239.77 159.6C239.77 159.6 228.07 150.7 228.07 134.3C228.07 130.8 228.87 127.4 230.37 124.3C228.97 111.4 250.57 105.8 268.67 111.5Z" fill="black"></path><path d="M272.17 176.3C271.77 176.3 271.37 176.3 270.97 176.2C262.97 175.3 249.67 173.9 249.47 158.2C249.37 147.6 249.37 140.7 249.47 138.1C247.77 137.8 244.97 137.8 243.37 139C242.37 139.8 241.87 141.1 241.87 142.9C241.87 145.2 244.17 148.3 245.07 149.3L245.77 150L240.27 162L238.77 160.9C238.27 160.5 226.47 151.4 226.47 134.4C226.47 130.8 227.27 127.4 228.77 124.2C228.47 120.2 230.27 116.5 233.67 113.7C241.27 107.6 256.17 106.1 269.17 110.2C274.97 112 278.07 114.2 279.17 117C279.87 118.8 279.47 120.8 278.17 122.8C275.87 126.3 271.67 126.4 267.87 126.4C265.37 126.4 262.97 126.4 261.77 127.5L261.17 128C257.97 130.8 255.67 132.8 256.17 140.7C256.67 149.5 260.57 154.2 263.07 154.3C264.67 154.3 268.37 153.1 271.57 152C275.07 150.8 278.37 149.7 280.47 149.6C283.47 149.5 284.07 151.5 284.17 152C284.57 154 282.77 156.6 280.37 157.5C279.67 157.8 278.77 158 277.77 158.3C273.97 159.4 271.87 160.3 271.67 160.9C272.37 161.6 275.97 162.1 279.37 162H280.77L280.87 163.4C280.87 163.7 281.27 170.6 277.57 174.2C276.27 175.6 274.37 176.3 272.17 176.3ZM247.37 134.9C249.47 134.9 251.27 135.4 251.37 135.4L252.47 135.7V136.9C252.47 137 252.27 144.4 252.47 158.2C252.67 170.3 261.07 172.2 271.37 173.3C273.17 173.5 274.57 173.1 275.67 172.1C277.47 170.4 277.97 167.2 278.07 165.1C275.57 165.1 271.37 164.7 269.67 163.1C269.07 162.5 268.77 161.9 268.77 161.1C268.77 157.9 273.37 156.6 277.07 155.5C277.97 155.2 278.87 155 279.47 154.8C280.67 154.4 281.37 153.2 281.37 152.7C281.27 152.7 281.07 152.6 280.67 152.6C279.07 152.6 275.77 153.8 272.67 154.8C268.87 156.1 265.27 157.4 263.07 157.3C258.07 157.2 253.77 150.1 253.27 140.9C252.67 131.5 255.87 128.7 259.27 125.7L259.87 125.2C261.87 123.4 264.97 123.4 267.97 123.4C271.27 123.4 274.37 123.4 275.77 121.2C276.57 120 276.77 118.9 276.47 118C276.07 116.8 274.27 114.9 268.47 113.1C256.57 109.3 242.57 110.6 235.77 116.1C232.97 118.4 231.67 121.2 231.97 124.4V124.8L231.77 125.2C230.37 128.1 229.57 131.3 229.57 134.5C229.57 146.6 236.27 154.4 239.27 157.3L242.37 150.7C241.17 149.3 239.07 146.1 239.07 143.1C239.07 140.3 239.97 138.2 241.77 136.8C243.27 135.3 245.47 134.9 247.37 134.9Z" fill="black"></path><path d="M525.77 185H553.37V1.5H622.87V83.1V103" fill="white"></path><path d="M554.87 186.5H525.77V183.5H551.87V0H624.37V103H621.37V3H554.87V186.5Z" fill="black"></path><path d="M758.77 284.6C734.47 323.1 710.37 357.8 658.57 318.9C606.77 280 594.17 147.7 629.57 124.4C664.97 101.1 660.47 78.8 674.77 65.1C689.07 51.4 725.07 43.9 758.77 74.8C792.47 105.7 763.37 132 781.07 170.9C798.87 209.7 794.27 228.6 758.77 284.6Z" fill="#4ADC8F"></path><path d="M697.37 124.4H694.37V418.7H697.37V124.4Z" fill="black"></path><path d="M659.67 222.06L657.51 224.14L694.8 262.91L696.96 260.83L659.67 222.06Z" fill="black"></path><path d="M741.85 148.62L694.83 195.64L696.95 197.76L743.97 150.74L741.85 148.62Z" fill="black"></path><path d="M125.07 340H122.07V284.8L166.57 244.3V138.4H197.37V201.7H194.37V141.4H169.57V245.6L125.07 286.2V340Z" fill="black"></path><path d="M42.0701 412.2C38.9701 412.2 35.9701 411.5 33.1701 410.1C26.2701 406.6 20.7701 399.4 14.8701 391C7.27005 380.2 2.27005 372 0.570054 364.8C-0.829946 358.4 0.270054 352.5 4.57005 344C8.07005 337.1 7.57005 330.9 7.17005 325.5C7.07005 324.6 7.07005 323.7 6.97005 322.9C6.77005 320 6.77005 316.8 7.87005 313.6C8.97005 310.3 11.2701 307.2 14.8701 304.3C30.1701 291.7 46.5701 294.4 53.3701 300.3C54.7701 301.5 55.8701 303 57.0701 305.2C57.4701 306 57.9701 306.9 58.3701 307.8L58.4701 308.1C58.9701 309.1 59.4701 310.1 60.0701 311.2C62.2701 315.2 65.6701 320 74.0701 324.9C77.9701 327.2 80.7701 332.2 82.1701 339.3C83.5701 345.9 83.5701 354.2 82.3701 362.7C81.1701 371.5 78.5701 380 75.0701 387.3C71.1701 395.3 66.2701 401.5 60.6701 405.3C53.9701 409.8 47.7701 412.2 42.0701 412.2ZM39.0701 298.3C30.8701 298.3 22.0701 302.3 16.7701 306.6C13.6701 309.2 11.6701 311.8 10.6701 314.6C9.77005 317.3 9.77005 320.1 9.97005 322.7C10.0701 323.5 10.0701 324.4 10.1701 325.3C10.6701 330.8 11.1701 337.7 7.27005 345.4C3.27005 353.4 2.17005 358.5 3.47005 364.2C4.77005 370.1 8.57005 376.9 17.2701 389.3C22.9701 397.3 28.0701 404.3 34.3701 407.4C41.2701 410.9 49.1701 409.4 59.0701 402.7C64.1701 399.2 68.7701 393.4 72.4701 385.9C75.8701 378.9 78.2701 370.7 79.4701 362.2C80.5701 354.1 80.5701 346.1 79.2701 339.8C77.9701 333.6 75.6701 329.2 72.5701 327.4C63.4701 322 59.7701 316.6 57.4701 312.5C56.8701 311.4 56.2701 310.3 55.8701 309.3L55.7701 309C55.3701 308.1 54.9701 307.3 54.5701 306.5C53.5701 304.7 52.6701 303.5 51.5701 302.5C47.9701 299.5 43.6701 298.3 39.0701 298.3Z" fill="black"></path><path d="M45.27 324.8H42.27V436.1H45.27V324.8Z" fill="black"></path><path d="M59.8101 364.53L42.7301 380.53L44.7801 382.72L61.8601 366.72L59.8101 364.53Z" fill="black"></path><path d="M23.17 334.11L21.16 336.34L42.71 355.75L44.72 353.52L23.17 334.11Z" fill="black"></path><path d="M505.336 144.49C505.613 142.658 504.747 141.009 503.402 140.806C502.057 140.603 500.743 141.923 500.466 143.755C500.19 145.586 501.056 147.236 502.4 147.439C503.745 147.642 505.059 146.322 505.336 144.49Z" fill="black"></path><path d="M488.763 142.976C489.04 141.144 488.174 139.495 486.829 139.292C485.484 139.089 484.17 140.409 483.894 142.241C483.617 144.072 484.483 145.722 485.828 145.925C487.172 146.128 488.487 144.807 488.763 142.976Z" fill="black"></path><path d="M503 157.73C503 157.73 492.066 160.065 487.152 157C487.152 157 485.696 163.141 491.793 162.998C497.889 162.865 501.118 159.49 503 157.73Z" fill="black"></path><path d="M273.389 143.447C274.65 143.22 275.421 141.643 275.111 139.926C274.802 138.208 273.529 137 272.268 137.228C271.007 137.455 270.236 139.031 270.545 140.749C270.855 142.466 272.128 143.674 273.389 143.447Z" fill="black"></path></g><defs><clipPath id="clip0"><rect width="791.2" height="449.2" fill="white"></rect></clipPath></defs></svg> 