<?xml version="1.0" encoding="UTF-8"?> <svg xmlns="http://www.w3.org/2000/svg" width="1261" height="554" viewBox="0 0 1261 554" fill="none"><path d="M182.918 294.209C90.9125 270.338 -43.5653 304.951 30.2922 423.496C122.614 571.679 231.356 555.02 297.475 453.429C350.37 372.156 340.236 304.945 328.557 281.498" stroke="black" stroke-width="3" stroke-dasharray="10 10"></path><path d="M424.776 327.163C449.905 339.65 507.37 354.027 536.2 311.645C572.237 258.668 653.229 310.998 721.262 288.397" stroke="black" stroke-width="3" stroke-dasharray="10 10"></path><path d="M201.741 229.998C162.093 203.884 104.562 139.74 191.62 92.0759C300.442 32.4961 342.749 46.2923 391.621 103.599C440.493 160.906 410.916 347.267 539.082 256.218C667.248 165.169 594.542 310.083 720.767 288.466" stroke="black" stroke-width="3" stroke-dasharray="10 10"></path><path d="M395.186 295.948C428.794 256.94 510.775 202.309 569.843 295.856C628.911 389.403 695.363 327.175 720.767 288.467" stroke="black" stroke-width="3" stroke-dasharray="10 10"></path><path d="M199.232 417.313L182.67 424.711L189.15 407.769C192.644 398.634 192.919 388.66 189.999 379.277C155.032 373.61 130.091 353.913 118.053 326.962C95.8446 277.241 118.974 206.301 190.543 174.334C266.362 140.468 327.786 168.804 349.85 218.202C372.06 267.925 351.729 332.741 276.339 366.415C263.132 372.314 248.564 376.706 234.815 378.967C228.504 396.116 215.748 409.936 199.232 417.313Z" fill="#41DC8B"></path><path d="M207.145 404.661L193.89 410.581L199.076 397.022C202.692 387.567 202.975 377.247 199.957 367.548L199.681 366.662L198.765 366.513C164.259 360.921 139.765 341.523 127.948 315.067C106.121 266.201 128.765 196.095 199.68 164.42C274.873 130.834 335.335 159.013 357.006 207.53C378.822 256.372 359.017 320.367 284.252 353.762C271.16 359.61 256.715 363.964 243.097 366.204L242.235 366.346L241.933 367.166C235.758 383.944 223.284 397.452 207.145 404.661Z" stroke="black" stroke-width="3"></path><path d="M472.197 376.849L486.352 371.1L472.278 365.157C464.689 361.952 458.468 356.302 454.469 349.055C471.419 324.502 473.996 297.858 464.64 274.825C447.379 232.331 390.782 205.011 329.615 229.857C264.816 256.178 246.21 310.029 263.359 352.247C280.621 394.743 331.865 420.191 396.297 394.019C407.584 389.434 418.75 383.143 428.142 376.108C442.244 382.274 458.082 382.583 472.197 376.849Z" fill="#4ADC8F"></path><path d="M480.157 364.176L490.957 359.79L480.219 355.255C472.315 351.918 465.839 346.033 461.68 338.497L461.231 337.684L461.759 336.92C478.443 312.751 480.927 286.637 471.775 264.106C454.866 222.479 399.207 195.387 338.704 219.963C274.54 246.026 256.487 299.075 273.273 340.399C290.172 382.001 340.459 407.261 404.257 381.346C415.428 376.808 426.481 370.58 435.767 363.624L436.467 363.1L437.268 363.45C451.007 369.458 466.425 369.754 480.157 364.176Z" fill="white" stroke="black" stroke-width="3"></path><path d="M362.179 256.264L372.158 257.704L366.121 249.629C362.865 245.276 361.203 239.985 361.339 234.524C379.175 226.184 389.519 211.865 391.862 195.626C396.186 165.669 373.045 131.251 329.924 125.028C284.242 118.435 255.703 142.915 251.408 172.677C247.084 202.636 267.799 234.204 313.222 240.76C321.179 241.908 329.636 242.044 337.33 241.165C343.309 249.375 352.228 254.828 362.179 256.264Z" fill="#3FAEFF"></path><path d="M370.919 243.494L377.314 244.417L373.445 239.243C369.984 234.615 368.221 228.993 368.365 223.202L368.388 222.274L369.229 221.88C386.642 213.738 396.637 199.828 398.903 184.127C403.093 155.096 380.647 121.348 338.235 115.228C293.232 108.733 265.575 132.798 261.418 161.607C257.232 190.61 277.216 221.532 321.962 227.99C329.795 229.12 338.122 229.254 345.685 228.389L346.554 228.29L347.068 228.997C352.814 236.888 361.377 242.117 370.919 243.494Z" stroke="black" stroke-width="3"></path><path d="M131.086 155.663L138.885 153.301L131.7 149.457C127.826 147.384 124.798 144.079 123.028 140.035C133.231 127.822 135.901 113.797 132.058 101.106C124.966 77.6934 96.2411 60.418 62.5403 70.6253C26.838 81.4389 14.325 109.131 21.3703 132.392C28.4619 155.806 54.4352 171.826 89.9353 161.074C96.1541 159.19 102.392 156.394 107.724 153.116C114.912 157.081 123.309 158.019 131.086 155.663Z" fill="#43A6F6"></path><path d="M137.472 145.202L141.805 143.89L137.813 141.754C133.637 139.52 130.377 135.958 128.475 131.611L128.102 130.76L128.698 130.048C138.6 118.194 141.129 104.687 137.442 92.5158C130.622 69.9988 102.81 53.0359 69.7954 63.0355C34.7496 73.6502 22.8604 100.594 29.6262 122.932C36.438 145.422 61.476 161.166 96.3208 150.613C102.42 148.765 108.539 146.022 113.759 142.813L114.503 142.355L115.269 142.778C122.111 146.551 130.091 147.438 137.472 145.202Z" fill="white" stroke="black" stroke-width="3"></path><path d="M359.194 396.372C360.922 420.868 378.255 461.465 433.754 427.889C503.128 385.919 567.741 451.132 555.283 354.426C542.825 257.72 545.978 265.863 592.924 287.595C639.871 309.327 678.567 304.442 720.767 288.469" stroke="black" stroke-width="3" stroke-dasharray="10 10"></path><path d="M334.54 369.229C341.834 368.235 347.794 364.761 352.252 358.904C356.711 353.048 358.467 346.387 357.474 339.103C356.482 331.822 353.006 325.874 347.141 321.423C341.277 316.975 334.606 315.224 327.313 316.218C320.018 317.213 314.059 320.686 309.601 326.542C305.143 332.398 303.385 339.061 304.378 346.342C305.371 353.626 308.848 359.575 314.712 364.023C320.576 368.471 327.248 370.223 334.54 369.229Z" fill="#3FAEFF"></path><path d="M385.302 394.506C384.861 392.382 384.241 390.084 383.461 387.674C382.674 385.246 381.777 382.972 380.795 380.916C379.779 378.791 378.511 376.728 377.027 374.788C375.487 372.775 373.768 371.073 371.916 369.732C369.98 368.329 367.704 367.299 365.147 366.67C362.6 366.045 359.856 365.927 356.991 366.318C355.866 366.471 354.841 367.08 352.925 368.733C351.747 369.751 350.367 370.931 348.825 372.239C347.507 373.354 345.668 374.481 343.358 375.59C341.105 376.673 338.764 377.385 336.402 377.707C334.04 378.03 331.595 377.969 329.131 377.53C326.612 377.08 324.538 376.487 322.971 375.765C321.153 374.926 319.506 374.158 318.077 373.483C315.792 372.403 314.64 372.091 313.515 372.244C310.649 372.635 308.038 373.484 305.752 374.769C303.459 376.058 301.54 377.659 300.049 379.531C298.625 381.319 297.424 383.419 296.48 385.77C295.57 388.036 294.9 390.362 294.491 392.684C294.095 394.928 293.84 397.358 293.731 399.907C293.625 402.435 293.643 404.816 293.787 406.985C293.928 409.111 294.152 411.307 294.452 413.514C295.236 419.258 297.699 423.66 301.773 426.598C305.797 429.496 310.744 430.571 316.476 429.789L369.548 422.553C375.28 421.772 379.758 419.413 382.859 415.542C386 411.623 387.194 406.723 386.411 400.975C386.108 398.758 385.735 396.581 385.302 394.506Z" fill="#3FAEFF"></path><path d="M356.736 352.629L356.736 352.629C352.518 358.169 346.915 361.435 340.014 362.376C333.115 363.316 326.843 361.669 321.295 357.461C315.748 353.253 312.48 347.661 311.541 340.773C310.602 333.886 312.254 327.623 316.471 322.084C320.689 316.544 326.291 313.278 333.192 312.337C340.092 311.397 346.364 313.043 351.911 317.251C357.459 321.461 360.726 327.053 361.665 333.939C362.604 340.827 360.953 347.089 356.736 352.629Z" fill="white" stroke="black" stroke-width="3"></path><path d="M389.51 389.447L389.51 389.446C389.081 387.383 388.476 385.137 387.71 382.771C386.942 380.399 386.069 378.187 385.118 376.198L385.118 376.197C384.149 374.169 382.936 372.195 381.513 370.334C380.051 368.424 378.434 366.828 376.713 365.582L376.713 365.581C374.949 364.303 372.853 363.349 370.466 362.762C368.12 362.186 365.568 362.071 362.871 362.439C362.221 362.527 361.488 362.858 359.582 364.503C358.399 365.525 357.016 366.708 355.472 368.018L355.471 368.019C354.02 369.246 352.059 370.437 349.684 371.577C347.297 372.724 344.806 373.484 342.281 373.828C339.757 374.173 337.154 374.107 334.545 373.641C331.954 373.179 329.745 372.556 328.02 371.762L328.019 371.761C326.198 370.921 324.548 370.151 323.114 369.474L323.113 369.474C320.84 368.4 320.044 368.277 319.395 368.365C316.697 368.733 314.269 369.528 312.164 370.712L312.164 370.712C310.023 371.915 308.258 373.395 306.899 375.1L389.51 389.447ZM389.51 389.447C389.936 391.486 390.303 393.628 390.601 395.813L389.51 389.447ZM303.549 380.963L303.549 380.964C302.676 383.137 302.036 385.363 301.645 387.579L303.549 380.963ZM303.549 380.963C304.444 378.733 305.575 376.764 306.899 375.101L303.549 380.963ZM300.96 401.521L300.96 401.521C301.099 403.61 301.319 405.771 301.615 407.946C302.352 413.352 304.638 417.355 308.327 420.015L300.96 401.521ZM300.96 401.521C300.82 399.413 300.802 397.088 300.907 394.606L300.96 401.521ZM387.365 409.239L387.365 409.239C390.208 405.692 391.339 401.222 390.601 395.813L387.365 409.239ZM387.365 409.239C384.544 412.761 380.441 414.963 375.022 415.702L321.95 422.938C316.532 423.677 311.987 422.652 308.327 420.016L387.365 409.239ZM300.907 394.606C301.013 392.115 301.262 389.751 301.644 387.579L300.907 394.606Z" fill="white" stroke="black" stroke-width="3"></path><path d="M246.88 57.6914L246.88 57.6913C250.362 55.1332 252.435 51.7086 253.084 47.4439C253.733 43.1809 252.773 39.2943 250.209 35.8149L246.88 57.6914ZM246.88 57.6914C243.397 60.25 239.504 61.2075 235.23 60.5572M246.88 57.6914L235.23 60.5572M235.23 60.5572C230.959 59.9071 227.526 57.8342 224.962 54.3562C222.398 50.8779 221.437 46.9911 222.086 42.7264C222.735 38.4629 224.809 35.0378 228.291 32.4796C231.773 29.9215 235.666 28.9638 239.94 29.6142C244.212 30.2644 247.644 32.3368 250.209 35.8146L235.23 60.5572Z" fill="white" stroke="black" stroke-width="3"></path><path d="M260.146 86.66L260.146 86.6587C260.255 85.3351 260.289 83.8646 260.247 82.2866L260.146 86.66ZM260.146 86.66C260.039 87.9779 259.878 89.3493 259.668 90.7351L260.146 86.66ZM259.851 77.8454L259.851 77.8452C259.628 76.4604 259.25 75.0626 258.725 73.6941C258.189 72.2976 257.508 71.0702 256.711 70.0378L256.711 70.0375C255.904 68.9922 254.843 68.0706 253.536 67.3083L259.851 77.8454ZM259.851 77.8454C260.071 79.215 260.205 80.7092 260.247 82.2861L259.851 77.8454ZM225.719 65.092L225.718 65.0912C224.75 64.2437 223.873 63.4703 223.112 62.7927L223.112 62.7925C221.912 61.723 221.549 61.6045 221.303 61.5671C219.638 61.3136 218.069 61.3628 216.633 61.6924L216.633 61.6925C215.159 62.0304 213.872 62.5945 212.789 63.3534L225.719 65.092ZM225.719 65.092C226.683 65.9339 227.972 66.7409 229.504 67.506L225.719 65.092ZM209.78 66.2447L209.78 66.2448C208.871 67.3953 208.094 68.6169 207.47 69.8737L209.78 66.2447ZM209.78 66.2447C210.705 65.0722 211.72 64.1034 212.789 63.3537L209.78 66.2447ZM204.566 78.2015L204.566 78.2019C204.275 79.4992 204.021 80.8558 203.812 82.235C203.304 85.5716 203.963 88.2931 205.645 90.4626C207.32 92.6201 209.795 94.0152 213.149 94.5255L247.097 99.6921C250.451 100.202 253.228 99.6072 255.47 98.0448L255.47 98.0448C257.72 96.4759 259.16 94.0739 259.668 90.7357L204.566 78.2015ZM204.566 78.2015C204.857 76.9023 205.261 75.4876 205.77 73.9959L204.566 78.2015ZM243.85 67.8511L243.851 67.8504L229.505 67.5062C231.073 68.2893 232.715 68.8191 234.388 69.0738C236.061 69.3284 237.787 69.3111 239.516 69.0296C241.209 68.7547 242.679 68.3678 243.85 67.8511ZM249.113 65.8C250.778 66.0534 252.261 66.5664 253.535 67.3078L247.02 66.432C247.02 66.4319 247.02 66.4318 247.02 66.4318C248.486 65.7677 248.868 65.7626 249.113 65.8ZM205.77 73.9957C206.28 72.5029 206.852 71.1167 207.469 69.8741L205.77 73.9957Z" fill="white" stroke="black" stroke-width="3"></path><path d="M146.964 446.779L146.965 446.779C150.653 445.531 153.836 443.058 156.161 440.265C158.472 437.491 160.053 434.26 160.359 431.388C161.42 421.416 154.172 412.439 144.199 411.377C134.226 410.315 125.25 417.565 124.188 427.537C123.884 430.395 125.952 432.963 128.816 433.268C131.679 433.573 134.242 431.498 134.547 428.64C135 424.382 138.835 421.282 143.096 421.736C147.357 422.189 150.454 426.028 150 430.285C149.928 430.961 149.301 432.315 148.056 433.749C146.85 435.137 145.275 436.352 143.629 436.907L143.627 436.908C138.977 438.483 135.632 442.651 135.112 447.537L134.936 449.193C134.631 452.051 136.699 454.618 139.563 454.923C142.427 455.228 144.989 453.153 145.293 450.295L145.469 448.64C145.56 447.789 146.148 447.054 146.964 446.779ZM98.1411 437.817C100.651 414.24 121.875 397.101 145.452 399.611C169.028 402.12 186.168 423.344 183.658 446.921C181.148 470.498 159.924 487.637 136.348 485.127C112.771 482.617 95.6312 461.394 98.1411 437.817ZM133.365 463.943C133.061 466.802 135.133 469.368 137.993 469.673C140.852 469.977 143.419 467.905 143.723 465.045C144.027 462.186 141.955 459.619 139.095 459.315C136.236 459.011 133.67 461.083 133.365 463.943Z" fill="white" stroke="black" stroke-width="3"></path><g clip-path="url(#clip0)"><path d="M770.914 336.77C777.839 336.77 783.453 331.156 783.453 324.23C783.453 317.305 777.839 311.691 770.914 311.691C763.989 311.691 758.375 317.305 758.375 324.23C758.375 331.156 763.989 336.77 770.914 336.77Z" fill="black"></path><path d="M770.914 229.77C752.937 229.77 738.312 244.394 738.312 262.371V265.506H763.391V262.371C763.391 258.223 766.766 254.848 770.914 254.848C775.063 254.848 778.438 258.223 778.438 262.371C778.438 264.582 777.467 266.674 775.775 268.112L758.375 282.905V305.422H783.453V294.501L792.016 287.22C799.324 281.011 803.516 271.954 803.516 262.371C803.516 244.394 788.891 229.77 770.914 229.77V229.77Z" fill="black"></path></g><path d="M824.414 291.759C860.414 291.759 923.715 293.895 960.533 237.736C1006.56 167.536 1038.54 160.516 1129.41 157.77" stroke="black" stroke-width="3" stroke-dasharray="10 10"></path><path d="M1129.41 421.759C1093.41 421.759 1030.11 423.832 993.295 369.349C947.272 301.245 915.29 294.434 824.414 291.77" stroke="black" stroke-width="3" stroke-dasharray="10 10"></path><path d="M825.414 291.77H1050.41" stroke="black" stroke-width="3" stroke-dasharray="10 10"></path><g clip-path="url(#clip1)"><path d="M1181.1 148.066C1175.87 148.066 1171.61 152.324 1171.61 157.559V183.293C1171.61 188.527 1175.87 192.785 1181.1 192.785C1186.34 192.785 1190.59 188.527 1190.59 183.293V157.559C1190.59 152.324 1186.34 148.066 1181.1 148.066Z" fill="black"></path><path d="M1165.28 157.56C1165.28 156.647 1165.4 155.765 1165.55 154.895C1161.74 156.127 1158.95 159.669 1158.95 163.888V176.966C1158.95 181.184 1161.74 184.726 1165.55 185.959C1165.4 185.088 1165.28 184.207 1165.28 183.294V157.56Z" fill="black"></path><path d="M1231.73 148.066C1226.49 148.066 1222.23 152.324 1222.23 157.559V183.293C1222.23 188.527 1226.49 192.785 1231.73 192.785C1232.68 192.785 1233.58 192.602 1234.45 192.34C1233.27 196.245 1229.68 199.113 1225.4 199.113H1215.32C1214.01 195.438 1210.53 192.785 1206.41 192.785C1201.18 192.785 1196.92 197.043 1196.92 202.277C1196.92 207.512 1201.18 211.77 1206.41 211.77C1210.53 211.77 1214.01 209.116 1215.32 205.441H1225.4C1234.12 205.441 1241.22 198.344 1241.22 189.621V183.293V157.559C1241.22 152.324 1236.96 148.066 1231.73 148.066Z" fill="black"></path><path d="M1247.28 154.895C1247.43 155.765 1247.55 156.647 1247.55 157.56V183.294C1247.55 184.207 1247.43 185.088 1247.28 185.959C1251.09 184.726 1253.88 181.184 1253.88 176.966V163.888C1253.88 159.669 1251.09 156.127 1247.28 154.895Z" fill="black"></path><path d="M1206.41 103.77C1180.24 103.77 1158.95 125.059 1158.95 151.23V151.311C1160.84 149.884 1163.02 148.84 1165.43 148.372C1166.91 127.026 1184.7 110.098 1206.41 110.098C1228.13 110.098 1245.92 127.026 1247.4 148.372C1249.81 148.839 1251.99 149.884 1253.88 151.311V151.23C1253.88 125.059 1232.59 103.77 1206.41 103.77Z" fill="black"></path></g><g clip-path="url(#clip2)"><path d="M1108.1 282.066C1102.87 282.066 1098.61 286.324 1098.61 291.559V317.293C1098.61 322.527 1102.87 326.785 1108.1 326.785C1113.34 326.785 1117.59 322.527 1117.59 317.293V291.559C1117.59 286.324 1113.34 282.066 1108.1 282.066Z" fill="black"></path><path d="M1092.28 291.56C1092.28 290.647 1092.4 289.765 1092.55 288.895C1088.74 290.127 1085.95 293.669 1085.95 297.888V310.966C1085.95 315.184 1088.74 318.726 1092.55 319.959C1092.4 319.088 1092.28 318.207 1092.28 317.294V291.56Z" fill="black"></path><path d="M1158.73 282.066C1153.49 282.066 1149.23 286.324 1149.23 291.559V317.293C1149.23 322.527 1153.49 326.785 1158.73 326.785C1159.68 326.785 1160.58 326.602 1161.45 326.34C1160.27 330.245 1156.68 333.113 1152.4 333.113H1142.32C1141.01 329.438 1137.53 326.785 1133.41 326.785C1128.18 326.785 1123.92 331.043 1123.92 336.277C1123.92 341.512 1128.18 345.77 1133.41 345.77C1137.53 345.77 1141.01 343.116 1142.32 339.441H1152.4C1161.12 339.441 1168.22 332.344 1168.22 323.621V317.293V291.559C1168.22 286.324 1163.96 282.066 1158.73 282.066Z" fill="black"></path><path d="M1174.28 288.895C1174.43 289.765 1174.55 290.647 1174.55 291.56V317.294C1174.55 318.207 1174.43 319.088 1174.28 319.959C1178.09 318.726 1180.88 315.184 1180.88 310.966V297.888C1180.88 293.669 1178.09 290.127 1174.28 288.895Z" fill="black"></path><path d="M1133.41 237.77C1107.24 237.77 1085.95 259.059 1085.95 285.23V285.311C1087.84 283.884 1090.02 282.84 1092.43 282.372C1093.91 261.026 1111.7 244.098 1133.41 244.098C1155.13 244.098 1172.92 261.026 1174.4 282.372C1176.81 282.839 1178.99 283.884 1180.88 285.311V285.23C1180.88 259.059 1159.59 237.77 1133.41 237.77Z" fill="black"></path></g><g clip-path="url(#clip3)"><path d="M1178.1 412.066C1172.87 412.066 1168.61 416.324 1168.61 421.559V447.293C1168.61 452.527 1172.87 456.785 1178.1 456.785C1183.34 456.785 1187.59 452.527 1187.59 447.293V421.559C1187.59 416.324 1183.34 412.066 1178.1 412.066Z" fill="black"></path><path d="M1162.28 421.56C1162.28 420.647 1162.4 419.765 1162.55 418.895C1158.74 420.127 1155.95 423.669 1155.95 427.888V440.966C1155.95 445.184 1158.74 448.726 1162.55 449.959C1162.4 449.088 1162.28 448.207 1162.28 447.294V421.56Z" fill="black"></path><path d="M1228.73 412.066C1223.49 412.066 1219.23 416.324 1219.23 421.559V447.293C1219.23 452.527 1223.49 456.785 1228.73 456.785C1229.68 456.785 1230.58 456.602 1231.45 456.34C1230.27 460.245 1226.68 463.113 1222.4 463.113H1212.32C1211.01 459.438 1207.53 456.785 1203.41 456.785C1198.18 456.785 1193.92 461.043 1193.92 466.277C1193.92 471.512 1198.18 475.77 1203.41 475.77C1207.53 475.77 1211.01 473.116 1212.32 469.441H1222.4C1231.12 469.441 1238.22 462.344 1238.22 453.621V447.293V421.559C1238.22 416.324 1233.96 412.066 1228.73 412.066Z" fill="black"></path><path d="M1244.28 418.895C1244.43 419.765 1244.55 420.647 1244.55 421.56V447.294C1244.55 448.207 1244.43 449.088 1244.28 449.959C1248.09 448.726 1250.88 445.184 1250.88 440.966V427.888C1250.88 423.669 1248.09 420.127 1244.28 418.895Z" fill="black"></path><path d="M1203.41 367.77C1177.24 367.77 1155.95 389.059 1155.95 415.23V415.311C1157.84 413.884 1160.02 412.84 1162.43 412.372C1163.91 391.026 1181.7 374.098 1203.41 374.098C1225.13 374.098 1242.92 391.026 1244.4 412.372C1246.81 412.839 1248.99 413.884 1250.88 415.311V415.23C1250.88 389.059 1229.59 367.77 1203.41 367.77Z" fill="black"></path></g><defs><clipPath id="clip0"><rect x="717.414" y="229.77" width="107" height="107" fill="white"></rect></clipPath><clipPath id="clip1"><rect x="1152.41" y="103.77" width="108" height="108" fill="white"></rect></clipPath><clipPath id="clip2"><rect x="1079.41" y="237.77" width="108" height="108" fill="white"></rect></clipPath><clipPath id="clip3"><rect x="1149.41" y="367.77" width="108" height="108" fill="white"></rect></clipPath></defs></svg> 