<?xml version="1.0" encoding="UTF-8"?> <svg xmlns="http://www.w3.org/2000/svg" width="520" height="372" viewBox="0 0 520 372" fill="none"><rect width="520" height="372" fill="white"></rect><g filter="url(#filter0_d)"><rect x="26" y="26" width="468" height="320" rx="20" fill="white"></rect></g><path opacity="0.1" fill-rule="evenodd" clip-rule="evenodd" d="M259.517 206.391C296.476 206.391 326.437 176.43 326.437 139.472C326.437 102.513 296.476 72.5522 259.517 72.5522C250.092 72.5522 241.123 74.5006 232.989 78.0165C209.226 88.2879 192.598 111.938 192.598 139.472C192.598 176.43 222.559 206.391 259.517 206.391Z" fill="#0CCE6B" stroke="#0CCE6B" stroke-width="9.56588" stroke-linecap="round"></path><path d="M259.517 72.5522C296.476 72.5522 326.437 102.513 326.437 139.472C326.437 176.43 296.476 206.391 259.517 206.391C244.604 206.391 230.83 201.513 219.704 193.265C213.466 188.64 208.061 182.957 203.754 176.481C196.705 165.881 192.598 153.156 192.598 139.472C192.598 121.29 199.849 104.801 211.617 92.7405C216.595 87.639 222.381 83.3297 228.768 80.0194" stroke="#0CCE6B" stroke-width="9.56588" stroke-linecap="round" stroke-dasharray="373.88 1.16"></path><path d="M233.989 129.897C233.989 126.217 235.048 123.24 237.164 120.966C239.296 118.676 242.06 117.531 245.456 117.531C250.684 117.531 254.269 119.845 256.212 124.472C257.317 127.094 257.87 130.545 257.87 134.825C257.87 138.979 257.341 142.446 256.283 145.226C254.261 150.517 250.549 153.162 245.148 153.162C242.573 153.162 240.26 152.404 238.206 150.888C236.153 149.356 234.976 147.129 234.676 144.207H241.405C241.563 145.218 241.989 146.039 242.684 146.671C243.379 147.303 244.303 147.618 245.456 147.618C247.683 147.618 249.246 146.386 250.147 143.923C250.636 142.564 250.944 140.582 251.071 137.976C250.455 138.75 249.799 139.342 249.104 139.753C247.841 140.511 246.285 140.89 244.437 140.89C241.705 140.89 239.28 139.95 237.164 138.071C235.048 136.176 233.989 133.451 233.989 129.897ZM245.906 135.394C246.838 135.394 247.714 135.125 248.536 134.588C250.068 133.609 250.834 131.911 250.834 129.495C250.834 127.552 250.376 126.012 249.46 124.875C248.559 123.738 247.32 123.169 245.74 123.169C244.587 123.169 243.6 123.493 242.779 124.141C241.484 125.151 240.836 126.865 240.836 129.281C240.836 131.319 241.247 132.851 242.068 133.878C242.905 134.888 244.184 135.394 245.906 135.394ZM261.068 152.167C261.131 149.703 261.661 147.453 262.656 145.415C263.619 143.125 265.893 140.701 269.479 138.142C272.59 135.915 274.604 134.32 275.52 133.356C276.926 131.856 277.628 130.213 277.628 128.429C277.628 126.976 277.226 125.767 276.42 124.804C275.615 123.84 274.462 123.359 272.961 123.359C270.908 123.359 269.51 124.125 268.768 125.657C268.341 126.541 268.089 127.947 268.01 129.874H261.447C261.558 126.952 262.087 124.591 263.035 122.79C264.835 119.363 268.033 117.649 272.63 117.649C276.262 117.649 279.152 118.66 281.3 120.682C283.448 122.687 284.522 125.349 284.522 128.666C284.522 131.208 283.764 133.467 282.248 135.441C281.253 136.752 279.618 138.213 277.344 139.824L274.643 141.743C272.953 142.943 271.792 143.812 271.161 144.349C270.545 144.886 270.024 145.51 269.597 146.221H284.594V152.167H261.068Z" fill="#0CCE6B"></path><rect x="62.5776" y="262.545" width="393.967" height="47.3641" rx="22.5268" fill="black" fill-opacity="0.01" stroke="#E0E0E0" stroke-width="1.15522"></rect><g clip-path="url(#clip0)"><path d="M127.938 283.871C127.938 285.827 127.604 287.28 126.936 288.231C126.268 289.181 125.224 289.657 123.804 289.657C122.402 289.657 121.364 289.193 120.69 288.267C120.016 287.334 119.667 285.944 119.643 284.097V281.868C119.643 279.936 119.977 278.501 120.645 277.563C121.313 276.624 122.36 276.155 123.786 276.155C125.2 276.155 126.241 276.609 126.909 277.518C127.576 278.42 127.919 279.816 127.938 281.705V283.871ZM126.268 281.588C126.268 280.174 126.069 279.145 125.672 278.501C125.275 277.852 124.646 277.527 123.786 277.527C122.932 277.527 122.309 277.849 121.918 278.492C121.527 279.136 121.325 280.126 121.313 281.462V284.133C121.313 285.553 121.518 286.603 121.927 287.283C122.342 287.957 122.968 288.294 123.804 288.294C124.628 288.294 125.239 287.975 125.636 287.337C126.039 286.699 126.25 285.694 126.268 284.323V281.588ZM139.49 283.601H130.447V282.238H139.49V283.601ZM149.255 285.063H151.078V286.426H149.255V289.476H147.576V286.426H141.593V285.442L147.477 276.335H149.255V285.063ZM143.488 285.063H147.576V278.619L147.378 278.98L143.488 285.063ZM158.984 283.7C158.635 284.115 158.217 284.449 157.73 284.702C157.248 284.954 156.719 285.081 156.141 285.081C155.383 285.081 154.721 284.894 154.156 284.521C153.596 284.148 153.163 283.625 152.856 282.951C152.549 282.271 152.396 281.522 152.396 280.704C152.396 279.825 152.561 279.034 152.892 278.33C153.229 277.626 153.704 277.087 154.318 276.714C154.932 276.341 155.648 276.155 156.466 276.155C157.766 276.155 158.789 276.642 159.535 277.617C160.287 278.586 160.663 279.909 160.663 281.588V282.075C160.663 284.633 160.157 286.501 159.147 287.68C158.136 288.853 156.611 289.455 154.571 289.485H154.246V288.077H154.598C155.976 288.053 157.035 287.695 157.775 287.003C158.515 286.305 158.918 285.204 158.984 283.7ZM156.412 283.7C156.972 283.7 157.486 283.528 157.955 283.185C158.431 282.843 158.777 282.418 158.993 281.913V281.245C158.993 280.15 158.755 279.26 158.28 278.574C157.805 277.888 157.203 277.545 156.475 277.545C155.741 277.545 155.151 277.828 154.706 278.393C154.261 278.953 154.038 279.693 154.038 280.613C154.038 281.51 154.252 282.25 154.679 282.834C155.112 283.411 155.69 283.7 156.412 283.7Z" fill="#212121"></path><rect x="86.2598" y="282.761" width="20.794" height="6.93134" rx="3.46567" fill="#FF4E42"></rect><rect x="86.2598" y="282.761" width="20.794" height="6.93134" rx="3.46567" stroke="#212121"></rect></g><g clip-path="url(#clip1)"><path d="M224.904 282.888L225.572 276.335H232.305V277.879H226.989L226.592 281.462C227.236 281.083 227.967 280.893 228.785 280.893C229.982 280.893 230.933 281.29 231.637 282.084C232.341 282.873 232.693 283.941 232.693 285.288C232.693 286.642 232.326 287.71 231.592 288.492C230.864 289.268 229.844 289.657 228.532 289.657C227.371 289.657 226.423 289.335 225.689 288.691C224.955 288.047 224.537 287.157 224.435 286.019H226.014C226.116 286.771 226.384 287.34 226.817 287.725C227.251 288.104 227.822 288.294 228.532 288.294C229.308 288.294 229.916 288.029 230.355 287.5C230.801 286.97 231.023 286.239 231.023 285.306C231.023 284.428 230.783 283.724 230.301 283.195C229.826 282.659 229.191 282.391 228.397 282.391C227.669 282.391 227.097 282.551 226.682 282.87L226.24 283.231L224.904 282.888ZM242.756 283.871C242.756 285.827 242.422 287.28 241.754 288.231C241.086 289.181 240.042 289.657 238.622 289.657C237.22 289.657 236.183 289.193 235.509 288.267C234.835 287.334 234.486 285.944 234.462 284.097V281.868C234.462 279.936 234.796 278.501 235.464 277.563C236.131 276.624 237.178 276.155 238.604 276.155C240.018 276.155 241.059 276.609 241.727 277.518C242.395 278.42 242.738 279.816 242.756 281.705V283.871ZM241.086 281.588C241.086 280.174 240.888 279.145 240.491 278.501C240.093 277.852 239.465 277.527 238.604 277.527C237.75 277.527 237.127 277.849 236.736 278.492C236.345 279.136 236.143 280.126 236.131 281.462V284.133C236.131 285.553 236.336 286.603 236.745 287.283C237.16 287.957 237.786 288.294 238.622 288.294C239.447 288.294 240.057 287.975 240.454 287.337C240.858 286.699 241.068 285.694 241.086 284.323V281.588ZM254.308 283.601H245.265V282.238H254.308V283.601ZM264.994 279.765C264.994 280.421 264.819 281.004 264.47 281.516C264.128 282.027 263.661 282.427 263.072 282.716C263.758 283.011 264.299 283.441 264.696 284.007C265.099 284.572 265.301 285.213 265.301 285.929C265.301 287.066 264.916 287.972 264.146 288.646C263.381 289.32 262.374 289.657 261.122 289.657C259.859 289.657 258.845 289.32 258.081 288.646C257.323 287.966 256.943 287.06 256.943 285.929C256.943 285.219 257.136 284.578 257.521 284.007C257.912 283.435 258.451 283.002 259.137 282.707C258.553 282.418 258.093 282.018 257.756 281.507C257.419 280.995 257.25 280.415 257.25 279.765C257.25 278.658 257.605 277.779 258.315 277.13C259.025 276.48 259.961 276.155 261.122 276.155C262.277 276.155 263.21 276.48 263.92 277.13C264.636 277.779 264.994 278.658 264.994 279.765ZM263.631 285.893C263.631 285.159 263.397 284.56 262.927 284.097C262.464 283.634 261.856 283.402 261.104 283.402C260.352 283.402 259.747 283.631 259.29 284.088C258.839 284.545 258.613 285.147 258.613 285.893C258.613 286.639 258.833 287.226 259.272 287.653C259.717 288.08 260.334 288.294 261.122 288.294C261.904 288.294 262.518 288.08 262.963 287.653C263.409 287.22 263.631 286.633 263.631 285.893ZM261.122 277.527C260.466 277.527 259.934 277.731 259.525 278.14C259.122 278.544 258.92 279.094 258.92 279.792C258.92 280.46 259.119 281.001 259.516 281.417C259.919 281.826 260.454 282.03 261.122 282.03C261.79 282.03 262.323 281.826 262.72 281.417C263.123 281.001 263.324 280.46 263.324 279.792C263.324 279.124 263.117 278.58 262.702 278.158C262.286 277.737 261.76 277.527 261.122 277.527ZM273.803 283.7C273.454 284.115 273.035 284.449 272.548 284.702C272.067 284.954 271.537 285.081 270.96 285.081C270.201 285.081 269.54 284.894 268.974 284.521C268.415 284.148 267.981 283.625 267.674 282.951C267.368 282.271 267.214 281.522 267.214 280.704C267.214 279.825 267.38 279.034 267.711 278.33C268.047 277.626 268.523 277.087 269.137 276.714C269.75 276.341 270.466 276.155 271.285 276.155C272.584 276.155 273.607 276.642 274.353 277.617C275.105 278.586 275.481 279.909 275.481 281.588V282.075C275.481 284.633 274.976 286.501 273.965 287.68C272.954 288.853 271.429 289.455 269.389 289.485H269.064V288.077H269.416C270.794 288.053 271.853 287.695 272.593 287.003C273.333 286.305 273.736 285.204 273.803 283.7ZM271.23 283.7C271.79 283.7 272.304 283.528 272.774 283.185C273.249 282.843 273.595 282.418 273.812 281.913V281.245C273.812 280.15 273.574 279.26 273.099 278.574C272.623 277.888 272.022 277.545 271.294 277.545C270.559 277.545 269.97 277.828 269.525 278.393C269.079 278.953 268.857 279.693 268.857 280.613C268.857 281.51 269.07 282.25 269.498 282.834C269.931 283.411 270.508 283.7 271.23 283.7Z" fill="#212121"></path><rect x="190.699" y="282.761" width="20.794" height="6.93134" rx="3.46567" fill="#FFA400"></rect><rect x="190.699" y="282.761" width="20.794" height="6.93134" rx="3.46567" stroke="#212121"></rect></g><g clip-path="url(#clip2)"><path d="M346.077 283.7C345.728 284.115 345.31 284.449 344.822 284.702C344.341 284.954 343.812 285.081 343.234 285.081C342.476 285.081 341.814 284.894 341.248 284.521C340.689 284.148 340.256 283.625 339.949 282.951C339.642 282.271 339.488 281.522 339.488 280.704C339.488 279.825 339.654 279.034 339.985 278.33C340.322 277.626 340.797 277.087 341.411 276.714C342.025 276.341 342.741 276.155 343.559 276.155C344.858 276.155 345.881 276.642 346.627 277.617C347.379 278.586 347.756 279.909 347.756 281.588V282.075C347.756 284.633 347.25 286.501 346.239 287.68C345.228 288.853 343.703 289.455 341.664 289.485H341.339V288.077H341.691C343.068 288.053 344.127 287.695 344.867 287.003C345.608 286.305 346.011 285.204 346.077 283.7ZM343.505 283.7C344.064 283.7 344.579 283.528 345.048 283.185C345.523 282.843 345.869 282.418 346.086 281.913V281.245C346.086 280.15 345.848 279.26 345.373 278.574C344.898 277.888 344.296 277.545 343.568 277.545C342.834 277.545 342.244 277.828 341.799 278.393C341.354 278.953 341.131 279.693 341.131 280.613C341.131 281.51 341.345 282.25 341.772 282.834C342.205 283.411 342.783 283.7 343.505 283.7ZM358.297 283.871C358.297 285.827 357.963 287.28 357.295 288.231C356.627 289.181 355.583 289.657 354.163 289.657C352.761 289.657 351.724 289.193 351.05 288.267C350.376 287.334 350.027 285.944 350.003 284.097V281.868C350.003 279.936 350.337 278.501 351.005 277.563C351.672 276.624 352.719 276.155 354.145 276.155C355.559 276.155 356.6 276.609 357.268 277.518C357.936 278.42 358.279 279.816 358.297 281.705V283.871ZM356.627 281.588C356.627 280.174 356.429 279.145 356.032 278.501C355.635 277.852 355.006 277.527 354.145 277.527C353.291 277.527 352.668 277.849 352.277 278.492C351.886 279.136 351.684 280.126 351.672 281.462V284.133C351.672 285.553 351.877 286.603 352.286 287.283C352.701 287.957 353.327 288.294 354.163 288.294C354.988 288.294 355.598 287.975 355.996 287.337C356.399 286.699 356.609 285.694 356.627 284.323V281.588ZM369.849 283.601H360.806V282.238H369.849V283.601ZM378.053 289.476H376.374V278.348L373.008 279.584V278.068L377.791 276.272H378.053V289.476ZM391.185 283.871C391.185 285.827 390.851 287.28 390.183 288.231C389.515 289.181 388.471 289.657 387.051 289.657C385.649 289.657 384.611 289.193 383.937 288.267C383.264 287.334 382.915 285.944 382.891 284.097V281.868C382.891 279.936 383.224 278.501 383.892 277.563C384.56 276.624 385.607 276.155 387.033 276.155C388.447 276.155 389.488 276.609 390.156 277.518C390.824 278.42 391.167 279.816 391.185 281.705V283.871ZM389.515 281.588C389.515 280.174 389.316 279.145 388.919 278.501C388.522 277.852 387.894 277.527 387.033 277.527C386.179 277.527 385.556 277.849 385.165 278.492C384.774 279.136 384.572 280.126 384.56 281.462V284.133C384.56 285.553 384.765 286.603 385.174 287.283C385.589 287.957 386.215 288.294 387.051 288.294C387.875 288.294 388.486 287.975 388.883 287.337C389.286 286.699 389.497 285.694 389.515 284.323V281.588ZM401.564 283.871C401.564 285.827 401.23 287.28 400.562 288.231C399.894 289.181 398.85 289.657 397.43 289.657C396.028 289.657 394.99 289.193 394.316 288.267C393.643 287.334 393.294 285.944 393.27 284.097V281.868C393.27 279.936 393.603 278.501 394.271 277.563C394.939 276.624 395.986 276.155 397.412 276.155C398.826 276.155 399.867 276.609 400.535 277.518C401.203 278.42 401.546 279.816 401.564 281.705V283.871ZM399.894 281.588C399.894 280.174 399.695 279.145 399.298 278.501C398.901 277.852 398.272 277.527 397.412 277.527C396.558 277.527 395.935 277.849 395.544 278.492C395.153 279.136 394.951 280.126 394.939 281.462V284.133C394.939 285.553 395.144 286.603 395.553 287.283C395.968 287.957 396.594 288.294 397.43 288.294C398.254 288.294 398.865 287.975 399.262 287.337C399.665 286.699 399.876 285.694 399.894 284.323V281.588Z" fill="#212121"></path><rect x="306.238" y="282.761" width="20.794" height="6.93134" rx="3.46567" fill="#0CCE6B"></rect><rect x="306.238" y="282.761" width="20.794" height="6.93134" rx="3.46567" stroke="#212121"></rect></g><path d="M431.69 280.451H434V282.761H431.69V280.451ZM431.69 285.072H434V292.003H431.69V285.072ZM432.845 274.675C426.468 274.675 421.293 279.85 421.293 286.227C421.293 292.604 426.468 297.779 432.845 297.779C439.222 297.779 444.397 292.604 444.397 286.227C444.397 279.85 439.222 274.675 432.845 274.675ZM432.845 295.469C427.751 295.469 423.603 291.321 423.603 286.227C423.603 281.132 427.751 276.985 432.845 276.985C437.94 276.985 442.087 281.132 442.087 286.227C442.087 291.321 437.94 295.469 432.845 295.469Z" fill="black"></path><defs><filter id="filter0_d" x="6" y="10" width="508" height="360" color-interpolation-filters="sRGB"><feFlood flood-opacity="0" result="BackgroundImageFix"></feFlood><feColorMatrix in="SourceAlpha" type="matrix" values="0 0 0 0 0 0 0 0 0 0 0 0 0 0 0 0 0 0 127 0"></feColorMatrix><feOffset dy="4"></feOffset><feGaussianBlur stdDeviation="10"></feGaussianBlur><feColorMatrix type="matrix" values="0 0 0 0 0 0 0 0 0 0 0 0 0 0 0 0 0 0 0.12 0"></feColorMatrix><feBlend mode="normal" in2="BackgroundImageFix" result="effect1_dropShadow"></feBlend><feBlend mode="normal" in="SourceGraphic" in2="effect1_dropShadow" result="shape"></feBlend></filter><clipPath id="clip0"><rect width="76.714" height="27.7254" fill="white" transform="translate(86.2598 272.364)"></rect></clipPath><clipPath id="clip1"><rect width="87.815" height="27.7254" fill="white" transform="translate(190.699 272.364)"></rect></clipPath><clipPath id="clip2"><rect width="98.8979" height="27.7254" fill="white" transform="translate(306.238 272.364)"></rect></clipPath></defs></svg> 