<?xml version="1.0" encoding="UTF-8"?> <!-- Generator: Adobe Illustrator 24.0.3, SVG Export Plug-In . SVG Version: 6.00 Build 0) --> <svg xmlns="http://www.w3.org/2000/svg" xmlns:xlink="http://www.w3.org/1999/xlink" version="1.1" id="Layer_1" x="0px" y="0px" viewBox="0 0 215.6 15.8" style="enable-background:new 0 0 215.6 15.8;" xml:space="preserve"> <style type="text/css"> .st0{fill:#131313;} </style> <g> <path class="st0" d="M7.5,1c-4,0-6.8,3.2-6.8,6.9v0c0,3.7,2.7,6.8,6.8,6.8c4,0,6.8-3.2,6.8-6.9v0C14.2,4.2,11.5,1,7.5,1z M12.7,7.9 c0,3-2.2,5.5-5.2,5.5c-3,0-5.2-2.5-5.2-5.5v0c0-3,2.2-5.5,5.2-5.5C10.5,2.4,12.7,4.9,12.7,7.9L12.7,7.9z"></path> <path class="st0" d="M30.4,5.2L30.4,5.2c0-1.1-0.4-2-1-2.7c-0.8-0.8-2.1-1.3-3.8-1.3h-5.7v13.3h1.5V9.4h3.8l3.9,5.2h1.8l-4.1-5.4 C28.9,8.7,30.4,7.4,30.4,5.2z M21.4,8V2.6h4.1c2.1,0,3.4,1,3.4,2.6v0C28.9,7,27.5,8,25.5,8H21.4z"></path> <path class="st0" d="M44,7.7c1-0.5,2.1-1.3,2.1-3.1v0c0-0.9-0.3-1.6-0.9-2.1c-0.8-0.7-2-1.2-3.5-1.2h-5.7v13.3H42 c2.9,0,4.8-1.3,4.8-3.6v0C46.8,9.1,45.6,8.1,44,7.7z M37.6,2.6h4c1.9,0,2.9,0.9,2.9,2.2v0c0,1.6-1.3,2.4-3.1,2.4h-3.9V2.6z M45.3,10.8c0,1.5-1.3,2.4-3.3,2.4h-4.5V8.5h4.2C44.1,8.5,45.3,9.3,45.3,10.8L45.3,10.8z"></path> <rect x="52.4" y="1.3" class="st0" width="1.5" height="13.3"></rect> <polygon class="st0" points="59.3,2.6 63.7,2.6 63.7,14.6 65.2,14.6 65.2,2.6 69.7,2.6 69.7,1.3 59.3,1.3 "></polygon> <path class="st0" d="M78.2,1.2l-6.1,13.4h1.5l1.6-3.5h7.2l1.6,3.5h1.6L79.6,1.2H78.2z M75.9,9.7l3-6.8l3,6.8H75.9z"></path> <polygon class="st0" points="92.3,1.3 90.8,1.3 90.8,14.6 99.8,14.6 99.8,13.2 92.3,13.2 "></polygon> <path class="st0" d="M117.9,7.2c-2.9-0.6-3.6-1.3-3.6-2.6v0c0-1.2,1.1-2.1,2.8-2.1c1.4,0,2.6,0.4,3.8,1.4l0.9-1.2 c-1.3-1.1-2.7-1.6-4.7-1.6c-2.5,0-4.4,1.5-4.4,3.6v0c0,2.2,1.4,3.2,4.5,3.8c2.8,0.6,3.5,1.3,3.5,2.5v0c0,1.3-1.2,2.3-3,2.3 c-1.8,0-3.2-0.6-4.6-1.9l-0.9,1.1c1.6,1.4,3.3,2.1,5.4,2.1c2.6,0,4.5-1.5,4.5-3.8v0C122.2,8.9,120.8,7.8,117.9,7.2z"></path> <polygon class="st0" points="132.1,7.9 127.6,1.3 125.8,1.3 131.3,9.3 131.3,14.6 132.8,14.6 132.8,9.3 138.4,1.3 136.6,1.3 "></polygon> <path class="st0" d="M147.3,7.2c-2.9-0.6-3.6-1.3-3.6-2.6v0c0-1.2,1.1-2.1,2.8-2.1c1.4,0,2.6,0.4,3.8,1.4l0.9-1.2 c-1.3-1.1-2.7-1.6-4.7-1.6c-2.5,0-4.4,1.5-4.4,3.6v0c0,2.2,1.4,3.2,4.5,3.8c2.8,0.6,3.5,1.3,3.5,2.5v0c0,1.3-1.2,2.3-3,2.3 c-1.8,0-3.2-0.6-4.6-1.9l-0.9,1.1c1.6,1.4,3.3,2.1,5.4,2.1c2.6,0,4.5-1.5,4.5-3.8v0C151.7,8.9,150.3,7.8,147.3,7.2z"></path> <polygon class="st0" points="156,2.6 160.5,2.6 160.5,14.6 162,14.6 162,2.6 166.4,2.6 166.4,1.3 156,1.3 "></polygon> <polygon class="st0" points="173.1,8.5 180.4,8.5 180.4,7.2 173.1,7.2 173.1,2.6 181.3,2.6 181.3,1.3 171.6,1.3 171.6,14.6 181.4,14.6 181.4,13.2 173.1,13.2 "></polygon> <polygon class="st0" points="193.2,8.5 188.4,1.3 186.8,1.3 186.8,14.6 188.3,14.6 188.3,3.8 193.2,10.9 193.2,10.9 198.1,3.8 198.1,14.6 199.6,14.6 199.6,1.3 198.1,1.3 "></polygon> <path class="st0" d="M210.6,7.2c-2.9-0.6-3.6-1.3-3.6-2.6v0c0-1.2,1.1-2.1,2.8-2.1c1.4,0,2.6,0.4,3.8,1.4l0.9-1.2 c-1.3-1.1-2.7-1.6-4.7-1.6c-2.5,0-4.4,1.5-4.4,3.6v0c0,2.2,1.4,3.2,4.5,3.8c2.8,0.6,3.5,1.3,3.5,2.5v0c0,1.3-1.2,2.3-3,2.3 c-1.8,0-3.2-0.6-4.6-1.9l-0.9,1.1c1.6,1.4,3.3,2.1,5.4,2.1c2.6,0,4.5-1.5,4.5-3.8v0C214.9,8.9,213.5,7.8,210.6,7.2z"></path> </g> </svg> 