<?xml version="1.0" encoding="UTF-8"?> <svg xmlns="http://www.w3.org/2000/svg" width="320" height="141" viewBox="0 0 320 141" fill="none"><g opacity="0.3"><path d="M211.52 18.7268H212.639C212.755 18.7268 212.851 18.7549 212.927 18.8111C213.006 18.864 213.059 18.9367 213.085 19.0292L214.304 23.3175C214.334 23.4232 214.36 23.5389 214.383 23.6645C214.41 23.7868 214.434 23.9173 214.458 24.0561C214.484 23.9173 214.512 23.7868 214.542 23.6645C214.575 23.5389 214.609 23.4232 214.646 23.3175L216.053 19.0292C216.079 18.9532 216.13 18.8838 216.206 18.821C216.286 18.7582 216.381 18.7268 216.494 18.7268H216.885C217.001 18.7268 217.097 18.7549 217.173 18.8111C217.249 18.864 217.301 18.9367 217.331 19.0292L218.728 23.3175C218.801 23.529 218.864 23.7636 218.916 24.0214C218.94 23.8925 218.963 23.7686 218.986 23.6496C219.012 23.5306 219.039 23.4199 219.065 23.3175L220.284 19.0292C220.307 18.9466 220.358 18.8755 220.438 18.816C220.517 18.7566 220.613 18.7268 220.725 18.7268H221.77L219.546 25.8954H218.342L216.776 20.9973C216.756 20.9346 216.735 20.8668 216.712 20.7941C216.692 20.7214 216.672 20.6437 216.652 20.5611C216.633 20.6437 216.611 20.7214 216.588 20.7941C216.568 20.8668 216.548 20.9346 216.528 20.9973L214.948 25.8954H213.744L211.52 18.7268Z" fill="black"></path><path d="M225.153 21.4187C225.424 21.4187 225.686 21.4634 225.941 21.5526C226.198 21.6418 226.425 21.7773 226.619 21.9591C226.814 22.1376 226.971 22.3607 227.09 22.6284C227.209 22.8961 227.268 23.2084 227.268 23.5653C227.268 23.8991 227.207 24.2131 227.085 24.5073C226.963 24.7981 226.791 25.0526 226.57 25.2707C226.349 25.4889 226.081 25.6607 225.767 25.7863C225.457 25.9119 225.113 25.9747 224.737 25.9747C224.354 25.9747 224.01 25.9136 223.706 25.7913C223.402 25.669 223.143 25.4988 222.928 25.2806C222.714 25.0592 222.549 24.7948 222.433 24.4874C222.321 24.1768 222.264 23.833 222.264 23.4563C222.264 23.1192 222.332 22.7738 222.468 22.4202C222.606 22.0632 222.819 21.6931 223.107 21.3097L224.816 19.0143C224.875 18.935 224.961 18.8673 225.074 18.8111C225.189 18.7549 225.321 18.7268 225.47 18.7268H226.56L224.434 21.3295C224.388 21.3857 224.344 21.4386 224.301 21.4881C224.261 21.5377 224.221 21.5889 224.182 21.6418C224.321 21.5724 224.469 21.5179 224.628 21.4782C224.79 21.4386 224.965 21.4187 225.153 21.4187ZM223.439 23.6447C223.439 23.843 223.465 24.0247 223.518 24.19C223.574 24.3519 223.655 24.4907 223.761 24.6064C223.87 24.7221 224.003 24.813 224.162 24.8791C224.321 24.9419 224.504 24.9733 224.712 24.9733C224.907 24.9733 225.085 24.9402 225.247 24.8741C225.412 24.808 225.553 24.7155 225.668 24.5965C225.787 24.4775 225.88 24.3387 225.946 24.1801C226.012 24.0181 226.045 23.843 226.045 23.6546C226.045 23.4497 226.013 23.2662 225.951 23.1043C225.888 22.939 225.799 22.8002 225.683 22.6879C225.567 22.5722 225.429 22.4846 225.267 22.4251C225.105 22.3656 224.927 22.3359 224.732 22.3359C224.537 22.3359 224.36 22.3689 224.202 22.435C224.043 22.5011 223.906 22.5937 223.79 22.7126C223.678 22.8283 223.591 22.9671 223.528 23.1291C223.468 23.2877 223.439 23.4596 223.439 23.6447Z" fill="black"></path></g><path fill-rule="evenodd" clip-rule="evenodd" d="M124.488 141L124.488 0L125.589 -4.81555e-08L125.589 141L124.488 141Z" fill="black" fill-opacity="0.1"></path><path fill-rule="evenodd" clip-rule="evenodd" d="M68.6133 141L68.6133 0L69.7143 -4.81555e-08L69.7143 141L68.6133 141Z" fill="black" fill-opacity="0.1"></path><path fill-rule="evenodd" clip-rule="evenodd" d="M207.664 141L207.664 0L208.765 -4.81555e-08L208.765 141L207.664 141Z" fill="black" fill-opacity="0.1"></path><path fill-rule="evenodd" clip-rule="evenodd" d="M290.84 141L290.84 0L291.941 -4.81555e-08L291.941 141L290.84 141Z" fill="black" fill-opacity="0.1"></path><path fill-rule="evenodd" clip-rule="evenodd" d="M318.898 141L318.898 0L319.999 -4.81555e-08L319.999 141L318.898 141Z" fill="black" fill-opacity="0.1"></path><path d="M0 18.7191H1.1197C1.2353 18.7191 1.33109 18.7471 1.40706 18.8033C1.48633 18.8562 1.53918 18.9289 1.5656 19.0215L2.78439 23.3097C2.81412 23.4155 2.84054 23.5311 2.86366 23.6567C2.89008 23.779 2.91486 23.9096 2.93798 24.0484C2.9644 23.9096 2.99248 23.779 3.0222 23.6567C3.05523 23.5311 3.08991 23.4155 3.12625 23.3097L4.5333 19.0215C4.55973 18.9454 4.61092 18.876 4.68689 18.8132C4.76616 18.7505 4.86195 18.7191 4.97425 18.7191H5.36565C5.48125 18.7191 5.57704 18.7471 5.653 18.8033C5.72897 18.8562 5.78182 18.9289 5.81155 19.0215L7.2087 23.3097C7.28136 23.5212 7.34412 23.7559 7.39696 24.0137C7.42009 23.8848 7.44321 23.7608 7.46633 23.6419C7.49275 23.5229 7.51917 23.4122 7.5456 23.3097L8.76439 19.0215C8.78751 18.9388 8.8387 18.8678 8.91797 18.8083C8.99725 18.7488 9.09303 18.7191 9.20533 18.7191H10.2507L8.02618 25.8876H6.82225L5.25665 20.9896C5.23683 20.9268 5.21536 20.859 5.19224 20.7863C5.17243 20.7136 5.15261 20.636 5.13279 20.5533C5.11297 20.636 5.0915 20.7136 5.06838 20.7863C5.04856 20.859 5.02875 20.9268 5.00893 20.9896L3.42847 25.8876H2.22454L0 18.7191Z" fill="black"></path><path d="M12.8653 20.7219C13.1857 20.7219 13.4797 20.7731 13.7472 20.8756C14.0181 20.978 14.2509 21.1284 14.4458 21.3267C14.6407 21.5217 14.7926 21.763 14.9016 22.0505C15.0106 22.3347 15.0651 22.6603 15.0651 23.0271C15.0651 23.1197 15.0602 23.1973 15.0502 23.2601C15.0436 23.3196 15.0288 23.3676 15.0057 23.4039C14.9858 23.437 14.9578 23.4617 14.9214 23.4783C14.8851 23.4915 14.8389 23.4981 14.7827 23.4981H11.6416C11.6779 24.0203 11.8183 24.4037 12.0627 24.6482C12.3071 24.8928 12.6308 25.0151 13.0338 25.0151C13.232 25.0151 13.4021 24.992 13.5441 24.9457C13.6894 24.8994 13.8149 24.8482 13.9206 24.792C14.0296 24.7358 14.1238 24.6846 14.203 24.6383C14.2856 24.5921 14.3649 24.5689 14.4408 24.5689C14.4904 24.5689 14.5333 24.5788 14.5697 24.5987C14.606 24.6185 14.6374 24.6466 14.6638 24.6829L15.0205 25.1291C14.8851 25.2878 14.7332 25.4216 14.5647 25.5307C14.3963 25.6364 14.2195 25.7224 14.0346 25.7885C13.8529 25.8513 13.6663 25.8959 13.4747 25.9223C13.2865 25.9488 13.1032 25.962 12.9248 25.962C12.5714 25.962 12.2427 25.9041 11.9389 25.7885C11.635 25.6695 11.3708 25.496 11.1462 25.2679C10.9216 25.0366 10.7448 24.7523 10.616 24.4152C10.4872 24.0748 10.4228 23.6815 10.4228 23.2353C10.4228 22.8883 10.479 22.5628 10.5913 22.2587C10.7036 21.9514 10.8637 21.6853 11.0718 21.4606C11.2832 21.2325 11.5392 21.0524 11.8398 20.9202C12.1436 20.788 12.4855 20.7219 12.8653 20.7219ZM12.8901 21.5994C12.5334 21.5994 12.2543 21.7002 12.0528 21.9018C11.8513 22.1034 11.7225 22.3893 11.6664 22.7594H13.9652C13.9652 22.6008 13.9438 22.4521 13.9008 22.3133C13.8579 22.1711 13.7918 22.0472 13.7026 21.9414C13.6135 21.8357 13.5012 21.7531 13.3657 21.6936C13.2303 21.6308 13.0718 21.5994 12.8901 21.5994Z" fill="black"></path><path d="M18.1585 20.7219C18.4788 20.7219 18.7728 20.7731 19.0403 20.8756C19.3112 20.978 19.544 21.1284 19.7389 21.3267C19.9338 21.5217 20.0857 21.763 20.1947 22.0505C20.3037 22.3347 20.3582 22.6603 20.3582 23.0271C20.3582 23.1197 20.3533 23.1973 20.3434 23.2601C20.3367 23.3196 20.3219 23.3676 20.2988 23.4039C20.2789 23.437 20.2509 23.4617 20.2145 23.4783C20.1782 23.4915 20.132 23.4981 20.0758 23.4981H16.9347C16.971 24.0203 17.1114 24.4037 17.3558 24.6482C17.6003 24.8928 17.9239 25.0151 18.3269 25.0151C18.5251 25.0151 18.6952 24.992 18.8372 24.9457C18.9825 24.8994 19.108 24.8482 19.2137 24.792C19.3227 24.7358 19.4169 24.6846 19.4961 24.6383C19.5787 24.5921 19.658 24.5689 19.734 24.5689C19.7835 24.5689 19.8264 24.5788 19.8628 24.5987C19.8991 24.6185 19.9305 24.6466 19.9569 24.6829L20.3136 25.1291C20.1782 25.2878 20.0263 25.4216 19.8578 25.5307C19.6894 25.6364 19.5127 25.7224 19.3277 25.7885C19.146 25.8513 18.9594 25.8959 18.7678 25.9223C18.5796 25.9488 18.3963 25.962 18.2179 25.962C17.8645 25.962 17.5358 25.9041 17.232 25.7885C16.9281 25.6695 16.6639 25.496 16.4393 25.2679C16.2147 25.0366 16.038 24.7523 15.9091 24.4152C15.7803 24.0748 15.7159 23.6815 15.7159 23.2353C15.7159 22.8883 15.7721 22.5628 15.8844 22.2587C15.9967 21.9514 16.1569 21.6853 16.3649 21.4606C16.5763 21.2325 16.8323 21.0524 17.1329 20.9202C17.4368 20.788 17.7786 20.7219 18.1585 20.7219ZM18.1832 21.5994C17.8265 21.5994 17.5474 21.7002 17.3459 21.9018C17.1444 22.1034 17.0156 22.3893 16.9595 22.7594H19.2583C19.2583 22.6008 19.2369 22.4521 19.1939 22.3133C19.151 22.1711 19.0849 22.0472 18.9957 21.9414C18.9066 21.8357 18.7943 21.7531 18.6588 21.6936C18.5234 21.6308 18.3649 21.5994 18.1832 21.5994Z" fill="black"></path><path d="M22.5895 18.5208V22.7396H22.8174C22.9 22.7396 22.9644 22.728 23.0106 22.7049C23.0569 22.6818 23.1064 22.6388 23.1592 22.576L24.4226 21.0144C24.4788 20.9483 24.5382 20.8971 24.601 20.8607C24.6637 20.821 24.7463 20.8012 24.8487 20.8012H25.9684L24.3879 22.69C24.3318 22.7594 24.274 22.8239 24.2145 22.8834C24.1551 22.9396 24.0907 22.9891 24.0213 23.0321C24.0907 23.0817 24.1518 23.1395 24.2046 23.2056C24.2575 23.2717 24.3103 23.3428 24.3632 23.4188L26.0576 25.8876H24.9528C24.857 25.8876 24.776 25.8711 24.71 25.838C24.6439 25.805 24.5845 25.7488 24.5316 25.6695L23.2385 23.741C23.189 23.665 23.1394 23.6154 23.0899 23.5923C23.0403 23.5692 22.966 23.5576 22.8669 23.5576H22.5895V25.8876H21.3657V18.5208H22.5895Z" fill="black"></path><path d="M29.8354 21.7927C29.8024 21.8456 29.7677 21.8836 29.7314 21.9067C29.695 21.9266 29.6488 21.9365 29.5927 21.9365C29.5332 21.9365 29.4688 21.92 29.3994 21.8869C29.3334 21.8539 29.2558 21.8175 29.1666 21.7778C29.0774 21.7349 28.975 21.6969 28.8594 21.6638C28.7471 21.6308 28.6133 21.6142 28.4581 21.6142C28.217 21.6142 28.0271 21.6655 27.8883 21.7679C27.7496 21.8704 27.6802 22.0042 27.6802 22.1695C27.6802 22.2785 27.7149 22.3711 27.7843 22.4471C27.857 22.5198 27.9511 22.5843 28.0667 22.6404C28.1856 22.6966 28.3194 22.7479 28.468 22.7941C28.6166 22.8371 28.7686 22.885 28.9238 22.9379C29.079 22.9908 29.231 23.0519 29.3796 23.1213C29.5282 23.1874 29.6604 23.2734 29.776 23.3791C29.8949 23.4816 29.989 23.6055 30.0584 23.7509C30.131 23.8964 30.1674 24.0715 30.1674 24.2764C30.1674 24.521 30.1228 24.7474 30.0336 24.9556C29.9444 25.1605 29.814 25.339 29.6422 25.491C29.4704 25.6397 29.2574 25.7571 29.0031 25.843C28.7521 25.9256 28.463 25.9669 28.1361 25.9669C27.961 25.9669 27.7892 25.9504 27.6208 25.9174C27.4556 25.8876 27.2955 25.8447 27.1402 25.7885C26.9883 25.7323 26.8462 25.6662 26.7141 25.5902C26.5853 25.5142 26.4714 25.4315 26.3723 25.3423L26.6547 24.8763C26.691 24.8201 26.7339 24.7771 26.7835 24.7474C26.833 24.7176 26.8958 24.7028 26.9718 24.7028C27.0477 24.7028 27.1187 24.7243 27.1848 24.7672C27.2542 24.8102 27.3334 24.8565 27.4226 24.906C27.5118 24.9556 27.6158 25.0019 27.7347 25.0448C27.857 25.0878 28.0105 25.1093 28.1955 25.1093C28.3408 25.1093 28.4647 25.0928 28.5671 25.0597C28.6728 25.0234 28.7587 24.9771 28.8247 24.9209C28.8941 24.8647 28.9436 24.8003 28.9734 24.7276C29.0064 24.6515 29.0229 24.5739 29.0229 24.4946C29.0229 24.3756 28.9866 24.2781 28.9139 24.2021C28.8445 24.1261 28.7504 24.06 28.6315 24.0038C28.5159 23.9476 28.3821 23.898 28.2302 23.855C28.0816 23.8088 27.928 23.7592 27.7694 23.7063C27.6142 23.6534 27.4606 23.5923 27.3087 23.5229C27.16 23.4502 27.0263 23.3593 26.9074 23.2502C26.7917 23.1412 26.6976 23.0073 26.625 22.8487C26.5556 22.69 26.5209 22.4983 26.5209 22.2736C26.5209 22.0654 26.5622 21.8671 26.6448 21.6787C26.7273 21.4903 26.8479 21.3267 27.0064 21.1879C27.1683 21.0458 27.3681 20.9334 27.6059 20.8508C27.847 20.7649 28.1245 20.7219 28.4383 20.7219C28.7884 20.7219 29.1071 20.7797 29.3945 20.8954C29.6818 21.0111 29.9213 21.1631 30.1129 21.3515L29.8354 21.7927Z" fill="black"></path><path d="M6.88688 49.2911C6.88688 49.8166 6.79935 50.2992 6.62429 50.7387C6.44924 51.1783 6.20317 51.5567 5.88608 51.874C5.569 52.1913 5.18751 52.4375 4.74161 52.6127C4.29571 52.7879 3.80192 52.8754 3.26024 52.8754H0.525391V45.7069H3.26024C3.80192 45.7069 4.29571 45.7961 4.74161 45.9746C5.18751 46.1497 5.569 46.396 5.88608 46.7132C6.20317 47.0272 6.44924 47.404 6.62429 47.8436C6.79935 48.2831 6.88688 48.7657 6.88688 49.2911ZM5.52441 49.2911C5.52441 48.8979 5.47156 48.5459 5.36587 48.2352C5.26017 47.9212 5.10989 47.6568 4.91502 47.442C4.72014 47.2239 4.48233 47.057 4.20158 46.9413C3.92413 46.8256 3.61035 46.7678 3.26024 46.7678H1.86804V51.8145H3.26024C3.61035 51.8145 3.92413 51.7567 4.20158 51.641C4.48233 51.5253 4.72014 51.3601 4.91502 51.1453C5.10989 50.9271 5.26017 50.6627 5.36587 50.3521C5.47156 50.0381 5.52441 49.6844 5.52441 49.2911Z" fill="black"></path><path d="M9.16166 47.789V52.8754H7.93791V47.789H9.16166ZM9.34497 46.3067C9.34497 46.4125 9.3235 46.5116 9.28057 46.6042C9.23763 46.6967 9.17982 46.7777 9.10716 46.8471C9.0378 46.9165 8.95522 46.9727 8.85944 47.0156C8.76365 47.0553 8.66126 47.0751 8.55226 47.0751C8.44657 47.0751 8.34583 47.0553 8.25004 47.0156C8.15756 46.9727 8.07664 46.9165 8.00728 46.8471C7.93791 46.7777 7.88176 46.6967 7.83883 46.6042C7.79919 46.5116 7.77937 46.4125 7.77937 46.3067C7.77937 46.1977 7.79919 46.0952 7.83883 45.9994C7.88176 45.9035 7.93791 45.8209 8.00728 45.7515C8.07664 45.6821 8.15756 45.6275 8.25004 45.5879C8.34583 45.5449 8.44657 45.5234 8.55226 45.5234C8.66126 45.5234 8.76365 45.5449 8.85944 45.5879C8.95522 45.6275 9.0378 45.6821 9.10716 45.7515C9.17982 45.8209 9.23763 45.9035 9.28057 45.9994C9.3235 46.0952 9.34497 46.1977 9.34497 46.3067Z" fill="black"></path><path d="M13.566 48.7805C13.533 48.8334 13.4983 48.8714 13.4619 48.8945C13.4256 48.9144 13.3794 48.9243 13.3232 48.9243C13.2638 48.9243 13.1994 48.9078 13.13 48.8747C13.0639 48.8417 12.9863 48.8053 12.8971 48.7657C12.808 48.7227 12.7056 48.6847 12.59 48.6516C12.4777 48.6186 12.3439 48.6021 12.1887 48.6021C11.9475 48.6021 11.7576 48.6533 11.6189 48.7557C11.4802 48.8582 11.4108 48.992 11.4108 49.1573C11.4108 49.2664 11.4455 49.3589 11.5149 49.4349C11.5875 49.5076 11.6817 49.5721 11.7973 49.6283C11.9162 49.6844 12.0499 49.7357 12.1986 49.7819C12.3472 49.8249 12.4991 49.8728 12.6544 49.9257C12.8096 49.9786 12.9616 50.0397 13.1102 50.1091C13.2588 50.1752 13.3909 50.2612 13.5065 50.3669C13.6254 50.4694 13.7196 50.5933 13.7889 50.7387C13.8616 50.8842 13.8979 51.0593 13.8979 51.2642C13.8979 51.5088 13.8533 51.7352 13.7642 51.9434C13.675 52.1483 13.5445 52.3268 13.3728 52.4788C13.201 52.6276 12.988 52.7449 12.7336 52.8308C12.4826 52.9134 12.1936 52.9548 11.8666 52.9548C11.6916 52.9548 11.5198 52.9382 11.3514 52.9052C11.1862 52.8754 11.026 52.8325 10.8708 52.7763C10.7188 52.7201 10.5768 52.654 10.4447 52.578C10.3159 52.502 10.2019 52.4193 10.1028 52.3301L10.3852 51.8641C10.4216 51.8079 10.4645 51.765 10.5141 51.7352C10.5636 51.7055 10.6264 51.6906 10.7023 51.6906C10.7783 51.6906 10.8493 51.7121 10.9154 51.755C10.9847 51.798 11.064 51.8443 11.1532 51.8938C11.2424 51.9434 11.3464 51.9897 11.4653 52.0327C11.5875 52.0756 11.7411 52.0971 11.9261 52.0971C12.0714 52.0971 12.1953 52.0806 12.2977 52.0475C12.4034 52.0112 12.4892 51.9649 12.5553 51.9087C12.6247 51.8525 12.6742 51.7881 12.7039 51.7154C12.737 51.6394 12.7535 51.5617 12.7535 51.4824C12.7535 51.3634 12.7171 51.2659 12.6445 51.1899C12.5751 51.1139 12.481 51.0478 12.3621 50.9916C12.2465 50.9354 12.1127 50.8858 11.9608 50.8429C11.8121 50.7966 11.6585 50.747 11.5 50.6941C11.3448 50.6412 11.1912 50.5801 11.0392 50.5107C10.8906 50.438 10.7568 50.3471 10.6379 50.238C10.5223 50.129 10.4282 49.9951 10.3555 49.8365C10.2862 49.6778 10.2515 49.4861 10.2515 49.2614C10.2515 49.0532 10.2928 48.8549 10.3753 48.6665C10.4579 48.4781 10.5785 48.3145 10.737 48.1757C10.8989 48.0336 11.0987 47.9212 11.3365 47.8386C11.5776 47.7527 11.8551 47.7097 12.1688 47.7097C12.519 47.7097 12.8377 47.7675 13.125 47.8832C13.4124 47.9989 13.6519 48.1509 13.8434 48.3393L13.566 48.7805Z" fill="black"></path><path d="M18.4463 48.8648C18.41 48.9111 18.3737 48.9474 18.3373 48.9739C18.3043 49.0003 18.2548 49.0135 18.1887 49.0135C18.126 49.0135 18.0648 48.9954 18.0054 48.959C17.9459 48.9193 17.8749 48.8764 17.7924 48.8301C17.7098 48.7805 17.6107 48.7376 17.4951 48.7012C17.3828 48.6615 17.2424 48.6417 17.074 48.6417C16.8593 48.6417 16.671 48.6814 16.5092 48.7607C16.3473 48.8367 16.2119 48.9474 16.1029 49.0928C15.9972 49.2383 15.9179 49.4151 15.8651 49.6233C15.8122 49.8282 15.7858 50.0612 15.7858 50.3223C15.7858 50.5933 15.8139 50.8346 15.87 51.0461C15.9295 51.2576 16.0137 51.4361 16.1227 51.5815C16.2317 51.7236 16.3638 51.8327 16.5191 51.9087C16.6743 51.9814 16.8494 52.0178 17.0442 52.0178C17.2391 52.0178 17.396 51.9946 17.5149 51.9484C17.6371 51.8988 17.7395 51.8459 17.8221 51.7897C17.9047 51.7302 17.9757 51.6774 18.0351 51.6311C18.0979 51.5815 18.1672 51.5567 18.2432 51.5567C18.3423 51.5567 18.4166 51.5947 18.4662 51.6708L18.8179 52.1169C18.6825 52.2756 18.5355 52.4094 18.377 52.5185C18.2184 52.6243 18.0533 52.7102 17.8815 52.7763C17.7131 52.8391 17.538 52.8837 17.3564 52.9101C17.1747 52.9366 16.9947 52.9498 16.8163 52.9498C16.5026 52.9498 16.2069 52.892 15.9295 52.7763C15.652 52.6573 15.4093 52.4854 15.2012 52.2607C14.9964 52.036 14.8329 51.7616 14.7107 51.4378C14.5918 51.1106 14.5323 50.7387 14.5323 50.3223C14.5323 49.9488 14.5852 49.6035 14.6909 49.2862C14.7999 48.9656 14.9584 48.6896 15.1665 48.4583C15.3746 48.2236 15.6322 48.0402 15.9394 47.908C16.2466 47.7758 16.6 47.7097 16.9996 47.7097C17.3795 47.7097 17.7114 47.7708 17.9955 47.8931C18.2828 48.0154 18.5405 48.1906 18.7684 48.4186L18.4463 48.8648Z" fill="black"></path><path d="M21.7664 47.7097C22.1463 47.7097 22.4898 47.7708 22.7969 47.8931C23.1074 48.0154 23.3717 48.1889 23.5897 48.4137C23.8077 48.6384 23.9761 48.9127 24.095 49.2366C24.2139 49.5605 24.2734 49.9224 24.2734 50.3223C24.2734 50.7255 24.2139 51.0891 24.095 51.413C23.9761 51.7369 23.8077 52.0128 23.5897 52.2409C23.3717 52.4689 23.1074 52.6441 22.7969 52.7664C22.4898 52.8887 22.1463 52.9498 21.7664 52.9498C21.3866 52.9498 21.0414 52.8887 20.731 52.7664C20.4205 52.6441 20.1546 52.4689 19.9333 52.2409C19.7153 52.0128 19.5452 51.7369 19.423 51.413C19.3041 51.0891 19.2446 50.7255 19.2446 50.3223C19.2446 49.9224 19.3041 49.5605 19.423 49.2366C19.5452 48.9127 19.7153 48.6384 19.9333 48.4137C20.1546 48.1889 20.4205 48.0154 20.731 47.8931C21.0414 47.7708 21.3866 47.7097 21.7664 47.7097ZM21.7664 52.0079C22.1892 52.0079 22.5013 51.8658 22.7028 51.5815C22.9076 51.2973 23.01 50.8809 23.01 50.3322C23.01 49.7836 22.9076 49.3655 22.7028 49.078C22.5013 48.7904 22.1892 48.6467 21.7664 48.6467C21.337 48.6467 21.02 48.7921 20.8152 49.0829C20.6104 49.3705 20.508 49.7869 20.508 50.3322C20.508 50.8776 20.6104 51.294 20.8152 51.5815C21.02 51.8658 21.337 52.0079 21.7664 52.0079Z" fill="black"></path><path d="M27.6103 52.8754H26.5005L24.4791 47.789H25.4947C25.5839 47.789 25.6582 47.8105 25.7177 47.8535C25.7804 47.8964 25.8234 47.951 25.8465 48.0171L26.8275 50.7338C26.8836 50.8924 26.9298 51.0478 26.9662 51.1998C27.0058 51.3518 27.0405 51.5039 27.0702 51.6559C27.0999 51.5039 27.133 51.3518 27.1693 51.1998C27.2089 51.0478 27.2585 50.8924 27.3179 50.7338L28.3237 48.0171C28.3468 47.951 28.3881 47.8964 28.4476 47.8535C28.507 47.8105 28.578 47.789 28.6606 47.789H29.6267L27.6103 52.8754Z" fill="black"></path><path d="M32.2833 47.7097C32.6037 47.7097 32.8976 47.7609 33.1652 47.8634C33.436 47.9658 33.6689 48.1162 33.8638 48.3145C34.0586 48.5095 34.2106 48.7508 34.3196 49.0383C34.4286 49.3225 34.4831 49.6481 34.4831 50.0149C34.4831 50.1075 34.4781 50.1852 34.4682 50.248C34.4616 50.3074 34.4467 50.3554 34.4236 50.3917C34.4038 50.4248 34.3757 50.4496 34.3394 50.4661C34.303 50.4793 34.2568 50.4859 34.2007 50.4859H31.0595C31.0959 51.0081 31.2363 51.3915 31.4807 51.6361C31.7251 51.8806 32.0488 52.0029 32.4517 52.0029C32.6499 52.0029 32.82 51.9798 32.962 51.9335C33.1074 51.8872 33.2329 51.836 33.3386 51.7798C33.4476 51.7236 33.5417 51.6724 33.621 51.6261C33.7036 51.5799 33.7828 51.5567 33.8588 51.5567C33.9083 51.5567 33.9513 51.5666 33.9876 51.5865C34.0239 51.6063 34.0553 51.6344 34.0817 51.6708L34.4385 52.1169C34.303 52.2756 34.1511 52.4094 33.9827 52.5185C33.8142 52.6243 33.6375 52.7102 33.4525 52.7763C33.2709 52.8391 33.0843 52.8837 32.8927 52.9101C32.7044 52.9366 32.5211 52.9498 32.3427 52.9498C31.9893 52.9498 31.6607 52.892 31.3568 52.7763C31.0529 52.6573 30.7887 52.4838 30.5641 52.2557C30.3395 52.0244 30.1628 51.7402 30.034 51.4031C29.9052 51.0626 29.8408 50.6693 29.8408 50.2232C29.8408 49.8761 29.8969 49.5506 30.0092 49.2465C30.1215 48.9392 30.2817 48.6731 30.4898 48.4484C30.7012 48.2203 30.9572 48.0402 31.2577 47.908C31.5616 47.7758 31.9034 47.7097 32.2833 47.7097ZM32.3081 48.5872C31.9513 48.5872 31.6722 48.688 31.4708 48.8896C31.2693 49.0912 31.1405 49.3771 31.0843 49.7472H33.3832C33.3832 49.5886 33.3617 49.4399 33.3188 49.3011C33.2758 49.1589 33.2098 49.035 33.1206 48.9293C33.0314 48.8235 32.9191 48.7409 32.7837 48.6814C32.6483 48.6186 32.4897 48.5872 32.3081 48.5872Z" fill="black"></path><path d="M35.4757 52.8754V47.789H36.1941C36.3196 47.789 36.4072 47.8122 36.4567 47.8584C36.5062 47.9047 36.5393 47.984 36.5558 48.0964L36.6301 48.7111C36.8118 48.3971 37.0248 48.1493 37.2692 47.9675C37.5136 47.7857 37.7878 47.6948 38.0917 47.6948C38.3427 47.6948 38.5508 47.7527 38.7159 47.8683L38.5574 48.7855C38.5475 48.845 38.526 48.8879 38.493 48.9144C38.4599 48.9375 38.4153 48.9491 38.3592 48.9491C38.3097 48.9491 38.2419 48.9375 38.1561 48.9144C38.0702 48.8912 37.9562 48.8797 37.8142 48.8797C37.5599 48.8797 37.3419 48.9507 37.1602 49.0928C36.9786 49.2317 36.825 49.4366 36.6995 49.7076V52.8754H35.4757Z" fill="black"></path><path d="M41.324 54.2735C41.2876 54.3594 41.2397 54.4238 41.1803 54.4668C41.1241 54.5131 41.0366 54.5362 40.9177 54.5362H40.0061L40.9573 52.4987L38.9012 47.789H39.9714C40.0705 47.789 40.1465 47.8122 40.1993 47.8584C40.2521 47.9047 40.2918 47.9576 40.3182 48.0171L41.4032 50.6545C41.4396 50.7404 41.4709 50.8296 41.4974 50.9222C41.5238 51.0147 41.5469 51.1073 41.5667 51.1998C41.5931 51.1039 41.6212 51.0114 41.651 50.9222C41.684 50.8329 41.7187 50.742 41.755 50.6495L42.7756 48.0171C42.802 47.951 42.845 47.8964 42.9044 47.8535C42.9672 47.8105 43.0365 47.789 43.1125 47.789H44.0935L41.324 54.2735Z" fill="black"></path><path d="M6.88688 71.8734C6.88688 72.3989 6.79935 72.8815 6.62429 73.321C6.44924 73.7606 6.20317 74.139 5.88608 74.4563C5.569 74.7736 5.18751 75.0198 4.74161 75.195C4.29571 75.3701 3.80192 75.4577 3.26024 75.4577H0.525391V68.2891H3.26024C3.80192 68.2891 4.29571 68.3784 4.74161 68.5568C5.18751 68.732 5.569 68.9782 5.88608 69.2955C6.20317 69.6095 6.44924 69.9863 6.62429 70.4258C6.79935 70.8654 6.88688 71.3479 6.88688 71.8734ZM5.52441 71.8734C5.52441 71.4801 5.47156 71.1281 5.36587 70.8175C5.26017 70.5035 5.10989 70.2391 4.91502 70.0243C4.72014 69.8061 4.48233 69.6392 4.20158 69.5236C3.92413 69.4079 3.61035 69.35 3.26024 69.35H1.86804V74.3968H3.26024C3.61035 74.3968 3.92413 74.339 4.20158 74.2233C4.48233 74.1076 4.72014 73.9424 4.91502 73.7275C5.10989 73.5094 5.26017 73.245 5.36587 72.9343C5.47156 72.6204 5.52441 72.2667 5.52441 71.8734Z" fill="black"></path><path d="M9.95932 70.292C10.2797 70.292 10.5737 70.3432 10.8412 70.4457C11.1121 70.5481 11.3449 70.6985 11.5398 70.8968C11.7347 71.0918 11.8866 71.3331 11.9956 71.6206C12.1046 71.9048 12.1591 72.2304 12.1591 72.5972C12.1591 72.6898 12.1541 72.7674 12.1442 72.8302C12.1376 72.8897 12.1228 72.9376 12.0996 72.974C12.0798 73.007 12.0517 73.0318 12.0154 73.0484C11.9791 73.0616 11.9328 73.0682 11.8767 73.0682H8.73558C8.77191 73.5904 8.91229 73.9738 9.1567 74.2183C9.40112 74.4629 9.72481 74.5852 10.1278 74.5852C10.3259 74.5852 10.4961 74.5621 10.6381 74.5158C10.7834 74.4695 10.9089 74.4183 11.0146 74.3621C11.1236 74.3059 11.2177 74.2547 11.297 74.2084C11.3796 74.1621 11.4589 74.139 11.5348 74.139C11.5844 74.139 11.6273 74.1489 11.6636 74.1688C11.7 74.1886 11.7314 74.2167 11.7578 74.253L12.1145 74.6992C11.9791 74.8578 11.8271 74.9917 11.6587 75.1008C11.4902 75.2065 11.3135 75.2925 11.1286 75.3586C10.9469 75.4214 10.7603 75.466 10.5687 75.4924C10.3804 75.5189 10.1971 75.5321 10.0188 75.5321C9.66536 75.5321 9.33672 75.4742 9.03284 75.3586C8.72897 75.2396 8.46474 75.0661 8.24014 74.838C8.01553 74.6067 7.83883 74.3224 7.71001 73.9853C7.5812 73.6449 7.51679 73.2516 7.51679 72.8054C7.51679 72.4584 7.57294 72.1329 7.68524 71.8288C7.79754 71.5214 7.95773 71.2554 8.16582 71.0306C8.37721 70.8026 8.63319 70.6225 8.93376 70.4903C9.23763 70.3581 9.57948 70.292 9.95932 70.292ZM9.98409 71.1695C9.62738 71.1695 9.34828 71.2703 9.1468 71.4719C8.94532 71.6735 8.8165 71.9594 8.76035 72.3295H11.0592C11.0592 72.1709 11.0377 72.0222 10.9948 71.8833C10.9519 71.7412 10.8858 71.6173 10.7966 71.5115C10.7074 71.4058 10.5951 71.3231 10.4597 71.2637C10.3243 71.2009 10.1658 71.1695 9.98409 71.1695Z" fill="black"></path><path d="M16.169 71.3628C16.136 71.4157 16.1013 71.4537 16.065 71.4768C16.0286 71.4967 15.9824 71.5066 15.9262 71.5066C15.8668 71.5066 15.8024 71.49 15.733 71.457C15.667 71.4239 15.5893 71.3876 15.5002 71.3479C15.411 71.305 15.3086 71.267 15.193 71.2339C15.0807 71.2009 14.9469 71.1843 14.7917 71.1843C14.5506 71.1843 14.3606 71.2356 14.2219 71.338C14.0832 71.4405 14.0138 71.5743 14.0138 71.7396C14.0138 71.8486 14.0485 71.9412 14.1179 72.0172C14.1905 72.0899 14.2847 72.1544 14.4003 72.2105C14.5192 72.2667 14.6529 72.3179 14.8016 72.3642C14.9502 72.4072 15.1022 72.4551 15.2574 72.508C15.4126 72.5609 15.5646 72.622 15.7132 72.6914C15.8618 72.7575 15.9939 72.8434 16.1096 72.9492C16.2285 73.0517 16.3226 73.1756 16.392 73.321C16.4646 73.4664 16.501 73.6416 16.501 73.8465C16.501 74.0911 16.4564 74.3175 16.3672 74.5257C16.278 74.7306 16.1475 74.9091 15.9758 75.0611C15.804 75.2098 15.591 75.3272 15.3367 75.4131C15.0856 75.4957 14.7966 75.537 14.4696 75.537C14.2946 75.537 14.1228 75.5205 13.9544 75.4875C13.7892 75.4577 13.629 75.4147 13.4738 75.3586C13.3219 75.3024 13.1798 75.2363 13.0477 75.1603C12.9189 75.0842 12.8049 75.0016 12.7059 74.9124L12.9883 74.4464C13.0246 74.3902 13.0675 74.3472 13.1171 74.3175C13.1666 74.2877 13.2294 74.2729 13.3053 74.2729C13.3813 74.2729 13.4523 74.2943 13.5184 74.3373C13.5877 74.3803 13.667 74.4265 13.7562 74.4761C13.8454 74.5257 13.9494 74.572 14.0683 74.6149C14.1905 74.6579 14.3441 74.6794 14.5291 74.6794C14.6744 74.6794 14.7983 74.6629 14.9007 74.6298C15.0064 74.5934 15.0922 74.5472 15.1583 74.491C15.2277 74.4348 15.2772 74.3704 15.3069 74.2977C15.34 74.2216 15.3565 74.144 15.3565 74.0646C15.3565 73.9457 15.3201 73.8482 15.2475 73.7722C15.1781 73.6961 15.084 73.63 14.9651 73.5739C14.8495 73.5177 14.7157 73.4681 14.5638 73.4251C14.4151 73.3789 14.2615 73.3293 14.103 73.2764C13.9478 73.2235 13.7942 73.1624 13.6422 73.093C13.4936 73.0203 13.3598 72.9294 13.2409 72.8203C13.1253 72.7112 13.0312 72.5774 12.9585 72.4188C12.8892 72.2601 12.8545 72.0684 12.8545 71.8437C12.8545 71.6355 12.8958 71.4372 12.9783 71.2488C13.0609 71.0604 13.1815 70.8968 13.34 70.758C13.5019 70.6159 13.7017 70.5035 13.9395 70.4209C14.1806 70.3349 14.4581 70.292 14.7719 70.292C15.122 70.292 15.4407 70.3498 15.7281 70.4655C16.0154 70.5812 16.2549 70.7332 16.4465 70.9216L16.169 71.3628Z" fill="black"></path><path d="M18.7802 70.3713V75.4577H17.5565V70.3713H18.7802ZM18.9635 68.889C18.9635 68.9948 18.9421 69.0939 18.8991 69.1865C18.8562 69.279 18.7984 69.36 18.7257 69.4294C18.6564 69.4988 18.5738 69.555 18.478 69.5979C18.3822 69.6376 18.2798 69.6574 18.1708 69.6574C18.0651 69.6574 17.9644 69.6376 17.8686 69.5979C17.7761 69.555 17.6952 69.4988 17.6258 69.4294C17.5565 69.36 17.5003 69.279 17.4574 69.1865C17.4178 69.0939 17.3979 68.9948 17.3979 68.889C17.3979 68.7799 17.4178 68.6775 17.4574 68.5816C17.5003 68.4858 17.5565 68.4032 17.6258 68.3338C17.6952 68.2644 17.7761 68.2098 17.8686 68.1702C17.9644 68.1272 18.0651 68.1057 18.1708 68.1057C18.2798 68.1057 18.3822 68.1272 18.478 68.1702C18.5738 68.2098 18.6564 68.2644 18.7257 68.3338C18.7984 68.4032 18.8562 68.4858 18.8991 68.5816C18.9421 68.6775 18.9635 68.7799 18.9635 68.889Z" fill="black"></path><path d="M21.9261 70.2821C22.1441 70.2821 22.3489 70.3052 22.5405 70.3515C22.7321 70.3944 22.9071 70.4589 23.0656 70.5448H24.5272V71.0009C24.5272 71.0769 24.5074 71.1364 24.4678 71.1794C24.4281 71.2223 24.3604 71.2521 24.2646 71.2686L23.8088 71.3529C23.8418 71.4388 23.8666 71.5297 23.8831 71.6255C23.9029 71.7214 23.9129 71.8222 23.9129 71.928C23.9129 72.1791 23.8617 72.4072 23.7593 72.6121C23.6602 72.8137 23.5215 72.9856 23.3431 73.1277C23.168 73.2698 22.9583 73.3805 22.7139 73.4598C22.4728 73.5358 22.2102 73.5739 21.9261 73.5739C21.7346 73.5739 21.5479 73.5557 21.3663 73.5193C21.2077 73.6152 21.1285 73.7226 21.1285 73.8416C21.1285 73.944 21.1747 74.02 21.2672 74.0696C21.363 74.1159 21.4868 74.1489 21.6388 74.1688C21.794 74.1886 21.9691 74.2018 22.1639 74.2084C22.3588 74.2117 22.5586 74.2216 22.7634 74.2382C22.9682 74.2547 23.168 74.2844 23.3629 74.3274C23.5578 74.3671 23.7312 74.4315 23.8831 74.5207C24.0384 74.61 24.1622 74.7323 24.2547 74.8876C24.3505 75.0396 24.3984 75.2363 24.3984 75.4775C24.3984 75.7023 24.3422 75.9204 24.2299 76.1319C24.1209 76.3435 23.9607 76.5318 23.7494 76.6971C23.5413 76.8623 23.2853 76.9945 22.9814 77.0937C22.6776 77.1961 22.3307 77.2474 21.941 77.2474C21.5545 77.2474 21.2193 77.2094 20.9352 77.1333C20.6512 77.0606 20.415 76.9615 20.2268 76.8359C20.0418 76.7136 19.9031 76.5715 19.8106 76.4096C19.7181 76.2476 19.6719 76.0791 19.6719 75.9039C19.6719 75.6659 19.7445 75.466 19.8899 75.304C20.0352 75.1421 20.2367 75.0132 20.4943 74.9173C20.3688 74.8479 20.268 74.7554 20.1921 74.6397C20.1161 74.524 20.0781 74.3737 20.0781 74.1886C20.0781 74.1126 20.0913 74.0349 20.1178 73.9556C20.1442 73.873 20.1838 73.792 20.2367 73.7127C20.2928 73.6333 20.3622 73.559 20.4448 73.4896C20.5273 73.4169 20.6248 73.3524 20.7371 73.2962C20.4794 73.1574 20.2763 72.9723 20.1277 72.741C19.9823 72.5096 19.9097 72.2386 19.9097 71.928C19.9097 71.6768 19.9592 71.4504 20.0583 71.2488C20.1607 71.0439 20.3011 70.8704 20.4794 70.7282C20.6611 70.5828 20.8741 70.4721 21.1186 70.3961C21.3663 70.3201 21.6355 70.2821 21.9261 70.2821ZM23.2688 75.6858C23.2688 75.5866 23.2391 75.5056 23.1796 75.4428C23.1201 75.38 23.0392 75.3321 22.9368 75.2991C22.8344 75.2627 22.7139 75.2363 22.5752 75.2197C22.4397 75.2032 22.2944 75.1917 22.1392 75.185C21.9872 75.1751 21.8287 75.1669 21.6635 75.1603C21.5017 75.1503 21.3448 75.1355 21.1929 75.1156C21.0541 75.1917 20.9418 75.2825 20.856 75.3883C20.7734 75.4908 20.7321 75.6097 20.7321 75.7452C20.7321 75.8345 20.7536 75.9171 20.7965 75.9931C20.8428 76.0724 20.9138 76.1402 21.0096 76.1964C21.1086 76.2526 21.2358 76.2955 21.3911 76.3253C21.5463 76.3583 21.7362 76.3749 21.9608 76.3749C22.1887 76.3749 22.3852 76.3567 22.5504 76.3203C22.7155 76.2873 22.851 76.2393 22.9567 76.1765C23.0656 76.1171 23.1449 76.0443 23.1945 75.9584C23.244 75.8758 23.2688 75.7849 23.2688 75.6858ZM21.9261 72.7906C22.0781 72.7906 22.2102 72.7707 22.3225 72.7311C22.4348 72.6881 22.5273 72.6303 22.5999 72.5576C22.6759 72.4849 22.732 72.3973 22.7684 72.2948C22.808 72.1924 22.8278 72.08 22.8278 71.9577C22.8278 71.7065 22.7519 71.5082 22.5999 71.3628C22.4513 71.2141 22.2267 71.1397 21.9261 71.1397C21.6256 71.1397 21.3993 71.2141 21.2474 71.3628C21.0987 71.5082 21.0244 71.7065 21.0244 71.9577C21.0244 72.0767 21.0426 72.1874 21.0789 72.2899C21.1186 72.3923 21.1747 72.4815 21.2474 72.5576C21.3233 72.6303 21.4175 72.6881 21.5298 72.7311C21.6454 72.7707 21.7775 72.7906 21.9261 72.7906Z" fill="black"></path><path d="M25.2959 75.4577V70.3713H26.044C26.2026 70.3713 26.3066 70.4457 26.3562 70.5944L26.4404 70.9959C26.5428 70.8902 26.6501 70.7943 26.7624 70.7084C26.878 70.6225 26.9986 70.5481 27.1241 70.4853C27.2529 70.4225 27.39 70.3746 27.5353 70.3416C27.6806 70.3085 27.8392 70.292 28.0109 70.292C28.2884 70.292 28.5345 70.3399 28.7492 70.4357C28.9638 70.5283 29.1422 70.6605 29.2842 70.8323C29.4296 71.0009 29.5386 71.2042 29.6112 71.4421C29.6872 71.6768 29.7252 71.9362 29.7252 72.2205V75.4577H28.5014V72.2205C28.5014 71.9098 28.4288 71.6702 28.2834 71.5016C28.1414 71.3298 27.9267 71.2438 27.6394 71.2438C27.428 71.2438 27.2298 71.2917 27.0448 71.3876C26.8599 71.4834 26.6848 71.614 26.5197 71.7792V75.4577H25.2959Z" fill="black"></path><path d="M6.88688 94.4554C6.88688 94.9809 6.79935 95.4635 6.62429 95.903C6.44924 96.3426 6.20317 96.721 5.88608 97.0383C5.569 97.3556 5.18751 97.6018 4.74161 97.777C4.29571 97.9521 3.80192 98.0397 3.26024 98.0397H0.525391V90.8712H3.26024C3.80192 90.8712 4.29571 90.9604 4.74161 91.1389C5.18751 91.314 5.569 91.5602 5.88608 91.8775C6.20317 92.1915 6.44924 92.5683 6.62429 93.0078C6.79935 93.4474 6.88688 93.9299 6.88688 94.4554ZM5.52441 94.4554C5.52441 94.0621 5.47156 93.7102 5.36587 93.3995C5.26017 93.0855 5.10989 92.8211 4.91502 92.6063C4.72014 92.3882 4.48233 92.2212 4.20158 92.1056C3.92413 91.9899 3.61035 91.9321 3.26024 91.9321H1.86804V96.9788H3.26024C3.61035 96.9788 3.92413 96.921 4.20158 96.8053C4.48233 96.6896 4.72014 96.5244 4.91502 96.3095C5.10989 96.0914 5.26017 95.827 5.36587 95.5163C5.47156 95.2024 5.52441 94.8487 5.52441 94.4554Z" fill="black"></path><path d="M9.95932 92.874C10.2797 92.874 10.5737 92.9252 10.8412 93.0277C11.1121 93.1301 11.3449 93.2805 11.5398 93.4788C11.7347 93.6738 11.8866 93.9151 11.9956 94.2026C12.1046 94.4868 12.1591 94.8124 12.1591 95.1792C12.1591 95.2718 12.1541 95.3494 12.1442 95.4122C12.1376 95.4717 12.1228 95.5196 12.0996 95.556C12.0798 95.5891 12.0517 95.6138 12.0154 95.6304C11.9791 95.6436 11.9328 95.6502 11.8767 95.6502H8.73558C8.77191 96.1724 8.91229 96.5558 9.1567 96.8003C9.40112 97.0449 9.72481 97.1672 10.1278 97.1672C10.3259 97.1672 10.4961 97.1441 10.6381 97.0978C10.7834 97.0515 10.9089 97.0003 11.0146 96.9441C11.1236 96.8879 11.2177 96.8367 11.297 96.7904C11.3796 96.7442 11.4589 96.721 11.5348 96.721C11.5844 96.721 11.6273 96.7309 11.6636 96.7508C11.7 96.7706 11.7314 96.7987 11.7578 96.835L12.1145 97.2812C11.9791 97.4399 11.8271 97.5737 11.6587 97.6828C11.4902 97.7885 11.3135 97.8745 11.1286 97.9406C10.9469 98.0034 10.7603 98.048 10.5687 98.0744C10.3804 98.1009 10.1971 98.1141 10.0188 98.1141C9.66536 98.1141 9.33672 98.0562 9.03284 97.9406C8.72897 97.8216 8.46474 97.6481 8.24014 97.42C8.01553 97.1887 7.83883 96.9044 7.71001 96.5673C7.5812 96.2269 7.51679 95.8336 7.51679 95.3874C7.51679 95.0404 7.57294 94.7149 7.68524 94.4108C7.79754 94.1035 7.95773 93.8374 8.16582 93.6127C8.37721 93.3846 8.63319 93.2045 8.93376 93.0723C9.23763 92.9401 9.57948 92.874 9.95932 92.874ZM9.98409 93.7515C9.62738 93.7515 9.34828 93.8523 9.1468 94.0539C8.94532 94.2555 8.8165 94.5414 8.76035 94.9115H11.0592C11.0592 94.7529 11.0377 94.6042 10.9948 94.4654C10.9519 94.3232 10.8858 94.1993 10.7966 94.0935C10.7074 93.9878 10.5951 93.9052 10.4597 93.8457C10.3243 93.7829 10.1658 93.7515 9.98409 93.7515Z" fill="black"></path><path d="M15.5338 98.0397H14.424L12.4026 92.9533H13.4183C13.5075 92.9533 13.5818 92.9748 13.6412 93.0178C13.704 93.0607 13.7469 93.1153 13.7701 93.1814L14.751 95.8981C14.8072 96.0567 14.8534 96.2121 14.8898 96.3641C14.9294 96.5161 14.9641 96.6681 14.9938 96.8202C15.0235 96.6681 15.0566 96.5161 15.0929 96.3641C15.1325 96.2121 15.1821 96.0567 15.2415 95.8981L16.2473 93.1814C16.2704 93.1153 16.3117 93.0607 16.3711 93.0178C16.4306 92.9748 16.5016 92.9533 16.5842 92.9533H17.5503L15.5338 98.0397Z" fill="black"></path><path d="M20.2069 92.874C20.5273 92.874 20.8212 92.9252 21.0888 93.0277C21.3596 93.1301 21.5925 93.2805 21.7873 93.4788C21.9822 93.6738 22.1341 93.9151 22.2431 94.2026C22.3521 94.4868 22.4066 94.8124 22.4066 95.1792C22.4066 95.2718 22.4017 95.3494 22.3918 95.4122C22.3852 95.4717 22.3703 95.5196 22.3472 95.556C22.3274 95.5891 22.2993 95.6138 22.263 95.6304C22.2266 95.6436 22.1804 95.6502 22.1242 95.6502H18.9831C19.0195 96.1724 19.1598 96.5558 19.4042 96.8003C19.6487 97.0449 19.9724 97.1672 20.3753 97.1672C20.5735 97.1672 20.7436 97.1441 20.8856 97.0978C21.031 97.0515 21.1565 97.0003 21.2622 96.9441C21.3712 96.8879 21.4653 96.8367 21.5446 96.7904C21.6271 96.7442 21.7064 96.721 21.7824 96.721C21.8319 96.721 21.8749 96.7309 21.9112 96.7508C21.9475 96.7706 21.9789 96.7987 22.0053 96.835L22.362 97.2812C22.2266 97.4399 22.0747 97.5737 21.9062 97.6828C21.7378 97.7885 21.5611 97.8745 21.3761 97.9406C21.1944 98.0034 21.0078 98.048 20.8163 98.0744C20.628 98.1009 20.4447 98.1141 20.2663 98.1141C19.9129 98.1141 19.5843 98.0562 19.2804 97.9406C18.9765 97.8216 18.7123 97.6481 18.4877 97.42C18.2631 97.1887 18.0864 96.9044 17.9576 96.5673C17.8287 96.2269 17.7643 95.8336 17.7643 95.3874C17.7643 95.0404 17.8205 94.7149 17.9328 94.4108C18.0451 94.1035 18.2053 93.8374 18.4134 93.6127C18.6247 93.3846 18.8807 93.2045 19.1813 93.0723C19.4852 92.9401 19.827 92.874 20.2069 92.874ZM20.2316 93.7515C19.8749 93.7515 19.5958 93.8523 19.3943 94.0539C19.1929 94.2555 19.064 94.5414 19.0079 94.9115H21.3067C21.3067 94.7529 21.2853 94.6042 21.2423 94.4654C21.1994 94.3232 21.1333 94.1993 21.0442 94.0935C20.955 93.9878 20.8427 93.9052 20.7073 93.8457C20.5718 93.7829 20.4133 93.7515 20.2316 93.7515Z" fill="black"></path><path d="M24.7023 90.6729V98.0397H23.4786V90.6729H24.7023Z" fill="black"></path><path d="M28.2594 92.874C28.6393 92.874 28.9828 92.9351 29.29 93.0574C29.6004 93.1797 29.8647 93.3532 30.0827 93.578C30.3007 93.8027 30.4691 94.077 30.588 94.4009C30.7069 94.7248 30.7664 95.0867 30.7664 95.4866C30.7664 95.8898 30.7069 96.2534 30.588 96.5773C30.4691 96.9011 30.3007 97.1771 30.0827 97.4052C29.8647 97.6332 29.6004 97.8084 29.29 97.9307C28.9828 98.0529 28.6393 98.1141 28.2594 98.1141C27.8796 98.1141 27.5344 98.0529 27.224 97.9307C26.9135 97.8084 26.6476 97.6332 26.4263 97.4052C26.2083 97.1771 26.0382 96.9011 25.916 96.5773C25.7971 96.2534 25.7376 95.8898 25.7376 95.4866C25.7376 95.0867 25.7971 94.7248 25.916 94.4009C26.0382 94.077 26.2083 93.8027 26.4263 93.578C26.6476 93.3532 26.9135 93.1797 27.224 93.0574C27.5344 92.9351 27.8796 92.874 28.2594 92.874ZM28.2594 97.1722C28.6822 97.1722 28.9943 97.03 29.1958 96.7458C29.4006 96.4616 29.503 96.0451 29.503 95.4965C29.503 94.9479 29.4006 94.5298 29.1958 94.2423C28.9943 93.9547 28.6822 93.811 28.2594 93.811C27.8301 93.811 27.513 93.9564 27.3082 94.2472C27.1034 94.5348 27.001 94.9512 27.001 95.4965C27.001 96.0418 27.1034 96.4583 27.3082 96.7458C27.513 97.03 27.8301 97.1722 28.2594 97.1722Z" fill="black"></path><path d="M31.7212 99.7005V92.9533H32.4693C32.5486 92.9533 32.6163 92.9715 32.6724 93.0078C32.7286 93.0442 32.7649 93.1004 32.7814 93.1764L32.8805 93.6474C33.0853 93.4127 33.3198 93.2227 33.5841 93.0772C33.8516 92.9318 34.1637 92.8591 34.5204 92.8591C34.7979 92.8591 35.0506 92.917 35.2785 93.0326C35.5097 93.1483 35.7079 93.3169 35.873 93.5383C36.0415 93.7564 36.1703 94.0274 36.2594 94.3513C36.3519 94.6719 36.3982 95.0404 36.3982 95.4569C36.3982 95.8369 36.347 96.1889 36.2446 96.5128C36.1422 96.8367 35.9952 97.1176 35.8036 97.3556C35.6154 97.5935 35.3858 97.7803 35.115 97.9158C34.8474 98.048 34.5469 98.1141 34.2133 98.1141C33.9259 98.1141 33.6815 98.0711 33.48 97.9852C33.2818 97.896 33.1035 97.7737 32.9449 97.6183V99.7005H31.7212ZM34.0993 93.8258C33.845 93.8258 33.627 93.8804 33.4453 93.9894C33.267 94.0952 33.1002 94.2456 32.9449 94.4406V96.721C33.0837 96.8929 33.2339 97.0135 33.3958 97.0829C33.5609 97.149 33.7376 97.1821 33.9259 97.1821C34.1109 97.1821 34.2777 97.1474 34.4263 97.078C34.5782 97.0086 34.7054 96.9028 34.8078 96.7607C34.9135 96.6186 34.9944 96.4401 35.0506 96.2253C35.1067 96.0071 35.1348 95.751 35.1348 95.4569C35.1348 95.1594 35.11 94.9082 35.0605 94.7033C35.0142 94.4951 34.9465 94.3265 34.8573 94.1976C34.7682 94.0688 34.6592 93.9746 34.5304 93.9151C34.4048 93.8556 34.2612 93.8258 34.0993 93.8258Z" fill="black"></path><path d="M37.324 98.0397V92.9533H38.0721C38.2306 92.9533 38.3347 93.0277 38.3842 93.1764L38.4635 93.5532C38.5527 93.454 38.6451 93.3631 38.7409 93.2805C38.84 93.1979 38.9441 93.1268 39.0531 93.0673C39.1654 93.0078 39.2843 92.9616 39.4098 92.9285C39.5386 92.8922 39.679 92.874 39.8309 92.874C40.1513 92.874 40.4139 92.9616 40.6187 93.1367C40.8267 93.3086 40.982 93.5383 41.0844 93.8258C41.1636 93.6573 41.2627 93.5135 41.3816 93.3945C41.5005 93.2722 41.631 93.1731 41.773 93.0971C41.9151 93.0211 42.0653 92.9649 42.2239 92.9285C42.3857 92.8922 42.5476 92.874 42.7094 92.874C42.9902 92.874 43.2395 92.917 43.4575 93.0029C43.6755 93.0888 43.8588 93.2144 44.0075 93.3797C44.1561 93.5449 44.2684 93.7465 44.3444 93.9845C44.4237 94.2224 44.4633 94.4951 44.4633 94.8025V98.0397H43.2395V94.8025C43.2395 94.4786 43.1685 94.2357 43.0265 94.0737C42.8845 93.9085 42.6764 93.8258 42.4022 93.8258C42.2767 93.8258 42.1595 93.8473 42.0505 93.8903C41.9448 93.9332 41.8507 93.996 41.7681 94.0787C41.6888 94.158 41.626 94.2588 41.5798 94.3811C41.5336 94.5034 41.5104 94.6438 41.5104 94.8025V98.0397H40.2817V94.8025C40.2817 94.462 40.2124 94.2142 40.0737 94.0588C39.9382 93.9035 39.7368 93.8258 39.4692 93.8258C39.2942 93.8258 39.129 93.8704 38.9738 93.9597C38.8218 94.0456 38.6798 94.1646 38.5477 94.3166V98.0397H37.324Z" fill="black"></path><path d="M47.7659 92.874C48.0863 92.874 48.3802 92.9252 48.6478 93.0277C48.9186 93.1301 49.1515 93.2805 49.3463 93.4788C49.5412 93.6738 49.6932 93.9151 49.8022 94.2026C49.9111 94.4868 49.9656 94.8124 49.9656 95.1792C49.9656 95.2718 49.9607 95.3494 49.9508 95.4122C49.9442 95.4717 49.9293 95.5196 49.9062 95.556C49.8864 95.5891 49.8583 95.6138 49.822 95.6304C49.7856 95.6436 49.7394 95.6502 49.6832 95.6502H46.5421C46.5785 96.1724 46.7188 96.5558 46.9633 96.8003C47.2077 97.0449 47.5314 97.1672 47.9343 97.1672C48.1325 97.1672 48.3026 97.1441 48.4446 97.0978C48.59 97.0515 48.7155 97.0003 48.8212 96.9441C48.9302 96.8879 49.0243 96.8367 49.1036 96.7904C49.1861 96.7442 49.2654 96.721 49.3414 96.721C49.3909 96.721 49.4339 96.7309 49.4702 96.7508C49.5065 96.7706 49.5379 96.7987 49.5643 96.835L49.9211 97.2812C49.7856 97.4399 49.6337 97.5737 49.4653 97.6828C49.2968 97.7885 49.1201 97.8745 48.9351 97.9406C48.7535 98.0034 48.5668 98.048 48.3753 98.0744C48.187 98.1009 48.0037 98.1141 47.8253 98.1141C47.4719 98.1141 47.1433 98.0562 46.8394 97.9406C46.5355 97.8216 46.2713 97.6481 46.0467 97.42C45.8221 97.1887 45.6454 96.9044 45.5166 96.5673C45.3878 96.2269 45.3233 95.8336 45.3233 95.3874C45.3233 95.0404 45.3795 94.7149 45.4918 94.4108C45.6041 94.1035 45.7643 93.8374 45.9724 93.6127C46.1838 93.3846 46.4397 93.2045 46.7403 93.0723C47.0442 92.9401 47.386 92.874 47.7659 92.874ZM47.7907 93.7515C47.4339 93.7515 47.1548 93.8523 46.9534 94.0539C46.7519 94.2555 46.6231 94.5414 46.5669 94.9115H48.8658C48.8658 94.7529 48.8443 94.6042 48.8014 94.4654C48.7584 94.3232 48.6924 94.1993 48.6032 94.0935C48.514 93.9878 48.4017 93.9052 48.2663 93.8457C48.1309 93.7829 47.9723 93.7515 47.7907 93.7515Z" fill="black"></path><path d="M50.9583 98.0397V92.9533H51.7064C51.865 92.9533 51.969 93.0277 52.0186 93.1764L52.1028 93.578C52.2052 93.4722 52.3125 93.3764 52.4248 93.2904C52.5404 93.2045 52.661 93.1301 52.7865 93.0673C52.9153 93.0045 53.0524 92.9566 53.1977 92.9236C53.343 92.8905 53.5016 92.874 53.6733 92.874C53.9508 92.874 54.1969 92.9219 54.4115 93.0178C54.6262 93.1103 54.8046 93.2425 54.9466 93.4144C55.092 93.5829 55.201 93.7862 55.2736 94.0241C55.3496 94.2588 55.3876 94.5182 55.3876 94.8025V98.0397H54.1638V94.8025C54.1638 94.4918 54.0912 94.2522 53.9458 94.0836C53.8038 93.9118 53.5891 93.8258 53.3018 93.8258C53.0904 93.8258 52.8922 93.8738 52.7072 93.9696C52.5223 94.0654 52.3472 94.196 52.1821 94.3612V98.0397H50.9583Z" fill="black"></path><path d="M58.2597 98.119C57.8205 98.119 57.4819 97.9951 57.2441 97.7472C57.0063 97.496 56.8874 97.1507 56.8874 96.7111V93.8704H56.3721C56.3061 93.8704 56.2482 93.849 56.1987 93.806C56.1525 93.763 56.1293 93.6986 56.1293 93.6127V93.1268L56.9468 92.993L57.2045 91.6049C57.2177 91.5388 57.2474 91.4875 57.2936 91.4512C57.3432 91.4148 57.4043 91.3966 57.477 91.3966H58.1111V92.9979H59.4488V93.8704H58.1111V96.6268C58.1111 96.7855 58.1508 96.9094 58.23 96.9986C58.3093 97.0879 58.415 97.1325 58.5471 97.1325C58.6231 97.1325 58.6858 97.1242 58.7354 97.1077C58.7882 97.0879 58.8328 97.068 58.8691 97.0482C58.9088 97.0284 58.9435 97.0102 58.9732 96.9937C59.0029 96.9739 59.0326 96.9639 59.0624 96.9639C59.0987 96.9639 59.1284 96.9739 59.1515 96.9937C59.1747 97.0102 59.1994 97.0367 59.2259 97.073L59.5925 97.6679C59.4141 97.8166 59.2093 97.929 58.9781 98.005C58.7469 98.081 58.5075 98.119 58.2597 98.119Z" fill="black"></path><path d="M5.04383 113.453V114.514H1.86804V116.636H4.54839V117.702H1.86804V120.622H0.525391V113.453H5.04383Z" fill="black"></path><path d="M7.3231 115.536V120.622H6.09936V115.536H7.3231ZM7.50642 114.053C7.50642 114.159 7.48495 114.258 7.44201 114.351C7.39907 114.443 7.34127 114.524 7.2686 114.594C7.19924 114.663 7.11667 114.719 7.02088 114.762C6.9251 114.802 6.8227 114.822 6.71371 114.822C6.60801 114.822 6.50727 114.802 6.41149 114.762C6.319 114.719 6.23808 114.663 6.16872 114.594C6.09936 114.524 6.04321 114.443 6.00027 114.351C5.96063 114.258 5.94082 114.159 5.94082 114.053C5.94082 113.944 5.96063 113.842 6.00027 113.746C6.04321 113.65 6.09936 113.567 6.16872 113.498C6.23808 113.429 6.319 113.374 6.41149 113.334C6.50727 113.291 6.60801 113.27 6.71371 113.27C6.8227 113.27 6.9251 113.291 7.02088 113.334C7.11667 113.374 7.19924 113.429 7.2686 113.498C7.34127 113.567 7.39907 113.65 7.44201 113.746C7.48495 113.842 7.50642 113.944 7.50642 114.053Z" fill="black"></path><path d="M8.71019 120.622V115.536H9.45831C9.61685 115.536 9.72089 115.61 9.77044 115.759L9.85466 116.16C9.95705 116.054 10.0644 115.959 10.1767 115.873C10.2923 115.787 10.4129 115.712 10.5384 115.65C10.6672 115.587 10.8043 115.539 10.9496 115.506C11.0949 115.473 11.2535 115.456 11.4252 115.456C11.7027 115.456 11.9487 115.504 12.1634 115.6C12.3781 115.693 12.5565 115.825 12.6985 115.997C12.8438 116.165 12.9528 116.368 13.0255 116.606C13.1015 116.841 13.1394 117.101 13.1394 117.385V120.622H11.9157V117.385C11.9157 117.074 11.843 116.834 11.6977 116.666C11.5557 116.494 11.341 116.408 11.0536 116.408C10.8422 116.408 10.6441 116.456 10.4591 116.552C10.2741 116.648 10.0991 116.778 9.93393 116.944V120.622H8.71019Z" fill="black"></path><path d="M18.3253 120.622H17.7754C17.6598 120.622 17.569 120.605 17.5029 120.572C17.4368 120.536 17.3873 120.465 17.3543 120.359L17.2453 119.997C17.1165 120.113 16.9893 120.215 16.8638 120.305C16.7416 120.391 16.6144 120.463 16.4823 120.523C16.3502 120.582 16.2098 120.627 16.0612 120.657C15.9125 120.686 15.7474 120.701 15.5657 120.701C15.351 120.701 15.1529 120.673 14.9712 120.617C14.7895 120.558 14.6326 120.47 14.5005 120.354C14.3717 120.239 14.271 120.095 14.1983 119.923C14.1256 119.751 14.0893 119.551 14.0893 119.323C14.0893 119.131 14.1389 118.943 14.2379 118.758C14.3403 118.57 14.5088 118.401 14.7433 118.252C14.9778 118.1 15.2899 117.975 15.6797 117.876C16.0694 117.776 16.5533 117.72 17.1313 117.707V117.41C17.1313 117.069 17.0587 116.818 16.9133 116.656C16.7713 116.491 16.5632 116.408 16.2891 116.408C16.0909 116.408 15.9257 116.431 15.7936 116.478C15.6615 116.524 15.5459 116.577 15.4468 116.636C15.351 116.692 15.2619 116.744 15.1793 116.79C15.0967 116.836 15.0059 116.859 14.9068 116.859C14.8242 116.859 14.7532 116.838 14.6937 116.795C14.6343 116.752 14.5864 116.699 14.5501 116.636L14.3271 116.245C14.9117 115.709 15.6169 115.441 16.4427 115.441C16.7399 115.441 17.0042 115.491 17.2354 115.59C17.4699 115.686 17.6681 115.821 17.8299 115.997C17.9917 116.168 18.114 116.375 18.1965 116.616C18.2824 116.858 18.3253 117.122 18.3253 117.41V120.622ZM15.9472 119.859C16.0727 119.859 16.1883 119.847 16.294 119.824C16.3997 119.801 16.4988 119.766 16.5913 119.72C16.6871 119.673 16.7779 119.617 16.8638 119.551C16.953 119.482 17.0421 119.401 17.1313 119.308V118.451C16.7746 118.467 16.4757 118.499 16.2346 118.545C15.9968 118.588 15.8052 118.644 15.6599 118.713C15.5145 118.783 15.4105 118.864 15.3477 118.956C15.2883 119.049 15.2586 119.15 15.2586 119.259C15.2586 119.474 15.3213 119.627 15.4468 119.72C15.5756 119.812 15.7424 119.859 15.9472 119.859Z" fill="black"></path><path d="M20.8317 113.255V120.622H19.6079V113.255H20.8317Z" fill="black"></path><path d="M29.2527 113.453V114.549H27.0975V120.622H25.7647V114.549H23.5996V113.453H29.2527Z" fill="black"></path><path d="M31.1221 115.456C31.4425 115.456 31.7364 115.507 32.004 115.61C32.2748 115.712 32.5077 115.863 32.7026 116.061C32.8974 116.256 33.0494 116.497 33.1584 116.785C33.2674 117.069 33.3219 117.395 33.3219 117.762C33.3219 117.854 33.3169 117.932 33.307 117.995C33.3004 118.054 33.2855 118.102 33.2624 118.138C33.2426 118.171 33.2145 118.196 33.1782 118.213C33.1419 118.226 33.0956 118.232 33.0395 118.232H29.8984C29.9347 118.755 30.0751 119.138 30.3195 119.383C30.5639 119.627 30.8876 119.749 31.2905 119.749C31.4887 119.749 31.6588 119.726 31.8009 119.68C31.9462 119.634 32.0717 119.583 32.1774 119.526C32.2864 119.47 32.3805 119.419 32.4598 119.373C32.5424 119.326 32.6216 119.303 32.6976 119.303C32.7472 119.303 32.7901 119.313 32.8264 119.333C32.8628 119.353 32.8941 119.381 32.9206 119.417L33.2773 119.863C33.1419 120.022 32.9899 120.156 32.8215 120.265C32.653 120.371 32.4763 120.457 32.2913 120.523C32.1097 120.586 31.9231 120.63 31.7315 120.657C31.5432 120.683 31.3599 120.696 31.1815 120.696C30.8281 120.696 30.4995 120.639 30.1956 120.523C29.8917 120.404 29.6275 120.23 29.4029 120.002C29.1783 119.771 29.0016 119.487 28.8728 119.15C28.744 118.809 28.6796 118.416 28.6796 117.97C28.6796 117.623 28.7357 117.297 28.848 116.993C28.9603 116.686 29.1205 116.42 29.3286 116.195C29.54 115.967 29.796 115.787 30.0965 115.655C30.4004 115.522 30.7423 115.456 31.1221 115.456ZM31.1469 116.334C30.7901 116.334 30.511 116.435 30.3096 116.636C30.1081 116.838 29.9793 117.124 29.9231 117.494H32.222C32.222 117.335 32.2005 117.186 32.1576 117.048C32.1146 116.906 32.0486 116.782 31.9594 116.676C31.8702 116.57 31.7579 116.487 31.6225 116.428C31.4871 116.365 31.3285 116.334 31.1469 116.334Z" fill="black"></path><path d="M37.3318 116.527C37.2987 116.58 37.2641 116.618 37.2277 116.641C37.1914 116.661 37.1452 116.671 37.089 116.671C37.0296 116.671 36.9651 116.654 36.8958 116.621C36.8297 116.588 36.7521 116.552 36.6629 116.512C36.5737 116.469 36.4714 116.431 36.3558 116.398C36.2435 116.365 36.1097 116.349 35.9544 116.349C35.7133 116.349 35.5234 116.4 35.3847 116.502C35.246 116.605 35.1766 116.739 35.1766 116.904C35.1766 117.013 35.2113 117.105 35.2806 117.181C35.3533 117.254 35.4474 117.319 35.563 117.375C35.682 117.431 35.8157 117.482 35.9644 117.529C36.113 117.571 36.2649 117.619 36.4202 117.672C36.5754 117.725 36.7273 117.786 36.876 117.856C37.0246 117.922 37.1567 118.008 37.2723 118.113C37.3912 118.216 37.4854 118.34 37.5547 118.485C37.6274 118.631 37.6637 118.806 37.6637 119.011C37.6637 119.255 37.6191 119.482 37.53 119.69C37.4408 119.895 37.3103 120.073 37.1386 120.225C36.9668 120.374 36.7538 120.491 36.4994 120.577C36.2484 120.66 35.9594 120.701 35.6324 120.701C35.4574 120.701 35.2856 120.685 35.1172 120.652C34.952 120.622 34.7918 120.579 34.6366 120.523C34.4846 120.467 34.3426 120.401 34.2105 120.325C34.0817 120.249 33.9677 120.166 33.8686 120.077L34.151 119.611C34.1874 119.554 34.2303 119.512 34.2798 119.482C34.3294 119.452 34.3921 119.437 34.4681 119.437C34.5441 119.437 34.6151 119.459 34.6812 119.502C34.7505 119.545 34.8298 119.591 34.919 119.64C35.0082 119.69 35.1122 119.736 35.2311 119.779C35.3533 119.822 35.5069 119.844 35.6919 119.844C35.8372 119.844 35.961 119.827 36.0634 119.794C36.1691 119.758 36.255 119.711 36.3211 119.655C36.3904 119.599 36.44 119.535 36.4697 119.462C36.5027 119.386 36.5193 119.308 36.5193 119.229C36.5193 119.11 36.4829 119.012 36.4103 118.936C36.3409 118.86 36.2468 118.794 36.1279 118.738C36.0122 118.682 35.8785 118.632 35.7265 118.589C35.5779 118.543 35.4243 118.494 35.2658 118.441C35.1105 118.388 34.957 118.327 34.805 118.257C34.6564 118.185 34.5226 118.094 34.4037 117.985C34.2881 117.876 34.194 117.742 34.1213 117.583C34.0519 117.424 34.0173 117.233 34.0173 117.008C34.0173 116.8 34.0586 116.601 34.1411 116.413C34.2237 116.225 34.3443 116.061 34.5028 115.922C34.6646 115.78 34.8645 115.668 35.1023 115.585C35.3434 115.499 35.6208 115.456 35.9346 115.456C36.2847 115.456 36.6035 115.514 36.8908 115.63C37.1782 115.745 37.4177 115.897 37.6092 116.086L37.3318 116.527Z" fill="black"></path><path d="M40.3096 120.701C39.8703 120.701 39.5318 120.577 39.294 120.33C39.0562 120.078 38.9372 119.733 38.9372 119.293V116.453H38.422C38.3559 116.453 38.2981 116.431 38.2486 116.388C38.2023 116.345 38.1792 116.281 38.1792 116.195V115.709L38.9967 115.575L39.2543 114.187C39.2675 114.121 39.2973 114.07 39.3435 114.033C39.3931 113.997 39.4542 113.979 39.5268 113.979H40.161V115.58H41.4987V116.453H40.161V119.209C40.161 119.368 40.2006 119.492 40.2799 119.581C40.3592 119.67 40.4649 119.715 40.597 119.715C40.6729 119.715 40.7357 119.707 40.7852 119.69C40.8381 119.67 40.8827 119.65 40.919 119.63C40.9587 119.611 40.9933 119.592 41.0231 119.576C41.0528 119.556 41.0825 119.546 41.1122 119.546C41.1486 119.546 41.1783 119.556 41.2014 119.576C41.2245 119.592 41.2493 119.619 41.2757 119.655L41.6424 120.25C41.464 120.399 41.2592 120.511 41.028 120.587C40.7968 120.663 40.5573 120.701 40.3096 120.701Z" fill="black"></path><path d="M43.7749 115.536V120.622H42.5512V115.536H43.7749ZM43.9583 114.053C43.9583 114.159 43.9368 114.258 43.8938 114.351C43.8509 114.443 43.7931 114.524 43.7204 114.594C43.6511 114.663 43.5685 114.719 43.4727 114.762C43.3769 114.802 43.2745 114.822 43.1655 114.822C43.0598 114.822 42.9591 114.802 42.8633 114.762C42.7708 114.719 42.6899 114.663 42.6206 114.594C42.5512 114.524 42.495 114.443 42.4521 114.351C42.4125 114.258 42.3926 114.159 42.3926 114.053C42.3926 113.944 42.4125 113.842 42.4521 113.746C42.495 113.65 42.5512 113.567 42.6206 113.498C42.6899 113.429 42.7708 113.374 42.8633 113.334C42.9591 113.291 43.0598 113.27 43.1655 113.27C43.2745 113.27 43.3769 113.291 43.4727 113.334C43.5685 113.374 43.6511 113.429 43.7204 113.498C43.7931 113.567 43.8509 113.65 43.8938 113.746C43.9368 113.842 43.9583 113.944 43.9583 114.053Z" fill="black"></path><path d="M45.162 120.622V115.536H45.9101C46.0687 115.536 46.1727 115.61 46.2223 115.759L46.3065 116.16C46.4089 116.054 46.5162 115.959 46.6285 115.873C46.7441 115.787 46.8647 115.712 46.9902 115.65C47.119 115.587 47.2561 115.539 47.4014 115.506C47.5468 115.473 47.7053 115.456 47.8771 115.456C48.1545 115.456 48.4006 115.504 48.6153 115.6C48.83 115.693 49.0083 115.825 49.1503 115.997C49.2957 116.165 49.4047 116.368 49.4773 116.606C49.5533 116.841 49.5913 117.101 49.5913 117.385V120.622H48.3675V117.385C48.3675 117.074 48.2949 116.834 48.1495 116.666C48.0075 116.494 47.7928 116.408 47.5055 116.408C47.2941 116.408 47.0959 116.456 46.9109 116.552C46.726 116.648 46.5509 116.778 46.3858 116.944V120.622H45.162Z" fill="black"></path><path d="M52.5526 115.446C52.7706 115.446 52.9754 115.469 53.167 115.516C53.3586 115.559 53.5336 115.623 53.6922 115.709H55.1537V116.165C55.1537 116.241 55.1339 116.301 55.0943 116.344C55.0546 116.387 54.9869 116.416 54.8911 116.433L54.4353 116.517C54.4684 116.603 54.4931 116.694 54.5096 116.79C54.5295 116.886 54.5394 116.986 54.5394 117.092C54.5394 117.343 54.4882 117.571 54.3858 117.776C54.2867 117.978 54.148 118.15 53.9696 118.292C53.7945 118.434 53.5848 118.545 53.3404 118.624C53.0993 118.7 52.8367 118.738 52.5526 118.738C52.3611 118.738 52.1744 118.72 51.9928 118.684C51.8342 118.779 51.755 118.887 51.755 119.006C51.755 119.108 51.8012 119.184 51.8937 119.234C51.9895 119.28 52.1133 119.313 52.2653 119.333C52.4205 119.353 52.5956 119.366 52.7905 119.373C52.9853 119.376 53.1852 119.386 53.3899 119.402C53.5947 119.419 53.7946 119.449 53.9894 119.492C54.1843 119.531 54.3577 119.596 54.5096 119.685C54.6649 119.774 54.7887 119.897 54.8812 120.052C54.977 120.204 55.0249 120.401 55.0249 120.642C55.0249 120.867 54.9687 121.085 54.8564 121.296C54.7475 121.508 54.5873 121.696 54.3759 121.861C54.1678 122.027 53.9118 122.159 53.6079 122.258C53.3041 122.36 52.9573 122.412 52.5675 122.412C52.1811 122.412 51.8458 122.374 51.5618 122.298C51.2777 122.225 51.0415 122.126 50.8533 122C50.6683 121.878 50.5296 121.736 50.4371 121.574C50.3446 121.412 50.2984 121.243 50.2984 121.068C50.2984 120.83 50.371 120.63 50.5164 120.468C50.6617 120.306 50.8632 120.177 51.1208 120.082C50.9953 120.012 50.8946 119.92 50.8186 119.804C50.7426 119.688 50.7046 119.538 50.7046 119.353C50.7046 119.277 50.7178 119.199 50.7443 119.12C50.7707 119.037 50.8103 118.956 50.8632 118.877C50.9193 118.798 50.9887 118.723 51.0713 118.654C51.1538 118.581 51.2513 118.517 51.3636 118.461C51.1059 118.322 50.9028 118.137 50.7542 117.905C50.6088 117.674 50.5362 117.403 50.5362 117.092C50.5362 116.841 50.5857 116.615 50.6848 116.413C50.7872 116.208 50.9276 116.035 51.1059 115.893C51.2876 115.747 51.5006 115.636 51.7451 115.56C51.9928 115.484 52.262 115.446 52.5526 115.446ZM53.8953 120.85C53.8953 120.751 53.8656 120.67 53.8061 120.607C53.7467 120.544 53.6657 120.496 53.5633 120.463C53.461 120.427 53.3404 120.401 53.2017 120.384C53.0662 120.368 52.9209 120.356 52.7657 120.349C52.6137 120.339 52.4552 120.331 52.2901 120.325C52.1282 120.315 51.9713 120.3 51.8194 120.28C51.6807 120.356 51.5684 120.447 51.4825 120.553C51.3999 120.655 51.3586 120.774 51.3586 120.91C51.3586 120.999 51.3801 121.081 51.423 121.157C51.4693 121.237 51.5403 121.304 51.6361 121.361C51.7352 121.417 51.8623 121.46 52.0176 121.49C52.1728 121.523 52.3627 121.539 52.5873 121.539C52.8152 121.539 53.0117 121.521 53.1769 121.485C53.342 121.452 53.4775 121.404 53.5832 121.341C53.6922 121.281 53.7714 121.209 53.821 121.123C53.8705 121.04 53.8953 120.949 53.8953 120.85ZM52.5526 117.955C52.7046 117.955 52.8367 117.935 52.949 117.895C53.0613 117.852 53.1538 117.795 53.2264 117.722C53.3024 117.649 53.3586 117.562 53.3949 117.459C53.4345 117.357 53.4543 117.244 53.4543 117.122C53.4543 116.871 53.3784 116.673 53.2264 116.527C53.0778 116.378 52.8532 116.304 52.5526 116.304C52.2521 116.304 52.0258 116.378 51.8739 116.527C51.7252 116.673 51.6509 116.871 51.6509 117.122C51.6509 117.241 51.6691 117.352 51.7054 117.454C51.7451 117.557 51.8012 117.646 51.8739 117.722C51.9499 117.795 52.044 117.852 52.1563 117.895C52.2719 117.935 52.404 117.955 52.5526 117.955Z" fill="black"></path><g opacity="0.3"><path d="M72.7227 18.7191H73.8424C73.958 18.7191 74.0537 18.7472 74.1297 18.8034C74.209 18.8563 74.2618 18.929 74.2883 19.0216L75.507 23.3098C75.5368 23.4156 75.5632 23.5312 75.5863 23.6568C75.6127 23.7791 75.6375 23.9097 75.6606 24.0485C75.6871 23.9097 75.7151 23.7791 75.7449 23.6568C75.7779 23.5312 75.8126 23.4156 75.8489 23.3098L77.256 19.0216C77.2824 18.9455 77.3336 18.8761 77.4095 18.8133C77.4888 18.7505 77.5846 18.7191 77.6969 18.7191H78.0883C78.2039 18.7191 78.2997 18.7472 78.3757 18.8034C78.4516 18.8563 78.5045 18.929 78.5342 19.0216L79.9314 23.3098C80.004 23.5213 80.0668 23.756 80.1196 24.0138C80.1427 23.8849 80.1659 23.7609 80.189 23.642C80.2154 23.523 80.2418 23.4123 80.2683 23.3098L81.487 19.0216C81.5102 18.9389 81.5614 18.8679 81.6406 18.8084C81.7199 18.7489 81.8157 18.7191 81.928 18.7191H82.9734L80.7488 25.8877H79.5449L77.9793 20.9897C77.9595 20.9269 77.938 20.8591 77.9149 20.7864C77.8951 20.7137 77.8753 20.636 77.8554 20.5534C77.8356 20.636 77.8142 20.7137 77.791 20.7864C77.7712 20.8591 77.7514 20.9269 77.7316 20.9897L76.1511 25.8877H74.9472L72.7227 18.7191Z" fill="black"></path><path d="M84.3693 24.9706H85.8209V20.7914C85.8209 20.6294 85.8259 20.4592 85.8358 20.2808L84.8053 21.1434C84.7623 21.1797 84.7177 21.2045 84.6715 21.2177C84.6286 21.231 84.5856 21.2376 84.5427 21.2376C84.4766 21.2376 84.4155 21.2243 84.3594 21.1979C84.3065 21.1682 84.2669 21.1351 84.2405 21.0988L83.854 20.5683L86.0389 18.7092H87.0447V24.9706H88.3328V25.8877H84.3693V24.9706Z" fill="black"></path></g><g opacity="0.3"><path d="M128.6 18.7187H129.719C129.835 18.7187 129.931 18.7468 130.007 18.803C130.086 18.8559 130.139 18.9286 130.165 19.0211L131.384 23.3094C131.414 23.4151 131.44 23.5308 131.463 23.6564C131.49 23.7787 131.514 23.9092 131.538 24.0481C131.564 23.9092 131.592 23.7787 131.622 23.6564C131.655 23.5308 131.69 23.4151 131.726 23.3094L133.133 19.0211C133.159 18.9451 133.211 18.8757 133.287 18.8129C133.366 18.7501 133.462 18.7187 133.574 18.7187H133.965C134.081 18.7187 134.177 18.7468 134.253 18.803C134.329 18.8559 134.381 18.9286 134.411 19.0211L135.808 23.3094C135.881 23.5209 135.944 23.7556 135.997 24.0134C136.02 23.8845 136.043 23.7605 136.066 23.6415C136.092 23.5226 136.119 23.4118 136.145 23.3094L137.364 19.0211C137.387 18.9385 137.438 18.8674 137.518 18.808C137.597 18.7485 137.693 18.7187 137.805 18.7187H138.85L136.626 25.8873H135.422L133.856 20.9893C133.836 20.9265 133.815 20.8587 133.792 20.786C133.772 20.7133 133.752 20.6356 133.732 20.553C133.713 20.6356 133.691 20.7133 133.668 20.786C133.648 20.8587 133.628 20.9265 133.609 20.9893L132.028 25.8873H130.824L128.6 18.7187Z" fill="black"></path><path d="M142.01 18.6394C142.34 18.6394 142.638 18.6873 142.902 18.7832C143.169 18.8757 143.397 19.0063 143.586 19.1748C143.774 19.3401 143.917 19.5351 144.017 19.7598C144.119 19.9845 144.17 20.2275 144.17 20.4886C144.17 20.7166 144.144 20.9182 144.091 21.0934C144.041 21.2652 143.967 21.4156 143.868 21.5445C143.772 21.6734 143.653 21.7825 143.511 21.8717C143.372 21.9609 143.214 22.0353 143.036 22.0948C143.465 22.2303 143.785 22.4369 143.997 22.7145C144.208 22.9921 144.314 23.3408 144.314 23.7605C144.314 24.1175 144.248 24.4331 144.116 24.7074C143.984 24.9817 143.805 25.2131 143.581 25.4015C143.356 25.5865 143.095 25.727 142.798 25.8228C142.504 25.9187 142.192 25.9666 141.861 25.9666C141.501 25.9666 141.188 25.9253 140.92 25.8427C140.652 25.7601 140.42 25.6378 140.221 25.4758C140.023 25.3139 139.855 25.1156 139.716 24.8809C139.577 24.6463 139.458 24.3753 139.359 24.0679L139.899 23.8448C139.992 23.8051 140.086 23.7853 140.182 23.7853C140.268 23.7853 140.344 23.8035 140.41 23.8398C140.479 23.8762 140.532 23.9291 140.568 23.9985C140.628 24.1142 140.692 24.2282 140.761 24.3405C140.834 24.4529 140.92 24.5537 141.019 24.643C141.118 24.7289 141.234 24.7999 141.366 24.8561C141.501 24.909 141.662 24.9354 141.847 24.9354C142.055 24.9354 142.236 24.9024 142.392 24.8363C142.547 24.7669 142.676 24.6777 142.778 24.5686C142.884 24.4595 142.961 24.3389 143.011 24.2067C143.064 24.0712 143.09 23.9357 143.09 23.8002C143.09 23.6283 143.072 23.473 143.036 23.3342C142.999 23.1921 142.923 23.0714 142.808 22.9723C142.692 22.8731 142.525 22.7955 142.307 22.7393C142.093 22.6831 141.804 22.655 141.44 22.655V21.7825C141.741 21.7792 141.99 21.7511 142.188 21.6982C142.387 21.6453 142.543 21.5726 142.659 21.4801C142.778 21.3842 142.861 21.2702 142.907 21.138C142.953 21.0058 142.976 20.8604 142.976 20.7017C142.976 20.3613 142.884 20.1052 142.699 19.9333C142.514 19.7582 142.261 19.6706 141.941 19.6706C141.65 19.6706 141.409 19.7482 141.217 19.9036C141.026 20.0556 140.892 20.2522 140.816 20.4935C140.776 20.6191 140.722 20.71 140.652 20.7662C140.583 20.8191 140.492 20.8455 140.38 20.8455C140.327 20.8455 140.271 20.8405 140.212 20.8306L139.567 20.7166C139.617 20.3729 139.713 20.0721 139.855 19.8143C139.997 19.5532 140.174 19.3368 140.385 19.1649C140.6 18.9897 140.844 18.8592 141.118 18.7733C141.396 18.684 141.693 18.6394 142.01 18.6394Z" fill="black"></path></g><g opacity="0.3"><path d="M294.953 18.7187H296.073C296.188 18.7187 296.284 18.7468 296.36 18.803C296.439 18.8559 296.492 18.9286 296.519 19.0211L297.738 23.3094C297.767 23.4151 297.794 23.5308 297.817 23.6564C297.843 23.7787 297.868 23.9092 297.891 24.0481C297.918 23.9092 297.946 23.7787 297.975 23.6564C298.008 23.5308 298.043 23.4151 298.079 23.3094L299.486 19.0211C299.513 18.9451 299.564 18.8757 299.64 18.8129C299.719 18.7501 299.815 18.7187 299.927 18.7187H300.319C300.434 18.7187 300.53 18.7468 300.606 18.803C300.682 18.8559 300.735 18.9286 300.765 19.0211L302.162 23.3094C302.234 23.5209 302.297 23.7556 302.35 24.0134C302.373 23.8845 302.396 23.7605 302.419 23.6415C302.446 23.5226 302.472 23.4118 302.499 23.3094L303.718 19.0211C303.741 18.9385 303.792 18.8674 303.871 18.808C303.95 18.7485 304.046 18.7187 304.158 18.7187H305.204L302.979 25.8873H301.775L300.21 20.9893C300.19 20.9265 300.168 20.8587 300.145 20.786C300.126 20.7133 300.106 20.6356 300.086 20.553C300.066 20.6356 300.045 20.7133 300.022 20.786C300.002 20.8587 299.982 20.9265 299.962 20.9893L298.382 25.8873H297.178L294.953 18.7187Z" fill="black"></path><path d="M307.893 23.0268C307.645 23.0268 307.402 22.9838 307.165 22.8979C306.927 22.812 306.714 22.6831 306.525 22.5112C306.34 22.3361 306.192 22.1212 306.08 21.8667C305.967 21.609 305.911 21.3082 305.911 20.9645C305.911 20.6439 305.971 20.3431 306.089 20.0622C306.208 19.7813 306.375 19.5351 306.59 19.3235C306.805 19.112 307.062 18.9451 307.363 18.8228C307.663 18.7005 307.995 18.6394 308.359 18.6394C308.725 18.6394 309.054 18.6972 309.345 18.8129C309.638 18.9286 309.888 19.0905 310.093 19.2988C310.301 19.507 310.459 19.7565 310.568 20.0473C310.681 20.3382 310.737 20.6571 310.737 21.0041C310.737 21.2256 310.717 21.4354 310.677 21.6337C310.641 21.832 310.586 22.0237 310.514 22.2088C310.444 22.3906 310.36 22.5691 310.261 22.7442C310.162 22.9161 310.051 23.0896 309.929 23.2648L308.289 25.6047C308.233 25.684 308.149 25.7518 308.037 25.808C307.928 25.8609 307.802 25.8873 307.66 25.8873H306.535L308.76 23.1061C308.816 23.0367 308.869 22.969 308.918 22.9029C308.968 22.8368 309.016 22.7707 309.062 22.7046C308.897 22.8103 308.715 22.8913 308.517 22.9475C308.319 23.0004 308.111 23.0268 307.893 23.0268ZM309.563 20.8802C309.563 20.6852 309.533 20.5117 309.473 20.3597C309.414 20.2043 309.33 20.0738 309.221 19.968C309.112 19.8623 308.981 19.7813 308.829 19.7251C308.681 19.6689 308.517 19.6408 308.339 19.6408C308.154 19.6408 307.987 19.6722 307.838 19.735C307.69 19.7945 307.563 19.8788 307.457 19.9878C307.354 20.0969 307.275 20.2275 307.219 20.3795C307.163 20.5282 307.135 20.6918 307.135 20.8703C307.135 21.2702 307.237 21.5759 307.442 21.7874C307.65 21.9956 307.944 22.0997 308.324 22.0997C308.522 22.0997 308.697 22.0684 308.849 22.0056C309.004 21.9428 309.135 21.8568 309.24 21.7478C309.346 21.6387 309.425 21.5098 309.478 21.3611C309.534 21.2124 309.563 21.0521 309.563 20.8802Z" fill="black"></path></g><path d="M69 49.5C69 47.0147 70.0029 45 71.24 45H122.76C123.997 45 125 47.0147 125 49.5V49.5C125 51.9853 123.997 54 122.76 54H71.24C70.0029 54 69 51.9853 69 49.5V49.5Z" fill="#F2C94C"></path><path d="M125 72.5C125 70.0147 125.991 68 127.213 68H205.787C207.009 68 208 70.0147 208 72.5V72.5C208 74.9853 207.009 77 205.787 77H127.213C125.991 77 125 74.9853 125 72.5V72.5Z" fill="#4ADC8F"></path><path d="M208 94.5C208 92.0147 208.991 90 210.213 90H288.787C290.009 90 291 92.0147 291 94.5V94.5C291 96.9853 290.009 99 288.787 99H210.213C208.991 99 208 96.9853 208 94.5V94.5Z" fill="#43A6F6"></path><path d="M291 117.5C291 115.015 292.003 113 293.24 113H316.76C317.997 113 319 115.015 319 117.5V117.5C319 119.985 317.997 122 316.76 122H293.24C292.003 122 291 119.985 291 117.5V117.5Z" fill="#FF5956"></path></svg> 