<?xml version="1.0" encoding="UTF-8"?> <svg xmlns="http://www.w3.org/2000/svg" width="1026" height="256" viewBox="0 0 1026 256" fill="none"><path fill-rule="evenodd" clip-rule="evenodd" d="M324.438 256L324.438 0L326.436 -8.74228e-08L326.436 256L324.438 256Z" fill="black" fill-opacity="0.1"></path><path fill-rule="evenodd" clip-rule="evenodd" d="M124.561 256L124.561 0L126.559 -8.74228e-08L126.559 256L124.561 256Z" fill="black" fill-opacity="0.1"></path><path fill-rule="evenodd" clip-rule="evenodd" d="M624.25 256L624.25 0L626.249 -8.74228e-08L626.249 256L624.25 256Z" fill="black" fill-opacity="0.1"></path><path fill-rule="evenodd" clip-rule="evenodd" d="M924.063 256L924.062 0L926.061 -8.74228e-08L926.061 256L924.063 256Z" fill="black" fill-opacity="0.1"></path><path fill-rule="evenodd" clip-rule="evenodd" d="M1024 256L1024 0L1026 -8.74228e-08L1026 256L1024 256Z" fill="black" fill-opacity="0.1"></path><path d="M0 33.986H2.03273C2.2426 33.986 2.41649 34.037 2.55441 34.139C2.69832 34.235 2.79426 34.367 2.84223 34.535L5.05485 42.32C5.10882 42.512 5.15679 42.722 5.19876 42.95C5.24673 43.172 5.2917 43.409 5.33368 43.661C5.38165 43.409 5.43262 43.172 5.48658 42.95C5.54655 42.722 5.60951 42.512 5.67547 42.32L8.22987 34.535C8.27784 34.397 8.37079 34.271 8.5087 34.157C8.65261 34.043 8.8265 33.986 9.03038 33.986H9.74093C9.9508 33.986 10.1247 34.037 10.2626 34.139C10.4005 34.235 10.4965 34.367 10.5504 34.535L13.0869 42.32C13.2188 42.704 13.3327 43.13 13.4286 43.598C13.4706 43.364 13.5126 43.139 13.5546 42.923C13.6025 42.707 13.6505 42.506 13.6985 42.32L15.9111 34.535C15.9531 34.385 16.046 34.256 16.1899 34.148C16.3338 34.04 16.5077 33.986 16.7116 33.986H18.6094L14.5709 47H12.3853L9.54306 38.108C9.50708 37.994 9.4681 37.871 9.42613 37.739C9.39015 37.607 9.35417 37.466 9.3182 37.316C9.28222 37.466 9.24324 37.607 9.20127 37.739C9.16529 37.871 9.12931 37.994 9.09334 38.108L6.22412 47H4.03849L0 33.986Z" fill="black"></path><path d="M23.3561 37.622C23.9377 37.622 24.4714 37.715 24.9571 37.901C25.4488 38.087 25.8715 38.36 26.2253 38.72C26.5791 39.074 26.8549 39.512 27.0528 40.034C27.2506 40.55 27.3496 41.141 27.3496 41.807C27.3496 41.975 27.3406 42.116 27.3226 42.23C27.3106 42.338 27.2836 42.425 27.2416 42.491C27.2057 42.551 27.1547 42.596 27.0887 42.626C27.0228 42.65 26.9388 42.662 26.8369 42.662H21.1344C21.2004 43.61 21.4552 44.306 21.899 44.75C22.3427 45.194 22.9303 45.416 23.6619 45.416C24.0216 45.416 24.3305 45.374 24.5883 45.29C24.8521 45.206 25.08 45.113 25.2719 45.011C25.4697 44.909 25.6406 44.816 25.7845 44.732C25.9345 44.648 26.0784 44.606 26.2163 44.606C26.3062 44.606 26.3842 44.624 26.4501 44.66C26.5161 44.696 26.5731 44.747 26.621 44.813L27.2686 45.623C27.0228 45.911 26.747 46.154 26.4411 46.352C26.1353 46.544 25.8145 46.7 25.4787 46.82C25.1489 46.934 24.8102 47.015 24.4624 47.063C24.1206 47.111 23.7878 47.135 23.464 47.135C22.8224 47.135 22.2258 47.03 21.6741 46.82C21.1225 46.604 20.6428 46.289 20.235 45.875C19.8273 45.455 19.5065 44.939 19.2726 44.327C19.0388 43.709 18.9218 42.995 18.9218 42.185C18.9218 41.555 19.0238 40.964 19.2276 40.412C19.4315 39.854 19.7223 39.371 20.1001 38.963C20.4839 38.549 20.9486 38.222 21.4942 37.982C22.0459 37.742 22.6665 37.622 23.3561 37.622ZM23.401 39.215C22.7534 39.215 22.2468 39.398 21.881 39.764C21.5152 40.13 21.2814 40.649 21.1794 41.321H25.3528C25.3528 41.033 25.3138 40.763 25.2359 40.511C25.1579 40.253 25.038 40.028 24.8761 39.836C24.7142 39.644 24.5103 39.494 24.2645 39.386C24.0187 39.272 23.7308 39.215 23.401 39.215Z" fill="black"></path><path d="M32.9653 37.622C33.5469 37.622 34.0806 37.715 34.5663 37.901C35.058 38.087 35.4807 38.36 35.8345 38.72C36.1883 39.074 36.4641 39.512 36.662 40.034C36.8599 40.55 36.9588 41.141 36.9588 41.807C36.9588 41.975 36.9498 42.116 36.9318 42.23C36.9198 42.338 36.8929 42.425 36.8509 42.491C36.8149 42.551 36.7639 42.596 36.698 42.626C36.632 42.65 36.5481 42.662 36.4461 42.662H30.7437C30.8097 43.61 31.0645 44.306 31.5082 44.75C31.9519 45.194 32.5396 45.416 33.2711 45.416C33.6309 45.416 33.9397 45.374 34.1975 45.29C34.4614 45.206 34.6892 45.113 34.8811 45.011C35.079 44.909 35.2499 44.816 35.3938 44.732C35.5437 44.648 35.6876 44.606 35.8255 44.606C35.9155 44.606 35.9934 44.624 36.0594 44.66C36.1253 44.696 36.1823 44.747 36.2303 44.813L36.8779 45.623C36.632 45.911 36.3562 46.154 36.0504 46.352C35.7446 46.544 35.4238 46.7 35.088 46.82C34.7582 46.934 34.4194 47.015 34.0716 47.063C33.7298 47.111 33.397 47.135 33.0732 47.135C32.4316 47.135 31.835 47.03 31.2834 46.82C30.7317 46.604 30.252 46.289 29.8443 45.875C29.4365 45.455 29.1157 44.939 28.8819 44.327C28.648 43.709 28.5311 42.995 28.5311 42.185C28.5311 41.555 28.633 40.964 28.8369 40.412C29.0408 39.854 29.3316 39.371 29.7093 38.963C30.0931 38.549 30.5578 38.222 31.1035 37.982C31.6551 37.742 32.2757 37.622 32.9653 37.622ZM33.0103 39.215C32.3627 39.215 31.856 39.398 31.4902 39.764C31.1245 40.13 30.8906 40.649 30.7887 41.321H34.9621C34.9621 41.033 34.9231 40.763 34.8451 40.511C34.7672 40.253 34.6473 40.028 34.4854 39.836C34.3235 39.644 34.1196 39.494 33.8737 39.386C33.6279 39.272 33.3401 39.215 33.0103 39.215Z" fill="black"></path><path d="M41.0095 33.626V41.285H41.4233C41.5732 41.285 41.6901 41.264 41.7741 41.222C41.858 41.18 41.9479 41.102 42.0439 40.988L44.3375 38.153C44.4394 38.033 44.5473 37.94 44.6613 37.874C44.7752 37.802 44.9251 37.766 45.111 37.766H47.1437L44.2745 41.195C44.1726 41.321 44.0676 41.438 43.9597 41.546C43.8518 41.648 43.7348 41.738 43.6089 41.816C43.7348 41.906 43.8458 42.011 43.9417 42.131C44.0376 42.251 44.1336 42.38 44.2295 42.518L47.3056 47H45.2999C45.126 47 44.9791 46.97 44.8591 46.91C44.7392 46.85 44.6313 46.748 44.5353 46.604L42.1878 43.103C42.0979 42.965 42.0079 42.875 41.918 42.833C41.828 42.791 41.6931 42.77 41.5132 42.77H41.0095V47H38.7879V33.626H41.0095Z" fill="black"></path><path d="M54.164 39.566C54.104 39.662 54.0411 39.731 53.9751 39.773C53.9091 39.809 53.8252 39.827 53.7233 39.827C53.6153 39.827 53.4984 39.797 53.3725 39.737C53.2525 39.677 53.1116 39.611 52.9497 39.539C52.7878 39.461 52.602 39.392 52.3921 39.332C52.1882 39.272 51.9454 39.242 51.6635 39.242C51.2258 39.242 50.881 39.335 50.6292 39.521C50.3773 39.707 50.2514 39.95 50.2514 40.25C50.2514 40.448 50.3144 40.616 50.4403 40.754C50.5722 40.886 50.7431 41.003 50.953 41.105C51.1688 41.207 51.4117 41.3 51.6815 41.384C51.9514 41.462 52.2272 41.549 52.509 41.645C52.7908 41.741 53.0667 41.852 53.3365 41.978C53.6063 42.098 53.8462 42.254 54.056 42.446C54.2719 42.632 54.4428 42.857 54.5687 43.121C54.7006 43.385 54.7666 43.703 54.7666 44.075C54.7666 44.519 54.6857 44.93 54.5238 45.308C54.3619 45.68 54.125 46.004 53.8132 46.28C53.5014 46.55 53.1146 46.763 52.6529 46.919C52.1972 47.069 51.6725 47.144 51.0789 47.144C50.7611 47.144 50.4493 47.114 50.1435 47.054C49.8437 47 49.5529 46.922 49.271 46.82C48.9952 46.718 48.7374 46.598 48.4975 46.46C48.2637 46.322 48.0568 46.172 47.8769 46.01L48.3896 45.164C48.4555 45.062 48.5335 44.984 48.6234 44.93C48.7134 44.876 48.8273 44.849 48.9652 44.849C49.1031 44.849 49.2321 44.888 49.352 44.966C49.4779 45.044 49.6218 45.128 49.7837 45.218C49.9456 45.308 50.1345 45.392 50.3504 45.47C50.5722 45.548 50.851 45.587 51.1868 45.587C51.4507 45.587 51.6755 45.557 51.8614 45.497C52.0533 45.431 52.2092 45.347 52.3291 45.245C52.455 45.143 52.545 45.026 52.599 44.894C52.6589 44.756 52.6889 44.615 52.6889 44.471C52.6889 44.255 52.6229 44.078 52.491 43.94C52.3651 43.802 52.1942 43.682 51.9783 43.58C51.7685 43.478 51.5256 43.388 51.2498 43.31C50.98 43.226 50.7011 43.136 50.4133 43.04C50.1315 42.944 49.8527 42.833 49.5768 42.707C49.307 42.575 49.0642 42.41 48.8483 42.212C48.6384 42.014 48.4675 41.771 48.3356 41.483C48.2097 41.195 48.1467 40.847 48.1467 40.439C48.1467 40.061 48.2217 39.701 48.3716 39.359C48.5215 39.017 48.7404 38.72 49.0282 38.468C49.322 38.21 49.6848 38.006 50.1165 37.856C50.5542 37.7 51.0579 37.622 51.6276 37.622C52.2632 37.622 52.8418 37.727 53.3635 37.937C53.8852 38.147 54.3199 38.423 54.6677 38.765L54.164 39.566Z" fill="black"></path><path d="M12.5019 89.4931C12.5019 90.4471 12.343 91.3231 12.0252 92.1211C11.7074 92.9191 11.2607 93.6061 10.6851 94.1821C10.1094 94.7581 9.41685 95.2051 8.60736 95.5231C7.79786 95.8411 6.90142 96.0001 5.91803 96.0001H0.953125V82.9861H5.91803C6.90142 82.9861 7.79786 83.1481 8.60736 83.4721C9.41685 83.7901 10.1094 84.2371 10.6851 84.8131C11.2607 85.3831 11.7074 86.0671 12.0252 86.8651C12.343 87.6631 12.5019 88.5391 12.5019 89.4931ZM10.0285 89.4931C10.0285 88.7791 9.93253 88.1401 9.74065 87.5761C9.54877 87.0061 9.27594 86.5261 8.92216 86.1361C8.56838 85.7401 8.13665 85.4371 7.62697 85.2271C7.12328 85.0171 6.55364 84.9121 5.91803 84.9121H3.39061V94.0741H5.91803C6.55364 94.0741 7.12328 93.9691 7.62697 93.7591C8.13665 93.5491 8.56838 93.2491 8.92216 92.8591C9.27594 92.4631 9.54877 91.9831 9.74065 91.4191C9.93253 90.8491 10.0285 90.2071 10.0285 89.4931Z" fill="black"></path><path d="M16.6316 86.7661V96.0001H14.41V86.7661H16.6316ZM16.9644 84.0751C16.9644 84.2671 16.9254 84.4471 16.8475 84.6151C16.7695 84.7831 16.6646 84.9301 16.5327 85.0561C16.4068 85.1821 16.2569 85.2841 16.083 85.3621C15.9091 85.4341 15.7232 85.4701 15.5253 85.4701C15.3334 85.4701 15.1505 85.4341 14.9767 85.3621C14.8088 85.2841 14.6619 85.1821 14.5359 85.0561C14.41 84.9301 14.3081 84.7831 14.2301 84.6151C14.1582 84.4471 14.1222 84.2671 14.1222 84.0751C14.1222 83.8771 14.1582 83.6911 14.2301 83.5171C14.3081 83.3431 14.41 83.1931 14.5359 83.0671C14.6619 82.9411 14.8088 82.8421 14.9767 82.7701C15.1505 82.6921 15.3334 82.6531 15.5253 82.6531C15.7232 82.6531 15.9091 82.6921 16.083 82.7701C16.2569 82.8421 16.4068 82.9411 16.5327 83.0671C16.6646 83.1931 16.7695 83.3431 16.8475 83.5171C16.9254 83.6911 16.9644 83.8771 16.9644 84.0751Z" fill="black"></path><path d="M24.6274 88.5661C24.5674 88.6621 24.5044 88.7311 24.4385 88.7731C24.3725 88.8091 24.2886 88.8271 24.1866 88.8271C24.0787 88.8271 23.9618 88.7971 23.8359 88.7371C23.7159 88.6771 23.575 88.6111 23.4131 88.5391C23.2512 88.4611 23.0653 88.3921 22.8555 88.3321C22.6516 88.2721 22.4087 88.2421 22.1269 88.2421C21.6892 88.2421 21.3444 88.3351 21.0926 88.5211C20.8407 88.7071 20.7148 88.9501 20.7148 89.2501C20.7148 89.4481 20.7778 89.6161 20.9037 89.7541C21.0356 89.8861 21.2065 90.0031 21.4164 90.1051C21.6322 90.2071 21.8751 90.3001 22.1449 90.3841C22.4147 90.4621 22.6906 90.5491 22.9724 90.6451C23.2542 90.7411 23.53 90.8521 23.7999 90.9781C24.0697 91.0981 24.3096 91.2541 24.5194 91.4461C24.7353 91.6321 24.9062 91.8571 25.0321 92.1211C25.164 92.3851 25.23 92.7031 25.23 93.0751C25.23 93.5191 25.149 93.9301 24.9871 94.3081C24.8252 94.6801 24.5884 95.0041 24.2766 95.2801C23.9648 95.5501 23.578 95.7631 23.1163 95.9191C22.6606 96.0691 22.1359 96.1441 21.5423 96.1441C21.2245 96.1441 20.9127 96.1141 20.6069 96.0541C20.3071 96.0001 20.0162 95.9221 19.7344 95.8201C19.4586 95.7181 19.2007 95.5981 18.9609 95.4601C18.727 95.3221 18.5202 95.1721 18.3403 95.0101L18.853 94.1641C18.9189 94.0621 18.9969 93.9841 19.0868 93.9301C19.1768 93.8761 19.2907 93.8491 19.4286 93.8491C19.5665 93.8491 19.6954 93.8881 19.8154 93.9661C19.9413 94.0441 20.0852 94.1281 20.2471 94.2181C20.409 94.3081 20.5979 94.3921 20.8137 94.4701C21.0356 94.5481 21.3144 94.5871 21.6502 94.5871C21.9141 94.5871 22.1389 94.5571 22.3248 94.4971C22.5167 94.4311 22.6726 94.3471 22.7925 94.2451C22.9184 94.1431 23.0084 94.0261 23.0623 93.8941C23.1223 93.7561 23.1523 93.6151 23.1523 93.4711C23.1523 93.2551 23.0863 93.0781 22.9544 92.9401C22.8285 92.8021 22.6576 92.6821 22.4417 92.5801C22.2319 92.4781 21.989 92.3881 21.7132 92.3101C21.4433 92.2261 21.1645 92.1361 20.8767 92.0401C20.5949 91.9441 20.316 91.8331 20.0402 91.7071C19.7704 91.5751 19.5275 91.4101 19.3117 91.2121C19.1018 91.0141 18.9309 90.7711 18.799 90.4831C18.6731 90.1951 18.6101 89.8471 18.6101 89.4391C18.6101 89.0611 18.6851 88.7011 18.835 88.3591C18.9849 88.0171 19.2037 87.7201 19.4916 87.4681C19.7854 87.2101 20.1482 87.0061 20.5799 86.8561C21.0176 86.7001 21.5213 86.6221 22.0909 86.6221C22.7265 86.6221 23.3052 86.7271 23.8269 86.9371C24.3485 87.1471 24.7833 87.4231 25.1311 87.7651L24.6274 88.5661Z" fill="black"></path><path d="M33.4873 88.7191C33.4213 88.8031 33.3554 88.8691 33.2894 88.9171C33.2294 88.9651 33.1395 88.9891 33.0196 88.9891C32.9056 88.9891 32.7947 88.9561 32.6868 88.8901C32.5788 88.8181 32.4499 88.7401 32.3 88.6561C32.1501 88.5661 31.9702 88.4881 31.7603 88.4221C31.5565 88.3501 31.3016 88.3141 30.9958 88.3141C30.6061 88.3141 30.2643 88.3861 29.9705 88.5301C29.6766 88.6681 29.4308 88.8691 29.2329 89.1331C29.041 89.3971 28.8971 89.7181 28.8012 90.0961C28.7052 90.4681 28.6573 90.8911 28.6573 91.3651C28.6573 91.8571 28.7082 92.2951 28.8102 92.6791C28.9181 93.0631 29.071 93.3871 29.2689 93.6511C29.4668 93.9091 29.7066 94.1071 29.9884 94.2451C30.2703 94.3771 30.5881 94.4431 30.9419 94.4431C31.2956 94.4431 31.5805 94.4011 31.7963 94.3171C32.0182 94.2271 32.2041 94.1311 32.354 94.0291C32.5039 93.9211 32.6328 93.8251 32.7407 93.7411C32.8547 93.6511 32.9806 93.6061 33.1185 93.6061C33.2984 93.6061 33.4333 93.6751 33.5232 93.8131L34.1618 94.6231C33.916 94.9111 33.6492 95.1541 33.3613 95.3521C33.0735 95.5441 32.7737 95.7001 32.4619 95.8201C32.1561 95.9341 31.8383 96.0151 31.5085 96.0631C31.1787 96.1111 30.8519 96.1351 30.5281 96.1351C29.9585 96.1351 29.4218 96.0301 28.9181 95.8201C28.4144 95.6041 27.9737 95.2921 27.5959 94.8841C27.2242 94.4761 26.9274 93.9781 26.7055 93.3901C26.4896 92.7961 26.3817 92.1211 26.3817 91.3651C26.3817 90.6871 26.4776 90.0601 26.6695 89.4841C26.8674 88.9021 27.1552 88.4011 27.533 87.9811C27.9107 87.5551 28.3784 87.2221 28.9361 86.9821C29.4938 86.7421 30.1354 86.6221 30.8609 86.6221C31.5505 86.6221 32.1531 86.7331 32.6688 86.9551C33.1905 87.1771 33.6582 87.4951 34.0719 87.9091L33.4873 88.7191Z" fill="black"></path><path d="M39.5146 86.6221C40.2042 86.6221 40.8278 86.7331 41.3855 86.9551C41.9491 87.1771 42.4288 87.4921 42.8246 87.9001C43.2203 88.3081 43.5261 88.8061 43.742 89.3941C43.9579 89.9821 44.0658 90.6391 44.0658 91.3651C44.0658 92.0971 43.9579 92.7571 43.742 93.3451C43.5261 93.9331 43.2203 94.4341 42.8246 94.8481C42.4288 95.2621 41.9491 95.5801 41.3855 95.8021C40.8278 96.0241 40.2042 96.1351 39.5146 96.1351C38.8251 96.1351 38.1985 96.0241 37.6348 95.8021C37.0712 95.5801 36.5885 95.2621 36.1867 94.8481C35.791 94.4341 35.4822 93.9331 35.2603 93.3451C35.0444 92.7571 34.9365 92.0971 34.9365 91.3651C34.9365 90.6391 35.0444 89.9821 35.2603 89.3941C35.4822 88.8061 35.791 88.3081 36.1867 87.9001C36.5885 87.4921 37.0712 87.1771 37.6348 86.9551C38.1985 86.7331 38.8251 86.6221 39.5146 86.6221ZM39.5146 94.4251C40.2822 94.4251 40.8488 94.1671 41.2146 93.6511C41.5864 93.1351 41.7722 92.3791 41.7722 91.3831C41.7722 90.3871 41.5864 89.6281 41.2146 89.1061C40.8488 88.5841 40.2822 88.3231 39.5146 88.3231C38.7351 88.3231 38.1595 88.5871 37.7877 89.1151C37.4159 89.6371 37.2301 90.3931 37.2301 91.3831C37.2301 92.3731 37.4159 93.1291 37.7877 93.6511C38.1595 94.1671 38.7351 94.4251 39.5146 94.4251Z" fill="black"></path><path d="M50.1237 96.0001H48.1089L44.4392 86.7661H46.2831C46.445 86.7661 46.5799 86.8051 46.6878 86.8831C46.8017 86.9611 46.8797 87.0601 46.9217 87.1801L48.7026 92.1121C48.8045 92.4001 48.8884 92.6821 48.9544 92.9581C49.0264 93.2341 49.0893 93.5101 49.1433 93.7861C49.1972 93.5101 49.2572 93.2341 49.3232 92.9581C49.3951 92.6821 49.4851 92.4001 49.593 92.1121L51.4189 87.1801C51.4608 87.0601 51.5358 86.9611 51.6437 86.8831C51.7517 86.8051 51.8806 86.7661 52.0305 86.7661H53.7844L50.1237 96.0001Z" fill="black"></path><path d="M58.6072 86.6221C59.1889 86.6221 59.7225 86.7151 60.2082 86.9011C60.6999 87.0871 61.1226 87.3601 61.4764 87.7201C61.8302 88.0741 62.106 88.5121 62.3039 89.0341C62.5018 89.5501 62.6007 90.1411 62.6007 90.8071C62.6007 90.9751 62.5917 91.1161 62.5737 91.2301C62.5618 91.3381 62.5348 91.4251 62.4928 91.4911C62.4568 91.5511 62.4059 91.5961 62.3399 91.6261C62.2739 91.6501 62.19 91.6621 62.088 91.6621H56.3856C56.4516 92.6101 56.7064 93.3061 57.1501 93.7501C57.5938 94.1941 58.1815 94.4161 58.913 94.4161C59.2728 94.4161 59.5816 94.3741 59.8394 94.2901C60.1033 94.2061 60.3311 94.1131 60.523 94.0111C60.7209 93.9091 60.8918 93.8161 61.0357 93.7321C61.1856 93.6481 61.3295 93.6061 61.4674 93.6061C61.5574 93.6061 61.6353 93.6241 61.7013 93.6601C61.7672 93.6961 61.8242 93.7471 61.8722 93.8131L62.5198 94.6231C62.2739 94.9111 61.9981 95.1541 61.6923 95.3521C61.3865 95.5441 61.0657 95.7001 60.7299 95.8201C60.4001 95.9341 60.0613 96.0151 59.7135 96.0631C59.3717 96.1111 59.0389 96.1351 58.7151 96.1351C58.0735 96.1351 57.4769 96.0301 56.9253 95.8201C56.3736 95.6041 55.8939 95.2891 55.4862 94.8751C55.0784 94.4551 54.7576 93.9391 54.5238 93.3271C54.2899 92.7091 54.173 91.9951 54.173 91.1851C54.173 90.5551 54.2749 89.9641 54.4788 89.4121C54.6827 88.8541 54.9735 88.3711 55.3512 87.9631C55.735 87.5491 56.1997 87.2221 56.7454 86.9821C57.297 86.7421 57.9176 86.6221 58.6072 86.6221ZM58.6522 88.2151C58.0046 88.2151 57.4979 88.3981 57.1321 88.7641C56.7664 89.1301 56.5325 89.6491 56.4306 90.3211H60.604C60.604 90.0331 60.565 89.7631 60.487 89.5111C60.4091 89.2531 60.2892 89.0281 60.1273 88.8361C59.9654 88.6441 59.7615 88.4941 59.5156 88.3861C59.2698 88.2721 58.982 88.2151 58.6522 88.2151Z" fill="black"></path><path d="M64.4028 96.0001V86.7661H65.707C65.9349 86.7661 66.0938 86.8081 66.1837 86.8921C66.2737 86.9761 66.3336 87.1201 66.3636 87.3241L66.4985 88.4401C66.8283 87.8701 67.2151 87.4201 67.6588 87.0901C68.1025 86.7601 68.6002 86.5951 69.1519 86.5951C69.6076 86.5951 69.9854 86.7001 70.2852 86.9101L69.9974 88.5751C69.9794 88.6831 69.9404 88.7611 69.8804 88.8091C69.8205 88.8511 69.7395 88.8721 69.6376 88.8721C69.5476 88.8721 69.4247 88.8511 69.2688 88.8091C69.1129 88.7671 68.906 88.7461 68.6482 88.7461C68.1865 88.7461 67.7907 88.8751 67.4609 89.1331C67.1311 89.3851 66.8523 89.7571 66.6245 90.2491V96.0001H64.4028Z" fill="black"></path><path d="M75.0199 98.5381C74.9539 98.6941 74.867 98.8111 74.759 98.8891C74.6571 98.9731 74.4982 99.0151 74.2823 99.0151H72.6274L74.3543 95.3161L70.6216 86.7661H72.5644C72.7443 86.7661 72.8822 86.8081 72.9782 86.8921C73.0741 86.9761 73.146 87.0721 73.194 87.1801L75.1638 91.9681C75.2298 92.1241 75.2867 92.2861 75.3347 92.4541C75.3827 92.6221 75.4246 92.7901 75.4606 92.9581C75.5086 92.7841 75.5595 92.6161 75.6135 92.4541C75.6735 92.2921 75.7364 92.1271 75.8024 91.9591L77.6552 87.1801C77.7032 87.0601 77.7812 86.9611 77.8891 86.8831C78.003 86.8051 78.1289 86.7661 78.2669 86.7661H80.0478L75.0199 98.5381Z" fill="black"></path><path d="M12.5019 130.493C12.5019 131.447 12.343 132.323 12.0252 133.121C11.7074 133.919 11.2607 134.606 10.6851 135.182C10.1094 135.758 9.41685 136.205 8.60736 136.523C7.79786 136.841 6.90142 137 5.91803 137H0.953125V123.986H5.91803C6.90142 123.986 7.79786 124.148 8.60736 124.472C9.41685 124.79 10.1094 125.237 10.6851 125.813C11.2607 126.383 11.7074 127.067 12.0252 127.865C12.343 128.663 12.5019 129.539 12.5019 130.493ZM10.0285 130.493C10.0285 129.779 9.93253 129.14 9.74065 128.576C9.54877 128.006 9.27594 127.526 8.92216 127.136C8.56838 126.74 8.13665 126.437 7.62697 126.227C7.12328 126.017 6.55364 125.912 5.91803 125.912H3.39061V135.074H5.91803C6.55364 135.074 7.12328 134.969 7.62697 134.759C8.13665 134.549 8.56838 134.249 8.92216 133.859C9.27594 133.463 9.54877 132.983 9.74065 132.419C9.93253 131.849 10.0285 131.207 10.0285 130.493Z" fill="black"></path><path d="M18.0797 127.622C18.6614 127.622 19.195 127.715 19.6807 127.901C20.1724 128.087 20.5952 128.36 20.9489 128.72C21.3027 129.074 21.5785 129.512 21.7764 130.034C21.9743 130.55 22.0732 131.141 22.0732 131.807C22.0732 131.975 22.0642 132.116 22.0463 132.23C22.0343 132.338 22.0073 132.425 21.9653 132.491C21.9293 132.551 21.8784 132.596 21.8124 132.626C21.7464 132.65 21.6625 132.662 21.5606 132.662H15.8581C15.9241 133.61 16.1789 134.306 16.6226 134.75C17.0664 135.194 17.654 135.416 18.3855 135.416C18.7453 135.416 19.0541 135.374 19.312 135.29C19.5758 135.206 19.8037 135.113 19.9955 135.011C20.1934 134.909 20.3643 134.816 20.5082 134.732C20.6581 134.648 20.802 134.606 20.9399 134.606C21.0299 134.606 21.1078 134.624 21.1738 134.66C21.2398 134.696 21.2967 134.747 21.3447 134.813L21.9923 135.623C21.7464 135.911 21.4706 136.154 21.1648 136.352C20.859 136.544 20.5382 136.7 20.2024 136.82C19.8726 136.934 19.5338 137.015 19.186 137.063C18.8442 137.111 18.5115 137.135 18.1877 137.135C17.5461 137.135 16.9494 137.03 16.3978 136.82C15.8461 136.604 15.3664 136.289 14.9587 135.875C14.5509 135.455 14.2301 134.939 13.9963 134.327C13.7624 133.709 13.6455 132.995 13.6455 132.185C13.6455 131.555 13.7474 130.964 13.9513 130.412C14.1552 129.854 14.446 129.371 14.8238 128.963C15.2075 128.549 15.6722 128.222 16.2179 127.982C16.7695 127.742 17.3902 127.622 18.0797 127.622ZM18.1247 129.215C17.4771 129.215 16.9704 129.398 16.6046 129.764C16.2389 130.13 16.005 130.649 15.9031 131.321H20.0765C20.0765 131.033 20.0375 130.763 19.9596 130.511C19.8816 130.253 19.7617 130.028 19.5998 129.836C19.4379 129.644 19.234 129.494 18.9882 129.386C18.7423 129.272 18.4545 129.215 18.1247 129.215Z" fill="black"></path><path d="M29.3529 129.566C29.293 129.662 29.23 129.731 29.1641 129.773C29.0981 129.809 29.0141 129.827 28.9122 129.827C28.8043 129.827 28.6874 129.797 28.5614 129.737C28.4415 129.677 28.3006 129.611 28.1387 129.539C27.9768 129.461 27.7909 129.392 27.581 129.332C27.3772 129.272 27.1343 129.242 26.8525 129.242C26.4148 129.242 26.07 129.335 25.8181 129.521C25.5663 129.707 25.4404 129.95 25.4404 130.25C25.4404 130.448 25.5033 130.616 25.6293 130.754C25.7612 130.886 25.9321 131.003 26.1419 131.105C26.3578 131.207 26.6006 131.3 26.8705 131.384C27.1403 131.462 27.4161 131.549 27.698 131.645C27.9798 131.741 28.2556 131.852 28.5255 131.978C28.7953 132.098 29.0351 132.254 29.245 132.446C29.4609 132.632 29.6318 132.857 29.7577 133.121C29.8896 133.385 29.9556 133.703 29.9556 134.075C29.9556 134.519 29.8746 134.93 29.7127 135.308C29.5508 135.68 29.314 136.004 29.0022 136.28C28.6904 136.55 28.3036 136.763 27.8419 136.919C27.3862 137.069 26.8615 137.144 26.2679 137.144C25.9501 137.144 25.6383 137.114 25.3324 137.054C25.0326 137 24.7418 136.922 24.46 136.82C24.1842 136.718 23.9263 136.598 23.6865 136.46C23.4526 136.322 23.2457 136.172 23.0659 136.01L23.5785 135.164C23.6445 135.062 23.7224 134.984 23.8124 134.93C23.9023 134.876 24.0163 134.849 24.1542 134.849C24.2921 134.849 24.421 134.888 24.5409 134.966C24.6669 135.044 24.8108 135.128 24.9727 135.218C25.1346 135.308 25.3234 135.392 25.5393 135.47C25.7612 135.548 26.04 135.587 26.3758 135.587C26.6396 135.587 26.8645 135.557 27.0504 135.497C27.2422 135.431 27.3982 135.347 27.5181 135.245C27.644 135.143 27.7339 135.026 27.7879 134.894C27.8479 134.756 27.8779 134.615 27.8779 134.471C27.8779 134.255 27.8119 134.078 27.68 133.94C27.5541 133.802 27.3832 133.682 27.1673 133.58C26.9574 133.478 26.7146 133.388 26.4388 133.31C26.1689 133.226 25.8901 133.136 25.6023 133.04C25.3204 132.944 25.0416 132.833 24.7658 132.707C24.496 132.575 24.2531 132.41 24.0372 132.212C23.8274 132.014 23.6565 131.771 23.5246 131.483C23.3986 131.195 23.3357 130.847 23.3357 130.439C23.3357 130.061 23.4106 129.701 23.5605 129.359C23.7104 129.017 23.9293 128.72 24.2171 128.468C24.511 128.21 24.8737 128.006 25.3055 127.856C25.7432 127.7 26.2469 127.622 26.8165 127.622C27.4521 127.622 28.0308 127.727 28.5524 127.937C29.0741 128.147 29.5088 128.423 29.8566 128.765L29.3529 129.566Z" fill="black"></path><path d="M34.0934 127.766V137H31.8718V127.766H34.0934ZM34.4262 125.075C34.4262 125.267 34.3872 125.447 34.3093 125.615C34.2313 125.783 34.1264 125.93 33.9945 126.056C33.8685 126.182 33.7186 126.284 33.5447 126.362C33.3709 126.434 33.185 126.47 32.9871 126.47C32.7952 126.47 32.6123 126.434 32.4384 126.362C32.2705 126.284 32.1236 126.182 31.9977 126.056C31.8718 125.93 31.7699 125.783 31.6919 125.615C31.6199 125.447 31.584 125.267 31.584 125.075C31.584 124.877 31.6199 124.691 31.6919 124.517C31.7699 124.343 31.8718 124.193 31.9977 124.067C32.1236 123.941 32.2705 123.842 32.4384 123.77C32.6123 123.692 32.7952 123.653 32.9871 123.653C33.185 123.653 33.3709 123.692 33.5447 123.77C33.7186 123.842 33.8685 123.941 33.9945 124.067C34.1264 124.193 34.2313 124.343 34.3093 124.517C34.3872 124.691 34.4262 124.877 34.4262 125.075Z" fill="black"></path><path d="M39.8046 127.604C40.2003 127.604 40.5721 127.646 40.9199 127.73C41.2677 127.808 41.5855 127.925 41.8733 128.081H44.5266V128.909C44.5266 129.047 44.4907 129.155 44.4187 129.233C44.3467 129.311 44.2238 129.365 44.0499 129.395L43.2224 129.548C43.2824 129.704 43.3274 129.869 43.3574 130.043C43.3933 130.217 43.4113 130.4 43.4113 130.592C43.4113 131.048 43.3184 131.462 43.1325 131.834C42.9526 132.2 42.7008 132.512 42.377 132.77C42.0592 133.028 41.6784 133.229 41.2347 133.373C40.7969 133.511 40.3202 133.58 39.8046 133.58C39.4568 133.58 39.118 133.547 38.7882 133.481C38.5004 133.655 38.3565 133.85 38.3565 134.066C38.3565 134.252 38.4404 134.39 38.6083 134.48C38.7822 134.564 39.0071 134.624 39.2829 134.66C39.5647 134.696 39.8825 134.72 40.2363 134.732C40.5901 134.738 40.9529 134.756 41.3246 134.786C41.6964 134.816 42.0592 134.87 42.4129 134.948C42.7667 135.02 43.0815 135.137 43.3574 135.299C43.6392 135.461 43.864 135.683 44.0319 135.965C44.2058 136.241 44.2928 136.598 44.2928 137.036C44.2928 137.444 44.1908 137.84 43.987 138.224C43.7891 138.608 43.4983 138.95 43.1145 139.25C42.7367 139.55 42.272 139.79 41.7204 139.97C41.1687 140.156 40.5391 140.249 39.8316 140.249C39.13 140.249 38.5214 140.18 38.0057 140.042C37.49 139.91 37.0613 139.73 36.7195 139.502C36.3837 139.28 36.1319 139.022 35.964 138.728C35.7961 138.434 35.7121 138.128 35.7121 137.81C35.7121 137.378 35.844 137.015 36.1079 136.721C36.3717 136.427 36.7375 136.193 37.2052 136.019C36.9773 135.893 36.7944 135.725 36.6565 135.515C36.5186 135.305 36.4497 135.032 36.4497 134.696C36.4497 134.558 36.4736 134.417 36.5216 134.273C36.5696 134.123 36.6415 133.976 36.7375 133.832C36.8394 133.688 36.9653 133.553 37.1152 133.427C37.2652 133.295 37.442 133.178 37.6459 133.076C37.1782 132.824 36.8094 132.488 36.5396 132.068C36.2758 131.648 36.1438 131.156 36.1438 130.592C36.1438 130.136 36.2338 129.725 36.4137 129.359C36.5996 128.987 36.8544 128.672 37.1782 128.414C37.508 128.15 37.8948 127.949 38.3385 127.811C38.7882 127.673 39.2769 127.604 39.8046 127.604ZM42.242 137.414C42.242 137.234 42.1881 137.087 42.0802 136.973C41.9722 136.859 41.8253 136.772 41.6394 136.712C41.4535 136.646 41.2347 136.598 40.9828 136.568C40.737 136.538 40.4732 136.517 40.1913 136.505C39.9155 136.487 39.6277 136.472 39.3279 136.46C39.034 136.442 38.7492 136.415 38.4734 136.379C38.2216 136.517 38.0177 136.682 37.8618 136.874C37.7119 137.06 37.6369 137.276 37.6369 137.522C37.6369 137.684 37.6759 137.834 37.7538 137.972C37.8378 138.116 37.9667 138.239 38.1406 138.341C38.3205 138.443 38.5513 138.521 38.8332 138.575C39.115 138.635 39.4598 138.665 39.8675 138.665C40.2813 138.665 40.6381 138.632 40.9379 138.566C41.2377 138.506 41.4835 138.419 41.6754 138.305C41.8733 138.197 42.0172 138.065 42.1071 137.909C42.1971 137.759 42.242 137.594 42.242 137.414ZM39.8046 132.158C40.0804 132.158 40.3202 132.122 40.5241 132.05C40.728 131.972 40.8959 131.867 41.0278 131.735C41.1657 131.603 41.2677 131.444 41.3336 131.258C41.4056 131.072 41.4415 130.868 41.4415 130.646C41.4415 130.19 41.3036 129.83 41.0278 129.566C40.758 129.296 40.3502 129.161 39.8046 129.161C39.2589 129.161 38.8482 129.296 38.5723 129.566C38.3025 129.83 38.1676 130.19 38.1676 130.646C38.1676 130.862 38.2006 131.063 38.2665 131.249C38.3385 131.435 38.4404 131.597 38.5723 131.735C38.7103 131.867 38.8811 131.972 39.085 132.05C39.2949 132.122 39.5347 132.158 39.8046 132.158Z" fill="black"></path><path d="M45.9222 137V127.766H47.2803C47.5681 127.766 47.757 127.901 47.847 128.171L47.9999 128.9C48.1858 128.708 48.3806 128.534 48.5845 128.378C48.7944 128.222 49.0132 128.087 49.2411 127.973C49.475 127.859 49.7238 127.772 49.9876 127.712C50.2515 127.652 50.5393 127.622 50.8511 127.622C51.3548 127.622 51.8015 127.709 52.1913 127.883C52.581 128.051 52.9048 128.291 53.1627 128.603C53.4265 128.909 53.6244 129.278 53.7563 129.71C53.8942 130.136 53.9632 130.607 53.9632 131.123V137H51.7415V131.123C51.7415 130.559 51.6096 130.124 51.3458 129.818C51.0879 129.506 50.6982 129.35 50.1765 129.35C49.7928 129.35 49.433 129.437 49.0972 129.611C48.7614 129.785 48.4436 130.022 48.1438 130.322V137H45.9222Z" fill="black"></path><path d="M12.5019 171.493C12.5019 172.447 12.343 173.323 12.0252 174.121C11.7074 174.919 11.2607 175.606 10.6851 176.182C10.1094 176.758 9.41685 177.205 8.60736 177.523C7.79786 177.841 6.90142 178 5.91803 178H0.953125V164.986H5.91803C6.90142 164.986 7.79786 165.148 8.60736 165.472C9.41685 165.79 10.1094 166.237 10.6851 166.813C11.2607 167.383 11.7074 168.067 12.0252 168.865C12.343 169.663 12.5019 170.539 12.5019 171.493ZM10.0285 171.493C10.0285 170.779 9.93253 170.14 9.74065 169.576C9.54877 169.006 9.27594 168.526 8.92216 168.136C8.56838 167.74 8.13665 167.437 7.62697 167.227C7.12328 167.017 6.55364 166.912 5.91803 166.912H3.39061V176.074H5.91803C6.55364 176.074 7.12328 175.969 7.62697 175.759C8.13665 175.549 8.56838 175.249 8.92216 174.859C9.27594 174.463 9.54877 173.983 9.74065 173.419C9.93253 172.849 10.0285 172.207 10.0285 171.493Z" fill="black"></path><path d="M18.0797 168.622C18.6614 168.622 19.195 168.715 19.6807 168.901C20.1724 169.087 20.5952 169.36 20.9489 169.72C21.3027 170.074 21.5785 170.512 21.7764 171.034C21.9743 171.55 22.0732 172.141 22.0732 172.807C22.0732 172.975 22.0642 173.116 22.0463 173.23C22.0343 173.338 22.0073 173.425 21.9653 173.491C21.9293 173.551 21.8784 173.596 21.8124 173.626C21.7464 173.65 21.6625 173.662 21.5606 173.662H15.8581C15.9241 174.61 16.1789 175.306 16.6226 175.75C17.0664 176.194 17.654 176.416 18.3855 176.416C18.7453 176.416 19.0541 176.374 19.312 176.29C19.5758 176.206 19.8037 176.113 19.9955 176.011C20.1934 175.909 20.3643 175.816 20.5082 175.732C20.6581 175.648 20.802 175.606 20.9399 175.606C21.0299 175.606 21.1078 175.624 21.1738 175.66C21.2398 175.696 21.2967 175.747 21.3447 175.813L21.9923 176.623C21.7464 176.911 21.4706 177.154 21.1648 177.352C20.859 177.544 20.5382 177.7 20.2024 177.82C19.8726 177.934 19.5338 178.015 19.186 178.063C18.8442 178.111 18.5115 178.135 18.1877 178.135C17.5461 178.135 16.9494 178.03 16.3978 177.82C15.8461 177.604 15.3664 177.289 14.9587 176.875C14.5509 176.455 14.2301 175.939 13.9963 175.327C13.7624 174.709 13.6455 173.995 13.6455 173.185C13.6455 172.555 13.7474 171.964 13.9513 171.412C14.1552 170.854 14.446 170.371 14.8238 169.963C15.2075 169.549 15.6722 169.222 16.2179 168.982C16.7695 168.742 17.3902 168.622 18.0797 168.622ZM18.1247 170.215C17.4771 170.215 16.9704 170.398 16.6046 170.764C16.2389 171.13 16.005 171.649 15.9031 172.321H20.0765C20.0765 172.033 20.0375 171.763 19.9596 171.511C19.8816 171.253 19.7617 171.028 19.5998 170.836C19.4379 170.644 19.234 170.494 18.9882 170.386C18.7423 170.272 18.4545 170.215 18.1247 170.215Z" fill="black"></path><path d="M28.1998 178H26.1851L22.5154 168.766H24.3592C24.5211 168.766 24.656 168.805 24.764 168.883C24.8779 168.961 24.9558 169.06 24.9978 169.18L26.7787 174.112C26.8806 174.4 26.9646 174.682 27.0306 174.958C27.1025 175.234 27.1655 175.51 27.2194 175.786C27.2734 175.51 27.3334 175.234 27.3993 174.958C27.4713 174.682 27.5612 174.4 27.6692 174.112L29.495 169.18C29.537 169.06 29.6119 168.961 29.7199 168.883C29.8278 168.805 29.9567 168.766 30.1066 168.766H31.8605L28.1998 178Z" fill="black"></path><path d="M36.6834 168.622C37.265 168.622 37.7987 168.715 38.2844 168.901C38.7761 169.087 39.1988 169.36 39.5526 169.72C39.9064 170.074 40.1822 170.512 40.3801 171.034C40.5779 171.55 40.6769 172.141 40.6769 172.807C40.6769 172.975 40.6679 173.116 40.6499 173.23C40.6379 173.338 40.6109 173.425 40.569 173.491C40.533 173.551 40.482 173.596 40.416 173.626C40.3501 173.65 40.2661 173.662 40.1642 173.662H34.4618C34.5277 174.61 34.7826 175.306 35.2263 175.75C35.67 176.194 36.2576 176.416 36.9892 176.416C37.349 176.416 37.6578 176.374 37.9156 176.29C38.1794 176.206 38.4073 176.113 38.5992 176.011C38.7971 175.909 38.968 175.816 39.1119 175.732C39.2618 175.648 39.4057 175.606 39.5436 175.606C39.6335 175.606 39.7115 175.624 39.7774 175.66C39.8434 175.696 39.9004 175.747 39.9483 175.813L40.5959 176.623C40.3501 176.911 40.0743 177.154 39.7684 177.352C39.4626 177.544 39.1418 177.7 38.8061 177.82C38.4763 177.934 38.1375 178.015 37.7897 178.063C37.4479 178.111 37.1151 178.135 36.7913 178.135C36.1497 178.135 35.5531 178.03 35.0014 177.82C34.4498 177.604 33.9701 177.289 33.5623 176.875C33.1546 176.455 32.8338 175.939 32.5999 175.327C32.3661 174.709 32.2491 173.995 32.2491 173.185C32.2491 172.555 32.3511 171.964 32.5549 171.412C32.7588 170.854 33.0496 170.371 33.4274 169.963C33.8112 169.549 34.2759 169.222 34.8215 168.982C35.3732 168.742 35.9938 168.622 36.6834 168.622ZM36.7283 170.215C36.0807 170.215 35.5741 170.398 35.2083 170.764C34.8425 171.13 34.6087 171.649 34.5067 172.321H38.6801C38.6801 172.033 38.6412 171.763 38.5632 171.511C38.4853 171.253 38.3653 171.028 38.2034 170.836C38.0415 170.644 37.8377 170.494 37.5918 170.386C37.346 170.272 37.0581 170.215 36.7283 170.215Z" fill="black"></path><path d="M44.8445 164.626V178H42.6229V164.626H44.8445Z" fill="black"></path><path d="M51.3022 168.622C51.9918 168.622 52.6154 168.733 53.1731 168.955C53.7367 169.177 54.2164 169.492 54.6122 169.9C55.0079 170.308 55.3137 170.806 55.5296 171.394C55.7455 171.982 55.8534 172.639 55.8534 173.365C55.8534 174.097 55.7455 174.757 55.5296 175.345C55.3137 175.933 55.0079 176.434 54.6122 176.848C54.2164 177.262 53.7367 177.58 53.1731 177.802C52.6154 178.024 51.9918 178.135 51.3022 178.135C50.6126 178.135 49.986 178.024 49.4224 177.802C48.8587 177.58 48.376 177.262 47.9743 176.848C47.5785 176.434 47.2697 175.933 47.0479 175.345C46.832 174.757 46.7241 174.097 46.7241 173.365C46.7241 172.639 46.832 171.982 47.0479 171.394C47.2697 170.806 47.5785 170.308 47.9743 169.9C48.376 169.492 48.8587 169.177 49.4224 168.955C49.986 168.733 50.6126 168.622 51.3022 168.622ZM51.3022 176.425C52.0697 176.425 52.6364 176.167 53.0022 175.651C53.3739 175.135 53.5598 174.379 53.5598 173.383C53.5598 172.387 53.3739 171.628 53.0022 171.106C52.6364 170.584 52.0697 170.323 51.3022 170.323C50.5227 170.323 49.9471 170.587 49.5753 171.115C49.2035 171.637 49.0176 172.393 49.0176 173.383C49.0176 174.373 49.2035 175.129 49.5753 175.651C49.9471 176.167 50.5227 176.425 51.3022 176.425Z" fill="black"></path><path d="M57.5868 181.015V168.766H58.9449C59.0888 168.766 59.2118 168.799 59.3137 168.865C59.4156 168.931 59.4816 169.033 59.5116 169.171L59.6915 170.026C60.0632 169.6 60.489 169.255 60.9687 168.991C61.4544 168.727 62.021 168.595 62.6686 168.595C63.1723 168.595 63.631 168.7 64.0448 168.91C64.4645 169.12 64.8243 169.426 65.1241 169.828C65.4299 170.224 65.6637 170.716 65.8256 171.304C65.9935 171.886 66.0775 172.555 66.0775 173.311C66.0775 174.001 65.9845 174.64 65.7987 175.228C65.6128 175.816 65.3459 176.326 64.9982 176.758C64.6564 177.19 64.2396 177.529 63.7479 177.775C63.2622 178.015 62.7166 178.135 62.111 178.135C61.5893 178.135 61.1456 178.057 60.7798 177.901C60.42 177.739 60.0962 177.517 59.8084 177.235V181.015H57.5868ZM61.9041 170.35C61.4424 170.35 61.0466 170.449 60.7168 170.647C60.393 170.839 60.0902 171.112 59.8084 171.466V175.606C60.0602 175.918 60.3331 176.137 60.6269 176.263C60.9267 176.383 61.2475 176.443 61.5893 176.443C61.9251 176.443 62.2279 176.38 62.4977 176.254C62.7735 176.128 63.0044 175.936 63.1903 175.678C63.3822 175.42 63.5291 175.096 63.631 174.706C63.7329 174.31 63.7839 173.845 63.7839 173.311C63.7839 172.771 63.7389 172.315 63.649 171.943C63.565 171.565 63.4421 171.259 63.2802 171.025C63.1183 170.791 62.9205 170.62 62.6866 170.512C62.4587 170.404 62.1979 170.35 61.9041 170.35Z" fill="black"></path><path d="M67.7582 178V168.766H69.1163C69.4041 168.766 69.593 168.901 69.683 169.171L69.8269 169.855C69.9888 169.675 70.1567 169.51 70.3306 169.36C70.5105 169.21 70.6993 169.081 70.8972 168.973C71.1011 168.865 71.317 168.781 71.5448 168.721C71.7787 168.655 72.0335 168.622 72.3093 168.622C72.891 168.622 73.3677 168.781 73.7394 169.099C74.1172 169.411 74.399 169.828 74.5849 170.35C74.7288 170.044 74.9087 169.783 75.1246 169.567C75.3404 169.345 75.5773 169.165 75.8351 169.027C76.093 168.889 76.3658 168.787 76.6536 168.721C76.9474 168.655 77.2413 168.622 77.5351 168.622C78.0448 168.622 78.4975 168.7 78.8932 168.856C79.289 169.012 79.6218 169.24 79.8916 169.54C80.1614 169.84 80.3653 170.206 80.5032 170.638C80.6471 171.07 80.7191 171.565 80.7191 172.123V178H78.4975V172.123C78.4975 171.535 78.3686 171.094 78.1107 170.8C77.8529 170.5 77.4751 170.35 76.9774 170.35C76.7496 170.35 76.5367 170.389 76.3388 170.467C76.1469 170.545 75.9761 170.659 75.8261 170.809C75.6822 170.953 75.5683 171.136 75.4844 171.358C75.4004 171.58 75.3584 171.835 75.3584 172.123V178H73.1278V172.123C73.1278 171.505 73.0019 171.055 72.7501 170.773C72.5042 170.491 72.1384 170.35 71.6527 170.35C71.3349 170.35 71.0351 170.431 70.7533 170.593C70.4775 170.749 70.2196 170.965 69.9798 171.241V178H67.7582Z" fill="black"></path><path d="M86.7147 168.622C87.2963 168.622 87.83 168.715 88.3157 168.901C88.8074 169.087 89.2301 169.36 89.5839 169.72C89.9377 170.074 90.2135 170.512 90.4114 171.034C90.6093 171.55 90.7082 172.141 90.7082 172.807C90.7082 172.975 90.6992 173.116 90.6812 173.23C90.6692 173.338 90.6423 173.425 90.6003 173.491C90.5643 173.551 90.5133 173.596 90.4474 173.626C90.3814 173.65 90.2975 173.662 90.1955 173.662H84.4931C84.559 174.61 84.8139 175.306 85.2576 175.75C85.7013 176.194 86.289 176.416 87.0205 176.416C87.3803 176.416 87.6891 176.374 87.9469 176.29C88.2108 176.206 88.4386 176.113 88.6305 176.011C88.8284 175.909 88.9993 175.816 89.1432 175.732C89.2931 175.648 89.437 175.606 89.5749 175.606C89.6649 175.606 89.7428 175.624 89.8088 175.66C89.8747 175.696 89.9317 175.747 89.9797 175.813L90.6273 176.623C90.3814 176.911 90.1056 177.154 89.7998 177.352C89.494 177.544 89.1732 177.7 88.8374 177.82C88.5076 177.934 88.1688 178.015 87.821 178.063C87.4792 178.111 87.1464 178.135 86.8226 178.135C86.181 178.135 85.5844 178.03 85.0328 177.82C84.4811 177.604 84.0014 177.289 83.5936 176.875C83.1859 176.455 82.8651 175.939 82.6312 175.327C82.3974 174.709 82.2805 173.995 82.2805 173.185C82.2805 172.555 82.3824 171.964 82.5863 171.412C82.7902 170.854 83.081 170.371 83.4587 169.963C83.8425 169.549 84.3072 169.222 84.8529 168.982C85.4045 168.742 86.0251 168.622 86.7147 168.622ZM86.7597 170.215C86.1121 170.215 85.6054 170.398 85.2396 170.764C84.8739 171.13 84.64 171.649 84.5381 172.321H88.7115C88.7115 172.033 88.6725 171.763 88.5945 171.511C88.5166 171.253 88.3967 171.028 88.2348 170.836C88.0729 170.644 87.869 170.494 87.6231 170.386C87.3773 170.272 87.0895 170.215 86.7597 170.215Z" fill="black"></path><path d="M92.5103 178V168.766H93.8685C94.1563 168.766 94.3452 168.901 94.4351 169.171L94.588 169.9C94.7739 169.708 94.9688 169.534 95.1727 169.378C95.3825 169.222 95.6014 169.087 95.8293 168.973C96.0631 168.859 96.312 168.772 96.5758 168.712C96.8396 168.652 97.1275 168.622 97.4393 168.622C97.943 168.622 98.3897 168.709 98.7794 168.883C99.1692 169.051 99.493 169.291 99.7508 169.603C100.015 169.909 100.213 170.278 100.344 170.71C100.482 171.136 100.551 171.607 100.551 172.123V178H98.3297V172.123C98.3297 171.559 98.1978 171.124 97.934 170.818C97.6761 170.506 97.2864 170.35 96.7647 170.35C96.3809 170.35 96.0211 170.437 95.6854 170.611C95.3496 170.785 95.0318 171.022 94.732 171.322V178H92.5103Z" fill="black"></path><path d="M105.766 178.144C104.968 178.144 104.353 177.919 103.922 177.469C103.49 177.013 103.274 176.386 103.274 175.588V170.431H102.339C102.219 170.431 102.114 170.392 102.024 170.314C101.94 170.236 101.898 170.119 101.898 169.963V169.081L103.382 168.838L103.85 166.318C103.874 166.198 103.928 166.105 104.012 166.039C104.102 165.973 104.213 165.94 104.344 165.94H105.496V168.847H107.924V170.431H105.496V175.435C105.496 175.723 105.568 175.948 105.712 176.11C105.855 176.272 106.047 176.353 106.287 176.353C106.425 176.353 106.539 176.338 106.629 176.308C106.725 176.272 106.806 176.236 106.872 176.2C106.944 176.164 107.007 176.131 107.061 176.101C107.115 176.065 107.169 176.047 107.223 176.047C107.289 176.047 107.343 176.065 107.385 176.101C107.427 176.131 107.471 176.179 107.519 176.245L108.185 177.325C107.861 177.595 107.489 177.799 107.07 177.937C106.65 178.075 106.215 178.144 105.766 178.144Z" fill="black"></path><path d="M9.15602 205.986V207.912H3.39061V211.764H8.25658V213.699H3.39061V219H0.953125V205.986H9.15602Z" fill="black"></path><path d="M13.2939 209.766V219H11.0722V209.766H13.2939ZM13.6267 207.075C13.6267 207.267 13.5877 207.447 13.5097 207.615C13.4318 207.783 13.3268 207.93 13.1949 208.056C13.069 208.182 12.9191 208.284 12.7452 208.362C12.5713 208.434 12.3854 208.47 12.1875 208.47C11.9957 208.47 11.8128 208.434 11.6389 208.362C11.471 208.284 11.3241 208.182 11.1982 208.056C11.0722 207.93 10.9703 207.783 10.8924 207.615C10.8204 207.447 10.7844 207.267 10.7844 207.075C10.7844 206.877 10.8204 206.691 10.8924 206.517C10.9703 206.343 11.0722 206.193 11.1982 206.067C11.3241 205.941 11.471 205.842 11.6389 205.77C11.8128 205.692 11.9957 205.653 12.1875 205.653C12.3854 205.653 12.5713 205.692 12.7452 205.77C12.9191 205.842 13.069 205.941 13.1949 206.067C13.3268 206.193 13.4318 206.343 13.5097 206.517C13.5877 206.691 13.6267 206.877 13.6267 207.075Z" fill="black"></path><path d="M15.812 219V209.766H17.1702C17.458 209.766 17.6469 209.901 17.7368 210.171L17.8897 210.9C18.0756 210.708 18.2705 210.534 18.4744 210.378C18.6842 210.222 18.9031 210.087 19.1309 209.973C19.3648 209.859 19.6136 209.772 19.8775 209.712C20.1413 209.652 20.4291 209.622 20.7409 209.622C21.2446 209.622 21.6913 209.709 22.0811 209.883C22.4709 210.051 22.7947 210.291 23.0525 210.603C23.3163 210.909 23.5142 211.278 23.6461 211.71C23.784 212.136 23.853 212.607 23.853 213.123V219H21.6314V213.123C21.6314 212.559 21.4995 212.124 21.2356 211.818C20.9778 211.506 20.588 211.35 20.0664 211.35C19.6826 211.35 19.3228 211.437 18.987 211.611C18.6512 211.785 18.3334 212.022 18.0336 212.322V219H15.812Z" fill="black"></path><path d="M33.2676 219H32.2692C32.0594 219 31.8945 218.97 31.7745 218.91C31.6546 218.844 31.5647 218.715 31.5047 218.523L31.3068 217.866C31.073 218.076 30.8421 218.262 30.6143 218.424C30.3924 218.58 30.1615 218.712 29.9217 218.82C29.6818 218.928 29.427 219.009 29.1572 219.063C28.8873 219.117 28.5875 219.144 28.2577 219.144C27.868 219.144 27.5082 219.093 27.1784 218.991C26.8486 218.883 26.5638 218.724 26.3239 218.514C26.0901 218.304 25.9072 218.043 25.7753 217.731C25.6434 217.419 25.5774 217.056 25.5774 216.642C25.5774 216.294 25.6673 215.952 25.8472 215.616C26.0331 215.274 26.3389 214.968 26.7647 214.698C27.1904 214.422 27.757 214.194 28.4646 214.014C29.1722 213.834 30.0506 213.732 31.1 213.708V213.168C31.1 212.55 30.968 212.094 30.7042 211.8C30.4464 211.5 30.0686 211.35 29.5709 211.35C29.2111 211.35 28.9113 211.392 28.6715 211.476C28.4316 211.56 28.2218 211.656 28.0419 211.764C27.868 211.866 27.7061 211.959 27.5562 212.043C27.4063 212.127 27.2414 212.169 27.0615 212.169C26.9116 212.169 26.7826 212.13 26.6747 212.052C26.5668 211.974 26.4798 211.878 26.4139 211.764L26.0091 211.053C27.0705 210.081 28.3507 209.595 29.8497 209.595C30.3894 209.595 30.8691 209.685 31.2888 209.865C31.7146 210.039 32.0744 210.285 32.3682 210.603C32.662 210.915 32.8838 211.29 33.0338 211.728C33.1897 212.166 33.2676 212.646 33.2676 213.168V219ZM28.9503 217.614C29.1782 217.614 29.388 217.593 29.5799 217.551C29.7718 217.509 29.9517 217.446 30.1196 217.362C30.2935 217.278 30.4584 217.176 30.6143 217.056C30.7762 216.93 30.9381 216.783 31.1 216.615V215.058C30.4524 215.088 29.9097 215.145 29.472 215.229C29.0402 215.307 28.6925 215.409 28.4286 215.535C28.1648 215.661 27.9759 215.808 27.862 215.976C27.754 216.144 27.7001 216.327 27.7001 216.525C27.7001 216.915 27.814 217.194 28.0419 217.362C28.2757 217.53 28.5785 217.614 28.9503 217.614Z" fill="black"></path><path d="M37.8176 205.626V219H35.596V205.626H37.8176Z" fill="black"></path><path d="M53.1053 205.986V207.975H49.1928V219H46.7733V207.975H42.8427V205.986H53.1053Z" fill="black"></path><path d="M56.4992 209.622C57.0808 209.622 57.6145 209.715 58.1002 209.901C58.5919 210.087 59.0146 210.36 59.3684 210.72C59.7221 211.074 59.998 211.512 60.1959 212.034C60.3937 212.55 60.4927 213.141 60.4927 213.807C60.4927 213.975 60.4837 214.116 60.4657 214.23C60.4537 214.338 60.4267 214.425 60.3847 214.491C60.3488 214.551 60.2978 214.596 60.2318 214.626C60.1659 214.65 60.0819 214.662 59.98 214.662H54.2775C54.3435 215.61 54.5983 216.306 55.0421 216.75C55.4858 217.194 56.0734 217.416 56.805 217.416C57.1647 217.416 57.4735 217.374 57.7314 217.29C57.9952 217.206 58.2231 217.113 58.415 217.011C58.6128 216.909 58.7837 216.816 58.9276 216.732C59.0776 216.648 59.2215 216.606 59.3594 216.606C59.4493 216.606 59.5273 216.624 59.5932 216.66C59.6592 216.696 59.7162 216.747 59.7641 216.813L60.4117 217.623C60.1659 217.911 59.89 218.154 59.5842 218.352C59.2784 218.544 58.9576 218.7 58.6218 218.82C58.292 218.934 57.9532 219.015 57.6055 219.063C57.2637 219.111 56.9309 219.135 56.6071 219.135C55.9655 219.135 55.3689 219.03 54.8172 218.82C54.2655 218.604 53.7858 218.289 53.3781 217.875C52.9704 217.455 52.6496 216.939 52.4157 216.327C52.1818 215.709 52.0649 214.995 52.0649 214.185C52.0649 213.555 52.1669 212.964 52.3707 212.412C52.5746 211.854 52.8654 211.371 53.2432 210.963C53.6269 210.549 54.0917 210.222 54.6373 209.982C55.189 209.742 55.8096 209.622 56.4992 209.622ZM56.5441 211.215C55.8965 211.215 55.3898 211.398 55.0241 211.764C54.6583 212.13 54.4244 212.649 54.3225 213.321H58.4959C58.4959 213.033 58.4569 212.763 58.379 212.511C58.301 212.253 58.1811 212.028 58.0192 211.836C57.8573 211.644 57.6534 211.494 57.4076 211.386C57.1617 211.272 56.8739 211.215 56.5441 211.215Z" fill="black"></path><path d="M67.7724 211.566C67.7124 211.662 67.6494 211.731 67.5835 211.773C67.5175 211.809 67.4336 211.827 67.3316 211.827C67.2237 211.827 67.1068 211.797 66.9809 211.737C66.8609 211.677 66.72 211.611 66.5581 211.539C66.3962 211.461 66.2103 211.392 66.0005 211.332C65.7966 211.272 65.5537 211.242 65.2719 211.242C64.8342 211.242 64.4894 211.335 64.2376 211.521C63.9857 211.707 63.8598 211.95 63.8598 212.25C63.8598 212.448 63.9228 212.616 64.0487 212.754C64.1806 212.886 64.3515 213.003 64.5614 213.105C64.7772 213.207 65.0201 213.3 65.2899 213.384C65.5597 213.462 65.8356 213.549 66.1174 213.645C66.3992 213.741 66.6751 213.852 66.9449 213.978C67.2147 214.098 67.4546 214.254 67.6644 214.446C67.8803 214.632 68.0512 214.857 68.1771 215.121C68.309 215.385 68.375 215.703 68.375 216.075C68.375 216.519 68.294 216.93 68.1321 217.308C67.9702 217.68 67.7334 218.004 67.4216 218.28C67.1098 218.55 66.723 218.763 66.2613 218.919C65.8056 219.069 65.2809 219.144 64.6873 219.144C64.3695 219.144 64.0577 219.114 63.7519 219.054C63.4521 219 63.1612 218.922 62.8794 218.82C62.6036 218.718 62.3457 218.598 62.1059 218.46C61.872 218.322 61.6652 218.172 61.4853 218.01L61.998 217.164C62.0639 217.062 62.1419 216.984 62.2318 216.93C62.3218 216.876 62.4357 216.849 62.5736 216.849C62.7115 216.849 62.8404 216.888 62.9604 216.966C63.0863 217.044 63.2302 217.128 63.3921 217.218C63.554 217.308 63.7429 217.392 63.9587 217.47C64.1806 217.548 64.4594 217.587 64.7952 217.587C65.0591 217.587 65.2839 217.557 65.4698 217.497C65.6617 217.431 65.8176 217.347 65.9375 217.245C66.0634 217.143 66.1534 217.026 66.2073 216.894C66.2673 216.756 66.2973 216.615 66.2973 216.471C66.2973 216.255 66.2313 216.078 66.0994 215.94C65.9735 215.802 65.8026 215.682 65.5867 215.58C65.3769 215.478 65.134 215.388 64.8582 215.31C64.5883 215.226 64.3095 215.136 64.0217 215.04C63.7399 214.944 63.4611 214.833 63.1852 214.707C62.9154 214.575 62.6725 214.41 62.4567 214.212C62.2468 214.014 62.0759 213.771 61.944 213.483C61.8181 213.195 61.7551 212.847 61.7551 212.439C61.7551 212.061 61.8301 211.701 61.98 211.359C62.1299 211.017 62.3487 210.72 62.6366 210.468C62.9304 210.21 63.2932 210.006 63.7249 209.856C64.1626 209.7 64.6663 209.622 65.2359 209.622C65.8715 209.622 66.4502 209.727 66.9719 209.937C67.4935 210.147 67.9283 210.423 68.2761 210.765L67.7724 211.566Z" fill="black"></path><path d="M73.1784 219.144C72.3809 219.144 71.7663 218.919 71.3346 218.469C70.9028 218.013 70.687 217.386 70.687 216.588V211.431H69.7516C69.6316 211.431 69.5267 211.392 69.4367 211.314C69.3528 211.236 69.3108 211.119 69.3108 210.963V210.081L70.7949 209.838L71.2626 207.318C71.2866 207.198 71.3406 207.105 71.4245 207.039C71.5145 206.973 71.6254 206.94 71.7573 206.94H72.9086V209.847H75.3371V211.431H72.9086V216.435C72.9086 216.723 72.9805 216.948 73.1245 217.11C73.2684 217.272 73.4602 217.353 73.7001 217.353C73.838 217.353 73.9519 217.338 74.0419 217.308C74.1378 217.272 74.2188 217.236 74.2847 217.2C74.3567 217.164 74.4196 217.131 74.4736 217.101C74.5276 217.065 74.5815 217.047 74.6355 217.047C74.7015 217.047 74.7554 217.065 74.7974 217.101C74.8394 217.131 74.8844 217.179 74.9323 217.245L75.5979 218.325C75.2741 218.595 74.9023 218.799 74.4826 218.937C74.0629 219.075 73.6281 219.144 73.1784 219.144Z" fill="black"></path><path d="M79.4694 209.766V219H77.2478V209.766H79.4694ZM79.8022 207.075C79.8022 207.267 79.7633 207.447 79.6853 207.615C79.6074 207.783 79.5024 207.93 79.3705 208.056C79.2446 208.182 79.0947 208.284 78.9208 208.362C78.7469 208.434 78.561 208.47 78.3631 208.47C78.1712 208.47 77.9884 208.434 77.8145 208.362C77.6466 208.284 77.4997 208.182 77.3737 208.056C77.2478 207.93 77.1459 207.783 77.0679 207.615C76.996 207.447 76.96 207.267 76.96 207.075C76.96 206.877 76.996 206.691 77.0679 206.517C77.1459 206.343 77.2478 206.193 77.3737 206.067C77.4997 205.941 77.6466 205.842 77.8145 205.77C77.9884 205.692 78.1712 205.653 78.3631 205.653C78.561 205.653 78.7469 205.692 78.9208 205.77C79.0947 205.842 79.2446 205.941 79.3705 206.067C79.5024 206.193 79.6074 206.343 79.6853 206.517C79.7633 206.691 79.8022 206.877 79.8022 207.075Z" fill="black"></path><path d="M81.9876 219V209.766H83.3457C83.6336 209.766 83.8224 209.901 83.9124 210.171L84.0653 210.9C84.2512 210.708 84.4461 210.534 84.6499 210.378C84.8598 210.222 85.0787 210.087 85.3065 209.973C85.5404 209.859 85.7892 209.772 86.0531 209.712C86.3169 209.652 86.6047 209.622 86.9165 209.622C87.4202 209.622 87.8669 209.709 88.2567 209.883C88.6464 210.051 88.9702 210.291 89.2281 210.603C89.4919 210.909 89.6898 211.278 89.8217 211.71C89.9596 212.136 90.0286 212.607 90.0286 213.123V219H87.807V213.123C87.807 212.559 87.675 212.124 87.4112 211.818C87.1534 211.506 86.7636 211.35 86.2419 211.35C85.8582 211.35 85.4984 211.437 85.1626 211.611C84.8268 211.785 84.509 212.022 84.2092 212.322V219H81.9876Z" fill="black"></path><path d="M95.4047 209.604C95.8005 209.604 96.1722 209.646 96.52 209.73C96.8678 209.808 97.1856 209.925 97.4734 210.081H100.127V210.909C100.127 211.047 100.091 211.155 100.019 211.233C99.9469 211.311 99.8239 211.365 99.6501 211.395L98.8226 211.548C98.8825 211.704 98.9275 211.869 98.9575 212.043C98.9935 212.217 99.0115 212.4 99.0115 212.592C99.0115 213.048 98.9185 213.462 98.7326 213.834C98.5527 214.2 98.3009 214.512 97.9771 214.77C97.6593 215.028 97.2785 215.229 96.8348 215.373C96.3971 215.511 95.9204 215.58 95.4047 215.58C95.0569 215.58 94.7181 215.547 94.3883 215.481C94.1005 215.655 93.9566 215.85 93.9566 216.066C93.9566 216.252 94.0405 216.39 94.2084 216.48C94.3823 216.564 94.6072 216.624 94.883 216.66C95.1648 216.696 95.4827 216.72 95.8364 216.732C96.1902 216.738 96.553 216.756 96.9248 216.786C97.2965 216.816 97.6593 216.87 98.0131 216.948C98.3669 217.02 98.6817 217.137 98.9575 217.299C99.2393 217.461 99.4642 217.683 99.6321 217.965C99.806 218.241 99.8929 218.598 99.8929 219.036C99.8929 219.444 99.791 219.84 99.5871 220.224C99.3892 220.608 99.0984 220.95 98.7146 221.25C98.3369 221.55 97.8722 221.79 97.3205 221.97C96.7689 222.156 96.1392 222.249 95.4317 222.249C94.7301 222.249 94.1215 222.18 93.6058 222.042C93.0901 221.91 92.6614 221.73 92.3196 221.502C91.9838 221.28 91.732 221.022 91.5641 220.728C91.3962 220.434 91.3123 220.128 91.3123 219.81C91.3123 219.378 91.4442 219.015 91.708 218.721C91.9718 218.427 92.3376 218.193 92.8053 218.019C92.5775 217.893 92.3946 217.725 92.2567 217.515C92.1187 217.305 92.0498 217.032 92.0498 216.696C92.0498 216.558 92.0738 216.417 92.1217 216.273C92.1697 216.123 92.2417 215.976 92.3376 215.832C92.4395 215.688 92.5655 215.553 92.7154 215.427C92.8653 215.295 93.0422 215.178 93.246 215.076C92.7783 214.824 92.4096 214.488 92.1397 214.068C91.8759 213.648 91.744 213.156 91.744 212.592C91.744 212.136 91.8339 211.725 92.0138 211.359C92.1997 210.987 92.4545 210.672 92.7783 210.414C93.1081 210.15 93.4949 209.949 93.9386 209.811C94.3883 209.673 94.877 209.604 95.4047 209.604ZM97.8422 219.414C97.8422 219.234 97.7882 219.087 97.6803 218.973C97.5724 218.859 97.4254 218.772 97.2396 218.712C97.0537 218.646 96.8348 218.598 96.583 218.568C96.3371 218.538 96.0733 218.517 95.7915 218.505C95.5156 218.487 95.2278 218.472 94.928 218.46C94.6342 218.442 94.3494 218.415 94.0735 218.379C93.8217 218.517 93.6178 218.682 93.4619 218.874C93.312 219.06 93.237 219.276 93.237 219.522C93.237 219.684 93.276 219.834 93.354 219.972C93.4379 220.116 93.5668 220.239 93.7407 220.341C93.9206 220.443 94.1515 220.521 94.4333 220.575C94.7151 220.635 95.0599 220.665 95.4677 220.665C95.8814 220.665 96.2382 220.632 96.538 220.566C96.8378 220.506 97.0837 220.419 97.2755 220.305C97.4734 220.197 97.6173 220.065 97.7073 219.909C97.7972 219.759 97.8422 219.594 97.8422 219.414ZM95.4047 214.158C95.6805 214.158 95.9204 214.122 96.1242 214.05C96.3281 213.972 96.496 213.867 96.6279 213.735C96.7659 213.603 96.8678 213.444 96.9337 213.258C97.0057 213.072 97.0417 212.868 97.0417 212.646C97.0417 212.19 96.9038 211.83 96.6279 211.566C96.3581 211.296 95.9504 211.161 95.4047 211.161C94.859 211.161 94.4483 211.296 94.1725 211.566C93.9026 211.83 93.7677 212.19 93.7677 212.646C93.7677 212.862 93.8007 213.063 93.8667 213.249C93.9386 213.435 94.0406 213.597 94.1725 213.735C94.3104 213.867 94.4813 213.972 94.6852 214.05C94.895 214.122 95.1349 214.158 95.4047 214.158Z" fill="black"></path><g opacity="0.3"><path d="M132.025 33.9858H134.058C134.268 33.9858 134.442 34.0368 134.58 34.1388C134.724 34.2348 134.82 34.3668 134.868 34.5348L137.08 42.3198C137.134 42.5118 137.182 42.7218 137.224 42.9498C137.272 43.1718 137.317 43.4088 137.359 43.6608C137.407 43.4088 137.458 43.1718 137.512 42.9498C137.572 42.7218 137.635 42.5118 137.701 42.3198L140.255 34.5348C140.303 34.3968 140.396 34.2708 140.534 34.1568C140.678 34.0428 140.852 33.9858 141.056 33.9858H141.766C141.976 33.9858 142.15 34.0368 142.288 34.1388C142.426 34.2348 142.522 34.3668 142.576 34.5348L145.112 42.3198C145.244 42.7038 145.358 43.1298 145.454 43.5978C145.496 43.3638 145.538 43.1388 145.58 42.9228C145.628 42.7068 145.676 42.5058 145.724 42.3198L147.936 34.5348C147.978 34.3848 148.071 34.2558 148.215 34.1478C148.359 34.0398 148.533 33.9858 148.737 33.9858H150.635L146.596 46.9998H144.411L141.568 38.1078C141.532 37.9938 141.493 37.8708 141.452 37.7388C141.416 37.6068 141.38 37.4658 141.344 37.3158C141.308 37.4658 141.269 37.6068 141.227 37.7388C141.191 37.8708 141.155 37.9938 141.119 38.1078L138.25 46.9998H136.064L132.025 33.9858Z" fill="black"></path><path d="M153.169 45.3348H155.804V37.7478C155.804 37.4538 155.813 37.1448 155.831 36.8208L153.96 38.3868C153.883 38.4528 153.802 38.4978 153.718 38.5218C153.64 38.5458 153.562 38.5578 153.484 38.5578C153.364 38.5578 153.253 38.5338 153.151 38.4858C153.055 38.4318 152.983 38.3718 152.935 38.3058L152.234 37.3428L156.2 33.9678H158.026V45.3348H160.364V46.9998H153.169V45.3348Z" fill="black"></path></g><g opacity="0.3"><path d="M231.963 33.9858H233.996C234.205 33.9858 234.379 34.0368 234.517 34.1388C234.661 34.2348 234.757 34.3668 234.805 34.5348L237.018 42.3198C237.072 42.5118 237.12 42.7218 237.162 42.9498C237.21 43.1718 237.255 43.4088 237.297 43.6608C237.345 43.4088 237.396 43.1718 237.449 42.9498C237.509 42.7218 237.572 42.5118 237.638 42.3198L240.193 34.5348C240.241 34.3968 240.334 34.2708 240.472 34.1568C240.616 34.0428 240.789 33.9858 240.993 33.9858H241.704C241.914 33.9858 242.088 34.0368 242.225 34.1388C242.363 34.2348 242.459 34.3668 242.513 34.5348L245.05 42.3198C245.182 42.7038 245.296 43.1298 245.392 43.5978C245.434 43.3638 245.475 43.1388 245.517 42.9228C245.565 42.7068 245.613 42.5058 245.661 42.3198L247.874 34.5348C247.916 34.3848 248.009 34.2558 248.153 34.1478C248.297 34.0398 248.471 33.9858 248.674 33.9858H250.572L246.534 46.9998H244.348L241.506 38.1078C241.47 37.9938 241.431 37.8708 241.389 37.7388C241.353 37.6068 241.317 37.4658 241.281 37.3158C241.245 37.4658 241.206 37.6068 241.164 37.7388C241.128 37.8708 241.092 37.9938 241.056 38.1078L238.187 46.9998H236.001L231.963 33.9858Z" fill="black"></path><path d="M256.102 33.8418C256.701 33.8418 257.25 33.9318 257.748 34.1118C258.245 34.2858 258.671 34.5348 259.025 34.8588C259.379 35.1828 259.654 35.5728 259.852 36.0288C260.05 36.4848 260.149 36.9918 260.149 37.5498C260.149 38.0298 260.077 38.4738 259.933 38.8818C259.795 39.2898 259.606 39.6798 259.367 40.0518C259.133 40.4238 258.857 40.7838 258.539 41.1318C258.221 41.4798 257.888 41.8338 257.541 42.1938L254.609 45.1908C254.896 45.1068 255.178 45.0438 255.454 45.0018C255.73 44.9538 255.994 44.9298 256.246 44.9298H259.582C259.822 44.9298 260.011 44.9988 260.149 45.1368C260.293 45.2688 260.365 45.4458 260.365 45.6678V46.9998H251.443V46.2618C251.443 46.1118 251.472 45.9558 251.532 45.7938C251.598 45.6318 251.7 45.4818 251.838 45.3438L255.787 41.3838C256.117 41.0478 256.41 40.7268 256.668 40.4208C256.932 40.1148 257.151 39.8118 257.325 39.5118C257.505 39.2118 257.64 38.9088 257.73 38.6028C257.826 38.2908 257.874 37.9638 257.874 37.6218C257.874 37.3098 257.829 37.0368 257.739 36.8028C257.649 36.5628 257.52 36.3618 257.352 36.1998C257.184 36.0378 256.983 35.9178 256.749 35.8398C256.521 35.7558 256.264 35.7138 255.976 35.7138C255.442 35.7138 255.001 35.8488 254.654 36.1188C254.312 36.3888 254.072 36.7518 253.934 37.2078C253.868 37.4358 253.769 37.6008 253.637 37.7028C253.505 37.7988 253.337 37.8468 253.133 37.8468C253.044 37.8468 252.945 37.8378 252.837 37.8198L251.667 37.6128C251.757 36.9888 251.931 36.4428 252.189 35.9748C252.447 35.5008 252.768 35.1078 253.151 34.7958C253.541 34.4778 253.985 34.2408 254.483 34.0848C254.986 33.9228 255.526 33.8418 256.102 33.8418Z" fill="black"></path></g><g opacity="0.3"><path d="M331.9 33.9858H333.933C334.143 33.9858 334.317 34.0368 334.455 34.1388C334.599 34.2348 334.695 34.3668 334.743 34.5348L336.955 42.3198C337.009 42.5118 337.057 42.7218 337.099 42.9498C337.147 43.1718 337.192 43.4088 337.234 43.6608C337.282 43.4088 337.333 43.1718 337.387 42.9498C337.447 42.7218 337.51 42.5118 337.576 42.3198L340.13 34.5348C340.178 34.3968 340.271 34.2708 340.409 34.1568C340.553 34.0428 340.727 33.9858 340.931 33.9858H341.641C341.851 33.9858 342.025 34.0368 342.163 34.1388C342.301 34.2348 342.397 34.3668 342.451 34.5348L344.987 42.3198C345.119 42.7038 345.233 43.1298 345.329 43.5978C345.371 43.3638 345.413 43.1388 345.455 42.9228C345.503 42.7068 345.551 42.5058 345.599 42.3198L347.811 34.5348C347.853 34.3848 347.946 34.2558 348.09 34.1478C348.234 34.0398 348.408 33.9858 348.612 33.9858H350.51L346.471 46.9998H344.286L341.443 38.1078C341.407 37.9938 341.368 37.8708 341.327 37.7388C341.291 37.6068 341.255 37.4658 341.219 37.3158C341.183 37.4658 341.144 37.6068 341.102 37.7388C341.066 37.8708 341.03 37.9938 340.994 38.1078L338.125 46.9998H335.939L331.9 33.9858Z" fill="black"></path><path d="M356.246 33.8418C356.846 33.8418 357.385 33.9288 357.865 34.1028C358.351 34.2708 358.764 34.5078 359.106 34.8138C359.448 35.1138 359.709 35.4678 359.889 35.8758C360.075 36.2838 360.168 36.7248 360.168 37.1988C360.168 37.6128 360.12 37.9788 360.024 38.2968C359.934 38.6088 359.799 38.8818 359.619 39.1158C359.445 39.3498 359.229 39.5478 358.971 39.7098C358.719 39.8718 358.432 40.0068 358.108 40.1148C358.887 40.3608 359.469 40.7358 359.853 41.2398C360.236 41.7438 360.428 42.3768 360.428 43.1388C360.428 43.7868 360.308 44.3598 360.069 44.8578C359.829 45.3558 359.505 45.7758 359.097 46.1178C358.689 46.4538 358.216 46.7088 357.676 46.8828C357.142 47.0568 356.576 47.1438 355.976 47.1438C355.323 47.1438 354.753 47.0688 354.267 46.9188C353.782 46.7688 353.359 46.5468 352.999 46.2528C352.639 45.9588 352.333 45.5988 352.082 45.1728C351.83 44.7468 351.614 44.2548 351.434 43.6968L352.414 43.2918C352.582 43.2198 352.753 43.1838 352.927 43.1838C353.083 43.1838 353.221 43.2168 353.341 43.2828C353.467 43.3488 353.563 43.4448 353.629 43.5708C353.737 43.7808 353.853 43.9878 353.979 44.1918C354.111 44.3958 354.267 44.5788 354.447 44.7408C354.627 44.8968 354.837 45.0258 355.077 45.1278C355.323 45.2238 355.613 45.2718 355.949 45.2718C356.327 45.2718 356.657 45.2118 356.939 45.0918C357.22 44.9658 357.454 44.8038 357.64 44.6058C357.832 44.4078 357.973 44.1888 358.063 43.9488C358.159 43.7028 358.207 43.4568 358.207 43.2108C358.207 42.8988 358.174 42.6168 358.108 42.3648C358.042 42.1068 357.904 41.8878 357.694 41.7078C357.484 41.5278 357.181 41.3868 356.786 41.2848C356.396 41.1828 355.871 41.1318 355.212 41.1318V39.5478C355.757 39.5418 356.21 39.4908 356.57 39.3948C356.93 39.2988 357.214 39.1668 357.424 38.9988C357.64 38.8248 357.79 38.6178 357.874 38.3778C357.958 38.1378 358 37.8738 358 37.5858C358 36.9678 357.832 36.5028 357.496 36.1908C357.16 35.8728 356.702 35.7138 356.12 35.7138C355.592 35.7138 355.155 35.8548 354.807 36.1368C354.459 36.4128 354.216 36.7698 354.078 37.2078C354.006 37.4358 353.907 37.6008 353.782 37.7028C353.656 37.7988 353.491 37.8468 353.287 37.8468C353.191 37.8468 353.089 37.8378 352.981 37.8198L351.812 37.6128C351.902 36.9888 352.076 36.4428 352.333 35.9748C352.591 35.5008 352.912 35.1078 353.296 34.7958C353.686 34.4778 354.129 34.2408 354.627 34.0848C355.131 33.9228 355.67 33.8418 356.246 33.8418Z" fill="black"></path></g><g opacity="0.3"><path d="M431.838 33.9861H433.871C434.08 33.9861 434.254 34.0371 434.392 34.1391C434.536 34.2351 434.632 34.367 434.68 34.535L436.893 42.3201C436.947 42.5121 436.995 42.7221 437.037 42.9501C437.085 43.1721 437.13 43.4091 437.172 43.6611C437.22 43.4091 437.271 43.1721 437.324 42.9501C437.384 42.7221 437.447 42.5121 437.513 42.3201L440.068 34.535C440.116 34.397 440.209 34.2711 440.347 34.1571C440.491 34.0431 440.664 33.9861 440.868 33.9861H441.579C441.789 33.9861 441.963 34.0371 442.1 34.1391C442.238 34.2351 442.334 34.367 442.388 34.535L444.925 42.3201C445.057 42.7041 445.171 43.1301 445.267 43.5981C445.309 43.3641 445.35 43.1391 445.392 42.9231C445.44 42.7071 445.488 42.5061 445.536 42.3201L447.749 34.535C447.791 34.3851 447.884 34.2561 448.028 34.1481C448.172 34.0401 448.346 33.9861 448.549 33.9861H450.447L446.409 47.0001H444.223L441.381 38.1081C441.345 37.9941 441.306 37.8711 441.264 37.7391C441.228 37.6071 441.192 37.4661 441.156 37.3161C441.12 37.4661 441.081 37.6071 441.039 37.7391C441.003 37.8711 440.967 37.9941 440.931 38.1081L438.062 47.0001H435.876L431.838 33.9861Z" fill="black"></path><path d="M459.035 42.0951H460.672V43.3821C460.672 43.5021 460.633 43.6071 460.555 43.6971C460.477 43.7811 460.363 43.8231 460.213 43.8231H459.035V47.0001H457.092V43.8231H451.605C451.455 43.8231 451.324 43.7781 451.21 43.6881C451.096 43.5921 451.024 43.4751 450.994 43.3371L450.769 42.2121L456.93 33.9771H459.035V42.0951ZM457.092 37.8381C457.092 37.6461 457.098 37.4391 457.11 37.2171C457.122 36.9951 457.143 36.7641 457.173 36.5241L453.134 42.0951H457.092V37.8381Z" fill="black"></path></g><g opacity="0.3"><path d="M531.775 33.9858H533.808C534.018 33.9858 534.192 34.0368 534.33 34.1388C534.474 34.2348 534.57 34.3668 534.618 34.5348L536.83 42.3198C536.884 42.5118 536.932 42.7218 536.974 42.9498C537.022 43.1718 537.067 43.4088 537.109 43.6608C537.157 43.4088 537.208 43.1718 537.262 42.9498C537.322 42.7218 537.385 42.5118 537.451 42.3198L540.005 34.5348C540.053 34.3968 540.146 34.2708 540.284 34.1568C540.428 34.0428 540.602 33.9858 540.806 33.9858H541.516C541.726 33.9858 541.9 34.0368 542.038 34.1388C542.176 34.2348 542.272 34.3668 542.326 34.5348L544.862 42.3198C544.994 42.7038 545.108 43.1298 545.204 43.5978C545.246 43.3638 545.288 43.1388 545.33 42.9228C545.378 42.7068 545.426 42.5058 545.474 42.3198L547.686 34.5348C547.728 34.3848 547.821 34.2558 547.965 34.1478C548.109 34.0398 548.283 33.9858 548.487 33.9858H550.385L546.346 46.9998H544.161L541.318 38.1078C541.282 37.9938 541.243 37.8708 541.202 37.7388C541.166 37.6068 541.13 37.4658 541.094 37.3158C541.058 37.4658 541.019 37.6068 540.977 37.7388C540.941 37.8708 540.905 37.9938 540.869 38.1078L538 46.9998H535.814L531.775 33.9858Z" fill="black"></path><path d="M559.395 34.9308C559.395 35.2488 559.293 35.5068 559.089 35.7048C558.891 35.9028 558.558 36.0018 558.091 36.0018H554.511L554.043 38.7198C554.631 38.5998 555.168 38.5398 555.653 38.5398C556.337 38.5398 556.936 38.6418 557.452 38.8458C557.974 39.0498 558.412 39.3318 558.765 39.6918C559.119 40.0518 559.386 40.4748 559.566 40.9608C559.746 41.4408 559.836 41.9598 559.836 42.5178C559.836 43.2078 559.713 43.8378 559.467 44.4078C559.227 44.9778 558.891 45.4668 558.46 45.8748C558.028 46.2768 557.515 46.5888 556.921 46.8108C556.334 47.0328 555.692 47.1438 554.997 47.1438C554.589 47.1438 554.202 47.1018 553.836 47.0178C553.471 46.9338 553.126 46.8228 552.802 46.6848C552.484 46.5408 552.187 46.3788 551.912 46.1988C551.642 46.0128 551.399 45.8178 551.183 45.6138L551.867 44.6688C552.011 44.4648 552.202 44.3628 552.442 44.3628C552.592 44.3628 552.742 44.4108 552.892 44.5068C553.048 44.6028 553.228 44.7078 553.432 44.8218C553.636 44.9358 553.872 45.0408 554.142 45.1368C554.412 45.2328 554.739 45.2808 555.123 45.2808C555.53 45.2808 555.89 45.2148 556.202 45.0828C556.514 44.9508 556.772 44.7678 556.975 44.5338C557.185 44.2938 557.341 44.0118 557.443 43.6878C557.551 43.3578 557.605 43.0008 557.605 42.6168C557.605 41.9088 557.398 41.3568 556.984 40.9608C556.577 40.5588 555.974 40.3578 555.177 40.3578C554.547 40.3578 553.914 40.4718 553.279 40.6998L551.894 40.3038L552.973 33.9858H559.395V34.9308Z" fill="black"></path></g><g opacity="0.3"><path d="M631.713 33.9858H633.746C633.955 33.9858 634.129 34.0368 634.267 34.1388C634.411 34.2348 634.507 34.3668 634.555 34.5348L636.768 42.3198C636.822 42.5118 636.87 42.7218 636.912 42.9498C636.96 43.1718 637.005 43.4088 637.047 43.6608C637.095 43.4088 637.146 43.1718 637.199 42.9498C637.259 42.7218 637.322 42.5118 637.388 42.3198L639.943 34.5348C639.991 34.3968 640.084 34.2708 640.222 34.1568C640.366 34.0428 640.539 33.9858 640.743 33.9858H641.454C641.664 33.9858 641.838 34.0368 641.975 34.1388C642.113 34.2348 642.209 34.3668 642.263 34.5348L644.8 42.3198C644.932 42.7038 645.046 43.1298 645.142 43.5978C645.184 43.3638 645.225 43.1388 645.267 42.9228C645.315 42.7068 645.363 42.5058 645.411 42.3198L647.624 34.5348C647.666 34.3848 647.759 34.2558 647.903 34.1478C648.047 34.0398 648.221 33.9858 648.424 33.9858H650.322L646.284 46.9998H644.098L641.256 38.1078C641.22 37.9938 641.181 37.8708 641.139 37.7388C641.103 37.6068 641.067 37.4658 641.031 37.3158C640.995 37.4658 640.956 37.6068 640.914 37.7388C640.878 37.8708 640.842 37.9938 640.806 38.1078L637.937 46.9998H635.751L631.713 33.9858Z" fill="black"></path><path d="M656.463 38.8728C656.955 38.8728 657.432 38.9538 657.893 39.1158C658.361 39.2778 658.772 39.5238 659.126 39.8538C659.479 40.1778 659.764 40.5828 659.98 41.0688C660.196 41.5548 660.304 42.1218 660.304 42.7698C660.304 43.3758 660.193 43.9458 659.971 44.4798C659.749 45.0078 659.437 45.4698 659.036 45.8658C658.634 46.2618 658.148 46.5738 657.579 46.8018C657.015 47.0298 656.391 47.1438 655.708 47.1438C655.012 47.1438 654.389 47.0328 653.837 46.8108C653.285 46.5888 652.814 46.2798 652.425 45.8838C652.035 45.4818 651.735 45.0018 651.525 44.4438C651.321 43.8798 651.219 43.2558 651.219 42.5718C651.219 41.9598 651.342 41.3328 651.588 40.6908C651.84 40.0428 652.227 39.3708 652.749 38.6748L655.852 34.5078C655.96 34.3638 656.115 34.2408 656.319 34.1388C656.529 34.0368 656.769 33.9858 657.039 33.9858H659.018L655.159 38.7108C655.075 38.8128 654.994 38.9088 654.916 38.9988C654.844 39.0888 654.772 39.1818 654.7 39.2778C654.952 39.1518 655.222 39.0528 655.51 38.9808C655.804 38.9088 656.121 38.8728 656.463 38.8728ZM653.351 42.9138C653.351 43.2738 653.399 43.6038 653.495 43.9038C653.597 44.1978 653.744 44.4498 653.936 44.6598C654.134 44.8698 654.377 45.0348 654.664 45.1548C654.952 45.2688 655.285 45.3258 655.663 45.3258C656.017 45.3258 656.34 45.2658 656.634 45.1458C656.934 45.0258 657.189 44.8578 657.399 44.6418C657.615 44.4258 657.782 44.1738 657.902 43.8858C658.022 43.5918 658.082 43.2738 658.082 42.9318C658.082 42.5598 658.025 42.2268 657.911 41.9328C657.797 41.6328 657.635 41.3808 657.426 41.1768C657.216 40.9668 656.964 40.8078 656.67 40.6998C656.376 40.5918 656.052 40.5378 655.699 40.5378C655.345 40.5378 655.024 40.5978 654.736 40.7178C654.448 40.8378 654.2 41.0058 653.99 41.2218C653.786 41.4318 653.627 41.6838 653.513 41.9778C653.405 42.2658 653.351 42.5778 653.351 42.9138Z" fill="black"></path></g><g opacity="0.3"><path d="M731.652 33.9858H733.685C733.895 33.9858 734.069 34.0368 734.207 34.1388C734.351 34.2348 734.447 34.3668 734.495 34.5348L736.707 42.3198C736.761 42.5118 736.809 42.7218 736.851 42.9498C736.899 43.1718 736.944 43.4088 736.986 43.6608C737.034 43.4088 737.085 43.1718 737.139 42.9498C737.199 42.7218 737.262 42.5118 737.328 42.3198L739.882 34.5348C739.93 34.3968 740.023 34.2708 740.161 34.1568C740.305 34.0428 740.479 33.9858 740.683 33.9858H741.393C741.603 33.9858 741.777 34.0368 741.915 34.1388C742.053 34.2348 742.149 34.3668 742.203 34.5348L744.739 42.3198C744.871 42.7038 744.985 43.1298 745.081 43.5978C745.123 43.3638 745.165 43.1388 745.207 42.9228C745.255 42.7068 745.303 42.5058 745.351 42.3198L747.563 34.5348C747.605 34.3848 747.698 34.2558 747.842 34.1478C747.986 34.0398 748.16 33.9858 748.364 33.9858H750.262L746.223 46.9998H744.038L741.195 38.1078C741.159 37.9938 741.12 37.8708 741.078 37.7388C741.042 37.6068 741.007 37.4658 740.971 37.3158C740.935 37.4658 740.896 37.6068 740.854 37.7388C740.818 37.8708 740.782 37.9938 740.746 38.1078L737.876 46.9998H735.691L731.652 33.9858Z" fill="black"></path><path d="M760.234 33.9858V34.9488C760.234 35.2368 760.201 35.4708 760.135 35.6508C760.075 35.8248 760.015 35.9718 759.955 36.0918L755.036 46.2438C754.934 46.4538 754.79 46.6338 754.604 46.7838C754.418 46.9278 754.166 46.9998 753.848 46.9998H752.238L757.275 37.0548C757.485 36.6468 757.719 36.2958 757.977 36.0018H751.753C751.615 36.0018 751.495 35.9508 751.393 35.8488C751.291 35.7468 751.24 35.6268 751.24 35.4888V33.9858H760.234Z" fill="black"></path></g><g opacity="0.3"><path d="M831.59 33.9858H833.623C833.832 33.9858 834.006 34.0368 834.144 34.1388C834.288 34.2348 834.384 34.3668 834.432 34.5348L836.645 42.3198C836.699 42.5118 836.747 42.7218 836.789 42.9498C836.837 43.1718 836.882 43.4088 836.924 43.6608C836.971 43.4088 837.022 43.1718 837.076 42.9498C837.136 42.7218 837.199 42.5118 837.265 42.3198L839.82 34.5348C839.868 34.3968 839.961 34.2708 840.099 34.1568C840.242 34.0428 840.416 33.9858 840.62 33.9858H841.331C841.541 33.9858 841.715 34.0368 841.852 34.1388C841.99 34.2348 842.086 34.3668 842.14 34.5348L844.677 42.3198C844.809 42.7038 844.923 43.1298 845.018 43.5978C845.06 43.3638 845.102 43.1388 845.144 42.9228C845.192 42.7068 845.24 42.5058 845.288 42.3198L847.501 34.5348C847.543 34.3848 847.636 34.2558 847.78 34.1478C847.924 34.0398 848.098 33.9858 848.301 33.9858H850.199L846.161 46.9998H843.975L841.133 38.1078C841.097 37.9938 841.058 37.8708 841.016 37.7388C840.98 37.6068 840.944 37.4658 840.908 37.3158C840.872 37.4658 840.833 37.6068 840.791 37.7388C840.755 37.8708 840.719 37.9938 840.683 38.1078L837.814 46.9998H835.628L831.59 33.9858Z" fill="black"></path><path d="M855.531 47.1438C854.859 47.1438 854.244 47.0538 853.687 46.8738C853.135 46.6938 852.661 46.4388 852.266 46.1088C851.87 45.7788 851.561 45.3798 851.339 44.9118C851.123 44.4438 851.015 43.9218 851.015 43.3458C851.015 42.5778 851.204 41.9298 851.582 41.4018C851.96 40.8678 852.548 40.4718 853.345 40.2138C852.709 39.9498 852.233 39.5748 851.915 39.0888C851.603 38.6028 851.447 38.0178 851.447 37.3338C851.447 36.8418 851.546 36.3828 851.744 35.9568C851.948 35.5308 852.23 35.1618 852.59 34.8498C852.949 34.5318 853.378 34.2858 853.876 34.1118C854.379 33.9318 854.931 33.8418 855.531 33.8418C856.13 33.8418 856.679 33.9318 857.177 34.1118C857.68 34.2858 858.112 34.5318 858.472 34.8498C858.832 35.1618 859.11 35.5308 859.308 35.9568C859.512 36.3828 859.614 36.8418 859.614 37.3338C859.614 38.0178 859.455 38.6028 859.137 39.0888C858.82 39.5748 858.346 39.9498 857.716 40.2138C858.514 40.4718 859.101 40.8678 859.479 41.4018C859.857 41.9298 860.046 42.5778 860.046 43.3458C860.046 43.9218 859.935 44.4438 859.713 44.9118C859.497 45.3798 859.191 45.7788 858.796 46.1088C858.4 46.4388 857.923 46.6938 857.366 46.8738C856.814 47.0538 856.202 47.1438 855.531 47.1438ZM855.531 45.4068C855.896 45.4068 856.217 45.3558 856.493 45.2538C856.769 45.1458 857 44.9988 857.186 44.8128C857.378 44.6268 857.521 44.4048 857.617 44.1468C857.713 43.8888 857.761 43.6098 857.761 43.3098C857.761 42.5958 857.563 42.0558 857.168 41.6898C856.772 41.3238 856.226 41.1408 855.531 41.1408C854.835 41.1408 854.289 41.3238 853.894 41.6898C853.498 42.0558 853.3 42.5958 853.3 43.3098C853.3 43.6098 853.348 43.8888 853.444 44.1468C853.54 44.4048 853.681 44.6268 853.867 44.8128C854.059 44.9988 854.292 45.1458 854.568 45.2538C854.844 45.3558 855.165 45.4068 855.531 45.4068ZM855.531 39.3948C855.89 39.3948 856.193 39.3378 856.439 39.2238C856.685 39.1098 856.883 38.9598 857.033 38.7738C857.183 38.5818 857.288 38.3658 857.348 38.1258C857.414 37.8798 857.446 37.6278 857.446 37.3698C857.446 37.1238 857.408 36.8898 857.33 36.6678C857.252 36.4458 857.135 36.2508 856.979 36.0828C856.823 35.9088 856.625 35.7708 856.385 35.6688C856.145 35.5668 855.86 35.5158 855.531 35.5158C855.201 35.5158 854.916 35.5668 854.676 35.6688C854.436 35.7708 854.235 35.9088 854.074 36.0828C853.918 36.2508 853.801 36.4458 853.723 36.6678C853.651 36.8898 853.615 37.1238 853.615 37.3698C853.615 37.6278 853.645 37.8798 853.705 38.1258C853.771 38.3658 853.879 38.5818 854.029 38.7738C854.179 38.9598 854.376 39.1098 854.622 39.2238C854.868 39.3378 855.171 39.3948 855.531 39.3948Z" fill="black"></path></g><g opacity="0.3"><path d="M931.527 33.9858H933.56C933.77 33.9858 933.944 34.0368 934.082 34.1388C934.226 34.2348 934.322 34.3668 934.37 34.5348L936.582 42.3198C936.636 42.5118 936.684 42.7218 936.726 42.9498C936.774 43.1718 936.819 43.4088 936.861 43.6608C936.909 43.4088 936.96 43.1718 937.014 42.9498C937.074 42.7218 937.137 42.5118 937.203 42.3198L939.757 34.5348C939.805 34.3968 939.898 34.2708 940.036 34.1568C940.18 34.0428 940.354 33.9858 940.558 33.9858H941.268C941.478 33.9858 941.652 34.0368 941.79 34.1388C941.928 34.2348 942.024 34.3668 942.078 34.5348L944.614 42.3198C944.746 42.7038 944.86 43.1298 944.956 43.5978C944.998 43.3638 945.04 43.1388 945.082 42.9228C945.13 42.7068 945.178 42.5058 945.226 42.3198L947.438 34.5348C947.48 34.3848 947.573 34.2558 947.717 34.1478C947.861 34.0398 948.035 33.9858 948.239 33.9858H950.137L946.098 46.9998H943.913L941.07 38.1078C941.034 37.9938 940.995 37.8708 940.953 37.7388C940.917 37.6068 940.882 37.4658 940.846 37.3158C940.81 37.4658 940.771 37.6068 940.729 37.7388C940.693 37.8708 940.657 37.9938 940.621 38.1078L937.751 46.9998H935.566L931.527 33.9858Z" fill="black"></path><path d="M955.018 41.8068C954.569 41.8068 954.128 41.7288 953.696 41.5728C953.265 41.4168 952.878 41.1828 952.536 40.8708C952.2 40.5528 951.93 40.1628 951.727 39.7008C951.523 39.2328 951.421 38.6868 951.421 38.0628C951.421 37.4808 951.529 36.9348 951.745 36.4248C951.96 35.9148 952.263 35.4678 952.653 35.0838C953.043 34.6998 953.51 34.3968 954.056 34.1748C954.602 33.9528 955.204 33.8418 955.864 33.8418C956.53 33.8418 957.126 33.9468 957.654 34.1568C958.187 34.3668 958.64 34.6608 959.012 35.0388C959.39 35.4168 959.678 35.8698 959.875 36.3978C960.079 36.9258 960.181 37.5048 960.181 38.1348C960.181 38.5368 960.145 38.9178 960.073 39.2778C960.007 39.6378 959.908 39.9858 959.776 40.3218C959.651 40.6518 959.498 40.9758 959.318 41.2938C959.138 41.6058 958.937 41.9208 958.715 42.2388L955.738 46.4868C955.636 46.6308 955.483 46.7538 955.279 46.8558C955.081 46.9518 954.854 46.9998 954.596 46.9998H952.554L956.592 41.9508C956.694 41.8248 956.79 41.7018 956.88 41.5818C956.97 41.4618 957.057 41.3418 957.141 41.2218C956.841 41.4138 956.512 41.5608 956.152 41.6628C955.792 41.7588 955.414 41.8068 955.018 41.8068ZM958.05 37.9098C958.05 37.5558 957.996 37.2408 957.888 36.9648C957.78 36.6828 957.627 36.4458 957.429 36.2538C957.231 36.0618 956.994 35.9148 956.718 35.8128C956.449 35.7108 956.152 35.6598 955.828 35.6598C955.492 35.6598 955.189 35.7168 954.92 35.8308C954.65 35.9388 954.419 36.0918 954.227 36.2898C954.041 36.4878 953.897 36.7248 953.795 37.0008C953.693 37.2708 953.642 37.5678 953.642 37.8918C953.642 38.6178 953.828 39.1728 954.2 39.5568C954.578 39.9348 955.111 40.1238 955.801 40.1238C956.161 40.1238 956.479 40.0668 956.754 39.9528C957.036 39.8388 957.273 39.6828 957.465 39.4848C957.657 39.2868 957.801 39.0528 957.897 38.7828C957.999 38.5128 958.05 38.2218 958.05 37.9098Z" fill="black"></path></g><path d="M125.561 90C125.561 85.5817 129.14 82 133.556 82H317.441C321.857 82 325.436 85.5817 325.436 90V90C325.436 94.4183 321.857 98 317.441 98H133.556C129.14 98 125.561 94.4183 125.561 90V90Z" fill="#F2C94C"></path><path d="M325.436 131C325.436 126.582 329.015 123 333.431 123H617.254C621.669 123 625.249 126.582 625.249 131V131C625.249 135.418 621.669 139 617.254 139H333.431C329.015 139 325.436 135.418 325.436 131V131Z" fill="#4ADC8F"></path><path d="M625.25 172C625.25 167.582 628.829 164 633.245 164H917.068C921.484 164 925.063 167.582 925.063 172V172C925.063 176.418 921.484 180 917.068 180H633.245C628.829 180 625.25 176.418 625.25 172V172Z" fill="#43A6F6"></path><path d="M925.062 213C925.062 208.582 928.642 205 933.058 205H1017.01C1021.42 205 1025 208.582 1025 213V213C1025 217.418 1021.42 221 1017.01 221H933.058C928.642 221 925.062 217.418 925.062 213V213Z" fill="#FF5956"></path></svg> 