<?xml version="1.0" encoding="UTF-8"?> <svg xmlns="http://www.w3.org/2000/svg" xmlns:xlink="http://www.w3.org/1999/xlink" version="1.1" width="471px" height="767px" viewBox="-0.5 -0.5 471 767"><defs><style type="text/css">@import url(https://fonts.googleapis.com/css?family=Lato); </style></defs><g><path d="M 105 562 L 105 381" fill="none" stroke="#000000" stroke-width="2" stroke-miterlimit="10"></path><path d="M 304.25 761 L 304.67 381" fill="none" stroke="#000000" stroke-width="2" stroke-miterlimit="10"></path><rect x="208.75" y="705" width="181.5" height="60" fill="#4adc8f" stroke="none"></rect><rect x="208.75" y="605" width="181.5" height="60" fill="#4adc8f" stroke="none"></rect><rect x="208.75" y="505" width="181.5" height="60" fill="#4adc8f" stroke="none"></rect><rect x="208.75" y="405" width="181.5" height="60" fill="#4adc8f" stroke="none"></rect><rect x="10" y="505" width="179.5" height="60" fill="#4adc8f" stroke="none"></rect><path d="M 205 381 L 204.5 21" fill="none" stroke="#000000" stroke-width="2" stroke-miterlimit="10"></path><rect x="10" y="405" width="179.5" height="60" fill="#4adc8f" stroke="none"></rect><rect x="99" y="305" width="201" height="60" fill="#4adc8f" stroke="none"></rect><rect x="99" y="205" width="201" height="60" fill="#4adc8f" stroke="none"></rect><rect x="99" y="105" width="201" height="60" fill="#4adc8f" stroke="none"></rect><rect x="99" y="5" width="201" height="60" fill="#4adc8f" stroke="none"></rect><rect x="15" y="501" width="179.5" height="60" fill="none" stroke="#000000" stroke-width="2"></rect><rect x="15" y="401" width="179.5" height="60" fill="none" stroke="#000000" stroke-width="2"></rect><rect x="104" y="301" width="201" height="60" fill="none" stroke="#000000" stroke-width="2"></rect><rect x="104" y="201" width="201" height="60" fill="none" stroke="#000000" stroke-width="2"></rect><rect x="104" y="101" width="201" height="60" fill="none" stroke="#000000" stroke-width="2"></rect><rect x="104" y="1" width="201" height="60" fill="none" stroke="#000000" stroke-width="2"></rect><rect x="139.5" y="21" width="130" height="20" fill="none" stroke="none"></rect><g transform="translate(-0.5 -0.5)"><switch><text x="205" y="36" fill="#000000" font-family="Lato" font-size="18px" text-anchor="middle">Faster Website</text></switch></g><rect x="139.5" y="121" width="130" height="20" fill="none" stroke="none"></rect><g transform="translate(-0.5 -0.5)"><switch><text x="205" y="136" fill="#000000" font-family="Lato" font-size="18px" text-anchor="middle">Better UX</text></switch></g><rect x="119.5" y="221" width="170" height="20" fill="none" stroke="none"></rect><g transform="translate(-0.5 -0.5)"><switch><text x="205" y="236" fill="#000000" font-family="Lato" font-size="18px" text-anchor="middle">Low bounce rate</text></switch></g><rect x="99.5" y="321" width="210" height="20" fill="none" stroke="none"></rect><g transform="translate(-0.5 -0.5)"><switch><text x="205" y="336" fill="#000000" font-family="Lato" font-size="18px" text-anchor="middle">More user interaction</text></switch></g><rect x="-0.25" y="421" width="210" height="20" fill="none" stroke="none"></rect><g transform="translate(-0.5 -0.5)"><switch><text x="105" y="436" fill="#000000" font-family="Lato" font-size="18px" text-anchor="middle">Greater conversion</text></switch></g><rect x="-0.25" y="521" width="210" height="20" fill="none" stroke="none"></rect><g transform="translate(-0.5 -0.5)"><switch><text x="105" y="536" fill="#000000" font-family="Lato" font-size="18px" text-anchor="middle">Increase in sales</text></switch></g><path d="M 105 381 L 305 381" fill="none" stroke="#000000" stroke-width="2" stroke-miterlimit="10"></path><path d="M 204.5 241 L 204.5 241" fill="none" stroke="#000000" stroke-width="2" stroke-miterlimit="10"></path><path d="M 204.5 241 L 204.5 241 L 204.5 241 L 204.5 241 Z" fill="#000000" stroke="#000000" stroke-width="2" stroke-miterlimit="10"></path><rect x="213.5" y="401" width="181.5" height="60" fill="none" stroke="#000000" stroke-width="2"></rect><rect x="199.25" y="421" width="210" height="20" fill="none" stroke="none"></rect><g transform="translate(-0.5 -0.5)"><switch><text x="304" y="436" fill="#000000" font-family="Lato" font-size="18px" text-anchor="middle">Better rankings on...</text></switch></g><rect x="213.5" y="501" width="181.5" height="60" fill="none" stroke="#000000" stroke-width="2"></rect><rect x="139.5" y="521" width="330" height="20" fill="none" stroke="none"></rect><g transform="translate(-0.5 -0.5)"><switch><text x="305" y="536" fill="#000000" font-family="Lato" font-size="18px" text-anchor="middle">More lead</text></switch></g><rect x="213.5" y="601" width="181.5" height="60" fill="none" stroke="#000000" stroke-width="2"></rect><rect x="213.5" y="701" width="181.5" height="60" fill="none" stroke="#000000" stroke-width="2"></rect><rect x="139.25" y="621" width="330" height="20" fill="none" stroke="none"></rect><g transform="translate(-0.5 -0.5)"><switch><text x="304" y="636" fill="#000000" font-family="Lato" font-size="18px" text-anchor="middle">More conversion</text></switch></g><rect x="139.25" y="721" width="330" height="20" fill="none" stroke="none"></rect><g transform="translate(-0.5 -0.5)"><switch><text x="304" y="736" fill="#000000" font-family="Lato" font-size="18px" text-anchor="middle">Increase in sales</text></switch></g></g><switch><g></g><a transform="translate(0,-5)" xlink:href="https://desk.draw.io/support/solutions/articles/16000042487"><text text-anchor="middle" font-size="10px" x="50%" y="100%">Viewer does not support full SVG 1.1</text></a></switch></svg> 