<?xml version="1.0" encoding="UTF-8"?> <svg xmlns="http://www.w3.org/2000/svg" width="1671" height="459" viewBox="0 0 1671 459" fill="none"><rect y="239" width="1671" height="20" fill="url(#paint0_linear)"></rect><path d="M24.2 184.248C24.2 187.005 23.8993 189.396 23.298 191.42C22.7113 193.429 21.9047 195.094 20.878 196.414C19.8513 197.734 18.634 198.717 17.226 199.362C15.8327 200.007 14.3367 200.33 12.738 200.33C11.1247 200.33 9.62133 200.007 8.228 199.362C6.84933 198.717 5.64667 197.734 4.62 196.414C3.59333 195.094 2.78667 193.429 2.2 191.42C1.61333 189.396 1.32 187.005 1.32 184.248C1.32 181.491 1.61333 179.1 2.2 177.076C2.78667 175.052 3.59333 173.38 4.62 172.06C5.64667 170.725 6.84933 169.735 8.228 169.09C9.62133 168.445 11.1247 168.122 12.738 168.122C14.3367 168.122 15.8327 168.445 17.226 169.09C18.634 169.735 19.8513 170.725 20.878 172.06C21.9047 173.38 22.7113 175.052 23.298 177.076C23.8993 179.1 24.2 181.491 24.2 184.248ZM20.13 184.248C20.13 181.843 19.9247 179.826 19.514 178.198C19.118 176.555 18.5753 175.235 17.886 174.238C17.2113 173.241 16.4267 172.529 15.532 172.104C14.6373 171.664 13.706 171.444 12.738 171.444C11.77 171.444 10.8387 171.664 9.944 172.104C9.04933 172.529 8.26467 173.241 7.59 174.238C6.91533 175.235 6.37267 176.555 5.962 178.198C5.566 179.826 5.368 181.843 5.368 184.248C5.368 186.653 5.566 188.67 5.962 190.298C6.37267 191.926 6.91533 193.239 7.59 194.236C8.26467 195.233 9.04933 195.952 9.944 196.392C10.8387 196.817 11.77 197.03 12.738 197.03C13.706 197.03 14.6373 196.817 15.532 196.392C16.4267 195.952 17.2113 195.233 17.886 194.236C18.5753 193.239 19.118 191.926 19.514 190.298C19.9247 188.67 20.13 186.653 20.13 184.248ZM27.4594 197.58C27.4594 197.199 27.5254 196.839 27.6574 196.502C27.8041 196.165 27.9948 195.871 28.2294 195.622C28.4788 195.373 28.7721 195.175 29.1094 195.028C29.4468 194.881 29.8061 194.808 30.1874 194.808C30.5688 194.808 30.9281 194.881 31.2654 195.028C31.6028 195.175 31.8961 195.373 32.1454 195.622C32.3948 195.871 32.5854 196.165 32.7174 196.502C32.8641 196.839 32.9374 197.199 32.9374 197.58C32.9374 197.976 32.8641 198.343 32.7174 198.68C32.5854 199.003 32.3948 199.289 32.1454 199.538C31.8961 199.787 31.6028 199.978 31.2654 200.11C30.9281 200.257 30.5688 200.33 30.1874 200.33C29.8061 200.33 29.4468 200.257 29.1094 200.11C28.7721 199.978 28.4788 199.787 28.2294 199.538C27.9948 199.289 27.8041 199.003 27.6574 198.68C27.5254 198.343 27.4594 197.976 27.4594 197.58ZM56.3637 170.19C56.3637 170.747 56.1877 171.209 55.8357 171.576C55.4837 171.928 54.8897 172.104 54.0537 172.104H44.1537L42.7017 180.376C44.3443 180.024 45.8623 179.848 47.2557 179.848C48.8983 179.848 50.343 180.09 51.5897 180.574C52.851 181.058 53.907 181.725 54.7577 182.576C55.6083 183.427 56.2463 184.431 56.6717 185.59C57.1117 186.749 57.3317 188.01 57.3317 189.374C57.3317 191.046 57.0383 192.557 56.4517 193.906C55.865 195.255 55.0583 196.414 54.0317 197.382C53.0197 198.335 51.8243 199.069 50.4457 199.582C49.067 200.095 47.5783 200.352 45.9797 200.352C45.0557 200.352 44.1683 200.257 43.3177 200.066C42.467 199.89 41.675 199.648 40.9417 199.34C40.2083 199.032 39.5263 198.68 38.8957 198.284C38.265 197.888 37.7077 197.47 37.2237 197.03L38.4117 195.358C38.6757 194.977 39.0277 194.786 39.4677 194.786C39.7463 194.786 40.069 194.903 40.4357 195.138C40.817 195.358 41.2717 195.607 41.7997 195.886C42.3277 196.165 42.9437 196.421 43.6477 196.656C44.3663 196.876 45.217 196.986 46.1997 196.986C47.2997 196.986 48.2897 196.81 49.1697 196.458C50.0497 196.106 50.7977 195.607 51.4137 194.962C52.0443 194.302 52.5283 193.517 52.8657 192.608C53.203 191.699 53.3717 190.679 53.3717 189.55C53.3717 188.567 53.225 187.68 52.9317 186.888C52.653 186.096 52.2203 185.421 51.6337 184.864C51.0617 184.307 50.343 183.874 49.4777 183.566C48.6123 183.258 47.6003 183.104 46.4417 183.104C45.6497 183.104 44.8283 183.17 43.9777 183.302C43.127 183.434 42.247 183.647 41.3377 183.94L38.8737 183.214L41.4257 168.474H56.3637V170.19ZM76.3431 181.388C76.1671 181.711 75.8958 181.872 75.5291 181.872C75.3091 181.872 75.0598 181.791 74.7811 181.63C74.5024 181.469 74.1578 181.293 73.7471 181.102C73.3511 180.897 72.8744 180.713 72.3171 180.552C71.7598 180.376 71.0998 180.288 70.3371 180.288C69.6771 180.288 69.0831 180.376 68.5551 180.552C68.0271 180.713 67.5724 180.941 67.1911 181.234C66.8244 181.527 66.5384 181.872 66.3331 182.268C66.1424 182.649 66.0471 183.067 66.0471 183.522C66.0471 184.094 66.2084 184.571 66.5311 184.952C66.8684 185.333 67.3084 185.663 67.8511 185.942C68.3938 186.221 69.0098 186.47 69.6991 186.69C70.3884 186.895 71.0924 187.123 71.8111 187.372C72.5444 187.607 73.2558 187.871 73.9451 188.164C74.6344 188.457 75.2504 188.824 75.7931 189.264C76.3358 189.704 76.7684 190.247 77.0911 190.892C77.4284 191.523 77.5971 192.285 77.5971 193.18C77.5971 194.207 77.4138 195.16 77.0471 196.04C76.6804 196.905 76.1378 197.661 75.4191 198.306C74.7004 198.937 73.8204 199.435 72.7791 199.802C71.7378 200.169 70.5351 200.352 69.1711 200.352C67.6164 200.352 66.2084 200.103 64.9471 199.604C63.6858 199.091 62.6151 198.438 61.7351 197.646L62.6591 196.15C62.7764 195.959 62.9158 195.813 63.0771 195.71C63.2384 195.607 63.4511 195.556 63.7151 195.556C63.9791 195.556 64.2578 195.659 64.5511 195.864C64.8444 196.069 65.1964 196.297 65.6071 196.546C66.0324 196.795 66.5384 197.023 67.1251 197.228C67.7264 197.433 68.4744 197.536 69.3691 197.536C70.1318 197.536 70.7991 197.441 71.3711 197.25C71.9431 197.045 72.4198 196.773 72.8011 196.436C73.1824 196.099 73.4611 195.71 73.6371 195.27C73.8278 194.83 73.9231 194.361 73.9231 193.862C73.9231 193.246 73.7544 192.74 73.4171 192.344C73.0944 191.933 72.6618 191.589 72.1191 191.31C71.5764 191.017 70.9531 190.767 70.2491 190.562C69.5598 190.342 68.8484 190.115 68.1151 189.88C67.3964 189.645 66.6851 189.381 65.9811 189.088C65.2918 188.78 64.6758 188.399 64.1331 187.944C63.5904 187.489 63.1504 186.932 62.8131 186.272C62.4904 185.597 62.3291 184.783 62.3291 183.83C62.3291 182.979 62.5051 182.165 62.8571 181.388C63.2091 180.596 63.7224 179.907 64.3971 179.32C65.0718 178.719 65.9004 178.242 66.8831 177.89C67.8658 177.538 68.9878 177.362 70.2491 177.362C71.7158 177.362 73.0284 177.597 74.1871 178.066C75.3604 178.521 76.3724 179.151 77.2231 179.958L76.3431 181.388Z" fill="black"></path><path d="M40.6245 33.8405C40.6245 36.6495 40.1563 39.2553 39.22 41.658C38.2837 44.043 36.9675 46.11 35.2715 47.859C33.5755 49.608 31.535 50.9772 29.15 51.9665C26.765 52.9382 24.1238 53.424 21.2265 53.424C18.3292 53.424 15.6792 52.9382 13.2765 51.9665C10.8915 50.9772 8.84217 49.608 7.1285 47.859C5.4325 46.11 4.11633 44.043 3.18 41.658C2.24367 39.2553 1.7755 36.6495 1.7755 33.8405C1.7755 31.0315 2.24367 28.4345 3.18 26.0495C4.11633 23.6468 5.4325 21.571 7.1285 19.822C8.84217 18.073 10.8915 16.7127 13.2765 15.741C15.6792 14.7517 18.3292 14.257 21.2265 14.257C24.1238 14.257 26.765 14.7517 29.15 15.741C31.535 16.7303 33.5755 18.0995 35.2715 19.8485C36.9675 21.5798 38.2837 23.6468 39.22 26.0495C40.1563 28.4345 40.6245 31.0315 40.6245 33.8405ZM33.3105 33.8405C33.3105 31.7382 33.0278 29.8567 32.4625 28.196C31.9148 26.5177 31.1198 25.0955 30.0775 23.9295C29.0352 22.7635 27.7632 21.8713 26.2615 21.253C24.7775 20.6347 23.0992 20.3255 21.2265 20.3255C19.3538 20.3255 17.6667 20.6347 16.165 21.253C14.6633 21.8713 13.3825 22.7635 12.3225 23.9295C11.2802 25.0955 10.4763 26.5177 9.911 28.196C9.34567 29.8567 9.063 31.7382 9.063 33.8405C9.063 35.9428 9.34567 37.8332 9.911 39.5115C10.4763 41.1722 11.2802 42.5855 12.3225 43.7515C13.3825 44.8998 14.6633 45.7832 16.165 46.4015C17.6667 47.0198 19.3538 47.329 21.2265 47.329C23.0992 47.329 24.7775 47.0198 26.2615 46.4015C27.7632 45.7832 29.0352 44.8998 30.0775 43.7515C31.1198 42.5855 31.9148 41.1722 32.4625 39.5115C33.0278 37.8332 33.3105 35.9428 33.3105 33.8405ZM45.8876 61.8775V25.811H49.8891C50.3131 25.811 50.6753 25.9082 50.9756 26.1025C51.276 26.2968 51.4703 26.5972 51.5586 27.0035L52.0886 29.521C53.184 28.2667 54.4383 27.2508 55.8516 26.4735C57.2826 25.6962 58.9521 25.3075 60.8601 25.3075C62.3441 25.3075 63.6956 25.6167 64.9146 26.235C66.1513 26.8533 67.2113 27.7543 68.0946 28.938C68.9956 30.104 69.6846 31.5527 70.1617 33.284C70.6563 34.9977 70.9037 36.9675 70.9037 39.1935C70.9037 41.2252 70.6298 43.1067 70.0822 44.838C69.5345 46.5693 68.7483 48.071 67.7236 49.343C66.7166 50.615 65.4888 51.6132 64.0401 52.3375C62.6091 53.0442 61.0015 53.3975 59.2171 53.3975C57.6801 53.3975 56.3728 53.1678 55.2951 52.7085C54.2351 52.2315 53.2811 51.5778 52.4331 50.7475V61.8775H45.8876ZM58.6076 30.475C57.2473 30.475 56.0813 30.7665 55.1096 31.3495C54.1556 31.9148 53.2635 32.7187 52.4331 33.761V45.951C53.1751 46.8697 53.979 47.5145 54.8446 47.8855C55.728 48.2388 56.6731 48.4155 57.6801 48.4155C58.6695 48.4155 59.5616 48.23 60.3566 47.859C61.1693 47.488 61.8495 46.9227 62.3971 46.163C62.9625 45.4033 63.3953 44.4493 63.6956 43.301C63.996 42.135 64.1461 40.7658 64.1461 39.1935C64.1461 37.6035 64.0136 36.2608 63.7486 35.1655C63.5013 34.0525 63.1391 33.1515 62.6621 32.4625C62.1851 31.7735 61.6021 31.27 60.9132 30.952C60.2418 30.634 59.4733 30.475 58.6076 30.475ZM84.7859 53.424C82.4363 53.424 80.6254 52.7615 79.3534 51.4365C78.0814 50.0938 77.4454 48.2477 77.4454 45.898V30.7135H74.6894C74.3361 30.7135 74.0269 30.5987 73.7619 30.369C73.5146 30.1393 73.3909 29.7948 73.3909 29.3355V26.7385L77.7634 26.023L79.1414 18.603C79.2121 18.2497 79.3711 17.9758 79.6184 17.7815C79.8834 17.5872 80.2103 17.49 80.5989 17.49H83.9909V26.0495H91.1459V30.7135H83.9909V45.4475C83.9909 46.2955 84.2029 46.958 84.6269 47.435C85.0509 47.912 85.6163 48.1505 86.3229 48.1505C86.7293 48.1505 87.0649 48.1063 87.3299 48.018C87.6126 47.912 87.8511 47.806 88.0454 47.7C88.2574 47.594 88.4429 47.4968 88.6019 47.4085C88.7609 47.3025 88.9199 47.2495 89.0789 47.2495C89.2733 47.2495 89.4323 47.3025 89.5559 47.4085C89.6796 47.4968 89.8121 47.6382 89.9534 47.8325L91.9144 51.0125C90.9604 51.8075 89.8651 52.4082 88.6284 52.8145C87.3918 53.2208 86.1109 53.424 84.7859 53.424ZM103.321 25.811V53H96.7755V25.811H103.321ZM104.302 17.8875C104.302 18.4528 104.187 18.9828 103.957 19.4775C103.727 19.9722 103.418 20.405 103.03 20.776C102.659 21.147 102.217 21.4473 101.705 21.677C101.192 21.889 100.645 21.995 100.062 21.995C99.4962 21.995 98.9573 21.889 98.445 21.677C97.9503 21.4473 97.5175 21.147 97.1465 20.776C96.7755 20.405 96.4752 19.9722 96.2455 19.4775C96.0335 18.9828 95.9275 18.4528 95.9275 17.8875C95.9275 17.3045 96.0335 16.7568 96.2455 16.2445C96.4752 15.7322 96.7755 15.2905 97.1465 14.9195C97.5175 14.5485 97.9503 14.257 98.445 14.045C98.9573 13.8153 99.4962 13.7005 100.062 13.7005C100.645 13.7005 101.192 13.8153 101.705 14.045C102.217 14.257 102.659 14.5485 103.03 14.9195C103.418 15.2905 103.727 15.7322 103.957 16.2445C104.187 16.7568 104.302 17.3045 104.302 17.8875ZM110.74 53V25.811H114.742C115.59 25.811 116.146 26.2085 116.411 27.0035L116.835 29.0175C117.312 28.4875 117.807 28.0017 118.319 27.56C118.849 27.1183 119.406 26.7385 119.989 26.4205C120.589 26.1025 121.225 25.8552 121.897 25.6785C122.586 25.4842 123.337 25.387 124.149 25.387C125.863 25.387 127.267 25.8552 128.363 26.7915C129.476 27.7102 130.306 28.938 130.854 30.475C131.278 29.574 131.808 28.8055 132.444 28.1695C133.08 27.5158 133.778 26.9858 134.537 26.5795C135.297 26.1732 136.101 25.8728 136.949 25.6785C137.814 25.4842 138.68 25.387 139.546 25.387C141.047 25.387 142.381 25.6167 143.547 26.076C144.713 26.5353 145.694 27.2067 146.489 28.09C147.284 28.9733 147.884 30.051 148.291 31.323C148.715 32.595 148.927 34.0525 148.927 35.6955V53H142.381V35.6955C142.381 33.9642 142.001 32.6657 141.242 31.8C140.482 30.9167 139.369 30.475 137.903 30.475C137.231 30.475 136.604 30.5898 136.021 30.8195C135.456 31.0492 134.952 31.3848 134.511 31.8265C134.087 32.2505 133.751 32.7893 133.504 33.443C133.256 34.0967 133.133 34.8475 133.133 35.6955V53H126.561V35.6955C126.561 33.8758 126.19 32.5508 125.448 31.7205C124.723 30.8902 123.646 30.475 122.215 30.475C121.278 30.475 120.395 30.7135 119.565 31.1905C118.752 31.6498 117.992 32.2858 117.286 33.0985V53H110.74ZM176.661 53H173.72C173.102 53 172.616 52.9117 172.262 52.735C171.909 52.5407 171.644 52.1608 171.467 51.5955L170.884 49.661C170.195 50.2793 169.515 50.827 168.844 51.304C168.19 51.7633 167.51 52.152 166.803 52.47C166.097 52.788 165.346 53.0265 164.551 53.1855C163.756 53.3445 162.873 53.424 161.901 53.424C160.753 53.424 159.693 53.2738 158.721 52.9735C157.749 52.6555 156.91 52.1873 156.203 51.569C155.514 50.9507 154.976 50.1822 154.587 49.2635C154.198 48.3448 154.004 47.276 154.004 46.057C154.004 45.0323 154.269 44.0253 154.799 43.036C155.347 42.029 156.248 41.128 157.502 40.333C158.756 39.5203 160.426 38.849 162.51 38.319C164.595 37.789 167.183 37.4887 170.275 37.418V35.828C170.275 34.0083 169.886 32.6657 169.109 31.8C168.349 30.9167 167.236 30.475 165.77 30.475C164.71 30.475 163.827 30.5987 163.12 30.846C162.413 31.0933 161.795 31.376 161.265 31.694C160.753 31.9943 160.276 32.2682 159.834 32.5155C159.392 32.7628 158.906 32.8865 158.376 32.8865C157.935 32.8865 157.555 32.7717 157.237 32.542C156.919 32.3123 156.663 32.0297 156.468 31.694L155.276 29.6005C158.403 26.7385 162.175 25.3075 166.591 25.3075C168.181 25.3075 169.595 25.5725 170.831 26.1025C172.086 26.6148 173.146 27.3392 174.011 28.2755C174.877 29.1942 175.531 30.2983 175.972 31.588C176.432 32.8777 176.661 34.291 176.661 35.828V53ZM163.941 48.919C164.613 48.919 165.231 48.8572 165.796 48.7335C166.362 48.6098 166.892 48.4243 167.386 48.177C167.899 47.9297 168.385 47.6293 168.844 47.276C169.321 46.905 169.798 46.4722 170.275 45.9775V41.393C168.367 41.4813 166.768 41.6492 165.478 41.8965C164.206 42.1262 163.182 42.4265 162.404 42.7975C161.627 43.1685 161.071 43.6013 160.735 44.096C160.417 44.5907 160.258 45.1295 160.258 45.7125C160.258 46.8608 160.594 47.6823 161.265 48.177C161.954 48.6717 162.846 48.919 163.941 48.919ZM190.067 13.621V53H183.522V13.621H190.067ZM204.422 25.811H209.616C210.11 25.811 210.526 25.9258 210.861 26.1555C211.197 26.3852 211.409 26.6767 211.497 27.03L215.393 41.552C215.605 42.347 215.773 43.1243 215.896 43.884C216.038 44.6437 216.17 45.4033 216.294 46.163C216.488 45.4033 216.691 44.6437 216.903 43.884C217.133 43.1243 217.371 42.347 217.619 41.552L222.124 26.977C222.23 26.6237 222.442 26.3322 222.76 26.1025C223.078 25.8728 223.449 25.758 223.873 25.758H226.761C227.238 25.758 227.636 25.8728 227.954 26.1025C228.272 26.3322 228.484 26.6237 228.59 26.977L233.042 41.817C233.271 42.5767 233.475 43.3187 233.651 44.043C233.846 44.7497 234.031 45.4652 234.208 46.1895C234.331 45.4298 234.464 44.6702 234.605 43.9105C234.764 43.1508 234.959 42.3647 235.188 41.552L239.216 27.03C239.305 26.6767 239.517 26.3852 239.852 26.1555C240.188 25.9258 240.577 25.811 241.018 25.811H245.974L237.361 53H232.088C231.522 53 231.116 52.6113 230.869 51.834L225.966 36.1195C225.807 35.6072 225.657 35.0948 225.516 34.5825C225.392 34.0525 225.286 33.5313 225.198 33.019C225.092 33.549 224.977 34.079 224.853 34.609C224.73 35.1213 224.588 35.6425 224.429 36.1725L219.474 51.834C219.226 52.6113 218.749 53 218.043 53H213.034L204.422 25.811ZM260.894 25.387C262.608 25.387 264.18 25.6608 265.611 26.2085C267.06 26.7562 268.305 27.56 269.348 28.62C270.39 29.6623 271.203 30.952 271.786 32.489C272.369 34.0083 272.66 35.7485 272.66 37.7095C272.66 38.2042 272.634 38.6193 272.581 38.955C272.545 39.273 272.466 39.5292 272.342 39.7235C272.236 39.9002 272.086 40.0327 271.892 40.121C271.697 40.1917 271.45 40.227 271.15 40.227H254.349C254.543 43.0183 255.294 45.0677 256.601 46.375C257.908 47.6823 259.64 48.336 261.795 48.336C262.855 48.336 263.765 48.2123 264.525 47.965C265.302 47.7177 265.973 47.4438 266.539 47.1435C267.122 46.8432 267.625 46.5693 268.049 46.322C268.491 46.0747 268.915 45.951 269.321 45.951C269.586 45.951 269.816 46.004 270.01 46.11C270.204 46.216 270.372 46.3662 270.514 46.5605L272.422 48.9455C271.697 49.7935 270.885 50.509 269.984 51.092C269.083 51.6573 268.137 52.1167 267.148 52.47C266.176 52.8057 265.178 53.0442 264.154 53.1855C263.147 53.3268 262.166 53.3975 261.212 53.3975C259.322 53.3975 257.564 53.0883 255.939 52.47C254.313 51.834 252.9 50.9065 251.699 49.6875C250.497 48.4508 249.552 46.9315 248.863 45.1295C248.174 43.3098 247.83 41.2075 247.83 38.8225C247.83 36.9675 248.13 35.2273 248.731 33.602C249.331 31.959 250.188 30.5368 251.301 29.3355C252.432 28.1165 253.801 27.1537 255.409 26.447C257.034 25.7403 258.862 25.387 260.894 25.387ZM261.027 30.0775C259.119 30.0775 257.626 30.6163 256.548 31.694C255.47 32.7717 254.781 34.2998 254.481 36.2785H266.777C266.777 35.4305 266.662 34.6355 266.433 33.8935C266.203 33.1338 265.85 32.4713 265.373 31.906C264.896 31.3407 264.295 30.899 263.571 30.581C262.846 30.2453 261.998 30.0775 261.027 30.0775ZM278.049 53V13.621H284.595V29.15C285.672 28.0017 286.891 27.0918 288.252 26.4205C289.612 25.7315 291.202 25.387 293.022 25.387C294.506 25.387 295.857 25.6962 297.076 26.3145C298.313 26.9152 299.373 27.7985 300.256 28.9645C301.157 30.1305 301.846 31.5703 302.323 33.284C302.818 34.9977 303.065 36.9675 303.065 39.1935C303.065 41.2252 302.791 43.1067 302.244 44.838C301.696 46.5693 300.91 48.071 299.885 49.343C298.878 50.615 297.65 51.6132 296.202 52.3375C294.771 53.0442 293.163 53.3975 291.379 53.3975C290.548 53.3975 289.789 53.3092 289.1 53.1325C288.411 52.9735 287.784 52.7438 287.218 52.4435C286.653 52.1432 286.123 51.781 285.628 51.357C285.151 50.9153 284.692 50.4295 284.25 49.8995L283.959 51.728C283.853 52.1873 283.667 52.5142 283.402 52.7085C283.155 52.9028 282.81 53 282.369 53H278.049ZM290.769 30.475C289.409 30.475 288.243 30.7665 287.271 31.3495C286.317 31.9148 285.425 32.7187 284.595 33.761V45.951C285.337 46.8697 286.141 47.5145 287.006 47.8855C287.89 48.2388 288.844 48.4155 289.868 48.4155C290.858 48.4155 291.75 48.23 292.545 47.859C293.34 47.488 294.011 46.9227 294.559 46.163C295.124 45.4033 295.557 44.4493 295.857 43.301C296.158 42.135 296.308 40.7658 296.308 39.1935C296.308 37.6035 296.175 36.2608 295.91 35.1655C295.663 34.0525 295.301 33.1515 294.824 32.4625C294.347 31.7735 293.764 31.27 293.075 30.952C292.403 30.634 291.635 30.475 290.769 30.475ZM324.335 31.111C324.158 31.3937 323.973 31.5968 323.778 31.7205C323.584 31.8265 323.337 31.8795 323.036 31.8795C322.718 31.8795 322.374 31.7912 322.003 31.6145C321.649 31.4378 321.234 31.2435 320.757 31.0315C320.28 30.8018 319.733 30.5987 319.114 30.422C318.514 30.2453 317.798 30.157 316.968 30.157C315.678 30.157 314.662 30.4308 313.92 30.9785C313.178 31.5262 312.807 32.2417 312.807 33.125C312.807 33.708 312.993 34.2027 313.364 34.609C313.752 34.9977 314.256 35.3422 314.874 35.6425C315.51 35.9428 316.226 36.2167 317.021 36.464C317.816 36.6937 318.628 36.9498 319.459 37.2325C320.289 37.5152 321.102 37.842 321.897 38.213C322.692 38.5663 323.398 39.0257 324.017 39.591C324.653 40.1387 325.156 40.8012 325.527 41.5785C325.916 42.3558 326.11 43.2922 326.11 44.3875C326.11 45.6948 325.872 46.905 325.395 48.018C324.918 49.1133 324.22 50.0673 323.301 50.88C322.383 51.675 321.243 52.3022 319.883 52.7615C318.54 53.2032 316.994 53.424 315.245 53.424C314.309 53.424 313.39 53.3357 312.489 53.159C311.606 53 310.749 52.7703 309.919 52.47C309.106 52.1697 308.346 51.8163 307.64 51.41C306.951 51.0037 306.341 50.562 305.811 50.085L307.322 47.594C307.516 47.2937 307.746 47.064 308.011 46.905C308.276 46.746 308.611 46.6665 309.018 46.6665C309.424 46.6665 309.804 46.7813 310.157 47.011C310.528 47.2407 310.952 47.488 311.429 47.753C311.906 48.018 312.463 48.2653 313.099 48.495C313.752 48.7247 314.574 48.8395 315.563 48.8395C316.341 48.8395 317.003 48.7512 317.551 48.5745C318.116 48.3802 318.575 48.1328 318.929 47.8325C319.3 47.5322 319.565 47.1877 319.724 46.799C319.9 46.3927 319.989 45.9775 319.989 45.5535C319.989 44.9175 319.794 44.3963 319.406 43.99C319.035 43.5837 318.531 43.2303 317.895 42.93C317.277 42.6297 316.561 42.3647 315.749 42.135C314.954 41.8877 314.132 41.6227 313.284 41.34C312.454 41.0573 311.632 40.7305 310.82 40.3595C310.025 39.9708 309.309 39.485 308.673 38.902C308.055 38.319 307.551 37.6035 307.163 36.7555C306.792 35.9075 306.606 34.8828 306.606 33.6815C306.606 32.5685 306.827 31.5085 307.269 30.5015C307.71 29.4945 308.355 28.62 309.203 27.878C310.069 27.1183 311.138 26.5177 312.41 26.076C313.699 25.6167 315.183 25.387 316.862 25.387C318.734 25.387 320.439 25.6962 321.976 26.3145C323.513 26.9328 324.794 27.7455 325.819 28.7525L324.335 31.111ZM338.301 25.811V53H331.756V25.811H338.301ZM339.282 17.8875C339.282 18.4528 339.167 18.9828 338.937 19.4775C338.708 19.9722 338.399 20.405 338.01 20.776C337.639 21.147 337.197 21.4473 336.685 21.677C336.173 21.889 335.625 21.995 335.042 21.995C334.477 21.995 333.938 21.889 333.425 21.677C332.931 21.4473 332.498 21.147 332.127 20.776C331.756 20.405 331.456 19.9722 331.226 19.4775C331.014 18.9828 330.908 18.4528 330.908 17.8875C330.908 17.3045 331.014 16.7568 331.226 16.2445C331.456 15.7322 331.756 15.2905 332.127 14.9195C332.498 14.5485 332.931 14.257 333.425 14.045C333.938 13.8153 334.477 13.7005 335.042 13.7005C335.625 13.7005 336.173 13.8153 336.685 14.045C337.197 14.257 337.639 14.5485 338.01 14.9195C338.399 15.2905 338.708 15.7322 338.937 16.2445C339.167 16.7568 339.282 17.3045 339.282 17.8875ZM354.651 53.424C352.301 53.424 350.491 52.7615 349.219 51.4365C347.947 50.0938 347.311 48.2477 347.311 45.898V30.7135H344.555C344.201 30.7135 343.892 30.5987 343.627 30.369C343.38 30.1393 343.256 29.7948 343.256 29.3355V26.7385L347.629 26.023L349.007 18.603C349.077 18.2497 349.236 17.9758 349.484 17.7815C349.749 17.5872 350.075 17.49 350.464 17.49H353.856V26.0495H361.011V30.7135H353.856V45.4475C353.856 46.2955 354.068 46.958 354.492 47.435C354.916 47.912 355.481 48.1505 356.188 48.1505C356.594 48.1505 356.93 48.1063 357.195 48.018C357.478 47.912 357.716 47.806 357.911 47.7C358.123 47.594 358.308 47.4968 358.467 47.4085C358.626 47.3025 358.785 47.2495 358.944 47.2495C359.138 47.2495 359.297 47.3025 359.421 47.4085C359.545 47.4968 359.677 47.6382 359.819 47.8325L361.78 51.0125C360.826 51.8075 359.73 52.4082 358.494 52.8145C357.257 53.2208 355.976 53.424 354.651 53.424ZM377.453 25.387C379.166 25.387 380.739 25.6608 382.17 26.2085C383.618 26.7562 384.864 27.56 385.906 28.62C386.949 29.6623 387.761 30.952 388.344 32.489C388.927 34.0083 389.219 35.7485 389.219 37.7095C389.219 38.2042 389.192 38.6193 389.139 38.955C389.104 39.273 389.024 39.5292 388.901 39.7235C388.795 39.9002 388.645 40.0327 388.45 40.121C388.256 40.1917 388.009 40.227 387.708 40.227H370.907C371.102 43.0183 371.852 45.0677 373.16 46.375C374.467 47.6823 376.198 48.336 378.354 48.336C379.414 48.336 380.324 48.2123 381.083 47.965C381.861 47.7177 382.532 47.4438 383.097 47.1435C383.68 46.8432 384.184 46.5693 384.608 46.322C385.049 46.0747 385.473 45.951 385.88 45.951C386.145 45.951 386.374 46.004 386.569 46.11C386.763 46.216 386.931 46.3662 387.072 46.5605L388.98 48.9455C388.256 49.7935 387.443 50.509 386.542 51.092C385.641 51.6573 384.696 52.1167 383.707 52.47C382.735 52.8057 381.737 53.0442 380.712 53.1855C379.705 53.3268 378.725 53.3975 377.771 53.3975C375.88 53.3975 374.123 53.0883 372.497 52.47C370.872 51.834 369.459 50.9065 368.257 49.6875C367.056 48.4508 366.111 46.9315 365.422 45.1295C364.733 43.3098 364.388 41.2075 364.388 38.8225C364.388 36.9675 364.689 35.2273 365.289 33.602C365.89 31.959 366.747 30.5368 367.86 29.3355C368.99 28.1165 370.36 27.1537 371.967 26.447C373.593 25.7403 375.421 25.387 377.453 25.387ZM377.585 30.0775C375.677 30.0775 374.184 30.6163 373.107 31.694C372.029 32.7717 371.34 34.2998 371.04 36.2785H383.336C383.336 35.4305 383.221 34.6355 382.991 33.8935C382.762 33.1338 382.408 32.4713 381.931 31.906C381.454 31.3407 380.854 30.899 380.129 30.581C379.405 30.2453 378.557 30.0775 377.585 30.0775ZM411.746 13.621V53H405.2V13.621H411.746ZM430.772 25.387C432.804 25.387 434.641 25.7138 436.284 26.3675C437.945 27.0212 439.358 27.9487 440.524 29.15C441.69 30.3513 442.591 31.8177 443.227 33.549C443.863 35.2803 444.181 37.2148 444.181 39.3525C444.181 41.5078 443.863 43.4512 443.227 45.1825C442.591 46.9138 441.69 48.389 440.524 49.608C439.358 50.827 437.945 51.7633 436.284 52.417C434.641 53.0707 432.804 53.3975 430.772 53.3975C428.74 53.3975 426.894 53.0707 425.233 52.417C423.573 51.7633 422.151 50.827 420.967 49.608C419.801 48.389 418.891 46.9138 418.237 45.1825C417.601 43.4512 417.283 41.5078 417.283 39.3525C417.283 37.2148 417.601 35.2803 418.237 33.549C418.891 31.8177 419.801 30.3513 420.967 29.15C422.151 27.9487 423.573 27.0212 425.233 26.3675C426.894 25.7138 428.74 25.387 430.772 25.387ZM430.772 48.3625C433.033 48.3625 434.703 47.6028 435.78 46.0835C436.876 44.5642 437.423 42.3382 437.423 39.4055C437.423 36.4728 436.876 34.238 435.78 32.701C434.703 31.164 433.033 30.3955 430.772 30.3955C428.475 30.3955 426.779 31.1728 425.684 32.7275C424.589 34.2645 424.041 36.4905 424.041 39.4055C424.041 42.3205 424.589 44.5465 425.684 46.0835C426.779 47.6028 428.475 48.3625 430.772 48.3625ZM470.594 53H467.653C467.034 53 466.548 52.9117 466.195 52.735C465.842 52.5407 465.577 52.1608 465.4 51.5955L464.817 49.661C464.128 50.2793 463.448 50.827 462.777 51.304C462.123 51.7633 461.443 52.152 460.736 52.47C460.029 52.788 459.279 53.0265 458.484 53.1855C457.689 53.3445 456.805 53.424 455.834 53.424C454.685 53.424 453.625 53.2738 452.654 52.9735C451.682 52.6555 450.843 52.1873 450.136 51.569C449.447 50.9507 448.908 50.1822 448.52 49.2635C448.131 48.3448 447.937 47.276 447.937 46.057C447.937 45.0323 448.202 44.0253 448.732 43.036C449.279 42.029 450.18 41.128 451.435 40.333C452.689 39.5203 454.358 38.849 456.443 38.319C458.528 37.789 461.116 37.4887 464.208 37.418V35.828C464.208 34.0083 463.819 32.6657 463.042 31.8C462.282 30.9167 461.169 30.475 459.703 30.475C458.643 30.475 457.759 30.5987 457.053 30.846C456.346 31.0933 455.728 31.376 455.198 31.694C454.685 31.9943 454.208 32.2682 453.767 32.5155C453.325 32.7628 452.839 32.8865 452.309 32.8865C451.867 32.8865 451.488 32.7717 451.17 32.542C450.852 32.3123 450.595 32.0297 450.401 31.694L449.209 29.6005C452.336 26.7385 456.107 25.3075 460.524 25.3075C462.114 25.3075 463.527 25.5725 464.764 26.1025C466.018 26.6148 467.078 27.3392 467.944 28.2755C468.81 29.1942 469.463 30.2983 469.905 31.588C470.364 32.8777 470.594 34.291 470.594 35.828V53ZM457.874 48.919C458.545 48.919 459.164 48.8572 459.729 48.7335C460.294 48.6098 460.824 48.4243 461.319 48.177C461.831 47.9297 462.317 47.6293 462.777 47.276C463.254 46.905 463.731 46.4722 464.208 45.9775V41.393C462.3 41.4813 460.701 41.6492 459.411 41.8965C458.139 42.1262 457.114 42.4265 456.337 42.7975C455.56 43.1685 455.003 43.6013 454.668 44.096C454.35 44.5907 454.191 45.1295 454.191 45.7125C454.191 46.8608 454.526 47.6823 455.198 48.177C455.887 48.6717 456.779 48.919 457.874 48.919ZM496.163 53C495.315 53 494.759 52.6025 494.494 51.8075L493.964 49.184C493.398 49.82 492.807 50.3942 492.188 50.9065C491.57 51.4188 490.899 51.8605 490.174 52.2315C489.468 52.6025 488.699 52.8852 487.869 53.0795C487.056 53.2915 486.173 53.3975 485.219 53.3975C483.735 53.3975 482.374 53.0883 481.138 52.47C479.901 51.8517 478.832 50.9595 477.931 49.7935C477.048 48.6098 476.359 47.1523 475.864 45.421C475.387 43.6897 475.149 41.711 475.149 39.485C475.149 37.471 475.423 35.5983 475.97 33.867C476.518 32.1357 477.304 30.634 478.329 29.362C479.353 28.09 480.581 27.1007 482.012 26.394C483.443 25.6697 485.051 25.3075 486.835 25.3075C488.355 25.3075 489.653 25.5548 490.731 26.0495C491.808 26.5265 492.771 27.1713 493.619 27.984V13.621H500.165V53H496.163ZM487.445 48.2035C488.805 48.2035 489.962 47.9208 490.916 47.3555C491.87 46.7902 492.771 45.9863 493.619 44.944V32.754C492.877 31.853 492.065 31.217 491.181 30.846C490.316 30.475 489.379 30.2895 488.372 30.2895C487.383 30.2895 486.482 30.475 485.669 30.846C484.874 31.217 484.194 31.7823 483.629 32.542C483.081 33.284 482.657 34.238 482.357 35.404C482.056 36.5523 481.906 37.9127 481.906 39.485C481.906 41.075 482.03 42.4265 482.277 43.5395C482.542 44.6348 482.913 45.5358 483.39 46.2425C483.867 46.9315 484.45 47.435 485.139 47.753C485.828 48.0533 486.597 48.2035 487.445 48.2035ZM514.226 25.811V53H507.681V25.811H514.226ZM515.207 17.8875C515.207 18.4528 515.092 18.9828 514.862 19.4775C514.633 19.9722 514.323 20.405 513.935 20.776C513.564 21.147 513.122 21.4473 512.61 21.677C512.097 21.889 511.55 21.995 510.967 21.995C510.401 21.995 509.863 21.889 509.35 21.677C508.856 21.4473 508.423 21.147 508.052 20.776C507.681 20.405 507.38 19.9722 507.151 19.4775C506.939 18.9828 506.833 18.4528 506.833 17.8875C506.833 17.3045 506.939 16.7568 507.151 16.2445C507.38 15.7322 507.681 15.2905 508.052 14.9195C508.423 14.5485 508.856 14.257 509.35 14.045C509.863 13.8153 510.401 13.7005 510.967 13.7005C511.55 13.7005 512.097 13.8153 512.61 14.045C513.122 14.257 513.564 14.5485 513.935 14.9195C514.323 15.2905 514.633 15.7322 514.862 16.2445C515.092 16.7568 515.207 17.3045 515.207 17.8875ZM521.645 53V25.811H525.647C526.495 25.811 527.051 26.2085 527.316 27.0035L527.767 29.15C528.315 28.5847 528.889 28.0723 529.489 27.613C530.108 27.1537 530.753 26.7562 531.424 26.4205C532.113 26.0848 532.846 25.8287 533.623 25.652C534.401 25.4753 535.249 25.387 536.167 25.387C537.651 25.387 538.968 25.6432 540.116 26.1555C541.264 26.6502 542.218 27.3568 542.978 28.2755C543.755 29.1765 544.338 30.263 544.727 31.535C545.133 32.7893 545.336 34.1762 545.336 35.6955V53H538.791V35.6955C538.791 34.0348 538.402 32.754 537.625 31.853C536.865 30.9343 535.717 30.475 534.18 30.475C533.049 30.475 531.989 30.7312 531 31.2435C530.011 31.7558 529.074 32.4537 528.191 33.337V53H521.645ZM561.176 25.334C562.342 25.334 563.437 25.4577 564.462 25.705C565.487 25.9347 566.423 26.2792 567.271 26.7385H575.089V29.1765C575.089 29.5828 574.983 29.9008 574.771 30.1305C574.559 30.3602 574.196 30.5192 573.684 30.6075L571.246 31.058C571.423 31.5173 571.555 32.0032 571.644 32.5155C571.75 33.0278 571.803 33.5667 571.803 34.132C571.803 35.4747 571.529 36.6937 570.981 37.789C570.451 38.8667 569.709 39.7853 568.755 40.545C567.819 41.3047 566.697 41.8965 565.39 42.3205C564.1 42.7268 562.695 42.93 561.176 42.93C560.151 42.93 559.153 42.8328 558.182 42.6385C557.334 43.1508 556.91 43.725 556.91 44.361C556.91 44.9087 557.157 45.315 557.652 45.58C558.164 45.8273 558.826 46.004 559.639 46.11C560.469 46.216 561.406 46.2867 562.448 46.322C563.49 46.3397 564.559 46.3927 565.655 46.481C566.75 46.5693 567.819 46.7283 568.861 46.958C569.903 47.17 570.831 47.5145 571.644 47.9915C572.474 48.4685 573.136 49.1222 573.631 49.9525C574.143 50.7652 574.4 51.8163 574.4 53.106C574.4 54.3073 574.099 55.4733 573.499 56.604C572.916 57.7347 572.059 58.7417 570.928 59.625C569.815 60.5083 568.446 61.215 566.821 61.745C565.195 62.2927 563.34 62.5665 561.256 62.5665C559.189 62.5665 557.395 62.3633 555.876 61.957C554.357 61.5683 553.094 61.0383 552.087 60.367C551.097 59.7133 550.355 58.9537 549.861 58.088C549.366 57.2223 549.119 56.3213 549.119 55.385C549.119 54.113 549.507 53.0442 550.285 52.1785C551.062 51.3128 552.14 50.6238 553.518 50.1115C552.846 49.7405 552.307 49.2458 551.901 48.6275C551.495 48.0092 551.292 47.2053 551.292 46.216C551.292 45.8097 551.362 45.3945 551.504 44.9705C551.645 44.5288 551.857 44.096 552.14 43.672C552.44 43.248 552.811 42.8505 553.253 42.4795C553.694 42.0908 554.215 41.7463 554.816 41.446C553.438 40.704 552.352 39.7147 551.557 38.478C550.779 37.2413 550.391 35.7927 550.391 34.132C550.391 32.7893 550.656 31.5792 551.186 30.5015C551.733 29.4062 552.484 28.4787 553.438 27.719C554.41 26.9417 555.549 26.3498 556.857 25.9435C558.182 25.5372 559.621 25.334 561.176 25.334ZM568.358 54.219C568.358 53.689 568.199 53.2562 567.881 52.9205C567.563 52.5848 567.13 52.3287 566.582 52.152C566.034 51.9577 565.39 51.8163 564.648 51.728C563.923 51.6397 563.146 51.5778 562.316 51.5425C561.503 51.4895 560.655 51.4453 559.772 51.41C558.906 51.357 558.067 51.2775 557.254 51.1715C556.512 51.5778 555.911 52.0637 555.452 52.629C555.01 53.1767 554.79 53.8127 554.79 54.537C554.79 55.014 554.904 55.4557 555.134 55.862C555.381 56.286 555.761 56.6482 556.274 56.9485C556.804 57.2488 557.484 57.4785 558.314 57.6375C559.144 57.8142 560.16 57.9025 561.362 57.9025C562.581 57.9025 563.632 57.8053 564.515 57.611C565.398 57.4343 566.123 57.1782 566.688 56.8425C567.271 56.5245 567.695 56.1358 567.96 55.6765C568.225 55.2348 568.358 54.749 568.358 54.219ZM561.176 38.743C561.989 38.743 562.695 38.637 563.296 38.425C563.897 38.1953 564.391 37.8862 564.78 37.4975C565.186 37.1088 565.487 36.6407 565.681 36.093C565.893 35.5453 565.999 34.9447 565.999 34.291C565.999 32.9483 565.593 31.8883 564.78 31.111C563.985 30.316 562.784 29.9185 561.176 29.9185C559.568 29.9185 558.358 30.316 557.546 31.111C556.751 31.8883 556.353 32.9483 556.353 34.291C556.353 34.927 556.45 35.5188 556.645 36.0665C556.857 36.6142 557.157 37.0912 557.546 37.4975C557.952 37.8862 558.455 38.1953 559.056 38.425C559.674 38.637 560.381 38.743 561.176 38.743ZM605.587 31.111C605.41 31.3937 605.225 31.5968 605.03 31.7205C604.836 31.8265 604.589 31.8795 604.288 31.8795C603.97 31.8795 603.626 31.7912 603.255 31.6145C602.901 31.4378 602.486 31.2435 602.009 31.0315C601.532 30.8018 600.985 30.5987 600.366 30.422C599.766 30.2453 599.05 30.157 598.22 30.157C596.93 30.157 595.914 30.4308 595.172 30.9785C594.43 31.5262 594.059 32.2417 594.059 33.125C594.059 33.708 594.245 34.2027 594.616 34.609C595.004 34.9977 595.508 35.3422 596.126 35.6425C596.762 35.9428 597.478 36.2167 598.273 36.464C599.068 36.6937 599.88 36.9498 600.711 37.2325C601.541 37.5152 602.354 37.842 603.149 38.213C603.944 38.5663 604.65 39.0257 605.269 39.591C605.905 40.1387 606.408 40.8012 606.779 41.5785C607.168 42.3558 607.362 43.2922 607.362 44.3875C607.362 45.6948 607.124 46.905 606.647 48.018C606.17 49.1133 605.472 50.0673 604.553 50.88C603.635 51.675 602.495 52.3022 601.135 52.7615C599.792 53.2032 598.246 53.424 596.497 53.424C595.561 53.424 594.642 53.3357 593.741 53.159C592.858 53 592.001 52.7703 591.171 52.47C590.358 52.1697 589.598 51.8163 588.892 51.41C588.203 51.0037 587.593 50.562 587.063 50.085L588.574 47.594C588.768 47.2937 588.998 47.064 589.263 46.905C589.528 46.746 589.863 46.6665 590.27 46.6665C590.676 46.6665 591.056 46.7813 591.409 47.011C591.78 47.2407 592.204 47.488 592.681 47.753C593.158 48.018 593.715 48.2653 594.351 48.495C595.004 48.7247 595.826 48.8395 596.815 48.8395C597.593 48.8395 598.255 48.7512 598.803 48.5745C599.368 48.3802 599.827 48.1328 600.181 47.8325C600.552 47.5322 600.817 47.1877 600.976 46.799C601.152 46.3927 601.241 45.9775 601.241 45.5535C601.241 44.9175 601.046 44.3963 600.658 43.99C600.287 43.5837 599.783 43.2303 599.147 42.93C598.529 42.6297 597.813 42.3647 597.001 42.135C596.206 41.8877 595.384 41.6227 594.536 41.34C593.706 41.0573 592.884 40.7305 592.072 40.3595C591.277 39.9708 590.561 39.485 589.925 38.902C589.307 38.319 588.803 37.6035 588.415 36.7555C588.044 35.9075 587.858 34.8828 587.858 33.6815C587.858 32.5685 588.079 31.5085 588.521 30.5015C588.962 29.4945 589.607 28.62 590.455 27.878C591.321 27.1183 592.39 26.5177 593.662 26.076C594.951 25.6167 596.435 25.387 598.114 25.387C599.986 25.387 601.691 25.6962 603.228 26.3145C604.765 26.9328 606.046 27.7455 607.071 28.7525L605.587 31.111ZM612.584 61.8775V25.811H616.585C617.009 25.811 617.372 25.9082 617.672 26.1025C617.972 26.2968 618.167 26.5972 618.255 27.0035L618.785 29.521C619.88 28.2667 621.135 27.2508 622.548 26.4735C623.979 25.6962 625.648 25.3075 627.556 25.3075C629.04 25.3075 630.392 25.6167 631.611 26.235C632.848 26.8533 633.908 27.7543 634.791 28.938C635.692 30.104 636.381 31.5527 636.858 33.284C637.353 34.9977 637.6 36.9675 637.6 39.1935C637.6 41.2252 637.326 43.1067 636.778 44.838C636.231 46.5693 635.445 48.071 634.42 49.343C633.413 50.615 632.185 51.6132 630.736 52.3375C629.305 53.0442 627.698 53.3975 625.913 53.3975C624.376 53.3975 623.069 53.1678 621.991 52.7085C620.931 52.2315 619.977 51.5778 619.129 50.7475V61.8775H612.584ZM625.304 30.475C623.944 30.475 622.778 30.7665 621.806 31.3495C620.852 31.9148 619.96 32.7187 619.129 33.761V45.951C619.871 46.8697 620.675 47.5145 621.541 47.8855C622.424 48.2388 623.369 48.4155 624.376 48.4155C625.366 48.4155 626.258 48.23 627.053 47.859C627.866 47.488 628.546 46.9227 629.093 46.163C629.659 45.4033 630.092 44.4493 630.392 43.301C630.692 42.135 630.842 40.7658 630.842 39.1935C630.842 37.6035 630.71 36.2608 630.445 35.1655C630.198 34.0525 629.835 33.1515 629.358 32.4625C628.881 31.7735 628.298 31.27 627.609 30.952C626.938 30.634 626.17 30.475 625.304 30.475ZM653.788 25.387C655.501 25.387 657.074 25.6608 658.505 26.2085C659.953 26.7562 661.199 27.56 662.241 28.62C663.284 29.6623 664.096 30.952 664.679 32.489C665.262 34.0083 665.554 35.7485 665.554 37.7095C665.554 38.2042 665.527 38.6193 665.474 38.955C665.439 39.273 665.359 39.5292 665.236 39.7235C665.13 39.9002 664.98 40.0327 664.785 40.121C664.591 40.1917 664.344 40.227 664.043 40.227H647.242C647.437 43.0183 648.187 45.0677 649.495 46.375C650.802 47.6823 652.533 48.336 654.689 48.336C655.749 48.336 656.659 48.2123 657.418 47.965C658.196 47.7177 658.867 47.4438 659.432 47.1435C660.015 46.8432 660.519 46.5693 660.943 46.322C661.384 46.0747 661.808 45.951 662.215 45.951C662.48 45.951 662.709 46.004 662.904 46.11C663.098 46.216 663.266 46.3662 663.407 46.5605L665.315 48.9455C664.591 49.7935 663.778 50.509 662.877 51.092C661.976 51.6573 661.031 52.1167 660.042 52.47C659.07 52.8057 658.072 53.0442 657.047 53.1855C656.04 53.3268 655.06 53.3975 654.106 53.3975C652.215 53.3975 650.458 53.0883 648.832 52.47C647.207 51.834 645.794 50.9065 644.592 49.6875C643.391 48.4508 642.446 46.9315 641.757 45.1295C641.068 43.3098 640.723 41.2075 640.723 38.8225C640.723 36.9675 641.024 35.2273 641.624 33.602C642.225 31.959 643.082 30.5368 644.195 29.3355C645.325 28.1165 646.695 27.1537 648.302 26.447C649.928 25.7403 651.756 25.387 653.788 25.387ZM653.92 30.0775C652.012 30.0775 650.519 30.6163 649.442 31.694C648.364 32.7717 647.675 34.2998 647.375 36.2785H659.671C659.671 35.4305 659.556 34.6355 659.326 33.8935C659.097 33.1338 658.743 32.4713 658.266 31.906C657.789 31.3407 657.189 30.899 656.464 30.581C655.74 30.2453 654.892 30.0775 653.92 30.0775ZM682.099 25.387C683.813 25.387 685.385 25.6608 686.816 26.2085C688.265 26.7562 689.51 27.56 690.553 28.62C691.595 29.6623 692.408 30.952 692.991 32.489C693.574 34.0083 693.865 35.7485 693.865 37.7095C693.865 38.2042 693.839 38.6193 693.786 38.955C693.75 39.273 693.671 39.5292 693.547 39.7235C693.441 39.9002 693.291 40.0327 693.097 40.121C692.902 40.1917 692.655 40.227 692.355 40.227H675.554C675.748 43.0183 676.499 45.0677 677.806 46.375C679.114 47.6823 680.845 48.336 683 48.336C684.06 48.336 684.97 48.2123 685.73 47.965C686.507 47.7177 687.178 47.4438 687.744 47.1435C688.327 46.8432 688.83 46.5693 689.254 46.322C689.696 46.0747 690.12 45.951 690.526 45.951C690.791 45.951 691.021 46.004 691.215 46.11C691.41 46.216 691.577 46.3662 691.719 46.5605L693.627 48.9455C692.902 49.7935 692.09 50.509 691.189 51.092C690.288 51.6573 689.343 52.1167 688.353 52.47C687.382 52.8057 686.383 53.0442 685.359 53.1855C684.352 53.3268 683.371 53.3975 682.417 53.3975C680.527 53.3975 678.769 53.0883 677.144 52.47C675.518 51.834 674.105 50.9065 672.904 49.6875C671.702 48.4508 670.757 46.9315 670.068 45.1295C669.379 43.3098 669.035 41.2075 669.035 38.8225C669.035 36.9675 669.335 35.2273 669.936 33.602C670.536 31.959 671.393 30.5368 672.506 29.3355C673.637 28.1165 675.006 27.1537 676.614 26.447C678.239 25.7403 680.068 25.387 682.099 25.387ZM682.232 30.0775C680.324 30.0775 678.831 30.6163 677.753 31.694C676.676 32.7717 675.987 34.2998 675.686 36.2785H687.982C687.982 35.4305 687.867 34.6355 687.638 33.8935C687.408 33.1338 687.055 32.4713 686.578 31.906C686.101 31.3407 685.5 30.899 684.776 30.581C684.051 30.2453 683.203 30.0775 682.232 30.0775ZM718.308 53C717.46 53 716.903 52.6025 716.638 51.8075L716.108 49.184C715.543 49.82 714.951 50.3942 714.333 50.9065C713.714 51.4188 713.043 51.8605 712.319 52.2315C711.612 52.6025 710.844 52.8852 710.013 53.0795C709.201 53.2915 708.317 53.3975 707.363 53.3975C705.879 53.3975 704.519 53.0883 703.282 52.47C702.046 51.8517 700.977 50.9595 700.076 49.7935C699.192 48.6098 698.503 47.1523 698.009 45.421C697.532 43.6897 697.293 41.711 697.293 39.485C697.293 37.471 697.567 35.5983 698.115 33.867C698.662 32.1357 699.449 30.634 700.473 29.362C701.498 28.09 702.726 27.1007 704.157 26.394C705.588 25.6697 707.195 25.3075 708.98 25.3075C710.499 25.3075 711.798 25.5548 712.875 26.0495C713.953 26.5265 714.916 27.1713 715.764 27.984V13.621H722.309V53H718.308ZM709.589 48.2035C710.95 48.2035 712.107 47.9208 713.061 47.3555C714.015 46.7902 714.916 45.9863 715.764 44.944V32.754C715.022 31.853 714.209 31.217 713.326 30.846C712.46 30.475 711.524 30.2895 710.517 30.2895C709.527 30.2895 708.626 30.475 707.814 30.846C707.019 31.217 706.339 31.7823 705.773 32.542C705.226 33.284 704.802 34.238 704.501 35.404C704.201 36.5523 704.051 37.9127 704.051 39.485C704.051 41.075 704.174 42.4265 704.422 43.5395C704.687 44.6348 705.058 45.5358 705.535 46.2425C706.012 46.9315 706.595 47.435 707.284 47.753C707.973 48.0533 708.741 48.2035 709.589 48.2035Z" fill="black"></path><path d="M819.513 197.008H826.289V175.514C826.289 174.869 826.311 174.216 826.355 173.556L820.723 178.374C820.577 178.491 820.43 178.579 820.283 178.638C820.137 178.682 819.997 178.704 819.865 178.704C819.645 178.704 819.447 178.66 819.271 178.572C819.095 178.469 818.963 178.352 818.875 178.22L817.643 176.526L827.015 168.408H830.205V197.008H836.409V200H819.513V197.008ZM854.695 181.388C854.519 181.711 854.247 181.872 853.881 181.872C853.661 181.872 853.411 181.791 853.133 181.63C852.854 181.469 852.509 181.293 852.099 181.102C851.703 180.897 851.226 180.713 850.669 180.552C850.111 180.376 849.451 180.288 848.689 180.288C848.029 180.288 847.435 180.376 846.907 180.552C846.379 180.713 845.924 180.941 845.543 181.234C845.176 181.527 844.89 181.872 844.685 182.268C844.494 182.649 844.399 183.067 844.399 183.522C844.399 184.094 844.56 184.571 844.883 184.952C845.22 185.333 845.66 185.663 846.203 185.942C846.745 186.221 847.361 186.47 848.051 186.69C848.74 186.895 849.444 187.123 850.163 187.372C850.896 187.607 851.607 187.871 852.297 188.164C852.986 188.457 853.602 188.824 854.145 189.264C854.687 189.704 855.12 190.247 855.443 190.892C855.78 191.523 855.949 192.285 855.949 193.18C855.949 194.207 855.765 195.16 855.399 196.04C855.032 196.905 854.489 197.661 853.771 198.306C853.052 198.937 852.172 199.435 851.131 199.802C850.089 200.169 848.887 200.352 847.523 200.352C845.968 200.352 844.56 200.103 843.299 199.604C842.037 199.091 840.967 198.438 840.087 197.646L841.011 196.15C841.128 195.959 841.267 195.813 841.429 195.71C841.59 195.607 841.803 195.556 842.067 195.556C842.331 195.556 842.609 195.659 842.903 195.864C843.196 196.069 843.548 196.297 843.959 196.546C844.384 196.795 844.89 197.023 845.477 197.228C846.078 197.433 846.826 197.536 847.721 197.536C848.483 197.536 849.151 197.441 849.723 197.25C850.295 197.045 850.771 196.773 851.153 196.436C851.534 196.099 851.813 195.71 851.989 195.27C852.179 194.83 852.275 194.361 852.275 193.862C852.275 193.246 852.106 192.74 851.769 192.344C851.446 191.933 851.013 191.589 850.471 191.31C849.928 191.017 849.305 190.767 848.601 190.562C847.911 190.342 847.2 190.115 846.467 189.88C845.748 189.645 845.037 189.381 844.333 189.088C843.643 188.78 843.027 188.399 842.485 187.944C841.942 187.489 841.502 186.932 841.165 186.272C840.842 185.597 840.681 184.783 840.681 183.83C840.681 182.979 840.857 182.165 841.209 181.388C841.561 180.596 842.074 179.907 842.749 179.32C843.423 178.719 844.252 178.242 845.235 177.89C846.217 177.538 847.339 177.362 848.601 177.362C850.067 177.362 851.38 177.597 852.539 178.066C853.712 178.521 854.724 179.151 855.575 179.958L854.695 181.388Z" fill="black"></path><path d="M1647.91 170.19C1647.91 170.747 1647.74 171.209 1647.39 171.576C1647.03 171.928 1646.44 172.104 1645.6 172.104H1635.7L1634.25 180.376C1635.9 180.024 1637.41 179.848 1638.81 179.848C1640.45 179.848 1641.89 180.09 1643.14 180.574C1644.4 181.058 1645.46 181.725 1646.31 182.576C1647.16 183.427 1647.8 184.431 1648.22 185.59C1648.66 186.749 1648.88 188.01 1648.88 189.374C1648.88 191.046 1648.59 192.557 1648 193.906C1647.42 195.255 1646.61 196.414 1645.58 197.382C1644.57 198.335 1643.38 199.069 1642 199.582C1640.62 200.095 1639.13 200.352 1637.53 200.352C1636.61 200.352 1635.72 200.257 1634.87 200.066C1634.02 199.89 1633.23 199.648 1632.49 199.34C1631.76 199.032 1631.08 198.68 1630.45 198.284C1629.82 197.888 1629.26 197.47 1628.77 197.03L1629.96 195.358C1630.23 194.977 1630.58 194.786 1631.02 194.786C1631.3 194.786 1631.62 194.903 1631.99 195.138C1632.37 195.358 1632.82 195.607 1633.35 195.886C1633.88 196.165 1634.49 196.421 1635.2 196.656C1635.92 196.876 1636.77 196.986 1637.75 196.986C1638.85 196.986 1639.84 196.81 1640.72 196.458C1641.6 196.106 1642.35 195.607 1642.96 194.962C1643.6 194.302 1644.08 193.517 1644.42 192.608C1644.75 191.699 1644.92 190.679 1644.92 189.55C1644.92 188.567 1644.78 187.68 1644.48 186.888C1644.2 186.096 1643.77 185.421 1643.18 184.864C1642.61 184.307 1641.89 183.874 1641.03 183.566C1640.16 183.258 1639.15 183.104 1637.99 183.104C1637.2 183.104 1636.38 183.17 1635.53 183.302C1634.68 183.434 1633.8 183.647 1632.89 183.94L1630.42 183.214L1632.98 168.474H1647.91V170.19ZM1667.89 181.388C1667.72 181.711 1667.45 181.872 1667.08 181.872C1666.86 181.872 1666.61 181.791 1666.33 181.63C1666.05 181.469 1665.71 181.293 1665.3 181.102C1664.9 180.897 1664.43 180.713 1663.87 180.552C1663.31 180.376 1662.65 180.288 1661.89 180.288C1661.23 180.288 1660.63 180.376 1660.11 180.552C1659.58 180.713 1659.12 180.941 1658.74 181.234C1658.38 181.527 1658.09 181.872 1657.88 182.268C1657.69 182.649 1657.6 183.067 1657.6 183.522C1657.6 184.094 1657.76 184.571 1658.08 184.952C1658.42 185.333 1658.86 185.663 1659.4 185.942C1659.94 186.221 1660.56 186.47 1661.25 186.69C1661.94 186.895 1662.64 187.123 1663.36 187.372C1664.1 187.607 1664.81 187.871 1665.5 188.164C1666.19 188.457 1666.8 188.824 1667.34 189.264C1667.89 189.704 1668.32 190.247 1668.64 190.892C1668.98 191.523 1669.15 192.285 1669.15 193.18C1669.15 194.207 1668.96 195.16 1668.6 196.04C1668.23 196.905 1667.69 197.661 1666.97 198.306C1666.25 198.937 1665.37 199.435 1664.33 199.802C1663.29 200.169 1662.09 200.352 1660.72 200.352C1659.17 200.352 1657.76 200.103 1656.5 199.604C1655.24 199.091 1654.17 198.438 1653.29 197.646L1654.21 196.15C1654.33 195.959 1654.47 195.813 1654.63 195.71C1654.79 195.607 1655 195.556 1655.27 195.556C1655.53 195.556 1655.81 195.659 1656.1 195.864C1656.4 196.069 1656.75 196.297 1657.16 196.546C1657.58 196.795 1658.09 197.023 1658.68 197.228C1659.28 197.433 1660.03 197.536 1660.92 197.536C1661.68 197.536 1662.35 197.441 1662.92 197.25C1663.49 197.045 1663.97 196.773 1664.35 196.436C1664.73 196.099 1665.01 195.71 1665.19 195.27C1665.38 194.83 1665.47 194.361 1665.47 193.862C1665.47 193.246 1665.31 192.74 1664.97 192.344C1664.65 191.933 1664.21 191.589 1663.67 191.31C1663.13 191.017 1662.5 190.767 1661.8 190.562C1661.11 190.342 1660.4 190.115 1659.67 189.88C1658.95 189.645 1658.24 189.381 1657.53 189.088C1656.84 188.78 1656.23 188.399 1655.68 187.944C1655.14 187.489 1654.7 186.932 1654.36 186.272C1654.04 185.597 1653.88 184.783 1653.88 183.83C1653.88 182.979 1654.06 182.165 1654.41 181.388C1654.76 180.596 1655.27 179.907 1655.95 179.32C1656.62 178.719 1657.45 178.242 1658.43 177.89C1659.42 177.538 1660.54 177.362 1661.8 177.362C1663.27 177.362 1664.58 177.597 1665.74 178.066C1666.91 178.521 1667.92 179.151 1668.77 179.958L1667.89 181.388Z" fill="black"></path><path d="M318.552 401.871C320.644 399.536 321.918 396.454 321.918 393.082C321.918 385.813 316.003 379.898 308.734 379.898H283.146C285.681 372.208 286.762 362.004 286.762 357.63V353.238C286.762 343.547 278.875 335.66 269.184 335.66H264.789C262.773 335.66 261.016 337.031 260.526 338.988L258.133 348.565C254.778 361.978 244.129 376.775 233.107 379.465C231.177 374.578 226.41 371.109 220.844 371.109H194.477C192.051 371.109 190.082 373.078 190.082 375.504V454.605C190.082 457.031 192.051 459 194.477 459H220.844C226.085 459 230.62 455.927 232.744 451.485L247.844 456.519C252.78 458.165 257.925 459 263.131 459H299.945C307.214 459 313.129 453.085 313.129 445.816C313.129 444.103 312.801 442.462 312.203 440.959C317.793 439.433 321.918 434.309 321.918 428.238C321.918 424.866 320.644 421.784 318.552 419.449C320.644 417.114 321.918 414.032 321.918 410.66C321.918 407.288 320.644 404.206 318.552 401.871ZM225.238 445.816C225.238 448.239 223.267 450.211 220.844 450.211H198.871V379.898H220.844C223.267 379.898 225.238 381.87 225.238 384.293V445.816ZM299.945 406.266H308.734C311.157 406.266 313.129 408.237 313.129 410.66C313.129 413.083 311.157 415.055 308.734 415.055H299.945C297.52 415.055 295.551 417.023 295.551 419.449C295.551 421.875 297.52 423.844 299.945 423.844H308.734C311.157 423.844 313.129 425.815 313.129 428.238C313.129 430.661 311.157 432.633 308.734 432.633H299.945C297.52 432.633 295.551 434.602 295.551 437.027C295.551 439.453 297.52 441.422 299.945 441.422C302.368 441.422 304.34 443.394 304.34 445.816C304.34 448.239 302.368 450.211 299.945 450.211H263.131C258.871 450.211 254.661 449.528 250.621 448.181L234.027 442.649V388.271C240.921 386.962 247.668 382.597 253.759 375.451C259.706 368.473 264.528 359.221 266.658 350.698L268.22 344.449H269.184C274.029 344.449 277.973 348.393 277.973 353.238V357.63C277.973 363.53 276.127 374.848 273.766 379.898H264.789C262.363 379.898 260.395 381.867 260.395 384.293C260.395 386.719 262.363 388.688 264.789 388.688H308.734C311.157 388.688 313.129 390.659 313.129 393.082C313.129 395.505 311.157 397.477 308.734 397.477H299.945C297.52 397.477 295.551 399.445 295.551 401.871C295.551 404.297 297.52 406.266 299.945 406.266Z" fill="#5CCA8A"></path><path d="M212.055 441.422C214.482 441.422 216.449 439.454 216.449 437.027C216.449 434.6 214.482 432.633 212.055 432.633C209.628 432.633 207.66 434.6 207.66 437.027C207.66 439.454 209.628 441.422 212.055 441.422Z" fill="#5CCA8A"></path><path d="M273.578 309C271.151 309 269.184 310.968 269.184 313.395V322.477C269.184 324.904 271.151 326.871 273.578 326.871C276.005 326.871 277.973 324.904 277.973 322.477V313.395C277.973 310.968 276.005 309 273.578 309Z" fill="#5CCA8A"></path><path d="M254.934 328.379L248.719 322.164C247.003 320.448 244.221 320.448 242.504 322.164C240.788 323.88 240.788 326.663 242.504 328.379L248.719 334.594C250.435 336.31 253.218 336.31 254.934 334.594C256.65 332.877 256.65 330.095 254.934 328.379Z" fill="#5CCA8A"></path><path d="M304.652 322.164C302.936 320.448 300.154 320.448 298.437 322.164L292.223 328.379C290.506 330.095 290.506 332.877 292.223 334.593C293.939 336.31 296.721 336.31 298.437 334.594L304.652 328.379C306.368 326.663 306.368 323.88 304.652 322.164Z" fill="#5CCA8A"></path><path d="M1474.82 324.674H1456.95C1451.22 324.674 1446.33 328.348 1444.52 333.463H1431.51L1412.68 325.056C1412.12 324.804 1411.51 324.674 1410.89 324.674H1368.76C1361.49 324.674 1355.58 330.588 1355.58 337.857C1355.58 339.573 1355.91 341.212 1356.51 342.717C1350.92 344.242 1346.79 349.364 1346.79 355.436C1346.79 357.151 1347.12 358.79 1347.72 360.295C1342.13 361.82 1338 366.942 1338 373.014C1338 376.388 1339.28 379.468 1341.37 381.803C1339.28 384.137 1338 387.218 1338 390.592C1338 397.861 1343.91 403.775 1351.18 403.775H1386.63V425.748C1386.63 435.441 1394.52 443.326 1404.21 443.326C1409.06 443.326 1413 439.423 1413 434.625C1413 429.829 1413.68 425.103 1415.02 420.579C1415.02 420.56 1415.03 420.542 1415.03 420.524C1416.93 413.783 1420.28 407.687 1424.98 402.404C1429.74 397.688 1436.29 394.986 1442.97 394.986H1444.52C1446.33 400.101 1451.22 403.775 1456.95 403.775H1474.82C1482.09 403.775 1488 397.861 1488 390.592V337.857C1488 330.588 1482.09 324.674 1474.82 324.674ZM1443.76 386.197H1442.97C1433.94 386.197 1425.09 389.87 1418.68 396.274C1418.62 396.331 1418.57 396.39 1418.51 396.451C1412.87 402.755 1408.86 410.043 1406.58 418.113C1405.02 423.411 1404.22 428.936 1404.21 434.537C1399.36 434.537 1395.42 430.594 1395.42 425.748V399.381C1395.42 396.954 1393.45 394.986 1391.03 394.986H1351.18C1348.76 394.986 1346.79 393.015 1346.79 390.592C1346.79 388.169 1348.76 386.197 1351.18 386.197H1368.76C1371.19 386.197 1373.16 384.23 1373.16 381.803C1373.16 379.376 1371.19 377.408 1368.76 377.408H1351.18C1348.76 377.408 1346.79 375.437 1346.79 373.014C1346.79 370.591 1348.76 368.619 1351.18 368.619C1353.05 368.619 1366.9 368.619 1368.76 368.619C1371.19 368.619 1373.16 366.652 1373.16 364.225C1373.16 361.798 1371.19 359.83 1368.76 359.83H1359.97C1357.55 359.83 1355.58 357.859 1355.58 355.436C1355.58 353.012 1357.55 351.041 1359.97 351.041C1361.84 351.041 1375.69 351.041 1377.55 351.041C1379.98 351.041 1381.95 349.073 1381.95 346.646C1381.95 344.22 1379.98 342.252 1377.55 342.252H1368.76C1366.34 342.252 1364.37 340.281 1364.37 337.857C1364.37 335.434 1366.34 333.463 1368.76 333.463H1409.95L1428.79 341.87C1429.35 342.122 1429.96 342.252 1430.58 342.252H1443.76V386.197ZM1479.21 390.592C1479.21 393.015 1477.24 394.986 1474.82 394.986H1456.95C1454.52 394.986 1452.55 393.015 1452.55 390.592V337.857C1452.55 335.434 1454.52 333.463 1456.95 333.463H1474.82C1477.24 333.463 1479.21 335.434 1479.21 337.857V390.592Z" fill="#EB5757"></path><path d="M1465.73 351.041C1468.16 351.041 1470.13 349.074 1470.13 346.646C1470.13 344.219 1468.16 342.252 1465.73 342.252C1463.31 342.252 1461.34 344.219 1461.34 346.646C1461.34 349.074 1463.31 351.041 1465.73 351.041Z" fill="#EB5757"></path><defs><linearGradient id="paint0_linear" x1="1.32336e-05" y1="248.999" x2="1671" y2="238.998" gradientUnits="userSpaceOnUse"><stop stop-color="#6FCF97"></stop><stop offset="0.21875" stop-color="#6FCF97"></stop><stop offset="0.390625" stop-color="#F2C94C"></stop><stop offset="0.536458" stop-color="#F2C44C"></stop><stop offset="0.833333" stop-color="#EB5757"></stop></linearGradient></defs></svg> 